M48
; DRILL file {KiCad 9.0.1} date 2025-04-04T22:51:44+1100
; FORMAT={-:-/ absolute / inch / decimal}
; #@! TF.CreationDate,2025-04-04T22:51:44+11:00
; #@! TF.GenerationSoftware,Kicad,Pcbnew,9.0.1
; #@! TF.FileFunction,NonPlated,1,4,NPTH
FMAT,2
INCH
; #@! TA.AperFunction,NonPlated,NPTH,ComponentDrill
T1C0.0256
; #@! TA.AperFunction,NonPlated,NPTH,ComponentDrill
T2C0.0390
; #@! TA.AperFunction,NonPlated,NPTH,ComponentDrill
T3C0.0669
; #@! TA.AperFunction,NonPlated,NPTH,ComponentDrill
T4C0.0935
; #@! TA.AperFunction,NonPlated,NPTH,ComponentDrill
T5C0.1339
%
G90
G05
T1
X6.2248Y-1.9488
X6.4524Y-1.9488
T2
X6.2983Y-4.2165
X6.3383Y-4.0165
X6.3783Y-4.2165
T3
X5.0295Y-2.2736
X5.0295Y-2.9626
X5.0295Y-3.6516
X5.0295Y-4.3406
X5.4626Y-2.2736
X5.4626Y-2.9626
X5.4626Y-3.6516
X5.4626Y-4.3406
X5.7579Y-2.2736
X5.7579Y-2.9626
X5.7579Y-3.6516
X5.7579Y-4.3406
X6.1909Y-2.2736
X6.1909Y-2.9626
X6.1909Y-3.6516
X6.1909Y-4.3406
X6.4862Y-2.2736
X6.4862Y-2.9626
X6.4862Y-3.6516
X6.4862Y-4.3406
X6.9193Y-2.2736
X6.9193Y-2.9626
X6.9193Y-3.6516
X6.9193Y-4.3406
X7.2146Y-2.2736
X7.2146Y-2.9626
X7.2146Y-3.6516
X7.2146Y-4.3406
X7.6476Y-2.2736
X7.6476Y-2.9626
X7.6476Y-3.6516
X7.6476Y-4.3406
T4
X6.2383Y-4.0165
X6.2383Y-4.1415
X6.4383Y-4.0165
X6.4383Y-4.1415
T5
X5.2461Y-2.2736
X5.2461Y-2.9626
X5.2461Y-3.6516
X5.2461Y-4.3406
X5.9744Y-2.2736
X5.9744Y-2.9626
X5.9744Y-3.6516
X5.9744Y-4.3406
X6.7028Y-2.2736
X6.7028Y-2.9626
X6.7028Y-3.6516
X6.7028Y-4.3406
X7.4311Y-2.2736
X7.4311Y-2.9626
X7.4311Y-3.6516
X7.4311Y-4.3406
M30
