%TF.GenerationSoftware,KiCad,Pcbnew,9.0.1*%
%TF.CreationDate,2025-04-04T22:51:44+11:00*%
%TF.ProjectId,Kobold,4b6f626f-6c64-42e6-9b69-6361645f7063,rev?*%
%TF.SameCoordinates,Original*%
%TF.FileFunction,Soldermask,Top*%
%TF.FilePolarity,Negative*%
%FSLAX46Y46*%
G04 Gerber Fmt 4.6, Leading zero omitted, Abs format (unit mm)*
G04 Created by KiCad (PCBNEW 9.0.1) date 2025-04-04 22:51:44*
%MOMM*%
%LPD*%
G01*
G04 APERTURE LIST*
G04 Aperture macros list*
%AMRoundRect*
0 Rectangle with rounded corners*
0 $1 Rounding radius*
0 $2 $3 $4 $5 $6 $7 $8 $9 X,Y pos of 4 corners*
0 Add a 4 corners polygon primitive as box body*
4,1,4,$2,$3,$4,$5,$6,$7,$8,$9,$2,$3,0*
0 Add four circle primitives for the rounded corners*
1,1,$1+$1,$2,$3*
1,1,$1+$1,$4,$5*
1,1,$1+$1,$6,$7*
1,1,$1+$1,$8,$9*
0 Add four rect primitives between the rounded corners*
20,1,$1+$1,$2,$3,$4,$5,0*
20,1,$1+$1,$4,$5,$6,$7,0*
20,1,$1+$1,$6,$7,$8,$9,0*
20,1,$1+$1,$8,$9,$2,$3,0*%
%AMRotRect*
0 Rectangle, with rotation*
0 The origin of the aperture is its center*
0 $1 length*
0 $2 width*
0 $3 Rotation angle, in degrees counterclockwise*
0 Add horizontal line*
21,1,$1,$2,0,0,$3*%
%AMFreePoly0*
4,1,18,-0.410000,0.265000,0.000000,0.675000,0.328000,0.675000,0.359380,0.668758,0.385983,0.650983,0.403758,0.624380,0.410000,0.593000,0.410000,-0.593000,0.403758,-0.624380,0.385983,-0.650983,0.359380,-0.668758,0.328000,-0.675000,-0.328000,-0.675000,-0.359380,-0.668758,-0.385983,-0.650983,-0.403758,-0.624380,-0.410000,-0.593000,-0.410000,0.265000,-0.410000,0.265000,$1*%
G04 Aperture macros list end*
%ADD10R,0.280000X0.580000*%
%ADD11RoundRect,0.140000X-0.219203X-0.021213X-0.021213X-0.219203X0.219203X0.021213X0.021213X0.219203X0*%
%ADD12RoundRect,0.140000X-0.170000X0.140000X-0.170000X-0.140000X0.170000X-0.140000X0.170000X0.140000X0*%
%ADD13RoundRect,0.200000X-0.275000X0.200000X-0.275000X-0.200000X0.275000X-0.200000X0.275000X0.200000X0*%
%ADD14C,3.300000*%
%ADD15RoundRect,0.260000X-1.065000X-1.040000X1.065000X-1.040000X1.065000X1.040000X-1.065000X1.040000X0*%
%ADD16RoundRect,0.135000X0.185000X-0.135000X0.185000X0.135000X-0.185000X0.135000X-0.185000X-0.135000X0*%
%ADD17C,4.400000*%
%ADD18RoundRect,0.150000X0.150000X-0.512500X0.150000X0.512500X-0.150000X0.512500X-0.150000X-0.512500X0*%
%ADD19R,0.500000X0.350000*%
%ADD20R,1.000000X1.600000*%
%ADD21R,0.600000X1.100000*%
%ADD22RoundRect,0.250000X-0.662913X-0.220971X-0.220971X-0.662913X0.662913X0.220971X0.220971X0.662913X0*%
%ADD23RoundRect,0.082000X-0.593000X0.328000X-0.593000X-0.328000X0.593000X-0.328000X0.593000X0.328000X0*%
%ADD24FreePoly0,270.000000*%
%ADD25RoundRect,0.140000X-0.140000X-0.170000X0.140000X-0.170000X0.140000X0.170000X-0.140000X0.170000X0*%
%ADD26RoundRect,0.050000X-0.150000X-0.300000X0.150000X-0.300000X0.150000X0.300000X-0.150000X0.300000X0*%
%ADD27RoundRect,0.140000X0.170000X-0.140000X0.170000X0.140000X-0.170000X0.140000X-0.170000X-0.140000X0*%
%ADD28RoundRect,0.135000X-0.135000X-0.185000X0.135000X-0.185000X0.135000X0.185000X-0.135000X0.185000X0*%
%ADD29RoundRect,0.140000X0.140000X0.170000X-0.140000X0.170000X-0.140000X-0.170000X0.140000X-0.170000X0*%
%ADD30RoundRect,0.082000X0.593000X-0.328000X0.593000X0.328000X-0.593000X0.328000X-0.593000X-0.328000X0*%
%ADD31FreePoly0,90.000000*%
%ADD32RoundRect,0.162500X0.162500X-0.650000X0.162500X0.650000X-0.162500X0.650000X-0.162500X-0.650000X0*%
%ADD33R,0.580000X0.280000*%
%ADD34RoundRect,0.200000X0.275000X-0.200000X0.275000X0.200000X-0.275000X0.200000X-0.275000X-0.200000X0*%
%ADD35R,0.800000X0.650000*%
%ADD36RoundRect,0.062500X-0.220971X-0.309359X0.309359X0.220971X0.220971X0.309359X-0.309359X-0.220971X0*%
%ADD37RoundRect,0.062500X0.220971X-0.309359X0.309359X-0.220971X-0.220971X0.309359X-0.309359X0.220971X0*%
%ADD38RotRect,5.600000X5.600000X45.000000*%
%ADD39RoundRect,0.135000X-0.185000X0.135000X-0.185000X-0.135000X0.185000X-0.135000X0.185000X0.135000X0*%
%ADD40R,0.600000X1.450000*%
%ADD41R,0.300000X1.450000*%
%ADD42O,1.000000X2.100000*%
%ADD43O,1.000000X1.600000*%
%ADD44R,0.200000X0.660000*%
%ADD45R,0.400000X0.660000*%
%ADD46C,0.787400*%
%ADD47RoundRect,0.112500X-0.187500X-0.112500X0.187500X-0.112500X0.187500X0.112500X-0.187500X0.112500X0*%
G04 APERTURE END LIST*
D10*
%TO.C,U1*%
X178600000Y-57000000D03*
X179100000Y-57000000D03*
X179600000Y-57000000D03*
X179600000Y-55560000D03*
X178600000Y-55560000D03*
%TD*%
D11*
%TO.C,C21*%
X164760589Y-90060589D03*
X165439411Y-90739411D03*
%TD*%
D12*
%TO.C,C13*%
X175800000Y-66320000D03*
X175800000Y-67280000D03*
%TD*%
D13*
%TO.C,R5*%
X162100000Y-67375000D03*
X162100000Y-69025000D03*
%TD*%
D11*
%TO.C,C17*%
X165460589Y-89360589D03*
X166139411Y-90039411D03*
%TD*%
D14*
%TO.C,SW14*%
X175250000Y-114000000D03*
D15*
X178495000Y-114000000D03*
X167005000Y-116200000D03*
D14*
X170250000Y-116200000D03*
%TD*%
%TO.C,SW11*%
X156750000Y-96500000D03*
D15*
X159995000Y-96500000D03*
X148505000Y-98700000D03*
D14*
X151750000Y-98700000D03*
%TD*%
D16*
%TO.C,R7*%
X183600000Y-64210000D03*
X183600000Y-63190000D03*
%TD*%
%TO.C,R11*%
X146500000Y-64210000D03*
X146500000Y-63190000D03*
%TD*%
D17*
%TO.C,H4*%
X179500000Y-101500000D03*
%TD*%
D18*
%TO.C,U4*%
X158618000Y-68415500D03*
X160518000Y-68415500D03*
X159568000Y-66140500D03*
%TD*%
D19*
%TO.C,U3*%
X157300000Y-66650000D03*
X157300000Y-66000000D03*
X157300000Y-65350000D03*
X155300000Y-65350000D03*
X155300000Y-66000000D03*
X155300000Y-66650000D03*
D20*
X156300000Y-66000000D03*
%TD*%
D21*
%TO.C,U5*%
X141550000Y-57500000D03*
X142500000Y-57500000D03*
X143450000Y-57500000D03*
X143450000Y-54900000D03*
X141550000Y-54900000D03*
%TD*%
D14*
%TO.C,SW13*%
X193750000Y-114000000D03*
D15*
X196995000Y-114000000D03*
X185505000Y-116200000D03*
D14*
X188750000Y-116200000D03*
%TD*%
D22*
%TO.C,R3*%
X157715856Y-55099856D03*
X159784144Y-57168144D03*
%TD*%
D23*
%TO.C,D10*%
X167525000Y-88800000D03*
X167525000Y-87300000D03*
D24*
X172975000Y-87300000D03*
D23*
X172975000Y-88800000D03*
%TD*%
D25*
%TO.C,C6*%
X126720000Y-67700000D03*
X127680000Y-67700000D03*
%TD*%
%TO.C,C26*%
X132240000Y-60560000D03*
X133200000Y-60560000D03*
%TD*%
%TO.C,C12*%
X185020000Y-58750000D03*
X185980000Y-58750000D03*
%TD*%
D23*
%TO.C,D12*%
X130525000Y-88800000D03*
X130525000Y-87300000D03*
D24*
X135975000Y-87300000D03*
D23*
X135975000Y-88800000D03*
%TD*%
D26*
%TO.C,D17*%
X157130000Y-52832000D03*
X157830000Y-52832000D03*
%TD*%
D27*
%TO.C,C19*%
X126700000Y-81880000D03*
X126700000Y-80920000D03*
%TD*%
%TO.C,C27*%
X128600000Y-86467000D03*
X128600000Y-85507000D03*
%TD*%
%TO.C,C11*%
X176050000Y-84230000D03*
X176050000Y-83270000D03*
%TD*%
D14*
%TO.C,SW5*%
X193750000Y-79000000D03*
D15*
X196995000Y-79000000D03*
X185505000Y-81200000D03*
D14*
X188750000Y-81200000D03*
%TD*%
D28*
%TO.C,R1*%
X158990000Y-71400000D03*
X160010000Y-71400000D03*
%TD*%
D10*
%TO.C,U11*%
X166550000Y-60920000D03*
X167050000Y-60920000D03*
X167550000Y-60920000D03*
X167550000Y-59480000D03*
X166550000Y-59480000D03*
%TD*%
D29*
%TO.C,C5*%
X195180000Y-102700000D03*
X194220000Y-102700000D03*
%TD*%
D25*
%TO.C,C8*%
X159820000Y-64600000D03*
X160780000Y-64600000D03*
%TD*%
D30*
%TO.C,D7*%
X154475000Y-69800000D03*
X154475000Y-71300000D03*
D31*
X149025000Y-71300000D03*
D30*
X149025000Y-69800000D03*
%TD*%
D14*
%TO.C,SW10*%
X175250000Y-96500000D03*
D15*
X178495000Y-96500000D03*
X167005000Y-98700000D03*
D14*
X170250000Y-98700000D03*
%TD*%
D29*
%TO.C,C18*%
X155240000Y-84800000D03*
X154280000Y-84800000D03*
%TD*%
D23*
%TO.C,D3*%
X149025000Y-53800000D03*
X149025000Y-52300000D03*
D24*
X154475000Y-52300000D03*
D23*
X154475000Y-53800000D03*
%TD*%
D12*
%TO.C,C14*%
X165600000Y-59720000D03*
X165600000Y-60680000D03*
%TD*%
D32*
%TO.C,U8*%
X177595000Y-91087500D03*
X178865000Y-91087500D03*
X180135000Y-91087500D03*
X181405000Y-91087500D03*
X181405000Y-83912500D03*
X180135000Y-83912500D03*
X178865000Y-83912500D03*
X177595000Y-83912500D03*
%TD*%
D17*
%TO.C,H1*%
X142500000Y-66500000D03*
%TD*%
D14*
%TO.C,SW16*%
X138250000Y-114000000D03*
D15*
X141495000Y-114000000D03*
X130005000Y-116200000D03*
D14*
X133250000Y-116200000D03*
%TD*%
%TO.C,SW6*%
X175250000Y-79000000D03*
D15*
X178495000Y-79000000D03*
X167005000Y-81200000D03*
D14*
X170250000Y-81200000D03*
%TD*%
D33*
%TO.C,U10*%
X173280000Y-66300000D03*
X173280000Y-66800000D03*
X173280000Y-67300000D03*
X174720000Y-67300000D03*
X174720000Y-66300000D03*
%TD*%
D29*
%TO.C,C3*%
X156080000Y-67700000D03*
X155120000Y-67700000D03*
%TD*%
D27*
%TO.C,C16*%
X162110000Y-80180000D03*
X162110000Y-79220000D03*
%TD*%
D23*
%TO.C,D2*%
X167525000Y-53800000D03*
X167525000Y-52300000D03*
D24*
X172975000Y-52300000D03*
D23*
X172975000Y-53800000D03*
%TD*%
D17*
%TO.C,H3*%
X142500000Y-101500000D03*
%TD*%
D34*
%TO.C,R2*%
X157700000Y-71725000D03*
X157700000Y-70075000D03*
%TD*%
D25*
%TO.C,C2*%
X180820000Y-54580000D03*
X181780000Y-54580000D03*
%TD*%
D33*
%TO.C,U12*%
X145460000Y-77700000D03*
X145460000Y-78200000D03*
X145460000Y-78700000D03*
X146900000Y-78700000D03*
X146900000Y-77700000D03*
%TD*%
D35*
%TO.C,SW18*%
X124500000Y-77350000D03*
X127500000Y-77350000D03*
X127500000Y-79150000D03*
X124500000Y-79150000D03*
%TD*%
D28*
%TO.C,R6*%
X177690000Y-92700000D03*
X178710000Y-92700000D03*
%TD*%
D14*
%TO.C,SW7*%
X156750000Y-79000000D03*
D15*
X159995000Y-79000000D03*
X148505000Y-81200000D03*
D14*
X151750000Y-81200000D03*
%TD*%
D36*
%TO.C,U7*%
X156599554Y-86486136D03*
X156953107Y-86839689D03*
X157306661Y-87193243D03*
X157660214Y-87546796D03*
X158013767Y-87900349D03*
X158367321Y-88253903D03*
X158720874Y-88607456D03*
X159074428Y-88961010D03*
X159427981Y-89314563D03*
X159781534Y-89668116D03*
X160135088Y-90021670D03*
X160488641Y-90375223D03*
D37*
X161460913Y-90375223D03*
X161814466Y-90021670D03*
X162168020Y-89668116D03*
X162521573Y-89314563D03*
X162875126Y-88961010D03*
X163228680Y-88607456D03*
X163582233Y-88253903D03*
X163935787Y-87900349D03*
X164289340Y-87546796D03*
X164642893Y-87193243D03*
X164996447Y-86839689D03*
X165350000Y-86486136D03*
D36*
X165350000Y-85513864D03*
X164996447Y-85160311D03*
X164642893Y-84806757D03*
X164289340Y-84453204D03*
X163935787Y-84099651D03*
X163582233Y-83746097D03*
X163228680Y-83392544D03*
X162875126Y-83038990D03*
X162521573Y-82685437D03*
X162168020Y-82331884D03*
X161814466Y-81978330D03*
X161460913Y-81624777D03*
D37*
X160488641Y-81624777D03*
X160135088Y-81978330D03*
X159781534Y-82331884D03*
X159427981Y-82685437D03*
X159074428Y-83038990D03*
X158720874Y-83392544D03*
X158367321Y-83746097D03*
X158013767Y-84099651D03*
X157660214Y-84453204D03*
X157306661Y-84806757D03*
X156953107Y-85160311D03*
X156599554Y-85513864D03*
D38*
X160974777Y-86000000D03*
%TD*%
D14*
%TO.C,SW12*%
X138250000Y-96500000D03*
D15*
X141495000Y-96500000D03*
X130005000Y-98700000D03*
D14*
X133250000Y-98700000D03*
%TD*%
D30*
%TO.C,D14*%
X172975000Y-104800000D03*
X172975000Y-106300000D03*
D31*
X167525000Y-106300000D03*
D30*
X167525000Y-104800000D03*
%TD*%
%TO.C,D13*%
X191475000Y-104800000D03*
X191475000Y-106300000D03*
D31*
X186025000Y-106300000D03*
D30*
X186025000Y-104800000D03*
%TD*%
D17*
%TO.C,H2*%
X179500000Y-66500000D03*
%TD*%
D12*
%TO.C,C10*%
X140300000Y-54720000D03*
X140300000Y-55680000D03*
%TD*%
D39*
%TO.C,R10*%
X144380000Y-77690000D03*
X144380000Y-78710000D03*
%TD*%
D23*
%TO.C,D4*%
X130525000Y-53800000D03*
X130525000Y-52300000D03*
D24*
X135975000Y-52300000D03*
D23*
X135975000Y-53800000D03*
%TD*%
D33*
%TO.C,U14*%
X146480000Y-66600000D03*
X146480000Y-67100000D03*
X146480000Y-67600000D03*
X147920000Y-67600000D03*
X147920000Y-66600000D03*
%TD*%
D10*
%TO.C,U2*%
X180800000Y-57000000D03*
X181300000Y-57000000D03*
X181800000Y-57000000D03*
X181800000Y-55560000D03*
X180800000Y-55560000D03*
%TD*%
D23*
%TO.C,D1*%
X186025000Y-53800000D03*
X186025000Y-52300000D03*
D24*
X191475000Y-52300000D03*
D23*
X191475000Y-53800000D03*
%TD*%
D14*
%TO.C,SW2*%
X175250000Y-61500000D03*
D15*
X178495000Y-61500000D03*
X167005000Y-63700000D03*
D14*
X170250000Y-63700000D03*
%TD*%
D12*
%TO.C,C22*%
X156310000Y-88140000D03*
X156310000Y-89100000D03*
%TD*%
D27*
%TO.C,C25*%
X145550000Y-81230000D03*
X145550000Y-80270000D03*
%TD*%
D14*
%TO.C,SW8*%
X138250000Y-79000000D03*
D15*
X141495000Y-79000000D03*
X130005000Y-81200000D03*
D14*
X133250000Y-81200000D03*
%TD*%
D30*
%TO.C,D5*%
X191475000Y-69800000D03*
X191475000Y-71300000D03*
D31*
X186025000Y-71300000D03*
D30*
X186025000Y-69800000D03*
%TD*%
D14*
%TO.C,SW4*%
X138250000Y-61500000D03*
D15*
X141495000Y-61500000D03*
X130005000Y-63700000D03*
D14*
X133250000Y-63700000D03*
%TD*%
D40*
%TO.C,J1*%
X164250000Y-50945000D03*
X163450000Y-50945000D03*
D41*
X162250000Y-50945000D03*
X161250000Y-50945000D03*
X160750000Y-50945000D03*
X159750000Y-50945000D03*
D40*
X158550000Y-50945000D03*
X157750000Y-50945000D03*
X157750000Y-50945000D03*
X158550000Y-50945000D03*
D41*
X159250000Y-50945000D03*
X160250000Y-50945000D03*
X161750000Y-50945000D03*
X162750000Y-50945000D03*
D40*
X163450000Y-50945000D03*
X164250000Y-50945000D03*
D42*
X165320000Y-50030000D03*
D43*
X165320000Y-45850000D03*
D42*
X156680000Y-50030000D03*
D43*
X156680000Y-45850000D03*
%TD*%
D28*
%TO.C,R13*%
X144340000Y-84700000D03*
X145360000Y-84700000D03*
%TD*%
D25*
%TO.C,C1*%
X178620000Y-54680000D03*
X179580000Y-54680000D03*
%TD*%
D12*
%TO.C,C23*%
X147300000Y-59520000D03*
X147300000Y-60480000D03*
%TD*%
D14*
%TO.C,SW15*%
X156750000Y-114000000D03*
D15*
X159995000Y-114000000D03*
X148505000Y-116200000D03*
D14*
X151750000Y-116200000D03*
%TD*%
D25*
%TO.C,C7*%
X126720000Y-102700000D03*
X127680000Y-102700000D03*
%TD*%
D12*
%TO.C,C24*%
X149000000Y-66520000D03*
X149000000Y-67480000D03*
%TD*%
D30*
%TO.C,D16*%
X135975000Y-104800000D03*
X135975000Y-106300000D03*
D31*
X130525000Y-106300000D03*
D30*
X130525000Y-104800000D03*
%TD*%
D33*
%TO.C,U15*%
X144080000Y-82100000D03*
X144080000Y-82600000D03*
X144080000Y-83100000D03*
X145520000Y-83100000D03*
X145520000Y-82100000D03*
%TD*%
D10*
%TO.C,U9*%
X184980000Y-61020000D03*
X185480000Y-61020000D03*
X185980000Y-61020000D03*
X185980000Y-59580000D03*
X184980000Y-59580000D03*
%TD*%
D14*
%TO.C,SW9*%
X193750000Y-96500000D03*
D15*
X196995000Y-96500000D03*
X185505000Y-98700000D03*
D14*
X188750000Y-98700000D03*
%TD*%
D12*
%TO.C,C15*%
X147900000Y-77720000D03*
X147900000Y-78680000D03*
%TD*%
D44*
%TO.C,U6*%
X160000000Y-54730000D03*
X160500001Y-54730000D03*
D45*
X161000000Y-54730000D03*
D44*
X161499999Y-54730000D03*
X162000000Y-54730000D03*
X162000000Y-53870000D03*
X161499999Y-53870000D03*
D45*
X161000000Y-53870000D03*
D44*
X160500001Y-53870000D03*
X160000000Y-53870000D03*
%TD*%
D46*
%TO.C,J2*%
X160359000Y-103290000D03*
X161629000Y-103290000D03*
X160359000Y-104560000D03*
X161629000Y-104560000D03*
X160359000Y-105830000D03*
X161629000Y-105830000D03*
%TD*%
D35*
%TO.C,SW17*%
X124500000Y-83600000D03*
X127500000Y-83600000D03*
X127500000Y-85400000D03*
X124500000Y-85400000D03*
%TD*%
D30*
%TO.C,D8*%
X135975000Y-69800000D03*
X135975000Y-71300000D03*
D31*
X130525000Y-71300000D03*
D30*
X130525000Y-69800000D03*
%TD*%
D29*
%TO.C,C9*%
X160800000Y-69900000D03*
X159840000Y-69900000D03*
%TD*%
D14*
%TO.C,SW3*%
X156750000Y-61500000D03*
D15*
X159995000Y-61500000D03*
X148505000Y-63700000D03*
D14*
X151750000Y-63700000D03*
%TD*%
D34*
%TO.C,R9*%
X125300000Y-82225000D03*
X125300000Y-80575000D03*
%TD*%
D10*
%TO.C,U13*%
X148270000Y-60860000D03*
X148770000Y-60860000D03*
X149270000Y-60860000D03*
X149270000Y-59420000D03*
X148270000Y-59420000D03*
%TD*%
D30*
%TO.C,D6*%
X172975000Y-69800000D03*
X172975000Y-71300000D03*
D31*
X167525000Y-71300000D03*
D30*
X167525000Y-69800000D03*
%TD*%
D29*
%TO.C,C4*%
X195280000Y-67700000D03*
X194320000Y-67700000D03*
%TD*%
D23*
%TO.C,D9*%
X186025000Y-88800000D03*
X186025000Y-87300000D03*
D24*
X191475000Y-87300000D03*
D23*
X191475000Y-88800000D03*
%TD*%
D14*
%TO.C,SW1*%
X193750000Y-61500000D03*
D15*
X196995000Y-61500000D03*
X185505000Y-63700000D03*
D14*
X188750000Y-63700000D03*
%TD*%
D35*
%TO.C,SW19*%
X124500000Y-86600000D03*
X127500000Y-86600000D03*
X127500000Y-88400000D03*
X124500000Y-88400000D03*
%TD*%
D13*
%TO.C,R4*%
X162100000Y-64375000D03*
X162100000Y-66025000D03*
%TD*%
D10*
%TO.C,U16*%
X129740000Y-60880000D03*
X130240000Y-60880000D03*
X130740000Y-60880000D03*
X130740000Y-59440000D03*
X129740000Y-59440000D03*
%TD*%
D23*
%TO.C,D11*%
X149025000Y-88800000D03*
X149025000Y-87300000D03*
D24*
X154475000Y-87300000D03*
D23*
X154475000Y-88800000D03*
%TD*%
D16*
%TO.C,R12*%
X128060000Y-64180000D03*
X128060000Y-63160000D03*
%TD*%
D28*
%TO.C,R8*%
X166190000Y-65700000D03*
X167210000Y-65700000D03*
%TD*%
D25*
%TO.C,C20*%
X167320000Y-85900000D03*
X168280000Y-85900000D03*
%TD*%
D30*
%TO.C,D15*%
X154475000Y-104800000D03*
X154475000Y-106300000D03*
D31*
X149025000Y-106300000D03*
D30*
X149025000Y-104800000D03*
%TD*%
D47*
%TO.C,D18*%
X128650000Y-84100000D03*
X130750000Y-84100000D03*
%TD*%
M02*
