%TF.GenerationSoftware,KiCad,Pcbnew,9.0.1*%
%TF.CreationDate,2025-04-04T22:51:44+11:00*%
%TF.ProjectId,Kobold,4b6f626f-6c64-42e6-9b69-6361645f7063,rev?*%
%TF.SameCoordinates,Original*%
%TF.FileFunction,Profile,NP*%
%FSLAX46Y46*%
G04 Gerber Fmt 4.6, Leading zero omitted, Abs format (unit mm)*
G04 Created by KiCad (PCBNEW 9.0.1) date 2025-04-04 22:51:44*
%MOMM*%
%LPD*%
G01*
G04 APERTURE LIST*
%TA.AperFunction,Profile*%
%ADD10C,0.100000*%
%TD*%
G04 APERTURE END LIST*
D10*
X165986982Y-47310968D02*
X165989965Y-45582141D01*
X156010000Y-47334945D02*
G75*
G02*
X155317859Y-48004898I-681000J11045D01*
G01*
X156702141Y-44890035D02*
X165320035Y-44890035D01*
X156010000Y-45560000D02*
X156010000Y-47334945D01*
X124725000Y-120000000D02*
X197225000Y-120000000D01*
X197225000Y-48000000D02*
G75*
G02*
X198975000Y-49750000I0J-1750000D01*
G01*
X166656946Y-48003109D02*
G75*
G02*
X165986992Y-47310968I11054J681009D01*
G01*
X122970000Y-49750000D02*
G75*
G02*
X124720000Y-48000000I1750000J0D01*
G01*
X198975000Y-118250000D02*
X198975000Y-49750000D01*
X124720000Y-48000000D02*
X155317859Y-48004909D01*
X165320000Y-44890000D02*
G75*
G02*
X165990001Y-45582142I-11100J-681100D01*
G01*
X122970000Y-49750000D02*
X122970000Y-118250000D01*
X156010000Y-45560000D02*
G75*
G02*
X156702142Y-44889999I681100J-11100D01*
G01*
X124725000Y-120000000D02*
G75*
G02*
X122975000Y-118250000I0J1750000D01*
G01*
X198975000Y-118250000D02*
G75*
G02*
X197225000Y-120000000I-1750000J0D01*
G01*
X197225000Y-48000000D02*
X166656946Y-48003109D01*
%TO.C,D10*%
X168550001Y-87347159D02*
X168550001Y-88752843D01*
X169455548Y-89550000D02*
X171044453Y-89550000D01*
X171044452Y-86550001D02*
X169455548Y-86550001D01*
X171949999Y-88752843D02*
X171949999Y-87347159D01*
X168500516Y-87130281D02*
G75*
G02*
X168550001Y-87347158I-450505J-216876D01*
G01*
X168500516Y-87130281D02*
G75*
G02*
X169203289Y-86481704I450515J216877D01*
G01*
X168550001Y-88752843D02*
G75*
G02*
X168500516Y-88969721I-499990J-2D01*
G01*
X169203289Y-89618300D02*
G75*
G02*
X168500516Y-88969721I-252258J431701D01*
G01*
X169203289Y-89618300D02*
G75*
G02*
X169455547Y-89550001I252261J-431710D01*
G01*
X169455548Y-86550001D02*
G75*
G02*
X169203290Y-86481702I3J500009D01*
G01*
X171044453Y-89550000D02*
G75*
G02*
X171296711Y-89618299I-3J-500010D01*
G01*
X171296711Y-86481702D02*
G75*
G02*
X171044452Y-86550001I-252261J431712D01*
G01*
X171296711Y-86481702D02*
G75*
G02*
X171999481Y-87130281I252259J-431698D01*
G01*
X171949999Y-87347159D02*
G75*
G02*
X171999485Y-87130282I499991J-1D01*
G01*
X171999484Y-88969721D02*
G75*
G02*
X171296711Y-89618300I-450514J-216879D01*
G01*
X171999484Y-88969721D02*
G75*
G02*
X171949981Y-88752844I450516J216921D01*
G01*
%TO.C,D12*%
X131550001Y-87347159D02*
X131550001Y-88752843D01*
X132455548Y-89550000D02*
X134044453Y-89550000D01*
X134044452Y-86550001D02*
X132455548Y-86550001D01*
X134949999Y-88752843D02*
X134949999Y-87347159D01*
X131500516Y-87130281D02*
G75*
G02*
X131550001Y-87347158I-450505J-216876D01*
G01*
X131500516Y-87130281D02*
G75*
G02*
X132203289Y-86481704I450515J216877D01*
G01*
X131550001Y-88752843D02*
G75*
G02*
X131500516Y-88969721I-499990J-2D01*
G01*
X132203289Y-89618300D02*
G75*
G02*
X131500516Y-88969721I-252258J431701D01*
G01*
X132203289Y-89618300D02*
G75*
G02*
X132455547Y-89550001I252261J-431710D01*
G01*
X132455548Y-86550001D02*
G75*
G02*
X132203290Y-86481702I3J500009D01*
G01*
X134044453Y-89550000D02*
G75*
G02*
X134296711Y-89618299I-3J-500010D01*
G01*
X134296711Y-86481702D02*
G75*
G02*
X134044452Y-86550001I-252261J431712D01*
G01*
X134296711Y-86481702D02*
G75*
G02*
X134999481Y-87130281I252259J-431698D01*
G01*
X134949999Y-87347159D02*
G75*
G02*
X134999485Y-87130282I499991J-1D01*
G01*
X134999484Y-88969721D02*
G75*
G02*
X134296711Y-89618300I-450514J-216879D01*
G01*
X134999484Y-88969721D02*
G75*
G02*
X134949981Y-88752844I450516J216921D01*
G01*
%TO.C,D7*%
X150050001Y-69847157D02*
X150050001Y-71252841D01*
X150955548Y-72049999D02*
X152544452Y-72049999D01*
X152544452Y-69050000D02*
X150955547Y-69050000D01*
X153449999Y-71252841D02*
X153449999Y-69847157D01*
X150000516Y-69630279D02*
G75*
G02*
X150050001Y-69847156I-450505J-216876D01*
G01*
X150000516Y-69630279D02*
G75*
G02*
X150703289Y-68981701I450515J216877D01*
G01*
X150050001Y-71252841D02*
G75*
G02*
X150000516Y-71469719I-499990J-2D01*
G01*
X150703289Y-72118298D02*
G75*
G02*
X150000516Y-71469718I-252259J431700D01*
G01*
X150703289Y-72118298D02*
G75*
G02*
X150955548Y-72049999I252261J-431710D01*
G01*
X150955547Y-69050000D02*
G75*
G02*
X150703289Y-68981701I3J500009D01*
G01*
X152544452Y-72049999D02*
G75*
G02*
X152796710Y-72118297I-2J-500011D01*
G01*
X152796711Y-68981700D02*
G75*
G02*
X152544453Y-69049999I-252261J431710D01*
G01*
X152796711Y-68981700D02*
G75*
G02*
X153499484Y-69630279I252259J-431700D01*
G01*
X153449999Y-69847157D02*
G75*
G02*
X153499486Y-69630280I499991J-3D01*
G01*
X153499484Y-71469719D02*
G75*
G02*
X152796711Y-72118296I-450515J-216877D01*
G01*
X153499484Y-71469719D02*
G75*
G02*
X153449981Y-71252842I450516J216919D01*
G01*
%TO.C,D3*%
X150050001Y-52347159D02*
X150050001Y-53752843D01*
X150955548Y-54550000D02*
X152544453Y-54550000D01*
X152544452Y-51550001D02*
X150955548Y-51550001D01*
X153449999Y-53752843D02*
X153449999Y-52347159D01*
X150000516Y-52130281D02*
G75*
G02*
X150050001Y-52347158I-450505J-216876D01*
G01*
X150000516Y-52130281D02*
G75*
G02*
X150703289Y-51481704I450515J216877D01*
G01*
X150050001Y-53752843D02*
G75*
G02*
X150000516Y-53969721I-499990J-2D01*
G01*
X150703289Y-54618300D02*
G75*
G02*
X150000516Y-53969721I-252258J431701D01*
G01*
X150703289Y-54618300D02*
G75*
G02*
X150955547Y-54550001I252261J-431710D01*
G01*
X150955548Y-51550001D02*
G75*
G02*
X150703290Y-51481702I3J500009D01*
G01*
X152544453Y-54550000D02*
G75*
G02*
X152796711Y-54618299I-3J-500010D01*
G01*
X152796711Y-51481702D02*
G75*
G02*
X152544452Y-51550001I-252261J431712D01*
G01*
X152796711Y-51481702D02*
G75*
G02*
X153499481Y-52130281I252259J-431698D01*
G01*
X153449999Y-52347159D02*
G75*
G02*
X153499485Y-52130282I499991J-1D01*
G01*
X153499484Y-53969721D02*
G75*
G02*
X152796711Y-54618300I-450514J-216879D01*
G01*
X153499484Y-53969721D02*
G75*
G02*
X153449981Y-53752844I450516J216921D01*
G01*
%TO.C,D2*%
X168550001Y-52347159D02*
X168550001Y-53752843D01*
X169455548Y-54550000D02*
X171044453Y-54550000D01*
X171044452Y-51550001D02*
X169455548Y-51550001D01*
X171949999Y-53752843D02*
X171949999Y-52347159D01*
X168500516Y-52130281D02*
G75*
G02*
X168550001Y-52347158I-450505J-216876D01*
G01*
X168500516Y-52130281D02*
G75*
G02*
X169203289Y-51481704I450515J216877D01*
G01*
X168550001Y-53752843D02*
G75*
G02*
X168500516Y-53969721I-499990J-2D01*
G01*
X169203289Y-54618300D02*
G75*
G02*
X168500516Y-53969721I-252258J431701D01*
G01*
X169203289Y-54618300D02*
G75*
G02*
X169455547Y-54550001I252261J-431710D01*
G01*
X169455548Y-51550001D02*
G75*
G02*
X169203290Y-51481702I3J500009D01*
G01*
X171044453Y-54550000D02*
G75*
G02*
X171296711Y-54618299I-3J-500010D01*
G01*
X171296711Y-51481702D02*
G75*
G02*
X171044452Y-51550001I-252261J431712D01*
G01*
X171296711Y-51481702D02*
G75*
G02*
X171999481Y-52130281I252259J-431698D01*
G01*
X171949999Y-52347159D02*
G75*
G02*
X171999485Y-52130282I499991J-1D01*
G01*
X171999484Y-53969721D02*
G75*
G02*
X171296711Y-54618300I-450514J-216879D01*
G01*
X171999484Y-53969721D02*
G75*
G02*
X171949981Y-53752844I450516J216921D01*
G01*
%TO.C,D14*%
X168550001Y-104847157D02*
X168550001Y-106252841D01*
X169455548Y-107049999D02*
X171044452Y-107049999D01*
X171044452Y-104050000D02*
X169455547Y-104050000D01*
X171949999Y-106252841D02*
X171949999Y-104847157D01*
X168500516Y-104630279D02*
G75*
G02*
X168550001Y-104847156I-450505J-216876D01*
G01*
X168500516Y-104630279D02*
G75*
G02*
X169203289Y-103981701I450515J216877D01*
G01*
X168550001Y-106252841D02*
G75*
G02*
X168500516Y-106469719I-499990J-2D01*
G01*
X169203289Y-107118298D02*
G75*
G02*
X168500516Y-106469718I-252259J431700D01*
G01*
X169203289Y-107118298D02*
G75*
G02*
X169455548Y-107049999I252261J-431710D01*
G01*
X169455547Y-104050000D02*
G75*
G02*
X169203289Y-103981701I3J500009D01*
G01*
X171044452Y-107049999D02*
G75*
G02*
X171296710Y-107118297I-2J-500011D01*
G01*
X171296711Y-103981700D02*
G75*
G02*
X171044453Y-104049999I-252261J431710D01*
G01*
X171296711Y-103981700D02*
G75*
G02*
X171999484Y-104630279I252259J-431700D01*
G01*
X171949999Y-104847157D02*
G75*
G02*
X171999486Y-104630280I499991J-3D01*
G01*
X171999484Y-106469719D02*
G75*
G02*
X171296711Y-107118296I-450515J-216877D01*
G01*
X171999484Y-106469719D02*
G75*
G02*
X171949981Y-106252842I450516J216919D01*
G01*
%TO.C,D13*%
X187050001Y-104847157D02*
X187050001Y-106252841D01*
X187955548Y-107049999D02*
X189544452Y-107049999D01*
X189544452Y-104050000D02*
X187955547Y-104050000D01*
X190449999Y-106252841D02*
X190449999Y-104847157D01*
X187000516Y-104630279D02*
G75*
G02*
X187050001Y-104847156I-450505J-216876D01*
G01*
X187000516Y-104630279D02*
G75*
G02*
X187703289Y-103981701I450515J216877D01*
G01*
X187050001Y-106252841D02*
G75*
G02*
X187000516Y-106469719I-499990J-2D01*
G01*
X187703289Y-107118298D02*
G75*
G02*
X187000516Y-106469718I-252259J431700D01*
G01*
X187703289Y-107118298D02*
G75*
G02*
X187955548Y-107049999I252261J-431710D01*
G01*
X187955547Y-104050000D02*
G75*
G02*
X187703289Y-103981701I3J500009D01*
G01*
X189544452Y-107049999D02*
G75*
G02*
X189796710Y-107118297I-2J-500011D01*
G01*
X189796711Y-103981700D02*
G75*
G02*
X189544453Y-104049999I-252261J431710D01*
G01*
X189796711Y-103981700D02*
G75*
G02*
X190499484Y-104630279I252259J-431700D01*
G01*
X190449999Y-104847157D02*
G75*
G02*
X190499486Y-104630280I499991J-3D01*
G01*
X190499484Y-106469719D02*
G75*
G02*
X189796711Y-107118296I-450515J-216877D01*
G01*
X190499484Y-106469719D02*
G75*
G02*
X190449981Y-106252842I450516J216919D01*
G01*
%TO.C,D4*%
X131550001Y-52347159D02*
X131550001Y-53752843D01*
X132455548Y-54550000D02*
X134044453Y-54550000D01*
X134044452Y-51550001D02*
X132455548Y-51550001D01*
X134949999Y-53752843D02*
X134949999Y-52347159D01*
X131500516Y-52130281D02*
G75*
G02*
X131550001Y-52347158I-450505J-216876D01*
G01*
X131500516Y-52130281D02*
G75*
G02*
X132203289Y-51481704I450515J216877D01*
G01*
X131550001Y-53752843D02*
G75*
G02*
X131500516Y-53969721I-499990J-2D01*
G01*
X132203289Y-54618300D02*
G75*
G02*
X131500516Y-53969721I-252258J431701D01*
G01*
X132203289Y-54618300D02*
G75*
G02*
X132455547Y-54550001I252261J-431710D01*
G01*
X132455548Y-51550001D02*
G75*
G02*
X132203290Y-51481702I3J500009D01*
G01*
X134044453Y-54550000D02*
G75*
G02*
X134296711Y-54618299I-3J-500010D01*
G01*
X134296711Y-51481702D02*
G75*
G02*
X134044452Y-51550001I-252261J431712D01*
G01*
X134296711Y-51481702D02*
G75*
G02*
X134999481Y-52130281I252259J-431698D01*
G01*
X134949999Y-52347159D02*
G75*
G02*
X134999485Y-52130282I499991J-1D01*
G01*
X134999484Y-53969721D02*
G75*
G02*
X134296711Y-54618300I-450514J-216879D01*
G01*
X134999484Y-53969721D02*
G75*
G02*
X134949981Y-53752844I450516J216921D01*
G01*
%TO.C,D1*%
X187050001Y-52347159D02*
X187050001Y-53752843D01*
X187955548Y-54550000D02*
X189544453Y-54550000D01*
X189544452Y-51550001D02*
X187955548Y-51550001D01*
X190449999Y-53752843D02*
X190449999Y-52347159D01*
X187000516Y-52130281D02*
G75*
G02*
X187050001Y-52347158I-450505J-216876D01*
G01*
X187000516Y-52130281D02*
G75*
G02*
X187703289Y-51481704I450515J216877D01*
G01*
X187050001Y-53752843D02*
G75*
G02*
X187000516Y-53969721I-499990J-2D01*
G01*
X187703289Y-54618300D02*
G75*
G02*
X187000516Y-53969721I-252258J431701D01*
G01*
X187703289Y-54618300D02*
G75*
G02*
X187955547Y-54550001I252261J-431710D01*
G01*
X187955548Y-51550001D02*
G75*
G02*
X187703290Y-51481702I3J500009D01*
G01*
X189544453Y-54550000D02*
G75*
G02*
X189796711Y-54618299I-3J-500010D01*
G01*
X189796711Y-51481702D02*
G75*
G02*
X189544452Y-51550001I-252261J431712D01*
G01*
X189796711Y-51481702D02*
G75*
G02*
X190499481Y-52130281I252259J-431698D01*
G01*
X190449999Y-52347159D02*
G75*
G02*
X190499485Y-52130282I499991J-1D01*
G01*
X190499484Y-53969721D02*
G75*
G02*
X189796711Y-54618300I-450514J-216879D01*
G01*
X190499484Y-53969721D02*
G75*
G02*
X190449981Y-53752844I450516J216921D01*
G01*
%TO.C,D5*%
X187050001Y-69847157D02*
X187050001Y-71252841D01*
X187955548Y-72049999D02*
X189544452Y-72049999D01*
X189544452Y-69050000D02*
X187955547Y-69050000D01*
X190449999Y-71252841D02*
X190449999Y-69847157D01*
X187000516Y-69630279D02*
G75*
G02*
X187050001Y-69847156I-450505J-216876D01*
G01*
X187000516Y-69630279D02*
G75*
G02*
X187703289Y-68981701I450515J216877D01*
G01*
X187050001Y-71252841D02*
G75*
G02*
X187000516Y-71469719I-499990J-2D01*
G01*
X187703289Y-72118298D02*
G75*
G02*
X187000516Y-71469718I-252259J431700D01*
G01*
X187703289Y-72118298D02*
G75*
G02*
X187955548Y-72049999I252261J-431710D01*
G01*
X187955547Y-69050000D02*
G75*
G02*
X187703289Y-68981701I3J500009D01*
G01*
X189544452Y-72049999D02*
G75*
G02*
X189796710Y-72118297I-2J-500011D01*
G01*
X189796711Y-68981700D02*
G75*
G02*
X189544453Y-69049999I-252261J431710D01*
G01*
X189796711Y-68981700D02*
G75*
G02*
X190499484Y-69630279I252259J-431700D01*
G01*
X190449999Y-69847157D02*
G75*
G02*
X190499486Y-69630280I499991J-3D01*
G01*
X190499484Y-71469719D02*
G75*
G02*
X189796711Y-72118296I-450515J-216877D01*
G01*
X190499484Y-71469719D02*
G75*
G02*
X190449981Y-71252842I450516J216919D01*
G01*
%TO.C,D16*%
X131550001Y-104847157D02*
X131550001Y-106252841D01*
X132455548Y-107049999D02*
X134044452Y-107049999D01*
X134044452Y-104050000D02*
X132455547Y-104050000D01*
X134949999Y-106252841D02*
X134949999Y-104847157D01*
X131500516Y-104630279D02*
G75*
G02*
X131550001Y-104847156I-450505J-216876D01*
G01*
X131500516Y-104630279D02*
G75*
G02*
X132203289Y-103981701I450515J216877D01*
G01*
X131550001Y-106252841D02*
G75*
G02*
X131500516Y-106469719I-499990J-2D01*
G01*
X132203289Y-107118298D02*
G75*
G02*
X131500516Y-106469718I-252259J431700D01*
G01*
X132203289Y-107118298D02*
G75*
G02*
X132455548Y-107049999I252261J-431710D01*
G01*
X132455547Y-104050000D02*
G75*
G02*
X132203289Y-103981701I3J500009D01*
G01*
X134044452Y-107049999D02*
G75*
G02*
X134296710Y-107118297I-2J-500011D01*
G01*
X134296711Y-103981700D02*
G75*
G02*
X134044453Y-104049999I-252261J431710D01*
G01*
X134296711Y-103981700D02*
G75*
G02*
X134999484Y-104630279I252259J-431700D01*
G01*
X134949999Y-104847157D02*
G75*
G02*
X134999486Y-104630280I499991J-3D01*
G01*
X134999484Y-106469719D02*
G75*
G02*
X134296711Y-107118296I-450515J-216877D01*
G01*
X134999484Y-106469719D02*
G75*
G02*
X134949981Y-106252842I450516J216919D01*
G01*
%TO.C,D8*%
X131550001Y-69847157D02*
X131550001Y-71252841D01*
X132455548Y-72049999D02*
X134044452Y-72049999D01*
X134044452Y-69050000D02*
X132455547Y-69050000D01*
X134949999Y-71252841D02*
X134949999Y-69847157D01*
X131500516Y-69630279D02*
G75*
G02*
X131550001Y-69847156I-450505J-216876D01*
G01*
X131500516Y-69630279D02*
G75*
G02*
X132203289Y-68981701I450515J216877D01*
G01*
X131550001Y-71252841D02*
G75*
G02*
X131500516Y-71469719I-499990J-2D01*
G01*
X132203289Y-72118298D02*
G75*
G02*
X131500516Y-71469718I-252259J431700D01*
G01*
X132203289Y-72118298D02*
G75*
G02*
X132455548Y-72049999I252261J-431710D01*
G01*
X132455547Y-69050000D02*
G75*
G02*
X132203289Y-68981701I3J500009D01*
G01*
X134044452Y-72049999D02*
G75*
G02*
X134296710Y-72118297I-2J-500011D01*
G01*
X134296711Y-68981700D02*
G75*
G02*
X134044453Y-69049999I-252261J431710D01*
G01*
X134296711Y-68981700D02*
G75*
G02*
X134999484Y-69630279I252259J-431700D01*
G01*
X134949999Y-69847157D02*
G75*
G02*
X134999486Y-69630280I499991J-3D01*
G01*
X134999484Y-71469719D02*
G75*
G02*
X134296711Y-72118296I-450515J-216877D01*
G01*
X134999484Y-71469719D02*
G75*
G02*
X134949981Y-71252842I450516J216919D01*
G01*
%TO.C,D6*%
X168550001Y-69847157D02*
X168550001Y-71252841D01*
X169455548Y-72049999D02*
X171044452Y-72049999D01*
X171044452Y-69050000D02*
X169455547Y-69050000D01*
X171949999Y-71252841D02*
X171949999Y-69847157D01*
X168500516Y-69630279D02*
G75*
G02*
X168550001Y-69847156I-450505J-216876D01*
G01*
X168500516Y-69630279D02*
G75*
G02*
X169203289Y-68981701I450515J216877D01*
G01*
X168550001Y-71252841D02*
G75*
G02*
X168500516Y-71469719I-499990J-2D01*
G01*
X169203289Y-72118298D02*
G75*
G02*
X168500516Y-71469718I-252259J431700D01*
G01*
X169203289Y-72118298D02*
G75*
G02*
X169455548Y-72049999I252261J-431710D01*
G01*
X169455547Y-69050000D02*
G75*
G02*
X169203289Y-68981701I3J500009D01*
G01*
X171044452Y-72049999D02*
G75*
G02*
X171296710Y-72118297I-2J-500011D01*
G01*
X171296711Y-68981700D02*
G75*
G02*
X171044453Y-69049999I-252261J431710D01*
G01*
X171296711Y-68981700D02*
G75*
G02*
X171999484Y-69630279I252259J-431700D01*
G01*
X171949999Y-69847157D02*
G75*
G02*
X171999486Y-69630280I499991J-3D01*
G01*
X171999484Y-71469719D02*
G75*
G02*
X171296711Y-72118296I-450515J-216877D01*
G01*
X171999484Y-71469719D02*
G75*
G02*
X171949981Y-71252842I450516J216919D01*
G01*
%TO.C,D9*%
X187050001Y-87347159D02*
X187050001Y-88752843D01*
X187955548Y-89550000D02*
X189544453Y-89550000D01*
X189544452Y-86550001D02*
X187955548Y-86550001D01*
X190449999Y-88752843D02*
X190449999Y-87347159D01*
X187000516Y-87130281D02*
G75*
G02*
X187050001Y-87347158I-450505J-216876D01*
G01*
X187000516Y-87130281D02*
G75*
G02*
X187703289Y-86481704I450515J216877D01*
G01*
X187050001Y-88752843D02*
G75*
G02*
X187000516Y-88969721I-499990J-2D01*
G01*
X187703289Y-89618300D02*
G75*
G02*
X187000516Y-88969721I-252258J431701D01*
G01*
X187703289Y-89618300D02*
G75*
G02*
X187955547Y-89550001I252261J-431710D01*
G01*
X187955548Y-86550001D02*
G75*
G02*
X187703290Y-86481702I3J500009D01*
G01*
X189544453Y-89550000D02*
G75*
G02*
X189796711Y-89618299I-3J-500010D01*
G01*
X189796711Y-86481702D02*
G75*
G02*
X189544452Y-86550001I-252261J431712D01*
G01*
X189796711Y-86481702D02*
G75*
G02*
X190499481Y-87130281I252259J-431698D01*
G01*
X190449999Y-87347159D02*
G75*
G02*
X190499485Y-87130282I499991J-1D01*
G01*
X190499484Y-88969721D02*
G75*
G02*
X189796711Y-89618300I-450514J-216879D01*
G01*
X190499484Y-88969721D02*
G75*
G02*
X190449981Y-88752844I450516J216921D01*
G01*
%TO.C,D11*%
X150050001Y-87347159D02*
X150050001Y-88752843D01*
X150955548Y-89550000D02*
X152544453Y-89550000D01*
X152544452Y-86550001D02*
X150955548Y-86550001D01*
X153449999Y-88752843D02*
X153449999Y-87347159D01*
X150000516Y-87130281D02*
G75*
G02*
X150050001Y-87347158I-450505J-216876D01*
G01*
X150000516Y-87130281D02*
G75*
G02*
X150703289Y-86481704I450515J216877D01*
G01*
X150050001Y-88752843D02*
G75*
G02*
X150000516Y-88969721I-499990J-2D01*
G01*
X150703289Y-89618300D02*
G75*
G02*
X150000516Y-88969721I-252258J431701D01*
G01*
X150703289Y-89618300D02*
G75*
G02*
X150955547Y-89550001I252261J-431710D01*
G01*
X150955548Y-86550001D02*
G75*
G02*
X150703290Y-86481702I3J500009D01*
G01*
X152544453Y-89550000D02*
G75*
G02*
X152796711Y-89618299I-3J-500010D01*
G01*
X152796711Y-86481702D02*
G75*
G02*
X152544452Y-86550001I-252261J431712D01*
G01*
X152796711Y-86481702D02*
G75*
G02*
X153499481Y-87130281I252259J-431698D01*
G01*
X153449999Y-87347159D02*
G75*
G02*
X153499485Y-87130282I499991J-1D01*
G01*
X153499484Y-88969721D02*
G75*
G02*
X152796711Y-89618300I-450514J-216879D01*
G01*
X153499484Y-88969721D02*
G75*
G02*
X153449981Y-88752844I450516J216921D01*
G01*
%TO.C,D15*%
X150050001Y-104847157D02*
X150050001Y-106252841D01*
X150955548Y-107049999D02*
X152544452Y-107049999D01*
X152544452Y-104050000D02*
X150955547Y-104050000D01*
X153449999Y-106252841D02*
X153449999Y-104847157D01*
X150000516Y-104630279D02*
G75*
G02*
X150050001Y-104847156I-450505J-216876D01*
G01*
X150000516Y-104630279D02*
G75*
G02*
X150703289Y-103981701I450515J216877D01*
G01*
X150050001Y-106252841D02*
G75*
G02*
X150000516Y-106469719I-499990J-2D01*
G01*
X150703289Y-107118298D02*
G75*
G02*
X150000516Y-106469718I-252259J431700D01*
G01*
X150703289Y-107118298D02*
G75*
G02*
X150955548Y-107049999I252261J-431710D01*
G01*
X150955547Y-104050000D02*
G75*
G02*
X150703289Y-103981701I3J500009D01*
G01*
X152544452Y-107049999D02*
G75*
G02*
X152796710Y-107118297I-2J-500011D01*
G01*
X152796711Y-103981700D02*
G75*
G02*
X152544453Y-104049999I-252261J431710D01*
G01*
X152796711Y-103981700D02*
G75*
G02*
X153499484Y-104630279I252259J-431700D01*
G01*
X153449999Y-104847157D02*
G75*
G02*
X153499486Y-104630280I499991J-3D01*
G01*
X153499484Y-106469719D02*
G75*
G02*
X152796711Y-107118296I-450515J-216877D01*
G01*
X153499484Y-106469719D02*
G75*
G02*
X153449981Y-106252842I450516J216919D01*
G01*
%TD*%
M02*
