%TF.GenerationSoftware,KiCad,Pcbnew,9.0.1*%
%TF.CreationDate,2025-04-04T22:51:44+11:00*%
%TF.ProjectId,Kobold,4b6f626f-6c64-42e6-9b69-6361645f7063,rev?*%
%TF.SameCoordinates,Original*%
%TF.FileFunction,Legend,Bot*%
%TF.FilePolarity,Positive*%
%FSLAX46Y46*%
G04 Gerber Fmt 4.6, Leading zero omitted, Abs format (unit mm)*
G04 Created by KiCad (PCBNEW 9.0.1) date 2025-04-04 22:51:44*
%MOMM*%
%LPD*%
G01*
G04 APERTURE LIST*
%ADD10C,0.150000*%
%ADD11C,1.700000*%
%ADD12C,3.400000*%
%ADD13C,4.400000*%
%ADD14C,0.650000*%
%ADD15O,1.000000X2.100000*%
%ADD16O,1.000000X1.600000*%
%ADD17C,2.374900*%
%ADD18C,0.990600*%
G04 APERTURE END LIST*
D10*
X122500000Y-42000000D02*
X199500000Y-42000000D01*
X199500000Y-120500000D01*
X122500000Y-120500000D01*
X122500000Y-42000000D01*
G36*
X122500000Y-42000000D02*
G01*
X199500000Y-42000000D01*
X199500000Y-120500000D01*
X122500000Y-120500000D01*
X122500000Y-42000000D01*
G37*
%LPC*%
D11*
%TO.C,SW14*%
X164750000Y-110250000D03*
D12*
X170250000Y-110250000D03*
D11*
X175750000Y-110250000D03*
%TD*%
%TO.C,SW11*%
X146250000Y-92750000D03*
D12*
X151750000Y-92750000D03*
D11*
X157250000Y-92750000D03*
%TD*%
D13*
%TO.C,H4*%
X179500000Y-101500000D03*
%TD*%
D11*
%TO.C,SW13*%
X183250000Y-110250000D03*
D12*
X188750000Y-110250000D03*
D11*
X194250000Y-110250000D03*
%TD*%
%TO.C,SW5*%
X183250000Y-75250000D03*
D12*
X188750000Y-75250000D03*
D11*
X194250000Y-75250000D03*
%TD*%
%TO.C,SW10*%
X164750000Y-92750000D03*
D12*
X170250000Y-92750000D03*
D11*
X175750000Y-92750000D03*
%TD*%
D13*
%TO.C,H1*%
X142500000Y-66500000D03*
%TD*%
D11*
%TO.C,SW16*%
X127750000Y-110250000D03*
D12*
X133250000Y-110250000D03*
D11*
X138750000Y-110250000D03*
%TD*%
%TO.C,SW6*%
X164750000Y-75250000D03*
D12*
X170250000Y-75250000D03*
D11*
X175750000Y-75250000D03*
%TD*%
D13*
%TO.C,H3*%
X142500000Y-101500000D03*
%TD*%
D11*
%TO.C,SW7*%
X146250000Y-75250000D03*
D12*
X151750000Y-75250000D03*
D11*
X157250000Y-75250000D03*
%TD*%
%TO.C,SW12*%
X127750000Y-92750000D03*
D12*
X133250000Y-92750000D03*
D11*
X138750000Y-92750000D03*
%TD*%
D13*
%TO.C,H2*%
X179500000Y-66500000D03*
%TD*%
D11*
%TO.C,SW2*%
X164750000Y-57750000D03*
D12*
X170250000Y-57750000D03*
D11*
X175750000Y-57750000D03*
%TD*%
%TO.C,SW8*%
X127750000Y-75250000D03*
D12*
X133250000Y-75250000D03*
D11*
X138750000Y-75250000D03*
%TD*%
%TO.C,SW4*%
X127750000Y-57750000D03*
D12*
X133250000Y-57750000D03*
D11*
X138750000Y-57750000D03*
%TD*%
D14*
%TO.C,J1*%
X163890000Y-49500000D03*
X158110000Y-49500000D03*
D15*
X165320000Y-50030000D03*
D16*
X165320000Y-45850000D03*
D15*
X156680000Y-50030000D03*
D16*
X156680000Y-45850000D03*
%TD*%
D11*
%TO.C,SW15*%
X146250000Y-110250000D03*
D12*
X151750000Y-110250000D03*
D11*
X157250000Y-110250000D03*
%TD*%
%TO.C,SW9*%
X183250000Y-92750000D03*
D12*
X188750000Y-92750000D03*
D11*
X194250000Y-92750000D03*
%TD*%
D17*
%TO.C,J2*%
X163534000Y-102020000D03*
D18*
X160994000Y-102020000D03*
D17*
X158454000Y-102020000D03*
X163534000Y-105195000D03*
X158454000Y-105195000D03*
D18*
X162010000Y-107100000D03*
X159978000Y-107100000D03*
%TD*%
D11*
%TO.C,SW3*%
X146250000Y-57750000D03*
D12*
X151750000Y-57750000D03*
D11*
X157250000Y-57750000D03*
%TD*%
%TO.C,SW1*%
X183250000Y-57750000D03*
D12*
X188750000Y-57750000D03*
D11*
X194250000Y-57750000D03*
%TD*%
%LPD*%
M02*
