M48
; DRILL file {KiCad 9.0.1} date 2025-04-04T22:51:44+1100
; FORMAT={-:-/ absolute / inch / decimal}
; #@! TF.CreationDate,2025-04-04T22:51:44+11:00
; #@! TF.GenerationSoftware,Kicad,Pcbnew,9.0.1
; #@! TF.FileFunction,Plated,1,4,PTH
FMAT,2
INCH
; #@! TA.AperFunction,Plated,PTH,ViaDrill
T1C0.0118
; #@! TA.AperFunction,Plated,PTH,ViaDrill
T2C0.0157
; #@! TA.AperFunction,Plated,PTH,ComponentDrill
T3C0.0236
; #@! TA.AperFunction,Plated,PTH,ComponentDrill
T4C0.0866
; #@! TA.AperFunction,Plated,PTH,ComponentDrill
T5C0.1181
%
G90
G05
T1
X4.9882Y-2.685
X4.9882Y-4.0669
X5.0197Y-3.2677
X5.0417Y-2.4661
X5.0433Y-3.0276
X5.0669Y-2.7248
X5.0827Y-3.3268
X5.0866Y-3.3898
X5.1185Y-2.6575
X5.1504Y-3.6043
X5.1575Y-2.4094
X5.1604Y-2.0945
X5.1604Y-3.4724
X5.1614Y-3.2953
X5.1654Y-2.3425
X5.1969Y-2.4055
X5.2598Y-2.4016
X5.2626Y-3.376
X5.3317Y-2.7717
X5.3317Y-4.1496
X5.3705Y-3.737
X5.3819Y-2.0984
X5.3858Y-4.1654
X5.3898Y-2.7874
X5.3898Y-3.4764
X5.4343Y-3.3807
X5.5709Y-2.4843
X5.5709Y-3.1732
X5.5709Y-3.8583
X5.5709Y-4.5472
X5.5906Y-2.9528
X5.6024Y-3.6575
X5.6102Y-4.3228
X5.6437Y-3.3465
X5.6457Y-3.2559
X5.685Y-2.3386
X5.689Y-3.5205
X5.6969Y-3.2756
X5.7343Y-2.874
X5.7402Y-2.3307
X5.7461Y-2.6894
X5.748Y-3.1024
X5.75Y-3.187
X5.7535Y-3.7776
X5.7626Y-2.8913
X5.7677Y-2.4646
X5.7756Y-2.3465
X5.7835Y-2.3937
X5.8346Y-3.4606
X5.8346Y-4.1457
X5.835Y-2.585
X5.8386Y-2.0787
X5.8386Y-2.7717
X5.8425Y-3.0472
X5.848Y-2.8913
X5.8626Y-3.3567
X5.8661Y-2.3268
X5.872Y-3.0736
X5.8772Y-3.7638
X5.8878Y-2.6201
X5.8887Y-2.0945
X5.8887Y-3.4724
X5.8898Y-2.4094
X6.0276Y-3.0925
X6.0496Y-4.0685
X6.0601Y-2.7717
X6.0601Y-4.1496
X6.065Y-3.0276
X6.0827Y-3.3583
X6.0862Y-2.889
X6.087Y-3.5854
X6.0984Y-2.9114
X6.0996Y-3.6252
X6.1102Y-3.5197
X6.1142Y-2.0984
X6.1142Y-2.8307
X6.1142Y-4.1654
X6.1161Y-3.0453
X6.122Y-3.3583
X6.1339Y-3.4606
X6.1406Y-3.2811
X6.1492Y-3.6154
X6.1496Y-2.7677
X6.1496Y-2.7953
X6.1496Y-2.8228
X6.1496Y-3.5315
X6.1635Y-3.4365
X6.1654Y-2.6693
X6.1744Y-3.2969
X6.189Y-3.189
X6.19Y-2.045
X6.1902Y-3.4638
X6.2132Y-4.0773
X6.2323Y-3.1988
X6.25Y-2.8839
X6.25Y-3.2224
X6.2587Y-3.6256
X6.2822Y-2.5669
X6.2992Y-2.4843
X6.2992Y-3.8622
X6.2992Y-4.5472
X6.3031Y-3.1969
X6.3051Y-3.9587
X6.3189Y-2.9606
X6.3228Y-4.3268
X6.3307Y-2.0748
X6.3307Y-2.7799
X6.3376Y-3.3858
X6.3504Y-3.189
X6.3583Y-3.063
X6.3669Y-3.1439
X6.3819Y-2.626
X6.3829Y-4.0915
X6.3858Y-3.0984
X6.4105Y-3.7594
X6.4165Y-3.108
X6.4213Y-3.7362
X6.4311Y-3.7126
X6.4457Y-3.0921
X6.4662Y-3.5823
X6.4665Y-3.063
X6.4665Y-3.158
X6.4858Y-3.2776
X6.4878Y-3.1343
X6.49Y-2.03
X6.4921Y-3.5984
X6.4921Y-4.0551
X6.5Y-4.1024
X6.5039Y-2.4055
X6.5039Y-3.0315
X6.5039Y-3.5354
X6.5102Y-3.4764
X6.5115Y-3.113
X6.5244Y-3.398
X6.5354Y-2.3346
X6.5354Y-2.7677
X6.5354Y-2.7953
X6.5354Y-2.8228
X6.5382Y-3.3264
X6.5421Y-3.363
X6.5421Y-3.5925
X6.5469Y-3.1099
X6.5472Y-3.0748
X6.5496Y-3.3035
X6.5531Y-3.438
X6.563Y-2.0787
X6.563Y-2.7323
X6.5669Y-4.1496
X6.5787Y-3.3996
X6.5898Y-3.5339
X6.6063Y-2.5866
X6.6091Y-2.9248
X6.6171Y-2.0945
X6.6171Y-3.4724
X6.7756Y-4.0827
X6.7776Y-3.2779
X6.7793Y-4.0357
X6.7835Y-3.253
X6.7843Y-3.3028
X6.7884Y-2.7717
X6.7884Y-4.1496
X6.7929Y-3.2197
X6.7953Y-4.0157
X6.8024Y-2.7118
X6.8189Y-3.9902
X6.8343Y-3.4087
X6.8386Y-2.3504
X6.8425Y-2.0984
X6.8425Y-2.7835
X6.8465Y-3.4803
X6.8465Y-4.1654
X6.8787Y-2.8063
X6.8941Y-2.7248
X6.8996Y-2.6102
X6.9094Y-3.315
X6.9213Y-2.7205
X6.9252Y-3.5236
X6.9803Y-3.3917
X7.0236Y-3.6732
X7.0276Y-2.4843
X7.0276Y-3.1732
X7.0276Y-3.8622
X7.0276Y-4.5512
X7.0394Y-2.1331
X7.0512Y-3.687
X7.063Y-4.3268
X7.0669Y-2.9724
X7.1024Y-3.6949
X7.1299Y-2.1331
X7.1417Y-2.8406
X7.1417Y-3.4961
X7.1579Y-3.1937
X7.2283Y-2.4705
X7.2323Y-3.4079
X7.2598Y-4.0945
X7.2677Y-2.3169
X7.2874Y-3.4606
X7.2913Y-2.0787
X7.2913Y-2.7677
X7.2913Y-4.1417
X7.2929Y-3.2622
X7.311Y-2.3602
X7.3454Y-2.0945
X7.3454Y-3.4724
X7.5168Y-4.1496
X7.5169Y-2.7752
X7.6811Y-4.0669
X7.685Y-2.685
X7.7559Y-2.4843
X7.7559Y-3.1693
X7.7559Y-3.8622
X7.7559Y-4.5512
T2
X5.6732Y-2.252
X5.7362Y-2.2047
X6.1014Y-2.6368
X6.1575Y-2.1732
X6.2362Y-2.2283
X6.2402Y-2.0472
X6.315Y-2.2756
X6.44Y-2.045
T4
X5.6102Y-2.6181
X5.6102Y-3.9961
X7.0669Y-2.6181
X7.0669Y-3.9961
T5
X5.2461Y-2.5079
X5.2461Y-3.1969
X5.2461Y-3.8858
X5.2461Y-4.5748
X5.4429Y-2.4213
X5.4429Y-3.1102
X5.4429Y-3.7992
X5.4429Y-4.4882
X5.9744Y-2.5079
X5.9744Y-3.1969
X5.9744Y-3.8858
X5.9744Y-4.5748
X6.1713Y-2.4213
X6.1713Y-3.1102
X6.1713Y-3.7992
X6.1713Y-4.4882
X6.7028Y-2.5079
X6.7028Y-3.1969
X6.7028Y-3.8858
X6.7028Y-4.5748
X6.8996Y-2.4213
X6.8996Y-3.1102
X6.8996Y-3.7992
X6.8996Y-4.4882
X7.4311Y-2.5079
X7.4311Y-3.1969
X7.4311Y-3.8858
X7.4311Y-4.5748
X7.628Y-2.4213
X7.628Y-3.1102
X7.628Y-3.7992
X7.628Y-4.4882
T3
G00X6.1685Y-1.8169
M15
G01X6.1685Y-1.7933
M16
G05
G00X6.1685Y-1.9913
M15
G01X6.1685Y-1.948
M16
G05
G00X6.5087Y-1.8169
M15
G01X6.5087Y-1.7933
M16
G05
G00X6.5087Y-1.9913
M15
G01X6.5087Y-1.948
M16
G05
M30
