%TF.GenerationSoftware,KiCad,Pcbnew,9.0.1*%
%TF.CreationDate,2025-04-04T22:51:44+11:00*%
%TF.ProjectId,Kobold,4b6f626f-6c64-42e6-9b69-6361645f7063,rev?*%
%TF.SameCoordinates,Original*%
%TF.FileFunction,Legend,Top*%
%TF.FilePolarity,Positive*%
%FSLAX46Y46*%
G04 Gerber Fmt 4.6, Leading zero omitted, Abs format (unit mm)*
G04 Created by KiCad (PCBNEW 9.0.1) date 2025-04-04 22:51:44*
%MOMM*%
%LPD*%
G01*
G04 APERTURE LIST*
G04 Aperture macros list*
%AMRoundRect*
0 Rectangle with rounded corners*
0 $1 Rounding radius*
0 $2 $3 $4 $5 $6 $7 $8 $9 X,Y pos of 4 corners*
0 Add a 4 corners polygon primitive as box body*
4,1,4,$2,$3,$4,$5,$6,$7,$8,$9,$2,$3,0*
0 Add four circle primitives for the rounded corners*
1,1,$1+$1,$2,$3*
1,1,$1+$1,$4,$5*
1,1,$1+$1,$6,$7*
1,1,$1+$1,$8,$9*
0 Add four rect primitives between the rounded corners*
20,1,$1+$1,$2,$3,$4,$5,0*
20,1,$1+$1,$4,$5,$6,$7,0*
20,1,$1+$1,$6,$7,$8,$9,0*
20,1,$1+$1,$8,$9,$2,$3,0*%
%AMRotRect*
0 Rectangle, with rotation*
0 The origin of the aperture is its center*
0 $1 length*
0 $2 width*
0 $3 Rotation angle, in degrees counterclockwise*
0 Add horizontal line*
21,1,$1,$2,0,0,$3*%
%AMFreePoly0*
4,1,18,-0.410000,0.265000,0.000000,0.675000,0.328000,0.675000,0.359380,0.668758,0.385983,0.650983,0.403758,0.624380,0.410000,0.593000,0.410000,-0.593000,0.403758,-0.624380,0.385983,-0.650983,0.359380,-0.668758,0.328000,-0.675000,-0.328000,-0.675000,-0.359380,-0.668758,-0.385983,-0.650983,-0.403758,-0.624380,-0.410000,-0.593000,-0.410000,0.265000,-0.410000,0.265000,$1*%
G04 Aperture macros list end*
%ADD10C,0.000000*%
%ADD11C,0.150000*%
%ADD12C,0.200000*%
%ADD13C,0.120000*%
%ADD14C,0.100000*%
%ADD15C,0.300000*%
%ADD16C,0.250000*%
%ADD17R,0.280000X0.580000*%
%ADD18RoundRect,0.140000X-0.219203X-0.021213X-0.021213X-0.219203X0.219203X0.021213X0.021213X0.219203X0*%
%ADD19RoundRect,0.140000X-0.170000X0.140000X-0.170000X-0.140000X0.170000X-0.140000X0.170000X0.140000X0*%
%ADD20RoundRect,0.200000X-0.275000X0.200000X-0.275000X-0.200000X0.275000X-0.200000X0.275000X0.200000X0*%
%ADD21C,1.700000*%
%ADD22C,3.400000*%
%ADD23C,3.300000*%
%ADD24RoundRect,0.260000X-1.065000X-1.040000X1.065000X-1.040000X1.065000X1.040000X-1.065000X1.040000X0*%
%ADD25RoundRect,0.135000X0.185000X-0.135000X0.185000X0.135000X-0.185000X0.135000X-0.185000X-0.135000X0*%
%ADD26C,4.400000*%
%ADD27RoundRect,0.150000X0.150000X-0.512500X0.150000X0.512500X-0.150000X0.512500X-0.150000X-0.512500X0*%
%ADD28R,0.500000X0.350000*%
%ADD29R,1.000000X1.600000*%
%ADD30R,0.600000X1.100000*%
%ADD31RoundRect,0.250000X-0.662913X-0.220971X-0.220971X-0.662913X0.662913X0.220971X0.220971X0.662913X0*%
%ADD32RoundRect,0.082000X-0.593000X0.328000X-0.593000X-0.328000X0.593000X-0.328000X0.593000X0.328000X0*%
%ADD33FreePoly0,270.000000*%
%ADD34RoundRect,0.140000X-0.140000X-0.170000X0.140000X-0.170000X0.140000X0.170000X-0.140000X0.170000X0*%
%ADD35RoundRect,0.050000X-0.150000X-0.300000X0.150000X-0.300000X0.150000X0.300000X-0.150000X0.300000X0*%
%ADD36RoundRect,0.140000X0.170000X-0.140000X0.170000X0.140000X-0.170000X0.140000X-0.170000X-0.140000X0*%
%ADD37RoundRect,0.135000X-0.135000X-0.185000X0.135000X-0.185000X0.135000X0.185000X-0.135000X0.185000X0*%
%ADD38RoundRect,0.140000X0.140000X0.170000X-0.140000X0.170000X-0.140000X-0.170000X0.140000X-0.170000X0*%
%ADD39RoundRect,0.082000X0.593000X-0.328000X0.593000X0.328000X-0.593000X0.328000X-0.593000X-0.328000X0*%
%ADD40FreePoly0,90.000000*%
%ADD41RoundRect,0.162500X0.162500X-0.650000X0.162500X0.650000X-0.162500X0.650000X-0.162500X-0.650000X0*%
%ADD42R,0.580000X0.280000*%
%ADD43RoundRect,0.200000X0.275000X-0.200000X0.275000X0.200000X-0.275000X0.200000X-0.275000X-0.200000X0*%
%ADD44R,0.800000X0.650000*%
%ADD45RoundRect,0.062500X-0.220971X-0.309359X0.309359X0.220971X0.220971X0.309359X-0.309359X-0.220971X0*%
%ADD46RoundRect,0.062500X0.220971X-0.309359X0.309359X-0.220971X-0.220971X0.309359X-0.309359X0.220971X0*%
%ADD47RotRect,5.600000X5.600000X45.000000*%
%ADD48RoundRect,0.135000X-0.185000X0.135000X-0.185000X-0.135000X0.185000X-0.135000X0.185000X0.135000X0*%
%ADD49C,0.650000*%
%ADD50R,0.600000X1.450000*%
%ADD51R,0.300000X1.450000*%
%ADD52O,1.000000X2.100000*%
%ADD53O,1.000000X1.600000*%
%ADD54R,0.200000X0.660000*%
%ADD55R,0.400000X0.660000*%
%ADD56C,2.374900*%
%ADD57C,0.990600*%
%ADD58C,0.787400*%
%ADD59RoundRect,0.112500X-0.187500X-0.112500X0.187500X-0.112500X0.187500X0.112500X-0.187500X0.112500X0*%
G04 APERTURE END LIST*
D10*
%TO.C,kibuzzard-677E65CD*%
G36*
X123783390Y-77690068D02*
G01*
X123881507Y-77785616D01*
X123923744Y-77891553D01*
X123949087Y-78039498D01*
X123957534Y-78229452D01*
X123949201Y-78439269D01*
X123924201Y-78600228D01*
X123882534Y-78712329D01*
X123784675Y-78810959D01*
X123641096Y-78843836D01*
X123548630Y-78825342D01*
X123548630Y-77676712D01*
X123641096Y-77658219D01*
X123783390Y-77690068D01*
G37*
G36*
X124609589Y-79191781D02*
G01*
X124181507Y-79191781D01*
X123641096Y-79191781D01*
X123318493Y-79191781D01*
X122890411Y-79191781D01*
X122890411Y-77520548D01*
X123318493Y-77520548D01*
X123318493Y-78979452D01*
X123473116Y-79010274D01*
X123641096Y-79020548D01*
X123811644Y-79002825D01*
X123945205Y-78949658D01*
X124046661Y-78852825D01*
X124120890Y-78704110D01*
X124154566Y-78573744D01*
X124174772Y-78415525D01*
X124181507Y-78229452D01*
X124173609Y-78037393D01*
X124149914Y-77876284D01*
X124110424Y-77746126D01*
X124055137Y-77646918D01*
X123952968Y-77553881D01*
X123814954Y-77498059D01*
X123641096Y-77479452D01*
X123479281Y-77489726D01*
X123318493Y-77520548D01*
X122890411Y-77520548D01*
X122890411Y-77308219D01*
X123318493Y-77308219D01*
X124181507Y-77308219D01*
X124609589Y-77308219D01*
X124609589Y-79191781D01*
G37*
D11*
%TO.C,U1*%
X178230000Y-56960000D02*
X178230000Y-55610000D01*
X179230000Y-55610000D02*
X178970000Y-55610000D01*
X179980000Y-56960000D02*
X179980000Y-55610000D01*
D12*
X178260000Y-57360000D02*
G75*
G02*
X178060000Y-57360000I-100000J0D01*
G01*
X178060000Y-57360000D02*
G75*
G02*
X178260000Y-57360000I100000J0D01*
G01*
D13*
%TO.C,C21*%
X164769190Y-90578307D02*
X164921693Y-90730810D01*
X165278307Y-90069190D02*
X165430810Y-90221693D01*
%TO.C,C13*%
X175440000Y-66692164D02*
X175440000Y-66907836D01*
X176160000Y-66692164D02*
X176160000Y-66907836D01*
%TO.C,R5*%
X161577500Y-67962742D02*
X161577500Y-68437258D01*
X162622500Y-67962742D02*
X162622500Y-68437258D01*
%TO.C,C17*%
X165469190Y-89878307D02*
X165621693Y-90030810D01*
X165978307Y-89369190D02*
X166130810Y-89521693D01*
%TO.C,SW14*%
X167950000Y-117725000D02*
X168750000Y-118525000D01*
X168750000Y-113875000D02*
X167950000Y-114675000D01*
X168750000Y-113875000D02*
X169750000Y-113875000D01*
X168750000Y-118525000D02*
X169750000Y-118525000D01*
X177754000Y-111725000D02*
X176754000Y-111725000D01*
X177754000Y-111725000D02*
X177754000Y-112425000D01*
X177500000Y-115575000D02*
G75*
G02*
X176700000Y-116375000I-800000J0D01*
G01*
%TO.C,SW11*%
X149450000Y-100225000D02*
X150250000Y-101025000D01*
X150250000Y-96375000D02*
X149450000Y-97175000D01*
X150250000Y-96375000D02*
X151250000Y-96375000D01*
X150250000Y-101025000D02*
X151250000Y-101025000D01*
X159254000Y-94225000D02*
X158254000Y-94225000D01*
X159254000Y-94225000D02*
X159254000Y-94925000D01*
X159000000Y-98075000D02*
G75*
G02*
X158200000Y-98875000I-800000J0D01*
G01*
%TO.C,R7*%
X183220000Y-63853641D02*
X183220000Y-63546359D01*
X183980000Y-63853641D02*
X183980000Y-63546359D01*
%TO.C,R11*%
X146120000Y-63853641D02*
X146120000Y-63546359D01*
X146880000Y-63853641D02*
X146880000Y-63546359D01*
%TO.C,U4*%
X158008000Y-67278000D02*
X158008000Y-66478000D01*
X158008000Y-67278000D02*
X158008000Y-68078000D01*
X161128000Y-67278000D02*
X161128000Y-66478000D01*
X161128000Y-67278000D02*
X161128000Y-68078000D01*
X158058000Y-68578000D02*
X157728000Y-68818000D01*
X157728000Y-68338000D01*
X158058000Y-68578000D01*
G36*
X158058000Y-68578000D02*
G01*
X157728000Y-68818000D01*
X157728000Y-68338000D01*
X158058000Y-68578000D01*
G37*
D10*
%TO.C,kibuzzard-677E65D8*%
G36*
X123798630Y-83929680D02*
G01*
X123874658Y-84000228D01*
X123900000Y-84117808D01*
X123883562Y-84225942D01*
X123834247Y-84299658D01*
X123750000Y-84342038D01*
X123628767Y-84356164D01*
X123569178Y-84356164D01*
X123569178Y-83922603D01*
X123671918Y-83906164D01*
X123798630Y-83929680D01*
G37*
G36*
X123781849Y-84547774D02*
G01*
X123869178Y-84598630D01*
X123920034Y-84686473D01*
X123936986Y-84814384D01*
X123921318Y-84940497D01*
X123874315Y-85027055D01*
X123795462Y-85077140D01*
X123684247Y-85093836D01*
X123569178Y-85077397D01*
X123569178Y-84530822D01*
X123655479Y-84530822D01*
X123781849Y-84547774D01*
G37*
G36*
X124589041Y-85441781D02*
G01*
X124160959Y-85441781D01*
X123684247Y-85441781D01*
X123339041Y-85441781D01*
X122910959Y-85441781D01*
X122910959Y-83770548D01*
X123339041Y-83770548D01*
X123339041Y-85229452D01*
X123452283Y-85252283D01*
X123567352Y-85265982D01*
X123684247Y-85270548D01*
X123829909Y-85257991D01*
X123949087Y-85220320D01*
X124041781Y-85157534D01*
X124107991Y-85069635D01*
X124147717Y-84956621D01*
X124160959Y-84818493D01*
X124141182Y-84680822D01*
X124081849Y-84563699D01*
X123992723Y-84477911D01*
X123883562Y-84434247D01*
X123883562Y-84432192D01*
X123979880Y-84390068D01*
X124055137Y-84317123D01*
X124103682Y-84219521D01*
X124119863Y-84103425D01*
X124101945Y-83968795D01*
X124048192Y-83864082D01*
X123958603Y-83789288D01*
X123833178Y-83744411D01*
X123671918Y-83729452D01*
X123502397Y-83739726D01*
X123339041Y-83770548D01*
X122910959Y-83770548D01*
X122910959Y-83558219D01*
X123339041Y-83558219D01*
X124160959Y-83558219D01*
X124589041Y-83558219D01*
X124589041Y-85441781D01*
G37*
D11*
%TO.C,U3*%
X155300000Y-64940000D02*
X155300000Y-64900000D01*
X155300000Y-67100000D02*
X155300000Y-67070000D01*
X155300000Y-67100000D02*
X157300000Y-67100000D01*
X157300000Y-64900000D02*
X155300000Y-64900000D01*
X157300000Y-64900000D02*
X157300000Y-64940000D01*
D12*
X157830000Y-67020000D02*
G75*
G02*
X157630000Y-67020000I-100000J0D01*
G01*
X157630000Y-67020000D02*
G75*
G02*
X157830000Y-67020000I100000J0D01*
G01*
D14*
%TO.C,U5*%
X140950000Y-55300000D02*
X140950000Y-57100000D01*
X141090000Y-55300000D02*
X140950000Y-55300000D01*
X141090000Y-57100000D02*
X140950000Y-57100000D01*
X142040000Y-57100000D02*
X142000000Y-57100000D01*
X142990000Y-55300000D02*
X142000000Y-55300000D01*
X142990000Y-57100000D02*
X142950000Y-57100000D01*
X144050000Y-55300000D02*
X143900000Y-55300000D01*
X144050000Y-55300000D02*
X144050000Y-57100000D01*
X144050000Y-57100000D02*
X143900000Y-57100000D01*
D13*
%TO.C,SW13*%
X186450000Y-117725000D02*
X187250000Y-118525000D01*
X187250000Y-113875000D02*
X186450000Y-114675000D01*
X187250000Y-113875000D02*
X188250000Y-113875000D01*
X187250000Y-118525000D02*
X188250000Y-118525000D01*
X196254000Y-111725000D02*
X195254000Y-111725000D01*
X196254000Y-111725000D02*
X196254000Y-112425000D01*
X196000000Y-115575000D02*
G75*
G02*
X195200000Y-116375000I-800000J0D01*
G01*
%TO.C,R3*%
X157592421Y-56263355D02*
X158620645Y-57291579D01*
X158879355Y-54976421D02*
X159907579Y-56004645D01*
D15*
%TO.C,D10*%
X166636803Y-88800000D02*
G75*
G02*
X166413197Y-88800000I-111803J0D01*
G01*
X166413197Y-88800000D02*
G75*
G02*
X166636803Y-88800000I111803J0D01*
G01*
D13*
%TO.C,C6*%
X127092164Y-67340000D02*
X127307836Y-67340000D01*
X127092164Y-68060000D02*
X127307836Y-68060000D01*
%TO.C,C26*%
X132612164Y-60200000D02*
X132827836Y-60200000D01*
X132612164Y-60920000D02*
X132827836Y-60920000D01*
%TO.C,C12*%
X185392164Y-58390000D02*
X185607836Y-58390000D01*
X185392164Y-59110000D02*
X185607836Y-59110000D01*
D15*
%TO.C,D12*%
X129636803Y-88800000D02*
G75*
G02*
X129413197Y-88800000I-111803J0D01*
G01*
X129413197Y-88800000D02*
G75*
G02*
X129636803Y-88800000I111803J0D01*
G01*
D13*
%TO.C,D17*%
X156670000Y-52222000D02*
X156670000Y-53442000D01*
X156670000Y-52222000D02*
X157980000Y-52222000D01*
X156670000Y-53442000D02*
X157980000Y-53442000D01*
D10*
%TO.C,kibuzzard-677E6634*%
G36*
X132725514Y-49184675D02*
G01*
X132803082Y-49233219D01*
X132849315Y-49316695D01*
X132864726Y-49437671D01*
X132848288Y-49564041D01*
X132798973Y-49647260D01*
X132710616Y-49693493D01*
X132577055Y-49708904D01*
X132496918Y-49708904D01*
X132496918Y-49184932D01*
X132616096Y-49168493D01*
X132725514Y-49184675D01*
G37*
G36*
X127621661Y-49611558D02*
G01*
X127677397Y-49677055D01*
X127710531Y-49795462D01*
X127721575Y-49976027D01*
X127708219Y-50161473D01*
X127668151Y-50282192D01*
X127600856Y-50348459D01*
X127505822Y-50370548D01*
X127372260Y-50343836D01*
X127372260Y-49659589D01*
X127446747Y-49607192D01*
X127542808Y-49589726D01*
X127621661Y-49611558D01*
G37*
G36*
X130688185Y-49607192D02*
G01*
X130762671Y-49659589D01*
X130762671Y-50343836D01*
X130629110Y-50370548D01*
X130534075Y-50348459D01*
X130466781Y-50282192D01*
X130426712Y-50161473D01*
X130413356Y-49976027D01*
X130424401Y-49795462D01*
X130457534Y-49677055D01*
X130513271Y-49611558D01*
X130592123Y-49589726D01*
X130688185Y-49607192D01*
G37*
G36*
X126592209Y-49610017D02*
G01*
X126654110Y-49670890D01*
X126688784Y-49787757D01*
X126700343Y-49976027D01*
X126688784Y-50164298D01*
X126654110Y-50281164D01*
X126592209Y-50342038D01*
X126498973Y-50362329D01*
X126405736Y-50342038D01*
X126343836Y-50281164D01*
X126309161Y-50164298D01*
X126297603Y-49976027D01*
X126309161Y-49787757D01*
X126343836Y-49670890D01*
X126405736Y-49610017D01*
X126498973Y-49589726D01*
X126592209Y-49610017D01*
G37*
G36*
X128647003Y-49610017D02*
G01*
X128708904Y-49670890D01*
X128743579Y-49787757D01*
X128755137Y-49976027D01*
X128743579Y-50164298D01*
X128708904Y-50281164D01*
X128647003Y-50342038D01*
X128553767Y-50362329D01*
X128460531Y-50342038D01*
X128398630Y-50281164D01*
X128363956Y-50164298D01*
X128352397Y-49976027D01*
X128363956Y-49787757D01*
X128398630Y-49670890D01*
X128460531Y-49610017D01*
X128553767Y-49589726D01*
X128647003Y-49610017D01*
G37*
G36*
X134436126Y-48802530D02*
G01*
X134528545Y-48816239D01*
X134619175Y-48838940D01*
X134707144Y-48870416D01*
X134791604Y-48910363D01*
X134871742Y-48958395D01*
X134946785Y-49014052D01*
X135016013Y-49076796D01*
X135078757Y-49146023D01*
X135134413Y-49221067D01*
X135182446Y-49301205D01*
X135222392Y-49385664D01*
X135253868Y-49473633D01*
X135276569Y-49564263D01*
X135290279Y-49656682D01*
X135294863Y-49750000D01*
X135290279Y-49843318D01*
X135276569Y-49935737D01*
X135253868Y-50026367D01*
X135222392Y-50114336D01*
X135182446Y-50198795D01*
X135134413Y-50278933D01*
X135078757Y-50353977D01*
X135016013Y-50423204D01*
X134946785Y-50485948D01*
X134871742Y-50541605D01*
X134791604Y-50589637D01*
X134707144Y-50629584D01*
X134619175Y-50661060D01*
X134528545Y-50683761D01*
X134436126Y-50697470D01*
X134342808Y-50702055D01*
X133914726Y-50702055D01*
X133684589Y-50702055D01*
X133129795Y-50702055D01*
X130639384Y-50702055D01*
X129961301Y-50702055D01*
X128553767Y-50702055D01*
X127495548Y-50702055D01*
X126498973Y-50702055D01*
X125315411Y-50702055D01*
X125085274Y-50702055D01*
X124657192Y-50702055D01*
X124563874Y-50697470D01*
X124471455Y-50683761D01*
X124380825Y-50661060D01*
X124292856Y-50629584D01*
X124208396Y-50589637D01*
X124128259Y-50541605D01*
X124086014Y-50510274D01*
X125085274Y-50510274D01*
X125315411Y-50510274D01*
X125315411Y-49791096D01*
X125319521Y-49791096D01*
X125679110Y-50510274D01*
X125927740Y-50510274D01*
X125653624Y-49976027D01*
X126067466Y-49976027D01*
X126079338Y-50152740D01*
X126114954Y-50293836D01*
X126174315Y-50399315D01*
X126257877Y-50472374D01*
X126366096Y-50516210D01*
X126498973Y-50530822D01*
X126631849Y-50516210D01*
X126740069Y-50472374D01*
X126748425Y-50465068D01*
X127146233Y-50465068D01*
X127251712Y-50501598D01*
X127368151Y-50523516D01*
X127495548Y-50530822D01*
X127637785Y-50516781D01*
X127752169Y-50474658D01*
X127838699Y-50404452D01*
X127899201Y-50300685D01*
X127935502Y-50157877D01*
X127947603Y-49976027D01*
X128122260Y-49976027D01*
X128134132Y-50152740D01*
X128169749Y-50293836D01*
X128229110Y-50399315D01*
X128312671Y-50472374D01*
X128420890Y-50516210D01*
X128553767Y-50530822D01*
X128686644Y-50516210D01*
X128794863Y-50472374D01*
X128878425Y-50399315D01*
X128937785Y-50293836D01*
X128973402Y-50152740D01*
X128985274Y-49976027D01*
X128973402Y-49799315D01*
X128937785Y-49658219D01*
X128878425Y-49552740D01*
X128794863Y-49479680D01*
X128686644Y-49435845D01*
X128553767Y-49421233D01*
X128420890Y-49435845D01*
X128312671Y-49479680D01*
X128229110Y-49552740D01*
X128169749Y-49658219D01*
X128134132Y-49799315D01*
X128122260Y-49976027D01*
X127947603Y-49976027D01*
X127937215Y-49797260D01*
X127906050Y-49655479D01*
X127854110Y-49550685D01*
X127780708Y-49478767D01*
X127685160Y-49435616D01*
X127567466Y-49421233D01*
X127467295Y-49432534D01*
X127372260Y-49466438D01*
X127372260Y-49176712D01*
X129180480Y-49176712D01*
X129455822Y-49176712D01*
X129455822Y-50510274D01*
X129961301Y-50510274D01*
X129961301Y-50343836D01*
X129685959Y-50343836D01*
X129685959Y-49976027D01*
X130187329Y-49976027D01*
X130199429Y-50157877D01*
X130235731Y-50300685D01*
X130296233Y-50404452D01*
X130382763Y-50474658D01*
X130497146Y-50516781D01*
X130639384Y-50530822D01*
X130766781Y-50523516D01*
X130883219Y-50501598D01*
X130988699Y-50465068D01*
X130988699Y-49030822D01*
X132266781Y-49030822D01*
X132266781Y-50510274D01*
X132496918Y-50510274D01*
X132496918Y-49887671D01*
X132577055Y-49887671D01*
X132701370Y-49927740D01*
X132740668Y-49985531D01*
X132774315Y-50078767D01*
X132893493Y-50510274D01*
X133129795Y-50510274D01*
X133002397Y-50091096D01*
X132936644Y-49929795D01*
X132858562Y-49828082D01*
X132858562Y-49823973D01*
X132959247Y-49765154D01*
X133031164Y-49681164D01*
X133074315Y-49572003D01*
X133088699Y-49437671D01*
X133076027Y-49296689D01*
X133050264Y-49219863D01*
X133327055Y-49219863D01*
X133327055Y-49421233D01*
X133680480Y-49223973D01*
X133684589Y-49226027D01*
X133684589Y-50510274D01*
X133914726Y-50510274D01*
X133914726Y-49010274D01*
X133686644Y-49010274D01*
X133327055Y-49219863D01*
X133050264Y-49219863D01*
X133038014Y-49183333D01*
X132974658Y-49097603D01*
X132884132Y-49037671D01*
X132764612Y-49001712D01*
X132616096Y-48989726D01*
X132497831Y-48994292D01*
X132381393Y-49007991D01*
X132266781Y-49030822D01*
X130988699Y-49030822D01*
X130988699Y-48969178D01*
X130762671Y-48969178D01*
X130762671Y-49466438D01*
X130667637Y-49432534D01*
X130567466Y-49421233D01*
X130449772Y-49435616D01*
X130354224Y-49478767D01*
X130280822Y-49550685D01*
X130228881Y-49655479D01*
X130197717Y-49797260D01*
X130187329Y-49976027D01*
X129685959Y-49976027D01*
X129685959Y-49010274D01*
X129180480Y-49010274D01*
X129180480Y-49176712D01*
X127372260Y-49176712D01*
X127372260Y-48969178D01*
X127146233Y-48969178D01*
X127146233Y-50465068D01*
X126748425Y-50465068D01*
X126823630Y-50399315D01*
X126882991Y-50293836D01*
X126918607Y-50152740D01*
X126930480Y-49976027D01*
X126918607Y-49799315D01*
X126882991Y-49658219D01*
X126823630Y-49552740D01*
X126740069Y-49479680D01*
X126631849Y-49435845D01*
X126498973Y-49421233D01*
X126366096Y-49435845D01*
X126257877Y-49479680D01*
X126174315Y-49552740D01*
X126114954Y-49658219D01*
X126079338Y-49799315D01*
X126067466Y-49976027D01*
X125653624Y-49976027D01*
X125525000Y-49725342D01*
X125917466Y-49010274D01*
X125670890Y-49010274D01*
X125319521Y-49667808D01*
X125315411Y-49667808D01*
X125315411Y-49010274D01*
X125085274Y-49010274D01*
X125085274Y-50510274D01*
X124086014Y-50510274D01*
X124053215Y-50485948D01*
X123983987Y-50423204D01*
X123921244Y-50353977D01*
X123865587Y-50278933D01*
X123817554Y-50198796D01*
X123777608Y-50114336D01*
X123746132Y-50026367D01*
X123723431Y-49935737D01*
X123709721Y-49843318D01*
X123705137Y-49750000D01*
X123709721Y-49656682D01*
X123723431Y-49564263D01*
X123746132Y-49473633D01*
X123777608Y-49385664D01*
X123817554Y-49301204D01*
X123865587Y-49221067D01*
X123921244Y-49146023D01*
X123983987Y-49076796D01*
X124053215Y-49014052D01*
X124128259Y-48958395D01*
X124208396Y-48910363D01*
X124292856Y-48870416D01*
X124380825Y-48838940D01*
X124471455Y-48816239D01*
X124563874Y-48802530D01*
X124657192Y-48797945D01*
X125085274Y-48797945D01*
X133914726Y-48797945D01*
X134342808Y-48797945D01*
X134436126Y-48802530D01*
G37*
D13*
%TO.C,C19*%
X126340000Y-81507836D02*
X126340000Y-81292164D01*
X127060000Y-81507836D02*
X127060000Y-81292164D01*
%TO.C,C27*%
X128240000Y-86094836D02*
X128240000Y-85879164D01*
X128960000Y-86094836D02*
X128960000Y-85879164D01*
%TO.C,C11*%
X175690000Y-83857836D02*
X175690000Y-83642164D01*
X176410000Y-83857836D02*
X176410000Y-83642164D01*
%TO.C,SW5*%
X186450000Y-82725000D02*
X187250000Y-83525000D01*
X187250000Y-78875000D02*
X186450000Y-79675000D01*
X187250000Y-78875000D02*
X188250000Y-78875000D01*
X187250000Y-83525000D02*
X188250000Y-83525000D01*
X196254000Y-76725000D02*
X195254000Y-76725000D01*
X196254000Y-76725000D02*
X196254000Y-77425000D01*
X196000000Y-80575000D02*
G75*
G02*
X195200000Y-81375000I-800000J0D01*
G01*
%TO.C,R1*%
X159346359Y-71020000D02*
X159653641Y-71020000D01*
X159346359Y-71780000D02*
X159653641Y-71780000D01*
D11*
%TO.C,U11*%
X166180000Y-60880000D02*
X166180000Y-59530000D01*
X167180000Y-59530000D02*
X166920000Y-59530000D01*
X167930000Y-60880000D02*
X167930000Y-59530000D01*
D12*
X166210000Y-61280000D02*
G75*
G02*
X166010000Y-61280000I-100000J0D01*
G01*
X166010000Y-61280000D02*
G75*
G02*
X166210000Y-61280000I100000J0D01*
G01*
D13*
%TO.C,C5*%
X194807836Y-102340000D02*
X194592164Y-102340000D01*
X194807836Y-103060000D02*
X194592164Y-103060000D01*
%TO.C,C8*%
X160192164Y-64240000D02*
X160407836Y-64240000D01*
X160192164Y-64960000D02*
X160407836Y-64960000D01*
D15*
%TO.C,D7*%
X155586803Y-69800000D02*
G75*
G02*
X155363197Y-69800000I-111803J0D01*
G01*
X155363197Y-69800000D02*
G75*
G02*
X155586803Y-69800000I111803J0D01*
G01*
D13*
%TO.C,SW10*%
X167950000Y-100225000D02*
X168750000Y-101025000D01*
X168750000Y-96375000D02*
X167950000Y-97175000D01*
X168750000Y-96375000D02*
X169750000Y-96375000D01*
X168750000Y-101025000D02*
X169750000Y-101025000D01*
X177754000Y-94225000D02*
X176754000Y-94225000D01*
X177754000Y-94225000D02*
X177754000Y-94925000D01*
X177500000Y-98075000D02*
G75*
G02*
X176700000Y-98875000I-800000J0D01*
G01*
%TO.C,C18*%
X154867836Y-84440000D02*
X154652164Y-84440000D01*
X154867836Y-85160000D02*
X154652164Y-85160000D01*
D15*
%TO.C,D3*%
X148136803Y-53800000D02*
G75*
G02*
X147913197Y-53800000I-111803J0D01*
G01*
X147913197Y-53800000D02*
G75*
G02*
X148136803Y-53800000I111803J0D01*
G01*
D13*
%TO.C,C14*%
X165240000Y-60092164D02*
X165240000Y-60307836D01*
X165960000Y-60092164D02*
X165960000Y-60307836D01*
%TO.C,U8*%
X176740000Y-84740000D02*
X177010000Y-84740000D01*
X176740000Y-87500000D02*
X176740000Y-84740000D01*
X176740000Y-87500000D02*
X176740000Y-90260000D01*
X176740000Y-90260000D02*
X177010000Y-90260000D01*
X182260000Y-84740000D02*
X181990000Y-84740000D01*
X182260000Y-87500000D02*
X182260000Y-84740000D01*
X182260000Y-87500000D02*
X182260000Y-90260000D01*
X182260000Y-90260000D02*
X181990000Y-90260000D01*
X177010000Y-91025000D02*
X176680000Y-91265000D01*
X176680000Y-90785000D01*
X177010000Y-91025000D01*
G36*
X177010000Y-91025000D02*
G01*
X176680000Y-91265000D01*
X176680000Y-90785000D01*
X177010000Y-91025000D01*
G37*
%TO.C,SW16*%
X130950000Y-117725000D02*
X131750000Y-118525000D01*
X131750000Y-113875000D02*
X130950000Y-114675000D01*
X131750000Y-113875000D02*
X132750000Y-113875000D01*
X131750000Y-118525000D02*
X132750000Y-118525000D01*
X140754000Y-111725000D02*
X139754000Y-111725000D01*
X140754000Y-111725000D02*
X140754000Y-112425000D01*
X140500000Y-115575000D02*
G75*
G02*
X139700000Y-116375000I-800000J0D01*
G01*
%TO.C,SW6*%
X167950000Y-82725000D02*
X168750000Y-83525000D01*
X168750000Y-78875000D02*
X167950000Y-79675000D01*
X168750000Y-78875000D02*
X169750000Y-78875000D01*
X168750000Y-83525000D02*
X169750000Y-83525000D01*
X177754000Y-76725000D02*
X176754000Y-76725000D01*
X177754000Y-76725000D02*
X177754000Y-77425000D01*
X177500000Y-80575000D02*
G75*
G02*
X176700000Y-81375000I-800000J0D01*
G01*
D11*
%TO.C,U10*%
X173320000Y-65930000D02*
X174670000Y-65930000D01*
X173320000Y-67680000D02*
X174670000Y-67680000D01*
X174670000Y-66930000D02*
X174670000Y-66670000D01*
D12*
X173020000Y-65860000D02*
G75*
G02*
X172820000Y-65860000I-100000J0D01*
G01*
X172820000Y-65860000D02*
G75*
G02*
X173020000Y-65860000I100000J0D01*
G01*
D13*
%TO.C,C3*%
X155707836Y-67340000D02*
X155492164Y-67340000D01*
X155707836Y-68060000D02*
X155492164Y-68060000D01*
%TO.C,C16*%
X161750000Y-79807836D02*
X161750000Y-79592164D01*
X162470000Y-79807836D02*
X162470000Y-79592164D01*
D15*
%TO.C,D2*%
X166636803Y-53800000D02*
G75*
G02*
X166413197Y-53800000I-111803J0D01*
G01*
X166413197Y-53800000D02*
G75*
G02*
X166636803Y-53800000I111803J0D01*
G01*
D13*
%TO.C,R2*%
X157177500Y-71137258D02*
X157177500Y-70662742D01*
X158222500Y-71137258D02*
X158222500Y-70662742D01*
%TO.C,C2*%
X181192164Y-54220000D02*
X181407836Y-54220000D01*
X181192164Y-54940000D02*
X181407836Y-54940000D01*
D11*
%TO.C,U12*%
X145500000Y-77330000D02*
X146850000Y-77330000D01*
X145500000Y-79080000D02*
X146850000Y-79080000D01*
X146850000Y-78330000D02*
X146850000Y-78070000D01*
D12*
X145200000Y-77260000D02*
G75*
G02*
X145000000Y-77260000I-100000J0D01*
G01*
X145000000Y-77260000D02*
G75*
G02*
X145200000Y-77260000I100000J0D01*
G01*
D16*
%TO.C,SW18*%
X124500000Y-77910000D02*
X124500000Y-78590000D01*
X124850000Y-78000000D02*
X124850000Y-78510000D01*
X124850000Y-78510000D02*
X125110000Y-78620000D01*
X125110000Y-77870000D02*
X124850000Y-78000000D01*
X126890000Y-78630000D02*
X127140000Y-78510000D01*
X126950000Y-76950000D02*
X125040000Y-76950000D01*
X126950000Y-79550000D02*
X125040000Y-79550000D01*
X127140000Y-78000000D02*
X126890000Y-77890000D01*
X127140000Y-78510000D02*
X127140000Y-78000000D01*
X127500000Y-78590000D02*
X127500000Y-77910000D01*
X125108616Y-77872377D02*
G75*
G02*
X126890000Y-77870000I891384J-517623D01*
G01*
X126891384Y-78617623D02*
G75*
G02*
X125110000Y-78620000I-891384J517623D01*
G01*
X126400000Y-78250000D02*
G75*
G02*
X125600000Y-78250000I-400000J0D01*
G01*
X125600000Y-78250000D02*
G75*
G02*
X126400000Y-78250000I400000J0D01*
G01*
D13*
%TO.C,R6*%
X178046359Y-92320000D02*
X178353641Y-92320000D01*
X178046359Y-93080000D02*
X178353641Y-93080000D01*
%TO.C,SW7*%
X149450000Y-82725000D02*
X150250000Y-83525000D01*
X150250000Y-78875000D02*
X149450000Y-79675000D01*
X150250000Y-78875000D02*
X151250000Y-78875000D01*
X150250000Y-83525000D02*
X151250000Y-83525000D01*
X159254000Y-76725000D02*
X158254000Y-76725000D01*
X159254000Y-76725000D02*
X159254000Y-77425000D01*
X159000000Y-80575000D02*
G75*
G02*
X158200000Y-81375000I-800000J0D01*
G01*
%TO.C,U7*%
X156205342Y-85664124D02*
X156081598Y-85787868D01*
X156205342Y-86335876D02*
X156039172Y-86169706D01*
X160638901Y-81230565D02*
X160974777Y-80894689D01*
X160974777Y-80894689D02*
X161310653Y-81230565D01*
X160974777Y-91105311D02*
X160638901Y-90769435D01*
X161310653Y-90769435D02*
X160974777Y-91105311D01*
X165744212Y-86335876D02*
X166080088Y-86000000D01*
X166080088Y-86000000D02*
X165744212Y-85664124D01*
X155869466Y-86000000D02*
X155466415Y-85936360D01*
X155805826Y-85596949D01*
X155869466Y-86000000D01*
G36*
X155869466Y-86000000D02*
G01*
X155466415Y-85936360D01*
X155805826Y-85596949D01*
X155869466Y-86000000D01*
G37*
%TO.C,SW12*%
X130950000Y-100225000D02*
X131750000Y-101025000D01*
X131750000Y-96375000D02*
X130950000Y-97175000D01*
X131750000Y-96375000D02*
X132750000Y-96375000D01*
X131750000Y-101025000D02*
X132750000Y-101025000D01*
X140754000Y-94225000D02*
X139754000Y-94225000D01*
X140754000Y-94225000D02*
X140754000Y-94925000D01*
X140500000Y-98075000D02*
G75*
G02*
X139700000Y-98875000I-800000J0D01*
G01*
D15*
%TO.C,D14*%
X174086803Y-104800000D02*
G75*
G02*
X173863197Y-104800000I-111803J0D01*
G01*
X173863197Y-104800000D02*
G75*
G02*
X174086803Y-104800000I111803J0D01*
G01*
%TO.C,D13*%
X192586803Y-104800000D02*
G75*
G02*
X192363197Y-104800000I-111803J0D01*
G01*
X192363197Y-104800000D02*
G75*
G02*
X192586803Y-104800000I111803J0D01*
G01*
D13*
%TO.C,C10*%
X139940000Y-55092164D02*
X139940000Y-55307836D01*
X140660000Y-55092164D02*
X140660000Y-55307836D01*
%TO.C,R10*%
X144000000Y-78046359D02*
X144000000Y-78353641D01*
X144760000Y-78046359D02*
X144760000Y-78353641D01*
D15*
%TO.C,D4*%
X129636803Y-53800000D02*
G75*
G02*
X129413197Y-53800000I-111803J0D01*
G01*
X129413197Y-53800000D02*
G75*
G02*
X129636803Y-53800000I111803J0D01*
G01*
D11*
%TO.C,U14*%
X146520000Y-66230000D02*
X147870000Y-66230000D01*
X146520000Y-67980000D02*
X147870000Y-67980000D01*
X147870000Y-67230000D02*
X147870000Y-66970000D01*
D12*
X146220000Y-66160000D02*
G75*
G02*
X146020000Y-66160000I-100000J0D01*
G01*
X146020000Y-66160000D02*
G75*
G02*
X146220000Y-66160000I100000J0D01*
G01*
D11*
%TO.C,U2*%
X180430000Y-56960000D02*
X180430000Y-55610000D01*
X181430000Y-55610000D02*
X181170000Y-55610000D01*
X182180000Y-56960000D02*
X182180000Y-55610000D01*
D12*
X180460000Y-57360000D02*
G75*
G02*
X180260000Y-57360000I-100000J0D01*
G01*
X180260000Y-57360000D02*
G75*
G02*
X180460000Y-57360000I100000J0D01*
G01*
D15*
%TO.C,D1*%
X185136803Y-53800000D02*
G75*
G02*
X184913197Y-53800000I-111803J0D01*
G01*
X184913197Y-53800000D02*
G75*
G02*
X185136803Y-53800000I111803J0D01*
G01*
D13*
%TO.C,SW2*%
X167950000Y-65225000D02*
X168750000Y-66025000D01*
X168750000Y-61375000D02*
X167950000Y-62175000D01*
X168750000Y-61375000D02*
X169750000Y-61375000D01*
X168750000Y-66025000D02*
X169750000Y-66025000D01*
X177754000Y-59225000D02*
X176754000Y-59225000D01*
X177754000Y-59225000D02*
X177754000Y-59925000D01*
X177500000Y-63075000D02*
G75*
G02*
X176700000Y-63875000I-800000J0D01*
G01*
%TO.C,C22*%
X155950000Y-88512164D02*
X155950000Y-88727836D01*
X156670000Y-88512164D02*
X156670000Y-88727836D01*
%TO.C,C25*%
X145190000Y-80857836D02*
X145190000Y-80642164D01*
X145910000Y-80857836D02*
X145910000Y-80642164D01*
%TO.C,SW8*%
X130950000Y-82725000D02*
X131750000Y-83525000D01*
X131750000Y-78875000D02*
X130950000Y-79675000D01*
X131750000Y-78875000D02*
X132750000Y-78875000D01*
X131750000Y-83525000D02*
X132750000Y-83525000D01*
X140754000Y-76725000D02*
X139754000Y-76725000D01*
X140754000Y-76725000D02*
X140754000Y-77425000D01*
X140500000Y-80575000D02*
G75*
G02*
X139700000Y-81375000I-800000J0D01*
G01*
D15*
%TO.C,D5*%
X192586803Y-69800000D02*
G75*
G02*
X192363197Y-69800000I-111803J0D01*
G01*
X192363197Y-69800000D02*
G75*
G02*
X192586803Y-69800000I111803J0D01*
G01*
D13*
%TO.C,SW4*%
X130950000Y-65225000D02*
X131750000Y-66025000D01*
X131750000Y-61375000D02*
X130950000Y-62175000D01*
X131750000Y-61375000D02*
X132750000Y-61375000D01*
X131750000Y-66025000D02*
X132750000Y-66025000D01*
X140754000Y-59225000D02*
X139754000Y-59225000D01*
X140754000Y-59225000D02*
X140754000Y-59925000D01*
X140500000Y-63075000D02*
G75*
G02*
X139700000Y-63875000I-800000J0D01*
G01*
%TO.C,J1*%
X156300000Y-44900000D02*
X156300000Y-43000000D01*
X156300000Y-48800000D02*
X156300000Y-46800000D01*
X165700000Y-43000000D02*
X156300000Y-43000000D01*
X165700000Y-44900000D02*
X165700000Y-43000000D01*
X165700000Y-48800000D02*
X165700000Y-46800000D01*
D10*
%TO.C,kibuzzard-677E6627*%
G36*
X189285822Y-49678425D02*
G01*
X189318699Y-49773716D01*
X189331027Y-49917808D01*
X188965274Y-49917808D01*
X188982740Y-49769863D01*
X189018699Y-49675342D01*
X189075719Y-49624486D01*
X189156370Y-49607534D01*
X189285822Y-49678425D01*
G37*
G36*
X181157055Y-49790411D02*
G01*
X181157055Y-50228082D01*
X181070753Y-50277397D01*
X180986507Y-50222945D01*
X180968014Y-50140497D01*
X180961849Y-50002055D01*
X180967500Y-49863613D01*
X180984452Y-49781164D01*
X181066644Y-49726712D01*
X181157055Y-49790411D01*
G37*
G36*
X184167329Y-50367808D02*
G01*
X184031712Y-50394521D01*
X183881712Y-50346233D01*
X183828288Y-50209589D01*
X183844983Y-50116610D01*
X183895068Y-50051370D01*
X183982140Y-50012842D01*
X184109795Y-50000000D01*
X184167329Y-50000000D01*
X184167329Y-50367808D01*
G37*
G36*
X193413904Y-50367808D02*
G01*
X193278288Y-50394521D01*
X193128288Y-50346233D01*
X193074863Y-50209589D01*
X193091558Y-50116610D01*
X193141644Y-50051370D01*
X193228716Y-50012842D01*
X193356370Y-50000000D01*
X193413904Y-50000000D01*
X193413904Y-50367808D01*
G37*
G36*
X178011164Y-49626027D02*
G01*
X178011164Y-50279452D01*
X177857055Y-50326712D01*
X177771652Y-50304366D01*
X177710651Y-50237329D01*
X177674050Y-50125599D01*
X177661849Y-49969178D01*
X177675976Y-49802740D01*
X177718356Y-49693836D01*
X177791558Y-49633733D01*
X177898151Y-49613699D01*
X178011164Y-49626027D01*
G37*
G36*
X191298236Y-49635531D02*
G01*
X191353973Y-49701027D01*
X191387106Y-49819435D01*
X191398151Y-50000000D01*
X191384795Y-50185445D01*
X191344726Y-50306164D01*
X191277432Y-50372432D01*
X191182397Y-50394521D01*
X191048836Y-50367808D01*
X191048836Y-49683562D01*
X191123322Y-49631164D01*
X191219384Y-49613699D01*
X191298236Y-49635531D01*
G37*
G36*
X195392158Y-49631164D02*
G01*
X195466644Y-49683562D01*
X195466644Y-50367808D01*
X195333082Y-50394521D01*
X195238048Y-50372432D01*
X195170753Y-50306164D01*
X195130685Y-50185445D01*
X195117329Y-50000000D01*
X195128373Y-49819435D01*
X195161507Y-49701027D01*
X195217243Y-49635531D01*
X195296096Y-49613699D01*
X195392158Y-49631164D01*
G37*
G36*
X192323579Y-49633990D02*
G01*
X192385479Y-49694863D01*
X192420154Y-49811729D01*
X192431712Y-50000000D01*
X192420154Y-50188271D01*
X192385479Y-50305137D01*
X192323579Y-50366010D01*
X192230342Y-50386301D01*
X192137106Y-50366010D01*
X192075205Y-50305137D01*
X192040531Y-50188271D01*
X192028973Y-50000000D01*
X192040531Y-49811729D01*
X192075205Y-49694863D01*
X192137106Y-49633990D01*
X192230342Y-49613699D01*
X192323579Y-49633990D01*
G37*
G36*
X197267733Y-48827591D02*
G01*
X197382093Y-48844554D01*
X197494239Y-48872646D01*
X197603093Y-48911594D01*
X197707604Y-48961024D01*
X197806768Y-49020460D01*
X197899628Y-49089330D01*
X197985290Y-49166970D01*
X198062930Y-49252633D01*
X198131800Y-49345493D01*
X198191236Y-49444656D01*
X198240666Y-49549167D01*
X198279615Y-49658021D01*
X198307706Y-49770168D01*
X198324670Y-49884528D01*
X198330342Y-50000000D01*
X198324670Y-50115472D01*
X198307706Y-50229832D01*
X198279615Y-50341979D01*
X198240666Y-50450833D01*
X198191236Y-50555344D01*
X198131800Y-50654507D01*
X198062930Y-50747367D01*
X197985290Y-50833030D01*
X197899628Y-50910670D01*
X197806768Y-50979540D01*
X197707604Y-51038976D01*
X197603093Y-51088406D01*
X197494239Y-51127354D01*
X197382093Y-51155446D01*
X197267733Y-51172409D01*
X197152260Y-51178082D01*
X196724178Y-51178082D01*
X196327603Y-51178082D01*
X195343356Y-51178082D01*
X194196781Y-51178082D01*
X193278288Y-51178082D01*
X192230342Y-51178082D01*
X191172123Y-51178082D01*
X190146781Y-51178082D01*
X189203630Y-51178082D01*
X188572808Y-51178082D01*
X186861164Y-51178082D01*
X186156370Y-51178082D01*
X184950205Y-51178082D01*
X184031712Y-51178082D01*
X183347466Y-51178082D01*
X182100205Y-51178082D01*
X180980342Y-51178082D01*
X179747466Y-51178082D01*
X179747466Y-50534247D01*
X180055685Y-50534247D01*
X180055685Y-50184932D01*
X179747466Y-50184932D01*
X179747466Y-50000000D01*
X180466644Y-50000000D01*
X180474799Y-50189362D01*
X180499264Y-50350599D01*
X180540039Y-50483711D01*
X180597123Y-50588699D01*
X180697694Y-50689726D01*
X180825434Y-50750342D01*
X180980342Y-50770548D01*
X181129315Y-50756678D01*
X181268014Y-50715068D01*
X181268014Y-50616438D01*
X186663904Y-50616438D01*
X186861164Y-50616438D01*
X186895428Y-50534247D01*
X187740616Y-50534247D01*
X187966644Y-50534247D01*
X187966644Y-50067808D01*
X188307740Y-50534247D01*
X188572808Y-50534247D01*
X188161241Y-50000000D01*
X188731027Y-50000000D01*
X188740672Y-50147190D01*
X188769607Y-50271736D01*
X188817832Y-50373637D01*
X188885347Y-50452893D01*
X188972151Y-50509505D01*
X189078246Y-50543472D01*
X189203630Y-50554795D01*
X189346952Y-50541952D01*
X189497466Y-50503425D01*
X189497466Y-50332877D01*
X189356712Y-50374486D01*
X189230342Y-50388356D01*
X189120154Y-50370634D01*
X189040274Y-50317466D01*
X188989161Y-50222175D01*
X188965274Y-50078082D01*
X189548836Y-50078082D01*
X189552945Y-49995890D01*
X189542215Y-49820434D01*
X189510023Y-49680365D01*
X189456370Y-49575685D01*
X189380799Y-49503196D01*
X189296478Y-49465753D01*
X189733767Y-49465753D01*
X190089247Y-50513699D01*
X189920753Y-50986301D01*
X190146781Y-50986301D01*
X190307383Y-50489041D01*
X190822808Y-50489041D01*
X190928288Y-50525571D01*
X191044726Y-50547489D01*
X191172123Y-50554795D01*
X191314361Y-50540753D01*
X191428744Y-50498630D01*
X191515274Y-50428425D01*
X191575776Y-50324658D01*
X191612078Y-50181849D01*
X191624178Y-50000000D01*
X191798836Y-50000000D01*
X191810708Y-50176712D01*
X191846324Y-50317808D01*
X191905685Y-50423288D01*
X191989247Y-50496347D01*
X192097466Y-50540183D01*
X192230342Y-50554795D01*
X192363219Y-50540183D01*
X192471438Y-50496347D01*
X192555000Y-50423288D01*
X192614361Y-50317808D01*
X192641678Y-50209589D01*
X192857055Y-50209589D01*
X192884538Y-50355479D01*
X192966986Y-50464384D01*
X193050434Y-50514612D01*
X193154201Y-50544749D01*
X193278288Y-50554795D01*
X193403174Y-50547489D01*
X193523037Y-50525571D01*
X193637877Y-50489041D01*
X193637877Y-49852055D01*
X193629087Y-49708219D01*
X193602717Y-49600000D01*
X193573694Y-49552055D01*
X193970753Y-49552055D01*
X193970753Y-50534247D01*
X194196781Y-50534247D01*
X194195503Y-50000000D01*
X194891301Y-50000000D01*
X194903402Y-50181849D01*
X194939703Y-50324658D01*
X195000205Y-50428425D01*
X195086735Y-50498630D01*
X195201119Y-50540753D01*
X195343356Y-50554795D01*
X195470753Y-50547489D01*
X195587192Y-50525571D01*
X195692671Y-50489041D01*
X195692671Y-49743151D01*
X195963904Y-49743151D01*
X195984452Y-49861558D01*
X196046096Y-49953767D01*
X196156541Y-50025428D01*
X196323493Y-50082192D01*
X196459110Y-50143836D01*
X196496096Y-50246575D01*
X196448836Y-50354452D01*
X196292671Y-50388356D01*
X196138048Y-50368322D01*
X195974178Y-50308219D01*
X195974178Y-50489041D01*
X196083767Y-50525571D01*
X196201575Y-50547489D01*
X196327603Y-50554795D01*
X196495325Y-50534760D01*
X196620411Y-50474658D01*
X196698236Y-50377568D01*
X196724178Y-50246575D01*
X196704401Y-50115068D01*
X196645068Y-50020548D01*
X196531284Y-49950685D01*
X196348151Y-49893151D01*
X196225890Y-49835616D01*
X196189932Y-49743151D01*
X196234623Y-49642979D01*
X196368699Y-49609589D01*
X196524863Y-49622432D01*
X196689247Y-49660959D01*
X196689247Y-49490411D01*
X196581941Y-49465297D01*
X196468242Y-49450228D01*
X196348151Y-49445205D01*
X196180685Y-49464469D01*
X196060479Y-49522260D01*
X195988048Y-49616010D01*
X195963904Y-49743151D01*
X195692671Y-49743151D01*
X195692671Y-48993151D01*
X195466644Y-48993151D01*
X195466644Y-49490411D01*
X195371610Y-49456507D01*
X195271438Y-49445205D01*
X195153744Y-49459589D01*
X195058196Y-49502740D01*
X194984795Y-49574658D01*
X194932854Y-49679452D01*
X194901689Y-49821233D01*
X194891301Y-50000000D01*
X194195503Y-50000000D01*
X194194726Y-49675342D01*
X194340160Y-49642237D01*
X194491530Y-49622374D01*
X194648836Y-49615753D01*
X194648836Y-49445205D01*
X194508616Y-49449479D01*
X194370699Y-49462301D01*
X194235082Y-49483671D01*
X194101767Y-49513589D01*
X193970753Y-49552055D01*
X193573694Y-49552055D01*
X193558767Y-49527397D01*
X193442928Y-49465753D01*
X193253630Y-49445205D01*
X193143128Y-49452511D01*
X193028059Y-49474429D01*
X192908425Y-49510959D01*
X192908425Y-49687671D01*
X193027603Y-49646575D01*
X193138562Y-49621918D01*
X193241301Y-49613699D01*
X193382055Y-49651712D01*
X193413904Y-49810959D01*
X193413904Y-49845890D01*
X193356370Y-49845890D01*
X193203288Y-49856279D01*
X193078288Y-49887443D01*
X192981370Y-49939384D01*
X192888134Y-50053682D01*
X192857055Y-50209589D01*
X192641678Y-50209589D01*
X192649977Y-50176712D01*
X192661849Y-50000000D01*
X192649977Y-49823288D01*
X192614361Y-49682192D01*
X192555000Y-49576712D01*
X192471438Y-49503653D01*
X192363219Y-49459817D01*
X192230342Y-49445205D01*
X192097466Y-49459817D01*
X191989247Y-49503653D01*
X191905685Y-49576712D01*
X191846324Y-49682192D01*
X191810708Y-49823288D01*
X191798836Y-50000000D01*
X191624178Y-50000000D01*
X191613790Y-49821233D01*
X191582626Y-49679452D01*
X191530685Y-49574658D01*
X191457283Y-49502740D01*
X191361735Y-49459589D01*
X191244041Y-49445205D01*
X191143870Y-49456507D01*
X191048836Y-49490411D01*
X191048836Y-48993151D01*
X190822808Y-48993151D01*
X190822808Y-50489041D01*
X190307383Y-50489041D01*
X190637877Y-49465753D01*
X190403630Y-49465753D01*
X190189932Y-50246575D01*
X190185822Y-50246575D01*
X189957740Y-49465753D01*
X189733767Y-49465753D01*
X189296478Y-49465753D01*
X189282854Y-49459703D01*
X189162534Y-49445205D01*
X189030685Y-49460616D01*
X188922808Y-49506849D01*
X188838904Y-49583904D01*
X188778973Y-49691781D01*
X188743014Y-49830479D01*
X188731027Y-50000000D01*
X188161241Y-50000000D01*
X188145411Y-49979452D01*
X188572808Y-49465753D01*
X188311849Y-49465753D01*
X187966644Y-49897260D01*
X187966644Y-48993151D01*
X187740616Y-48993151D01*
X187740616Y-50534247D01*
X186895428Y-50534247D01*
X187520753Y-49034247D01*
X187323493Y-49034247D01*
X186663904Y-50616438D01*
X181268014Y-50616438D01*
X181268014Y-50528082D01*
X181135993Y-50580479D01*
X181007055Y-50597945D01*
X180856541Y-50564555D01*
X180750205Y-50464384D01*
X180703402Y-50353425D01*
X180675320Y-50198630D01*
X180665959Y-50000000D01*
X180674749Y-49801370D01*
X180701119Y-49646575D01*
X180745068Y-49535616D01*
X180846010Y-49435445D01*
X180990616Y-49402055D01*
X181125205Y-49451370D01*
X181173493Y-49589041D01*
X181173493Y-49611644D01*
X181169384Y-49611644D01*
X181027603Y-49560274D01*
X180910736Y-49586216D01*
X180827260Y-49664041D01*
X180790160Y-49747717D01*
X180767900Y-49860388D01*
X180760479Y-50002055D01*
X180768242Y-50147831D01*
X180791530Y-50261872D01*
X180830342Y-50344178D01*
X180919726Y-50418921D01*
X181048151Y-50443836D01*
X181168014Y-50428995D01*
X181275548Y-50384475D01*
X181370753Y-50310274D01*
X181370753Y-49640411D01*
X181356432Y-49506849D01*
X181555685Y-49506849D01*
X181555685Y-49673288D01*
X181767329Y-49673288D01*
X181767329Y-50226027D01*
X181785565Y-50385274D01*
X181840274Y-50484932D01*
X181941729Y-50537329D01*
X182100205Y-50554795D01*
X182213733Y-50548630D01*
X182315959Y-50530137D01*
X182315959Y-50343151D01*
X182228116Y-50366267D01*
X182141301Y-50373973D01*
X182018014Y-50340068D01*
X181991301Y-50184932D01*
X181991301Y-49673288D01*
X182336507Y-49673288D01*
X182336507Y-49632192D01*
X182618014Y-49632192D01*
X183088562Y-49632192D01*
X183088562Y-49636301D01*
X182618014Y-50367808D01*
X182618014Y-50534247D01*
X183347466Y-50534247D01*
X183347466Y-50367808D01*
X182876918Y-50367808D01*
X182876918Y-50363699D01*
X182976051Y-50209589D01*
X183610479Y-50209589D01*
X183637962Y-50355479D01*
X183720411Y-50464384D01*
X183803858Y-50514612D01*
X183907626Y-50544749D01*
X184031712Y-50554795D01*
X184156598Y-50547489D01*
X184276461Y-50525571D01*
X184391301Y-50489041D01*
X184391301Y-49852055D01*
X184382511Y-49708219D01*
X184356142Y-49600000D01*
X184327119Y-49552055D01*
X184724178Y-49552055D01*
X184724178Y-50534247D01*
X184950205Y-50534247D01*
X184948927Y-50000000D01*
X185669384Y-50000000D01*
X185683539Y-50168493D01*
X185726005Y-50306849D01*
X185796781Y-50415068D01*
X185893356Y-50492694D01*
X186013219Y-50539269D01*
X186156370Y-50554795D01*
X186285308Y-50541952D01*
X186409110Y-50503425D01*
X186409110Y-50334932D01*
X186294041Y-50379623D01*
X186183082Y-50394521D01*
X186065445Y-50369863D01*
X185975548Y-50295890D01*
X185918527Y-50172603D01*
X185899521Y-50000000D01*
X185915959Y-49832277D01*
X185965274Y-49711301D01*
X186043870Y-49638099D01*
X186148151Y-49613699D01*
X186203630Y-49619863D01*
X186203630Y-49856164D01*
X186419384Y-49856164D01*
X186419384Y-49486301D01*
X186293014Y-49455479D01*
X186152260Y-49445205D01*
X186024150Y-49456528D01*
X185915749Y-49490495D01*
X185827058Y-49547107D01*
X185758075Y-49626363D01*
X185708802Y-49728264D01*
X185679238Y-49852810D01*
X185669384Y-50000000D01*
X184948927Y-50000000D01*
X184948151Y-49675342D01*
X185093584Y-49642237D01*
X185244954Y-49622374D01*
X185402260Y-49615753D01*
X185402260Y-49445205D01*
X185262041Y-49449479D01*
X185124123Y-49462301D01*
X184988507Y-49483671D01*
X184855192Y-49513589D01*
X184724178Y-49552055D01*
X184327119Y-49552055D01*
X184312192Y-49527397D01*
X184196353Y-49465753D01*
X184007055Y-49445205D01*
X183896553Y-49452511D01*
X183781484Y-49474429D01*
X183661849Y-49510959D01*
X183661849Y-49687671D01*
X183781027Y-49646575D01*
X183891986Y-49621918D01*
X183994726Y-49613699D01*
X184135479Y-49651712D01*
X184167329Y-49810959D01*
X184167329Y-49845890D01*
X184109795Y-49845890D01*
X183956712Y-49856279D01*
X183831712Y-49887443D01*
X183734795Y-49939384D01*
X183641558Y-50053682D01*
X183610479Y-50209589D01*
X182976051Y-50209589D01*
X183347466Y-49632192D01*
X183347466Y-49465753D01*
X182618014Y-49465753D01*
X182618014Y-49632192D01*
X182336507Y-49632192D01*
X182336507Y-49506849D01*
X181991301Y-49506849D01*
X181991301Y-49116438D01*
X181767329Y-49116438D01*
X181767329Y-49506849D01*
X181555685Y-49506849D01*
X181356432Y-49506849D01*
X181354890Y-49492466D01*
X181307301Y-49377397D01*
X181227986Y-49295205D01*
X181116945Y-49245890D01*
X180974178Y-49229452D01*
X180819612Y-49249886D01*
X180692900Y-49311187D01*
X180594041Y-49413356D01*
X180538305Y-49518985D01*
X180498493Y-49651969D01*
X180474606Y-49812307D01*
X180466644Y-50000000D01*
X179747466Y-50000000D01*
X179747466Y-49732877D01*
X180055685Y-49732877D01*
X180055685Y-49383562D01*
X179747466Y-49383562D01*
X179747466Y-49732877D01*
X179747466Y-50184932D01*
X179747466Y-50534247D01*
X179747466Y-51178082D01*
X179274863Y-51178082D01*
X177569384Y-51178082D01*
X177435822Y-51178082D01*
X177007740Y-51178082D01*
X176892267Y-51172409D01*
X176777907Y-51155446D01*
X176665761Y-51127354D01*
X176556907Y-51088406D01*
X176452396Y-51038976D01*
X176353232Y-50979540D01*
X176260372Y-50910670D01*
X176174710Y-50833030D01*
X176097070Y-50747367D01*
X176028200Y-50654507D01*
X175968764Y-50555344D01*
X175919334Y-50450833D01*
X175880385Y-50341979D01*
X175852294Y-50229832D01*
X175835330Y-50115472D01*
X175829658Y-50000000D01*
X175831172Y-49969178D01*
X177435822Y-49969178D01*
X177446781Y-50129281D01*
X177479658Y-50260274D01*
X177534452Y-50362158D01*
X177611164Y-50434932D01*
X177709795Y-50478596D01*
X177830342Y-50493151D01*
X177923836Y-50482877D01*
X178011164Y-50452055D01*
X178011164Y-50482877D01*
X177982654Y-50630822D01*
X177897123Y-50741781D01*
X177810023Y-50793151D01*
X177700776Y-50823973D01*
X177569384Y-50834247D01*
X177569384Y-51006849D01*
X177718806Y-50997603D01*
X177850634Y-50969863D01*
X177964867Y-50923630D01*
X178061507Y-50858904D01*
X178159110Y-50747945D01*
X178217671Y-50612329D01*
X178227181Y-50534247D01*
X178494041Y-50534247D01*
X178720068Y-50534247D01*
X178720068Y-49695890D01*
X178803801Y-49634247D01*
X178898836Y-49613699D01*
X179024178Y-49665068D01*
X179048836Y-49743664D01*
X179057055Y-49876712D01*
X179055000Y-50534247D01*
X179274863Y-50534247D01*
X179274863Y-49819178D01*
X179255856Y-49647860D01*
X179198836Y-49532534D01*
X179100205Y-49467038D01*
X178956370Y-49445205D01*
X178835651Y-49460616D01*
X178720068Y-49506849D01*
X178720068Y-48993151D01*
X178494041Y-48993151D01*
X178494041Y-50534247D01*
X178227181Y-50534247D01*
X178237192Y-50452055D01*
X178237192Y-49490411D01*
X178081027Y-49456507D01*
X177908425Y-49445205D01*
X177756826Y-49458676D01*
X177636279Y-49499087D01*
X177546781Y-49566438D01*
X177485137Y-49665068D01*
X177448151Y-49799315D01*
X177435822Y-49969178D01*
X175831172Y-49969178D01*
X175835330Y-49884528D01*
X175852294Y-49770168D01*
X175880385Y-49658021D01*
X175919334Y-49549167D01*
X175968764Y-49444656D01*
X176028200Y-49345493D01*
X176097070Y-49252633D01*
X176174710Y-49166970D01*
X176260372Y-49089330D01*
X176353232Y-49020460D01*
X176452396Y-48961024D01*
X176556907Y-48911594D01*
X176665761Y-48872646D01*
X176777907Y-48844554D01*
X176892267Y-48827591D01*
X177007740Y-48821918D01*
X177435822Y-48821918D01*
X196724178Y-48821918D01*
X197152260Y-48821918D01*
X197267733Y-48827591D01*
G37*
D13*
%TO.C,R13*%
X144696359Y-84320000D02*
X145003641Y-84320000D01*
X144696359Y-85080000D02*
X145003641Y-85080000D01*
%TO.C,C1*%
X178992164Y-54320000D02*
X179207836Y-54320000D01*
X178992164Y-55040000D02*
X179207836Y-55040000D01*
%TO.C,C23*%
X146940000Y-59892164D02*
X146940000Y-60107836D01*
X147660000Y-59892164D02*
X147660000Y-60107836D01*
%TO.C,SW15*%
X149450000Y-117725000D02*
X150250000Y-118525000D01*
X150250000Y-113875000D02*
X149450000Y-114675000D01*
X150250000Y-113875000D02*
X151250000Y-113875000D01*
X150250000Y-118525000D02*
X151250000Y-118525000D01*
X159254000Y-111725000D02*
X158254000Y-111725000D01*
X159254000Y-111725000D02*
X159254000Y-112425000D01*
X159000000Y-115575000D02*
G75*
G02*
X158200000Y-116375000I-800000J0D01*
G01*
%TO.C,C7*%
X127092164Y-102340000D02*
X127307836Y-102340000D01*
X127092164Y-103060000D02*
X127307836Y-103060000D01*
%TO.C,C24*%
X148640000Y-66892164D02*
X148640000Y-67107836D01*
X149360000Y-66892164D02*
X149360000Y-67107836D01*
D15*
%TO.C,D16*%
X137086803Y-104800000D02*
G75*
G02*
X136863197Y-104800000I-111803J0D01*
G01*
X136863197Y-104800000D02*
G75*
G02*
X137086803Y-104800000I111803J0D01*
G01*
D11*
%TO.C,U15*%
X144120000Y-81730000D02*
X145470000Y-81730000D01*
X144120000Y-83480000D02*
X145470000Y-83480000D01*
X145470000Y-82730000D02*
X145470000Y-82470000D01*
D12*
X143820000Y-81660000D02*
G75*
G02*
X143620000Y-81660000I-100000J0D01*
G01*
X143620000Y-81660000D02*
G75*
G02*
X143820000Y-81660000I100000J0D01*
G01*
D11*
%TO.C,U9*%
X184610000Y-60980000D02*
X184610000Y-59630000D01*
X185610000Y-59630000D02*
X185350000Y-59630000D01*
X186360000Y-60980000D02*
X186360000Y-59630000D01*
D12*
X184640000Y-61380000D02*
G75*
G02*
X184440000Y-61380000I-100000J0D01*
G01*
X184440000Y-61380000D02*
G75*
G02*
X184640000Y-61380000I100000J0D01*
G01*
D13*
%TO.C,SW9*%
X186450000Y-100225000D02*
X187250000Y-101025000D01*
X187250000Y-96375000D02*
X186450000Y-97175000D01*
X187250000Y-96375000D02*
X188250000Y-96375000D01*
X187250000Y-101025000D02*
X188250000Y-101025000D01*
X196254000Y-94225000D02*
X195254000Y-94225000D01*
X196254000Y-94225000D02*
X196254000Y-94925000D01*
X196000000Y-98075000D02*
G75*
G02*
X195200000Y-98875000I-800000J0D01*
G01*
%TO.C,C15*%
X147540000Y-78092164D02*
X147540000Y-78307836D01*
X148260000Y-78092164D02*
X148260000Y-78307836D01*
D10*
%TO.C,kibuzzard-677E65DF*%
G36*
X123777226Y-86934675D02*
G01*
X123854795Y-86983219D01*
X123901027Y-87066695D01*
X123916438Y-87187671D01*
X123900000Y-87314041D01*
X123850685Y-87397260D01*
X123762329Y-87443493D01*
X123628767Y-87458904D01*
X123548630Y-87458904D01*
X123548630Y-86934932D01*
X123667808Y-86918493D01*
X123777226Y-86934675D01*
G37*
G36*
X124609589Y-88431507D02*
G01*
X124181507Y-88431507D01*
X123318493Y-88431507D01*
X122890411Y-88431507D01*
X122890411Y-86780822D01*
X123318493Y-86780822D01*
X123318493Y-88260274D01*
X123548630Y-88260274D01*
X123548630Y-87637671D01*
X123628767Y-87637671D01*
X123753082Y-87677740D01*
X123792380Y-87735531D01*
X123826027Y-87828767D01*
X123945205Y-88260274D01*
X124181507Y-88260274D01*
X124054110Y-87841096D01*
X123988356Y-87679795D01*
X123910274Y-87578082D01*
X123910274Y-87573973D01*
X124010959Y-87515154D01*
X124082877Y-87431164D01*
X124126027Y-87322003D01*
X124140411Y-87187671D01*
X124127740Y-87046689D01*
X124089726Y-86933333D01*
X124026370Y-86847603D01*
X123935845Y-86787671D01*
X123816324Y-86751712D01*
X123667808Y-86739726D01*
X123549543Y-86744292D01*
X123433105Y-86757991D01*
X123318493Y-86780822D01*
X122890411Y-86780822D01*
X122890411Y-86568493D01*
X123318493Y-86568493D01*
X124181507Y-86568493D01*
X124609589Y-86568493D01*
X124609589Y-88431507D01*
G37*
D11*
%TO.C,U6*%
X159670000Y-54880000D02*
X159670000Y-53720000D01*
X162330000Y-54880000D02*
X162330000Y-53720000D01*
X160070000Y-55340000D02*
G75*
G02*
X159930000Y-55340000I-70000J0D01*
G01*
X159930000Y-55340000D02*
G75*
G02*
X160070000Y-55340000I70000J0D01*
G01*
D13*
%TO.C,J2*%
X159724000Y-102655000D02*
X160359000Y-102655000D01*
X159724000Y-103290000D02*
X159724000Y-102655000D01*
D16*
%TO.C,SW17*%
X124500000Y-84160000D02*
X124500000Y-84840000D01*
X124850000Y-84250000D02*
X124850000Y-84760000D01*
X124850000Y-84760000D02*
X125110000Y-84870000D01*
X125110000Y-84120000D02*
X124850000Y-84250000D01*
X126890000Y-84880000D02*
X127140000Y-84760000D01*
X126950000Y-83200000D02*
X125040000Y-83200000D01*
X126950000Y-85800000D02*
X125040000Y-85800000D01*
X127140000Y-84250000D02*
X126890000Y-84140000D01*
X127140000Y-84760000D02*
X127140000Y-84250000D01*
X127500000Y-84840000D02*
X127500000Y-84160000D01*
X125108616Y-84122377D02*
G75*
G02*
X126890000Y-84120000I891384J-517623D01*
G01*
X126891384Y-84867623D02*
G75*
G02*
X125110000Y-84870000I-891384J517623D01*
G01*
X126400000Y-84500000D02*
G75*
G02*
X125600000Y-84500000I-400000J0D01*
G01*
X125600000Y-84500000D02*
G75*
G02*
X126400000Y-84500000I400000J0D01*
G01*
D15*
%TO.C,D8*%
X137086803Y-69800000D02*
G75*
G02*
X136863197Y-69800000I-111803J0D01*
G01*
X136863197Y-69800000D02*
G75*
G02*
X137086803Y-69800000I111803J0D01*
G01*
D13*
%TO.C,C9*%
X160427836Y-69540000D02*
X160212164Y-69540000D01*
X160427836Y-70260000D02*
X160212164Y-70260000D01*
%TO.C,SW3*%
X149450000Y-65225000D02*
X150250000Y-66025000D01*
X150250000Y-61375000D02*
X149450000Y-62175000D01*
X150250000Y-61375000D02*
X151250000Y-61375000D01*
X150250000Y-66025000D02*
X151250000Y-66025000D01*
X159254000Y-59225000D02*
X158254000Y-59225000D01*
X159254000Y-59225000D02*
X159254000Y-59925000D01*
X159000000Y-63075000D02*
G75*
G02*
X158200000Y-63875000I-800000J0D01*
G01*
%TO.C,R9*%
X124777500Y-81637258D02*
X124777500Y-81162742D01*
X125822500Y-81637258D02*
X125822500Y-81162742D01*
D11*
%TO.C,U13*%
X147900000Y-60820000D02*
X147900000Y-59470000D01*
X148900000Y-59470000D02*
X148640000Y-59470000D01*
X149650000Y-60820000D02*
X149650000Y-59470000D01*
D12*
X147930000Y-61220000D02*
G75*
G02*
X147730000Y-61220000I-100000J0D01*
G01*
X147730000Y-61220000D02*
G75*
G02*
X147930000Y-61220000I100000J0D01*
G01*
D15*
%TO.C,D6*%
X174086803Y-69800000D02*
G75*
G02*
X173863197Y-69800000I-111803J0D01*
G01*
X173863197Y-69800000D02*
G75*
G02*
X174086803Y-69800000I111803J0D01*
G01*
D13*
%TO.C,C4*%
X194907836Y-67340000D02*
X194692164Y-67340000D01*
X194907836Y-68060000D02*
X194692164Y-68060000D01*
D15*
%TO.C,D9*%
X185136803Y-88800000D02*
G75*
G02*
X184913197Y-88800000I-111803J0D01*
G01*
X184913197Y-88800000D02*
G75*
G02*
X185136803Y-88800000I111803J0D01*
G01*
D13*
%TO.C,SW1*%
X186450000Y-65225000D02*
X187250000Y-66025000D01*
X187250000Y-61375000D02*
X186450000Y-62175000D01*
X187250000Y-61375000D02*
X188250000Y-61375000D01*
X187250000Y-66025000D02*
X188250000Y-66025000D01*
X196254000Y-59225000D02*
X195254000Y-59225000D01*
X196254000Y-59225000D02*
X196254000Y-59925000D01*
X196000000Y-63075000D02*
G75*
G02*
X195200000Y-63875000I-800000J0D01*
G01*
D16*
%TO.C,SW19*%
X124500000Y-87160000D02*
X124500000Y-87840000D01*
X124850000Y-87250000D02*
X124850000Y-87760000D01*
X124850000Y-87760000D02*
X125110000Y-87870000D01*
X125110000Y-87120000D02*
X124850000Y-87250000D01*
X126890000Y-87880000D02*
X127140000Y-87760000D01*
X126950000Y-86200000D02*
X125040000Y-86200000D01*
X126950000Y-88800000D02*
X125040000Y-88800000D01*
X127140000Y-87250000D02*
X126890000Y-87140000D01*
X127140000Y-87760000D02*
X127140000Y-87250000D01*
X127500000Y-87840000D02*
X127500000Y-87160000D01*
X125108616Y-87122377D02*
G75*
G02*
X126890000Y-87120000I891384J-517623D01*
G01*
X126891384Y-87867623D02*
G75*
G02*
X125110000Y-87870000I-891384J517623D01*
G01*
X126400000Y-87500000D02*
G75*
G02*
X125600000Y-87500000I-400000J0D01*
G01*
X125600000Y-87500000D02*
G75*
G02*
X126400000Y-87500000I400000J0D01*
G01*
D13*
%TO.C,R4*%
X161577500Y-64962742D02*
X161577500Y-65437258D01*
X162622500Y-64962742D02*
X162622500Y-65437258D01*
D11*
%TO.C,U16*%
X129370000Y-60840000D02*
X129370000Y-59490000D01*
X130370000Y-59490000D02*
X130110000Y-59490000D01*
X131120000Y-60840000D02*
X131120000Y-59490000D01*
D12*
X129400000Y-61240000D02*
G75*
G02*
X129200000Y-61240000I-100000J0D01*
G01*
X129200000Y-61240000D02*
G75*
G02*
X129400000Y-61240000I100000J0D01*
G01*
D15*
%TO.C,D11*%
X148136803Y-88800000D02*
G75*
G02*
X147913197Y-88800000I-111803J0D01*
G01*
X147913197Y-88800000D02*
G75*
G02*
X148136803Y-88800000I111803J0D01*
G01*
D13*
%TO.C,R12*%
X127680000Y-63823641D02*
X127680000Y-63516359D01*
X128440000Y-63823641D02*
X128440000Y-63516359D01*
%TO.C,R8*%
X166546359Y-65320000D02*
X166853641Y-65320000D01*
X166546359Y-66080000D02*
X166853641Y-66080000D01*
%TO.C,C20*%
X167692164Y-85540000D02*
X167907836Y-85540000D01*
X167692164Y-86260000D02*
X167907836Y-86260000D01*
D15*
%TO.C,D15*%
X155586803Y-104800000D02*
G75*
G02*
X155363197Y-104800000I-111803J0D01*
G01*
X155363197Y-104800000D02*
G75*
G02*
X155586803Y-104800000I111803J0D01*
G01*
D13*
%TO.C,D18*%
X128090000Y-83250000D02*
X128090000Y-84950000D01*
X128090000Y-83250000D02*
X130750000Y-83250000D01*
X128090000Y-84950000D02*
X130750000Y-84950000D01*
%TD*%
%LPC*%
D17*
%TO.C,U1*%
X178600000Y-57000000D03*
X179100000Y-57000000D03*
X179600000Y-57000000D03*
X179600000Y-55560000D03*
X178600000Y-55560000D03*
%TD*%
D18*
%TO.C,C21*%
X164760589Y-90060589D03*
X165439411Y-90739411D03*
%TD*%
D19*
%TO.C,C13*%
X175800000Y-66320000D03*
X175800000Y-67280000D03*
%TD*%
D20*
%TO.C,R5*%
X162100000Y-67375000D03*
X162100000Y-69025000D03*
%TD*%
D18*
%TO.C,C17*%
X165460589Y-89360589D03*
X166139411Y-90039411D03*
%TD*%
D21*
%TO.C,SW14*%
X164750000Y-110250000D03*
D22*
X170250000Y-110250000D03*
D21*
X175750000Y-110250000D03*
D23*
X175250000Y-114000000D03*
D24*
X178495000Y-114000000D03*
X167005000Y-116200000D03*
D23*
X170250000Y-116200000D03*
%TD*%
D21*
%TO.C,SW11*%
X146250000Y-92750000D03*
D22*
X151750000Y-92750000D03*
D21*
X157250000Y-92750000D03*
D23*
X156750000Y-96500000D03*
D24*
X159995000Y-96500000D03*
X148505000Y-98700000D03*
D23*
X151750000Y-98700000D03*
%TD*%
D25*
%TO.C,R7*%
X183600000Y-64210000D03*
X183600000Y-63190000D03*
%TD*%
%TO.C,R11*%
X146500000Y-64210000D03*
X146500000Y-63190000D03*
%TD*%
D26*
%TO.C,H4*%
X179500000Y-101500000D03*
%TD*%
D27*
%TO.C,U4*%
X158618000Y-68415500D03*
X160518000Y-68415500D03*
X159568000Y-66140500D03*
%TD*%
D28*
%TO.C,U3*%
X157300000Y-66650000D03*
X157300000Y-66000000D03*
X157300000Y-65350000D03*
X155300000Y-65350000D03*
X155300000Y-66000000D03*
X155300000Y-66650000D03*
D29*
X156300000Y-66000000D03*
%TD*%
D30*
%TO.C,U5*%
X141550000Y-57500000D03*
X142500000Y-57500000D03*
X143450000Y-57500000D03*
X143450000Y-54900000D03*
X141550000Y-54900000D03*
%TD*%
D21*
%TO.C,SW13*%
X183250000Y-110250000D03*
D22*
X188750000Y-110250000D03*
D21*
X194250000Y-110250000D03*
D23*
X193750000Y-114000000D03*
D24*
X196995000Y-114000000D03*
X185505000Y-116200000D03*
D23*
X188750000Y-116200000D03*
%TD*%
D31*
%TO.C,R3*%
X157715856Y-55099856D03*
X159784144Y-57168144D03*
%TD*%
D32*
%TO.C,D10*%
X167525000Y-88800000D03*
X167525000Y-87300000D03*
D33*
X172975000Y-87300000D03*
D32*
X172975000Y-88800000D03*
%TD*%
D34*
%TO.C,C6*%
X126720000Y-67700000D03*
X127680000Y-67700000D03*
%TD*%
%TO.C,C26*%
X132240000Y-60560000D03*
X133200000Y-60560000D03*
%TD*%
%TO.C,C12*%
X185020000Y-58750000D03*
X185980000Y-58750000D03*
%TD*%
D32*
%TO.C,D12*%
X130525000Y-88800000D03*
X130525000Y-87300000D03*
D33*
X135975000Y-87300000D03*
D32*
X135975000Y-88800000D03*
%TD*%
D35*
%TO.C,D17*%
X157130000Y-52832000D03*
X157830000Y-52832000D03*
%TD*%
D36*
%TO.C,C19*%
X126700000Y-81880000D03*
X126700000Y-80920000D03*
%TD*%
%TO.C,C27*%
X128600000Y-86467000D03*
X128600000Y-85507000D03*
%TD*%
%TO.C,C11*%
X176050000Y-84230000D03*
X176050000Y-83270000D03*
%TD*%
D21*
%TO.C,SW5*%
X183250000Y-75250000D03*
D22*
X188750000Y-75250000D03*
D21*
X194250000Y-75250000D03*
D23*
X193750000Y-79000000D03*
D24*
X196995000Y-79000000D03*
X185505000Y-81200000D03*
D23*
X188750000Y-81200000D03*
%TD*%
D37*
%TO.C,R1*%
X158990000Y-71400000D03*
X160010000Y-71400000D03*
%TD*%
D17*
%TO.C,U11*%
X166550000Y-60920000D03*
X167050000Y-60920000D03*
X167550000Y-60920000D03*
X167550000Y-59480000D03*
X166550000Y-59480000D03*
%TD*%
D38*
%TO.C,C5*%
X195180000Y-102700000D03*
X194220000Y-102700000D03*
%TD*%
D34*
%TO.C,C8*%
X159820000Y-64600000D03*
X160780000Y-64600000D03*
%TD*%
D39*
%TO.C,D7*%
X154475000Y-69800000D03*
X154475000Y-71300000D03*
D40*
X149025000Y-71300000D03*
D39*
X149025000Y-69800000D03*
%TD*%
D21*
%TO.C,SW10*%
X164750000Y-92750000D03*
D22*
X170250000Y-92750000D03*
D21*
X175750000Y-92750000D03*
D23*
X175250000Y-96500000D03*
D24*
X178495000Y-96500000D03*
X167005000Y-98700000D03*
D23*
X170250000Y-98700000D03*
%TD*%
D38*
%TO.C,C18*%
X155240000Y-84800000D03*
X154280000Y-84800000D03*
%TD*%
D32*
%TO.C,D3*%
X149025000Y-53800000D03*
X149025000Y-52300000D03*
D33*
X154475000Y-52300000D03*
D32*
X154475000Y-53800000D03*
%TD*%
D19*
%TO.C,C14*%
X165600000Y-59720000D03*
X165600000Y-60680000D03*
%TD*%
D41*
%TO.C,U8*%
X177595000Y-91087500D03*
X178865000Y-91087500D03*
X180135000Y-91087500D03*
X181405000Y-91087500D03*
X181405000Y-83912500D03*
X180135000Y-83912500D03*
X178865000Y-83912500D03*
X177595000Y-83912500D03*
%TD*%
D26*
%TO.C,H1*%
X142500000Y-66500000D03*
%TD*%
D21*
%TO.C,SW16*%
X127750000Y-110250000D03*
D22*
X133250000Y-110250000D03*
D21*
X138750000Y-110250000D03*
D23*
X138250000Y-114000000D03*
D24*
X141495000Y-114000000D03*
X130005000Y-116200000D03*
D23*
X133250000Y-116200000D03*
%TD*%
D21*
%TO.C,SW6*%
X164750000Y-75250000D03*
D22*
X170250000Y-75250000D03*
D21*
X175750000Y-75250000D03*
D23*
X175250000Y-79000000D03*
D24*
X178495000Y-79000000D03*
X167005000Y-81200000D03*
D23*
X170250000Y-81200000D03*
%TD*%
D42*
%TO.C,U10*%
X173280000Y-66300000D03*
X173280000Y-66800000D03*
X173280000Y-67300000D03*
X174720000Y-67300000D03*
X174720000Y-66300000D03*
%TD*%
D38*
%TO.C,C3*%
X156080000Y-67700000D03*
X155120000Y-67700000D03*
%TD*%
D36*
%TO.C,C16*%
X162110000Y-80180000D03*
X162110000Y-79220000D03*
%TD*%
D32*
%TO.C,D2*%
X167525000Y-53800000D03*
X167525000Y-52300000D03*
D33*
X172975000Y-52300000D03*
D32*
X172975000Y-53800000D03*
%TD*%
D26*
%TO.C,H3*%
X142500000Y-101500000D03*
%TD*%
D43*
%TO.C,R2*%
X157700000Y-71725000D03*
X157700000Y-70075000D03*
%TD*%
D34*
%TO.C,C2*%
X180820000Y-54580000D03*
X181780000Y-54580000D03*
%TD*%
D42*
%TO.C,U12*%
X145460000Y-77700000D03*
X145460000Y-78200000D03*
X145460000Y-78700000D03*
X146900000Y-78700000D03*
X146900000Y-77700000D03*
%TD*%
D44*
%TO.C,SW18*%
X124500000Y-77350000D03*
X127500000Y-77350000D03*
X127500000Y-79150000D03*
X124500000Y-79150000D03*
%TD*%
D37*
%TO.C,R6*%
X177690000Y-92700000D03*
X178710000Y-92700000D03*
%TD*%
D21*
%TO.C,SW7*%
X146250000Y-75250000D03*
D22*
X151750000Y-75250000D03*
D21*
X157250000Y-75250000D03*
D23*
X156750000Y-79000000D03*
D24*
X159995000Y-79000000D03*
X148505000Y-81200000D03*
D23*
X151750000Y-81200000D03*
%TD*%
D45*
%TO.C,U7*%
X156599554Y-86486136D03*
X156953107Y-86839689D03*
X157306661Y-87193243D03*
X157660214Y-87546796D03*
X158013767Y-87900349D03*
X158367321Y-88253903D03*
X158720874Y-88607456D03*
X159074428Y-88961010D03*
X159427981Y-89314563D03*
X159781534Y-89668116D03*
X160135088Y-90021670D03*
X160488641Y-90375223D03*
D46*
X161460913Y-90375223D03*
X161814466Y-90021670D03*
X162168020Y-89668116D03*
X162521573Y-89314563D03*
X162875126Y-88961010D03*
X163228680Y-88607456D03*
X163582233Y-88253903D03*
X163935787Y-87900349D03*
X164289340Y-87546796D03*
X164642893Y-87193243D03*
X164996447Y-86839689D03*
X165350000Y-86486136D03*
D45*
X165350000Y-85513864D03*
X164996447Y-85160311D03*
X164642893Y-84806757D03*
X164289340Y-84453204D03*
X163935787Y-84099651D03*
X163582233Y-83746097D03*
X163228680Y-83392544D03*
X162875126Y-83038990D03*
X162521573Y-82685437D03*
X162168020Y-82331884D03*
X161814466Y-81978330D03*
X161460913Y-81624777D03*
D46*
X160488641Y-81624777D03*
X160135088Y-81978330D03*
X159781534Y-82331884D03*
X159427981Y-82685437D03*
X159074428Y-83038990D03*
X158720874Y-83392544D03*
X158367321Y-83746097D03*
X158013767Y-84099651D03*
X157660214Y-84453204D03*
X157306661Y-84806757D03*
X156953107Y-85160311D03*
X156599554Y-85513864D03*
D47*
X160974777Y-86000000D03*
%TD*%
D21*
%TO.C,SW12*%
X127750000Y-92750000D03*
D22*
X133250000Y-92750000D03*
D21*
X138750000Y-92750000D03*
D23*
X138250000Y-96500000D03*
D24*
X141495000Y-96500000D03*
X130005000Y-98700000D03*
D23*
X133250000Y-98700000D03*
%TD*%
D39*
%TO.C,D14*%
X172975000Y-104800000D03*
X172975000Y-106300000D03*
D40*
X167525000Y-106300000D03*
D39*
X167525000Y-104800000D03*
%TD*%
%TO.C,D13*%
X191475000Y-104800000D03*
X191475000Y-106300000D03*
D40*
X186025000Y-106300000D03*
D39*
X186025000Y-104800000D03*
%TD*%
D26*
%TO.C,H2*%
X179500000Y-66500000D03*
%TD*%
D19*
%TO.C,C10*%
X140300000Y-54720000D03*
X140300000Y-55680000D03*
%TD*%
D48*
%TO.C,R10*%
X144380000Y-77690000D03*
X144380000Y-78710000D03*
%TD*%
D32*
%TO.C,D4*%
X130525000Y-53800000D03*
X130525000Y-52300000D03*
D33*
X135975000Y-52300000D03*
D32*
X135975000Y-53800000D03*
%TD*%
D42*
%TO.C,U14*%
X146480000Y-66600000D03*
X146480000Y-67100000D03*
X146480000Y-67600000D03*
X147920000Y-67600000D03*
X147920000Y-66600000D03*
%TD*%
D17*
%TO.C,U2*%
X180800000Y-57000000D03*
X181300000Y-57000000D03*
X181800000Y-57000000D03*
X181800000Y-55560000D03*
X180800000Y-55560000D03*
%TD*%
D32*
%TO.C,D1*%
X186025000Y-53800000D03*
X186025000Y-52300000D03*
D33*
X191475000Y-52300000D03*
D32*
X191475000Y-53800000D03*
%TD*%
D21*
%TO.C,SW2*%
X164750000Y-57750000D03*
D22*
X170250000Y-57750000D03*
D21*
X175750000Y-57750000D03*
D23*
X175250000Y-61500000D03*
D24*
X178495000Y-61500000D03*
X167005000Y-63700000D03*
D23*
X170250000Y-63700000D03*
%TD*%
D19*
%TO.C,C22*%
X156310000Y-88140000D03*
X156310000Y-89100000D03*
%TD*%
D36*
%TO.C,C25*%
X145550000Y-81230000D03*
X145550000Y-80270000D03*
%TD*%
D21*
%TO.C,SW8*%
X127750000Y-75250000D03*
D22*
X133250000Y-75250000D03*
D21*
X138750000Y-75250000D03*
D23*
X138250000Y-79000000D03*
D24*
X141495000Y-79000000D03*
X130005000Y-81200000D03*
D23*
X133250000Y-81200000D03*
%TD*%
D39*
%TO.C,D5*%
X191475000Y-69800000D03*
X191475000Y-71300000D03*
D40*
X186025000Y-71300000D03*
D39*
X186025000Y-69800000D03*
%TD*%
D21*
%TO.C,SW4*%
X127750000Y-57750000D03*
D22*
X133250000Y-57750000D03*
D21*
X138750000Y-57750000D03*
D23*
X138250000Y-61500000D03*
D24*
X141495000Y-61500000D03*
X130005000Y-63700000D03*
D23*
X133250000Y-63700000D03*
%TD*%
D49*
%TO.C,J1*%
X163890000Y-49500000D03*
X158110000Y-49500000D03*
D50*
X164250000Y-50945000D03*
X163450000Y-50945000D03*
D51*
X162250000Y-50945000D03*
X161250000Y-50945000D03*
X160750000Y-50945000D03*
X159750000Y-50945000D03*
D50*
X158550000Y-50945000D03*
X157750000Y-50945000D03*
X157750000Y-50945000D03*
X158550000Y-50945000D03*
D51*
X159250000Y-50945000D03*
X160250000Y-50945000D03*
X161750000Y-50945000D03*
X162750000Y-50945000D03*
D50*
X163450000Y-50945000D03*
X164250000Y-50945000D03*
D52*
X165320000Y-50030000D03*
D53*
X165320000Y-45850000D03*
D52*
X156680000Y-50030000D03*
D53*
X156680000Y-45850000D03*
%TD*%
D37*
%TO.C,R13*%
X144340000Y-84700000D03*
X145360000Y-84700000D03*
%TD*%
D34*
%TO.C,C1*%
X178620000Y-54680000D03*
X179580000Y-54680000D03*
%TD*%
D19*
%TO.C,C23*%
X147300000Y-59520000D03*
X147300000Y-60480000D03*
%TD*%
D21*
%TO.C,SW15*%
X146250000Y-110250000D03*
D22*
X151750000Y-110250000D03*
D21*
X157250000Y-110250000D03*
D23*
X156750000Y-114000000D03*
D24*
X159995000Y-114000000D03*
X148505000Y-116200000D03*
D23*
X151750000Y-116200000D03*
%TD*%
D34*
%TO.C,C7*%
X126720000Y-102700000D03*
X127680000Y-102700000D03*
%TD*%
D19*
%TO.C,C24*%
X149000000Y-66520000D03*
X149000000Y-67480000D03*
%TD*%
D39*
%TO.C,D16*%
X135975000Y-104800000D03*
X135975000Y-106300000D03*
D40*
X130525000Y-106300000D03*
D39*
X130525000Y-104800000D03*
%TD*%
D42*
%TO.C,U15*%
X144080000Y-82100000D03*
X144080000Y-82600000D03*
X144080000Y-83100000D03*
X145520000Y-83100000D03*
X145520000Y-82100000D03*
%TD*%
D17*
%TO.C,U9*%
X184980000Y-61020000D03*
X185480000Y-61020000D03*
X185980000Y-61020000D03*
X185980000Y-59580000D03*
X184980000Y-59580000D03*
%TD*%
D21*
%TO.C,SW9*%
X183250000Y-92750000D03*
D22*
X188750000Y-92750000D03*
D21*
X194250000Y-92750000D03*
D23*
X193750000Y-96500000D03*
D24*
X196995000Y-96500000D03*
X185505000Y-98700000D03*
D23*
X188750000Y-98700000D03*
%TD*%
D19*
%TO.C,C15*%
X147900000Y-77720000D03*
X147900000Y-78680000D03*
%TD*%
D54*
%TO.C,U6*%
X160000000Y-54730000D03*
X160500001Y-54730000D03*
D55*
X161000000Y-54730000D03*
D54*
X161499999Y-54730000D03*
X162000000Y-54730000D03*
X162000000Y-53870000D03*
X161499999Y-53870000D03*
D55*
X161000000Y-53870000D03*
D54*
X160500001Y-53870000D03*
X160000000Y-53870000D03*
%TD*%
D56*
%TO.C,J2*%
X163534000Y-102020000D03*
D57*
X160994000Y-102020000D03*
D56*
X158454000Y-102020000D03*
X163534000Y-105195000D03*
X158454000Y-105195000D03*
D57*
X162010000Y-107100000D03*
X159978000Y-107100000D03*
D58*
X160359000Y-103290000D03*
X161629000Y-103290000D03*
X160359000Y-104560000D03*
X161629000Y-104560000D03*
X160359000Y-105830000D03*
X161629000Y-105830000D03*
%TD*%
D44*
%TO.C,SW17*%
X124500000Y-83600000D03*
X127500000Y-83600000D03*
X127500000Y-85400000D03*
X124500000Y-85400000D03*
%TD*%
D39*
%TO.C,D8*%
X135975000Y-69800000D03*
X135975000Y-71300000D03*
D40*
X130525000Y-71300000D03*
D39*
X130525000Y-69800000D03*
%TD*%
D38*
%TO.C,C9*%
X160800000Y-69900000D03*
X159840000Y-69900000D03*
%TD*%
D21*
%TO.C,SW3*%
X146250000Y-57750000D03*
D22*
X151750000Y-57750000D03*
D21*
X157250000Y-57750000D03*
D23*
X156750000Y-61500000D03*
D24*
X159995000Y-61500000D03*
X148505000Y-63700000D03*
D23*
X151750000Y-63700000D03*
%TD*%
D43*
%TO.C,R9*%
X125300000Y-82225000D03*
X125300000Y-80575000D03*
%TD*%
D17*
%TO.C,U13*%
X148270000Y-60860000D03*
X148770000Y-60860000D03*
X149270000Y-60860000D03*
X149270000Y-59420000D03*
X148270000Y-59420000D03*
%TD*%
D39*
%TO.C,D6*%
X172975000Y-69800000D03*
X172975000Y-71300000D03*
D40*
X167525000Y-71300000D03*
D39*
X167525000Y-69800000D03*
%TD*%
D38*
%TO.C,C4*%
X195280000Y-67700000D03*
X194320000Y-67700000D03*
%TD*%
D32*
%TO.C,D9*%
X186025000Y-88800000D03*
X186025000Y-87300000D03*
D33*
X191475000Y-87300000D03*
D32*
X191475000Y-88800000D03*
%TD*%
D21*
%TO.C,SW1*%
X183250000Y-57750000D03*
D22*
X188750000Y-57750000D03*
D21*
X194250000Y-57750000D03*
D23*
X193750000Y-61500000D03*
D24*
X196995000Y-61500000D03*
X185505000Y-63700000D03*
D23*
X188750000Y-63700000D03*
%TD*%
D44*
%TO.C,SW19*%
X124500000Y-86600000D03*
X127500000Y-86600000D03*
X127500000Y-88400000D03*
X124500000Y-88400000D03*
%TD*%
D20*
%TO.C,R4*%
X162100000Y-64375000D03*
X162100000Y-66025000D03*
%TD*%
D17*
%TO.C,U16*%
X129740000Y-60880000D03*
X130240000Y-60880000D03*
X130740000Y-60880000D03*
X130740000Y-59440000D03*
X129740000Y-59440000D03*
%TD*%
D32*
%TO.C,D11*%
X149025000Y-88800000D03*
X149025000Y-87300000D03*
D33*
X154475000Y-87300000D03*
D32*
X154475000Y-88800000D03*
%TD*%
D25*
%TO.C,R12*%
X128060000Y-64180000D03*
X128060000Y-63160000D03*
%TD*%
D37*
%TO.C,R8*%
X166190000Y-65700000D03*
X167210000Y-65700000D03*
%TD*%
D34*
%TO.C,C20*%
X167320000Y-85900000D03*
X168280000Y-85900000D03*
%TD*%
D39*
%TO.C,D15*%
X154475000Y-104800000D03*
X154475000Y-106300000D03*
D40*
X149025000Y-106300000D03*
D39*
X149025000Y-104800000D03*
%TD*%
D59*
%TO.C,D18*%
X128650000Y-84100000D03*
X130750000Y-84100000D03*
%TD*%
%LPD*%
M02*
