G04 #@! TF.GenerationSoftware,KiCad,Pcbnew,(5.1.7)-1*
G04 #@! TF.CreationDate,2020-10-07T08:34:40+11:00*
G04 #@! TF.ProjectId,Djinn,446a696e-6e2e-46b6-9963-61645f706362,rev?*
G04 #@! TF.SameCoordinates,Original*
G04 #@! TF.FileFunction,Soldermask,Bot*
G04 #@! TF.FilePolarity,Negative*
%FSLAX46Y46*%
G04 Gerber Fmt 4.6, Leading zero omitted, Abs format (unit mm)*
G04 Created by KiCad (PCBNEW (5.1.7)-1) date 2020-10-07 08:34:40*
%MOMM*%
%LPD*%
G01*
G04 APERTURE LIST*
%ADD10C,7.000000*%
%ADD11O,0.820000X1.800000*%
%ADD12C,2.000000*%
%ADD13R,3.200000X2.000000*%
%ADD14C,1.200000*%
%ADD15C,3.300000*%
%ADD16C,1.600000*%
%ADD17C,0.152400*%
%ADD18O,0.650000X1.060000*%
%ADD19O,1.000000X2.100000*%
%ADD20O,1.000000X1.600000*%
%ADD21R,0.570000X2.450000*%
%ADD22R,0.300000X2.450000*%
%ADD23C,0.650000*%
%ADD24O,1.060000X0.650000*%
%ADD25C,1.500000*%
%ADD26C,1.750000*%
%ADD27C,3.987800*%
%ADD28C,1.800000*%
G04 APERTURE END LIST*
D10*
X46966766Y19525432D03*
X99473603Y-123894915D03*
X163167435Y-90487880D03*
X34774198Y-90761447D03*
X163167435Y-11906299D03*
X111919220Y-2381261D03*
X130969300Y-2381260D03*
X85949668Y-81650102D03*
X-3381700Y15104253D03*
X-18267752Y-69318746D03*
X118708259Y-73245522D03*
X70919102Y-118896720D03*
X132900881Y-114300480D03*
G36*
G01*
X119128712Y-119882894D02*
X119128712Y-119882894D01*
G75*
G02*
X118846721Y-120389531I-394314J-112323D01*
G01*
X117904215Y-120658011D01*
G75*
G02*
X117397578Y-120376020I-112323J394314D01*
G01*
X117397578Y-120376020D01*
G75*
G02*
X117679569Y-119869383I394314J112323D01*
G01*
X118622075Y-119600903D01*
G75*
G02*
X119128712Y-119882894I112323J-394314D01*
G01*
G37*
G36*
G01*
X118778045Y-118651865D02*
X118778045Y-118651865D01*
G75*
G02*
X118496054Y-119158502I-394314J-112323D01*
G01*
X117553548Y-119426982D01*
G75*
G02*
X117046911Y-119144991I-112323J394314D01*
G01*
X117046911Y-119144991D01*
G75*
G02*
X117328902Y-118638354I394314J112323D01*
G01*
X118271408Y-118369874D01*
G75*
G02*
X118778045Y-118651865I112323J-394314D01*
G01*
G37*
G36*
G01*
X113584642Y-120131244D02*
X113584642Y-120131244D01*
G75*
G02*
X113302651Y-120637881I-394314J-112323D01*
G01*
X112360145Y-120906361D01*
G75*
G02*
X111853508Y-120624370I-112323J394314D01*
G01*
X111853508Y-120624370D01*
G75*
G02*
X112135499Y-120117733I394314J112323D01*
G01*
X113078005Y-119849253D01*
G75*
G02*
X113584642Y-120131244I112323J-394314D01*
G01*
G37*
G36*
G01*
X113935309Y-121362273D02*
X113935309Y-121362273D01*
G75*
G02*
X113653318Y-121868910I-394314J-112323D01*
G01*
X112710812Y-122137390D01*
G75*
G02*
X112204175Y-121855399I-112323J394314D01*
G01*
X112204175Y-121855399D01*
G75*
G02*
X112486166Y-121348762I394314J112323D01*
G01*
X113428672Y-121080282D01*
G75*
G02*
X113935309Y-121362273I112323J-394314D01*
G01*
G37*
G36*
G01*
X151997893Y-100570414D02*
X151997893Y-100570414D01*
G75*
G02*
X151947358Y-101148035I-314078J-263543D01*
G01*
X151196634Y-101777967D01*
G75*
G02*
X150619013Y-101727432I-263543J314078D01*
G01*
X150619013Y-101727432D01*
G75*
G02*
X150669548Y-101149811I314078J263543D01*
G01*
X151420272Y-100519879D01*
G75*
G02*
X151997893Y-100570414I263543J-314078D01*
G01*
G37*
G36*
G01*
X151175125Y-99589877D02*
X151175125Y-99589877D01*
G75*
G02*
X151124590Y-100167498I-314078J-263543D01*
G01*
X150373866Y-100797430D01*
G75*
G02*
X149796245Y-100746895I-263543J314078D01*
G01*
X149796245Y-100746895D01*
G75*
G02*
X149846780Y-100169274I314078J263543D01*
G01*
X150597504Y-99539342D01*
G75*
G02*
X151175125Y-99589877I263543J-314078D01*
G01*
G37*
G36*
G01*
X147038485Y-103060930D02*
X147038485Y-103060930D01*
G75*
G02*
X146987950Y-103638551I-314078J-263543D01*
G01*
X146237226Y-104268483D01*
G75*
G02*
X145659605Y-104217948I-263543J314078D01*
G01*
X145659605Y-104217948D01*
G75*
G02*
X145710140Y-103640327I314078J263543D01*
G01*
X146460864Y-103010395D01*
G75*
G02*
X147038485Y-103060930I263543J-314078D01*
G01*
G37*
G36*
G01*
X147861253Y-104041467D02*
X147861253Y-104041467D01*
G75*
G02*
X147810718Y-104619088I-314078J-263543D01*
G01*
X147059994Y-105249020D01*
G75*
G02*
X146482373Y-105198485I-263543J314078D01*
G01*
X146482373Y-105198485D01*
G75*
G02*
X146532908Y-104620864I314078J263543D01*
G01*
X147283632Y-103990932D01*
G75*
G02*
X147861253Y-104041467I263543J-314078D01*
G01*
G37*
G36*
G01*
X-2518977Y-73883842D02*
X-2518977Y-73883842D01*
G75*
G02*
X-2993944Y-74216417I-403771J71196D01*
G01*
X-3959056Y-74046241D01*
G75*
G02*
X-4291631Y-73571274I71196J403771D01*
G01*
X-4291631Y-73571274D01*
G75*
G02*
X-3816664Y-73238699I403771J-71196D01*
G01*
X-2851552Y-73408875D01*
G75*
G02*
X-2518977Y-73883842I-71196J-403771D01*
G01*
G37*
G36*
G01*
X-2296707Y-72623288D02*
X-2296707Y-72623288D01*
G75*
G02*
X-2771674Y-72955863I-403771J71196D01*
G01*
X-3736786Y-72785687D01*
G75*
G02*
X-4069361Y-72310720I71196J403771D01*
G01*
X-4069361Y-72310720D01*
G75*
G02*
X-3594394Y-71978145I403771J-71196D01*
G01*
X-2629282Y-72148321D01*
G75*
G02*
X-2296707Y-72623288I-71196J-403771D01*
G01*
G37*
G36*
G01*
X-7614669Y-71685588D02*
X-7614669Y-71685588D01*
G75*
G02*
X-8089636Y-72018163I-403771J71196D01*
G01*
X-9054748Y-71847987D01*
G75*
G02*
X-9387323Y-71373020I71196J403771D01*
G01*
X-9387323Y-71373020D01*
G75*
G02*
X-8912356Y-71040445I403771J-71196D01*
G01*
X-7947244Y-71210621D01*
G75*
G02*
X-7614669Y-71685588I-71196J-403771D01*
G01*
G37*
G36*
G01*
X-7836939Y-72946142D02*
X-7836939Y-72946142D01*
G75*
G02*
X-8311906Y-73278717I-403771J71196D01*
G01*
X-9277018Y-73108541D01*
G75*
G02*
X-9609593Y-72633574I71196J403771D01*
G01*
X-9609593Y-72633574D01*
G75*
G02*
X-9134626Y-72300999I403771J-71196D01*
G01*
X-8169514Y-72471175D01*
G75*
G02*
X-7836939Y-72946142I-71196J-403771D01*
G01*
G37*
G36*
G01*
X24865513Y-78646363D02*
X24865513Y-78646363D01*
G75*
G02*
X24390546Y-78978938I-403771J71196D01*
G01*
X23425434Y-78808762D01*
G75*
G02*
X23092859Y-78333795I71196J403771D01*
G01*
X23092859Y-78333795D01*
G75*
G02*
X23567826Y-78001220I403771J-71196D01*
G01*
X24532938Y-78171396D01*
G75*
G02*
X24865513Y-78646363I-71196J-403771D01*
G01*
G37*
G36*
G01*
X25087783Y-77385809D02*
X25087783Y-77385809D01*
G75*
G02*
X24612816Y-77718384I-403771J71196D01*
G01*
X23647704Y-77548208D01*
G75*
G02*
X23315129Y-77073241I71196J403771D01*
G01*
X23315129Y-77073241D01*
G75*
G02*
X23790096Y-76740666I403771J-71196D01*
G01*
X24755208Y-76910842D01*
G75*
G02*
X25087783Y-77385809I-71196J-403771D01*
G01*
G37*
G36*
G01*
X19769821Y-76448109D02*
X19769821Y-76448109D01*
G75*
G02*
X19294854Y-76780684I-403771J71196D01*
G01*
X18329742Y-76610508D01*
G75*
G02*
X17997167Y-76135541I71196J403771D01*
G01*
X17997167Y-76135541D01*
G75*
G02*
X18472134Y-75802966I403771J-71196D01*
G01*
X19437246Y-75973142D01*
G75*
G02*
X19769821Y-76448109I-71196J-403771D01*
G01*
G37*
G36*
G01*
X19547551Y-77708663D02*
X19547551Y-77708663D01*
G75*
G02*
X19072584Y-78041238I-403771J71196D01*
G01*
X18107472Y-77871062D01*
G75*
G02*
X17774897Y-77396095I71196J403771D01*
G01*
X17774897Y-77396095D01*
G75*
G02*
X18249864Y-77063520I403771J-71196D01*
G01*
X19214976Y-77233696D01*
G75*
G02*
X19547551Y-77708663I-71196J-403771D01*
G01*
G37*
G36*
G01*
X47686756Y-102733630D02*
X47686756Y-102733630D01*
G75*
G02*
X47111251Y-102804293I-323084J252421D01*
G01*
X46339001Y-102200945D01*
G75*
G02*
X46268338Y-101625440I252421J323084D01*
G01*
X46268338Y-101625440D01*
G75*
G02*
X46843843Y-101554777I323084J-252421D01*
G01*
X47616093Y-102158125D01*
G75*
G02*
X47686756Y-102733630I-252421J-323084D01*
G01*
G37*
G36*
G01*
X48474802Y-101724976D02*
X48474802Y-101724976D01*
G75*
G02*
X47899297Y-101795639I-323084J252421D01*
G01*
X47127047Y-101192291D01*
G75*
G02*
X47056384Y-100616786I252421J323084D01*
G01*
X47056384Y-100616786D01*
G75*
G02*
X47631889Y-100546123I323084J-252421D01*
G01*
X48404139Y-101149471D01*
G75*
G02*
X48474802Y-101724976I-252421J-323084D01*
G01*
G37*
G36*
G01*
X44219544Y-98400404D02*
X44219544Y-98400404D01*
G75*
G02*
X43644039Y-98471067I-323084J252421D01*
G01*
X42871789Y-97867719D01*
G75*
G02*
X42801126Y-97292214I252421J323084D01*
G01*
X42801126Y-97292214D01*
G75*
G02*
X43376631Y-97221551I323084J-252421D01*
G01*
X44148881Y-97824899D01*
G75*
G02*
X44219544Y-98400404I-252421J-323084D01*
G01*
G37*
G36*
G01*
X43431498Y-99409058D02*
X43431498Y-99409058D01*
G75*
G02*
X42855993Y-99479721I-323084J252421D01*
G01*
X42083743Y-98876373D01*
G75*
G02*
X42013080Y-98300868I252421J323084D01*
G01*
X42013080Y-98300868D01*
G75*
G02*
X42588585Y-98230205I323084J-252421D01*
G01*
X43360835Y-98833553D01*
G75*
G02*
X43431498Y-99409058I-252421J-323084D01*
G01*
G37*
G36*
G01*
X63164945Y-114639930D02*
X63164945Y-114639930D01*
G75*
G02*
X62589440Y-114710593I-323084J252421D01*
G01*
X61817190Y-114107245D01*
G75*
G02*
X61746527Y-113531740I252421J323084D01*
G01*
X61746527Y-113531740D01*
G75*
G02*
X62322032Y-113461077I323084J-252421D01*
G01*
X63094282Y-114064425D01*
G75*
G02*
X63164945Y-114639930I-252421J-323084D01*
G01*
G37*
G36*
G01*
X63952991Y-113631276D02*
X63952991Y-113631276D01*
G75*
G02*
X63377486Y-113701939I-323084J252421D01*
G01*
X62605236Y-113098591D01*
G75*
G02*
X62534573Y-112523086I252421J323084D01*
G01*
X62534573Y-112523086D01*
G75*
G02*
X63110078Y-112452423I323084J-252421D01*
G01*
X63882328Y-113055771D01*
G75*
G02*
X63952991Y-113631276I-252421J-323084D01*
G01*
G37*
G36*
G01*
X59697733Y-110306704D02*
X59697733Y-110306704D01*
G75*
G02*
X59122228Y-110377367I-323084J252421D01*
G01*
X58349978Y-109774019D01*
G75*
G02*
X58279315Y-109198514I252421J323084D01*
G01*
X58279315Y-109198514D01*
G75*
G02*
X58854820Y-109127851I323084J-252421D01*
G01*
X59627070Y-109731199D01*
G75*
G02*
X59697733Y-110306704I-252421J-323084D01*
G01*
G37*
G36*
G01*
X58909687Y-111315358D02*
X58909687Y-111315358D01*
G75*
G02*
X58334182Y-111386021I-323084J252421D01*
G01*
X57561932Y-110782673D01*
G75*
G02*
X57491269Y-110207168I252421J323084D01*
G01*
X57491269Y-110207168D01*
G75*
G02*
X58066774Y-110136505I323084J-252421D01*
G01*
X58839024Y-110739853D01*
G75*
G02*
X58909687Y-111315358I-252421J-323084D01*
G01*
G37*
G36*
G01*
X89159533Y-123890301D02*
X89159533Y-123890301D01*
G75*
G02*
X88684566Y-124222876I-403771J71196D01*
G01*
X87719454Y-124052700D01*
G75*
G02*
X87386879Y-123577733I71196J403771D01*
G01*
X87386879Y-123577733D01*
G75*
G02*
X87861846Y-123245158I403771J-71196D01*
G01*
X88826958Y-123415334D01*
G75*
G02*
X89159533Y-123890301I-71196J-403771D01*
G01*
G37*
G36*
G01*
X89381803Y-122629747D02*
X89381803Y-122629747D01*
G75*
G02*
X88906836Y-122962322I-403771J71196D01*
G01*
X87941724Y-122792146D01*
G75*
G02*
X87609149Y-122317179I71196J403771D01*
G01*
X87609149Y-122317179D01*
G75*
G02*
X88084116Y-121984604I403771J-71196D01*
G01*
X89049228Y-122154780D01*
G75*
G02*
X89381803Y-122629747I-71196J-403771D01*
G01*
G37*
G36*
G01*
X84063841Y-121692047D02*
X84063841Y-121692047D01*
G75*
G02*
X83588874Y-122024622I-403771J71196D01*
G01*
X82623762Y-121854446D01*
G75*
G02*
X82291187Y-121379479I71196J403771D01*
G01*
X82291187Y-121379479D01*
G75*
G02*
X82766154Y-121046904I403771J-71196D01*
G01*
X83731266Y-121217080D01*
G75*
G02*
X84063841Y-121692047I-71196J-403771D01*
G01*
G37*
G36*
G01*
X83841571Y-122952601D02*
X83841571Y-122952601D01*
G75*
G02*
X83366604Y-123285176I-403771J71196D01*
G01*
X82401492Y-123115000D01*
G75*
G02*
X82068917Y-122640033I71196J403771D01*
G01*
X82068917Y-122640033D01*
G75*
G02*
X82543884Y-122307458I403771J-71196D01*
G01*
X83508996Y-122477634D01*
G75*
G02*
X83841571Y-122952601I-71196J-403771D01*
G01*
G37*
D11*
X164946940Y-67547170D03*
X163666940Y-67547170D03*
X163666940Y-72947170D03*
X164946940Y-72947170D03*
X164946940Y-47306460D03*
X163666940Y-47306460D03*
X163666940Y-52706460D03*
X164946940Y-52706460D03*
X164946939Y-27065750D03*
X163666939Y-27065750D03*
X163666939Y-32465750D03*
X164946939Y-32465750D03*
D12*
X140350560Y-102512920D03*
X140350560Y-97512920D03*
D13*
X133350560Y-105612920D03*
X133350560Y-94412920D03*
D12*
X125850560Y-102512920D03*
X125850560Y-100012920D03*
X125850560Y-97512920D03*
D14*
X116400000Y-97000000D03*
X116400000Y-94400000D03*
X118200000Y-30600001D03*
X132300000Y-41000000D03*
X132000000Y-17500001D03*
X128600001Y-72300000D03*
X132000000Y-12300000D03*
X128800000Y-76200001D03*
X57486973Y-73910966D03*
X150100000Y-73900001D03*
X34900000Y-73600001D03*
X149900000Y-69500000D03*
X149000000Y-65900001D03*
X154600000Y-63600000D03*
X155800000Y-78700001D03*
X148700000Y-34900000D03*
X160000000Y-47700001D03*
X160000000Y-44500002D03*
X163300000Y-39200001D03*
X151600000Y-28100001D03*
X153591270Y-25003230D03*
X152500000Y-43800001D03*
X131100000Y-86000001D03*
X131200000Y-89000000D03*
X127800000Y-86700001D03*
X120500000Y-38100000D03*
X134400000Y-80200001D03*
X119500000Y-25200001D03*
X134400000Y-77600001D03*
X121300000Y-11200000D03*
X134400001Y-75000001D03*
X117400000Y-10200001D03*
G36*
G01*
X150375000Y-87756251D02*
X150375000Y-86843751D01*
G75*
G02*
X150618750Y-86600001I243750J0D01*
G01*
X151106250Y-86600001D01*
G75*
G02*
X151350000Y-86843751I0J-243750D01*
G01*
X151350000Y-87756251D01*
G75*
G02*
X151106250Y-88000001I-243750J0D01*
G01*
X150618750Y-88000001D01*
G75*
G02*
X150375000Y-87756251I0J243750D01*
G01*
G37*
G36*
G01*
X152250000Y-87756251D02*
X152250000Y-86843751D01*
G75*
G02*
X152493750Y-86600001I243750J0D01*
G01*
X152981250Y-86600001D01*
G75*
G02*
X153225000Y-86843751I0J-243750D01*
G01*
X153225000Y-87756251D01*
G75*
G02*
X152981250Y-88000001I-243750J0D01*
G01*
X152493750Y-88000001D01*
G75*
G02*
X152250000Y-87756251I0J243750D01*
G01*
G37*
G36*
G01*
X122343750Y-37050003D02*
X123256250Y-37050003D01*
G75*
G02*
X123500000Y-37293753I0J-243750D01*
G01*
X123500000Y-37781253D01*
G75*
G02*
X123256250Y-38025003I-243750J0D01*
G01*
X122343750Y-38025003D01*
G75*
G02*
X122100000Y-37781253I0J243750D01*
G01*
X122100000Y-37293753D01*
G75*
G02*
X122343750Y-37050003I243750J0D01*
G01*
G37*
G36*
G01*
X122343750Y-35175003D02*
X123256250Y-35175003D01*
G75*
G02*
X123500000Y-35418753I0J-243750D01*
G01*
X123500000Y-35906253D01*
G75*
G02*
X123256250Y-36150003I-243750J0D01*
G01*
X122343750Y-36150003D01*
G75*
G02*
X122100000Y-35906253I0J243750D01*
G01*
X122100000Y-35418753D01*
G75*
G02*
X122343750Y-35175003I243750J0D01*
G01*
G37*
G36*
G01*
X122343750Y-32350001D02*
X123256250Y-32350001D01*
G75*
G02*
X123500000Y-32593751I0J-243750D01*
G01*
X123500000Y-33081251D01*
G75*
G02*
X123256250Y-33325001I-243750J0D01*
G01*
X122343750Y-33325001D01*
G75*
G02*
X122100000Y-33081251I0J243750D01*
G01*
X122100000Y-32593751D01*
G75*
G02*
X122343750Y-32350001I243750J0D01*
G01*
G37*
G36*
G01*
X122343750Y-30475001D02*
X123256250Y-30475001D01*
G75*
G02*
X123500000Y-30718751I0J-243750D01*
G01*
X123500000Y-31206251D01*
G75*
G02*
X123256250Y-31450001I-243750J0D01*
G01*
X122343750Y-31450001D01*
G75*
G02*
X122100000Y-31206251I0J243750D01*
G01*
X122100000Y-30718751D01*
G75*
G02*
X122343750Y-30475001I243750J0D01*
G01*
G37*
G36*
G01*
X124300000Y-26625001D02*
X124300000Y-27375001D01*
G75*
G02*
X124075000Y-27600001I-225000J0D01*
G01*
X123625000Y-27600001D01*
G75*
G02*
X123400000Y-27375001I0J225000D01*
G01*
X123400000Y-26625001D01*
G75*
G02*
X123625000Y-26400001I225000J0D01*
G01*
X124075000Y-26400001D01*
G75*
G02*
X124300000Y-26625001I0J-225000D01*
G01*
G37*
G36*
G01*
X127601000Y-26625001D02*
X127601000Y-27375001D01*
G75*
G02*
X127376000Y-27600001I-225000J0D01*
G01*
X126926000Y-27600001D01*
G75*
G02*
X126701000Y-27375001I0J225000D01*
G01*
X126701000Y-26625001D01*
G75*
G02*
X126926000Y-26400001I225000J0D01*
G01*
X127376000Y-26400001D01*
G75*
G02*
X127601000Y-26625001I0J-225000D01*
G01*
G37*
G36*
G01*
X96139182Y-108845248D02*
X96877788Y-108975484D01*
G75*
G02*
X97060299Y-109236137I-39071J-221582D01*
G01*
X96982157Y-109679301D01*
G75*
G02*
X96721504Y-109861812I-221582J39071D01*
G01*
X95982898Y-109731576D01*
G75*
G02*
X95800387Y-109470923I39071J221582D01*
G01*
X95878529Y-109027759D01*
G75*
G02*
X96139182Y-108845248I221582J-39071D01*
G01*
G37*
G36*
G01*
X96712395Y-105594397D02*
X97451001Y-105724633D01*
G75*
G02*
X97633512Y-105985286I-39071J-221582D01*
G01*
X97555370Y-106428450D01*
G75*
G02*
X97294717Y-106610961I-221582J39071D01*
G01*
X96556111Y-106480725D01*
G75*
G02*
X96373600Y-106220072I39071J221582D01*
G01*
X96451742Y-105776908D01*
G75*
G02*
X96712395Y-105594397I221582J-39071D01*
G01*
G37*
G36*
G01*
X78412269Y-99674528D02*
X79150875Y-99804764D01*
G75*
G02*
X79333386Y-100065417I-39071J-221582D01*
G01*
X79255244Y-100508581D01*
G75*
G02*
X78994591Y-100691092I-221582J39071D01*
G01*
X78255985Y-100560856D01*
G75*
G02*
X78073474Y-100300203I39071J221582D01*
G01*
X78151616Y-99857039D01*
G75*
G02*
X78412269Y-99674528I221582J-39071D01*
G01*
G37*
G36*
G01*
X78985482Y-96423677D02*
X79724088Y-96553913D01*
G75*
G02*
X79906599Y-96814566I-39071J-221582D01*
G01*
X79828457Y-97257730D01*
G75*
G02*
X79567804Y-97440241I-221582J39071D01*
G01*
X78829198Y-97310005D01*
G75*
G02*
X78646687Y-97049352I39071J221582D01*
G01*
X78724829Y-96606188D01*
G75*
G02*
X78985482Y-96423677I221582J-39071D01*
G01*
G37*
G36*
G01*
X60271853Y-92848892D02*
X61010459Y-92979128D01*
G75*
G02*
X61192970Y-93239781I-39071J-221582D01*
G01*
X61114828Y-93682945D01*
G75*
G02*
X60854175Y-93865456I-221582J39071D01*
G01*
X60115569Y-93735220D01*
G75*
G02*
X59933058Y-93474567I39071J221582D01*
G01*
X60011200Y-93031403D01*
G75*
G02*
X60271853Y-92848892I221582J-39071D01*
G01*
G37*
G36*
G01*
X60845066Y-89598041D02*
X61583672Y-89728277D01*
G75*
G02*
X61766183Y-89988930I-39071J-221582D01*
G01*
X61688041Y-90432094D01*
G75*
G02*
X61427388Y-90614605I-221582J39071D01*
G01*
X60688782Y-90484369D01*
G75*
G02*
X60506271Y-90223716I39071J221582D01*
G01*
X60584413Y-89780552D01*
G75*
G02*
X60845066Y-89598041I221582J-39071D01*
G01*
G37*
G36*
G01*
X41511188Y-89540879D02*
X42249794Y-89671115D01*
G75*
G02*
X42432305Y-89931768I-39071J-221582D01*
G01*
X42354163Y-90374932D01*
G75*
G02*
X42093510Y-90557443I-221582J39071D01*
G01*
X41354904Y-90427207D01*
G75*
G02*
X41172393Y-90166554I39071J221582D01*
G01*
X41250535Y-89723390D01*
G75*
G02*
X41511188Y-89540879I221582J-39071D01*
G01*
G37*
G36*
G01*
X42084401Y-86290028D02*
X42823007Y-86420264D01*
G75*
G02*
X43005518Y-86680917I-39071J-221582D01*
G01*
X42927376Y-87124081D01*
G75*
G02*
X42666723Y-87306592I-221582J39071D01*
G01*
X41928117Y-87176356D01*
G75*
G02*
X41745606Y-86915703I39071J221582D01*
G01*
X41823748Y-86472539D01*
G75*
G02*
X42084401Y-86290028I221582J-39071D01*
G01*
G37*
G36*
G01*
X93859197Y-80636287D02*
X94597803Y-80766523D01*
G75*
G02*
X94780314Y-81027176I-39071J-221582D01*
G01*
X94702172Y-81470340D01*
G75*
G02*
X94441519Y-81652851I-221582J39071D01*
G01*
X93702913Y-81522615D01*
G75*
G02*
X93520402Y-81261962I39071J221582D01*
G01*
X93598544Y-80818798D01*
G75*
G02*
X93859197Y-80636287I221582J-39071D01*
G01*
G37*
G36*
G01*
X94432410Y-77385436D02*
X95171016Y-77515672D01*
G75*
G02*
X95353527Y-77776325I-39071J-221582D01*
G01*
X95275385Y-78219489D01*
G75*
G02*
X95014732Y-78402000I-221582J39071D01*
G01*
X94276126Y-78271764D01*
G75*
G02*
X94093615Y-78011111I39071J221582D01*
G01*
X94171757Y-77567947D01*
G75*
G02*
X94432410Y-77385436I221582J-39071D01*
G01*
G37*
G36*
G01*
X76752538Y-67947941D02*
X77491144Y-68078177D01*
G75*
G02*
X77673655Y-68338830I-39071J-221582D01*
G01*
X77595513Y-68781994D01*
G75*
G02*
X77334860Y-68964505I-221582J39071D01*
G01*
X76596254Y-68834269D01*
G75*
G02*
X76413743Y-68573616I39071J221582D01*
G01*
X76491885Y-68130452D01*
G75*
G02*
X76752538Y-67947941I221582J-39071D01*
G01*
G37*
G36*
G01*
X77325751Y-64697090D02*
X78064357Y-64827326D01*
G75*
G02*
X78246868Y-65087979I-39071J-221582D01*
G01*
X78168726Y-65531143D01*
G75*
G02*
X77908073Y-65713654I-221582J39071D01*
G01*
X77169467Y-65583418D01*
G75*
G02*
X76986956Y-65322765I39071J221582D01*
G01*
X77065098Y-64879601D01*
G75*
G02*
X77325751Y-64697090I221582J-39071D01*
G01*
G37*
G36*
G01*
X59232374Y-57604679D02*
X59970980Y-57734915D01*
G75*
G02*
X60153491Y-57995568I-39071J-221582D01*
G01*
X60075349Y-58438732D01*
G75*
G02*
X59814696Y-58621243I-221582J39071D01*
G01*
X59076090Y-58491007D01*
G75*
G02*
X58893579Y-58230354I39071J221582D01*
G01*
X58971721Y-57787190D01*
G75*
G02*
X59232374Y-57604679I221582J-39071D01*
G01*
G37*
G36*
G01*
X59805587Y-54353828D02*
X60544193Y-54484064D01*
G75*
G02*
X60726704Y-54744717I-39071J-221582D01*
G01*
X60648562Y-55187881D01*
G75*
G02*
X60387909Y-55370392I-221582J39071D01*
G01*
X59649303Y-55240156D01*
G75*
G02*
X59466792Y-54979503I39071J221582D01*
G01*
X59544934Y-54536339D01*
G75*
G02*
X59805587Y-54353828I221582J-39071D01*
G01*
G37*
G36*
G01*
X40885210Y-51951584D02*
X41623816Y-52081820D01*
G75*
G02*
X41806327Y-52342473I-39071J-221582D01*
G01*
X41728185Y-52785637D01*
G75*
G02*
X41467532Y-52968148I-221582J39071D01*
G01*
X40728926Y-52837912D01*
G75*
G02*
X40546415Y-52577259I39071J221582D01*
G01*
X40624557Y-52134095D01*
G75*
G02*
X40885210Y-51951584I221582J-39071D01*
G01*
G37*
G36*
G01*
X41458423Y-48700733D02*
X42197029Y-48830969D01*
G75*
G02*
X42379540Y-49091622I-39071J-221582D01*
G01*
X42301398Y-49534786D01*
G75*
G02*
X42040745Y-49717297I-221582J39071D01*
G01*
X41302139Y-49587061D01*
G75*
G02*
X41119628Y-49326408I39071J221582D01*
G01*
X41197770Y-48883244D01*
G75*
G02*
X41458423Y-48700733I221582J-39071D01*
G01*
G37*
G36*
G01*
X20884040Y-55678824D02*
X21622646Y-55809060D01*
G75*
G02*
X21805157Y-56069713I-39071J-221582D01*
G01*
X21727015Y-56512877D01*
G75*
G02*
X21466362Y-56695388I-221582J39071D01*
G01*
X20727756Y-56565152D01*
G75*
G02*
X20545245Y-56304499I39071J221582D01*
G01*
X20623387Y-55861335D01*
G75*
G02*
X20884040Y-55678824I221582J-39071D01*
G01*
G37*
G36*
G01*
X21457253Y-52427973D02*
X22195859Y-52558209D01*
G75*
G02*
X22378370Y-52818862I-39071J-221582D01*
G01*
X22300228Y-53262026D01*
G75*
G02*
X22039575Y-53444537I-221582J39071D01*
G01*
X21300969Y-53314301D01*
G75*
G02*
X21118458Y-53053648I39071J221582D01*
G01*
X21196600Y-52610484D01*
G75*
G02*
X21457253Y-52427973I221582J-39071D01*
G01*
G37*
G36*
G01*
X1296369Y-57060977D02*
X2034975Y-57191213D01*
G75*
G02*
X2217486Y-57451866I-39071J-221582D01*
G01*
X2139344Y-57895030D01*
G75*
G02*
X1878691Y-58077541I-221582J39071D01*
G01*
X1140085Y-57947305D01*
G75*
G02*
X957574Y-57686652I39071J221582D01*
G01*
X1035716Y-57243488D01*
G75*
G02*
X1296369Y-57060977I221582J-39071D01*
G01*
G37*
G36*
G01*
X1869582Y-53810126D02*
X2608188Y-53940362D01*
G75*
G02*
X2790699Y-54201015I-39071J-221582D01*
G01*
X2712557Y-54644179D01*
G75*
G02*
X2451904Y-54826690I-221582J39071D01*
G01*
X1713298Y-54696454D01*
G75*
G02*
X1530787Y-54435801I39071J221582D01*
G01*
X1608929Y-53992637D01*
G75*
G02*
X1869582Y-53810126I221582J-39071D01*
G01*
G37*
G36*
G01*
X-18291299Y-58443132D02*
X-17552693Y-58573368D01*
G75*
G02*
X-17370182Y-58834021I-39071J-221582D01*
G01*
X-17448324Y-59277185D01*
G75*
G02*
X-17708977Y-59459696I-221582J39071D01*
G01*
X-18447583Y-59329460D01*
G75*
G02*
X-18630094Y-59068807I39071J221582D01*
G01*
X-18551952Y-58625643D01*
G75*
G02*
X-18291299Y-58443132I221582J-39071D01*
G01*
G37*
G36*
G01*
X-17718086Y-55192281D02*
X-16979480Y-55322517D01*
G75*
G02*
X-16796969Y-55583170I-39071J-221582D01*
G01*
X-16875111Y-56026334D01*
G75*
G02*
X-17135764Y-56208845I-221582J39071D01*
G01*
X-17874370Y-56078609D01*
G75*
G02*
X-18056881Y-55817956I39071J221582D01*
G01*
X-17978739Y-55374792D01*
G75*
G02*
X-17718086Y-55192281I221582J-39071D01*
G01*
G37*
G36*
G01*
X97167210Y-61875619D02*
X97905816Y-62005855D01*
G75*
G02*
X98088327Y-62266508I-39071J-221582D01*
G01*
X98010185Y-62709672D01*
G75*
G02*
X97749532Y-62892183I-221582J39071D01*
G01*
X97010926Y-62761947D01*
G75*
G02*
X96828415Y-62501294I39071J221582D01*
G01*
X96906557Y-62058130D01*
G75*
G02*
X97167210Y-61875619I221582J-39071D01*
G01*
G37*
G36*
G01*
X97740423Y-58624768D02*
X98479029Y-58755004D01*
G75*
G02*
X98661540Y-59015657I-39071J-221582D01*
G01*
X98583398Y-59458821D01*
G75*
G02*
X98322745Y-59641332I-221582J39071D01*
G01*
X97584139Y-59511096D01*
G75*
G02*
X97401628Y-59250443I39071J221582D01*
G01*
X97479770Y-58807279D01*
G75*
G02*
X97740423Y-58624768I221582J-39071D01*
G01*
G37*
G36*
G01*
X80060548Y-49187274D02*
X80799154Y-49317510D01*
G75*
G02*
X80981665Y-49578163I-39071J-221582D01*
G01*
X80903523Y-50021327D01*
G75*
G02*
X80642870Y-50203838I-221582J39071D01*
G01*
X79904264Y-50073602D01*
G75*
G02*
X79721753Y-49812949I39071J221582D01*
G01*
X79799895Y-49369785D01*
G75*
G02*
X80060548Y-49187274I221582J-39071D01*
G01*
G37*
G36*
G01*
X80633761Y-45936423D02*
X81372367Y-46066659D01*
G75*
G02*
X81554878Y-46327312I-39071J-221582D01*
G01*
X81476736Y-46770476D01*
G75*
G02*
X81216083Y-46952987I-221582J39071D01*
G01*
X80477477Y-46822751D01*
G75*
G02*
X80294966Y-46562098I39071J221582D01*
G01*
X80373108Y-46118934D01*
G75*
G02*
X80633761Y-45936423I221582J-39071D01*
G01*
G37*
G36*
G01*
X62540386Y-38844014D02*
X63278992Y-38974250D01*
G75*
G02*
X63461503Y-39234903I-39071J-221582D01*
G01*
X63383361Y-39678067D01*
G75*
G02*
X63122708Y-39860578I-221582J39071D01*
G01*
X62384102Y-39730342D01*
G75*
G02*
X62201591Y-39469689I39071J221582D01*
G01*
X62279733Y-39026525D01*
G75*
G02*
X62540386Y-38844014I221582J-39071D01*
G01*
G37*
G36*
G01*
X63113599Y-35593163D02*
X63852205Y-35723399D01*
G75*
G02*
X64034716Y-35984052I-39071J-221582D01*
G01*
X63956574Y-36427216D01*
G75*
G02*
X63695921Y-36609727I-221582J39071D01*
G01*
X62957315Y-36479491D01*
G75*
G02*
X62774804Y-36218838I39071J221582D01*
G01*
X62852946Y-35775674D01*
G75*
G02*
X63113599Y-35593163I221582J-39071D01*
G01*
G37*
G36*
G01*
X44193221Y-33190919D02*
X44931827Y-33321155D01*
G75*
G02*
X45114338Y-33581808I-39071J-221582D01*
G01*
X45036196Y-34024972D01*
G75*
G02*
X44775543Y-34207483I-221582J39071D01*
G01*
X44036937Y-34077247D01*
G75*
G02*
X43854426Y-33816594I39071J221582D01*
G01*
X43932568Y-33373430D01*
G75*
G02*
X44193221Y-33190919I221582J-39071D01*
G01*
G37*
G36*
G01*
X44766434Y-29940068D02*
X45505040Y-30070304D01*
G75*
G02*
X45687551Y-30330957I-39071J-221582D01*
G01*
X45609409Y-30774121D01*
G75*
G02*
X45348756Y-30956632I-221582J39071D01*
G01*
X44610150Y-30826396D01*
G75*
G02*
X44427639Y-30565743I39071J221582D01*
G01*
X44505781Y-30122579D01*
G75*
G02*
X44766434Y-29940068I221582J-39071D01*
G01*
G37*
G36*
G01*
X24192050Y-36918156D02*
X24930656Y-37048392D01*
G75*
G02*
X25113167Y-37309045I-39071J-221582D01*
G01*
X25035025Y-37752209D01*
G75*
G02*
X24774372Y-37934720I-221582J39071D01*
G01*
X24035766Y-37804484D01*
G75*
G02*
X23853255Y-37543831I39071J221582D01*
G01*
X23931397Y-37100667D01*
G75*
G02*
X24192050Y-36918156I221582J-39071D01*
G01*
G37*
G36*
G01*
X24765263Y-33667305D02*
X25503869Y-33797541D01*
G75*
G02*
X25686380Y-34058194I-39071J-221582D01*
G01*
X25608238Y-34501358D01*
G75*
G02*
X25347585Y-34683869I-221582J39071D01*
G01*
X24608979Y-34553633D01*
G75*
G02*
X24426468Y-34292980I39071J221582D01*
G01*
X24504610Y-33849816D01*
G75*
G02*
X24765263Y-33667305I221582J-39071D01*
G01*
G37*
G36*
G01*
X4604382Y-38300310D02*
X5342988Y-38430546D01*
G75*
G02*
X5525499Y-38691199I-39071J-221582D01*
G01*
X5447357Y-39134363D01*
G75*
G02*
X5186704Y-39316874I-221582J39071D01*
G01*
X4448098Y-39186638D01*
G75*
G02*
X4265587Y-38925985I39071J221582D01*
G01*
X4343729Y-38482821D01*
G75*
G02*
X4604382Y-38300310I221582J-39071D01*
G01*
G37*
G36*
G01*
X5177595Y-35049459D02*
X5916201Y-35179695D01*
G75*
G02*
X6098712Y-35440348I-39071J-221582D01*
G01*
X6020570Y-35883512D01*
G75*
G02*
X5759917Y-36066023I-221582J39071D01*
G01*
X5021311Y-35935787D01*
G75*
G02*
X4838800Y-35675134I39071J221582D01*
G01*
X4916942Y-35231970D01*
G75*
G02*
X5177595Y-35049459I221582J-39071D01*
G01*
G37*
G36*
G01*
X-14983287Y-39682465D02*
X-14244681Y-39812701D01*
G75*
G02*
X-14062170Y-40073354I-39071J-221582D01*
G01*
X-14140312Y-40516518D01*
G75*
G02*
X-14400965Y-40699029I-221582J39071D01*
G01*
X-15139571Y-40568793D01*
G75*
G02*
X-15322082Y-40308140I39071J221582D01*
G01*
X-15243940Y-39864976D01*
G75*
G02*
X-14983287Y-39682465I221582J-39071D01*
G01*
G37*
G36*
G01*
X-14410074Y-36431614D02*
X-13671468Y-36561850D01*
G75*
G02*
X-13488957Y-36822503I-39071J-221582D01*
G01*
X-13567099Y-37265667D01*
G75*
G02*
X-13827752Y-37448178I-221582J39071D01*
G01*
X-14566358Y-37317942D01*
G75*
G02*
X-14748869Y-37057289I39071J221582D01*
G01*
X-14670727Y-36614125D01*
G75*
G02*
X-14410074Y-36431614I221582J-39071D01*
G01*
G37*
G36*
G01*
X100475222Y-43114953D02*
X101213828Y-43245189D01*
G75*
G02*
X101396339Y-43505842I-39071J-221582D01*
G01*
X101318197Y-43949006D01*
G75*
G02*
X101057544Y-44131517I-221582J39071D01*
G01*
X100318938Y-44001281D01*
G75*
G02*
X100136427Y-43740628I39071J221582D01*
G01*
X100214569Y-43297464D01*
G75*
G02*
X100475222Y-43114953I221582J-39071D01*
G01*
G37*
G36*
G01*
X101048435Y-39864102D02*
X101787041Y-39994338D01*
G75*
G02*
X101969552Y-40254991I-39071J-221582D01*
G01*
X101891410Y-40698155D01*
G75*
G02*
X101630757Y-40880666I-221582J39071D01*
G01*
X100892151Y-40750430D01*
G75*
G02*
X100709640Y-40489777I39071J221582D01*
G01*
X100787782Y-40046613D01*
G75*
G02*
X101048435Y-39864102I221582J-39071D01*
G01*
G37*
G36*
G01*
X83368561Y-30426608D02*
X84107167Y-30556844D01*
G75*
G02*
X84289678Y-30817497I-39071J-221582D01*
G01*
X84211536Y-31260661D01*
G75*
G02*
X83950883Y-31443172I-221582J39071D01*
G01*
X83212277Y-31312936D01*
G75*
G02*
X83029766Y-31052283I39071J221582D01*
G01*
X83107908Y-30609119D01*
G75*
G02*
X83368561Y-30426608I221582J-39071D01*
G01*
G37*
G36*
G01*
X83941774Y-27175757D02*
X84680380Y-27305993D01*
G75*
G02*
X84862891Y-27566646I-39071J-221582D01*
G01*
X84784749Y-28009810D01*
G75*
G02*
X84524096Y-28192321I-221582J39071D01*
G01*
X83785490Y-28062085D01*
G75*
G02*
X83602979Y-27801432I39071J221582D01*
G01*
X83681121Y-27358268D01*
G75*
G02*
X83941774Y-27175757I221582J-39071D01*
G01*
G37*
G36*
G01*
X65848399Y-20083346D02*
X66587005Y-20213582D01*
G75*
G02*
X66769516Y-20474235I-39071J-221582D01*
G01*
X66691374Y-20917399D01*
G75*
G02*
X66430721Y-21099910I-221582J39071D01*
G01*
X65692115Y-20969674D01*
G75*
G02*
X65509604Y-20709021I39071J221582D01*
G01*
X65587746Y-20265857D01*
G75*
G02*
X65848399Y-20083346I221582J-39071D01*
G01*
G37*
G36*
G01*
X66421612Y-16832495D02*
X67160218Y-16962731D01*
G75*
G02*
X67342729Y-17223384I-39071J-221582D01*
G01*
X67264587Y-17666548D01*
G75*
G02*
X67003934Y-17849059I-221582J39071D01*
G01*
X66265328Y-17718823D01*
G75*
G02*
X66082817Y-17458170I39071J221582D01*
G01*
X66160959Y-17015006D01*
G75*
G02*
X66421612Y-16832495I221582J-39071D01*
G01*
G37*
G36*
G01*
X47501234Y-14430251D02*
X48239840Y-14560487D01*
G75*
G02*
X48422351Y-14821140I-39071J-221582D01*
G01*
X48344209Y-15264304D01*
G75*
G02*
X48083556Y-15446815I-221582J39071D01*
G01*
X47344950Y-15316579D01*
G75*
G02*
X47162439Y-15055926I39071J221582D01*
G01*
X47240581Y-14612762D01*
G75*
G02*
X47501234Y-14430251I221582J-39071D01*
G01*
G37*
G36*
G01*
X48074447Y-11179400D02*
X48813053Y-11309636D01*
G75*
G02*
X48995564Y-11570289I-39071J-221582D01*
G01*
X48917422Y-12013453D01*
G75*
G02*
X48656769Y-12195964I-221582J39071D01*
G01*
X47918163Y-12065728D01*
G75*
G02*
X47735652Y-11805075I39071J221582D01*
G01*
X47813794Y-11361911D01*
G75*
G02*
X48074447Y-11179400I221582J-39071D01*
G01*
G37*
G36*
G01*
X27500063Y-18157491D02*
X28238669Y-18287727D01*
G75*
G02*
X28421180Y-18548380I-39071J-221582D01*
G01*
X28343038Y-18991544D01*
G75*
G02*
X28082385Y-19174055I-221582J39071D01*
G01*
X27343779Y-19043819D01*
G75*
G02*
X27161268Y-18783166I39071J221582D01*
G01*
X27239410Y-18340002D01*
G75*
G02*
X27500063Y-18157491I221582J-39071D01*
G01*
G37*
G36*
G01*
X28073276Y-14906640D02*
X28811882Y-15036876D01*
G75*
G02*
X28994393Y-15297529I-39071J-221582D01*
G01*
X28916251Y-15740693D01*
G75*
G02*
X28655598Y-15923204I-221582J39071D01*
G01*
X27916992Y-15792968D01*
G75*
G02*
X27734481Y-15532315I39071J221582D01*
G01*
X27812623Y-15089151D01*
G75*
G02*
X28073276Y-14906640I221582J-39071D01*
G01*
G37*
G36*
G01*
X7912396Y-19539646D02*
X8651002Y-19669882D01*
G75*
G02*
X8833513Y-19930535I-39071J-221582D01*
G01*
X8755371Y-20373699D01*
G75*
G02*
X8494718Y-20556210I-221582J39071D01*
G01*
X7756112Y-20425974D01*
G75*
G02*
X7573601Y-20165321I39071J221582D01*
G01*
X7651743Y-19722157D01*
G75*
G02*
X7912396Y-19539646I221582J-39071D01*
G01*
G37*
G36*
G01*
X8485609Y-16288795D02*
X9224215Y-16419031D01*
G75*
G02*
X9406726Y-16679684I-39071J-221582D01*
G01*
X9328584Y-17122848D01*
G75*
G02*
X9067931Y-17305359I-221582J39071D01*
G01*
X8329325Y-17175123D01*
G75*
G02*
X8146814Y-16914470I39071J221582D01*
G01*
X8224956Y-16471306D01*
G75*
G02*
X8485609Y-16288795I221582J-39071D01*
G01*
G37*
G36*
G01*
X-11675277Y-20921799D02*
X-10936671Y-21052035D01*
G75*
G02*
X-10754160Y-21312688I-39071J-221582D01*
G01*
X-10832302Y-21755852D01*
G75*
G02*
X-11092955Y-21938363I-221582J39071D01*
G01*
X-11831561Y-21808127D01*
G75*
G02*
X-12014072Y-21547474I39071J221582D01*
G01*
X-11935930Y-21104310D01*
G75*
G02*
X-11675277Y-20921799I221582J-39071D01*
G01*
G37*
G36*
G01*
X-11102064Y-17670948D02*
X-10363458Y-17801184D01*
G75*
G02*
X-10180947Y-18061837I-39071J-221582D01*
G01*
X-10259089Y-18505001D01*
G75*
G02*
X-10519742Y-18687512I-221582J39071D01*
G01*
X-11258348Y-18557276D01*
G75*
G02*
X-11440859Y-18296623I39071J221582D01*
G01*
X-11362717Y-17853459D01*
G75*
G02*
X-11102064Y-17670948I221582J-39071D01*
G01*
G37*
G36*
G01*
X103783232Y-24354285D02*
X104521838Y-24484521D01*
G75*
G02*
X104704349Y-24745174I-39071J-221582D01*
G01*
X104626207Y-25188338D01*
G75*
G02*
X104365554Y-25370849I-221582J39071D01*
G01*
X103626948Y-25240613D01*
G75*
G02*
X103444437Y-24979960I39071J221582D01*
G01*
X103522579Y-24536796D01*
G75*
G02*
X103783232Y-24354285I221582J-39071D01*
G01*
G37*
G36*
G01*
X104356445Y-21103434D02*
X105095051Y-21233670D01*
G75*
G02*
X105277562Y-21494323I-39071J-221582D01*
G01*
X105199420Y-21937487D01*
G75*
G02*
X104938767Y-22119998I-221582J39071D01*
G01*
X104200161Y-21989762D01*
G75*
G02*
X104017650Y-21729109I39071J221582D01*
G01*
X104095792Y-21285945D01*
G75*
G02*
X104356445Y-21103434I221582J-39071D01*
G01*
G37*
G36*
G01*
X86676573Y-11665941D02*
X87415179Y-11796177D01*
G75*
G02*
X87597690Y-12056830I-39071J-221582D01*
G01*
X87519548Y-12499994D01*
G75*
G02*
X87258895Y-12682505I-221582J39071D01*
G01*
X86520289Y-12552269D01*
G75*
G02*
X86337778Y-12291616I39071J221582D01*
G01*
X86415920Y-11848452D01*
G75*
G02*
X86676573Y-11665941I221582J-39071D01*
G01*
G37*
G36*
G01*
X87249786Y-8415090D02*
X87988392Y-8545326D01*
G75*
G02*
X88170903Y-8805979I-39071J-221582D01*
G01*
X88092761Y-9249143D01*
G75*
G02*
X87832108Y-9431654I-221582J39071D01*
G01*
X87093502Y-9301418D01*
G75*
G02*
X86910991Y-9040765I39071J221582D01*
G01*
X86989133Y-8597601D01*
G75*
G02*
X87249786Y-8415090I221582J-39071D01*
G01*
G37*
G36*
G01*
X69156411Y-1322680D02*
X69895017Y-1452916D01*
G75*
G02*
X70077528Y-1713569I-39071J-221582D01*
G01*
X69999386Y-2156733D01*
G75*
G02*
X69738733Y-2339244I-221582J39071D01*
G01*
X69000127Y-2209008D01*
G75*
G02*
X68817616Y-1948355I39071J221582D01*
G01*
X68895758Y-1505191D01*
G75*
G02*
X69156411Y-1322680I221582J-39071D01*
G01*
G37*
G36*
G01*
X69729624Y1928171D02*
X70468230Y1797935D01*
G75*
G02*
X70650741Y1537282I-39071J-221582D01*
G01*
X70572599Y1094118D01*
G75*
G02*
X70311946Y911607I-221582J39071D01*
G01*
X69573340Y1041843D01*
G75*
G02*
X69390829Y1302496I39071J221582D01*
G01*
X69468971Y1745660D01*
G75*
G02*
X69729624Y1928171I221582J-39071D01*
G01*
G37*
G36*
G01*
X50809246Y4330415D02*
X51547852Y4200179D01*
G75*
G02*
X51730363Y3939526I-39071J-221582D01*
G01*
X51652221Y3496362D01*
G75*
G02*
X51391568Y3313851I-221582J39071D01*
G01*
X50652962Y3444087D01*
G75*
G02*
X50470451Y3704740I39071J221582D01*
G01*
X50548593Y4147904D01*
G75*
G02*
X50809246Y4330415I221582J-39071D01*
G01*
G37*
G36*
G01*
X51382459Y7581266D02*
X52121065Y7451030D01*
G75*
G02*
X52303576Y7190377I-39071J-221582D01*
G01*
X52225434Y6747213D01*
G75*
G02*
X51964781Y6564702I-221582J39071D01*
G01*
X51226175Y6694938D01*
G75*
G02*
X51043664Y6955591I39071J221582D01*
G01*
X51121806Y7398755D01*
G75*
G02*
X51382459Y7581266I221582J-39071D01*
G01*
G37*
G36*
G01*
X30808075Y603178D02*
X31546681Y472942D01*
G75*
G02*
X31729192Y212289I-39071J-221582D01*
G01*
X31651050Y-230875D01*
G75*
G02*
X31390397Y-413386I-221582J39071D01*
G01*
X30651791Y-283150D01*
G75*
G02*
X30469280Y-22497I39071J221582D01*
G01*
X30547422Y420667D01*
G75*
G02*
X30808075Y603178I221582J-39071D01*
G01*
G37*
G36*
G01*
X31381288Y3854029D02*
X32119894Y3723793D01*
G75*
G02*
X32302405Y3463140I-39071J-221582D01*
G01*
X32224263Y3019976D01*
G75*
G02*
X31963610Y2837465I-221582J39071D01*
G01*
X31225004Y2967701D01*
G75*
G02*
X31042493Y3228354I39071J221582D01*
G01*
X31120635Y3671518D01*
G75*
G02*
X31381288Y3854029I221582J-39071D01*
G01*
G37*
G36*
G01*
X11220404Y-778978D02*
X11959010Y-909214D01*
G75*
G02*
X12141521Y-1169867I-39071J-221582D01*
G01*
X12063379Y-1613031D01*
G75*
G02*
X11802726Y-1795542I-221582J39071D01*
G01*
X11064120Y-1665306D01*
G75*
G02*
X10881609Y-1404653I39071J221582D01*
G01*
X10959751Y-961489D01*
G75*
G02*
X11220404Y-778978I221582J-39071D01*
G01*
G37*
G36*
G01*
X11793617Y2471873D02*
X12532223Y2341637D01*
G75*
G02*
X12714734Y2080984I-39071J-221582D01*
G01*
X12636592Y1637820D01*
G75*
G02*
X12375939Y1455309I-221582J39071D01*
G01*
X11637333Y1585545D01*
G75*
G02*
X11454822Y1846198I39071J221582D01*
G01*
X11532964Y2289362D01*
G75*
G02*
X11793617Y2471873I221582J-39071D01*
G01*
G37*
G36*
G01*
X-8367264Y-2161132D02*
X-7628658Y-2291368D01*
G75*
G02*
X-7446147Y-2552021I-39071J-221582D01*
G01*
X-7524289Y-2995185D01*
G75*
G02*
X-7784942Y-3177696I-221582J39071D01*
G01*
X-8523548Y-3047460D01*
G75*
G02*
X-8706059Y-2786807I39071J221582D01*
G01*
X-8627917Y-2343643D01*
G75*
G02*
X-8367264Y-2161132I221582J-39071D01*
G01*
G37*
G36*
G01*
X-7794051Y1089719D02*
X-7055445Y959483D01*
G75*
G02*
X-6872934Y698830I-39071J-221582D01*
G01*
X-6951076Y255666D01*
G75*
G02*
X-7211729Y73155I-221582J39071D01*
G01*
X-7950335Y203391D01*
G75*
G02*
X-8132846Y464044I39071J221582D01*
G01*
X-8054704Y907208D01*
G75*
G02*
X-7794051Y1089719I221582J-39071D01*
G01*
G37*
G36*
G01*
X136853780Y-68904370D02*
X136853780Y-69204370D01*
G75*
G02*
X136703780Y-69354370I-150000J0D01*
G01*
X135053780Y-69354370D01*
G75*
G02*
X134903780Y-69204370I0J150000D01*
G01*
X134903780Y-68904370D01*
G75*
G02*
X135053780Y-68754370I150000J0D01*
G01*
X136703780Y-68754370D01*
G75*
G02*
X136853780Y-68904370I0J-150000D01*
G01*
G37*
G36*
G01*
X136853780Y-70174370D02*
X136853780Y-70474370D01*
G75*
G02*
X136703780Y-70624370I-150000J0D01*
G01*
X135053780Y-70624370D01*
G75*
G02*
X134903780Y-70474370I0J150000D01*
G01*
X134903780Y-70174370D01*
G75*
G02*
X135053780Y-70024370I150000J0D01*
G01*
X136703780Y-70024370D01*
G75*
G02*
X136853780Y-70174370I0J-150000D01*
G01*
G37*
G36*
G01*
X136853780Y-71444370D02*
X136853780Y-71744370D01*
G75*
G02*
X136703780Y-71894370I-150000J0D01*
G01*
X135053780Y-71894370D01*
G75*
G02*
X134903780Y-71744370I0J150000D01*
G01*
X134903780Y-71444370D01*
G75*
G02*
X135053780Y-71294370I150000J0D01*
G01*
X136703780Y-71294370D01*
G75*
G02*
X136853780Y-71444370I0J-150000D01*
G01*
G37*
G36*
G01*
X136853780Y-72714370D02*
X136853780Y-73014370D01*
G75*
G02*
X136703780Y-73164370I-150000J0D01*
G01*
X135053780Y-73164370D01*
G75*
G02*
X134903780Y-73014370I0J150000D01*
G01*
X134903780Y-72714370D01*
G75*
G02*
X135053780Y-72564370I150000J0D01*
G01*
X136703780Y-72564370D01*
G75*
G02*
X136853780Y-72714370I0J-150000D01*
G01*
G37*
G36*
G01*
X141803780Y-72714370D02*
X141803780Y-73014370D01*
G75*
G02*
X141653780Y-73164370I-150000J0D01*
G01*
X140003780Y-73164370D01*
G75*
G02*
X139853780Y-73014370I0J150000D01*
G01*
X139853780Y-72714370D01*
G75*
G02*
X140003780Y-72564370I150000J0D01*
G01*
X141653780Y-72564370D01*
G75*
G02*
X141803780Y-72714370I0J-150000D01*
G01*
G37*
G36*
G01*
X141803780Y-71444370D02*
X141803780Y-71744370D01*
G75*
G02*
X141653780Y-71894370I-150000J0D01*
G01*
X140003780Y-71894370D01*
G75*
G02*
X139853780Y-71744370I0J150000D01*
G01*
X139853780Y-71444370D01*
G75*
G02*
X140003780Y-71294370I150000J0D01*
G01*
X141653780Y-71294370D01*
G75*
G02*
X141803780Y-71444370I0J-150000D01*
G01*
G37*
G36*
G01*
X141803780Y-70174370D02*
X141803780Y-70474370D01*
G75*
G02*
X141653780Y-70624370I-150000J0D01*
G01*
X140003780Y-70624370D01*
G75*
G02*
X139853780Y-70474370I0J150000D01*
G01*
X139853780Y-70174370D01*
G75*
G02*
X140003780Y-70024370I150000J0D01*
G01*
X141653780Y-70024370D01*
G75*
G02*
X141803780Y-70174370I0J-150000D01*
G01*
G37*
G36*
G01*
X141803780Y-68904370D02*
X141803780Y-69204370D01*
G75*
G02*
X141653780Y-69354370I-150000J0D01*
G01*
X140003780Y-69354370D01*
G75*
G02*
X139853780Y-69204370I0J150000D01*
G01*
X139853780Y-68904370D01*
G75*
G02*
X140003780Y-68754370I150000J0D01*
G01*
X141653780Y-68754370D01*
G75*
G02*
X141803780Y-68904370I0J-150000D01*
G01*
G37*
G36*
G01*
X105250708Y-115155698D02*
X105409162Y-114257061D01*
G75*
G02*
X105691536Y-114059341I240047J-42327D01*
G01*
X106171630Y-114143994D01*
G75*
G02*
X106369350Y-114426368I-42327J-240047D01*
G01*
X106210896Y-115325005D01*
G75*
G02*
X105928522Y-115522725I-240047J42327D01*
G01*
X105448428Y-115438072D01*
G75*
G02*
X105250708Y-115155698I42327J240047D01*
G01*
G37*
G36*
G01*
X107097223Y-115481288D02*
X107255677Y-114582651D01*
G75*
G02*
X107538051Y-114384931I240047J-42327D01*
G01*
X108018145Y-114469584D01*
G75*
G02*
X108215865Y-114751958I-42327J-240047D01*
G01*
X108057411Y-115650595D01*
G75*
G02*
X107775037Y-115848315I-240047J42327D01*
G01*
X107294943Y-115763662D01*
G75*
G02*
X107097223Y-115481288I42327J240047D01*
G01*
G37*
G36*
G01*
X87523795Y-105984978D02*
X87682249Y-105086341D01*
G75*
G02*
X87964623Y-104888621I240047J-42327D01*
G01*
X88444717Y-104973274D01*
G75*
G02*
X88642437Y-105255648I-42327J-240047D01*
G01*
X88483983Y-106154285D01*
G75*
G02*
X88201609Y-106352005I-240047J42327D01*
G01*
X87721515Y-106267352D01*
G75*
G02*
X87523795Y-105984978I42327J240047D01*
G01*
G37*
G36*
G01*
X89370310Y-106310568D02*
X89528764Y-105411931D01*
G75*
G02*
X89811138Y-105214211I240047J-42327D01*
G01*
X90291232Y-105298864D01*
G75*
G02*
X90488952Y-105581238I-42327J-240047D01*
G01*
X90330498Y-106479875D01*
G75*
G02*
X90048124Y-106677595I-240047J42327D01*
G01*
X89568030Y-106592942D01*
G75*
G02*
X89370310Y-106310568I42327J240047D01*
G01*
G37*
G36*
G01*
X69383379Y-99159342D02*
X69541833Y-98260705D01*
G75*
G02*
X69824207Y-98062985I240047J-42327D01*
G01*
X70304301Y-98147638D01*
G75*
G02*
X70502021Y-98430012I-42327J-240047D01*
G01*
X70343567Y-99328649D01*
G75*
G02*
X70061193Y-99526369I-240047J42327D01*
G01*
X69581099Y-99441716D01*
G75*
G02*
X69383379Y-99159342I42327J240047D01*
G01*
G37*
G36*
G01*
X71229894Y-99484932D02*
X71388348Y-98586295D01*
G75*
G02*
X71670722Y-98388575I240047J-42327D01*
G01*
X72150816Y-98473228D01*
G75*
G02*
X72348536Y-98755602I-42327J-240047D01*
G01*
X72190082Y-99654239D01*
G75*
G02*
X71907708Y-99851959I-240047J42327D01*
G01*
X71427614Y-99767306D01*
G75*
G02*
X71229894Y-99484932I42327J240047D01*
G01*
G37*
G36*
G01*
X50622714Y-95851329D02*
X50781168Y-94952692D01*
G75*
G02*
X51063542Y-94754972I240047J-42327D01*
G01*
X51543636Y-94839625D01*
G75*
G02*
X51741356Y-95121999I-42327J-240047D01*
G01*
X51582902Y-96020636D01*
G75*
G02*
X51300528Y-96218356I-240047J42327D01*
G01*
X50820434Y-96133703D01*
G75*
G02*
X50622714Y-95851329I42327J240047D01*
G01*
G37*
G36*
G01*
X52469229Y-96176919D02*
X52627683Y-95278282D01*
G75*
G02*
X52910057Y-95080562I240047J-42327D01*
G01*
X53390151Y-95165215D01*
G75*
G02*
X53587871Y-95447589I-42327J-240047D01*
G01*
X53429417Y-96346226D01*
G75*
G02*
X53147043Y-96543946I-240047J42327D01*
G01*
X52666949Y-96459293D01*
G75*
G02*
X52469229Y-96176919I42327J240047D01*
G01*
G37*
G36*
G01*
X98788086Y-85282649D02*
X98629632Y-86181286D01*
G75*
G02*
X98347258Y-86379006I-240047J42327D01*
G01*
X97867164Y-86294353D01*
G75*
G02*
X97669444Y-86011979I42327J240047D01*
G01*
X97827898Y-85113342D01*
G75*
G02*
X98110272Y-84915622I240047J-42327D01*
G01*
X98590366Y-85000275D01*
G75*
G02*
X98788086Y-85282649I-42327J-240047D01*
G01*
G37*
G36*
G01*
X96941571Y-84957058D02*
X96783117Y-85855695D01*
G75*
G02*
X96500743Y-86053415I-240047J42327D01*
G01*
X96020649Y-85968762D01*
G75*
G02*
X95822929Y-85686388I42327J240047D01*
G01*
X95981383Y-84787751D01*
G75*
G02*
X96263757Y-84590031I240047J-42327D01*
G01*
X96743851Y-84674684D01*
G75*
G02*
X96941571Y-84957058I-42327J-240047D01*
G01*
G37*
G36*
G01*
X81681427Y-72594303D02*
X81522973Y-73492940D01*
G75*
G02*
X81240599Y-73690660I-240047J42327D01*
G01*
X80760505Y-73606007D01*
G75*
G02*
X80562785Y-73323633I42327J240047D01*
G01*
X80721239Y-72424996D01*
G75*
G02*
X81003613Y-72227276I240047J-42327D01*
G01*
X81483707Y-72311929D01*
G75*
G02*
X81681427Y-72594303I-42327J-240047D01*
G01*
G37*
G36*
G01*
X79834912Y-72268712D02*
X79676458Y-73167349D01*
G75*
G02*
X79394084Y-73365069I-240047J42327D01*
G01*
X78913990Y-73280416D01*
G75*
G02*
X78716270Y-72998042I42327J240047D01*
G01*
X78874724Y-72099405D01*
G75*
G02*
X79157098Y-71901685I240047J-42327D01*
G01*
X79637192Y-71986338D01*
G75*
G02*
X79834912Y-72268712I-42327J-240047D01*
G01*
G37*
G36*
G01*
X64161263Y-62251041D02*
X64002809Y-63149678D01*
G75*
G02*
X63720435Y-63347398I-240047J42327D01*
G01*
X63240341Y-63262745D01*
G75*
G02*
X63042621Y-62980371I42327J240047D01*
G01*
X63201075Y-62081734D01*
G75*
G02*
X63483449Y-61884014I240047J-42327D01*
G01*
X63963543Y-61968667D01*
G75*
G02*
X64161263Y-62251041I-42327J-240047D01*
G01*
G37*
G36*
G01*
X62314748Y-61925450D02*
X62156294Y-62824087D01*
G75*
G02*
X61873920Y-63021807I-240047J42327D01*
G01*
X61393826Y-62937154D01*
G75*
G02*
X61196106Y-62654780I42327J240047D01*
G01*
X61354560Y-61756143D01*
G75*
G02*
X61636934Y-61558423I240047J-42327D01*
G01*
X62117028Y-61643076D01*
G75*
G02*
X62314748Y-61925450I-42327J-240047D01*
G01*
G37*
G36*
G01*
X45814099Y-56597946D02*
X45655645Y-57496583D01*
G75*
G02*
X45373271Y-57694303I-240047J42327D01*
G01*
X44893177Y-57609650D01*
G75*
G02*
X44695457Y-57327276I42327J240047D01*
G01*
X44853911Y-56428639D01*
G75*
G02*
X45136285Y-56230919I240047J-42327D01*
G01*
X45616379Y-56315572D01*
G75*
G02*
X45814099Y-56597946I-42327J-240047D01*
G01*
G37*
G36*
G01*
X43967584Y-56272355D02*
X43809130Y-57170992D01*
G75*
G02*
X43526756Y-57368712I-240047J42327D01*
G01*
X43046662Y-57284059D01*
G75*
G02*
X42848942Y-57001685I42327J240047D01*
G01*
X43007396Y-56103048D01*
G75*
G02*
X43289770Y-55905328I240047J-42327D01*
G01*
X43769864Y-55989981D01*
G75*
G02*
X43967584Y-56272355I-42327J-240047D01*
G01*
G37*
G36*
G01*
X25812929Y-60325186D02*
X25654475Y-61223823D01*
G75*
G02*
X25372101Y-61421543I-240047J42327D01*
G01*
X24892007Y-61336890D01*
G75*
G02*
X24694287Y-61054516I42327J240047D01*
G01*
X24852741Y-60155879D01*
G75*
G02*
X25135115Y-59958159I240047J-42327D01*
G01*
X25615209Y-60042812D01*
G75*
G02*
X25812929Y-60325186I-42327J-240047D01*
G01*
G37*
G36*
G01*
X23966414Y-59999595D02*
X23807960Y-60898232D01*
G75*
G02*
X23525586Y-61095952I-240047J42327D01*
G01*
X23045492Y-61011299D01*
G75*
G02*
X22847772Y-60728925I42327J240047D01*
G01*
X23006226Y-59830288D01*
G75*
G02*
X23288600Y-59632568I240047J-42327D01*
G01*
X23768694Y-59717221D01*
G75*
G02*
X23966414Y-59999595I-42327J-240047D01*
G01*
G37*
G36*
G01*
X6225258Y-61707339D02*
X6066804Y-62605976D01*
G75*
G02*
X5784430Y-62803696I-240047J42327D01*
G01*
X5304336Y-62719043D01*
G75*
G02*
X5106616Y-62436669I42327J240047D01*
G01*
X5265070Y-61538032D01*
G75*
G02*
X5547444Y-61340312I240047J-42327D01*
G01*
X6027538Y-61424965D01*
G75*
G02*
X6225258Y-61707339I-42327J-240047D01*
G01*
G37*
G36*
G01*
X4378743Y-61381748D02*
X4220289Y-62280385D01*
G75*
G02*
X3937915Y-62478105I-240047J42327D01*
G01*
X3457821Y-62393452D01*
G75*
G02*
X3260101Y-62111078I42327J240047D01*
G01*
X3418555Y-61212441D01*
G75*
G02*
X3700929Y-61014721I240047J-42327D01*
G01*
X4181023Y-61099374D01*
G75*
G02*
X4378743Y-61381748I-42327J-240047D01*
G01*
G37*
G36*
G01*
X-13362410Y-63089494D02*
X-13520864Y-63988131D01*
G75*
G02*
X-13803238Y-64185851I-240047J42327D01*
G01*
X-14283332Y-64101198D01*
G75*
G02*
X-14481052Y-63818824I42327J240047D01*
G01*
X-14322598Y-62920187D01*
G75*
G02*
X-14040224Y-62722467I240047J-42327D01*
G01*
X-13560130Y-62807120D01*
G75*
G02*
X-13362410Y-63089494I-42327J-240047D01*
G01*
G37*
G36*
G01*
X-15208925Y-62763903D02*
X-15367379Y-63662540D01*
G75*
G02*
X-15649753Y-63860260I-240047J42327D01*
G01*
X-16129847Y-63775607D01*
G75*
G02*
X-16327567Y-63493233I42327J240047D01*
G01*
X-16169113Y-62594596D01*
G75*
G02*
X-15886739Y-62396876I240047J-42327D01*
G01*
X-15406645Y-62481529D01*
G75*
G02*
X-15208925Y-62763903I-42327J-240047D01*
G01*
G37*
G36*
G01*
X106278736Y-68186069D02*
X106437190Y-67287432D01*
G75*
G02*
X106719564Y-67089712I240047J-42327D01*
G01*
X107199658Y-67174365D01*
G75*
G02*
X107397378Y-67456739I-42327J-240047D01*
G01*
X107238924Y-68355376D01*
G75*
G02*
X106956550Y-68553096I-240047J42327D01*
G01*
X106476456Y-68468443D01*
G75*
G02*
X106278736Y-68186069I42327J240047D01*
G01*
G37*
G36*
G01*
X108125251Y-68511659D02*
X108283705Y-67613022D01*
G75*
G02*
X108566079Y-67415302I240047J-42327D01*
G01*
X109046173Y-67499955D01*
G75*
G02*
X109243893Y-67782329I-42327J-240047D01*
G01*
X109085439Y-68680966D01*
G75*
G02*
X108803065Y-68878686I-240047J42327D01*
G01*
X108322971Y-68794033D01*
G75*
G02*
X108125251Y-68511659I42327J240047D01*
G01*
G37*
G36*
G01*
X89172074Y-55497724D02*
X89330528Y-54599087D01*
G75*
G02*
X89612902Y-54401367I240047J-42327D01*
G01*
X90092996Y-54486020D01*
G75*
G02*
X90290716Y-54768394I-42327J-240047D01*
G01*
X90132262Y-55667031D01*
G75*
G02*
X89849888Y-55864751I-240047J42327D01*
G01*
X89369794Y-55780098D01*
G75*
G02*
X89172074Y-55497724I42327J240047D01*
G01*
G37*
G36*
G01*
X91018589Y-55823314D02*
X91177043Y-54924677D01*
G75*
G02*
X91459417Y-54726957I240047J-42327D01*
G01*
X91939511Y-54811610D01*
G75*
G02*
X92137231Y-55093984I-42327J-240047D01*
G01*
X91978777Y-55992621D01*
G75*
G02*
X91696403Y-56190341I-240047J42327D01*
G01*
X91216309Y-56105688D01*
G75*
G02*
X91018589Y-55823314I42327J240047D01*
G01*
G37*
G36*
G01*
X71651912Y-45154464D02*
X71810366Y-44255827D01*
G75*
G02*
X72092740Y-44058107I240047J-42327D01*
G01*
X72572834Y-44142760D01*
G75*
G02*
X72770554Y-44425134I-42327J-240047D01*
G01*
X72612100Y-45323771D01*
G75*
G02*
X72329726Y-45521491I-240047J42327D01*
G01*
X71849632Y-45436838D01*
G75*
G02*
X71651912Y-45154464I42327J240047D01*
G01*
G37*
G36*
G01*
X73498427Y-45480054D02*
X73656881Y-44581417D01*
G75*
G02*
X73939255Y-44383697I240047J-42327D01*
G01*
X74419349Y-44468350D01*
G75*
G02*
X74617069Y-44750724I-42327J-240047D01*
G01*
X74458615Y-45649361D01*
G75*
G02*
X74176241Y-45847081I-240047J42327D01*
G01*
X73696147Y-45762428D01*
G75*
G02*
X73498427Y-45480054I42327J240047D01*
G01*
G37*
G36*
G01*
X53304747Y-39501369D02*
X53463201Y-38602732D01*
G75*
G02*
X53745575Y-38405012I240047J-42327D01*
G01*
X54225669Y-38489665D01*
G75*
G02*
X54423389Y-38772039I-42327J-240047D01*
G01*
X54264935Y-39670676D01*
G75*
G02*
X53982561Y-39868396I-240047J42327D01*
G01*
X53502467Y-39783743D01*
G75*
G02*
X53304747Y-39501369I42327J240047D01*
G01*
G37*
G36*
G01*
X55151262Y-39826959D02*
X55309716Y-38928322D01*
G75*
G02*
X55592090Y-38730602I240047J-42327D01*
G01*
X56072184Y-38815255D01*
G75*
G02*
X56269904Y-39097629I-42327J-240047D01*
G01*
X56111450Y-39996266D01*
G75*
G02*
X55829076Y-40193986I-240047J42327D01*
G01*
X55348982Y-40109333D01*
G75*
G02*
X55151262Y-39826959I42327J240047D01*
G01*
G37*
G36*
G01*
X33303576Y-43228606D02*
X33462030Y-42329969D01*
G75*
G02*
X33744404Y-42132249I240047J-42327D01*
G01*
X34224498Y-42216902D01*
G75*
G02*
X34422218Y-42499276I-42327J-240047D01*
G01*
X34263764Y-43397913D01*
G75*
G02*
X33981390Y-43595633I-240047J42327D01*
G01*
X33501296Y-43510980D01*
G75*
G02*
X33303576Y-43228606I42327J240047D01*
G01*
G37*
G36*
G01*
X35150091Y-43554196D02*
X35308545Y-42655559D01*
G75*
G02*
X35590919Y-42457839I240047J-42327D01*
G01*
X36071013Y-42542492D01*
G75*
G02*
X36268733Y-42824866I-42327J-240047D01*
G01*
X36110279Y-43723503D01*
G75*
G02*
X35827905Y-43921223I-240047J42327D01*
G01*
X35347811Y-43836570D01*
G75*
G02*
X35150091Y-43554196I42327J240047D01*
G01*
G37*
G36*
G01*
X13715908Y-44610760D02*
X13874362Y-43712123D01*
G75*
G02*
X14156736Y-43514403I240047J-42327D01*
G01*
X14636830Y-43599056D01*
G75*
G02*
X14834550Y-43881430I-42327J-240047D01*
G01*
X14676096Y-44780067D01*
G75*
G02*
X14393722Y-44977787I-240047J42327D01*
G01*
X13913628Y-44893134D01*
G75*
G02*
X13715908Y-44610760I42327J240047D01*
G01*
G37*
G36*
G01*
X15562423Y-44936350D02*
X15720877Y-44037713D01*
G75*
G02*
X16003251Y-43839993I240047J-42327D01*
G01*
X16483345Y-43924646D01*
G75*
G02*
X16681065Y-44207020I-42327J-240047D01*
G01*
X16522611Y-45105657D01*
G75*
G02*
X16240237Y-45303377I-240047J42327D01*
G01*
X15760143Y-45218724D01*
G75*
G02*
X15562423Y-44936350I42327J240047D01*
G01*
G37*
G36*
G01*
X-5871761Y-45992915D02*
X-5713307Y-45094278D01*
G75*
G02*
X-5430933Y-44896558I240047J-42327D01*
G01*
X-4950839Y-44981211D01*
G75*
G02*
X-4753119Y-45263585I-42327J-240047D01*
G01*
X-4911573Y-46162222D01*
G75*
G02*
X-5193947Y-46359942I-240047J42327D01*
G01*
X-5674041Y-46275289D01*
G75*
G02*
X-5871761Y-45992915I42327J240047D01*
G01*
G37*
G36*
G01*
X-4025246Y-46318505D02*
X-3866792Y-45419868D01*
G75*
G02*
X-3584418Y-45222148I240047J-42327D01*
G01*
X-3104324Y-45306801D01*
G75*
G02*
X-2906604Y-45589175I-42327J-240047D01*
G01*
X-3065058Y-46487812D01*
G75*
G02*
X-3347432Y-46685532I-240047J42327D01*
G01*
X-3827526Y-46600879D01*
G75*
G02*
X-4025246Y-46318505I42327J240047D01*
G01*
G37*
G36*
G01*
X105404111Y-47761315D02*
X105245657Y-48659952D01*
G75*
G02*
X104963283Y-48857672I-240047J42327D01*
G01*
X104483189Y-48773019D01*
G75*
G02*
X104285469Y-48490645I42327J240047D01*
G01*
X104443923Y-47592008D01*
G75*
G02*
X104726297Y-47394288I240047J-42327D01*
G01*
X105206391Y-47478941D01*
G75*
G02*
X105404111Y-47761315I-42327J-240047D01*
G01*
G37*
G36*
G01*
X103557596Y-47435724D02*
X103399142Y-48334361D01*
G75*
G02*
X103116768Y-48532081I-240047J42327D01*
G01*
X102636674Y-48447428D01*
G75*
G02*
X102438954Y-48165054I42327J240047D01*
G01*
X102597408Y-47266417D01*
G75*
G02*
X102879782Y-47068697I240047J-42327D01*
G01*
X103359876Y-47153350D01*
G75*
G02*
X103557596Y-47435724I-42327J-240047D01*
G01*
G37*
G36*
G01*
X88297450Y-35072970D02*
X88138996Y-35971607D01*
G75*
G02*
X87856622Y-36169327I-240047J42327D01*
G01*
X87376528Y-36084674D01*
G75*
G02*
X87178808Y-35802300I42327J240047D01*
G01*
X87337262Y-34903663D01*
G75*
G02*
X87619636Y-34705943I240047J-42327D01*
G01*
X88099730Y-34790596D01*
G75*
G02*
X88297450Y-35072970I-42327J-240047D01*
G01*
G37*
G36*
G01*
X86450935Y-34747379D02*
X86292481Y-35646016D01*
G75*
G02*
X86010107Y-35843736I-240047J42327D01*
G01*
X85530013Y-35759083D01*
G75*
G02*
X85332293Y-35476709I42327J240047D01*
G01*
X85490747Y-34578072D01*
G75*
G02*
X85773121Y-34380352I240047J-42327D01*
G01*
X86253215Y-34465005D01*
G75*
G02*
X86450935Y-34747379I-42327J-240047D01*
G01*
G37*
G36*
G01*
X70777288Y-24729708D02*
X70618834Y-25628345D01*
G75*
G02*
X70336460Y-25826065I-240047J42327D01*
G01*
X69856366Y-25741412D01*
G75*
G02*
X69658646Y-25459038I42327J240047D01*
G01*
X69817100Y-24560401D01*
G75*
G02*
X70099474Y-24362681I240047J-42327D01*
G01*
X70579568Y-24447334D01*
G75*
G02*
X70777288Y-24729708I-42327J-240047D01*
G01*
G37*
G36*
G01*
X68930773Y-24404117D02*
X68772319Y-25302754D01*
G75*
G02*
X68489945Y-25500474I-240047J42327D01*
G01*
X68009851Y-25415821D01*
G75*
G02*
X67812131Y-25133447I42327J240047D01*
G01*
X67970585Y-24234810D01*
G75*
G02*
X68252959Y-24037090I240047J-42327D01*
G01*
X68733053Y-24121743D01*
G75*
G02*
X68930773Y-24404117I-42327J-240047D01*
G01*
G37*
G36*
G01*
X52430123Y-19076613D02*
X52271669Y-19975250D01*
G75*
G02*
X51989295Y-20172970I-240047J42327D01*
G01*
X51509201Y-20088317D01*
G75*
G02*
X51311481Y-19805943I42327J240047D01*
G01*
X51469935Y-18907306D01*
G75*
G02*
X51752309Y-18709586I240047J-42327D01*
G01*
X52232403Y-18794239D01*
G75*
G02*
X52430123Y-19076613I-42327J-240047D01*
G01*
G37*
G36*
G01*
X50583608Y-18751022D02*
X50425154Y-19649659D01*
G75*
G02*
X50142780Y-19847379I-240047J42327D01*
G01*
X49662686Y-19762726D01*
G75*
G02*
X49464966Y-19480352I42327J240047D01*
G01*
X49623420Y-18581715D01*
G75*
G02*
X49905794Y-18383995I240047J-42327D01*
G01*
X50385888Y-18468648D01*
G75*
G02*
X50583608Y-18751022I-42327J-240047D01*
G01*
G37*
G36*
G01*
X32428952Y-22803853D02*
X32270498Y-23702490D01*
G75*
G02*
X31988124Y-23900210I-240047J42327D01*
G01*
X31508030Y-23815557D01*
G75*
G02*
X31310310Y-23533183I42327J240047D01*
G01*
X31468764Y-22634546D01*
G75*
G02*
X31751138Y-22436826I240047J-42327D01*
G01*
X32231232Y-22521479D01*
G75*
G02*
X32428952Y-22803853I-42327J-240047D01*
G01*
G37*
G36*
G01*
X30582437Y-22478262D02*
X30423983Y-23376899D01*
G75*
G02*
X30141609Y-23574619I-240047J42327D01*
G01*
X29661515Y-23489966D01*
G75*
G02*
X29463795Y-23207592I42327J240047D01*
G01*
X29622249Y-22308955D01*
G75*
G02*
X29904623Y-22111235I240047J-42327D01*
G01*
X30384717Y-22195888D01*
G75*
G02*
X30582437Y-22478262I-42327J-240047D01*
G01*
G37*
G36*
G01*
X12841285Y-24186008D02*
X12682831Y-25084645D01*
G75*
G02*
X12400457Y-25282365I-240047J42327D01*
G01*
X11920363Y-25197712D01*
G75*
G02*
X11722643Y-24915338I42327J240047D01*
G01*
X11881097Y-24016701D01*
G75*
G02*
X12163471Y-23818981I240047J-42327D01*
G01*
X12643565Y-23903634D01*
G75*
G02*
X12841285Y-24186008I-42327J-240047D01*
G01*
G37*
G36*
G01*
X10994770Y-23860417D02*
X10836316Y-24759054D01*
G75*
G02*
X10553942Y-24956774I-240047J42327D01*
G01*
X10073848Y-24872121D01*
G75*
G02*
X9876128Y-24589747I42327J240047D01*
G01*
X10034582Y-23691110D01*
G75*
G02*
X10316956Y-23493390I240047J-42327D01*
G01*
X10797050Y-23578043D01*
G75*
G02*
X10994770Y-23860417I-42327J-240047D01*
G01*
G37*
G36*
G01*
X-6746388Y-25568161D02*
X-6904842Y-26466798D01*
G75*
G02*
X-7187216Y-26664518I-240047J42327D01*
G01*
X-7667310Y-26579865D01*
G75*
G02*
X-7865030Y-26297491I42327J240047D01*
G01*
X-7706576Y-25398854D01*
G75*
G02*
X-7424202Y-25201134I240047J-42327D01*
G01*
X-6944108Y-25285787D01*
G75*
G02*
X-6746388Y-25568161I-42327J-240047D01*
G01*
G37*
G36*
G01*
X-8592903Y-25242570D02*
X-8751357Y-26141207D01*
G75*
G02*
X-9033731Y-26338927I-240047J42327D01*
G01*
X-9513825Y-26254274D01*
G75*
G02*
X-9711545Y-25971900I42327J240047D01*
G01*
X-9553091Y-25073263D01*
G75*
G02*
X-9270717Y-24875543I240047J-42327D01*
G01*
X-8790623Y-24960196D01*
G75*
G02*
X-8592903Y-25242570I-42327J-240047D01*
G01*
G37*
G36*
G01*
X112894758Y-30664735D02*
X113053212Y-29766098D01*
G75*
G02*
X113335586Y-29568378I240047J-42327D01*
G01*
X113815680Y-29653031D01*
G75*
G02*
X114013400Y-29935405I-42327J-240047D01*
G01*
X113854946Y-30834042D01*
G75*
G02*
X113572572Y-31031762I-240047J42327D01*
G01*
X113092478Y-30947109D01*
G75*
G02*
X112894758Y-30664735I42327J240047D01*
G01*
G37*
G36*
G01*
X114741273Y-30990325D02*
X114899727Y-30091688D01*
G75*
G02*
X115182101Y-29893968I240047J-42327D01*
G01*
X115662195Y-29978621D01*
G75*
G02*
X115859915Y-30260995I-42327J-240047D01*
G01*
X115701461Y-31159632D01*
G75*
G02*
X115419087Y-31357352I-240047J42327D01*
G01*
X114938993Y-31272699D01*
G75*
G02*
X114741273Y-30990325I42327J240047D01*
G01*
G37*
G36*
G01*
X95788099Y-17976391D02*
X95946553Y-17077754D01*
G75*
G02*
X96228927Y-16880034I240047J-42327D01*
G01*
X96709021Y-16964687D01*
G75*
G02*
X96906741Y-17247061I-42327J-240047D01*
G01*
X96748287Y-18145698D01*
G75*
G02*
X96465913Y-18343418I-240047J42327D01*
G01*
X95985819Y-18258765D01*
G75*
G02*
X95788099Y-17976391I42327J240047D01*
G01*
G37*
G36*
G01*
X97634614Y-18301981D02*
X97793068Y-17403344D01*
G75*
G02*
X98075442Y-17205624I240047J-42327D01*
G01*
X98555536Y-17290277D01*
G75*
G02*
X98753256Y-17572651I-42327J-240047D01*
G01*
X98594802Y-18471288D01*
G75*
G02*
X98312428Y-18669008I-240047J42327D01*
G01*
X97832334Y-18584355D01*
G75*
G02*
X97634614Y-18301981I42327J240047D01*
G01*
G37*
G36*
G01*
X78267937Y-7633130D02*
X78426391Y-6734493D01*
G75*
G02*
X78708765Y-6536773I240047J-42327D01*
G01*
X79188859Y-6621426D01*
G75*
G02*
X79386579Y-6903800I-42327J-240047D01*
G01*
X79228125Y-7802437D01*
G75*
G02*
X78945751Y-8000157I-240047J42327D01*
G01*
X78465657Y-7915504D01*
G75*
G02*
X78267937Y-7633130I42327J240047D01*
G01*
G37*
G36*
G01*
X80114452Y-7958720D02*
X80272906Y-7060083D01*
G75*
G02*
X80555280Y-6862363I240047J-42327D01*
G01*
X81035374Y-6947016D01*
G75*
G02*
X81233094Y-7229390I-42327J-240047D01*
G01*
X81074640Y-8128027D01*
G75*
G02*
X80792266Y-8325747I-240047J42327D01*
G01*
X80312172Y-8241094D01*
G75*
G02*
X80114452Y-7958720I42327J240047D01*
G01*
G37*
G36*
G01*
X59920772Y-1980035D02*
X60079226Y-1081398D01*
G75*
G02*
X60361600Y-883678I240047J-42327D01*
G01*
X60841694Y-968331D01*
G75*
G02*
X61039414Y-1250705I-42327J-240047D01*
G01*
X60880960Y-2149342D01*
G75*
G02*
X60598586Y-2347062I-240047J42327D01*
G01*
X60118492Y-2262409D01*
G75*
G02*
X59920772Y-1980035I42327J240047D01*
G01*
G37*
G36*
G01*
X61767287Y-2305625D02*
X61925741Y-1406988D01*
G75*
G02*
X62208115Y-1209268I240047J-42327D01*
G01*
X62688209Y-1293921D01*
G75*
G02*
X62885929Y-1576295I-42327J-240047D01*
G01*
X62727475Y-2474932D01*
G75*
G02*
X62445101Y-2672652I-240047J42327D01*
G01*
X61965007Y-2587999D01*
G75*
G02*
X61767287Y-2305625I42327J240047D01*
G01*
G37*
G36*
G01*
X39919601Y-5707272D02*
X40078055Y-4808635D01*
G75*
G02*
X40360429Y-4610915I240047J-42327D01*
G01*
X40840523Y-4695568D01*
G75*
G02*
X41038243Y-4977942I-42327J-240047D01*
G01*
X40879789Y-5876579D01*
G75*
G02*
X40597415Y-6074299I-240047J42327D01*
G01*
X40117321Y-5989646D01*
G75*
G02*
X39919601Y-5707272I42327J240047D01*
G01*
G37*
G36*
G01*
X41766116Y-6032862D02*
X41924570Y-5134225D01*
G75*
G02*
X42206944Y-4936505I240047J-42327D01*
G01*
X42687038Y-5021158D01*
G75*
G02*
X42884758Y-5303532I-42327J-240047D01*
G01*
X42726304Y-6202169D01*
G75*
G02*
X42443930Y-6399889I-240047J42327D01*
G01*
X41963836Y-6315236D01*
G75*
G02*
X41766116Y-6032862I42327J240047D01*
G01*
G37*
G36*
G01*
X20331930Y-7089428D02*
X20490384Y-6190791D01*
G75*
G02*
X20772758Y-5993071I240047J-42327D01*
G01*
X21252852Y-6077724D01*
G75*
G02*
X21450572Y-6360098I-42327J-240047D01*
G01*
X21292118Y-7258735D01*
G75*
G02*
X21009744Y-7456455I-240047J42327D01*
G01*
X20529650Y-7371802D01*
G75*
G02*
X20331930Y-7089428I42327J240047D01*
G01*
G37*
G36*
G01*
X22178445Y-7415018D02*
X22336899Y-6516381D01*
G75*
G02*
X22619273Y-6318661I240047J-42327D01*
G01*
X23099367Y-6403314D01*
G75*
G02*
X23297087Y-6685688I-42327J-240047D01*
G01*
X23138633Y-7584325D01*
G75*
G02*
X22856259Y-7782045I-240047J42327D01*
G01*
X22376165Y-7697392D01*
G75*
G02*
X22178445Y-7415018I42327J240047D01*
G01*
G37*
G36*
G01*
X744262Y-8471582D02*
X902716Y-7572945D01*
G75*
G02*
X1185090Y-7375225I240047J-42327D01*
G01*
X1665184Y-7459878D01*
G75*
G02*
X1862904Y-7742252I-42327J-240047D01*
G01*
X1704450Y-8640889D01*
G75*
G02*
X1422076Y-8838609I-240047J42327D01*
G01*
X941982Y-8753956D01*
G75*
G02*
X744262Y-8471582I42327J240047D01*
G01*
G37*
G36*
G01*
X2590777Y-8797172D02*
X2749231Y-7898535D01*
G75*
G02*
X3031605Y-7700815I240047J-42327D01*
G01*
X3511699Y-7785468D01*
G75*
G02*
X3709419Y-8067842I-42327J-240047D01*
G01*
X3550965Y-8966479D01*
G75*
G02*
X3268591Y-9164199I-240047J42327D01*
G01*
X2788497Y-9079546D01*
G75*
G02*
X2590777Y-8797172I42327J240047D01*
G01*
G37*
D15*
X128206860Y-81797091D03*
X162306860Y-20597091D03*
X162306860Y-81797091D03*
X128206860Y-20597091D03*
D16*
X135096860Y-83297091D03*
X152876860Y-83297091D03*
X147796860Y-83297091D03*
X142716860Y-83297091D03*
X145256860Y-83297091D03*
X150336860Y-83297091D03*
X137636860Y-83297091D03*
X140176860Y-83297091D03*
X155416860Y-83297091D03*
G36*
G01*
X156350000Y-37956251D02*
X156350000Y-37043751D01*
G75*
G02*
X156593750Y-36800001I243750J0D01*
G01*
X157081250Y-36800001D01*
G75*
G02*
X157325000Y-37043751I0J-243750D01*
G01*
X157325000Y-37956251D01*
G75*
G02*
X157081250Y-38200001I-243750J0D01*
G01*
X156593750Y-38200001D01*
G75*
G02*
X156350000Y-37956251I0J243750D01*
G01*
G37*
G36*
G01*
X154475000Y-37956251D02*
X154475000Y-37043751D01*
G75*
G02*
X154718750Y-36800001I243750J0D01*
G01*
X155206250Y-36800001D01*
G75*
G02*
X155450000Y-37043751I0J-243750D01*
G01*
X155450000Y-37956251D01*
G75*
G02*
X155206250Y-38200001I-243750J0D01*
G01*
X154718750Y-38200001D01*
G75*
G02*
X154475000Y-37956251I0J243750D01*
G01*
G37*
D17*
G36*
X153256860Y-76965951D02*
G01*
X152506860Y-76465951D01*
X152506860Y-75465951D01*
X154006860Y-75465951D01*
X154006860Y-76465951D01*
X153256860Y-76965951D01*
G37*
G36*
X152506860Y-77915951D02*
G01*
X152506860Y-76765951D01*
X153256860Y-77265951D01*
X154006860Y-76765951D01*
X154006860Y-77915951D01*
X152506860Y-77915951D01*
G37*
G36*
X151256860Y-76965951D02*
G01*
X150506860Y-76465951D01*
X150506860Y-75465951D01*
X152006860Y-75465951D01*
X152006860Y-76465951D01*
X151256860Y-76965951D01*
G37*
G36*
X150506860Y-77915951D02*
G01*
X150506860Y-76765951D01*
X151256860Y-77265951D01*
X152006860Y-76765951D01*
X152006860Y-77915951D01*
X150506860Y-77915951D01*
G37*
G36*
X149256860Y-76965951D02*
G01*
X148506860Y-76465951D01*
X148506860Y-75465951D01*
X150006860Y-75465951D01*
X150006860Y-76465951D01*
X149256860Y-76965951D01*
G37*
G36*
X148506860Y-77915951D02*
G01*
X148506860Y-76765951D01*
X149256860Y-77265951D01*
X150006860Y-76765951D01*
X150006860Y-77915951D01*
X148506860Y-77915951D01*
G37*
G36*
X147256860Y-76965951D02*
G01*
X146506860Y-76465951D01*
X146506860Y-75465951D01*
X148006860Y-75465951D01*
X148006860Y-76465951D01*
X147256860Y-76965951D01*
G37*
G36*
X146506860Y-77915951D02*
G01*
X146506860Y-76765951D01*
X147256860Y-77265951D01*
X148006860Y-76765951D01*
X148006860Y-77915951D01*
X146506860Y-77915951D01*
G37*
G36*
X136506860Y-77915951D02*
G01*
X136506860Y-76765951D01*
X137256860Y-77265951D01*
X138006860Y-76765951D01*
X138006860Y-77915951D01*
X136506860Y-77915951D01*
G37*
G36*
X137256860Y-76965951D02*
G01*
X136506860Y-76465951D01*
X136506860Y-75465951D01*
X138006860Y-75465951D01*
X138006860Y-76465951D01*
X137256860Y-76965951D01*
G37*
G36*
X139256860Y-76965951D02*
G01*
X138506860Y-76465951D01*
X138506860Y-75465951D01*
X140006860Y-75465951D01*
X140006860Y-76465951D01*
X139256860Y-76965951D01*
G37*
G36*
X138506860Y-77915951D02*
G01*
X138506860Y-76765951D01*
X139256860Y-77265951D01*
X140006860Y-76765951D01*
X140006860Y-77915951D01*
X138506860Y-77915951D01*
G37*
G36*
X141256860Y-76965951D02*
G01*
X140506860Y-76465951D01*
X140506860Y-75465951D01*
X142006860Y-75465951D01*
X142006860Y-76465951D01*
X141256860Y-76965951D01*
G37*
G36*
X140506860Y-77915951D02*
G01*
X140506860Y-76765951D01*
X141256860Y-77265951D01*
X142006860Y-76765951D01*
X142006860Y-77915951D01*
X140506860Y-77915951D01*
G37*
G36*
X143256860Y-76965951D02*
G01*
X142506860Y-76465951D01*
X142506860Y-75465951D01*
X144006860Y-75465951D01*
X144006860Y-76465951D01*
X143256860Y-76965951D01*
G37*
G36*
X142506860Y-77915951D02*
G01*
X142506860Y-76765951D01*
X143256860Y-77265951D01*
X144006860Y-76765951D01*
X144006860Y-77915951D01*
X142506860Y-77915951D01*
G37*
G36*
X144506860Y-77915951D02*
G01*
X144506860Y-76765951D01*
X145256860Y-77265951D01*
X146006860Y-76765951D01*
X146006860Y-77915951D01*
X144506860Y-77915951D01*
G37*
G36*
X145256860Y-76965951D02*
G01*
X144506860Y-76465951D01*
X144506860Y-75465951D01*
X146006860Y-75465951D01*
X146006860Y-76465951D01*
X145256860Y-76965951D01*
G37*
D18*
X145600000Y-28400001D03*
X144650000Y-28400001D03*
X146550000Y-28400001D03*
X146550000Y-30600001D03*
X145600000Y-30600001D03*
X144650000Y-30600001D03*
G36*
G01*
X132906250Y-39893981D02*
X131993750Y-39893981D01*
G75*
G02*
X131750000Y-39650231I0J243750D01*
G01*
X131750000Y-39162731D01*
G75*
G02*
X131993750Y-38918981I243750J0D01*
G01*
X132906250Y-38918981D01*
G75*
G02*
X133150000Y-39162731I0J-243750D01*
G01*
X133150000Y-39650231D01*
G75*
G02*
X132906250Y-39893981I-243750J0D01*
G01*
G37*
G36*
G01*
X132906250Y-38018981D02*
X131993750Y-38018981D01*
G75*
G02*
X131750000Y-37775231I0J243750D01*
G01*
X131750000Y-37287731D01*
G75*
G02*
X131993750Y-37043981I243750J0D01*
G01*
X132906250Y-37043981D01*
G75*
G02*
X133150000Y-37287731I0J-243750D01*
G01*
X133150000Y-37775231D01*
G75*
G02*
X132906250Y-38018981I-243750J0D01*
G01*
G37*
G36*
G01*
X130906249Y-39893981D02*
X129993749Y-39893981D01*
G75*
G02*
X129749999Y-39650231I0J243750D01*
G01*
X129749999Y-39162731D01*
G75*
G02*
X129993749Y-38918981I243750J0D01*
G01*
X130906249Y-38918981D01*
G75*
G02*
X131149999Y-39162731I0J-243750D01*
G01*
X131149999Y-39650231D01*
G75*
G02*
X130906249Y-39893981I-243750J0D01*
G01*
G37*
G36*
G01*
X130906249Y-38018981D02*
X129993749Y-38018981D01*
G75*
G02*
X129749999Y-37775231I0J243750D01*
G01*
X129749999Y-37287731D01*
G75*
G02*
X129993749Y-37043981I243750J0D01*
G01*
X130906249Y-37043981D01*
G75*
G02*
X131149999Y-37287731I0J-243750D01*
G01*
X131149999Y-37775231D01*
G75*
G02*
X130906249Y-38018981I-243750J0D01*
G01*
G37*
G36*
G01*
X152859979Y-53218982D02*
X153772479Y-53218982D01*
G75*
G02*
X154016229Y-53462732I0J-243750D01*
G01*
X154016229Y-53950232D01*
G75*
G02*
X153772479Y-54193982I-243750J0D01*
G01*
X152859979Y-54193982D01*
G75*
G02*
X152616229Y-53950232I0J243750D01*
G01*
X152616229Y-53462732D01*
G75*
G02*
X152859979Y-53218982I243750J0D01*
G01*
G37*
G36*
G01*
X152859979Y-55093982D02*
X153772479Y-55093982D01*
G75*
G02*
X154016229Y-55337732I0J-243750D01*
G01*
X154016229Y-55825232D01*
G75*
G02*
X153772479Y-56068982I-243750J0D01*
G01*
X152859979Y-56068982D01*
G75*
G02*
X152616229Y-55825232I0J243750D01*
G01*
X152616229Y-55337732D01*
G75*
G02*
X152859979Y-55093982I243750J0D01*
G01*
G37*
G36*
G01*
X144041479Y-42893982D02*
X143190979Y-42893982D01*
G75*
G02*
X142941229Y-42644232I0J249750D01*
G01*
X142941229Y-41743732D01*
G75*
G02*
X143190979Y-41493982I249750J0D01*
G01*
X144041479Y-41493982D01*
G75*
G02*
X144291229Y-41743732I0J-249750D01*
G01*
X144291229Y-42644232D01*
G75*
G02*
X144041479Y-42893982I-249750J0D01*
G01*
G37*
G36*
G01*
X144041479Y-40193982D02*
X143190979Y-40193982D01*
G75*
G02*
X142941229Y-39944232I0J249750D01*
G01*
X142941229Y-39043732D01*
G75*
G02*
X143190979Y-38793982I249750J0D01*
G01*
X144041479Y-38793982D01*
G75*
G02*
X144291229Y-39043732I0J-249750D01*
G01*
X144291229Y-39944232D01*
G75*
G02*
X144041479Y-40193982I-249750J0D01*
G01*
G37*
G36*
G01*
X128150000Y-39721762D02*
X128150000Y-40572262D01*
G75*
G02*
X127900250Y-40822012I-249750J0D01*
G01*
X126999750Y-40822012D01*
G75*
G02*
X126750000Y-40572262I0J249750D01*
G01*
X126750000Y-39721762D01*
G75*
G02*
X126999750Y-39472012I249750J0D01*
G01*
X127900250Y-39472012D01*
G75*
G02*
X128150000Y-39721762I0J-249750D01*
G01*
G37*
G36*
G01*
X125450000Y-39721762D02*
X125450000Y-40572262D01*
G75*
G02*
X125200250Y-40822012I-249750J0D01*
G01*
X124299750Y-40822012D01*
G75*
G02*
X124050000Y-40572262I0J249750D01*
G01*
X124050000Y-39721762D01*
G75*
G02*
X124299750Y-39472012I249750J0D01*
G01*
X125200250Y-39472012D01*
G75*
G02*
X125450000Y-39721762I0J-249750D01*
G01*
G37*
G36*
G01*
X127534490Y-28721762D02*
X127534490Y-29572262D01*
G75*
G02*
X127284740Y-29822012I-249750J0D01*
G01*
X126384240Y-29822012D01*
G75*
G02*
X126134490Y-29572262I0J249750D01*
G01*
X126134490Y-28721762D01*
G75*
G02*
X126384240Y-28472012I249750J0D01*
G01*
X127284740Y-28472012D01*
G75*
G02*
X127534490Y-28721762I0J-249750D01*
G01*
G37*
G36*
G01*
X124834490Y-28721762D02*
X124834490Y-29572262D01*
G75*
G02*
X124584740Y-29822012I-249750J0D01*
G01*
X123684240Y-29822012D01*
G75*
G02*
X123434490Y-29572262I0J249750D01*
G01*
X123434490Y-28721762D01*
G75*
G02*
X123684240Y-28472012I249750J0D01*
G01*
X124584740Y-28472012D01*
G75*
G02*
X124834490Y-28721762I0J-249750D01*
G01*
G37*
G36*
G01*
X141450000Y-23374753D02*
X141450000Y-24225253D01*
G75*
G02*
X141200250Y-24475003I-249750J0D01*
G01*
X140299750Y-24475003D01*
G75*
G02*
X140050000Y-24225253I0J249750D01*
G01*
X140050000Y-23374753D01*
G75*
G02*
X140299750Y-23125003I249750J0D01*
G01*
X141200250Y-23125003D01*
G75*
G02*
X141450000Y-23374753I0J-249750D01*
G01*
G37*
G36*
G01*
X138750000Y-23374753D02*
X138750000Y-24225253D01*
G75*
G02*
X138500250Y-24475003I-249750J0D01*
G01*
X137599750Y-24475003D01*
G75*
G02*
X137350000Y-24225253I0J249750D01*
G01*
X137350000Y-23374753D01*
G75*
G02*
X137599750Y-23125003I249750J0D01*
G01*
X138500250Y-23125003D01*
G75*
G02*
X138750000Y-23374753I0J-249750D01*
G01*
G37*
D14*
X76849773Y-112688475D03*
X40841104Y-94324993D03*
X-18340335Y-62873820D03*
X-15032323Y-44113153D03*
X-11724312Y-25352487D03*
X-8416300Y-6591820D03*
X117114885Y-14605555D03*
X100008297Y-1917261D03*
X82488207Y8425955D03*
X64141119Y14079027D03*
X44140034Y10351805D03*
X24552548Y8969693D03*
X4964858Y7587507D03*
D19*
X117124261Y-4398742D03*
D20*
X117124261Y-218742D03*
D19*
X125764261Y-4398742D03*
D20*
X125764261Y-218742D03*
D21*
X124669261Y-5813742D03*
X123894261Y-5813742D03*
D22*
X123194261Y-5813742D03*
X122694261Y-5813742D03*
X122194261Y-5813742D03*
X121694261Y-5813742D03*
X121194261Y-5813742D03*
X120694261Y-5813742D03*
X120194261Y-5813742D03*
X119694261Y-5813742D03*
D21*
X118994261Y-5813742D03*
X118219261Y-5813742D03*
D23*
X118554261Y-3868742D03*
X124334261Y-3868742D03*
D18*
X142850000Y-88027001D03*
X144750000Y-88027001D03*
X143800000Y-85827001D03*
D24*
X155773000Y-66650001D03*
X155773000Y-68550001D03*
X157973000Y-67600001D03*
X155794563Y-70952992D03*
X155794563Y-72852992D03*
X157994563Y-71902992D03*
D18*
X154301349Y-41518269D03*
X156201349Y-41518269D03*
X155251349Y-39318269D03*
X158301350Y-41518271D03*
X160201350Y-41518271D03*
X159251350Y-39318271D03*
D24*
X140873000Y-26550001D03*
X140873000Y-28450001D03*
X143073000Y-27500001D03*
D18*
X123000000Y-21927001D03*
X123950000Y-24127001D03*
X122050000Y-24127001D03*
G36*
G01*
X118884369Y-102265942D02*
X118884369Y-101353442D01*
G75*
G02*
X119128119Y-101109692I243750J0D01*
G01*
X119615619Y-101109692D01*
G75*
G02*
X119859369Y-101353442I0J-243750D01*
G01*
X119859369Y-102265942D01*
G75*
G02*
X119615619Y-102509692I-243750J0D01*
G01*
X119128119Y-102509692D01*
G75*
G02*
X118884369Y-102265942I0J243750D01*
G01*
G37*
G36*
G01*
X120759369Y-102265942D02*
X120759369Y-101353442D01*
G75*
G02*
X121003119Y-101109692I243750J0D01*
G01*
X121490619Y-101109692D01*
G75*
G02*
X121734369Y-101353442I0J-243750D01*
G01*
X121734369Y-102265942D01*
G75*
G02*
X121490619Y-102509692I-243750J0D01*
G01*
X121003119Y-102509692D01*
G75*
G02*
X120759369Y-102265942I0J243750D01*
G01*
G37*
G36*
G01*
X118884370Y-96265941D02*
X118884370Y-95353441D01*
G75*
G02*
X119128120Y-95109691I243750J0D01*
G01*
X119615620Y-95109691D01*
G75*
G02*
X119859370Y-95353441I0J-243750D01*
G01*
X119859370Y-96265941D01*
G75*
G02*
X119615620Y-96509691I-243750J0D01*
G01*
X119128120Y-96509691D01*
G75*
G02*
X118884370Y-96265941I0J243750D01*
G01*
G37*
G36*
G01*
X120759370Y-96265941D02*
X120759370Y-95353441D01*
G75*
G02*
X121003120Y-95109691I243750J0D01*
G01*
X121490620Y-95109691D01*
G75*
G02*
X121734370Y-95353441I0J-243750D01*
G01*
X121734370Y-96265941D01*
G75*
G02*
X121490620Y-96509691I-243750J0D01*
G01*
X121003120Y-96509691D01*
G75*
G02*
X120759370Y-96265941I0J243750D01*
G01*
G37*
G36*
G01*
X133197530Y-68534371D02*
X134110030Y-68534371D01*
G75*
G02*
X134353780Y-68778121I0J-243750D01*
G01*
X134353780Y-69265621D01*
G75*
G02*
X134110030Y-69509371I-243750J0D01*
G01*
X133197530Y-69509371D01*
G75*
G02*
X132953780Y-69265621I0J243750D01*
G01*
X132953780Y-68778121D01*
G75*
G02*
X133197530Y-68534371I243750J0D01*
G01*
G37*
G36*
G01*
X133197530Y-70409371D02*
X134110030Y-70409371D01*
G75*
G02*
X134353780Y-70653121I0J-243750D01*
G01*
X134353780Y-71140621D01*
G75*
G02*
X134110030Y-71384371I-243750J0D01*
G01*
X133197530Y-71384371D01*
G75*
G02*
X132953780Y-71140621I0J243750D01*
G01*
X132953780Y-70653121D01*
G75*
G02*
X133197530Y-70409371I243750J0D01*
G01*
G37*
G36*
G01*
X141972480Y-42868982D02*
X141059980Y-42868982D01*
G75*
G02*
X140816230Y-42625232I0J243750D01*
G01*
X140816230Y-42137732D01*
G75*
G02*
X141059980Y-41893982I243750J0D01*
G01*
X141972480Y-41893982D01*
G75*
G02*
X142216230Y-42137732I0J-243750D01*
G01*
X142216230Y-42625232D01*
G75*
G02*
X141972480Y-42868982I-243750J0D01*
G01*
G37*
G36*
G01*
X141972480Y-40993982D02*
X141059980Y-40993982D01*
G75*
G02*
X140816230Y-40750232I0J243750D01*
G01*
X140816230Y-40262732D01*
G75*
G02*
X141059980Y-40018982I243750J0D01*
G01*
X141972480Y-40018982D01*
G75*
G02*
X142216230Y-40262732I0J-243750D01*
G01*
X142216230Y-40750232D01*
G75*
G02*
X141972480Y-40993982I-243750J0D01*
G01*
G37*
G36*
G01*
X139972479Y-42868980D02*
X139059979Y-42868980D01*
G75*
G02*
X138816229Y-42625230I0J243750D01*
G01*
X138816229Y-42137730D01*
G75*
G02*
X139059979Y-41893980I243750J0D01*
G01*
X139972479Y-41893980D01*
G75*
G02*
X140216229Y-42137730I0J-243750D01*
G01*
X140216229Y-42625230D01*
G75*
G02*
X139972479Y-42868980I-243750J0D01*
G01*
G37*
G36*
G01*
X139972479Y-40993980D02*
X139059979Y-40993980D01*
G75*
G02*
X138816229Y-40750230I0J243750D01*
G01*
X138816229Y-40262730D01*
G75*
G02*
X139059979Y-40018980I243750J0D01*
G01*
X139972479Y-40018980D01*
G75*
G02*
X140216229Y-40262730I0J-243750D01*
G01*
X140216229Y-40750230D01*
G75*
G02*
X139972479Y-40993980I-243750J0D01*
G01*
G37*
G36*
G01*
X137972480Y-42868982D02*
X137059980Y-42868982D01*
G75*
G02*
X136816230Y-42625232I0J243750D01*
G01*
X136816230Y-42137732D01*
G75*
G02*
X137059980Y-41893982I243750J0D01*
G01*
X137972480Y-41893982D01*
G75*
G02*
X138216230Y-42137732I0J-243750D01*
G01*
X138216230Y-42625232D01*
G75*
G02*
X137972480Y-42868982I-243750J0D01*
G01*
G37*
G36*
G01*
X137972480Y-40993982D02*
X137059980Y-40993982D01*
G75*
G02*
X136816230Y-40750232I0J243750D01*
G01*
X136816230Y-40262732D01*
G75*
G02*
X137059980Y-40018982I243750J0D01*
G01*
X137972480Y-40018982D01*
G75*
G02*
X138216230Y-40262732I0J-243750D01*
G01*
X138216230Y-40750232D01*
G75*
G02*
X137972480Y-40993982I-243750J0D01*
G01*
G37*
G36*
G01*
X141791230Y-65500231D02*
X141791230Y-64587731D01*
G75*
G02*
X142034980Y-64343981I243750J0D01*
G01*
X142522480Y-64343981D01*
G75*
G02*
X142766230Y-64587731I0J-243750D01*
G01*
X142766230Y-65500231D01*
G75*
G02*
X142522480Y-65743981I-243750J0D01*
G01*
X142034980Y-65743981D01*
G75*
G02*
X141791230Y-65500231I0J243750D01*
G01*
G37*
G36*
G01*
X143666230Y-65500231D02*
X143666230Y-64587731D01*
G75*
G02*
X143909980Y-64343981I243750J0D01*
G01*
X144397480Y-64343981D01*
G75*
G02*
X144641230Y-64587731I0J-243750D01*
G01*
X144641230Y-65500231D01*
G75*
G02*
X144397480Y-65743981I-243750J0D01*
G01*
X143909980Y-65743981D01*
G75*
G02*
X143666230Y-65500231I0J243750D01*
G01*
G37*
G36*
G01*
X139241230Y-64587731D02*
X139241230Y-65500231D01*
G75*
G02*
X138997480Y-65743981I-243750J0D01*
G01*
X138509980Y-65743981D01*
G75*
G02*
X138266230Y-65500231I0J243750D01*
G01*
X138266230Y-64587731D01*
G75*
G02*
X138509980Y-64343981I243750J0D01*
G01*
X138997480Y-64343981D01*
G75*
G02*
X139241230Y-64587731I0J-243750D01*
G01*
G37*
G36*
G01*
X137366230Y-64587731D02*
X137366230Y-65500231D01*
G75*
G02*
X137122480Y-65743981I-243750J0D01*
G01*
X136634980Y-65743981D01*
G75*
G02*
X136391230Y-65500231I0J243750D01*
G01*
X136391230Y-64587731D01*
G75*
G02*
X136634980Y-64343981I243750J0D01*
G01*
X137122480Y-64343981D01*
G75*
G02*
X137366230Y-64587731I0J-243750D01*
G01*
G37*
G36*
G01*
X127359980Y-53318983D02*
X128272480Y-53318983D01*
G75*
G02*
X128516230Y-53562733I0J-243750D01*
G01*
X128516230Y-54050233D01*
G75*
G02*
X128272480Y-54293983I-243750J0D01*
G01*
X127359980Y-54293983D01*
G75*
G02*
X127116230Y-54050233I0J243750D01*
G01*
X127116230Y-53562733D01*
G75*
G02*
X127359980Y-53318983I243750J0D01*
G01*
G37*
G36*
G01*
X127359980Y-55193983D02*
X128272480Y-55193983D01*
G75*
G02*
X128516230Y-55437733I0J-243750D01*
G01*
X128516230Y-55925233D01*
G75*
G02*
X128272480Y-56168983I-243750J0D01*
G01*
X127359980Y-56168983D01*
G75*
G02*
X127116230Y-55925233I0J243750D01*
G01*
X127116230Y-55437733D01*
G75*
G02*
X127359980Y-55193983I243750J0D01*
G01*
G37*
G36*
G01*
X154475000Y-31956252D02*
X154475000Y-31043752D01*
G75*
G02*
X154718750Y-30800002I243750J0D01*
G01*
X155206250Y-30800002D01*
G75*
G02*
X155450000Y-31043752I0J-243750D01*
G01*
X155450000Y-31956252D01*
G75*
G02*
X155206250Y-32200002I-243750J0D01*
G01*
X154718750Y-32200002D01*
G75*
G02*
X154475000Y-31956252I0J243750D01*
G01*
G37*
G36*
G01*
X156350000Y-31956252D02*
X156350000Y-31043752D01*
G75*
G02*
X156593750Y-30800002I243750J0D01*
G01*
X157081250Y-30800002D01*
G75*
G02*
X157325000Y-31043752I0J-243750D01*
G01*
X157325000Y-31956252D01*
G75*
G02*
X157081250Y-32200002I-243750J0D01*
G01*
X156593750Y-32200002D01*
G75*
G02*
X156350000Y-31956252I0J243750D01*
G01*
G37*
G36*
G01*
X112334860Y-7509413D02*
X113247360Y-7509413D01*
G75*
G02*
X113491110Y-7753163I0J-243750D01*
G01*
X113491110Y-8240663D01*
G75*
G02*
X113247360Y-8484413I-243750J0D01*
G01*
X112334860Y-8484413D01*
G75*
G02*
X112091110Y-8240663I0J243750D01*
G01*
X112091110Y-7753163D01*
G75*
G02*
X112334860Y-7509413I243750J0D01*
G01*
G37*
G36*
G01*
X112334860Y-9384413D02*
X113247360Y-9384413D01*
G75*
G02*
X113491110Y-9628163I0J-243750D01*
G01*
X113491110Y-10115663D01*
G75*
G02*
X113247360Y-10359413I-243750J0D01*
G01*
X112334860Y-10359413D01*
G75*
G02*
X112091110Y-10115663I0J243750D01*
G01*
X112091110Y-9628163D01*
G75*
G02*
X112334860Y-9384413I243750J0D01*
G01*
G37*
G36*
G01*
X150375000Y-89756250D02*
X150375000Y-88843750D01*
G75*
G02*
X150618750Y-88600000I243750J0D01*
G01*
X151106250Y-88600000D01*
G75*
G02*
X151350000Y-88843750I0J-243750D01*
G01*
X151350000Y-89756250D01*
G75*
G02*
X151106250Y-90000000I-243750J0D01*
G01*
X150618750Y-90000000D01*
G75*
G02*
X150375000Y-89756250I0J243750D01*
G01*
G37*
G36*
G01*
X152250000Y-89756250D02*
X152250000Y-88843750D01*
G75*
G02*
X152493750Y-88600000I243750J0D01*
G01*
X152981250Y-88600000D01*
G75*
G02*
X153225000Y-88843750I0J-243750D01*
G01*
X153225000Y-89756250D01*
G75*
G02*
X152981250Y-90000000I-243750J0D01*
G01*
X152493750Y-90000000D01*
G75*
G02*
X152250000Y-89756250I0J243750D01*
G01*
G37*
G36*
G01*
X145325000Y-94443750D02*
X145325000Y-95356250D01*
G75*
G02*
X145081250Y-95600000I-243750J0D01*
G01*
X144593750Y-95600000D01*
G75*
G02*
X144350000Y-95356250I0J243750D01*
G01*
X144350000Y-94443750D01*
G75*
G02*
X144593750Y-94200000I243750J0D01*
G01*
X145081250Y-94200000D01*
G75*
G02*
X145325000Y-94443750I0J-243750D01*
G01*
G37*
G36*
G01*
X143450000Y-94443750D02*
X143450000Y-95356250D01*
G75*
G02*
X143206250Y-95600000I-243750J0D01*
G01*
X142718750Y-95600000D01*
G75*
G02*
X142475000Y-95356250I0J243750D01*
G01*
X142475000Y-94443750D01*
G75*
G02*
X142718750Y-94200000I243750J0D01*
G01*
X143206250Y-94200000D01*
G75*
G02*
X143450000Y-94443750I0J-243750D01*
G01*
G37*
G36*
G01*
X-8017422Y-69198131D02*
X-8175876Y-70096768D01*
G75*
G02*
X-8458250Y-70294488I-240047J42327D01*
G01*
X-8938344Y-70209835D01*
G75*
G02*
X-9136064Y-69927461I42327J240047D01*
G01*
X-8977610Y-69028824D01*
G75*
G02*
X-8695236Y-68831104I240047J-42327D01*
G01*
X-8215142Y-68915757D01*
G75*
G02*
X-8017422Y-69198131I-42327J-240047D01*
G01*
G37*
G36*
G01*
X-9863936Y-68872541D02*
X-10022390Y-69771178D01*
G75*
G02*
X-10304764Y-69968898I-240047J42327D01*
G01*
X-10784858Y-69884245D01*
G75*
G02*
X-10982578Y-69601871I42327J240047D01*
G01*
X-10824124Y-68703234D01*
G75*
G02*
X-10541750Y-68505514I240047J-42327D01*
G01*
X-10061656Y-68590167D01*
G75*
G02*
X-9863936Y-68872541I-42327J-240047D01*
G01*
G37*
G36*
G01*
X19482578Y-73998131D02*
X19324124Y-74896768D01*
G75*
G02*
X19041750Y-75094488I-240047J42327D01*
G01*
X18561656Y-75009835D01*
G75*
G02*
X18363936Y-74727461I42327J240047D01*
G01*
X18522390Y-73828824D01*
G75*
G02*
X18804764Y-73631104I240047J-42327D01*
G01*
X19284858Y-73715757D01*
G75*
G02*
X19482578Y-73998131I-42327J-240047D01*
G01*
G37*
G36*
G01*
X17636064Y-73672541D02*
X17477610Y-74571178D01*
G75*
G02*
X17195236Y-74768898I-240047J42327D01*
G01*
X16715142Y-74684245D01*
G75*
G02*
X16517422Y-74401871I42327J240047D01*
G01*
X16675876Y-73503234D01*
G75*
G02*
X16958250Y-73305514I240047J-42327D01*
G01*
X17438344Y-73390167D01*
G75*
G02*
X17636064Y-73672541I-42327J-240047D01*
G01*
G37*
G36*
G01*
X45457120Y-95768189D02*
X44895329Y-96487248D01*
G75*
G02*
X44553184Y-96529259I-192078J150067D01*
G01*
X44169029Y-96229124D01*
G75*
G02*
X44127018Y-95886979I150067J192078D01*
G01*
X44688809Y-95167920D01*
G75*
G02*
X45030954Y-95125909I192078J-150067D01*
G01*
X45415109Y-95426044D01*
G75*
G02*
X45457120Y-95768189I-150067J-192078D01*
G01*
G37*
G36*
G01*
X43979600Y-94613823D02*
X43417809Y-95332882D01*
G75*
G02*
X43075664Y-95374893I-192078J150067D01*
G01*
X42691509Y-95074758D01*
G75*
G02*
X42649498Y-94732613I150067J192078D01*
G01*
X43211289Y-94013554D01*
G75*
G02*
X43553434Y-93971543I192078J-150067D01*
G01*
X43937589Y-94271678D01*
G75*
G02*
X43979600Y-94613823I-150067J-192078D01*
G01*
G37*
G36*
G01*
X60935309Y-107674489D02*
X60373518Y-108393548D01*
G75*
G02*
X60031373Y-108435559I-192078J150067D01*
G01*
X59647218Y-108135424D01*
G75*
G02*
X59605207Y-107793279I150067J192078D01*
G01*
X60166998Y-107074220D01*
G75*
G02*
X60509143Y-107032209I192078J-150067D01*
G01*
X60893298Y-107332344D01*
G75*
G02*
X60935309Y-107674489I-150067J-192078D01*
G01*
G37*
G36*
G01*
X59457789Y-106520123D02*
X58895998Y-107239182D01*
G75*
G02*
X58553853Y-107281193I-192078J150067D01*
G01*
X58169698Y-106981058D01*
G75*
G02*
X58127687Y-106638913I150067J192078D01*
G01*
X58689478Y-105919854D01*
G75*
G02*
X59031623Y-105877843I192078J-150067D01*
G01*
X59415778Y-106177978D01*
G75*
G02*
X59457789Y-106520123I-150067J-192078D01*
G01*
G37*
G36*
G01*
X80064158Y-120051760D02*
X79905704Y-120950397D01*
G75*
G02*
X79623330Y-121148117I-240047J42327D01*
G01*
X79143236Y-121063464D01*
G75*
G02*
X78945516Y-120781090I42327J240047D01*
G01*
X79103970Y-119882453D01*
G75*
G02*
X79386344Y-119684733I240047J-42327D01*
G01*
X79866438Y-119769386D01*
G75*
G02*
X80064158Y-120051760I-42327J-240047D01*
G01*
G37*
G36*
G01*
X78217644Y-119726170D02*
X78059190Y-120624807D01*
G75*
G02*
X77776816Y-120822527I-240047J42327D01*
G01*
X77296722Y-120737874D01*
G75*
G02*
X77099002Y-120455500I42327J240047D01*
G01*
X77257456Y-119556863D01*
G75*
G02*
X77539830Y-119359143I240047J-42327D01*
G01*
X78019924Y-119443796D01*
G75*
G02*
X78217644Y-119726170I-42327J-240047D01*
G01*
G37*
G36*
G01*
X111844039Y-118168642D02*
X112095558Y-119045793D01*
G75*
G02*
X111928437Y-119347288I-234308J-67187D01*
G01*
X111459822Y-119481661D01*
G75*
G02*
X111158327Y-119314540I-67187J234308D01*
G01*
X110906808Y-118437389D01*
G75*
G02*
X111073929Y-118135894I234308J67187D01*
G01*
X111542544Y-118001521D01*
G75*
G02*
X111844039Y-118168642I67187J-234308D01*
G01*
G37*
G36*
G01*
X110041673Y-118685462D02*
X110293192Y-119562613D01*
G75*
G02*
X110126071Y-119864108I-234308J-67187D01*
G01*
X109657456Y-119998481D01*
G75*
G02*
X109355961Y-119831360I-67187J234308D01*
G01*
X109104442Y-118954209D01*
G75*
G02*
X109271563Y-118652714I234308J67187D01*
G01*
X109740178Y-118518341D01*
G75*
G02*
X110041673Y-118685462I67187J-234308D01*
G01*
G37*
G36*
G01*
X144864571Y-101128702D02*
X145451115Y-101827717D01*
G75*
G02*
X145421071Y-102171119I-186723J-156679D01*
G01*
X145047625Y-102484478D01*
G75*
G02*
X144704223Y-102454434I-156679J186723D01*
G01*
X144117679Y-101755419D01*
G75*
G02*
X144147723Y-101412017I186723J156679D01*
G01*
X144521169Y-101098658D01*
G75*
G02*
X144864571Y-101128702I156679J-186723D01*
G01*
G37*
G36*
G01*
X143428237Y-102333928D02*
X144014781Y-103032943D01*
G75*
G02*
X143984737Y-103376345I-186723J-156679D01*
G01*
X143611291Y-103689704D01*
G75*
G02*
X143267889Y-103659660I-156679J186723D01*
G01*
X142681345Y-102960645D01*
G75*
G02*
X142711389Y-102617243I186723J156679D01*
G01*
X143084835Y-102303884D01*
G75*
G02*
X143428237Y-102333928I156679J-186723D01*
G01*
G37*
G36*
G01*
X161318709Y-72846891D02*
X162231209Y-72846891D01*
G75*
G02*
X162474959Y-73090641I0J-243750D01*
G01*
X162474959Y-73578141D01*
G75*
G02*
X162231209Y-73821891I-243750J0D01*
G01*
X161318709Y-73821891D01*
G75*
G02*
X161074959Y-73578141I0J243750D01*
G01*
X161074959Y-73090641D01*
G75*
G02*
X161318709Y-72846891I243750J0D01*
G01*
G37*
G36*
G01*
X161318709Y-74721891D02*
X162231209Y-74721891D01*
G75*
G02*
X162474959Y-74965641I0J-243750D01*
G01*
X162474959Y-75453141D01*
G75*
G02*
X162231209Y-75696891I-243750J0D01*
G01*
X161318709Y-75696891D01*
G75*
G02*
X161074959Y-75453141I0J243750D01*
G01*
X161074959Y-74965641D01*
G75*
G02*
X161318709Y-74721891I243750J0D01*
G01*
G37*
G36*
G01*
X161318710Y-52537521D02*
X162231210Y-52537521D01*
G75*
G02*
X162474960Y-52781271I0J-243750D01*
G01*
X162474960Y-53268771D01*
G75*
G02*
X162231210Y-53512521I-243750J0D01*
G01*
X161318710Y-53512521D01*
G75*
G02*
X161074960Y-53268771I0J243750D01*
G01*
X161074960Y-52781271D01*
G75*
G02*
X161318710Y-52537521I243750J0D01*
G01*
G37*
G36*
G01*
X161318710Y-54412521D02*
X162231210Y-54412521D01*
G75*
G02*
X162474960Y-54656271I0J-243750D01*
G01*
X162474960Y-55143771D01*
G75*
G02*
X162231210Y-55387521I-243750J0D01*
G01*
X161318710Y-55387521D01*
G75*
G02*
X161074960Y-55143771I0J243750D01*
G01*
X161074960Y-54656271D01*
G75*
G02*
X161318710Y-54412521I243750J0D01*
G01*
G37*
G36*
G01*
X161318710Y-32337522D02*
X162231210Y-32337522D01*
G75*
G02*
X162474960Y-32581272I0J-243750D01*
G01*
X162474960Y-33068772D01*
G75*
G02*
X162231210Y-33312522I-243750J0D01*
G01*
X161318710Y-33312522D01*
G75*
G02*
X161074960Y-33068772I0J243750D01*
G01*
X161074960Y-32581272D01*
G75*
G02*
X161318710Y-32337522I243750J0D01*
G01*
G37*
G36*
G01*
X161318710Y-34212522D02*
X162231210Y-34212522D01*
G75*
G02*
X162474960Y-34456272I0J-243750D01*
G01*
X162474960Y-34943772D01*
G75*
G02*
X162231210Y-35187522I-243750J0D01*
G01*
X161318710Y-35187522D01*
G75*
G02*
X161074960Y-34943772I0J243750D01*
G01*
X161074960Y-34456272D01*
G75*
G02*
X161318710Y-34212522I243750J0D01*
G01*
G37*
G36*
G01*
X143450000Y-90443750D02*
X143450000Y-91356250D01*
G75*
G02*
X143206250Y-91600000I-243750J0D01*
G01*
X142718750Y-91600000D01*
G75*
G02*
X142475000Y-91356250I0J243750D01*
G01*
X142475000Y-90443750D01*
G75*
G02*
X142718750Y-90200000I243750J0D01*
G01*
X143206250Y-90200000D01*
G75*
G02*
X143450000Y-90443750I0J-243750D01*
G01*
G37*
G36*
G01*
X145325000Y-90443750D02*
X145325000Y-91356250D01*
G75*
G02*
X145081250Y-91600000I-243750J0D01*
G01*
X144593750Y-91600000D01*
G75*
G02*
X144350000Y-91356250I0J243750D01*
G01*
X144350000Y-90443750D01*
G75*
G02*
X144593750Y-90200000I243750J0D01*
G01*
X145081250Y-90200000D01*
G75*
G02*
X145325000Y-90443750I0J-243750D01*
G01*
G37*
G36*
G01*
X156349999Y-27956252D02*
X156349999Y-27043752D01*
G75*
G02*
X156593749Y-26800002I243750J0D01*
G01*
X157081249Y-26800002D01*
G75*
G02*
X157324999Y-27043752I0J-243750D01*
G01*
X157324999Y-27956252D01*
G75*
G02*
X157081249Y-28200002I-243750J0D01*
G01*
X156593749Y-28200002D01*
G75*
G02*
X156349999Y-27956252I0J243750D01*
G01*
G37*
G36*
G01*
X154474999Y-27956252D02*
X154474999Y-27043752D01*
G75*
G02*
X154718749Y-26800002I243750J0D01*
G01*
X155206249Y-26800002D01*
G75*
G02*
X155449999Y-27043752I0J-243750D01*
G01*
X155449999Y-27956252D01*
G75*
G02*
X155206249Y-28200002I-243750J0D01*
G01*
X154718749Y-28200002D01*
G75*
G02*
X154474999Y-27956252I0J243750D01*
G01*
G37*
G36*
G01*
X120759370Y-100265941D02*
X120759370Y-99353441D01*
G75*
G02*
X121003120Y-99109691I243750J0D01*
G01*
X121490620Y-99109691D01*
G75*
G02*
X121734370Y-99353441I0J-243750D01*
G01*
X121734370Y-100265941D01*
G75*
G02*
X121490620Y-100509691I-243750J0D01*
G01*
X121003120Y-100509691D01*
G75*
G02*
X120759370Y-100265941I0J243750D01*
G01*
G37*
G36*
G01*
X118884370Y-100265941D02*
X118884370Y-99353441D01*
G75*
G02*
X119128120Y-99109691I243750J0D01*
G01*
X119615620Y-99109691D01*
G75*
G02*
X119859370Y-99353441I0J-243750D01*
G01*
X119859370Y-100265941D01*
G75*
G02*
X119615620Y-100509691I-243750J0D01*
G01*
X119128120Y-100509691D01*
G75*
G02*
X118884370Y-100265941I0J243750D01*
G01*
G37*
G36*
G01*
X120759369Y-98265942D02*
X120759369Y-97353442D01*
G75*
G02*
X121003119Y-97109692I243750J0D01*
G01*
X121490619Y-97109692D01*
G75*
G02*
X121734369Y-97353442I0J-243750D01*
G01*
X121734369Y-98265942D01*
G75*
G02*
X121490619Y-98509692I-243750J0D01*
G01*
X121003119Y-98509692D01*
G75*
G02*
X120759369Y-98265942I0J243750D01*
G01*
G37*
G36*
G01*
X118884369Y-98265942D02*
X118884369Y-97353442D01*
G75*
G02*
X119128119Y-97109692I243750J0D01*
G01*
X119615619Y-97109692D01*
G75*
G02*
X119859369Y-97353442I0J-243750D01*
G01*
X119859369Y-98265942D01*
G75*
G02*
X119615619Y-98509692I-243750J0D01*
G01*
X119128119Y-98509692D01*
G75*
G02*
X118884369Y-98265942I0J243750D01*
G01*
G37*
G36*
G01*
X120759370Y-104265941D02*
X120759370Y-103353441D01*
G75*
G02*
X121003120Y-103109691I243750J0D01*
G01*
X121490620Y-103109691D01*
G75*
G02*
X121734370Y-103353441I0J-243750D01*
G01*
X121734370Y-104265941D01*
G75*
G02*
X121490620Y-104509691I-243750J0D01*
G01*
X121003120Y-104509691D01*
G75*
G02*
X120759370Y-104265941I0J243750D01*
G01*
G37*
G36*
G01*
X118884370Y-104265941D02*
X118884370Y-103353441D01*
G75*
G02*
X119128120Y-103109691I243750J0D01*
G01*
X119615620Y-103109691D01*
G75*
G02*
X119859370Y-103353441I0J-243750D01*
G01*
X119859370Y-104265941D01*
G75*
G02*
X119615620Y-104509691I-243750J0D01*
G01*
X119128120Y-104509691D01*
G75*
G02*
X118884370Y-104265941I0J243750D01*
G01*
G37*
G36*
G01*
X120759369Y-94265942D02*
X120759369Y-93353442D01*
G75*
G02*
X121003119Y-93109692I243750J0D01*
G01*
X121490619Y-93109692D01*
G75*
G02*
X121734369Y-93353442I0J-243750D01*
G01*
X121734369Y-94265942D01*
G75*
G02*
X121490619Y-94509692I-243750J0D01*
G01*
X121003119Y-94509692D01*
G75*
G02*
X120759369Y-94265942I0J243750D01*
G01*
G37*
G36*
G01*
X118884369Y-94265942D02*
X118884369Y-93353442D01*
G75*
G02*
X119128119Y-93109692I243750J0D01*
G01*
X119615619Y-93109692D01*
G75*
G02*
X119859369Y-93353442I0J-243750D01*
G01*
X119859369Y-94265942D01*
G75*
G02*
X119615619Y-94509692I-243750J0D01*
G01*
X119128119Y-94509692D01*
G75*
G02*
X118884369Y-94265942I0J243750D01*
G01*
G37*
G36*
G01*
X133993749Y-34075000D02*
X134906249Y-34075000D01*
G75*
G02*
X135149999Y-34318750I0J-243750D01*
G01*
X135149999Y-34806250D01*
G75*
G02*
X134906249Y-35050000I-243750J0D01*
G01*
X133993749Y-35050000D01*
G75*
G02*
X133749999Y-34806250I0J243750D01*
G01*
X133749999Y-34318750D01*
G75*
G02*
X133993749Y-34075000I243750J0D01*
G01*
G37*
G36*
G01*
X133993749Y-35950000D02*
X134906249Y-35950000D01*
G75*
G02*
X135149999Y-36193750I0J-243750D01*
G01*
X135149999Y-36681250D01*
G75*
G02*
X134906249Y-36925000I-243750J0D01*
G01*
X133993749Y-36925000D01*
G75*
G02*
X133749999Y-36681250I0J243750D01*
G01*
X133749999Y-36193750D01*
G75*
G02*
X133993749Y-35950000I243750J0D01*
G01*
G37*
G36*
G01*
X156350000Y-35956252D02*
X156350000Y-35043752D01*
G75*
G02*
X156593750Y-34800002I243750J0D01*
G01*
X157081250Y-34800002D01*
G75*
G02*
X157325000Y-35043752I0J-243750D01*
G01*
X157325000Y-35956252D01*
G75*
G02*
X157081250Y-36200002I-243750J0D01*
G01*
X156593750Y-36200002D01*
G75*
G02*
X156350000Y-35956252I0J243750D01*
G01*
G37*
G36*
G01*
X154475000Y-35956252D02*
X154475000Y-35043752D01*
G75*
G02*
X154718750Y-34800002I243750J0D01*
G01*
X155206250Y-34800002D01*
G75*
G02*
X155450000Y-35043752I0J-243750D01*
G01*
X155450000Y-35956252D01*
G75*
G02*
X155206250Y-36200002I-243750J0D01*
G01*
X154718750Y-36200002D01*
G75*
G02*
X154475000Y-35956252I0J243750D01*
G01*
G37*
G36*
G01*
X156349999Y-33956250D02*
X156349999Y-33043750D01*
G75*
G02*
X156593749Y-32800000I243750J0D01*
G01*
X157081249Y-32800000D01*
G75*
G02*
X157324999Y-33043750I0J-243750D01*
G01*
X157324999Y-33956250D01*
G75*
G02*
X157081249Y-34200000I-243750J0D01*
G01*
X156593749Y-34200000D01*
G75*
G02*
X156349999Y-33956250I0J243750D01*
G01*
G37*
G36*
G01*
X154474999Y-33956250D02*
X154474999Y-33043750D01*
G75*
G02*
X154718749Y-32800000I243750J0D01*
G01*
X155206249Y-32800000D01*
G75*
G02*
X155449999Y-33043750I0J-243750D01*
G01*
X155449999Y-33956250D01*
G75*
G02*
X155206249Y-34200000I-243750J0D01*
G01*
X154718749Y-34200000D01*
G75*
G02*
X154474999Y-33956250I0J243750D01*
G01*
G37*
G36*
G01*
X156350000Y-29956250D02*
X156350000Y-29043750D01*
G75*
G02*
X156593750Y-28800000I243750J0D01*
G01*
X157081250Y-28800000D01*
G75*
G02*
X157325000Y-29043750I0J-243750D01*
G01*
X157325000Y-29956250D01*
G75*
G02*
X157081250Y-30200000I-243750J0D01*
G01*
X156593750Y-30200000D01*
G75*
G02*
X156350000Y-29956250I0J243750D01*
G01*
G37*
G36*
G01*
X154475000Y-29956250D02*
X154475000Y-29043750D01*
G75*
G02*
X154718750Y-28800000I243750J0D01*
G01*
X155206250Y-28800000D01*
G75*
G02*
X155450000Y-29043750I0J-243750D01*
G01*
X155450000Y-29956250D01*
G75*
G02*
X155206250Y-30200000I-243750J0D01*
G01*
X154718750Y-30200000D01*
G75*
G02*
X154475000Y-29956250I0J243750D01*
G01*
G37*
G36*
G01*
X135993751Y-34075002D02*
X136906251Y-34075002D01*
G75*
G02*
X137150001Y-34318752I0J-243750D01*
G01*
X137150001Y-34806252D01*
G75*
G02*
X136906251Y-35050002I-243750J0D01*
G01*
X135993751Y-35050002D01*
G75*
G02*
X135750001Y-34806252I0J243750D01*
G01*
X135750001Y-34318752D01*
G75*
G02*
X135993751Y-34075002I243750J0D01*
G01*
G37*
G36*
G01*
X135993751Y-35950002D02*
X136906251Y-35950002D01*
G75*
G02*
X137150001Y-36193752I0J-243750D01*
G01*
X137150001Y-36681252D01*
G75*
G02*
X136906251Y-36925002I-243750J0D01*
G01*
X135993751Y-36925002D01*
G75*
G02*
X135750001Y-36681252I0J243750D01*
G01*
X135750001Y-36193752D01*
G75*
G02*
X135993751Y-35950002I243750J0D01*
G01*
G37*
G36*
G01*
X109953601Y-9384410D02*
X110866101Y-9384410D01*
G75*
G02*
X111109851Y-9628160I0J-243750D01*
G01*
X111109851Y-10115660D01*
G75*
G02*
X110866101Y-10359410I-243750J0D01*
G01*
X109953601Y-10359410D01*
G75*
G02*
X109709851Y-10115660I0J243750D01*
G01*
X109709851Y-9628160D01*
G75*
G02*
X109953601Y-9384410I243750J0D01*
G01*
G37*
G36*
G01*
X109953601Y-7509410D02*
X110866101Y-7509410D01*
G75*
G02*
X111109851Y-7753160I0J-243750D01*
G01*
X111109851Y-8240660D01*
G75*
G02*
X110866101Y-8484410I-243750J0D01*
G01*
X109953601Y-8484410D01*
G75*
G02*
X109709851Y-8240660I0J243750D01*
G01*
X109709851Y-7753160D01*
G75*
G02*
X109953601Y-7509410I243750J0D01*
G01*
G37*
G36*
G01*
X142456251Y-32250002D02*
X141543751Y-32250002D01*
G75*
G02*
X141300001Y-32006252I0J243750D01*
G01*
X141300001Y-31518752D01*
G75*
G02*
X141543751Y-31275002I243750J0D01*
G01*
X142456251Y-31275002D01*
G75*
G02*
X142700001Y-31518752I0J-243750D01*
G01*
X142700001Y-32006252D01*
G75*
G02*
X142456251Y-32250002I-243750J0D01*
G01*
G37*
G36*
G01*
X142456251Y-34125002D02*
X141543751Y-34125002D01*
G75*
G02*
X141300001Y-33881252I0J243750D01*
G01*
X141300001Y-33393752D01*
G75*
G02*
X141543751Y-33150002I243750J0D01*
G01*
X142456251Y-33150002D01*
G75*
G02*
X142700001Y-33393752I0J-243750D01*
G01*
X142700001Y-33881252D01*
G75*
G02*
X142456251Y-34125002I-243750J0D01*
G01*
G37*
G36*
G01*
X140456250Y-32250001D02*
X139543750Y-32250001D01*
G75*
G02*
X139300000Y-32006251I0J243750D01*
G01*
X139300000Y-31518751D01*
G75*
G02*
X139543750Y-31275001I243750J0D01*
G01*
X140456250Y-31275001D01*
G75*
G02*
X140700000Y-31518751I0J-243750D01*
G01*
X140700000Y-32006251D01*
G75*
G02*
X140456250Y-32250001I-243750J0D01*
G01*
G37*
G36*
G01*
X140456250Y-34125001D02*
X139543750Y-34125001D01*
G75*
G02*
X139300000Y-33881251I0J243750D01*
G01*
X139300000Y-33393751D01*
G75*
G02*
X139543750Y-33150001I243750J0D01*
G01*
X140456250Y-33150001D01*
G75*
G02*
X140700000Y-33393751I0J-243750D01*
G01*
X140700000Y-33881251D01*
G75*
G02*
X140456250Y-34125001I-243750J0D01*
G01*
G37*
G36*
G01*
X143450000Y-92443749D02*
X143450000Y-93356249D01*
G75*
G02*
X143206250Y-93599999I-243750J0D01*
G01*
X142718750Y-93599999D01*
G75*
G02*
X142475000Y-93356249I0J243750D01*
G01*
X142475000Y-92443749D01*
G75*
G02*
X142718750Y-92199999I243750J0D01*
G01*
X143206250Y-92199999D01*
G75*
G02*
X143450000Y-92443749I0J-243750D01*
G01*
G37*
G36*
G01*
X145325000Y-92443749D02*
X145325000Y-93356249D01*
G75*
G02*
X145081250Y-93599999I-243750J0D01*
G01*
X144593750Y-93599999D01*
G75*
G02*
X144350000Y-93356249I0J243750D01*
G01*
X144350000Y-92443749D01*
G75*
G02*
X144593750Y-92199999I243750J0D01*
G01*
X145081250Y-92199999D01*
G75*
G02*
X145325000Y-92443749I0J-243750D01*
G01*
G37*
G36*
G01*
X134666229Y-44250231D02*
X134666229Y-43337731D01*
G75*
G02*
X134909979Y-43093981I243750J0D01*
G01*
X135397479Y-43093981D01*
G75*
G02*
X135641229Y-43337731I0J-243750D01*
G01*
X135641229Y-44250231D01*
G75*
G02*
X135397479Y-44493981I-243750J0D01*
G01*
X134909979Y-44493981D01*
G75*
G02*
X134666229Y-44250231I0J243750D01*
G01*
G37*
G36*
G01*
X132791229Y-44250231D02*
X132791229Y-43337731D01*
G75*
G02*
X133034979Y-43093981I243750J0D01*
G01*
X133522479Y-43093981D01*
G75*
G02*
X133766229Y-43337731I0J-243750D01*
G01*
X133766229Y-44250231D01*
G75*
G02*
X133522479Y-44493981I-243750J0D01*
G01*
X133034979Y-44493981D01*
G75*
G02*
X132791229Y-44250231I0J243750D01*
G01*
G37*
G36*
G01*
X99967870Y-111692082D02*
X99967870Y-111692082D01*
G75*
G02*
X100442837Y-111359507I403771J-71196D01*
G01*
X101407949Y-111529683D01*
G75*
G02*
X101740524Y-112004650I-71196J-403771D01*
G01*
X101740524Y-112004650D01*
G75*
G02*
X101265557Y-112337225I-403771J71196D01*
G01*
X100300445Y-112167049D01*
G75*
G02*
X99967870Y-111692082I71196J403771D01*
G01*
G37*
G36*
G01*
X100190140Y-110431528D02*
X100190140Y-110431528D01*
G75*
G02*
X100665107Y-110098953I403771J-71196D01*
G01*
X101630219Y-110269129D01*
G75*
G02*
X101962794Y-110744096I-71196J-403771D01*
G01*
X101962794Y-110744096D01*
G75*
G02*
X101487827Y-111076671I-403771J71196D01*
G01*
X100522715Y-110906495D01*
G75*
G02*
X100190140Y-110431528I71196J403771D01*
G01*
G37*
G36*
G01*
X105508102Y-111369229D02*
X105508102Y-111369229D01*
G75*
G02*
X105983069Y-111036654I403771J-71196D01*
G01*
X106948181Y-111206830D01*
G75*
G02*
X107280756Y-111681797I-71196J-403771D01*
G01*
X107280756Y-111681797D01*
G75*
G02*
X106805789Y-112014372I-403771J71196D01*
G01*
X105840677Y-111844196D01*
G75*
G02*
X105508102Y-111369229I71196J403771D01*
G01*
G37*
G36*
G01*
X105285832Y-112629782D02*
X105285832Y-112629782D01*
G75*
G02*
X105760799Y-112297207I403771J-71196D01*
G01*
X106725911Y-112467383D01*
G75*
G02*
X107058486Y-112942350I-71196J-403771D01*
G01*
X107058486Y-112942350D01*
G75*
G02*
X106583519Y-113274925I-403771J71196D01*
G01*
X105618407Y-113104749D01*
G75*
G02*
X105285832Y-112629782I71196J403771D01*
G01*
G37*
G36*
G01*
X82240957Y-102521362D02*
X82240957Y-102521362D01*
G75*
G02*
X82715924Y-102188787I403771J-71196D01*
G01*
X83681036Y-102358963D01*
G75*
G02*
X84013611Y-102833930I-71196J-403771D01*
G01*
X84013611Y-102833930D01*
G75*
G02*
X83538644Y-103166505I-403771J71196D01*
G01*
X82573532Y-102996329D01*
G75*
G02*
X82240957Y-102521362I71196J403771D01*
G01*
G37*
G36*
G01*
X82463227Y-101260808D02*
X82463227Y-101260808D01*
G75*
G02*
X82938194Y-100928233I403771J-71196D01*
G01*
X83903306Y-101098409D01*
G75*
G02*
X84235881Y-101573376I-71196J-403771D01*
G01*
X84235881Y-101573376D01*
G75*
G02*
X83760914Y-101905951I-403771J71196D01*
G01*
X82795802Y-101735775D01*
G75*
G02*
X82463227Y-101260808I71196J403771D01*
G01*
G37*
G36*
G01*
X87781189Y-102198509D02*
X87781189Y-102198509D01*
G75*
G02*
X88256156Y-101865934I403771J-71196D01*
G01*
X89221268Y-102036110D01*
G75*
G02*
X89553843Y-102511077I-71196J-403771D01*
G01*
X89553843Y-102511077D01*
G75*
G02*
X89078876Y-102843652I-403771J71196D01*
G01*
X88113764Y-102673476D01*
G75*
G02*
X87781189Y-102198509I71196J403771D01*
G01*
G37*
G36*
G01*
X87558919Y-103459062D02*
X87558919Y-103459062D01*
G75*
G02*
X88033886Y-103126487I403771J-71196D01*
G01*
X88998998Y-103296663D01*
G75*
G02*
X89331573Y-103771630I-71196J-403771D01*
G01*
X89331573Y-103771630D01*
G75*
G02*
X88856606Y-104104205I-403771J71196D01*
G01*
X87891494Y-103934029D01*
G75*
G02*
X87558919Y-103459062I71196J403771D01*
G01*
G37*
G36*
G01*
X64100541Y-95695726D02*
X64100541Y-95695726D01*
G75*
G02*
X64575508Y-95363151I403771J-71196D01*
G01*
X65540620Y-95533327D01*
G75*
G02*
X65873195Y-96008294I-71196J-403771D01*
G01*
X65873195Y-96008294D01*
G75*
G02*
X65398228Y-96340869I-403771J71196D01*
G01*
X64433116Y-96170693D01*
G75*
G02*
X64100541Y-95695726I71196J403771D01*
G01*
G37*
G36*
G01*
X64322811Y-94435172D02*
X64322811Y-94435172D01*
G75*
G02*
X64797778Y-94102597I403771J-71196D01*
G01*
X65762890Y-94272773D01*
G75*
G02*
X66095465Y-94747740I-71196J-403771D01*
G01*
X66095465Y-94747740D01*
G75*
G02*
X65620498Y-95080315I-403771J71196D01*
G01*
X64655386Y-94910139D01*
G75*
G02*
X64322811Y-94435172I71196J403771D01*
G01*
G37*
G36*
G01*
X69640773Y-95372873D02*
X69640773Y-95372873D01*
G75*
G02*
X70115740Y-95040298I403771J-71196D01*
G01*
X71080852Y-95210474D01*
G75*
G02*
X71413427Y-95685441I-71196J-403771D01*
G01*
X71413427Y-95685441D01*
G75*
G02*
X70938460Y-96018016I-403771J71196D01*
G01*
X69973348Y-95847840D01*
G75*
G02*
X69640773Y-95372873I71196J403771D01*
G01*
G37*
G36*
G01*
X69418503Y-96633426D02*
X69418503Y-96633426D01*
G75*
G02*
X69893470Y-96300851I403771J-71196D01*
G01*
X70858582Y-96471027D01*
G75*
G02*
X71191157Y-96945994I-71196J-403771D01*
G01*
X71191157Y-96945994D01*
G75*
G02*
X70716190Y-97278569I-403771J71196D01*
G01*
X69751078Y-97108393D01*
G75*
G02*
X69418503Y-96633426I71196J403771D01*
G01*
G37*
G36*
G01*
X45339876Y-92387713D02*
X45339876Y-92387713D01*
G75*
G02*
X45814843Y-92055138I403771J-71196D01*
G01*
X46779955Y-92225314D01*
G75*
G02*
X47112530Y-92700281I-71196J-403771D01*
G01*
X47112530Y-92700281D01*
G75*
G02*
X46637563Y-93032856I-403771J71196D01*
G01*
X45672451Y-92862680D01*
G75*
G02*
X45339876Y-92387713I71196J403771D01*
G01*
G37*
G36*
G01*
X45562146Y-91127159D02*
X45562146Y-91127159D01*
G75*
G02*
X46037113Y-90794584I403771J-71196D01*
G01*
X47002225Y-90964760D01*
G75*
G02*
X47334800Y-91439727I-71196J-403771D01*
G01*
X47334800Y-91439727D01*
G75*
G02*
X46859833Y-91772302I-403771J71196D01*
G01*
X45894721Y-91602126D01*
G75*
G02*
X45562146Y-91127159I71196J403771D01*
G01*
G37*
G36*
G01*
X50880108Y-92064860D02*
X50880108Y-92064860D01*
G75*
G02*
X51355075Y-91732285I403771J-71196D01*
G01*
X52320187Y-91902461D01*
G75*
G02*
X52652762Y-92377428I-71196J-403771D01*
G01*
X52652762Y-92377428D01*
G75*
G02*
X52177795Y-92710003I-403771J71196D01*
G01*
X51212683Y-92539827D01*
G75*
G02*
X50880108Y-92064860I71196J403771D01*
G01*
G37*
G36*
G01*
X50657838Y-93325413D02*
X50657838Y-93325413D01*
G75*
G02*
X51132805Y-92992838I403771J-71196D01*
G01*
X52097917Y-93163014D01*
G75*
G02*
X52430492Y-93637981I-71196J-403771D01*
G01*
X52430492Y-93637981D01*
G75*
G02*
X51955525Y-93970556I-403771J71196D01*
G01*
X50990413Y-93800380D01*
G75*
G02*
X50657838Y-93325413I71196J403771D01*
G01*
G37*
G36*
G01*
X105000771Y-83472836D02*
X105000771Y-83472836D01*
G75*
G02*
X104525804Y-83805411I-403771J71196D01*
G01*
X103560692Y-83635235D01*
G75*
G02*
X103228117Y-83160268I71196J403771D01*
G01*
X103228117Y-83160268D01*
G75*
G02*
X103703084Y-82827693I403771J-71196D01*
G01*
X104668196Y-82997869D01*
G75*
G02*
X105000771Y-83472836I-71196J-403771D01*
G01*
G37*
G36*
G01*
X104778501Y-84733389D02*
X104778501Y-84733389D01*
G75*
G02*
X104303534Y-85065964I-403771J71196D01*
G01*
X103338422Y-84895788D01*
G75*
G02*
X103005847Y-84420821I71196J403771D01*
G01*
X103005847Y-84420821D01*
G75*
G02*
X103480814Y-84088246I403771J-71196D01*
G01*
X104445926Y-84258422D01*
G75*
G02*
X104778501Y-84733389I-71196J-403771D01*
G01*
G37*
G36*
G01*
X99460539Y-83795689D02*
X99460539Y-83795689D01*
G75*
G02*
X98985572Y-84128264I-403771J71196D01*
G01*
X98020460Y-83958088D01*
G75*
G02*
X97687885Y-83483121I71196J403771D01*
G01*
X97687885Y-83483121D01*
G75*
G02*
X98162852Y-83150546I403771J-71196D01*
G01*
X99127964Y-83320722D01*
G75*
G02*
X99460539Y-83795689I-71196J-403771D01*
G01*
G37*
G36*
G01*
X99682809Y-82535135D02*
X99682809Y-82535135D01*
G75*
G02*
X99207842Y-82867710I-403771J71196D01*
G01*
X98242730Y-82697534D01*
G75*
G02*
X97910155Y-82222567I71196J403771D01*
G01*
X97910155Y-82222567D01*
G75*
G02*
X98385122Y-81889992I403771J-71196D01*
G01*
X99350234Y-82060168D01*
G75*
G02*
X99682809Y-82535135I-71196J-403771D01*
G01*
G37*
G36*
G01*
X87894112Y-70784490D02*
X87894112Y-70784490D01*
G75*
G02*
X87419145Y-71117065I-403771J71196D01*
G01*
X86454033Y-70946889D01*
G75*
G02*
X86121458Y-70471922I71196J403771D01*
G01*
X86121458Y-70471922D01*
G75*
G02*
X86596425Y-70139347I403771J-71196D01*
G01*
X87561537Y-70309523D01*
G75*
G02*
X87894112Y-70784490I-71196J-403771D01*
G01*
G37*
G36*
G01*
X87671842Y-72045043D02*
X87671842Y-72045043D01*
G75*
G02*
X87196875Y-72377618I-403771J71196D01*
G01*
X86231763Y-72207442D01*
G75*
G02*
X85899188Y-71732475I71196J403771D01*
G01*
X85899188Y-71732475D01*
G75*
G02*
X86374155Y-71399900I403771J-71196D01*
G01*
X87339267Y-71570076D01*
G75*
G02*
X87671842Y-72045043I-71196J-403771D01*
G01*
G37*
G36*
G01*
X82353880Y-71107343D02*
X82353880Y-71107343D01*
G75*
G02*
X81878913Y-71439918I-403771J71196D01*
G01*
X80913801Y-71269742D01*
G75*
G02*
X80581226Y-70794775I71196J403771D01*
G01*
X80581226Y-70794775D01*
G75*
G02*
X81056193Y-70462200I403771J-71196D01*
G01*
X82021305Y-70632376D01*
G75*
G02*
X82353880Y-71107343I-71196J-403771D01*
G01*
G37*
G36*
G01*
X82576150Y-69846789D02*
X82576150Y-69846789D01*
G75*
G02*
X82101183Y-70179364I-403771J71196D01*
G01*
X81136071Y-70009188D01*
G75*
G02*
X80803496Y-69534221I71196J403771D01*
G01*
X80803496Y-69534221D01*
G75*
G02*
X81278463Y-69201646I403771J-71196D01*
G01*
X82243575Y-69371822D01*
G75*
G02*
X82576150Y-69846789I-71196J-403771D01*
G01*
G37*
G36*
G01*
X70373948Y-60441228D02*
X70373948Y-60441228D01*
G75*
G02*
X69898981Y-60773803I-403771J71196D01*
G01*
X68933869Y-60603627D01*
G75*
G02*
X68601294Y-60128660I71196J403771D01*
G01*
X68601294Y-60128660D01*
G75*
G02*
X69076261Y-59796085I403771J-71196D01*
G01*
X70041373Y-59966261D01*
G75*
G02*
X70373948Y-60441228I-71196J-403771D01*
G01*
G37*
G36*
G01*
X70151678Y-61701781D02*
X70151678Y-61701781D01*
G75*
G02*
X69676711Y-62034356I-403771J71196D01*
G01*
X68711599Y-61864180D01*
G75*
G02*
X68379024Y-61389213I71196J403771D01*
G01*
X68379024Y-61389213D01*
G75*
G02*
X68853991Y-61056638I403771J-71196D01*
G01*
X69819103Y-61226814D01*
G75*
G02*
X70151678Y-61701781I-71196J-403771D01*
G01*
G37*
G36*
G01*
X64833716Y-60764081D02*
X64833716Y-60764081D01*
G75*
G02*
X64358749Y-61096656I-403771J71196D01*
G01*
X63393637Y-60926480D01*
G75*
G02*
X63061062Y-60451513I71196J403771D01*
G01*
X63061062Y-60451513D01*
G75*
G02*
X63536029Y-60118938I403771J-71196D01*
G01*
X64501141Y-60289114D01*
G75*
G02*
X64833716Y-60764081I-71196J-403771D01*
G01*
G37*
G36*
G01*
X65055986Y-59503527D02*
X65055986Y-59503527D01*
G75*
G02*
X64581019Y-59836102I-403771J71196D01*
G01*
X63615907Y-59665926D01*
G75*
G02*
X63283332Y-59190959I71196J403771D01*
G01*
X63283332Y-59190959D01*
G75*
G02*
X63758299Y-58858384I403771J-71196D01*
G01*
X64723411Y-59028560D01*
G75*
G02*
X65055986Y-59503527I-71196J-403771D01*
G01*
G37*
G36*
G01*
X52026784Y-54788133D02*
X52026784Y-54788133D01*
G75*
G02*
X51551817Y-55120708I-403771J71196D01*
G01*
X50586705Y-54950532D01*
G75*
G02*
X50254130Y-54475565I71196J403771D01*
G01*
X50254130Y-54475565D01*
G75*
G02*
X50729097Y-54142990I403771J-71196D01*
G01*
X51694209Y-54313166D01*
G75*
G02*
X52026784Y-54788133I-71196J-403771D01*
G01*
G37*
G36*
G01*
X51804514Y-56048686D02*
X51804514Y-56048686D01*
G75*
G02*
X51329547Y-56381261I-403771J71196D01*
G01*
X50364435Y-56211085D01*
G75*
G02*
X50031860Y-55736118I71196J403771D01*
G01*
X50031860Y-55736118D01*
G75*
G02*
X50506827Y-55403543I403771J-71196D01*
G01*
X51471939Y-55573719D01*
G75*
G02*
X51804514Y-56048686I-71196J-403771D01*
G01*
G37*
G36*
G01*
X46486552Y-55110986D02*
X46486552Y-55110986D01*
G75*
G02*
X46011585Y-55443561I-403771J71196D01*
G01*
X45046473Y-55273385D01*
G75*
G02*
X44713898Y-54798418I71196J403771D01*
G01*
X44713898Y-54798418D01*
G75*
G02*
X45188865Y-54465843I403771J-71196D01*
G01*
X46153977Y-54636019D01*
G75*
G02*
X46486552Y-55110986I-71196J-403771D01*
G01*
G37*
G36*
G01*
X46708822Y-53850432D02*
X46708822Y-53850432D01*
G75*
G02*
X46233855Y-54183007I-403771J71196D01*
G01*
X45268743Y-54012831D01*
G75*
G02*
X44936168Y-53537864I71196J403771D01*
G01*
X44936168Y-53537864D01*
G75*
G02*
X45411135Y-53205289I403771J-71196D01*
G01*
X46376247Y-53375465D01*
G75*
G02*
X46708822Y-53850432I-71196J-403771D01*
G01*
G37*
G36*
G01*
X32025614Y-58515373D02*
X32025614Y-58515373D01*
G75*
G02*
X31550647Y-58847948I-403771J71196D01*
G01*
X30585535Y-58677772D01*
G75*
G02*
X30252960Y-58202805I71196J403771D01*
G01*
X30252960Y-58202805D01*
G75*
G02*
X30727927Y-57870230I403771J-71196D01*
G01*
X31693039Y-58040406D01*
G75*
G02*
X32025614Y-58515373I-71196J-403771D01*
G01*
G37*
G36*
G01*
X31803344Y-59775926D02*
X31803344Y-59775926D01*
G75*
G02*
X31328377Y-60108501I-403771J71196D01*
G01*
X30363265Y-59938325D01*
G75*
G02*
X30030690Y-59463358I71196J403771D01*
G01*
X30030690Y-59463358D01*
G75*
G02*
X30505657Y-59130783I403771J-71196D01*
G01*
X31470769Y-59300959D01*
G75*
G02*
X31803344Y-59775926I-71196J-403771D01*
G01*
G37*
G36*
G01*
X26485382Y-58838226D02*
X26485382Y-58838226D01*
G75*
G02*
X26010415Y-59170801I-403771J71196D01*
G01*
X25045303Y-59000625D01*
G75*
G02*
X24712728Y-58525658I71196J403771D01*
G01*
X24712728Y-58525658D01*
G75*
G02*
X25187695Y-58193083I403771J-71196D01*
G01*
X26152807Y-58363259D01*
G75*
G02*
X26485382Y-58838226I-71196J-403771D01*
G01*
G37*
G36*
G01*
X26707652Y-57577672D02*
X26707652Y-57577672D01*
G75*
G02*
X26232685Y-57910247I-403771J71196D01*
G01*
X25267573Y-57740071D01*
G75*
G02*
X24934998Y-57265104I71196J403771D01*
G01*
X24934998Y-57265104D01*
G75*
G02*
X25409965Y-56932529I403771J-71196D01*
G01*
X26375077Y-57102705D01*
G75*
G02*
X26707652Y-57577672I-71196J-403771D01*
G01*
G37*
G36*
G01*
X12437943Y-59897526D02*
X12437943Y-59897526D01*
G75*
G02*
X11962976Y-60230101I-403771J71196D01*
G01*
X10997864Y-60059925D01*
G75*
G02*
X10665289Y-59584958I71196J403771D01*
G01*
X10665289Y-59584958D01*
G75*
G02*
X11140256Y-59252383I403771J-71196D01*
G01*
X12105368Y-59422559D01*
G75*
G02*
X12437943Y-59897526I-71196J-403771D01*
G01*
G37*
G36*
G01*
X12215673Y-61158079D02*
X12215673Y-61158079D01*
G75*
G02*
X11740706Y-61490654I-403771J71196D01*
G01*
X10775594Y-61320478D01*
G75*
G02*
X10443019Y-60845511I71196J403771D01*
G01*
X10443019Y-60845511D01*
G75*
G02*
X10917986Y-60512936I403771J-71196D01*
G01*
X11883098Y-60683112D01*
G75*
G02*
X12215673Y-61158079I-71196J-403771D01*
G01*
G37*
G36*
G01*
X6897711Y-60220379D02*
X6897711Y-60220379D01*
G75*
G02*
X6422744Y-60552954I-403771J71196D01*
G01*
X5457632Y-60382778D01*
G75*
G02*
X5125057Y-59907811I71196J403771D01*
G01*
X5125057Y-59907811D01*
G75*
G02*
X5600024Y-59575236I403771J-71196D01*
G01*
X6565136Y-59745412D01*
G75*
G02*
X6897711Y-60220379I-71196J-403771D01*
G01*
G37*
G36*
G01*
X7119981Y-58959825D02*
X7119981Y-58959825D01*
G75*
G02*
X6645014Y-59292400I-403771J71196D01*
G01*
X5679902Y-59122224D01*
G75*
G02*
X5347327Y-58647257I71196J403771D01*
G01*
X5347327Y-58647257D01*
G75*
G02*
X5822294Y-58314682I403771J-71196D01*
G01*
X6787406Y-58484858D01*
G75*
G02*
X7119981Y-58959825I-71196J-403771D01*
G01*
G37*
G36*
G01*
X-7149725Y-61279681D02*
X-7149725Y-61279681D01*
G75*
G02*
X-7624692Y-61612256I-403771J71196D01*
G01*
X-8589804Y-61442080D01*
G75*
G02*
X-8922379Y-60967113I71196J403771D01*
G01*
X-8922379Y-60967113D01*
G75*
G02*
X-8447412Y-60634538I403771J-71196D01*
G01*
X-7482300Y-60804714D01*
G75*
G02*
X-7149725Y-61279681I-71196J-403771D01*
G01*
G37*
G36*
G01*
X-7371995Y-62540234D02*
X-7371995Y-62540234D01*
G75*
G02*
X-7846962Y-62872809I-403771J71196D01*
G01*
X-8812074Y-62702633D01*
G75*
G02*
X-9144649Y-62227666I71196J403771D01*
G01*
X-9144649Y-62227666D01*
G75*
G02*
X-8669682Y-61895091I403771J-71196D01*
G01*
X-7704570Y-62065267D01*
G75*
G02*
X-7371995Y-62540234I-71196J-403771D01*
G01*
G37*
G36*
G01*
X-12689957Y-61602534D02*
X-12689957Y-61602534D01*
G75*
G02*
X-13164924Y-61935109I-403771J71196D01*
G01*
X-14130036Y-61764933D01*
G75*
G02*
X-14462611Y-61289966I71196J403771D01*
G01*
X-14462611Y-61289966D01*
G75*
G02*
X-13987644Y-60957391I403771J-71196D01*
G01*
X-13022532Y-61127567D01*
G75*
G02*
X-12689957Y-61602534I-71196J-403771D01*
G01*
G37*
G36*
G01*
X-12467687Y-60341980D02*
X-12467687Y-60341980D01*
G75*
G02*
X-12942654Y-60674555I-403771J71196D01*
G01*
X-13907766Y-60504379D01*
G75*
G02*
X-14240341Y-60029412I71196J403771D01*
G01*
X-14240341Y-60029412D01*
G75*
G02*
X-13765374Y-59696837I403771J-71196D01*
G01*
X-12800262Y-59867013D01*
G75*
G02*
X-12467687Y-60341980I-71196J-403771D01*
G01*
G37*
G36*
G01*
X100995898Y-64722453D02*
X100995898Y-64722453D01*
G75*
G02*
X101470865Y-64389878I403771J-71196D01*
G01*
X102435977Y-64560054D01*
G75*
G02*
X102768552Y-65035021I-71196J-403771D01*
G01*
X102768552Y-65035021D01*
G75*
G02*
X102293585Y-65367596I-403771J71196D01*
G01*
X101328473Y-65197420D01*
G75*
G02*
X100995898Y-64722453I71196J403771D01*
G01*
G37*
G36*
G01*
X101218168Y-63461899D02*
X101218168Y-63461899D01*
G75*
G02*
X101693135Y-63129324I403771J-71196D01*
G01*
X102658247Y-63299500D01*
G75*
G02*
X102990822Y-63774467I-71196J-403771D01*
G01*
X102990822Y-63774467D01*
G75*
G02*
X102515855Y-64107042I-403771J71196D01*
G01*
X101550743Y-63936866D01*
G75*
G02*
X101218168Y-63461899I71196J403771D01*
G01*
G37*
G36*
G01*
X106536130Y-64399600D02*
X106536130Y-64399600D01*
G75*
G02*
X107011097Y-64067025I403771J-71196D01*
G01*
X107976209Y-64237201D01*
G75*
G02*
X108308784Y-64712168I-71196J-403771D01*
G01*
X108308784Y-64712168D01*
G75*
G02*
X107833817Y-65044743I-403771J71196D01*
G01*
X106868705Y-64874567D01*
G75*
G02*
X106536130Y-64399600I71196J403771D01*
G01*
G37*
G36*
G01*
X106313860Y-65660153D02*
X106313860Y-65660153D01*
G75*
G02*
X106788827Y-65327578I403771J-71196D01*
G01*
X107753939Y-65497754D01*
G75*
G02*
X108086514Y-65972721I-71196J-403771D01*
G01*
X108086514Y-65972721D01*
G75*
G02*
X107611547Y-66305296I-403771J71196D01*
G01*
X106646435Y-66135120D01*
G75*
G02*
X106313860Y-65660153I71196J403771D01*
G01*
G37*
G36*
G01*
X83889236Y-52034108D02*
X83889236Y-52034108D01*
G75*
G02*
X84364203Y-51701533I403771J-71196D01*
G01*
X85329315Y-51871709D01*
G75*
G02*
X85661890Y-52346676I-71196J-403771D01*
G01*
X85661890Y-52346676D01*
G75*
G02*
X85186923Y-52679251I-403771J71196D01*
G01*
X84221811Y-52509075D01*
G75*
G02*
X83889236Y-52034108I71196J403771D01*
G01*
G37*
G36*
G01*
X84111506Y-50773554D02*
X84111506Y-50773554D01*
G75*
G02*
X84586473Y-50440979I403771J-71196D01*
G01*
X85551585Y-50611155D01*
G75*
G02*
X85884160Y-51086122I-71196J-403771D01*
G01*
X85884160Y-51086122D01*
G75*
G02*
X85409193Y-51418697I-403771J71196D01*
G01*
X84444081Y-51248521D01*
G75*
G02*
X84111506Y-50773554I71196J403771D01*
G01*
G37*
G36*
G01*
X89429468Y-51711255D02*
X89429468Y-51711255D01*
G75*
G02*
X89904435Y-51378680I403771J-71196D01*
G01*
X90869547Y-51548856D01*
G75*
G02*
X91202122Y-52023823I-71196J-403771D01*
G01*
X91202122Y-52023823D01*
G75*
G02*
X90727155Y-52356398I-403771J71196D01*
G01*
X89762043Y-52186222D01*
G75*
G02*
X89429468Y-51711255I71196J403771D01*
G01*
G37*
G36*
G01*
X89207198Y-52971808D02*
X89207198Y-52971808D01*
G75*
G02*
X89682165Y-52639233I403771J-71196D01*
G01*
X90647277Y-52809409D01*
G75*
G02*
X90979852Y-53284376I-71196J-403771D01*
G01*
X90979852Y-53284376D01*
G75*
G02*
X90504885Y-53616951I-403771J71196D01*
G01*
X89539773Y-53446775D01*
G75*
G02*
X89207198Y-52971808I71196J403771D01*
G01*
G37*
G36*
G01*
X66369074Y-41690848D02*
X66369074Y-41690848D01*
G75*
G02*
X66844041Y-41358273I403771J-71196D01*
G01*
X67809153Y-41528449D01*
G75*
G02*
X68141728Y-42003416I-71196J-403771D01*
G01*
X68141728Y-42003416D01*
G75*
G02*
X67666761Y-42335991I-403771J71196D01*
G01*
X66701649Y-42165815D01*
G75*
G02*
X66369074Y-41690848I71196J403771D01*
G01*
G37*
G36*
G01*
X66591344Y-40430294D02*
X66591344Y-40430294D01*
G75*
G02*
X67066311Y-40097719I403771J-71196D01*
G01*
X68031423Y-40267895D01*
G75*
G02*
X68363998Y-40742862I-71196J-403771D01*
G01*
X68363998Y-40742862D01*
G75*
G02*
X67889031Y-41075437I-403771J71196D01*
G01*
X66923919Y-40905261D01*
G75*
G02*
X66591344Y-40430294I71196J403771D01*
G01*
G37*
G36*
G01*
X71909306Y-41367995D02*
X71909306Y-41367995D01*
G75*
G02*
X72384273Y-41035420I403771J-71196D01*
G01*
X73349385Y-41205596D01*
G75*
G02*
X73681960Y-41680563I-71196J-403771D01*
G01*
X73681960Y-41680563D01*
G75*
G02*
X73206993Y-42013138I-403771J71196D01*
G01*
X72241881Y-41842962D01*
G75*
G02*
X71909306Y-41367995I71196J403771D01*
G01*
G37*
G36*
G01*
X71687036Y-42628548D02*
X71687036Y-42628548D01*
G75*
G02*
X72162003Y-42295973I403771J-71196D01*
G01*
X73127115Y-42466149D01*
G75*
G02*
X73459690Y-42941116I-71196J-403771D01*
G01*
X73459690Y-42941116D01*
G75*
G02*
X72984723Y-43273691I-403771J71196D01*
G01*
X72019611Y-43103515D01*
G75*
G02*
X71687036Y-42628548I71196J403771D01*
G01*
G37*
G36*
G01*
X48021909Y-36037753D02*
X48021909Y-36037753D01*
G75*
G02*
X48496876Y-35705178I403771J-71196D01*
G01*
X49461988Y-35875354D01*
G75*
G02*
X49794563Y-36350321I-71196J-403771D01*
G01*
X49794563Y-36350321D01*
G75*
G02*
X49319596Y-36682896I-403771J71196D01*
G01*
X48354484Y-36512720D01*
G75*
G02*
X48021909Y-36037753I71196J403771D01*
G01*
G37*
G36*
G01*
X48244179Y-34777199D02*
X48244179Y-34777199D01*
G75*
G02*
X48719146Y-34444624I403771J-71196D01*
G01*
X49684258Y-34614800D01*
G75*
G02*
X50016833Y-35089767I-71196J-403771D01*
G01*
X50016833Y-35089767D01*
G75*
G02*
X49541866Y-35422342I-403771J71196D01*
G01*
X48576754Y-35252166D01*
G75*
G02*
X48244179Y-34777199I71196J403771D01*
G01*
G37*
G36*
G01*
X53562141Y-35714900D02*
X53562141Y-35714900D01*
G75*
G02*
X54037108Y-35382325I403771J-71196D01*
G01*
X55002220Y-35552501D01*
G75*
G02*
X55334795Y-36027468I-71196J-403771D01*
G01*
X55334795Y-36027468D01*
G75*
G02*
X54859828Y-36360043I-403771J71196D01*
G01*
X53894716Y-36189867D01*
G75*
G02*
X53562141Y-35714900I71196J403771D01*
G01*
G37*
G36*
G01*
X53339871Y-36975453D02*
X53339871Y-36975453D01*
G75*
G02*
X53814838Y-36642878I403771J-71196D01*
G01*
X54779950Y-36813054D01*
G75*
G02*
X55112525Y-37288021I-71196J-403771D01*
G01*
X55112525Y-37288021D01*
G75*
G02*
X54637558Y-37620596I-403771J71196D01*
G01*
X53672446Y-37450420D01*
G75*
G02*
X53339871Y-36975453I71196J403771D01*
G01*
G37*
G36*
G01*
X28020738Y-39764990D02*
X28020738Y-39764990D01*
G75*
G02*
X28495705Y-39432415I403771J-71196D01*
G01*
X29460817Y-39602591D01*
G75*
G02*
X29793392Y-40077558I-71196J-403771D01*
G01*
X29793392Y-40077558D01*
G75*
G02*
X29318425Y-40410133I-403771J71196D01*
G01*
X28353313Y-40239957D01*
G75*
G02*
X28020738Y-39764990I71196J403771D01*
G01*
G37*
G36*
G01*
X28243008Y-38504436D02*
X28243008Y-38504436D01*
G75*
G02*
X28717975Y-38171861I403771J-71196D01*
G01*
X29683087Y-38342037D01*
G75*
G02*
X30015662Y-38817004I-71196J-403771D01*
G01*
X30015662Y-38817004D01*
G75*
G02*
X29540695Y-39149579I-403771J71196D01*
G01*
X28575583Y-38979403D01*
G75*
G02*
X28243008Y-38504436I71196J403771D01*
G01*
G37*
G36*
G01*
X33560970Y-39442137D02*
X33560970Y-39442137D01*
G75*
G02*
X34035937Y-39109562I403771J-71196D01*
G01*
X35001049Y-39279738D01*
G75*
G02*
X35333624Y-39754705I-71196J-403771D01*
G01*
X35333624Y-39754705D01*
G75*
G02*
X34858657Y-40087280I-403771J71196D01*
G01*
X33893545Y-39917104D01*
G75*
G02*
X33560970Y-39442137I71196J403771D01*
G01*
G37*
G36*
G01*
X33338700Y-40702690D02*
X33338700Y-40702690D01*
G75*
G02*
X33813667Y-40370115I403771J-71196D01*
G01*
X34778779Y-40540291D01*
G75*
G02*
X35111354Y-41015258I-71196J-403771D01*
G01*
X35111354Y-41015258D01*
G75*
G02*
X34636387Y-41347833I-403771J71196D01*
G01*
X33671275Y-41177657D01*
G75*
G02*
X33338700Y-40702690I71196J403771D01*
G01*
G37*
G36*
G01*
X8433070Y-41147144D02*
X8433070Y-41147144D01*
G75*
G02*
X8908037Y-40814569I403771J-71196D01*
G01*
X9873149Y-40984745D01*
G75*
G02*
X10205724Y-41459712I-71196J-403771D01*
G01*
X10205724Y-41459712D01*
G75*
G02*
X9730757Y-41792287I-403771J71196D01*
G01*
X8765645Y-41622111D01*
G75*
G02*
X8433070Y-41147144I71196J403771D01*
G01*
G37*
G36*
G01*
X8655340Y-39886590D02*
X8655340Y-39886590D01*
G75*
G02*
X9130307Y-39554015I403771J-71196D01*
G01*
X10095419Y-39724191D01*
G75*
G02*
X10427994Y-40199158I-71196J-403771D01*
G01*
X10427994Y-40199158D01*
G75*
G02*
X9953027Y-40531733I-403771J71196D01*
G01*
X8987915Y-40361557D01*
G75*
G02*
X8655340Y-39886590I71196J403771D01*
G01*
G37*
G36*
G01*
X13973302Y-40824291D02*
X13973302Y-40824291D01*
G75*
G02*
X14448269Y-40491716I403771J-71196D01*
G01*
X15413381Y-40661892D01*
G75*
G02*
X15745956Y-41136859I-71196J-403771D01*
G01*
X15745956Y-41136859D01*
G75*
G02*
X15270989Y-41469434I-403771J71196D01*
G01*
X14305877Y-41299258D01*
G75*
G02*
X13973302Y-40824291I71196J403771D01*
G01*
G37*
G36*
G01*
X13751032Y-42084844D02*
X13751032Y-42084844D01*
G75*
G02*
X14225999Y-41752269I403771J-71196D01*
G01*
X15191111Y-41922445D01*
G75*
G02*
X15523686Y-42397412I-71196J-403771D01*
G01*
X15523686Y-42397412D01*
G75*
G02*
X15048719Y-42729987I-403771J71196D01*
G01*
X14083607Y-42559811D01*
G75*
G02*
X13751032Y-42084844I71196J403771D01*
G01*
G37*
G36*
G01*
X-11154599Y-42529299D02*
X-11154599Y-42529299D01*
G75*
G02*
X-10679632Y-42196724I403771J-71196D01*
G01*
X-9714520Y-42366900D01*
G75*
G02*
X-9381945Y-42841867I-71196J-403771D01*
G01*
X-9381945Y-42841867D01*
G75*
G02*
X-9856912Y-43174442I-403771J71196D01*
G01*
X-10822024Y-43004266D01*
G75*
G02*
X-11154599Y-42529299I71196J403771D01*
G01*
G37*
G36*
G01*
X-10932329Y-41268745D02*
X-10932329Y-41268745D01*
G75*
G02*
X-10457362Y-40936170I403771J-71196D01*
G01*
X-9492250Y-41106346D01*
G75*
G02*
X-9159675Y-41581313I-71196J-403771D01*
G01*
X-9159675Y-41581313D01*
G75*
G02*
X-9634642Y-41913888I-403771J71196D01*
G01*
X-10599754Y-41743712D01*
G75*
G02*
X-10932329Y-41268745I71196J403771D01*
G01*
G37*
G36*
G01*
X-5614367Y-42206446D02*
X-5614367Y-42206446D01*
G75*
G02*
X-5139400Y-41873871I403771J-71196D01*
G01*
X-4174288Y-42044047D01*
G75*
G02*
X-3841713Y-42519014I-71196J-403771D01*
G01*
X-3841713Y-42519014D01*
G75*
G02*
X-4316680Y-42851589I-403771J71196D01*
G01*
X-5281792Y-42681413D01*
G75*
G02*
X-5614367Y-42206446I71196J403771D01*
G01*
G37*
G36*
G01*
X-5836637Y-43466999D02*
X-5836637Y-43466999D01*
G75*
G02*
X-5361670Y-43134424I403771J-71196D01*
G01*
X-4396558Y-43304600D01*
G75*
G02*
X-4063983Y-43779567I-71196J-403771D01*
G01*
X-4063983Y-43779567D01*
G75*
G02*
X-4538950Y-44112142I-403771J71196D01*
G01*
X-5504062Y-43941966D01*
G75*
G02*
X-5836637Y-43466999I71196J403771D01*
G01*
G37*
G36*
G01*
X111616796Y-45951502D02*
X111616796Y-45951502D01*
G75*
G02*
X111141829Y-46284077I-403771J71196D01*
G01*
X110176717Y-46113901D01*
G75*
G02*
X109844142Y-45638934I71196J403771D01*
G01*
X109844142Y-45638934D01*
G75*
G02*
X110319109Y-45306359I403771J-71196D01*
G01*
X111284221Y-45476535D01*
G75*
G02*
X111616796Y-45951502I-71196J-403771D01*
G01*
G37*
G36*
G01*
X111394526Y-47212055D02*
X111394526Y-47212055D01*
G75*
G02*
X110919559Y-47544630I-403771J71196D01*
G01*
X109954447Y-47374454D01*
G75*
G02*
X109621872Y-46899487I71196J403771D01*
G01*
X109621872Y-46899487D01*
G75*
G02*
X110096839Y-46566912I403771J-71196D01*
G01*
X111061951Y-46737088D01*
G75*
G02*
X111394526Y-47212055I-71196J-403771D01*
G01*
G37*
G36*
G01*
X106076564Y-46274355D02*
X106076564Y-46274355D01*
G75*
G02*
X105601597Y-46606930I-403771J71196D01*
G01*
X104636485Y-46436754D01*
G75*
G02*
X104303910Y-45961787I71196J403771D01*
G01*
X104303910Y-45961787D01*
G75*
G02*
X104778877Y-45629212I403771J-71196D01*
G01*
X105743989Y-45799388D01*
G75*
G02*
X106076564Y-46274355I-71196J-403771D01*
G01*
G37*
G36*
G01*
X106298834Y-45013801D02*
X106298834Y-45013801D01*
G75*
G02*
X105823867Y-45346376I-403771J71196D01*
G01*
X104858755Y-45176200D01*
G75*
G02*
X104526180Y-44701233I71196J403771D01*
G01*
X104526180Y-44701233D01*
G75*
G02*
X105001147Y-44368658I403771J-71196D01*
G01*
X105966259Y-44538834D01*
G75*
G02*
X106298834Y-45013801I-71196J-403771D01*
G01*
G37*
G36*
G01*
X94510135Y-33263157D02*
X94510135Y-33263157D01*
G75*
G02*
X94035168Y-33595732I-403771J71196D01*
G01*
X93070056Y-33425556D01*
G75*
G02*
X92737481Y-32950589I71196J403771D01*
G01*
X92737481Y-32950589D01*
G75*
G02*
X93212448Y-32618014I403771J-71196D01*
G01*
X94177560Y-32788190D01*
G75*
G02*
X94510135Y-33263157I-71196J-403771D01*
G01*
G37*
G36*
G01*
X94287865Y-34523710D02*
X94287865Y-34523710D01*
G75*
G02*
X93812898Y-34856285I-403771J71196D01*
G01*
X92847786Y-34686109D01*
G75*
G02*
X92515211Y-34211142I71196J403771D01*
G01*
X92515211Y-34211142D01*
G75*
G02*
X92990178Y-33878567I403771J-71196D01*
G01*
X93955290Y-34048743D01*
G75*
G02*
X94287865Y-34523710I-71196J-403771D01*
G01*
G37*
G36*
G01*
X88969903Y-33586010D02*
X88969903Y-33586010D01*
G75*
G02*
X88494936Y-33918585I-403771J71196D01*
G01*
X87529824Y-33748409D01*
G75*
G02*
X87197249Y-33273442I71196J403771D01*
G01*
X87197249Y-33273442D01*
G75*
G02*
X87672216Y-32940867I403771J-71196D01*
G01*
X88637328Y-33111043D01*
G75*
G02*
X88969903Y-33586010I-71196J-403771D01*
G01*
G37*
G36*
G01*
X89192173Y-32325456D02*
X89192173Y-32325456D01*
G75*
G02*
X88717206Y-32658031I-403771J71196D01*
G01*
X87752094Y-32487855D01*
G75*
G02*
X87419519Y-32012888I71196J403771D01*
G01*
X87419519Y-32012888D01*
G75*
G02*
X87894486Y-31680313I403771J-71196D01*
G01*
X88859598Y-31850489D01*
G75*
G02*
X89192173Y-32325456I-71196J-403771D01*
G01*
G37*
G36*
G01*
X76989973Y-22919895D02*
X76989973Y-22919895D01*
G75*
G02*
X76515006Y-23252470I-403771J71196D01*
G01*
X75549894Y-23082294D01*
G75*
G02*
X75217319Y-22607327I71196J403771D01*
G01*
X75217319Y-22607327D01*
G75*
G02*
X75692286Y-22274752I403771J-71196D01*
G01*
X76657398Y-22444928D01*
G75*
G02*
X76989973Y-22919895I-71196J-403771D01*
G01*
G37*
G36*
G01*
X76767703Y-24180448D02*
X76767703Y-24180448D01*
G75*
G02*
X76292736Y-24513023I-403771J71196D01*
G01*
X75327624Y-24342847D01*
G75*
G02*
X74995049Y-23867880I71196J403771D01*
G01*
X74995049Y-23867880D01*
G75*
G02*
X75470016Y-23535305I403771J-71196D01*
G01*
X76435128Y-23705481D01*
G75*
G02*
X76767703Y-24180448I-71196J-403771D01*
G01*
G37*
G36*
G01*
X71449741Y-23242748D02*
X71449741Y-23242748D01*
G75*
G02*
X70974774Y-23575323I-403771J71196D01*
G01*
X70009662Y-23405147D01*
G75*
G02*
X69677087Y-22930180I71196J403771D01*
G01*
X69677087Y-22930180D01*
G75*
G02*
X70152054Y-22597605I403771J-71196D01*
G01*
X71117166Y-22767781D01*
G75*
G02*
X71449741Y-23242748I-71196J-403771D01*
G01*
G37*
G36*
G01*
X71672011Y-21982194D02*
X71672011Y-21982194D01*
G75*
G02*
X71197044Y-22314769I-403771J71196D01*
G01*
X70231932Y-22144593D01*
G75*
G02*
X69899357Y-21669626I71196J403771D01*
G01*
X69899357Y-21669626D01*
G75*
G02*
X70374324Y-21337051I403771J-71196D01*
G01*
X71339436Y-21507227D01*
G75*
G02*
X71672011Y-21982194I-71196J-403771D01*
G01*
G37*
G36*
G01*
X58642808Y-17266800D02*
X58642808Y-17266800D01*
G75*
G02*
X58167841Y-17599375I-403771J71196D01*
G01*
X57202729Y-17429199D01*
G75*
G02*
X56870154Y-16954232I71196J403771D01*
G01*
X56870154Y-16954232D01*
G75*
G02*
X57345121Y-16621657I403771J-71196D01*
G01*
X58310233Y-16791833D01*
G75*
G02*
X58642808Y-17266800I-71196J-403771D01*
G01*
G37*
G36*
G01*
X58420538Y-18527353D02*
X58420538Y-18527353D01*
G75*
G02*
X57945571Y-18859928I-403771J71196D01*
G01*
X56980459Y-18689752D01*
G75*
G02*
X56647884Y-18214785I71196J403771D01*
G01*
X56647884Y-18214785D01*
G75*
G02*
X57122851Y-17882210I403771J-71196D01*
G01*
X58087963Y-18052386D01*
G75*
G02*
X58420538Y-18527353I-71196J-403771D01*
G01*
G37*
G36*
G01*
X53102576Y-17589653D02*
X53102576Y-17589653D01*
G75*
G02*
X52627609Y-17922228I-403771J71196D01*
G01*
X51662497Y-17752052D01*
G75*
G02*
X51329922Y-17277085I71196J403771D01*
G01*
X51329922Y-17277085D01*
G75*
G02*
X51804889Y-16944510I403771J-71196D01*
G01*
X52770001Y-17114686D01*
G75*
G02*
X53102576Y-17589653I-71196J-403771D01*
G01*
G37*
G36*
G01*
X53324846Y-16329099D02*
X53324846Y-16329099D01*
G75*
G02*
X52849879Y-16661674I-403771J71196D01*
G01*
X51884767Y-16491498D01*
G75*
G02*
X51552192Y-16016531I71196J403771D01*
G01*
X51552192Y-16016531D01*
G75*
G02*
X52027159Y-15683956I403771J-71196D01*
G01*
X52992271Y-15854132D01*
G75*
G02*
X53324846Y-16329099I-71196J-403771D01*
G01*
G37*
G36*
G01*
X38641637Y-20994040D02*
X38641637Y-20994040D01*
G75*
G02*
X38166670Y-21326615I-403771J71196D01*
G01*
X37201558Y-21156439D01*
G75*
G02*
X36868983Y-20681472I71196J403771D01*
G01*
X36868983Y-20681472D01*
G75*
G02*
X37343950Y-20348897I403771J-71196D01*
G01*
X38309062Y-20519073D01*
G75*
G02*
X38641637Y-20994040I-71196J-403771D01*
G01*
G37*
G36*
G01*
X38419367Y-22254593D02*
X38419367Y-22254593D01*
G75*
G02*
X37944400Y-22587168I-403771J71196D01*
G01*
X36979288Y-22416992D01*
G75*
G02*
X36646713Y-21942025I71196J403771D01*
G01*
X36646713Y-21942025D01*
G75*
G02*
X37121680Y-21609450I403771J-71196D01*
G01*
X38086792Y-21779626D01*
G75*
G02*
X38419367Y-22254593I-71196J-403771D01*
G01*
G37*
G36*
G01*
X33101405Y-21316893D02*
X33101405Y-21316893D01*
G75*
G02*
X32626438Y-21649468I-403771J71196D01*
G01*
X31661326Y-21479292D01*
G75*
G02*
X31328751Y-21004325I71196J403771D01*
G01*
X31328751Y-21004325D01*
G75*
G02*
X31803718Y-20671750I403771J-71196D01*
G01*
X32768830Y-20841926D01*
G75*
G02*
X33101405Y-21316893I-71196J-403771D01*
G01*
G37*
G36*
G01*
X33323675Y-20056339D02*
X33323675Y-20056339D01*
G75*
G02*
X32848708Y-20388914I-403771J71196D01*
G01*
X31883596Y-20218738D01*
G75*
G02*
X31551021Y-19743771I71196J403771D01*
G01*
X31551021Y-19743771D01*
G75*
G02*
X32025988Y-19411196I403771J-71196D01*
G01*
X32991100Y-19581372D01*
G75*
G02*
X33323675Y-20056339I-71196J-403771D01*
G01*
G37*
G36*
G01*
X19053970Y-22376195D02*
X19053970Y-22376195D01*
G75*
G02*
X18579003Y-22708770I-403771J71196D01*
G01*
X17613891Y-22538594D01*
G75*
G02*
X17281316Y-22063627I71196J403771D01*
G01*
X17281316Y-22063627D01*
G75*
G02*
X17756283Y-21731052I403771J-71196D01*
G01*
X18721395Y-21901228D01*
G75*
G02*
X19053970Y-22376195I-71196J-403771D01*
G01*
G37*
G36*
G01*
X18831700Y-23636748D02*
X18831700Y-23636748D01*
G75*
G02*
X18356733Y-23969323I-403771J71196D01*
G01*
X17391621Y-23799147D01*
G75*
G02*
X17059046Y-23324180I71196J403771D01*
G01*
X17059046Y-23324180D01*
G75*
G02*
X17534013Y-22991605I403771J-71196D01*
G01*
X18499125Y-23161781D01*
G75*
G02*
X18831700Y-23636748I-71196J-403771D01*
G01*
G37*
G36*
G01*
X13513738Y-22699048D02*
X13513738Y-22699048D01*
G75*
G02*
X13038771Y-23031623I-403771J71196D01*
G01*
X12073659Y-22861447D01*
G75*
G02*
X11741084Y-22386480I71196J403771D01*
G01*
X11741084Y-22386480D01*
G75*
G02*
X12216051Y-22053905I403771J-71196D01*
G01*
X13181163Y-22224081D01*
G75*
G02*
X13513738Y-22699048I-71196J-403771D01*
G01*
G37*
G36*
G01*
X13736008Y-21438494D02*
X13736008Y-21438494D01*
G75*
G02*
X13261041Y-21771069I-403771J71196D01*
G01*
X12295929Y-21600893D01*
G75*
G02*
X11963354Y-21125926I71196J403771D01*
G01*
X11963354Y-21125926D01*
G75*
G02*
X12438321Y-20793351I403771J-71196D01*
G01*
X13403433Y-20963527D01*
G75*
G02*
X13736008Y-21438494I-71196J-403771D01*
G01*
G37*
G36*
G01*
X-533703Y-23758348D02*
X-533703Y-23758348D01*
G75*
G02*
X-1008670Y-24090923I-403771J71196D01*
G01*
X-1973782Y-23920747D01*
G75*
G02*
X-2306357Y-23445780I71196J403771D01*
G01*
X-2306357Y-23445780D01*
G75*
G02*
X-1831390Y-23113205I403771J-71196D01*
G01*
X-866278Y-23283381D01*
G75*
G02*
X-533703Y-23758348I-71196J-403771D01*
G01*
G37*
G36*
G01*
X-755973Y-25018901D02*
X-755973Y-25018901D01*
G75*
G02*
X-1230940Y-25351476I-403771J71196D01*
G01*
X-2196052Y-25181300D01*
G75*
G02*
X-2528627Y-24706333I71196J403771D01*
G01*
X-2528627Y-24706333D01*
G75*
G02*
X-2053660Y-24373758I403771J-71196D01*
G01*
X-1088548Y-24543934D01*
G75*
G02*
X-755973Y-25018901I-71196J-403771D01*
G01*
G37*
G36*
G01*
X-6073935Y-24081201D02*
X-6073935Y-24081201D01*
G75*
G02*
X-6548902Y-24413776I-403771J71196D01*
G01*
X-7514014Y-24243600D01*
G75*
G02*
X-7846589Y-23768633I71196J403771D01*
G01*
X-7846589Y-23768633D01*
G75*
G02*
X-7371622Y-23436058I403771J-71196D01*
G01*
X-6406510Y-23606234D01*
G75*
G02*
X-6073935Y-24081201I-71196J-403771D01*
G01*
G37*
G36*
G01*
X-5851665Y-22820647D02*
X-5851665Y-22820647D01*
G75*
G02*
X-6326632Y-23153222I-403771J71196D01*
G01*
X-7291744Y-22983046D01*
G75*
G02*
X-7624319Y-22508079I71196J403771D01*
G01*
X-7624319Y-22508079D01*
G75*
G02*
X-7149352Y-22175504I403771J-71196D01*
G01*
X-6184240Y-22345680D01*
G75*
G02*
X-5851665Y-22820647I-71196J-403771D01*
G01*
G37*
G36*
G01*
X107611920Y-27201119D02*
X107611920Y-27201119D01*
G75*
G02*
X108086887Y-26868544I403771J-71196D01*
G01*
X109051999Y-27038720D01*
G75*
G02*
X109384574Y-27513687I-71196J-403771D01*
G01*
X109384574Y-27513687D01*
G75*
G02*
X108909607Y-27846262I-403771J71196D01*
G01*
X107944495Y-27676086D01*
G75*
G02*
X107611920Y-27201119I71196J403771D01*
G01*
G37*
G36*
G01*
X107834190Y-25940565D02*
X107834190Y-25940565D01*
G75*
G02*
X108309157Y-25607990I403771J-71196D01*
G01*
X109274269Y-25778166D01*
G75*
G02*
X109606844Y-26253133I-71196J-403771D01*
G01*
X109606844Y-26253133D01*
G75*
G02*
X109131877Y-26585708I-403771J71196D01*
G01*
X108166765Y-26415532D01*
G75*
G02*
X107834190Y-25940565I71196J403771D01*
G01*
G37*
G36*
G01*
X113152152Y-26878266D02*
X113152152Y-26878266D01*
G75*
G02*
X113627119Y-26545691I403771J-71196D01*
G01*
X114592231Y-26715867D01*
G75*
G02*
X114924806Y-27190834I-71196J-403771D01*
G01*
X114924806Y-27190834D01*
G75*
G02*
X114449839Y-27523409I-403771J71196D01*
G01*
X113484727Y-27353233D01*
G75*
G02*
X113152152Y-26878266I71196J403771D01*
G01*
G37*
G36*
G01*
X112929882Y-28138819D02*
X112929882Y-28138819D01*
G75*
G02*
X113404849Y-27806244I403771J-71196D01*
G01*
X114369961Y-27976420D01*
G75*
G02*
X114702536Y-28451387I-71196J-403771D01*
G01*
X114702536Y-28451387D01*
G75*
G02*
X114227569Y-28783962I-403771J71196D01*
G01*
X113262457Y-28613786D01*
G75*
G02*
X112929882Y-28138819I71196J403771D01*
G01*
G37*
G36*
G01*
X90505261Y-14512775D02*
X90505261Y-14512775D01*
G75*
G02*
X90980228Y-14180200I403771J-71196D01*
G01*
X91945340Y-14350376D01*
G75*
G02*
X92277915Y-14825343I-71196J-403771D01*
G01*
X92277915Y-14825343D01*
G75*
G02*
X91802948Y-15157918I-403771J71196D01*
G01*
X90837836Y-14987742D01*
G75*
G02*
X90505261Y-14512775I71196J403771D01*
G01*
G37*
G36*
G01*
X90727531Y-13252221D02*
X90727531Y-13252221D01*
G75*
G02*
X91202498Y-12919646I403771J-71196D01*
G01*
X92167610Y-13089822D01*
G75*
G02*
X92500185Y-13564789I-71196J-403771D01*
G01*
X92500185Y-13564789D01*
G75*
G02*
X92025218Y-13897364I-403771J71196D01*
G01*
X91060106Y-13727188D01*
G75*
G02*
X90727531Y-13252221I71196J403771D01*
G01*
G37*
G36*
G01*
X96045493Y-14189922D02*
X96045493Y-14189922D01*
G75*
G02*
X96520460Y-13857347I403771J-71196D01*
G01*
X97485572Y-14027523D01*
G75*
G02*
X97818147Y-14502490I-71196J-403771D01*
G01*
X97818147Y-14502490D01*
G75*
G02*
X97343180Y-14835065I-403771J71196D01*
G01*
X96378068Y-14664889D01*
G75*
G02*
X96045493Y-14189922I71196J403771D01*
G01*
G37*
G36*
G01*
X95823223Y-15450475D02*
X95823223Y-15450475D01*
G75*
G02*
X96298190Y-15117900I403771J-71196D01*
G01*
X97263302Y-15288076D01*
G75*
G02*
X97595877Y-15763043I-71196J-403771D01*
G01*
X97595877Y-15763043D01*
G75*
G02*
X97120910Y-16095618I-403771J71196D01*
G01*
X96155798Y-15925442D01*
G75*
G02*
X95823223Y-15450475I71196J403771D01*
G01*
G37*
G36*
G01*
X72985099Y-4169514D02*
X72985099Y-4169514D01*
G75*
G02*
X73460066Y-3836939I403771J-71196D01*
G01*
X74425178Y-4007115D01*
G75*
G02*
X74757753Y-4482082I-71196J-403771D01*
G01*
X74757753Y-4482082D01*
G75*
G02*
X74282786Y-4814657I-403771J71196D01*
G01*
X73317674Y-4644481D01*
G75*
G02*
X72985099Y-4169514I71196J403771D01*
G01*
G37*
G36*
G01*
X73207369Y-2908960D02*
X73207369Y-2908960D01*
G75*
G02*
X73682336Y-2576385I403771J-71196D01*
G01*
X74647448Y-2746561D01*
G75*
G02*
X74980023Y-3221528I-71196J-403771D01*
G01*
X74980023Y-3221528D01*
G75*
G02*
X74505056Y-3554103I-403771J71196D01*
G01*
X73539944Y-3383927D01*
G75*
G02*
X73207369Y-2908960I71196J403771D01*
G01*
G37*
G36*
G01*
X78525331Y-3846661D02*
X78525331Y-3846661D01*
G75*
G02*
X79000298Y-3514086I403771J-71196D01*
G01*
X79965410Y-3684262D01*
G75*
G02*
X80297985Y-4159229I-71196J-403771D01*
G01*
X80297985Y-4159229D01*
G75*
G02*
X79823018Y-4491804I-403771J71196D01*
G01*
X78857906Y-4321628D01*
G75*
G02*
X78525331Y-3846661I71196J403771D01*
G01*
G37*
G36*
G01*
X78303061Y-5107214D02*
X78303061Y-5107214D01*
G75*
G02*
X78778028Y-4774639I403771J-71196D01*
G01*
X79743140Y-4944815D01*
G75*
G02*
X80075715Y-5419782I-71196J-403771D01*
G01*
X80075715Y-5419782D01*
G75*
G02*
X79600748Y-5752357I-403771J71196D01*
G01*
X78635636Y-5582181D01*
G75*
G02*
X78303061Y-5107214I71196J403771D01*
G01*
G37*
G36*
G01*
X54637934Y1483581D02*
X54637934Y1483581D01*
G75*
G02*
X55112901Y1816156I403771J-71196D01*
G01*
X56078013Y1645980D01*
G75*
G02*
X56410588Y1171013I-71196J-403771D01*
G01*
X56410588Y1171013D01*
G75*
G02*
X55935621Y838438I-403771J71196D01*
G01*
X54970509Y1008614D01*
G75*
G02*
X54637934Y1483581I71196J403771D01*
G01*
G37*
G36*
G01*
X54860204Y2744135D02*
X54860204Y2744135D01*
G75*
G02*
X55335171Y3076710I403771J-71196D01*
G01*
X56300283Y2906534D01*
G75*
G02*
X56632858Y2431567I-71196J-403771D01*
G01*
X56632858Y2431567D01*
G75*
G02*
X56157891Y2098992I-403771J71196D01*
G01*
X55192779Y2269168D01*
G75*
G02*
X54860204Y2744135I71196J403771D01*
G01*
G37*
G36*
G01*
X60178166Y1806434D02*
X60178166Y1806434D01*
G75*
G02*
X60653133Y2139009I403771J-71196D01*
G01*
X61618245Y1968833D01*
G75*
G02*
X61950820Y1493866I-71196J-403771D01*
G01*
X61950820Y1493866D01*
G75*
G02*
X61475853Y1161291I-403771J71196D01*
G01*
X60510741Y1331467D01*
G75*
G02*
X60178166Y1806434I71196J403771D01*
G01*
G37*
G36*
G01*
X59955896Y545881D02*
X59955896Y545881D01*
G75*
G02*
X60430863Y878456I403771J-71196D01*
G01*
X61395975Y708280D01*
G75*
G02*
X61728550Y233313I-71196J-403771D01*
G01*
X61728550Y233313D01*
G75*
G02*
X61253583Y-99262I-403771J71196D01*
G01*
X60288471Y70914D01*
G75*
G02*
X59955896Y545881I71196J403771D01*
G01*
G37*
G36*
G01*
X34636763Y-2243656D02*
X34636763Y-2243656D01*
G75*
G02*
X35111730Y-1911081I403771J-71196D01*
G01*
X36076842Y-2081257D01*
G75*
G02*
X36409417Y-2556224I-71196J-403771D01*
G01*
X36409417Y-2556224D01*
G75*
G02*
X35934450Y-2888799I-403771J71196D01*
G01*
X34969338Y-2718623D01*
G75*
G02*
X34636763Y-2243656I71196J403771D01*
G01*
G37*
G36*
G01*
X34859033Y-983102D02*
X34859033Y-983102D01*
G75*
G02*
X35334000Y-650527I403771J-71196D01*
G01*
X36299112Y-820703D01*
G75*
G02*
X36631687Y-1295670I-71196J-403771D01*
G01*
X36631687Y-1295670D01*
G75*
G02*
X36156720Y-1628245I-403771J71196D01*
G01*
X35191608Y-1458069D01*
G75*
G02*
X34859033Y-983102I71196J403771D01*
G01*
G37*
G36*
G01*
X40176995Y-1920803D02*
X40176995Y-1920803D01*
G75*
G02*
X40651962Y-1588228I403771J-71196D01*
G01*
X41617074Y-1758404D01*
G75*
G02*
X41949649Y-2233371I-71196J-403771D01*
G01*
X41949649Y-2233371D01*
G75*
G02*
X41474682Y-2565946I-403771J71196D01*
G01*
X40509570Y-2395770D01*
G75*
G02*
X40176995Y-1920803I71196J403771D01*
G01*
G37*
G36*
G01*
X39954725Y-3181356D02*
X39954725Y-3181356D01*
G75*
G02*
X40429692Y-2848781I403771J-71196D01*
G01*
X41394804Y-3018957D01*
G75*
G02*
X41727379Y-3493924I-71196J-403771D01*
G01*
X41727379Y-3493924D01*
G75*
G02*
X41252412Y-3826499I-403771J71196D01*
G01*
X40287300Y-3656323D01*
G75*
G02*
X39954725Y-3181356I71196J403771D01*
G01*
G37*
G36*
G01*
X15049092Y-3625812D02*
X15049092Y-3625812D01*
G75*
G02*
X15524059Y-3293237I403771J-71196D01*
G01*
X16489171Y-3463413D01*
G75*
G02*
X16821746Y-3938380I-71196J-403771D01*
G01*
X16821746Y-3938380D01*
G75*
G02*
X16346779Y-4270955I-403771J71196D01*
G01*
X15381667Y-4100779D01*
G75*
G02*
X15049092Y-3625812I71196J403771D01*
G01*
G37*
G36*
G01*
X15271362Y-2365258D02*
X15271362Y-2365258D01*
G75*
G02*
X15746329Y-2032683I403771J-71196D01*
G01*
X16711441Y-2202859D01*
G75*
G02*
X17044016Y-2677826I-71196J-403771D01*
G01*
X17044016Y-2677826D01*
G75*
G02*
X16569049Y-3010401I-403771J71196D01*
G01*
X15603937Y-2840225D01*
G75*
G02*
X15271362Y-2365258I71196J403771D01*
G01*
G37*
G36*
G01*
X20589324Y-3302959D02*
X20589324Y-3302959D01*
G75*
G02*
X21064291Y-2970384I403771J-71196D01*
G01*
X22029403Y-3140560D01*
G75*
G02*
X22361978Y-3615527I-71196J-403771D01*
G01*
X22361978Y-3615527D01*
G75*
G02*
X21887011Y-3948102I-403771J71196D01*
G01*
X20921899Y-3777926D01*
G75*
G02*
X20589324Y-3302959I71196J403771D01*
G01*
G37*
G36*
G01*
X20367054Y-4563512D02*
X20367054Y-4563512D01*
G75*
G02*
X20842021Y-4230937I403771J-71196D01*
G01*
X21807133Y-4401113D01*
G75*
G02*
X22139708Y-4876080I-71196J-403771D01*
G01*
X22139708Y-4876080D01*
G75*
G02*
X21664741Y-5208655I-403771J71196D01*
G01*
X20699629Y-5038479D01*
G75*
G02*
X20367054Y-4563512I71196J403771D01*
G01*
G37*
G36*
G01*
X-4538576Y-5007966D02*
X-4538576Y-5007966D01*
G75*
G02*
X-4063609Y-4675391I403771J-71196D01*
G01*
X-3098497Y-4845567D01*
G75*
G02*
X-2765922Y-5320534I-71196J-403771D01*
G01*
X-2765922Y-5320534D01*
G75*
G02*
X-3240889Y-5653109I-403771J71196D01*
G01*
X-4206001Y-5482933D01*
G75*
G02*
X-4538576Y-5007966I71196J403771D01*
G01*
G37*
G36*
G01*
X-4316306Y-3747412D02*
X-4316306Y-3747412D01*
G75*
G02*
X-3841339Y-3414837I403771J-71196D01*
G01*
X-2876227Y-3585013D01*
G75*
G02*
X-2543652Y-4059980I-71196J-403771D01*
G01*
X-2543652Y-4059980D01*
G75*
G02*
X-3018619Y-4392555I-403771J71196D01*
G01*
X-3983731Y-4222379D01*
G75*
G02*
X-4316306Y-3747412I71196J403771D01*
G01*
G37*
G36*
G01*
X1001656Y-4685113D02*
X1001656Y-4685113D01*
G75*
G02*
X1476623Y-4352538I403771J-71196D01*
G01*
X2441735Y-4522714D01*
G75*
G02*
X2774310Y-4997681I-71196J-403771D01*
G01*
X2774310Y-4997681D01*
G75*
G02*
X2299343Y-5330256I-403771J71196D01*
G01*
X1334231Y-5160080D01*
G75*
G02*
X1001656Y-4685113I71196J403771D01*
G01*
G37*
G36*
G01*
X779386Y-5945666D02*
X779386Y-5945666D01*
G75*
G02*
X1254353Y-5613091I403771J-71196D01*
G01*
X2219465Y-5783267D01*
G75*
G02*
X2552040Y-6258234I-71196J-403771D01*
G01*
X2552040Y-6258234D01*
G75*
G02*
X2077073Y-6590809I-403771J71196D01*
G01*
X1111961Y-6420633D01*
G75*
G02*
X779386Y-5945666I71196J403771D01*
G01*
G37*
G36*
G01*
X144625000Y-25425000D02*
X143375000Y-25425000D01*
G75*
G02*
X143125000Y-25175000I0J250000D01*
G01*
X143125000Y-24425000D01*
G75*
G02*
X143375000Y-24175000I250000J0D01*
G01*
X144625000Y-24175000D01*
G75*
G02*
X144875000Y-24425000I0J-250000D01*
G01*
X144875000Y-25175000D01*
G75*
G02*
X144625000Y-25425000I-250000J0D01*
G01*
G37*
G36*
G01*
X144625000Y-22625000D02*
X143375000Y-22625000D01*
G75*
G02*
X143125000Y-22375000I0J250000D01*
G01*
X143125000Y-21625000D01*
G75*
G02*
X143375000Y-21375000I250000J0D01*
G01*
X144625000Y-21375000D01*
G75*
G02*
X144875000Y-21625000I0J-250000D01*
G01*
X144875000Y-22375000D01*
G75*
G02*
X144625000Y-22625000I-250000J0D01*
G01*
G37*
G36*
G01*
X131725001Y-6675000D02*
X131725001Y-7925000D01*
G75*
G02*
X131475001Y-8175000I-250000J0D01*
G01*
X130725001Y-8175000D01*
G75*
G02*
X130475001Y-7925000I0J250000D01*
G01*
X130475001Y-6675000D01*
G75*
G02*
X130725001Y-6425000I250000J0D01*
G01*
X131475001Y-6425000D01*
G75*
G02*
X131725001Y-6675000I0J-250000D01*
G01*
G37*
G36*
G01*
X128925001Y-6675000D02*
X128925001Y-7925000D01*
G75*
G02*
X128675001Y-8175000I-250000J0D01*
G01*
X127925001Y-8175000D01*
G75*
G02*
X127675001Y-7925000I0J250000D01*
G01*
X127675001Y-6675000D01*
G75*
G02*
X127925001Y-6425000I250000J0D01*
G01*
X128675001Y-6425000D01*
G75*
G02*
X128925001Y-6675000I0J-250000D01*
G01*
G37*
G36*
G01*
X137000000Y-90875001D02*
X137000000Y-90125001D01*
G75*
G02*
X137225000Y-89900001I225000J0D01*
G01*
X137675000Y-89900001D01*
G75*
G02*
X137900000Y-90125001I0J-225000D01*
G01*
X137900000Y-90875001D01*
G75*
G02*
X137675000Y-91100001I-225000J0D01*
G01*
X137225000Y-91100001D01*
G75*
G02*
X137000000Y-90875001I0J225000D01*
G01*
G37*
G36*
G01*
X133699000Y-90875001D02*
X133699000Y-90125001D01*
G75*
G02*
X133924000Y-89900001I225000J0D01*
G01*
X134374000Y-89900001D01*
G75*
G02*
X134599000Y-90125001I0J-225000D01*
G01*
X134599000Y-90875001D01*
G75*
G02*
X134374000Y-91100001I-225000J0D01*
G01*
X133924000Y-91100001D01*
G75*
G02*
X133699000Y-90875001I0J225000D01*
G01*
G37*
G36*
G01*
X149375000Y-88500000D02*
X148625000Y-88500000D01*
G75*
G02*
X148400000Y-88275000I0J225000D01*
G01*
X148400000Y-87825000D01*
G75*
G02*
X148625000Y-87600000I225000J0D01*
G01*
X149375000Y-87600000D01*
G75*
G02*
X149600000Y-87825000I0J-225000D01*
G01*
X149600000Y-88275000D01*
G75*
G02*
X149375000Y-88500000I-225000J0D01*
G01*
G37*
G36*
G01*
X149375000Y-91801000D02*
X148625000Y-91801000D01*
G75*
G02*
X148400000Y-91576000I0J225000D01*
G01*
X148400000Y-91126000D01*
G75*
G02*
X148625000Y-90901000I225000J0D01*
G01*
X149375000Y-90901000D01*
G75*
G02*
X149600000Y-91126000I0J-225000D01*
G01*
X149600000Y-91576000D01*
G75*
G02*
X149375000Y-91801000I-225000J0D01*
G01*
G37*
G36*
G01*
X146774999Y-22200002D02*
X146024999Y-22200002D01*
G75*
G02*
X145799999Y-21975002I0J225000D01*
G01*
X145799999Y-21525002D01*
G75*
G02*
X146024999Y-21300002I225000J0D01*
G01*
X146774999Y-21300002D01*
G75*
G02*
X146999999Y-21525002I0J-225000D01*
G01*
X146999999Y-21975002D01*
G75*
G02*
X146774999Y-22200002I-225000J0D01*
G01*
G37*
G36*
G01*
X146774999Y-25501002D02*
X146024999Y-25501002D01*
G75*
G02*
X145799999Y-25276002I0J225000D01*
G01*
X145799999Y-24826002D01*
G75*
G02*
X146024999Y-24601002I225000J0D01*
G01*
X146774999Y-24601002D01*
G75*
G02*
X146999999Y-24826002I0J-225000D01*
G01*
X146999999Y-25276002D01*
G75*
G02*
X146774999Y-25501002I-225000J0D01*
G01*
G37*
G36*
G01*
X128500000Y-9125001D02*
X128500000Y-9875001D01*
G75*
G02*
X128275000Y-10100001I-225000J0D01*
G01*
X127825000Y-10100001D01*
G75*
G02*
X127600000Y-9875001I0J225000D01*
G01*
X127600000Y-9125001D01*
G75*
G02*
X127825000Y-8900001I225000J0D01*
G01*
X128275000Y-8900001D01*
G75*
G02*
X128500000Y-9125001I0J-225000D01*
G01*
G37*
G36*
G01*
X131801000Y-9125001D02*
X131801000Y-9875001D01*
G75*
G02*
X131576000Y-10100001I-225000J0D01*
G01*
X131126000Y-10100001D01*
G75*
G02*
X130901000Y-9875001I0J225000D01*
G01*
X130901000Y-9125001D01*
G75*
G02*
X131126000Y-8900001I225000J0D01*
G01*
X131576000Y-8900001D01*
G75*
G02*
X131801000Y-9125001I0J-225000D01*
G01*
G37*
G36*
G01*
X147175000Y-88500000D02*
X146425000Y-88500000D01*
G75*
G02*
X146200000Y-88275000I0J225000D01*
G01*
X146200000Y-87825000D01*
G75*
G02*
X146425000Y-87600000I225000J0D01*
G01*
X147175000Y-87600000D01*
G75*
G02*
X147400000Y-87825000I0J-225000D01*
G01*
X147400000Y-88275000D01*
G75*
G02*
X147175000Y-88500000I-225000J0D01*
G01*
G37*
G36*
G01*
X147175000Y-91801000D02*
X146425000Y-91801000D01*
G75*
G02*
X146200000Y-91576000I0J225000D01*
G01*
X146200000Y-91126000D01*
G75*
G02*
X146425000Y-90901000I225000J0D01*
G01*
X147175000Y-90901000D01*
G75*
G02*
X147400000Y-91126000I0J-225000D01*
G01*
X147400000Y-91576000D01*
G75*
G02*
X147175000Y-91801000I-225000J0D01*
G01*
G37*
G36*
G01*
X75475346Y-108527597D02*
X76213952Y-108657833D01*
G75*
G02*
X76396463Y-108918486I-39071J-221582D01*
G01*
X76318321Y-109361650D01*
G75*
G02*
X76057668Y-109544161I-221582J39071D01*
G01*
X75319062Y-109413925D01*
G75*
G02*
X75136551Y-109153272I39071J221582D01*
G01*
X75214693Y-108710108D01*
G75*
G02*
X75475346Y-108527597I221582J-39071D01*
G01*
G37*
G36*
G01*
X76048558Y-105276746D02*
X76787164Y-105406982D01*
G75*
G02*
X76969675Y-105667635I-39071J-221582D01*
G01*
X76891533Y-106110799D01*
G75*
G02*
X76630880Y-106293310I-221582J39071D01*
G01*
X75892274Y-106163074D01*
G75*
G02*
X75709763Y-105902421I39071J221582D01*
G01*
X75787905Y-105459257D01*
G75*
G02*
X76048558Y-105276746I221582J-39071D01*
G01*
G37*
G36*
G01*
X73308769Y-108145571D02*
X74047375Y-108275807D01*
G75*
G02*
X74229886Y-108536460I-39071J-221582D01*
G01*
X74151744Y-108979624D01*
G75*
G02*
X73891091Y-109162135I-221582J39071D01*
G01*
X73152485Y-109031899D01*
G75*
G02*
X72969974Y-108771246I39071J221582D01*
G01*
X73048116Y-108328082D01*
G75*
G02*
X73308769Y-108145571I221582J-39071D01*
G01*
G37*
G36*
G01*
X73881981Y-104894720D02*
X74620587Y-105024956D01*
G75*
G02*
X74803098Y-105285609I-39071J-221582D01*
G01*
X74724956Y-105728773D01*
G75*
G02*
X74464303Y-105911284I-221582J39071D01*
G01*
X73725697Y-105781048D01*
G75*
G02*
X73543186Y-105520395I39071J221582D01*
G01*
X73621328Y-105077231D01*
G75*
G02*
X73881981Y-104894720I221582J-39071D01*
G01*
G37*
G36*
G01*
X71142193Y-107763546D02*
X71880799Y-107893782D01*
G75*
G02*
X72063310Y-108154435I-39071J-221582D01*
G01*
X71985168Y-108597599D01*
G75*
G02*
X71724515Y-108780110I-221582J39071D01*
G01*
X70985909Y-108649874D01*
G75*
G02*
X70803398Y-108389221I39071J221582D01*
G01*
X70881540Y-107946057D01*
G75*
G02*
X71142193Y-107763546I221582J-39071D01*
G01*
G37*
G36*
G01*
X71715405Y-104512695D02*
X72454011Y-104642931D01*
G75*
G02*
X72636522Y-104903584I-39071J-221582D01*
G01*
X72558380Y-105346748D01*
G75*
G02*
X72297727Y-105529259I-221582J39071D01*
G01*
X71559121Y-105399023D01*
G75*
G02*
X71376610Y-105138370I39071J221582D01*
G01*
X71454752Y-104695206D01*
G75*
G02*
X71715405Y-104512695I221582J-39071D01*
G01*
G37*
G36*
G01*
X68975616Y-107381520D02*
X69714222Y-107511756D01*
G75*
G02*
X69896733Y-107772409I-39071J-221582D01*
G01*
X69818591Y-108215573D01*
G75*
G02*
X69557938Y-108398084I-221582J39071D01*
G01*
X68819332Y-108267848D01*
G75*
G02*
X68636821Y-108007195I39071J221582D01*
G01*
X68714963Y-107564031D01*
G75*
G02*
X68975616Y-107381520I221582J-39071D01*
G01*
G37*
G36*
G01*
X69548828Y-104130669D02*
X70287434Y-104260905D01*
G75*
G02*
X70469945Y-104521558I-39071J-221582D01*
G01*
X70391803Y-104964722D01*
G75*
G02*
X70131150Y-105147233I-221582J39071D01*
G01*
X69392544Y-105016997D01*
G75*
G02*
X69210033Y-104756344I39071J221582D01*
G01*
X69288175Y-104313180D01*
G75*
G02*
X69548828Y-104130669I221582J-39071D01*
G01*
G37*
G36*
G01*
X66809039Y-106999494D02*
X67547645Y-107129730D01*
G75*
G02*
X67730156Y-107390383I-39071J-221582D01*
G01*
X67652014Y-107833547D01*
G75*
G02*
X67391361Y-108016058I-221582J39071D01*
G01*
X66652755Y-107885822D01*
G75*
G02*
X66470244Y-107625169I39071J221582D01*
G01*
X66548386Y-107182005D01*
G75*
G02*
X66809039Y-106999494I221582J-39071D01*
G01*
G37*
G36*
G01*
X67382251Y-103748643D02*
X68120857Y-103878879D01*
G75*
G02*
X68303368Y-104139532I-39071J-221582D01*
G01*
X68225226Y-104582696D01*
G75*
G02*
X67964573Y-104765207I-221582J39071D01*
G01*
X67225967Y-104634971D01*
G75*
G02*
X67043456Y-104374318I39071J221582D01*
G01*
X67121598Y-103931154D01*
G75*
G02*
X67382251Y-103748643I221582J-39071D01*
G01*
G37*
D24*
X127499999Y-15850001D03*
X127499999Y-14900001D03*
X127499999Y-13950001D03*
X129699999Y-13950001D03*
X129699999Y-15850001D03*
X129699999Y-14900001D03*
D18*
X126984490Y-36447012D03*
X125084490Y-36447012D03*
X125084490Y-34247012D03*
X126034490Y-34247012D03*
X126984490Y-34247012D03*
X151349999Y-31900001D03*
X153249999Y-31900001D03*
X153249999Y-34100001D03*
X152299999Y-34100001D03*
X151349999Y-34100001D03*
D25*
X156091270Y-91369140D03*
X151091270Y-91369140D03*
X156091270Y-94369140D03*
X151091270Y-94369140D03*
D17*
G36*
X56881768Y-71459522D02*
G01*
X53927345Y-70938577D01*
X54448290Y-67984154D01*
X57402713Y-68505099D01*
X56881768Y-71459522D01*
G37*
G36*
X37351710Y-68015846D02*
G01*
X34397287Y-67494901D01*
X34918232Y-64540478D01*
X37872655Y-65061423D01*
X37351710Y-68015846D01*
G37*
G36*
X93630000Y629998D02*
G01*
X92480000Y629998D01*
X92980000Y1379998D01*
X92480000Y2129998D01*
X93630000Y2129998D01*
X93630000Y629998D01*
G37*
G36*
X92680000Y1379998D02*
G01*
X92180000Y629998D01*
X91180000Y629998D01*
X91180000Y2129998D01*
X92180000Y2129998D01*
X92680000Y1379998D01*
G37*
G36*
X129500000Y-29725002D02*
G01*
X128750000Y-29225002D01*
X128750000Y-28225002D01*
X130250000Y-28225002D01*
X130250000Y-29225002D01*
X129500000Y-29725002D01*
G37*
G36*
X128750000Y-30675002D02*
G01*
X128750000Y-29525002D01*
X129500000Y-30025002D01*
X130250000Y-29525002D01*
X130250000Y-30675002D01*
X128750000Y-30675002D01*
G37*
G36*
X131500000Y-29725002D02*
G01*
X130750000Y-29225002D01*
X130750000Y-28225002D01*
X132250000Y-28225002D01*
X132250000Y-29225002D01*
X131500000Y-29725002D01*
G37*
G36*
X130750000Y-30675002D02*
G01*
X130750000Y-29525002D01*
X131500000Y-30025002D01*
X132250000Y-29525002D01*
X132250000Y-30675002D01*
X130750000Y-30675002D01*
G37*
G36*
X136050000Y-29725000D02*
G01*
X135300000Y-29225000D01*
X135300000Y-28225000D01*
X136800000Y-28225000D01*
X136800000Y-29225000D01*
X136050000Y-29725000D01*
G37*
G36*
X135300000Y-30675000D02*
G01*
X135300000Y-29525000D01*
X136050000Y-30025000D01*
X136800000Y-29525000D01*
X136800000Y-30675000D01*
X135300000Y-30675000D01*
G37*
G36*
X133300000Y-30675000D02*
G01*
X133300000Y-29525000D01*
X134050000Y-30025000D01*
X134800000Y-29525000D01*
X134800000Y-30675000D01*
X133300000Y-30675000D01*
G37*
G36*
X134050000Y-29725000D02*
G01*
X133300000Y-29225000D01*
X133300000Y-28225000D01*
X134800000Y-28225000D01*
X134800000Y-29225000D01*
X134050000Y-29725000D01*
G37*
G36*
X99231106Y-101905464D02*
G01*
X98796986Y-104367483D01*
X96482688Y-103959410D01*
X96916808Y-101497391D01*
X99231106Y-101905464D01*
G37*
G36*
X110437640Y-103853758D02*
G01*
X110871761Y-101391739D01*
X112989098Y-101765082D01*
X112554977Y-104227101D01*
X110437640Y-103853758D01*
G37*
D26*
X109509269Y-107566249D03*
X99503623Y-105801983D03*
D27*
X104506446Y-106684116D03*
D17*
G36*
X81504193Y-92734744D02*
G01*
X81070073Y-95196763D01*
X78755775Y-94788690D01*
X79189895Y-92326671D01*
X81504193Y-92734744D01*
G37*
G36*
X92710727Y-94683038D02*
G01*
X93144848Y-92221019D01*
X95262185Y-92594362D01*
X94828064Y-95056381D01*
X92710727Y-94683038D01*
G37*
D26*
X91782356Y-98395529D03*
X81776710Y-96631263D03*
D27*
X86779533Y-97513396D03*
D17*
G36*
X63363777Y-85909108D02*
G01*
X62929657Y-88371127D01*
X60615359Y-87963054D01*
X61049479Y-85501035D01*
X63363777Y-85909108D01*
G37*
G36*
X74570311Y-87857402D02*
G01*
X75004432Y-85395383D01*
X77121769Y-85768726D01*
X76687648Y-88230745D01*
X74570311Y-87857402D01*
G37*
D26*
X73641940Y-91569893D03*
X63636294Y-89805627D03*
D27*
X68639117Y-90687760D03*
D17*
G36*
X44603112Y-82601095D02*
G01*
X44168992Y-85063114D01*
X41854694Y-84655041D01*
X42288814Y-82193022D01*
X44603112Y-82601095D01*
G37*
G36*
X55809646Y-84549389D02*
G01*
X56243767Y-82087370D01*
X58361104Y-82460713D01*
X57926983Y-84922732D01*
X55809646Y-84549389D01*
G37*
D26*
X54881275Y-88261880D03*
X44875629Y-86497614D03*
D27*
X49878452Y-87379747D03*
D17*
G36*
X96951121Y-73696503D02*
G01*
X96517001Y-76158522D01*
X94202703Y-75750449D01*
X94636823Y-73288430D01*
X96951121Y-73696503D01*
G37*
G36*
X108157655Y-75644797D02*
G01*
X108591776Y-73182778D01*
X110709113Y-73556121D01*
X110274992Y-76018140D01*
X108157655Y-75644797D01*
G37*
D26*
X107229284Y-79357288D03*
X97223638Y-77593022D03*
D27*
X102226461Y-78475155D03*
D17*
G36*
X79844462Y-61008157D02*
G01*
X79410342Y-63470176D01*
X77096044Y-63062103D01*
X77530164Y-60600084D01*
X79844462Y-61008157D01*
G37*
G36*
X91050996Y-62956451D02*
G01*
X91485117Y-60494432D01*
X93602454Y-60867775D01*
X93168333Y-63329794D01*
X91050996Y-62956451D01*
G37*
D26*
X90122625Y-66668942D03*
X80116979Y-64904676D03*
D27*
X85119802Y-65786809D03*
D17*
G36*
X62324298Y-50664895D02*
G01*
X61890178Y-53126914D01*
X59575880Y-52718841D01*
X60010000Y-50256822D01*
X62324298Y-50664895D01*
G37*
G36*
X73530832Y-52613189D02*
G01*
X73964953Y-50151170D01*
X76082290Y-50524513D01*
X75648169Y-52986532D01*
X73530832Y-52613189D01*
G37*
D26*
X72602461Y-56325680D03*
X62596815Y-54561414D03*
D27*
X67599638Y-55443547D03*
D17*
G36*
X43977134Y-45011800D02*
G01*
X43543014Y-47473819D01*
X41228716Y-47065746D01*
X41662836Y-44603727D01*
X43977134Y-45011800D01*
G37*
G36*
X55183668Y-46960094D02*
G01*
X55617789Y-44498075D01*
X57735126Y-44871418D01*
X57301005Y-47333437D01*
X55183668Y-46960094D01*
G37*
D26*
X54255297Y-50672585D03*
X44249651Y-48908319D03*
D27*
X49252474Y-49790452D03*
D17*
G36*
X23975964Y-48739040D02*
G01*
X23541844Y-51201059D01*
X21227546Y-50792986D01*
X21661666Y-48330967D01*
X23975964Y-48739040D01*
G37*
G36*
X35182498Y-50687334D02*
G01*
X35616619Y-48225315D01*
X37733956Y-48598658D01*
X37299835Y-51060677D01*
X35182498Y-50687334D01*
G37*
D26*
X34254127Y-54399825D03*
X24248481Y-52635559D03*
D27*
X29251304Y-53517692D03*
D17*
G36*
X4388293Y-50121193D02*
G01*
X3954173Y-52583212D01*
X1639875Y-52175139D01*
X2073995Y-49713120D01*
X4388293Y-50121193D01*
G37*
G36*
X15594827Y-52069487D02*
G01*
X16028948Y-49607468D01*
X18146285Y-49980811D01*
X17712164Y-52442830D01*
X15594827Y-52069487D01*
G37*
D26*
X14666456Y-55781978D03*
X4660810Y-54017712D03*
D27*
X9663633Y-54899845D03*
D17*
G36*
X-15199375Y-51503348D02*
G01*
X-15633495Y-53965367D01*
X-17947793Y-53557294D01*
X-17513673Y-51095275D01*
X-15199375Y-51503348D01*
G37*
G36*
X-3992841Y-53451642D02*
G01*
X-3558720Y-50989623D01*
X-1441383Y-51362966D01*
X-1875504Y-53824985D01*
X-3992841Y-53451642D01*
G37*
D26*
X-4921212Y-57164133D03*
X-14926858Y-55399867D03*
D27*
X-9924035Y-56282000D03*
D17*
G36*
X100259134Y-54935835D02*
G01*
X99825014Y-57397854D01*
X97510716Y-56989781D01*
X97944836Y-54527762D01*
X100259134Y-54935835D01*
G37*
G36*
X111465668Y-56884129D02*
G01*
X111899789Y-54422110D01*
X114017126Y-54795453D01*
X113583005Y-57257472D01*
X111465668Y-56884129D01*
G37*
D26*
X110537297Y-60596620D03*
X100531651Y-58832354D03*
D27*
X105534474Y-59714487D03*
D17*
G36*
X83152472Y-42247490D02*
G01*
X82718352Y-44709509D01*
X80404054Y-44301436D01*
X80838174Y-41839417D01*
X83152472Y-42247490D01*
G37*
G36*
X94359006Y-44195784D02*
G01*
X94793127Y-41733765D01*
X96910464Y-42107108D01*
X96476343Y-44569127D01*
X94359006Y-44195784D01*
G37*
D26*
X93430635Y-47908275D03*
X83424989Y-46144009D03*
D27*
X88427812Y-47026142D03*
D17*
G36*
X65632310Y-31904230D02*
G01*
X65198190Y-34366249D01*
X62883892Y-33958176D01*
X63318012Y-31496157D01*
X65632310Y-31904230D01*
G37*
G36*
X76838844Y-33852524D02*
G01*
X77272965Y-31390505D01*
X79390302Y-31763848D01*
X78956181Y-34225867D01*
X76838844Y-33852524D01*
G37*
D26*
X75910473Y-37565015D03*
X65904827Y-35800749D03*
D27*
X70907650Y-36682882D03*
D17*
G36*
X47285145Y-26251135D02*
G01*
X46851025Y-28713154D01*
X44536727Y-28305081D01*
X44970847Y-25843062D01*
X47285145Y-26251135D01*
G37*
G36*
X58491679Y-28199429D02*
G01*
X58925800Y-25737410D01*
X61043137Y-26110753D01*
X60609016Y-28572772D01*
X58491679Y-28199429D01*
G37*
D26*
X57563308Y-31911920D03*
X47557662Y-30147654D03*
D27*
X52560485Y-31029787D03*
D17*
G36*
X27283974Y-29978372D02*
G01*
X26849854Y-32440391D01*
X24535556Y-32032318D01*
X24969676Y-29570299D01*
X27283974Y-29978372D01*
G37*
G36*
X38490508Y-31926666D02*
G01*
X38924629Y-29464647D01*
X41041966Y-29837990D01*
X40607845Y-32300009D01*
X38490508Y-31926666D01*
G37*
D26*
X37562137Y-35639157D03*
X27556491Y-33874891D03*
D27*
X32559314Y-34757024D03*
D17*
G36*
X7696306Y-31360526D02*
G01*
X7262186Y-33822545D01*
X4947888Y-33414472D01*
X5382008Y-30952453D01*
X7696306Y-31360526D01*
G37*
G36*
X18902840Y-33308820D02*
G01*
X19336961Y-30846801D01*
X21454298Y-31220144D01*
X21020177Y-33682163D01*
X18902840Y-33308820D01*
G37*
D26*
X17974469Y-37021311D03*
X7968823Y-35257045D03*
D27*
X12971646Y-36139178D03*
D17*
G36*
X-11891363Y-32742681D02*
G01*
X-12325483Y-35204700D01*
X-14639781Y-34796627D01*
X-14205661Y-32334608D01*
X-11891363Y-32742681D01*
G37*
G36*
X-684829Y-34690975D02*
G01*
X-250708Y-32228956D01*
X1866629Y-32602299D01*
X1432508Y-35064318D01*
X-684829Y-34690975D01*
G37*
D26*
X-1613200Y-38403466D03*
X-11618846Y-36639200D03*
D27*
X-6616023Y-37521333D03*
D17*
G36*
X103567146Y-36175169D02*
G01*
X103133026Y-38637188D01*
X100818728Y-38229115D01*
X101252848Y-35767096D01*
X103567146Y-36175169D01*
G37*
G36*
X114773680Y-38123463D02*
G01*
X115207801Y-35661444D01*
X117325138Y-36034787D01*
X116891017Y-38496806D01*
X114773680Y-38123463D01*
G37*
D26*
X113845309Y-41835954D03*
X103839663Y-40071688D03*
D27*
X108842486Y-40953821D03*
D17*
G36*
X86460485Y-23486824D02*
G01*
X86026365Y-25948843D01*
X83712067Y-25540770D01*
X84146187Y-23078751D01*
X86460485Y-23486824D01*
G37*
G36*
X97667019Y-25435118D02*
G01*
X98101140Y-22973099D01*
X100218477Y-23346442D01*
X99784356Y-25808461D01*
X97667019Y-25435118D01*
G37*
D26*
X96738648Y-29147609D03*
X86733002Y-27383343D03*
D27*
X91735825Y-28265476D03*
D17*
G36*
X68940323Y-13143562D02*
G01*
X68506203Y-15605581D01*
X66191905Y-15197508D01*
X66626025Y-12735489D01*
X68940323Y-13143562D01*
G37*
G36*
X80146857Y-15091856D02*
G01*
X80580978Y-12629837D01*
X82698315Y-13003180D01*
X82264194Y-15465199D01*
X80146857Y-15091856D01*
G37*
D26*
X79218486Y-18804347D03*
X69212840Y-17040081D03*
D27*
X74215663Y-17922214D03*
D17*
G36*
X50593158Y-7490467D02*
G01*
X50159038Y-9952486D01*
X47844740Y-9544413D01*
X48278860Y-7082394D01*
X50593158Y-7490467D01*
G37*
G36*
X61799692Y-9438761D02*
G01*
X62233813Y-6976742D01*
X64351150Y-7350085D01*
X63917029Y-9812104D01*
X61799692Y-9438761D01*
G37*
D26*
X60871321Y-13151252D03*
X50865675Y-11386986D03*
D27*
X55868498Y-12269119D03*
D17*
G36*
X30591987Y-11217707D02*
G01*
X30157867Y-13679726D01*
X27843569Y-13271653D01*
X28277689Y-10809634D01*
X30591987Y-11217707D01*
G37*
G36*
X41798521Y-13166001D02*
G01*
X42232642Y-10703982D01*
X44349979Y-11077325D01*
X43915858Y-13539344D01*
X41798521Y-13166001D01*
G37*
D26*
X40870150Y-16878492D03*
X30864504Y-15114226D03*
D27*
X35867327Y-15996359D03*
D17*
G36*
X11004320Y-12599862D02*
G01*
X10570200Y-15061881D01*
X8255902Y-14653808D01*
X8690022Y-12191789D01*
X11004320Y-12599862D01*
G37*
G36*
X22210854Y-14548156D02*
G01*
X22644975Y-12086137D01*
X24762312Y-12459480D01*
X24328191Y-14921499D01*
X22210854Y-14548156D01*
G37*
D26*
X21282483Y-18260647D03*
X11276837Y-16496381D03*
D27*
X16279660Y-17378514D03*
D17*
G36*
X-8583353Y-13982015D02*
G01*
X-9017473Y-16444034D01*
X-11331771Y-16035961D01*
X-10897651Y-13573942D01*
X-8583353Y-13982015D01*
G37*
G36*
X2623181Y-15930309D02*
G01*
X3057302Y-13468290D01*
X5174639Y-13841633D01*
X4740518Y-16303652D01*
X2623181Y-15930309D01*
G37*
D26*
X1694810Y-19642800D03*
X-8310836Y-17878534D03*
D27*
X-3308013Y-18760667D03*
D17*
G36*
X106875156Y-17414501D02*
G01*
X106441036Y-19876520D01*
X104126738Y-19468447D01*
X104560858Y-17006428D01*
X106875156Y-17414501D01*
G37*
G36*
X118081690Y-19362795D02*
G01*
X118515811Y-16900776D01*
X120633148Y-17274119D01*
X120199027Y-19736138D01*
X118081690Y-19362795D01*
G37*
D26*
X117153319Y-23075286D03*
X107147673Y-21311020D03*
D27*
X112150496Y-22193153D03*
D17*
G36*
X89768497Y-4726157D02*
G01*
X89334377Y-7188176D01*
X87020079Y-6780103D01*
X87454199Y-4318084D01*
X89768497Y-4726157D01*
G37*
G36*
X100975031Y-6674451D02*
G01*
X101409152Y-4212432D01*
X103526489Y-4585775D01*
X103092368Y-7047794D01*
X100975031Y-6674451D01*
G37*
D26*
X100046660Y-10386942D03*
X90041014Y-8622676D03*
D27*
X95043837Y-9504809D03*
D17*
G36*
X72248335Y5617104D02*
G01*
X71814215Y3155085D01*
X69499917Y3563158D01*
X69934037Y6025177D01*
X72248335Y5617104D01*
G37*
G36*
X83454869Y3668810D02*
G01*
X83888990Y6130829D01*
X86006327Y5757486D01*
X85572206Y3295467D01*
X83454869Y3668810D01*
G37*
D26*
X82526498Y-43681D03*
X72520852Y1720585D03*
D27*
X77523675Y838452D03*
D17*
G36*
X53901170Y11270199D02*
G01*
X53467050Y8808180D01*
X51152752Y9216253D01*
X51586872Y11678272D01*
X53901170Y11270199D01*
G37*
G36*
X65107704Y9321905D02*
G01*
X65541825Y11783924D01*
X67659162Y11410581D01*
X67225041Y8948562D01*
X65107704Y9321905D01*
G37*
D26*
X64179333Y5609414D03*
X54173687Y7373680D03*
D27*
X59176510Y6491547D03*
D17*
G36*
X33899999Y7542962D02*
G01*
X33465879Y5080943D01*
X31151581Y5489016D01*
X31585701Y7951035D01*
X33899999Y7542962D01*
G37*
G36*
X45106533Y5594668D02*
G01*
X45540654Y8056687D01*
X47657991Y7683344D01*
X47223870Y5221325D01*
X45106533Y5594668D01*
G37*
D26*
X44178162Y1882177D03*
X34172516Y3646443D03*
D27*
X39175339Y2764310D03*
D17*
G36*
X14312328Y6160806D02*
G01*
X13878208Y3698787D01*
X11563910Y4106860D01*
X11998030Y6568879D01*
X14312328Y6160806D01*
G37*
G36*
X25518862Y4212512D02*
G01*
X25952983Y6674531D01*
X28070320Y6301188D01*
X27636199Y3839169D01*
X25518862Y4212512D01*
G37*
D26*
X24590491Y500021D03*
X14584845Y2264287D03*
D27*
X19587668Y1382154D03*
D17*
G36*
X-5275340Y4778652D02*
G01*
X-5709460Y2316633D01*
X-8023758Y2724706D01*
X-7589638Y5186725D01*
X-5275340Y4778652D01*
G37*
G36*
X5931194Y2830358D02*
G01*
X6365315Y5292377D01*
X8482652Y4919034D01*
X8048531Y2457015D01*
X5931194Y2830358D01*
G37*
D26*
X5002823Y-882133D03*
X-5002823Y882133D03*
D27*
X0Y0D03*
G36*
G01*
X141473536Y-58734700D02*
X141579249Y-58628987D01*
G75*
G02*
X141684961Y-58628987I52856J-52856D01*
G01*
X142427070Y-59371096D01*
G75*
G02*
X142427070Y-59476808I-52856J-52856D01*
G01*
X142321357Y-59582521D01*
G75*
G02*
X142215645Y-59582521I-52856J52856D01*
G01*
X141473536Y-58840412D01*
G75*
G02*
X141473536Y-58734700I52856J52856D01*
G01*
G37*
G36*
G01*
X141827089Y-58381147D02*
X141932802Y-58275434D01*
G75*
G02*
X142038514Y-58275434I52856J-52856D01*
G01*
X142780623Y-59017543D01*
G75*
G02*
X142780623Y-59123255I-52856J-52856D01*
G01*
X142674910Y-59228968D01*
G75*
G02*
X142569198Y-59228968I-52856J52856D01*
G01*
X141827089Y-58486859D01*
G75*
G02*
X141827089Y-58381147I52856J52856D01*
G01*
G37*
G36*
G01*
X142180643Y-58027593D02*
X142286356Y-57921880D01*
G75*
G02*
X142392068Y-57921880I52856J-52856D01*
G01*
X143134177Y-58663989D01*
G75*
G02*
X143134177Y-58769701I-52856J-52856D01*
G01*
X143028464Y-58875414D01*
G75*
G02*
X142922752Y-58875414I-52856J52856D01*
G01*
X142180643Y-58133305D01*
G75*
G02*
X142180643Y-58027593I52856J52856D01*
G01*
G37*
G36*
G01*
X142534195Y-57674040D02*
X142639908Y-57568327D01*
G75*
G02*
X142745620Y-57568327I52856J-52856D01*
G01*
X143487729Y-58310436D01*
G75*
G02*
X143487729Y-58416148I-52856J-52856D01*
G01*
X143382016Y-58521861D01*
G75*
G02*
X143276304Y-58521861I-52856J52856D01*
G01*
X142534195Y-57779752D01*
G75*
G02*
X142534195Y-57674040I52856J52856D01*
G01*
G37*
G36*
G01*
X142887750Y-57320485D02*
X142993463Y-57214772D01*
G75*
G02*
X143099175Y-57214772I52856J-52856D01*
G01*
X143841284Y-57956881D01*
G75*
G02*
X143841284Y-58062593I-52856J-52856D01*
G01*
X143735571Y-58168306D01*
G75*
G02*
X143629859Y-58168306I-52856J52856D01*
G01*
X142887750Y-57426197D01*
G75*
G02*
X142887750Y-57320485I52856J52856D01*
G01*
G37*
G36*
G01*
X143241303Y-56966933D02*
X143347016Y-56861220D01*
G75*
G02*
X143452728Y-56861220I52856J-52856D01*
G01*
X144194837Y-57603329D01*
G75*
G02*
X144194837Y-57709041I-52856J-52856D01*
G01*
X144089124Y-57814754D01*
G75*
G02*
X143983412Y-57814754I-52856J52856D01*
G01*
X143241303Y-57072645D01*
G75*
G02*
X143241303Y-56966933I52856J52856D01*
G01*
G37*
G36*
G01*
X143594855Y-56613380D02*
X143700568Y-56507667D01*
G75*
G02*
X143806280Y-56507667I52856J-52856D01*
G01*
X144548389Y-57249776D01*
G75*
G02*
X144548389Y-57355488I-52856J-52856D01*
G01*
X144442676Y-57461201D01*
G75*
G02*
X144336964Y-57461201I-52856J52856D01*
G01*
X143594855Y-56719092D01*
G75*
G02*
X143594855Y-56613380I52856J52856D01*
G01*
G37*
G36*
G01*
X143948410Y-56259826D02*
X144054123Y-56154113D01*
G75*
G02*
X144159835Y-56154113I52856J-52856D01*
G01*
X144901944Y-56896222D01*
G75*
G02*
X144901944Y-57001934I-52856J-52856D01*
G01*
X144796231Y-57107647D01*
G75*
G02*
X144690519Y-57107647I-52856J52856D01*
G01*
X143948410Y-56365538D01*
G75*
G02*
X143948410Y-56259826I52856J52856D01*
G01*
G37*
G36*
G01*
X144301963Y-55906273D02*
X144407676Y-55800560D01*
G75*
G02*
X144513388Y-55800560I52856J-52856D01*
G01*
X145255497Y-56542669D01*
G75*
G02*
X145255497Y-56648381I-52856J-52856D01*
G01*
X145149784Y-56754094D01*
G75*
G02*
X145044072Y-56754094I-52856J52856D01*
G01*
X144301963Y-56011985D01*
G75*
G02*
X144301963Y-55906273I52856J52856D01*
G01*
G37*
G36*
G01*
X144655517Y-55552718D02*
X144761230Y-55447005D01*
G75*
G02*
X144866942Y-55447005I52856J-52856D01*
G01*
X145609051Y-56189114D01*
G75*
G02*
X145609051Y-56294826I-52856J-52856D01*
G01*
X145503338Y-56400539D01*
G75*
G02*
X145397626Y-56400539I-52856J52856D01*
G01*
X144655517Y-55658430D01*
G75*
G02*
X144655517Y-55552718I52856J52856D01*
G01*
G37*
G36*
G01*
X145009070Y-55199166D02*
X145114783Y-55093453D01*
G75*
G02*
X145220495Y-55093453I52856J-52856D01*
G01*
X145962604Y-55835562D01*
G75*
G02*
X145962604Y-55941274I-52856J-52856D01*
G01*
X145856891Y-56046987D01*
G75*
G02*
X145751179Y-56046987I-52856J52856D01*
G01*
X145009070Y-55304878D01*
G75*
G02*
X145009070Y-55199166I52856J52856D01*
G01*
G37*
G36*
G01*
X145362622Y-54845613D02*
X145468335Y-54739900D01*
G75*
G02*
X145574047Y-54739900I52856J-52856D01*
G01*
X146316156Y-55482009D01*
G75*
G02*
X146316156Y-55587721I-52856J-52856D01*
G01*
X146210443Y-55693434D01*
G75*
G02*
X146104731Y-55693434I-52856J52856D01*
G01*
X145362622Y-54951325D01*
G75*
G02*
X145362622Y-54845613I52856J52856D01*
G01*
G37*
G36*
G01*
X145716177Y-54492058D02*
X145821890Y-54386345D01*
G75*
G02*
X145927602Y-54386345I52856J-52856D01*
G01*
X146669711Y-55128454D01*
G75*
G02*
X146669711Y-55234166I-52856J-52856D01*
G01*
X146563998Y-55339879D01*
G75*
G02*
X146458286Y-55339879I-52856J52856D01*
G01*
X145716177Y-54597770D01*
G75*
G02*
X145716177Y-54492058I52856J52856D01*
G01*
G37*
G36*
G01*
X146069730Y-54138506D02*
X146175443Y-54032793D01*
G75*
G02*
X146281155Y-54032793I52856J-52856D01*
G01*
X147023264Y-54774902D01*
G75*
G02*
X147023264Y-54880614I-52856J-52856D01*
G01*
X146917551Y-54986327D01*
G75*
G02*
X146811839Y-54986327I-52856J52856D01*
G01*
X146069730Y-54244218D01*
G75*
G02*
X146069730Y-54138506I52856J52856D01*
G01*
G37*
G36*
G01*
X146423284Y-53784952D02*
X146528997Y-53679239D01*
G75*
G02*
X146634709Y-53679239I52856J-52856D01*
G01*
X147376818Y-54421348D01*
G75*
G02*
X147376818Y-54527060I-52856J-52856D01*
G01*
X147271105Y-54632773D01*
G75*
G02*
X147165393Y-54632773I-52856J52856D01*
G01*
X146423284Y-53890664D01*
G75*
G02*
X146423284Y-53784952I52856J52856D01*
G01*
G37*
G36*
G01*
X146776837Y-53431399D02*
X146882550Y-53325686D01*
G75*
G02*
X146988262Y-53325686I52856J-52856D01*
G01*
X147730371Y-54067795D01*
G75*
G02*
X147730371Y-54173507I-52856J-52856D01*
G01*
X147624658Y-54279220D01*
G75*
G02*
X147518946Y-54279220I-52856J52856D01*
G01*
X146776837Y-53537111D01*
G75*
G02*
X146776837Y-53431399I52856J52856D01*
G01*
G37*
G36*
G01*
X146882550Y-51450794D02*
X146776837Y-51345081D01*
G75*
G02*
X146776837Y-51239369I52856J52856D01*
G01*
X147518946Y-50497260D01*
G75*
G02*
X147624658Y-50497260I52856J-52856D01*
G01*
X147730371Y-50602973D01*
G75*
G02*
X147730371Y-50708685I-52856J-52856D01*
G01*
X146988262Y-51450794D01*
G75*
G02*
X146882550Y-51450794I-52856J52856D01*
G01*
G37*
G36*
G01*
X146528997Y-51097241D02*
X146423284Y-50991528D01*
G75*
G02*
X146423284Y-50885816I52856J52856D01*
G01*
X147165393Y-50143707D01*
G75*
G02*
X147271105Y-50143707I52856J-52856D01*
G01*
X147376818Y-50249420D01*
G75*
G02*
X147376818Y-50355132I-52856J-52856D01*
G01*
X146634709Y-51097241D01*
G75*
G02*
X146528997Y-51097241I-52856J52856D01*
G01*
G37*
G36*
G01*
X146175443Y-50743687D02*
X146069730Y-50637974D01*
G75*
G02*
X146069730Y-50532262I52856J52856D01*
G01*
X146811839Y-49790153D01*
G75*
G02*
X146917551Y-49790153I52856J-52856D01*
G01*
X147023264Y-49895866D01*
G75*
G02*
X147023264Y-50001578I-52856J-52856D01*
G01*
X146281155Y-50743687D01*
G75*
G02*
X146175443Y-50743687I-52856J52856D01*
G01*
G37*
G36*
G01*
X145821890Y-50390135D02*
X145716177Y-50284422D01*
G75*
G02*
X145716177Y-50178710I52856J52856D01*
G01*
X146458286Y-49436601D01*
G75*
G02*
X146563998Y-49436601I52856J-52856D01*
G01*
X146669711Y-49542314D01*
G75*
G02*
X146669711Y-49648026I-52856J-52856D01*
G01*
X145927602Y-50390135D01*
G75*
G02*
X145821890Y-50390135I-52856J52856D01*
G01*
G37*
G36*
G01*
X145468335Y-50036580D02*
X145362622Y-49930867D01*
G75*
G02*
X145362622Y-49825155I52856J52856D01*
G01*
X146104731Y-49083046D01*
G75*
G02*
X146210443Y-49083046I52856J-52856D01*
G01*
X146316156Y-49188759D01*
G75*
G02*
X146316156Y-49294471I-52856J-52856D01*
G01*
X145574047Y-50036580D01*
G75*
G02*
X145468335Y-50036580I-52856J52856D01*
G01*
G37*
G36*
G01*
X145114783Y-49683027D02*
X145009070Y-49577314D01*
G75*
G02*
X145009070Y-49471602I52856J52856D01*
G01*
X145751179Y-48729493D01*
G75*
G02*
X145856891Y-48729493I52856J-52856D01*
G01*
X145962604Y-48835206D01*
G75*
G02*
X145962604Y-48940918I-52856J-52856D01*
G01*
X145220495Y-49683027D01*
G75*
G02*
X145114783Y-49683027I-52856J52856D01*
G01*
G37*
G36*
G01*
X144761230Y-49329475D02*
X144655517Y-49223762D01*
G75*
G02*
X144655517Y-49118050I52856J52856D01*
G01*
X145397626Y-48375941D01*
G75*
G02*
X145503338Y-48375941I52856J-52856D01*
G01*
X145609051Y-48481654D01*
G75*
G02*
X145609051Y-48587366I-52856J-52856D01*
G01*
X144866942Y-49329475D01*
G75*
G02*
X144761230Y-49329475I-52856J52856D01*
G01*
G37*
G36*
G01*
X144407676Y-48975920D02*
X144301963Y-48870207D01*
G75*
G02*
X144301963Y-48764495I52856J52856D01*
G01*
X145044072Y-48022386D01*
G75*
G02*
X145149784Y-48022386I52856J-52856D01*
G01*
X145255497Y-48128099D01*
G75*
G02*
X145255497Y-48233811I-52856J-52856D01*
G01*
X144513388Y-48975920D01*
G75*
G02*
X144407676Y-48975920I-52856J52856D01*
G01*
G37*
G36*
G01*
X144054123Y-48622367D02*
X143948410Y-48516654D01*
G75*
G02*
X143948410Y-48410942I52856J52856D01*
G01*
X144690519Y-47668833D01*
G75*
G02*
X144796231Y-47668833I52856J-52856D01*
G01*
X144901944Y-47774546D01*
G75*
G02*
X144901944Y-47880258I-52856J-52856D01*
G01*
X144159835Y-48622367D01*
G75*
G02*
X144054123Y-48622367I-52856J52856D01*
G01*
G37*
G36*
G01*
X143700568Y-48268813D02*
X143594855Y-48163100D01*
G75*
G02*
X143594855Y-48057388I52856J52856D01*
G01*
X144336964Y-47315279D01*
G75*
G02*
X144442676Y-47315279I52856J-52856D01*
G01*
X144548389Y-47420992D01*
G75*
G02*
X144548389Y-47526704I-52856J-52856D01*
G01*
X143806280Y-48268813D01*
G75*
G02*
X143700568Y-48268813I-52856J52856D01*
G01*
G37*
G36*
G01*
X143347016Y-47915260D02*
X143241303Y-47809547D01*
G75*
G02*
X143241303Y-47703835I52856J52856D01*
G01*
X143983412Y-46961726D01*
G75*
G02*
X144089124Y-46961726I52856J-52856D01*
G01*
X144194837Y-47067439D01*
G75*
G02*
X144194837Y-47173151I-52856J-52856D01*
G01*
X143452728Y-47915260D01*
G75*
G02*
X143347016Y-47915260I-52856J52856D01*
G01*
G37*
G36*
G01*
X142993463Y-47561708D02*
X142887750Y-47455995D01*
G75*
G02*
X142887750Y-47350283I52856J52856D01*
G01*
X143629859Y-46608174D01*
G75*
G02*
X143735571Y-46608174I52856J-52856D01*
G01*
X143841284Y-46713887D01*
G75*
G02*
X143841284Y-46819599I-52856J-52856D01*
G01*
X143099175Y-47561708D01*
G75*
G02*
X142993463Y-47561708I-52856J52856D01*
G01*
G37*
G36*
G01*
X142639908Y-47208153D02*
X142534195Y-47102440D01*
G75*
G02*
X142534195Y-46996728I52856J52856D01*
G01*
X143276304Y-46254619D01*
G75*
G02*
X143382016Y-46254619I52856J-52856D01*
G01*
X143487729Y-46360332D01*
G75*
G02*
X143487729Y-46466044I-52856J-52856D01*
G01*
X142745620Y-47208153D01*
G75*
G02*
X142639908Y-47208153I-52856J52856D01*
G01*
G37*
G36*
G01*
X142286356Y-46854600D02*
X142180643Y-46748887D01*
G75*
G02*
X142180643Y-46643175I52856J52856D01*
G01*
X142922752Y-45901066D01*
G75*
G02*
X143028464Y-45901066I52856J-52856D01*
G01*
X143134177Y-46006779D01*
G75*
G02*
X143134177Y-46112491I-52856J-52856D01*
G01*
X142392068Y-46854600D01*
G75*
G02*
X142286356Y-46854600I-52856J52856D01*
G01*
G37*
G36*
G01*
X141932802Y-46501046D02*
X141827089Y-46395333D01*
G75*
G02*
X141827089Y-46289621I52856J52856D01*
G01*
X142569198Y-45547512D01*
G75*
G02*
X142674910Y-45547512I52856J-52856D01*
G01*
X142780623Y-45653225D01*
G75*
G02*
X142780623Y-45758937I-52856J-52856D01*
G01*
X142038514Y-46501046D01*
G75*
G02*
X141932802Y-46501046I-52856J52856D01*
G01*
G37*
G36*
G01*
X141579249Y-46147493D02*
X141473536Y-46041780D01*
G75*
G02*
X141473536Y-45936068I52856J52856D01*
G01*
X142215645Y-45193959D01*
G75*
G02*
X142321357Y-45193959I52856J-52856D01*
G01*
X142427070Y-45299672D01*
G75*
G02*
X142427070Y-45405384I-52856J-52856D01*
G01*
X141684961Y-46147493D01*
G75*
G02*
X141579249Y-46147493I-52856J52856D01*
G01*
G37*
G36*
G01*
X138645110Y-45299672D02*
X138750823Y-45193959D01*
G75*
G02*
X138856535Y-45193959I52856J-52856D01*
G01*
X139598644Y-45936068D01*
G75*
G02*
X139598644Y-46041780I-52856J-52856D01*
G01*
X139492931Y-46147493D01*
G75*
G02*
X139387219Y-46147493I-52856J52856D01*
G01*
X138645110Y-45405384D01*
G75*
G02*
X138645110Y-45299672I52856J52856D01*
G01*
G37*
G36*
G01*
X138291557Y-45653225D02*
X138397270Y-45547512D01*
G75*
G02*
X138502982Y-45547512I52856J-52856D01*
G01*
X139245091Y-46289621D01*
G75*
G02*
X139245091Y-46395333I-52856J-52856D01*
G01*
X139139378Y-46501046D01*
G75*
G02*
X139033666Y-46501046I-52856J52856D01*
G01*
X138291557Y-45758937D01*
G75*
G02*
X138291557Y-45653225I52856J52856D01*
G01*
G37*
G36*
G01*
X137938003Y-46006779D02*
X138043716Y-45901066D01*
G75*
G02*
X138149428Y-45901066I52856J-52856D01*
G01*
X138891537Y-46643175D01*
G75*
G02*
X138891537Y-46748887I-52856J-52856D01*
G01*
X138785824Y-46854600D01*
G75*
G02*
X138680112Y-46854600I-52856J52856D01*
G01*
X137938003Y-46112491D01*
G75*
G02*
X137938003Y-46006779I52856J52856D01*
G01*
G37*
G36*
G01*
X137584451Y-46360332D02*
X137690164Y-46254619D01*
G75*
G02*
X137795876Y-46254619I52856J-52856D01*
G01*
X138537985Y-46996728D01*
G75*
G02*
X138537985Y-47102440I-52856J-52856D01*
G01*
X138432272Y-47208153D01*
G75*
G02*
X138326560Y-47208153I-52856J52856D01*
G01*
X137584451Y-46466044D01*
G75*
G02*
X137584451Y-46360332I52856J52856D01*
G01*
G37*
G36*
G01*
X137230896Y-46713887D02*
X137336609Y-46608174D01*
G75*
G02*
X137442321Y-46608174I52856J-52856D01*
G01*
X138184430Y-47350283D01*
G75*
G02*
X138184430Y-47455995I-52856J-52856D01*
G01*
X138078717Y-47561708D01*
G75*
G02*
X137973005Y-47561708I-52856J52856D01*
G01*
X137230896Y-46819599D01*
G75*
G02*
X137230896Y-46713887I52856J52856D01*
G01*
G37*
G36*
G01*
X136877343Y-47067439D02*
X136983056Y-46961726D01*
G75*
G02*
X137088768Y-46961726I52856J-52856D01*
G01*
X137830877Y-47703835D01*
G75*
G02*
X137830877Y-47809547I-52856J-52856D01*
G01*
X137725164Y-47915260D01*
G75*
G02*
X137619452Y-47915260I-52856J52856D01*
G01*
X136877343Y-47173151D01*
G75*
G02*
X136877343Y-47067439I52856J52856D01*
G01*
G37*
G36*
G01*
X136523791Y-47420992D02*
X136629504Y-47315279D01*
G75*
G02*
X136735216Y-47315279I52856J-52856D01*
G01*
X137477325Y-48057388D01*
G75*
G02*
X137477325Y-48163100I-52856J-52856D01*
G01*
X137371612Y-48268813D01*
G75*
G02*
X137265900Y-48268813I-52856J52856D01*
G01*
X136523791Y-47526704D01*
G75*
G02*
X136523791Y-47420992I52856J52856D01*
G01*
G37*
G36*
G01*
X136170236Y-47774546D02*
X136275949Y-47668833D01*
G75*
G02*
X136381661Y-47668833I52856J-52856D01*
G01*
X137123770Y-48410942D01*
G75*
G02*
X137123770Y-48516654I-52856J-52856D01*
G01*
X137018057Y-48622367D01*
G75*
G02*
X136912345Y-48622367I-52856J52856D01*
G01*
X136170236Y-47880258D01*
G75*
G02*
X136170236Y-47774546I52856J52856D01*
G01*
G37*
G36*
G01*
X135816683Y-48128099D02*
X135922396Y-48022386D01*
G75*
G02*
X136028108Y-48022386I52856J-52856D01*
G01*
X136770217Y-48764495D01*
G75*
G02*
X136770217Y-48870207I-52856J-52856D01*
G01*
X136664504Y-48975920D01*
G75*
G02*
X136558792Y-48975920I-52856J52856D01*
G01*
X135816683Y-48233811D01*
G75*
G02*
X135816683Y-48128099I52856J52856D01*
G01*
G37*
G36*
G01*
X135463129Y-48481654D02*
X135568842Y-48375941D01*
G75*
G02*
X135674554Y-48375941I52856J-52856D01*
G01*
X136416663Y-49118050D01*
G75*
G02*
X136416663Y-49223762I-52856J-52856D01*
G01*
X136310950Y-49329475D01*
G75*
G02*
X136205238Y-49329475I-52856J52856D01*
G01*
X135463129Y-48587366D01*
G75*
G02*
X135463129Y-48481654I52856J52856D01*
G01*
G37*
G36*
G01*
X135109576Y-48835206D02*
X135215289Y-48729493D01*
G75*
G02*
X135321001Y-48729493I52856J-52856D01*
G01*
X136063110Y-49471602D01*
G75*
G02*
X136063110Y-49577314I-52856J-52856D01*
G01*
X135957397Y-49683027D01*
G75*
G02*
X135851685Y-49683027I-52856J52856D01*
G01*
X135109576Y-48940918D01*
G75*
G02*
X135109576Y-48835206I52856J52856D01*
G01*
G37*
G36*
G01*
X134756024Y-49188759D02*
X134861737Y-49083046D01*
G75*
G02*
X134967449Y-49083046I52856J-52856D01*
G01*
X135709558Y-49825155D01*
G75*
G02*
X135709558Y-49930867I-52856J-52856D01*
G01*
X135603845Y-50036580D01*
G75*
G02*
X135498133Y-50036580I-52856J52856D01*
G01*
X134756024Y-49294471D01*
G75*
G02*
X134756024Y-49188759I52856J52856D01*
G01*
G37*
G36*
G01*
X134402469Y-49542314D02*
X134508182Y-49436601D01*
G75*
G02*
X134613894Y-49436601I52856J-52856D01*
G01*
X135356003Y-50178710D01*
G75*
G02*
X135356003Y-50284422I-52856J-52856D01*
G01*
X135250290Y-50390135D01*
G75*
G02*
X135144578Y-50390135I-52856J52856D01*
G01*
X134402469Y-49648026D01*
G75*
G02*
X134402469Y-49542314I52856J52856D01*
G01*
G37*
G36*
G01*
X134048916Y-49895866D02*
X134154629Y-49790153D01*
G75*
G02*
X134260341Y-49790153I52856J-52856D01*
G01*
X135002450Y-50532262D01*
G75*
G02*
X135002450Y-50637974I-52856J-52856D01*
G01*
X134896737Y-50743687D01*
G75*
G02*
X134791025Y-50743687I-52856J52856D01*
G01*
X134048916Y-50001578D01*
G75*
G02*
X134048916Y-49895866I52856J52856D01*
G01*
G37*
G36*
G01*
X133695362Y-50249420D02*
X133801075Y-50143707D01*
G75*
G02*
X133906787Y-50143707I52856J-52856D01*
G01*
X134648896Y-50885816D01*
G75*
G02*
X134648896Y-50991528I-52856J-52856D01*
G01*
X134543183Y-51097241D01*
G75*
G02*
X134437471Y-51097241I-52856J52856D01*
G01*
X133695362Y-50355132D01*
G75*
G02*
X133695362Y-50249420I52856J52856D01*
G01*
G37*
G36*
G01*
X133341809Y-50602973D02*
X133447522Y-50497260D01*
G75*
G02*
X133553234Y-50497260I52856J-52856D01*
G01*
X134295343Y-51239369D01*
G75*
G02*
X134295343Y-51345081I-52856J-52856D01*
G01*
X134189630Y-51450794D01*
G75*
G02*
X134083918Y-51450794I-52856J52856D01*
G01*
X133341809Y-50708685D01*
G75*
G02*
X133341809Y-50602973I52856J52856D01*
G01*
G37*
G36*
G01*
X133447522Y-54279220D02*
X133341809Y-54173507D01*
G75*
G02*
X133341809Y-54067795I52856J52856D01*
G01*
X134083918Y-53325686D01*
G75*
G02*
X134189630Y-53325686I52856J-52856D01*
G01*
X134295343Y-53431399D01*
G75*
G02*
X134295343Y-53537111I-52856J-52856D01*
G01*
X133553234Y-54279220D01*
G75*
G02*
X133447522Y-54279220I-52856J52856D01*
G01*
G37*
G36*
G01*
X133801075Y-54632773D02*
X133695362Y-54527060D01*
G75*
G02*
X133695362Y-54421348I52856J52856D01*
G01*
X134437471Y-53679239D01*
G75*
G02*
X134543183Y-53679239I52856J-52856D01*
G01*
X134648896Y-53784952D01*
G75*
G02*
X134648896Y-53890664I-52856J-52856D01*
G01*
X133906787Y-54632773D01*
G75*
G02*
X133801075Y-54632773I-52856J52856D01*
G01*
G37*
G36*
G01*
X134154629Y-54986327D02*
X134048916Y-54880614D01*
G75*
G02*
X134048916Y-54774902I52856J52856D01*
G01*
X134791025Y-54032793D01*
G75*
G02*
X134896737Y-54032793I52856J-52856D01*
G01*
X135002450Y-54138506D01*
G75*
G02*
X135002450Y-54244218I-52856J-52856D01*
G01*
X134260341Y-54986327D01*
G75*
G02*
X134154629Y-54986327I-52856J52856D01*
G01*
G37*
G36*
G01*
X134508182Y-55339879D02*
X134402469Y-55234166D01*
G75*
G02*
X134402469Y-55128454I52856J52856D01*
G01*
X135144578Y-54386345D01*
G75*
G02*
X135250290Y-54386345I52856J-52856D01*
G01*
X135356003Y-54492058D01*
G75*
G02*
X135356003Y-54597770I-52856J-52856D01*
G01*
X134613894Y-55339879D01*
G75*
G02*
X134508182Y-55339879I-52856J52856D01*
G01*
G37*
G36*
G01*
X134861737Y-55693434D02*
X134756024Y-55587721D01*
G75*
G02*
X134756024Y-55482009I52856J52856D01*
G01*
X135498133Y-54739900D01*
G75*
G02*
X135603845Y-54739900I52856J-52856D01*
G01*
X135709558Y-54845613D01*
G75*
G02*
X135709558Y-54951325I-52856J-52856D01*
G01*
X134967449Y-55693434D01*
G75*
G02*
X134861737Y-55693434I-52856J52856D01*
G01*
G37*
G36*
G01*
X135215289Y-56046987D02*
X135109576Y-55941274D01*
G75*
G02*
X135109576Y-55835562I52856J52856D01*
G01*
X135851685Y-55093453D01*
G75*
G02*
X135957397Y-55093453I52856J-52856D01*
G01*
X136063110Y-55199166D01*
G75*
G02*
X136063110Y-55304878I-52856J-52856D01*
G01*
X135321001Y-56046987D01*
G75*
G02*
X135215289Y-56046987I-52856J52856D01*
G01*
G37*
G36*
G01*
X135568842Y-56400539D02*
X135463129Y-56294826D01*
G75*
G02*
X135463129Y-56189114I52856J52856D01*
G01*
X136205238Y-55447005D01*
G75*
G02*
X136310950Y-55447005I52856J-52856D01*
G01*
X136416663Y-55552718D01*
G75*
G02*
X136416663Y-55658430I-52856J-52856D01*
G01*
X135674554Y-56400539D01*
G75*
G02*
X135568842Y-56400539I-52856J52856D01*
G01*
G37*
G36*
G01*
X135922396Y-56754094D02*
X135816683Y-56648381D01*
G75*
G02*
X135816683Y-56542669I52856J52856D01*
G01*
X136558792Y-55800560D01*
G75*
G02*
X136664504Y-55800560I52856J-52856D01*
G01*
X136770217Y-55906273D01*
G75*
G02*
X136770217Y-56011985I-52856J-52856D01*
G01*
X136028108Y-56754094D01*
G75*
G02*
X135922396Y-56754094I-52856J52856D01*
G01*
G37*
G36*
G01*
X136275949Y-57107647D02*
X136170236Y-57001934D01*
G75*
G02*
X136170236Y-56896222I52856J52856D01*
G01*
X136912345Y-56154113D01*
G75*
G02*
X137018057Y-56154113I52856J-52856D01*
G01*
X137123770Y-56259826D01*
G75*
G02*
X137123770Y-56365538I-52856J-52856D01*
G01*
X136381661Y-57107647D01*
G75*
G02*
X136275949Y-57107647I-52856J52856D01*
G01*
G37*
G36*
G01*
X136629504Y-57461201D02*
X136523791Y-57355488D01*
G75*
G02*
X136523791Y-57249776I52856J52856D01*
G01*
X137265900Y-56507667D01*
G75*
G02*
X137371612Y-56507667I52856J-52856D01*
G01*
X137477325Y-56613380D01*
G75*
G02*
X137477325Y-56719092I-52856J-52856D01*
G01*
X136735216Y-57461201D01*
G75*
G02*
X136629504Y-57461201I-52856J52856D01*
G01*
G37*
G36*
G01*
X136983056Y-57814754D02*
X136877343Y-57709041D01*
G75*
G02*
X136877343Y-57603329I52856J52856D01*
G01*
X137619452Y-56861220D01*
G75*
G02*
X137725164Y-56861220I52856J-52856D01*
G01*
X137830877Y-56966933D01*
G75*
G02*
X137830877Y-57072645I-52856J-52856D01*
G01*
X137088768Y-57814754D01*
G75*
G02*
X136983056Y-57814754I-52856J52856D01*
G01*
G37*
G36*
G01*
X137336609Y-58168306D02*
X137230896Y-58062593D01*
G75*
G02*
X137230896Y-57956881I52856J52856D01*
G01*
X137973005Y-57214772D01*
G75*
G02*
X138078717Y-57214772I52856J-52856D01*
G01*
X138184430Y-57320485D01*
G75*
G02*
X138184430Y-57426197I-52856J-52856D01*
G01*
X137442321Y-58168306D01*
G75*
G02*
X137336609Y-58168306I-52856J52856D01*
G01*
G37*
G36*
G01*
X137690164Y-58521861D02*
X137584451Y-58416148D01*
G75*
G02*
X137584451Y-58310436I52856J52856D01*
G01*
X138326560Y-57568327D01*
G75*
G02*
X138432272Y-57568327I52856J-52856D01*
G01*
X138537985Y-57674040D01*
G75*
G02*
X138537985Y-57779752I-52856J-52856D01*
G01*
X137795876Y-58521861D01*
G75*
G02*
X137690164Y-58521861I-52856J52856D01*
G01*
G37*
G36*
G01*
X138043716Y-58875414D02*
X137938003Y-58769701D01*
G75*
G02*
X137938003Y-58663989I52856J52856D01*
G01*
X138680112Y-57921880D01*
G75*
G02*
X138785824Y-57921880I52856J-52856D01*
G01*
X138891537Y-58027593D01*
G75*
G02*
X138891537Y-58133305I-52856J-52856D01*
G01*
X138149428Y-58875414D01*
G75*
G02*
X138043716Y-58875414I-52856J52856D01*
G01*
G37*
G36*
G01*
X138397270Y-59228968D02*
X138291557Y-59123255D01*
G75*
G02*
X138291557Y-59017543I52856J52856D01*
G01*
X139033666Y-58275434D01*
G75*
G02*
X139139378Y-58275434I52856J-52856D01*
G01*
X139245091Y-58381147D01*
G75*
G02*
X139245091Y-58486859I-52856J-52856D01*
G01*
X138502982Y-59228968D01*
G75*
G02*
X138397270Y-59228968I-52856J52856D01*
G01*
G37*
G36*
G01*
X138750823Y-59582521D02*
X138645110Y-59476808D01*
G75*
G02*
X138645110Y-59371096I52856J52856D01*
G01*
X139387219Y-58628987D01*
G75*
G02*
X139492931Y-58628987I52856J-52856D01*
G01*
X139598644Y-58734700D01*
G75*
G02*
X139598644Y-58840412I-52856J-52856D01*
G01*
X138856535Y-59582521D01*
G75*
G02*
X138750823Y-59582521I-52856J52856D01*
G01*
G37*
D28*
X79996860Y-117263842D03*
D16*
X82754321Y-117750057D03*
D28*
X86398110Y-118392556D03*
X81785436Y-107120322D03*
D16*
X84542898Y-107606537D03*
D28*
X88186686Y-108249036D03*
D16*
X89085391Y-114093891D03*
D28*
X89727890Y-110450102D03*
X88599176Y-116851352D03*
X78455656Y-115062776D03*
D16*
X78941871Y-112305314D03*
D28*
X79584370Y-108661526D03*
G36*
G01*
X90573152Y6177925D02*
X91204450Y8075677D01*
G75*
G02*
X91836713Y8392290I474438J-157825D01*
G01*
X91836713Y8392290D01*
G75*
G02*
X92153326Y7760027I-157825J-474438D01*
G01*
X91522028Y5862275D01*
G75*
G02*
X90889765Y5545662I-474438J157825D01*
G01*
X90889765Y5545662D01*
G75*
G02*
X90573152Y6177925I157825J474438D01*
G01*
G37*
G36*
G01*
X92983297Y5376176D02*
X93614595Y7273928D01*
G75*
G02*
X94246858Y7590541I474438J-157825D01*
G01*
X94246858Y7590541D01*
G75*
G02*
X94563471Y6958278I-157825J-474438D01*
G01*
X93932173Y5060526D01*
G75*
G02*
X93299910Y4743913I-474438J157825D01*
G01*
X93299910Y4743913D01*
G75*
G02*
X92983297Y5376176I157825J474438D01*
G01*
G37*
G36*
G01*
X95393442Y4574428D02*
X96024740Y6472180D01*
G75*
G02*
X96657003Y6788793I474438J-157825D01*
G01*
X96657003Y6788793D01*
G75*
G02*
X96973616Y6156530I-157825J-474438D01*
G01*
X96342318Y4258778D01*
G75*
G02*
X95710055Y3942165I-474438J157825D01*
G01*
X95710055Y3942165D01*
G75*
G02*
X95393442Y4574428I157825J474438D01*
G01*
G37*
G36*
G01*
X97803587Y3772679D02*
X98434885Y5670431D01*
G75*
G02*
X99067148Y5987044I474438J-157825D01*
G01*
X99067148Y5987044D01*
G75*
G02*
X99383761Y5354781I-157825J-474438D01*
G01*
X98752463Y3457029D01*
G75*
G02*
X98120200Y3140416I-474438J157825D01*
G01*
X98120200Y3140416D01*
G75*
G02*
X97803587Y3772679I157825J474438D01*
G01*
G37*
G36*
G01*
X100213732Y2970930D02*
X100845030Y4868682D01*
G75*
G02*
X101477293Y5185295I474438J-157825D01*
G01*
X101477293Y5185295D01*
G75*
G02*
X101793906Y4553032I-157825J-474438D01*
G01*
X101162608Y2655280D01*
G75*
G02*
X100530345Y2338667I-474438J157825D01*
G01*
X100530345Y2338667D01*
G75*
G02*
X100213732Y2970930I157825J474438D01*
G01*
G37*
D16*
X140509592Y-17220408D03*
X144752233Y-12977767D03*
G36*
G01*
X138741825Y-14179849D02*
X138741825Y-14179849D01*
G75*
G02*
X138741825Y-15099087I-459619J-459619D01*
G01*
X138388271Y-15452641D01*
G75*
G02*
X137469033Y-15452641I-459619J459619D01*
G01*
X137469033Y-15452641D01*
G75*
G02*
X137469033Y-14533403I459619J459619D01*
G01*
X137822587Y-14179849D01*
G75*
G02*
X138741825Y-14179849I459619J-459619D01*
G01*
G37*
G36*
G01*
X143550151Y-18988175D02*
X143550151Y-18988175D01*
G75*
G02*
X143550151Y-19907413I-459619J-459619D01*
G01*
X143196597Y-20260967D01*
G75*
G02*
X142277359Y-20260967I-459619J459619D01*
G01*
X142277359Y-20260967D01*
G75*
G02*
X142277359Y-19341729I459619J459619D01*
G01*
X142630913Y-18988175D01*
G75*
G02*
X143550151Y-18988175I459619J-459619D01*
G01*
G37*
G36*
G01*
X146025025Y-16513301D02*
X146025025Y-16513301D01*
G75*
G02*
X146025025Y-17432539I-459619J-459619D01*
G01*
X145671471Y-17786093D01*
G75*
G02*
X144752233Y-17786093I-459619J459619D01*
G01*
X144752233Y-17786093D01*
G75*
G02*
X144752233Y-16866855I459619J459619D01*
G01*
X145105787Y-16513301D01*
G75*
G02*
X146025025Y-16513301I459619J-459619D01*
G01*
G37*
G36*
G01*
X141216699Y-11704975D02*
X141216699Y-11704975D01*
G75*
G02*
X141216699Y-12624213I-459619J-459619D01*
G01*
X140863145Y-12977767D01*
G75*
G02*
X139943907Y-12977767I-459619J459619D01*
G01*
X139943907Y-12977767D01*
G75*
G02*
X139943907Y-12058529I459619J459619D01*
G01*
X140297461Y-11704975D01*
G75*
G02*
X141216699Y-11704975I459619J-459619D01*
G01*
G37*
G36*
G01*
X143479441Y-9442233D02*
X143479441Y-9442233D01*
G75*
G02*
X143479441Y-10361471I-459619J-459619D01*
G01*
X143125887Y-10715025D01*
G75*
G02*
X142206649Y-10715025I-459619J459619D01*
G01*
X142206649Y-10715025D01*
G75*
G02*
X142206649Y-9795787I459619J459619D01*
G01*
X142560203Y-9442233D01*
G75*
G02*
X143479441Y-9442233I459619J-459619D01*
G01*
G37*
G36*
G01*
X148287767Y-14250559D02*
X148287767Y-14250559D01*
G75*
G02*
X148287767Y-15169797I-459619J-459619D01*
G01*
X147934213Y-15523351D01*
G75*
G02*
X147014975Y-15523351I-459619J459619D01*
G01*
X147014975Y-15523351D01*
G75*
G02*
X147014975Y-14604113I459619J459619D01*
G01*
X147368529Y-14250559D01*
G75*
G02*
X148287767Y-14250559I459619J-459619D01*
G01*
G37*
M02*
