G04 #@! TF.GenerationSoftware,KiCad,Pcbnew,(5.1.9)-1*
G04 #@! TF.CreationDate,2021-04-11T13:58:14+10:00*
G04 #@! TF.ProjectId,ExtraBoard-Base,45787472-6142-46f6-9172-642d42617365,rev?*
G04 #@! TF.SameCoordinates,Original*
G04 #@! TF.FileFunction,Profile,NP*
%FSLAX46Y46*%
G04 Gerber Fmt 4.6, Leading zero omitted, Abs format (unit mm)*
G04 Created by KiCad (PCBNEW (5.1.9)-1) date 2021-04-11 13:58:14*
%MOMM*%
%LPD*%
G01*
G04 APERTURE LIST*
G04 #@! TA.AperFunction,Profile*
%ADD10C,0.100000*%
G04 #@! TD*
G04 APERTURE END LIST*
D10*
X111751240Y22363907D02*
G75*
G02*
X110227664Y22331078I-868241J4924038D01*
G01*
X128524299Y25321450D02*
X111751240Y22363907D01*
X128524299Y25321450D02*
G75*
G02*
X132260422Y24493171I868241J-4924039D01*
G01*
X147516773Y13810559D02*
X132260422Y24493171D01*
X154480416Y15038436D02*
G75*
G02*
X147516773Y13810559I-4095760J2867883D01*
G01*
X157436733Y19260496D02*
X154480416Y15038437D01*
X157436734Y19260494D02*
G75*
G02*
X166456532Y17260854I4095760J-2867881D01*
G01*
X180102023Y-60126569D02*
X166456532Y17260854D01*
X180102023Y-60126569D02*
G75*
G02*
X178545716Y-64690535I-4924039J-868241D01*
G01*
X120048981Y-117995724D02*
X178545716Y-64690535D01*
X120048982Y-117995725D02*
G75*
G02*
X116681250Y-119300000I-3367732J3695726D01*
G01*
X88106250Y-119300000D02*
X116681250Y-119300000D01*
X88106250Y-119300000D02*
G75*
G02*
X83424604Y-116055617I0J5000000D01*
G01*
X78336675Y-102487807D02*
X83424604Y-116055617D01*
X74415315Y-99301566D02*
G75*
G02*
X78336675Y-102487807I-760286J-4941858D01*
G01*
X49245964Y-95429358D02*
X74415315Y-99301566D01*
X49245964Y-95429357D02*
G75*
G02*
X45006250Y-90487499I760286J4941858D01*
G01*
X45006249Y-81437500D02*
X45006250Y-90487499D01*
X40006250Y-76437501D02*
G75*
G02*
X45006249Y-81437500I0J-4999999D01*
G01*
X-7143750Y-76437500D02*
X40006250Y-76437500D01*
X-7143749Y-76437500D02*
G75*
G02*
X-12143749Y-71437500I0J5000000D01*
G01*
X-12143750Y14287500D02*
X-12143750Y-71437500D01*
X-12143750Y14287501D02*
G75*
G02*
X-8301852Y19151531I5000000J-1D01*
G01*
X41704397Y31057781D02*
X-8301852Y19151531D01*
X41704397Y31057780D02*
G75*
G02*
X43517835Y31150617I1158103J-4864031D01*
G01*
X110227664Y22331078D02*
X43517835Y31150617D01*
M02*
