M48
; DRILL file {KiCad (5.1.9)-1} date 04/11/21 13:58:16
; FORMAT={-:-/ absolute / inch / decimal}
; #@! TF.CreationDate,2021-04-11T13:58:16+10:00
; #@! TF.GenerationSoftware,Kicad,Pcbnew,(5.1.9)-1
; #@! TF.FileFunction,Plated,1,2,PTH
FMAT,2
INCH
T1C0.0197
T2C0.1260
%
G90
G05
T1
X-0.3757Y0.5625
X-0.3757Y-2.8125
X-0.3481Y0.6293
X-0.3481Y0.4957
X-0.3481Y-2.7457
X-0.3481Y-2.8793
X-0.2813Y0.657
X-0.2813Y0.468
X-0.2813Y-2.718
X-0.2813Y-2.907
X-0.2144Y0.6293
X-0.2144Y0.4957
X-0.2144Y-2.7457
X-0.2144Y-2.8793
X-0.1868Y0.5625
X-0.1868Y-2.8125
X1.593Y1.0313
X1.6207Y1.0981
X1.6207Y0.9644
X1.6875Y1.1257
X1.6875Y0.9368
X1.7543Y1.0981
X1.7543Y0.9644
X1.782Y1.0313
X1.8743Y-3.5625
X1.9019Y-3.4957
X1.9019Y-3.6293
X1.9687Y-3.468
X1.9687Y-3.657
X2.0356Y-3.4957
X2.0356Y-3.6293
X2.0632Y-3.5625
X3.3743Y-4.5
X3.4019Y-4.4332
X3.4019Y-4.5668
X3.4687Y-4.4055
X3.4687Y-4.5945
X3.5356Y-4.4332
X3.5356Y-4.5668
X3.5632Y-4.5
X4.2796Y0.6761
X4.3072Y0.7429
X4.3072Y0.6092
X4.3741Y0.7706
X4.3741Y0.5816
X4.4409Y0.7429
X4.4409Y0.6092
X4.4685Y0.6761
X4.4993Y-4.5
X4.5269Y-4.4332
X4.5269Y-4.5668
X4.5937Y-4.4055
X4.5937Y-4.5945
X4.6606Y-4.4332
X4.6606Y-4.5668
X4.6882Y-4.5
X4.9997Y0.803
X5.0149Y-1.9687
X5.0274Y0.8698
X5.0274Y0.7362
X5.0426Y-1.9019
X5.0426Y-2.0356
X5.0942Y0.8975
X5.0942Y0.7085
X5.1094Y-1.8743
X5.1094Y-2.0632
X5.161Y0.8698
X5.161Y0.7362
X5.1762Y-1.9019
X5.1762Y-2.0356
X5.1887Y0.803
X5.2039Y-1.9687
X6.265Y0.6454
X6.2927Y0.7122
X6.2927Y0.5786
X6.3595Y0.7399
X6.3595Y0.5509
X6.4263Y0.7122
X6.4263Y0.5786
X6.454Y0.6454
X6.8023Y-2.4014
X6.83Y-2.3346
X6.83Y-2.4682
X6.8968Y-2.3069
X6.8968Y-2.4959
X6.9636Y-2.3346
X6.9636Y-2.4682
X6.9913Y-2.4014
T2
X-0.2813Y0.5625
X-0.2813Y-2.8125
X1.6875Y1.0313
X1.9687Y-3.5625
X3.4687Y-4.5
X4.3741Y0.6761
X4.5937Y-4.5
X5.0942Y0.803
X5.1094Y-1.9687
X6.3595Y0.6454
X6.8968Y-2.4014
T0
M30
