%TF.GenerationSoftware,KiCad,Pcbnew,(5.1.7)-1*%
%TF.CreationDate,2020-10-07T08:37:43+11:00*%
%TF.ProjectId,Board-DjinnBase,426f6172-642d-4446-9a69-6e6e42617365,rev?*%
%TF.SameCoordinates,Original*%
%TF.FileFunction,Profile,NP*%
%FSLAX46Y46*%
G04 Gerber Fmt 4.6, Leading zero omitted, Abs format (unit mm)*
G04 Created by KiCad (PCBNEW (5.1.7)-1) date 2020-10-07 08:37:43*
%MOMM*%
%LPD*%
G01*
G04 APERTURE LIST*
%TA.AperFunction,Profile*%
%ADD10C,0.120000*%
%TD*%
G04 APERTURE END LIST*
D10*
%TO.C,BASE1*%
X159799839Y-8538703D02*
X153245099Y-15093442D01*
X142638500Y-7315268D02*
X150416674Y-15093442D01*
X135659223Y-118173103D02*
X165712289Y-94762214D01*
X70120878Y-123423677D02*
X99392668Y-128585082D01*
X-8071867Y15931257D02*
X-22957897Y-68491746D01*
X167929935Y-90736655D02*
X167929935Y-11906299D01*
X-4249790Y19786990D02*
X46347002Y24257768D01*
X-19094752Y-74008892D02*
X26634370Y-82072191D01*
X30497519Y-87589337D02*
X30084048Y-89934467D01*
X31848558Y-94519398D02*
X68579175Y-122853389D01*
X48647644Y23992395D02*
X112602556Y2694213D01*
X134336896Y986336D02*
X142638500Y-7315268D01*
X114300481Y2381262D02*
X130969298Y2381240D01*
X101491514Y-128129564D02*
X134240182Y-118862489D01*
X159799839Y-8538703D02*
G75*
G02*
X167929935Y-11906299I3367596J-3367596D01*
G01*
X165712289Y-94762214D02*
G75*
G03*
X167929935Y-90736655I-2544853J4025558D01*
G01*
X-19094752Y-74008891D02*
G75*
G02*
X-22957897Y-68491746I827000J4690145D01*
G01*
X-4249790Y19786990D02*
G75*
G03*
X-8071867Y15931257I868090J-4682737D01*
G01*
X48647644Y23992396D02*
G75*
G03*
X46347002Y24257768I-1680878J-4466964D01*
G01*
X31848558Y-94519399D02*
G75*
G02*
X30084048Y-89934467I2925636J3757932D01*
G01*
X26634369Y-82072191D02*
G75*
G02*
X30497519Y-87589337I-826998J-4690148D01*
G01*
X134336895Y986337D02*
G75*
G03*
X130969298Y2381240I-3367595J-3367598D01*
G01*
X101491514Y-128129564D02*
G75*
G02*
X99392668Y-128585082I-2017911J4234649D01*
G01*
X68579175Y-122853390D02*
G75*
G03*
X70120878Y-123423677I2339927J3956670D01*
G01*
X112602558Y2694214D02*
G75*
G03*
X114300481Y2381262I1697922J4449566D01*
G01*
X153245099Y-15093438D02*
G75*
G02*
X150416673Y-15093442I-1414215J1414211D01*
G01*
X135659223Y-118173102D02*
G75*
G02*
X134240182Y-118862489I-2758342J3872622D01*
G01*
%TD*%
M02*
