%TF.GenerationSoftware,KiCad,Pcbnew,(5.1.7)-1*%
%TF.CreationDate,2020-10-07T08:37:43+11:00*%
%TF.ProjectId,Board-DjinnBase,426f6172-642d-4446-9a69-6e6e42617365,rev?*%
%TF.SameCoordinates,Original*%
%TF.FileFunction,Copper,L1,Top*%
%TF.FilePolarity,Positive*%
%FSLAX46Y46*%
G04 Gerber Fmt 4.6, Leading zero omitted, Abs format (unit mm)*
G04 Created by KiCad (PCBNEW (5.1.7)-1) date 2020-10-07 08:37:43*
%MOMM*%
%LPD*%
G01*
G04 APERTURE LIST*
%TA.AperFunction,ComponentPad*%
%ADD10C,7.000000*%
%TD*%
%TA.AperFunction,NonConductor*%
%ADD11C,0.254000*%
%TD*%
%TA.AperFunction,NonConductor*%
%ADD12C,0.100000*%
%TD*%
G04 APERTURE END LIST*
D10*
%TO.P,BASE1,~*%
%TO.N,N/C*%
X46966766Y19525432D03*
X99473603Y-123894915D03*
X163167435Y-90487880D03*
X34774198Y-90761447D03*
X163167435Y-11906299D03*
%TO.P,BASE1,1*%
X111919220Y-2381261D03*
X130969300Y-2381260D03*
%TO.P,BASE1,~*%
X85949668Y-81650102D03*
X-3381700Y15104253D03*
X-18267752Y-69318746D03*
X118708259Y-73245522D03*
X70919102Y-118896720D03*
X132900881Y-114300480D03*
%TD*%
D11*
X45760631Y23501526D02*
X45008109Y23189821D01*
X44330857Y22737296D01*
X43754902Y22161341D01*
X43302377Y21484089D01*
X42990672Y20731567D01*
X42831766Y19932694D01*
X42831766Y19118170D01*
X42990672Y18319297D01*
X43302377Y17566775D01*
X43754902Y16889523D01*
X44330857Y16313568D01*
X45008109Y15861043D01*
X45760631Y15549338D01*
X46559504Y15390432D01*
X47374028Y15390432D01*
X48172901Y15549338D01*
X48925423Y15861043D01*
X49602675Y16313568D01*
X50178630Y16889523D01*
X50631155Y17566775D01*
X50942860Y18319297D01*
X51101766Y19118170D01*
X51101766Y19932694D01*
X50942860Y20731567D01*
X50631155Y21484089D01*
X50178630Y22161341D01*
X49602675Y22737296D01*
X48992423Y23145053D01*
X112415350Y2024031D01*
X112431511Y2020361D01*
X113244593Y1791918D01*
X113297869Y1782098D01*
X113350892Y1770828D01*
X113368987Y1768927D01*
X114234843Y1689366D01*
X114266346Y1686263D01*
X130222699Y1686241D01*
X129763165Y1594834D01*
X129010643Y1283129D01*
X128333391Y830604D01*
X127757436Y254649D01*
X127304911Y-422603D01*
X126993206Y-1175125D01*
X126834300Y-1973998D01*
X126834300Y-2788522D01*
X126993206Y-3587395D01*
X127304911Y-4339917D01*
X127757436Y-5017169D01*
X128333391Y-5593124D01*
X129010643Y-6045649D01*
X129763165Y-6357354D01*
X130562038Y-6516260D01*
X131376562Y-6516260D01*
X132175435Y-6357354D01*
X132927957Y-6045649D01*
X133605209Y-5593124D01*
X134181164Y-5017169D01*
X134633689Y-4339917D01*
X134945394Y-3587395D01*
X135104300Y-2788522D01*
X135104300Y-1973998D01*
X134945394Y-1175125D01*
X134633689Y-422603D01*
X134373387Y-33033D01*
X142171197Y-7830844D01*
X142171203Y-7830849D01*
X149949371Y-15609018D01*
X149972988Y-15628400D01*
X149981705Y-15637239D01*
X149989203Y-15643398D01*
X150292548Y-15889041D01*
X150345134Y-15923715D01*
X150397235Y-15959122D01*
X150405787Y-15963708D01*
X150751067Y-16145753D01*
X150809379Y-16169550D01*
X150867374Y-16194166D01*
X150876654Y-16197004D01*
X151250718Y-16308516D01*
X151312534Y-16320532D01*
X151374210Y-16333416D01*
X151383864Y-16334397D01*
X151772463Y-16371130D01*
X151835477Y-16370910D01*
X151898442Y-16371569D01*
X151908103Y-16370656D01*
X152296436Y-16331210D01*
X152358180Y-16318760D01*
X152420100Y-16307172D01*
X152429397Y-16304401D01*
X152429403Y-16304399D01*
X152802676Y-16190278D01*
X152860848Y-16166063D01*
X152919317Y-16142677D01*
X152927896Y-16138154D01*
X152927900Y-16138152D01*
X152927903Y-16138150D01*
X153271901Y-15953699D01*
X153324226Y-15918670D01*
X153377074Y-15884350D01*
X153384616Y-15878243D01*
X153683592Y-15632660D01*
X153712401Y-15609018D01*
X159763349Y-9558071D01*
X159503046Y-9947642D01*
X159191341Y-10700164D01*
X159032435Y-11499037D01*
X159032435Y-12313561D01*
X159191341Y-13112434D01*
X159503046Y-13864956D01*
X159955571Y-14542208D01*
X160531526Y-15118163D01*
X161208778Y-15570688D01*
X161961300Y-15882393D01*
X162760173Y-16041299D01*
X163574697Y-16041299D01*
X164373570Y-15882393D01*
X165126092Y-15570688D01*
X165803344Y-15118163D01*
X166379299Y-14542208D01*
X166831824Y-13864956D01*
X167143529Y-13112434D01*
X167234936Y-12652901D01*
X167234935Y-89741273D01*
X167143529Y-89281745D01*
X166831824Y-88529223D01*
X166379299Y-87851971D01*
X165803344Y-87276016D01*
X165126092Y-86823491D01*
X164373570Y-86511786D01*
X163574697Y-86352880D01*
X162760173Y-86352880D01*
X161961300Y-86511786D01*
X161208778Y-86823491D01*
X160531526Y-87276016D01*
X159955571Y-87851971D01*
X159503046Y-88529223D01*
X159191341Y-89281745D01*
X159032435Y-90080618D01*
X159032435Y-90895142D01*
X159191341Y-91694015D01*
X159503046Y-92446537D01*
X159955571Y-93123789D01*
X160531526Y-93699744D01*
X161208778Y-94152269D01*
X161961300Y-94463974D01*
X162760173Y-94622880D01*
X163574697Y-94622880D01*
X164373570Y-94463974D01*
X165126092Y-94152269D01*
X165803344Y-93699744D01*
X166379299Y-93123789D01*
X166831824Y-92446537D01*
X167016040Y-92001801D01*
X166962041Y-92193266D01*
X166633051Y-92860390D01*
X166188002Y-93456384D01*
X165629907Y-93972281D01*
X165327597Y-94183175D01*
X165312117Y-94192958D01*
X136101686Y-116947448D01*
X136112745Y-116936389D01*
X136565270Y-116259137D01*
X136876975Y-115506615D01*
X137035881Y-114707742D01*
X137035881Y-113893218D01*
X136876975Y-113094345D01*
X136565270Y-112341823D01*
X136112745Y-111664571D01*
X135536790Y-111088616D01*
X134859538Y-110636091D01*
X134107016Y-110324386D01*
X133308143Y-110165480D01*
X132493619Y-110165480D01*
X131694746Y-110324386D01*
X130942224Y-110636091D01*
X130264972Y-111088616D01*
X129689017Y-111664571D01*
X129236492Y-112341823D01*
X128924787Y-113094345D01*
X128765881Y-113893218D01*
X128765881Y-114707742D01*
X128924787Y-115506615D01*
X129236492Y-116259137D01*
X129689017Y-116936389D01*
X130264972Y-117512344D01*
X130942224Y-117964869D01*
X131694746Y-118276574D01*
X132493619Y-118435480D01*
X133196695Y-118435480D01*
X101783406Y-127324676D01*
X102109512Y-127106779D01*
X102685467Y-126530824D01*
X103137992Y-125853572D01*
X103449697Y-125101050D01*
X103608603Y-124302177D01*
X103608603Y-123487653D01*
X103449697Y-122688780D01*
X103137992Y-121936258D01*
X102685467Y-121259006D01*
X102109512Y-120683051D01*
X101432260Y-120230526D01*
X100679738Y-119918821D01*
X99880865Y-119759915D01*
X99066341Y-119759915D01*
X98267468Y-119918821D01*
X97514946Y-120230526D01*
X96837694Y-120683051D01*
X96261739Y-121259006D01*
X95809214Y-121936258D01*
X95497509Y-122688780D01*
X95338603Y-123487653D01*
X95338603Y-124302177D01*
X95497509Y-125101050D01*
X95809214Y-125853572D01*
X96261739Y-126530824D01*
X96837694Y-127106779D01*
X97492508Y-127544311D01*
X71596069Y-122978072D01*
X72125237Y-122872814D01*
X72877759Y-122561109D01*
X73555011Y-122108584D01*
X74130966Y-121532629D01*
X74583491Y-120855377D01*
X74895196Y-120102855D01*
X75054102Y-119303982D01*
X75054102Y-118489458D01*
X74895196Y-117690585D01*
X74583491Y-116938063D01*
X74130966Y-116260811D01*
X73555011Y-115684856D01*
X72877759Y-115232331D01*
X72125237Y-114920626D01*
X71326364Y-114761720D01*
X70511840Y-114761720D01*
X69712967Y-114920626D01*
X68960445Y-115232331D01*
X68283193Y-115684856D01*
X67707238Y-116260811D01*
X67254713Y-116938063D01*
X66943008Y-117690585D01*
X66784102Y-118489458D01*
X66784102Y-119303982D01*
X66943008Y-120102855D01*
X67254713Y-120855377D01*
X67390629Y-121058790D01*
X32922658Y-94470205D01*
X33568063Y-94737541D01*
X34366936Y-94896447D01*
X35181460Y-94896447D01*
X35980333Y-94737541D01*
X36732855Y-94425836D01*
X37410107Y-93973311D01*
X37986062Y-93397356D01*
X38438587Y-92720104D01*
X38459875Y-92668710D01*
X151556270Y-92668710D01*
X151556270Y-93069570D01*
X151634474Y-93462727D01*
X151787877Y-93833074D01*
X152010583Y-94166377D01*
X152294033Y-94449827D01*
X152627336Y-94672533D01*
X152997683Y-94825936D01*
X153390840Y-94904140D01*
X153791700Y-94904140D01*
X154184857Y-94825936D01*
X154555204Y-94672533D01*
X154888507Y-94449827D01*
X155171957Y-94166377D01*
X155394663Y-93833074D01*
X155548066Y-93462727D01*
X155626270Y-93069570D01*
X155626270Y-92668710D01*
X155548066Y-92275553D01*
X155394663Y-91905206D01*
X155171957Y-91571903D01*
X154888507Y-91288453D01*
X154555204Y-91065747D01*
X154184857Y-90912344D01*
X153791700Y-90834140D01*
X153390840Y-90834140D01*
X152997683Y-90912344D01*
X152627336Y-91065747D01*
X152294033Y-91288453D01*
X152010583Y-91571903D01*
X151787877Y-91905206D01*
X151634474Y-92275553D01*
X151556270Y-92668710D01*
X38459875Y-92668710D01*
X38750292Y-91967582D01*
X38909198Y-91168709D01*
X38909198Y-90354185D01*
X38750292Y-89555312D01*
X38438587Y-88802790D01*
X37986062Y-88125538D01*
X37410107Y-87549583D01*
X36732855Y-87097058D01*
X35980333Y-86785353D01*
X35181460Y-86626447D01*
X34366936Y-86626447D01*
X33568063Y-86785353D01*
X32815541Y-87097058D01*
X32138289Y-87549583D01*
X31562334Y-88125538D01*
X31109809Y-88802790D01*
X30899980Y-89309363D01*
X31187889Y-87676395D01*
X31189276Y-87658259D01*
X31248091Y-87179252D01*
X31249341Y-87138334D01*
X31253265Y-87097585D01*
X31253106Y-87079391D01*
X31234093Y-86208046D01*
X31227920Y-86153870D01*
X31223166Y-86099536D01*
X31219695Y-86081676D01*
X31042210Y-85228386D01*
X31026269Y-85176247D01*
X31011692Y-85123685D01*
X31005024Y-85106756D01*
X30675011Y-84300098D01*
X30649835Y-84251736D01*
X30625924Y-84202711D01*
X30616285Y-84187287D01*
X30616282Y-84187281D01*
X30616278Y-84187276D01*
X30144794Y-83454272D01*
X30111239Y-83411324D01*
X30078782Y-83367461D01*
X30066489Y-83354046D01*
X29469315Y-82719233D01*
X29428480Y-82683106D01*
X29388589Y-82645907D01*
X29374058Y-82634957D01*
X28671199Y-82119599D01*
X28624487Y-82091532D01*
X28578462Y-82062211D01*
X28562178Y-82054093D01*
X27777171Y-81675451D01*
X27726106Y-81656359D01*
X27675528Y-81635924D01*
X27658039Y-81630909D01*
X26819363Y-81402260D01*
X26788672Y-81393677D01*
X25933235Y-81242840D01*
X81814668Y-81242840D01*
X81814668Y-82057364D01*
X81973574Y-82856237D01*
X82285279Y-83608759D01*
X82737804Y-84286011D01*
X83313759Y-84861966D01*
X83991011Y-85314491D01*
X84743533Y-85626196D01*
X85542406Y-85785102D01*
X86356930Y-85785102D01*
X87155803Y-85626196D01*
X87908325Y-85314491D01*
X88585577Y-84861966D01*
X89161532Y-84286011D01*
X89614057Y-83608759D01*
X89925762Y-82856237D01*
X90084668Y-82057364D01*
X90084668Y-81242840D01*
X89925762Y-80443967D01*
X89614057Y-79691445D01*
X89161532Y-79014193D01*
X88585577Y-78438238D01*
X87908325Y-77985713D01*
X87155803Y-77674008D01*
X86356930Y-77515102D01*
X85542406Y-77515102D01*
X84743533Y-77674008D01*
X83991011Y-77985713D01*
X83313759Y-78438238D01*
X82737804Y-79014193D01*
X82285279Y-79691445D01*
X81973574Y-80443967D01*
X81814668Y-81242840D01*
X25933235Y-81242840D01*
X-18240803Y-73453746D01*
X-17860490Y-73453746D01*
X-17061617Y-73294840D01*
X-16309095Y-72983135D01*
X-16092275Y-72838260D01*
X114573259Y-72838260D01*
X114573259Y-73652784D01*
X114732165Y-74451657D01*
X115043870Y-75204179D01*
X115496395Y-75881431D01*
X116072350Y-76457386D01*
X116749602Y-76909911D01*
X117502124Y-77221616D01*
X118300997Y-77380522D01*
X119115521Y-77380522D01*
X119914394Y-77221616D01*
X120666916Y-76909911D01*
X121344168Y-76457386D01*
X121920123Y-75881431D01*
X122372648Y-75204179D01*
X122684353Y-74451657D01*
X122843259Y-73652784D01*
X122843259Y-72838260D01*
X122684353Y-72039387D01*
X122372648Y-71286865D01*
X121920123Y-70609613D01*
X121344168Y-70033658D01*
X120666916Y-69581133D01*
X119914394Y-69269428D01*
X119115521Y-69110522D01*
X118300997Y-69110522D01*
X117502124Y-69269428D01*
X116749602Y-69581133D01*
X116072350Y-70033658D01*
X115496395Y-70609613D01*
X115043870Y-71286865D01*
X114732165Y-72039387D01*
X114573259Y-72838260D01*
X-16092275Y-72838260D01*
X-15631843Y-72530610D01*
X-15055888Y-71954655D01*
X-14603363Y-71277403D01*
X-14291658Y-70524881D01*
X-14132752Y-69726008D01*
X-14132752Y-68911484D01*
X-14291658Y-68112611D01*
X-14603363Y-67360089D01*
X-15055888Y-66682837D01*
X-15631843Y-66106882D01*
X-16309095Y-65654357D01*
X-17061617Y-65342652D01*
X-17860490Y-65183746D01*
X-18675014Y-65183746D01*
X-19473887Y-65342652D01*
X-20226409Y-65654357D01*
X-20903661Y-66106882D01*
X-21479616Y-66682837D01*
X-21932141Y-67360089D01*
X-22141948Y-67866608D01*
X-10523322Y-1973999D01*
X107784220Y-1973999D01*
X107784220Y-2788523D01*
X107943126Y-3587396D01*
X108254831Y-4339918D01*
X108707356Y-5017170D01*
X109283311Y-5593125D01*
X109960563Y-6045650D01*
X110713085Y-6357355D01*
X111511958Y-6516261D01*
X112326482Y-6516261D01*
X113125355Y-6357355D01*
X113877877Y-6045650D01*
X114555129Y-5593125D01*
X115131084Y-5017170D01*
X115583609Y-4339918D01*
X115895314Y-3587396D01*
X116054220Y-2788523D01*
X116054220Y-1973999D01*
X115895314Y-1175126D01*
X115583609Y-422604D01*
X115131084Y254648D01*
X114555129Y830603D01*
X113877877Y1283128D01*
X113125355Y1594833D01*
X112326482Y1753739D01*
X111511958Y1753739D01*
X110713085Y1594833D01*
X109960563Y1283128D01*
X109283311Y830603D01*
X108707356Y254648D01*
X108254831Y-422604D01*
X107943126Y-1175126D01*
X107784220Y-1973999D01*
X-10523322Y-1973999D01*
X-7516700Y15077424D01*
X-7516700Y14696991D01*
X-7357794Y13898118D01*
X-7046089Y13145596D01*
X-6593564Y12468344D01*
X-6017609Y11892389D01*
X-5340357Y11439864D01*
X-4587835Y11128159D01*
X-3788962Y10969253D01*
X-2974438Y10969253D01*
X-2175565Y11128159D01*
X-1423043Y11439864D01*
X-745791Y11892389D01*
X-169836Y12468344D01*
X282689Y13145596D01*
X594394Y13898118D01*
X753300Y14696991D01*
X753300Y15511515D01*
X594394Y16310388D01*
X282689Y17062910D01*
X-169836Y17740162D01*
X-745791Y18316117D01*
X-1423043Y18768642D01*
X-2175565Y19080347D01*
X-2844668Y19213440D01*
X45821426Y23513619D01*
X45760631Y23501526D01*
%TA.AperFunction,NonConductor*%
D12*
G36*
X45760631Y23501526D02*
G01*
X45008109Y23189821D01*
X44330857Y22737296D01*
X43754902Y22161341D01*
X43302377Y21484089D01*
X42990672Y20731567D01*
X42831766Y19932694D01*
X42831766Y19118170D01*
X42990672Y18319297D01*
X43302377Y17566775D01*
X43754902Y16889523D01*
X44330857Y16313568D01*
X45008109Y15861043D01*
X45760631Y15549338D01*
X46559504Y15390432D01*
X47374028Y15390432D01*
X48172901Y15549338D01*
X48925423Y15861043D01*
X49602675Y16313568D01*
X50178630Y16889523D01*
X50631155Y17566775D01*
X50942860Y18319297D01*
X51101766Y19118170D01*
X51101766Y19932694D01*
X50942860Y20731567D01*
X50631155Y21484089D01*
X50178630Y22161341D01*
X49602675Y22737296D01*
X48992423Y23145053D01*
X112415350Y2024031D01*
X112431511Y2020361D01*
X113244593Y1791918D01*
X113297869Y1782098D01*
X113350892Y1770828D01*
X113368987Y1768927D01*
X114234843Y1689366D01*
X114266346Y1686263D01*
X130222699Y1686241D01*
X129763165Y1594834D01*
X129010643Y1283129D01*
X128333391Y830604D01*
X127757436Y254649D01*
X127304911Y-422603D01*
X126993206Y-1175125D01*
X126834300Y-1973998D01*
X126834300Y-2788522D01*
X126993206Y-3587395D01*
X127304911Y-4339917D01*
X127757436Y-5017169D01*
X128333391Y-5593124D01*
X129010643Y-6045649D01*
X129763165Y-6357354D01*
X130562038Y-6516260D01*
X131376562Y-6516260D01*
X132175435Y-6357354D01*
X132927957Y-6045649D01*
X133605209Y-5593124D01*
X134181164Y-5017169D01*
X134633689Y-4339917D01*
X134945394Y-3587395D01*
X135104300Y-2788522D01*
X135104300Y-1973998D01*
X134945394Y-1175125D01*
X134633689Y-422603D01*
X134373387Y-33033D01*
X142171197Y-7830844D01*
X142171203Y-7830849D01*
X149949371Y-15609018D01*
X149972988Y-15628400D01*
X149981705Y-15637239D01*
X149989203Y-15643398D01*
X150292548Y-15889041D01*
X150345134Y-15923715D01*
X150397235Y-15959122D01*
X150405787Y-15963708D01*
X150751067Y-16145753D01*
X150809379Y-16169550D01*
X150867374Y-16194166D01*
X150876654Y-16197004D01*
X151250718Y-16308516D01*
X151312534Y-16320532D01*
X151374210Y-16333416D01*
X151383864Y-16334397D01*
X151772463Y-16371130D01*
X151835477Y-16370910D01*
X151898442Y-16371569D01*
X151908103Y-16370656D01*
X152296436Y-16331210D01*
X152358180Y-16318760D01*
X152420100Y-16307172D01*
X152429397Y-16304401D01*
X152429403Y-16304399D01*
X152802676Y-16190278D01*
X152860848Y-16166063D01*
X152919317Y-16142677D01*
X152927896Y-16138154D01*
X152927900Y-16138152D01*
X152927903Y-16138150D01*
X153271901Y-15953699D01*
X153324226Y-15918670D01*
X153377074Y-15884350D01*
X153384616Y-15878243D01*
X153683592Y-15632660D01*
X153712401Y-15609018D01*
X159763349Y-9558071D01*
X159503046Y-9947642D01*
X159191341Y-10700164D01*
X159032435Y-11499037D01*
X159032435Y-12313561D01*
X159191341Y-13112434D01*
X159503046Y-13864956D01*
X159955571Y-14542208D01*
X160531526Y-15118163D01*
X161208778Y-15570688D01*
X161961300Y-15882393D01*
X162760173Y-16041299D01*
X163574697Y-16041299D01*
X164373570Y-15882393D01*
X165126092Y-15570688D01*
X165803344Y-15118163D01*
X166379299Y-14542208D01*
X166831824Y-13864956D01*
X167143529Y-13112434D01*
X167234936Y-12652901D01*
X167234935Y-89741273D01*
X167143529Y-89281745D01*
X166831824Y-88529223D01*
X166379299Y-87851971D01*
X165803344Y-87276016D01*
X165126092Y-86823491D01*
X164373570Y-86511786D01*
X163574697Y-86352880D01*
X162760173Y-86352880D01*
X161961300Y-86511786D01*
X161208778Y-86823491D01*
X160531526Y-87276016D01*
X159955571Y-87851971D01*
X159503046Y-88529223D01*
X159191341Y-89281745D01*
X159032435Y-90080618D01*
X159032435Y-90895142D01*
X159191341Y-91694015D01*
X159503046Y-92446537D01*
X159955571Y-93123789D01*
X160531526Y-93699744D01*
X161208778Y-94152269D01*
X161961300Y-94463974D01*
X162760173Y-94622880D01*
X163574697Y-94622880D01*
X164373570Y-94463974D01*
X165126092Y-94152269D01*
X165803344Y-93699744D01*
X166379299Y-93123789D01*
X166831824Y-92446537D01*
X167016040Y-92001801D01*
X166962041Y-92193266D01*
X166633051Y-92860390D01*
X166188002Y-93456384D01*
X165629907Y-93972281D01*
X165327597Y-94183175D01*
X165312117Y-94192958D01*
X136101686Y-116947448D01*
X136112745Y-116936389D01*
X136565270Y-116259137D01*
X136876975Y-115506615D01*
X137035881Y-114707742D01*
X137035881Y-113893218D01*
X136876975Y-113094345D01*
X136565270Y-112341823D01*
X136112745Y-111664571D01*
X135536790Y-111088616D01*
X134859538Y-110636091D01*
X134107016Y-110324386D01*
X133308143Y-110165480D01*
X132493619Y-110165480D01*
X131694746Y-110324386D01*
X130942224Y-110636091D01*
X130264972Y-111088616D01*
X129689017Y-111664571D01*
X129236492Y-112341823D01*
X128924787Y-113094345D01*
X128765881Y-113893218D01*
X128765881Y-114707742D01*
X128924787Y-115506615D01*
X129236492Y-116259137D01*
X129689017Y-116936389D01*
X130264972Y-117512344D01*
X130942224Y-117964869D01*
X131694746Y-118276574D01*
X132493619Y-118435480D01*
X133196695Y-118435480D01*
X101783406Y-127324676D01*
X102109512Y-127106779D01*
X102685467Y-126530824D01*
X103137992Y-125853572D01*
X103449697Y-125101050D01*
X103608603Y-124302177D01*
X103608603Y-123487653D01*
X103449697Y-122688780D01*
X103137992Y-121936258D01*
X102685467Y-121259006D01*
X102109512Y-120683051D01*
X101432260Y-120230526D01*
X100679738Y-119918821D01*
X99880865Y-119759915D01*
X99066341Y-119759915D01*
X98267468Y-119918821D01*
X97514946Y-120230526D01*
X96837694Y-120683051D01*
X96261739Y-121259006D01*
X95809214Y-121936258D01*
X95497509Y-122688780D01*
X95338603Y-123487653D01*
X95338603Y-124302177D01*
X95497509Y-125101050D01*
X95809214Y-125853572D01*
X96261739Y-126530824D01*
X96837694Y-127106779D01*
X97492508Y-127544311D01*
X71596069Y-122978072D01*
X72125237Y-122872814D01*
X72877759Y-122561109D01*
X73555011Y-122108584D01*
X74130966Y-121532629D01*
X74583491Y-120855377D01*
X74895196Y-120102855D01*
X75054102Y-119303982D01*
X75054102Y-118489458D01*
X74895196Y-117690585D01*
X74583491Y-116938063D01*
X74130966Y-116260811D01*
X73555011Y-115684856D01*
X72877759Y-115232331D01*
X72125237Y-114920626D01*
X71326364Y-114761720D01*
X70511840Y-114761720D01*
X69712967Y-114920626D01*
X68960445Y-115232331D01*
X68283193Y-115684856D01*
X67707238Y-116260811D01*
X67254713Y-116938063D01*
X66943008Y-117690585D01*
X66784102Y-118489458D01*
X66784102Y-119303982D01*
X66943008Y-120102855D01*
X67254713Y-120855377D01*
X67390629Y-121058790D01*
X32922658Y-94470205D01*
X33568063Y-94737541D01*
X34366936Y-94896447D01*
X35181460Y-94896447D01*
X35980333Y-94737541D01*
X36732855Y-94425836D01*
X37410107Y-93973311D01*
X37986062Y-93397356D01*
X38438587Y-92720104D01*
X38459875Y-92668710D01*
X151556270Y-92668710D01*
X151556270Y-93069570D01*
X151634474Y-93462727D01*
X151787877Y-93833074D01*
X152010583Y-94166377D01*
X152294033Y-94449827D01*
X152627336Y-94672533D01*
X152997683Y-94825936D01*
X153390840Y-94904140D01*
X153791700Y-94904140D01*
X154184857Y-94825936D01*
X154555204Y-94672533D01*
X154888507Y-94449827D01*
X155171957Y-94166377D01*
X155394663Y-93833074D01*
X155548066Y-93462727D01*
X155626270Y-93069570D01*
X155626270Y-92668710D01*
X155548066Y-92275553D01*
X155394663Y-91905206D01*
X155171957Y-91571903D01*
X154888507Y-91288453D01*
X154555204Y-91065747D01*
X154184857Y-90912344D01*
X153791700Y-90834140D01*
X153390840Y-90834140D01*
X152997683Y-90912344D01*
X152627336Y-91065747D01*
X152294033Y-91288453D01*
X152010583Y-91571903D01*
X151787877Y-91905206D01*
X151634474Y-92275553D01*
X151556270Y-92668710D01*
X38459875Y-92668710D01*
X38750292Y-91967582D01*
X38909198Y-91168709D01*
X38909198Y-90354185D01*
X38750292Y-89555312D01*
X38438587Y-88802790D01*
X37986062Y-88125538D01*
X37410107Y-87549583D01*
X36732855Y-87097058D01*
X35980333Y-86785353D01*
X35181460Y-86626447D01*
X34366936Y-86626447D01*
X33568063Y-86785353D01*
X32815541Y-87097058D01*
X32138289Y-87549583D01*
X31562334Y-88125538D01*
X31109809Y-88802790D01*
X30899980Y-89309363D01*
X31187889Y-87676395D01*
X31189276Y-87658259D01*
X31248091Y-87179252D01*
X31249341Y-87138334D01*
X31253265Y-87097585D01*
X31253106Y-87079391D01*
X31234093Y-86208046D01*
X31227920Y-86153870D01*
X31223166Y-86099536D01*
X31219695Y-86081676D01*
X31042210Y-85228386D01*
X31026269Y-85176247D01*
X31011692Y-85123685D01*
X31005024Y-85106756D01*
X30675011Y-84300098D01*
X30649835Y-84251736D01*
X30625924Y-84202711D01*
X30616285Y-84187287D01*
X30616282Y-84187281D01*
X30616278Y-84187276D01*
X30144794Y-83454272D01*
X30111239Y-83411324D01*
X30078782Y-83367461D01*
X30066489Y-83354046D01*
X29469315Y-82719233D01*
X29428480Y-82683106D01*
X29388589Y-82645907D01*
X29374058Y-82634957D01*
X28671199Y-82119599D01*
X28624487Y-82091532D01*
X28578462Y-82062211D01*
X28562178Y-82054093D01*
X27777171Y-81675451D01*
X27726106Y-81656359D01*
X27675528Y-81635924D01*
X27658039Y-81630909D01*
X26819363Y-81402260D01*
X26788672Y-81393677D01*
X25933235Y-81242840D01*
X81814668Y-81242840D01*
X81814668Y-82057364D01*
X81973574Y-82856237D01*
X82285279Y-83608759D01*
X82737804Y-84286011D01*
X83313759Y-84861966D01*
X83991011Y-85314491D01*
X84743533Y-85626196D01*
X85542406Y-85785102D01*
X86356930Y-85785102D01*
X87155803Y-85626196D01*
X87908325Y-85314491D01*
X88585577Y-84861966D01*
X89161532Y-84286011D01*
X89614057Y-83608759D01*
X89925762Y-82856237D01*
X90084668Y-82057364D01*
X90084668Y-81242840D01*
X89925762Y-80443967D01*
X89614057Y-79691445D01*
X89161532Y-79014193D01*
X88585577Y-78438238D01*
X87908325Y-77985713D01*
X87155803Y-77674008D01*
X86356930Y-77515102D01*
X85542406Y-77515102D01*
X84743533Y-77674008D01*
X83991011Y-77985713D01*
X83313759Y-78438238D01*
X82737804Y-79014193D01*
X82285279Y-79691445D01*
X81973574Y-80443967D01*
X81814668Y-81242840D01*
X25933235Y-81242840D01*
X-18240803Y-73453746D01*
X-17860490Y-73453746D01*
X-17061617Y-73294840D01*
X-16309095Y-72983135D01*
X-16092275Y-72838260D01*
X114573259Y-72838260D01*
X114573259Y-73652784D01*
X114732165Y-74451657D01*
X115043870Y-75204179D01*
X115496395Y-75881431D01*
X116072350Y-76457386D01*
X116749602Y-76909911D01*
X117502124Y-77221616D01*
X118300997Y-77380522D01*
X119115521Y-77380522D01*
X119914394Y-77221616D01*
X120666916Y-76909911D01*
X121344168Y-76457386D01*
X121920123Y-75881431D01*
X122372648Y-75204179D01*
X122684353Y-74451657D01*
X122843259Y-73652784D01*
X122843259Y-72838260D01*
X122684353Y-72039387D01*
X122372648Y-71286865D01*
X121920123Y-70609613D01*
X121344168Y-70033658D01*
X120666916Y-69581133D01*
X119914394Y-69269428D01*
X119115521Y-69110522D01*
X118300997Y-69110522D01*
X117502124Y-69269428D01*
X116749602Y-69581133D01*
X116072350Y-70033658D01*
X115496395Y-70609613D01*
X115043870Y-71286865D01*
X114732165Y-72039387D01*
X114573259Y-72838260D01*
X-16092275Y-72838260D01*
X-15631843Y-72530610D01*
X-15055888Y-71954655D01*
X-14603363Y-71277403D01*
X-14291658Y-70524881D01*
X-14132752Y-69726008D01*
X-14132752Y-68911484D01*
X-14291658Y-68112611D01*
X-14603363Y-67360089D01*
X-15055888Y-66682837D01*
X-15631843Y-66106882D01*
X-16309095Y-65654357D01*
X-17061617Y-65342652D01*
X-17860490Y-65183746D01*
X-18675014Y-65183746D01*
X-19473887Y-65342652D01*
X-20226409Y-65654357D01*
X-20903661Y-66106882D01*
X-21479616Y-66682837D01*
X-21932141Y-67360089D01*
X-22141948Y-67866608D01*
X-10523322Y-1973999D01*
X107784220Y-1973999D01*
X107784220Y-2788523D01*
X107943126Y-3587396D01*
X108254831Y-4339918D01*
X108707356Y-5017170D01*
X109283311Y-5593125D01*
X109960563Y-6045650D01*
X110713085Y-6357355D01*
X111511958Y-6516261D01*
X112326482Y-6516261D01*
X113125355Y-6357355D01*
X113877877Y-6045650D01*
X114555129Y-5593125D01*
X115131084Y-5017170D01*
X115583609Y-4339918D01*
X115895314Y-3587396D01*
X116054220Y-2788523D01*
X116054220Y-1973999D01*
X115895314Y-1175126D01*
X115583609Y-422604D01*
X115131084Y254648D01*
X114555129Y830603D01*
X113877877Y1283128D01*
X113125355Y1594833D01*
X112326482Y1753739D01*
X111511958Y1753739D01*
X110713085Y1594833D01*
X109960563Y1283128D01*
X109283311Y830603D01*
X108707356Y254648D01*
X108254831Y-422604D01*
X107943126Y-1175126D01*
X107784220Y-1973999D01*
X-10523322Y-1973999D01*
X-7516700Y15077424D01*
X-7516700Y14696991D01*
X-7357794Y13898118D01*
X-7046089Y13145596D01*
X-6593564Y12468344D01*
X-6017609Y11892389D01*
X-5340357Y11439864D01*
X-4587835Y11128159D01*
X-3788962Y10969253D01*
X-2974438Y10969253D01*
X-2175565Y11128159D01*
X-1423043Y11439864D01*
X-745791Y11892389D01*
X-169836Y12468344D01*
X282689Y13145596D01*
X594394Y13898118D01*
X753300Y14696991D01*
X753300Y15511515D01*
X594394Y16310388D01*
X282689Y17062910D01*
X-169836Y17740162D01*
X-745791Y18316117D01*
X-1423043Y18768642D01*
X-2175565Y19080347D01*
X-2844668Y19213440D01*
X45821426Y23513619D01*
X45760631Y23501526D01*
G37*
%TD.AperFunction*%
M02*
