M48
; DRILL file {KiCad (5.1.9)-1} date 04/11/21 13:56:52
; FORMAT={-:-/ absolute / inch / decimal}
; #@! TF.CreationDate,2021-04-11T13:56:52+10:00
; #@! TF.GenerationSoftware,Kicad,Pcbnew,(5.1.9)-1
; #@! TF.FileFunction,Plated,1,2,PTH
FMAT,2
INCH
T1C0.0118
T2C0.0157
T3C0.0197
T4C0.0236
T5C0.0394
T6C0.0472
T7C0.0591
T8C0.1260
%
G90
G05
T1
X-0.315Y-0.1543
X-0.315Y-0.9043
X-0.315Y-1.6543
X-0.315Y-2.4043
X-0.285Y-0.085
X-0.285Y-0.835
X-0.285Y-1.585
X-0.285Y-2.335
X-0.2303Y-0.2067
X-0.2283Y-0.9528
X-0.2264Y-1.6929
X-0.2224Y-2.4626
X-0.1811Y-0.1567
X-0.1811Y-0.2433
X-0.1811Y-0.9067
X-0.1811Y-0.9933
X-0.1811Y-1.6567
X-0.1811Y-1.7433
X-0.1811Y-2.4067
X-0.1811Y-2.4933
X-0.1535Y-0.2
X-0.1535Y-0.95
X-0.1535Y-1.7
X-0.1535Y-2.45
X-0.1378Y-1.8012
X-0.1299Y-0.0531
X-0.126Y-1.5492
X-0.1181Y-2.2992
X-0.1122Y-0.8071
X-0.1102Y-0.4252
X-0.0389Y0.5701
X-0.0327Y0.5401
X-0.0311Y-2.6819
X-0.0295Y-1.2028
X-0.0256Y0.3012
X-0.0248Y-2.7119
X0.0256Y-1.9685
X0.1024Y-1.876
X0.1063Y-0.3681
X0.126Y-1.5591
X0.126Y-2.3091
X0.128Y-0.0531
X0.1299Y-0.7953
X0.1535Y-0.2
X0.1535Y-0.95
X0.1535Y-1.7
X0.1535Y-2.45
X0.1752Y-2.748
X0.1811Y-0.1567
X0.1811Y-0.2433
X0.1811Y-0.9067
X0.1811Y-0.9933
X0.1811Y-1.6567
X0.1811Y-1.7433
X0.1811Y-2.4067
X0.1811Y-2.4933
X0.1988Y-2.5886
X0.2126Y-0.1988
X0.2126Y-2.435
X0.2756Y-2.5866
X0.2876Y-2.8283
X0.2876Y-2.9149
X0.2953Y0.4291
X0.2953Y-0.1988
X0.2953Y-0.2972
X0.3012Y-0.0571
X0.3031Y-0.9134
X0.3051Y-2.4016
X0.3091Y-0.8012
X0.3091Y-1.5354
X0.311Y-2.3012
X0.3152Y-2.8716
X0.4055Y-0.1043
X0.4075Y-1.5945
X0.4311Y-0.9252
X0.435Y0.0333
X0.435Y-0.7168
X0.435Y-1.4668
X0.435Y-2.2168
X0.4508Y-2.3937
X0.465Y0.1025
X0.465Y-0.6475
X0.465Y-1.3975
X0.465Y-2.1475
X0.5689Y0.0308
X0.5689Y-0.0558
X0.5689Y-0.7192
X0.5689Y-0.8058
X0.5689Y-1.4692
X0.5689Y-1.5558
X0.5689Y-2.2192
X0.5689Y-2.3058
X0.5965Y-0.0125
X0.5965Y-0.7625
X0.5965Y-1.5125
X0.5965Y-2.2625
X0.6122Y-0.1614
X0.6142Y-2.0984
X0.6201Y0.1417
X0.6223Y-2.8716
X0.6299Y-0.6063
X0.6319Y-2.378
X0.6339Y-0.8839
X0.6417Y-1.6654
X0.6498Y-2.8283
X0.6498Y-2.9149
X0.6988Y0.4843
X0.7323Y-0.9744
X0.8543Y-2.8366
X0.8602Y0.1181
X0.8681Y-1.3504
X0.878Y-0.5984
X0.878Y-2.0925
X0.8858Y-1.7146
X0.9035Y-0.0125
X0.9035Y-0.7625
X0.9035Y-1.5125
X0.9035Y-2.2625
X0.9311Y0.0308
X0.9311Y-0.0558
X0.9311Y-0.7192
X0.9311Y-0.8058
X0.9311Y-1.4692
X0.9311Y-1.5558
X0.9311Y-2.2192
X0.9311Y-2.3058
X0.9508Y-1.6102
X1.0039Y-2.2205
X1.0376Y-2.8283
X1.0376Y-2.9149
X1.0492Y-1.6024
X1.0551Y-1.5118
X1.0571Y-1.3504
X1.063Y-0.6043
X1.0652Y-2.8716
X1.0728Y-0.7067
X1.0748Y-0.9331
X1.0925Y-1.6555
X1.1378Y-2.2992
X1.1555Y-1.4272
X1.1791Y-0.7421
X1.185Y0.2207
X1.185Y-0.5293
X1.185Y-1.2793
X1.185Y-2.0293
X1.215Y0.29
X1.215Y-0.46
X1.215Y-1.21
X1.215Y-1.96
X1.2362Y-2.3504
X1.2598Y-2.1772
X1.2736Y0.1791
X1.2835Y-1.3071
X1.2953Y-1.4567
X1.3031Y-0.0197
X1.3189Y0.2183
X1.3189Y0.1317
X1.3189Y-0.5317
X1.3189Y-0.6183
X1.3189Y-1.2817
X1.3189Y-1.3683
X1.3189Y-2.0317
X1.3189Y-2.1183
X1.3248Y-2.2618
X1.3465Y0.175
X1.3465Y-0.575
X1.3465Y-1.325
X1.3465Y-2.075
X1.3723Y-2.8716
X1.374Y-1.1791
X1.374Y-1.9173
X1.376Y0.3248
X1.3839Y-0.439
X1.3998Y-2.8283
X1.3998Y-2.9149
X1.4272Y0.687
X1.502Y-0.0945
X1.5036Y0.0354
X1.5036Y-0.7146
X1.5036Y-1.4646
X1.5036Y-2.2146
X1.5098Y-0.8504
X1.5512Y-2.6614
X1.5902Y-0.0354
X1.5902Y-0.7854
X1.5902Y-1.5354
X1.5902Y-2.2854
X1.6181Y-1.1969
X1.626Y-1.9311
X1.6299Y-0.6555
X1.6378Y-0.437
X1.6378Y0.3091
X1.6496Y-0.0866
X1.6535Y0.175
X1.6535Y-0.575
X1.6535Y-1.325
X1.6535Y-2.075
X1.6535Y-2.685
X1.6811Y0.2183
X1.6811Y0.1317
X1.6811Y-0.5317
X1.6811Y-0.6183
X1.6811Y-1.2817
X1.6811Y-1.3683
X1.6811Y-2.0317
X1.6811Y-2.1183
X1.685Y-2.4016
X1.6988Y-2.6378
X1.7028Y-2.8386
X1.7205Y-0.5236
X1.7209Y0.826
X1.7272Y0.796
X1.7529Y-2.6486
X1.7913Y-1.5512
X1.8031Y-1.3937
X1.8051Y-0.6772
X1.8091Y-2.5118
X1.813Y-2.1811
X1.8228Y-1.2283
X1.8327Y0.7362
X1.8346Y0.1063
X1.8839Y0.3189
X1.8858Y-2.7894
X1.8976Y-3.3504
X1.8976Y-1.1732
X1.935Y0.502
X1.935Y-0.248
X1.935Y-0.998
X1.935Y-1.748
X1.937Y-0.5315
X1.9646Y-3.1575
X1.965Y0.5713
X1.965Y-0.1787
X1.965Y-0.9287
X1.965Y-1.6787
X2.0Y-0.3858
X2.0689Y0.4996
X2.0689Y0.413
X2.0689Y-0.2504
X2.0689Y-0.337
X2.0689Y-1.0004
X2.0689Y-1.087
X2.0689Y-1.7504
X2.0689Y-1.837
X2.0913Y-3.3106
X2.0965Y0.4563
X2.0965Y-0.2937
X2.0965Y-1.0437
X2.0965Y-1.7937
X2.1063Y-2.878
X2.1102Y0.2913
X2.1201Y0.6161
X2.1201Y-1.1988
X2.1213Y-3.3043
X2.128Y-3.7087
X2.1299Y-1.8976
X2.1988Y0.9469
X2.2126Y-3.5118
X2.2163Y-3.248
X2.2303Y-3.4016
X2.2402Y-3.4921
X2.2463Y-3.1787
X2.311Y-3.6102
X2.3502Y-3.2504
X2.3502Y-3.337
X2.3602Y0.2402
X2.372Y-0.1555
X2.376Y0.6319
X2.376Y-3.4606
X2.3777Y-3.2937
X2.378Y-0.4213
X2.3819Y-0.9094
X2.3819Y-1.2303
X2.3819Y-1.6575
X2.3836Y-3.7299
X2.3858Y-3.1811
X2.3967Y-3.6443
X2.4035Y0.4563
X2.4035Y-0.2937
X2.4035Y-1.0437
X2.4035Y-1.7937
X2.4174Y-3.6913
X2.4311Y0.4996
X2.4311Y0.413
X2.4311Y-0.2504
X2.4311Y-0.337
X2.4311Y-1.0004
X2.4311Y-1.087
X2.4311Y-1.7504
X2.4311Y-1.837
X2.4626Y0.5295
X2.5276Y-2.8268
X2.5276Y-1.9216
X2.5348Y-3.4333
X2.5453Y-1.811
X2.5531Y-1.6772
X2.5689Y0.2205
X2.5709Y-0.3563
X2.5728Y-3.4685
X2.5768Y0.5925
X2.5768Y-1.0787
X2.5827Y0.4173
X2.5886Y-0.9193
X2.5906Y-1.2874
X2.6043Y-0.1594
X2.6214Y-3.5042
X2.626Y-0.5394
X2.6299Y-1.3937
X2.6476Y0.9154
X2.6476Y-3.1457
X2.6614Y-2.7441
X2.6713Y-1.3937
X2.6732Y-1.7953
X2.6831Y-2.0315
X2.6848Y-3.2937
X2.685Y0.4083
X2.685Y-0.3418
X2.685Y-1.0918
X2.685Y-1.8418
X2.685Y-2.5039
X2.7124Y-3.2504
X2.7124Y-3.337
X2.715Y0.4775
X2.715Y-0.2725
X2.715Y-1.0225
X2.715Y-1.7725
X2.7209Y-3.738
X2.7415Y-3.7849
X2.7547Y-3.6993
X2.7638Y-1.9843
X2.7638Y-3.4252
X2.7717Y-1.1339
X2.7842Y-2.6612
X2.8189Y0.4058
X2.8189Y0.3192
X2.8189Y-0.3442
X2.8189Y-0.4308
X2.8189Y-1.0942
X2.8189Y-1.1808
X2.8189Y-1.8442
X2.8189Y-1.9308
X2.8346Y-3.2992
X2.8465Y0.3625
X2.8465Y-0.3875
X2.8465Y-1.1375
X2.8465Y-1.8875
X2.8583Y-1.748
X2.8602Y-1.9724
X2.8661Y-0.2598
X2.8701Y-2.748
X2.874Y0.5138
X2.874Y-3.4646
X2.8937Y-3.7028
X2.8949Y-2.2763
X2.8949Y-2.363
X2.8949Y-2.0165
X2.8949Y-2.1031
X2.8949Y-2.1897
X2.8949Y-2.4496
X2.9011Y-2.3063
X2.9011Y-2.393
X2.9011Y-2.0465
X2.9011Y-2.1331
X2.9011Y-2.2197
X2.9011Y-2.4796
X2.9075Y-2.5472
X2.9252Y0.8642
X2.9449Y-3.8602
X2.9488Y-3.3661
X2.9663Y-3.248
X2.9724Y-1.2953
X2.9941Y-2.6181
X2.9963Y-3.1787
X3.002Y-1.4291
X3.0098Y0.1634
X3.0551Y-2.748
X3.0591Y-2.2224
X3.063Y-2.1122
X3.063Y-2.3327
X3.0633Y-2.3723
X3.1002Y-3.2504
X3.1002Y-3.337
X3.1004Y-2.065
X3.1004Y-2.1122
X3.1004Y-2.3327
X3.1024Y-2.4646
X3.1043Y-2.2224
X3.1277Y-3.2937
X3.1319Y-0.5394
X3.1378Y-2.1122
X3.1378Y-2.3327
X3.1417Y-2.2224
X3.1496Y-3.1437
X3.1535Y0.3625
X3.1535Y-0.3875
X3.1535Y-1.1375
X3.1535Y-1.8875
X3.1687Y-3.9914
X3.1811Y0.4058
X3.1811Y0.3192
X3.1811Y-0.3442
X3.1811Y-0.4308
X3.1811Y-1.0942
X3.1811Y-1.1808
X3.1811Y-1.8442
X3.1811Y-1.9308
X3.2008Y-1.0236
X3.2008Y-1.2874
X3.2047Y0.1457
X3.2047Y-0.2717
X3.2087Y0.4843
X3.2126Y-1.7638
X3.2165Y-1.9685
X3.2189Y-4.002
X3.2498Y-3.961
X3.2559Y-2.8307
X3.2677Y-3.4508
X3.2874Y0.1378
X3.2874Y-1.3031
X3.2894Y-4.4173
X3.2933Y-1.3622
X3.2959Y-4.3305
X3.2992Y-0.5157
X3.3031Y-0.2953
X3.3031Y-3.689
X3.3071Y-1.0512
X3.3071Y-1.9902
X3.3101Y-2.6463
X3.313Y-1.3386
X3.315Y0.4449
X3.3267Y-4.2895
X3.3393Y-2.5173
X3.3465Y-1.7972
X3.3693Y-2.511
X3.374Y-0.0197
X3.374Y-1.6437
X3.377Y-4.3001
X3.378Y-0.8031
X3.3819Y-1.6083
X3.4016Y-3.1772
X3.4094Y-1.563
X3.4259Y-2.5173
X3.4348Y-3.2937
X3.435Y0.127
X3.435Y-0.623
X3.435Y-1.373
X3.435Y-2.123
X3.4409Y0.6791
X3.4559Y-2.511
X3.4624Y-3.2504
X3.4624Y-3.337
X3.465Y0.1963
X3.465Y-0.5537
X3.465Y-1.3037
X3.465Y-2.0537
X3.5Y-2.2776
X3.5126Y-2.5173
X3.5197Y-1.3976
X3.5236Y0.0925
X3.5374Y-3.4587
X3.5394Y-4.2008
X3.5426Y-2.511
X3.5689Y0.1246
X3.5689Y0.038
X3.5689Y-0.6254
X3.5689Y-0.712
X3.5689Y-1.3754
X3.5689Y-1.462
X3.5689Y-2.1254
X3.5689Y-2.212
X3.5965Y0.0813
X3.5965Y-0.6687
X3.5965Y-1.4187
X3.5965Y-2.1687
X3.5992Y-2.5173
X3.6102Y-3.1673
X3.6102Y-3.3031
X3.6142Y0.2205
X3.6142Y-3.437
X3.6201Y-0.5236
X3.622Y-1.2756
X3.622Y-2.0276
X3.6292Y-2.511
X3.6447Y-2.3691
X3.6693Y-2.9094
X3.6713Y-4.6043
X3.6858Y-2.5173
X3.6909Y-0.1378
X3.7015Y-4.3303
X3.7096Y-2.4134
X3.7158Y-2.511
X3.7163Y-3.3418
X3.7185Y-2.813
X3.7244Y-3.4646
X3.7315Y-4.324
X3.7441Y-1.565
X3.7461Y-2.5689
X3.7461Y-1.6949
X3.7463Y-3.2725
X3.7486Y0.7959
X3.7717Y-2.3425
X3.7717Y-2.4173
X3.7717Y-2.5433
X3.7717Y-2.6181
X3.7854Y-3.8445
X3.8071Y-4.435
X3.8502Y-3.3442
X3.8502Y-3.4308
X3.8502Y-4.5157
X3.8502Y-4.6024
X3.8543Y-0.8406
X3.876Y-0.5177
X3.8777Y-3.3875
X3.8777Y-4.5591
X3.8937Y-3.8406
X3.8976Y-4.061
X3.9016Y-3.248
X3.9035Y0.0813
X3.9035Y-0.6687
X3.9035Y-1.4187
X3.9035Y-2.1687
X3.9141Y-3.7035
X3.9311Y0.1246
X3.9311Y0.038
X3.9311Y-0.6254
X3.9311Y-0.712
X3.9311Y-1.3754
X3.9311Y-1.462
X3.9311Y-2.1254
X3.9311Y-2.212
X3.9429Y0.6437
X3.9441Y-3.6343
X3.9449Y-1.5531
X3.9528Y-0.1339
X3.9567Y-1.2953
X3.9581Y0.7474
X3.9606Y0.2008
X3.9646Y-0.6516
X3.9921Y-2.3799
X3.9921Y-2.5807
X4.0007Y-3.7035
X4.0197Y-2.9035
X4.0236Y-4.4252
X4.0307Y-3.6343
X4.0315Y-3.8524
X4.0374Y-1.5886
X4.0394Y-2.0906
X4.0472Y-0.1417
X4.0531Y-2.374
X4.0551Y-0.8465
X4.0591Y0.1772
X4.0591Y-1.6142
X4.0591Y-0.5472
X4.0807Y-2.3819
X4.0866Y-2.5354
X4.0874Y-3.7035
X4.0886Y-1.2323
X4.0996Y0.8063
X4.1059Y0.7763
X4.1122Y-1.2579
X4.1161Y-2.7618
X4.1174Y-3.6343
X4.1319Y-1.3287
X4.1457Y-2.7756
X4.1496Y-3.8425
X4.1673Y-3.2598
X4.174Y-2.7887
X4.174Y-3.7035
X4.1811Y0.7087
X4.1848Y-3.3875
X4.1848Y-4.5591
X4.185Y-0.248
X4.185Y-0.998
X4.185Y-1.748
X4.185Y-2.498
X4.185Y-1.9843
X4.1969Y0.2402
X4.2006Y-2.7991
X4.2008Y-1.2026
X4.204Y-3.6343
X4.2087Y-0.5118
X4.2124Y-3.3442
X4.2124Y-3.4308
X4.2124Y-4.5157
X4.2124Y-4.6024
X4.215Y-0.1787
X4.215Y-0.9287
X4.215Y-1.6787
X4.215Y-2.4287
X4.2205Y-3.5079
X4.2264Y-1.2243
X4.2382Y-3.9016
X4.2559Y-1.2461
X4.2606Y-3.7035
X4.2697Y-1.7874
X4.2756Y0.4429
X4.2906Y-3.6343
X4.3Y-4.3303
X4.3189Y-0.2504
X4.3189Y-0.337
X4.3189Y-1.0004
X4.3189Y-1.087
X4.3189Y-1.7504
X4.3189Y-1.837
X4.3189Y-2.5004
X4.3189Y-2.587
X4.33Y-4.324
X4.3465Y-0.2937
X4.3465Y-1.0437
X4.3465Y-1.7937
X4.3465Y-2.5437
X4.3622Y-1.6358
X4.3622Y-0.9016
X4.3661Y-2.4016
X4.3681Y-1.2894
X4.3701Y-0.1634
X4.3878Y-3.2972
X4.3898Y-1.1339
X4.437Y0.8366
X4.4663Y-3.623
X4.4961Y-3.8228
X4.4963Y-3.5537
X4.5197Y-0.561
X4.5512Y-3.6102
X4.5709Y-2.9685
X4.5906Y-4.1811
X4.5909Y0.5591
X4.6002Y-3.6254
X4.6002Y-3.712
X4.6103Y0.5285
X4.6181Y-0.1476
X4.6201Y-2.3976
X4.624Y-0.9016
X4.6277Y-3.6687
X4.6344Y0.5048
X4.6398Y0.8268
X4.6476Y-1.3031
X4.6535Y-0.2937
X4.6535Y-1.0437
X4.6535Y-1.7937
X4.6535Y-2.5437
X4.6535Y-3.5197
X4.6594Y-1.6575
X4.6772Y-1.9567
X4.6811Y-0.2504
X4.6811Y-0.337
X4.6811Y-1.0004
X4.6811Y-1.087
X4.6811Y-1.7504
X4.6811Y-1.837
X4.6811Y-2.5004
X4.6811Y-2.587
X4.6819Y0.3036
X4.6861Y0.6984
X4.7047Y-0.4213
X4.7067Y-1.128
X4.7119Y0.3098
X4.7244Y-2.5197
X4.7441Y-3.1929
X4.7533Y0.4534
X4.7638Y-3.3228
X4.7657Y0.7004
X4.7709Y0.4789
X4.7756Y-0.2126
X4.7795Y0.3268
X4.7795Y-2.4724
X4.7913Y0.533
X4.7913Y-0.1457
X4.7953Y-3.0984
X4.8012Y-1.0472
X4.8012Y-1.6339
X4.8031Y-1.7894
X4.8051Y0.8622
X4.8189Y0.2067
X4.8228Y-2.5807
X4.8297Y-2.375
X4.8439Y0.4715
X4.8449Y0.2917
X4.8452Y-0.8858
X4.8504Y-0.439
X4.86Y-1.6693
X4.8622Y0.4935
X4.867Y-0.6241
X4.8701Y-3.8012
X4.873Y0.297
X4.8799Y-0.5906
X4.8889Y-0.6426
X4.9043Y0.5504
X4.9075Y-2.5846
X4.908Y-0.6639
X4.9094Y-0.5531
X4.9114Y-0.3917
X4.9196Y-0.6901
X4.9204Y0.5832
X4.9232Y-2.7362
X4.9272Y0.4114
X4.9272Y-2.4547
X4.9282Y0.6186
X4.9291Y-3.5453
X4.9348Y-3.6687
X4.9429Y-0.4843
X4.9429Y-0.7067
X4.9528Y-2.741
X4.9606Y-0.939
X4.9618Y-0.3761
X4.9624Y-3.6254
X4.9624Y-3.712
X4.9685Y0.1811
X4.9685Y-0.4409
X4.9771Y-2.1839
X4.9783Y0.9311
X4.9811Y0.3634
X4.9814Y-2.7452
X4.9862Y-0.2618
X4.9902Y-0.1516
X4.9902Y-0.372
X5.0039Y-1.1811
X5.0071Y-2.1776
X5.0097Y-1.5579
X5.0098Y-1.498
X5.0098Y-2.75
X5.0098Y-1.5276
X5.0111Y0.3696
X5.0118Y-2.9311
X5.013Y-1.1539
X5.0217Y-3.8622
X5.0234Y-1.2966
X5.0236Y-0.2618
X5.0276Y-0.1516
X5.0276Y-0.372
X5.0315Y-2.5039
X5.0463Y-4.1089
X5.0492Y-1.752
X5.0534Y-1.2903
X5.0551Y-2.5276
X5.065Y-0.1516
X5.065Y-0.372
X5.0689Y-0.2618
X5.0728Y-2.2008
X5.0748Y-0.5551
X5.0787Y-2.5039
X5.0857Y-0.751
X5.087Y-0.7215
X5.0906Y-0.8169
X5.0945Y-0.3758
X5.0958Y-4.1224
X5.1004Y-1.1988
X5.1004Y-1.313
X5.1024Y-2.5276
X5.1046Y-4.173
X5.1165Y-0.7203
X5.1166Y-0.6897
X5.1204Y-0.9706
X5.126Y-2.5039
X5.1318Y-1.4352
X5.1378Y-3.5236
X5.1436Y-0.9874
X5.1457Y-0.6881
X5.1496Y-2.5276
X5.1496Y-0.6575
X5.152Y-1.016
X5.1594Y-1.0512
X5.1732Y-2.5039
X5.1791Y-0.2402
X5.1831Y-0.5079
X5.185Y-1.3366
X5.187Y-3.4508
X5.189Y-1.0138
X5.197Y-1.3106
X5.2126Y-1.1831
X5.2126Y-2.7126
X5.2126Y-3.311
X5.213Y-2.9299
X5.213Y-3.1031
X5.213Y-3.0165
X5.213Y-3.1897
X5.213Y-2.7567
X5.213Y-2.8433
X5.2146Y-0.9902
X5.2185Y-0.9528
X5.2193Y-2.9599
X5.2193Y-3.1331
X5.2193Y-3.0465
X5.2193Y-3.2197
X5.2193Y-2.7867
X5.2193Y-2.8733
X5.2205Y-0.2874
X5.2205Y-0.6417
X5.2278Y-3.667
X5.2441Y0.689
X5.2477Y-0.1874
X5.2579Y-0.5079
X5.2609Y-0.8924
X5.2638Y0.3091
X5.2657Y0.8504
X5.2693Y-0.9197
X5.2732Y0.4826
X5.2756Y-2.5551
X5.2757Y0.452
X5.2806Y0.4246
X5.2835Y-0.9744
X5.2835Y-1.5197
X5.2835Y-1.9803
X5.2913Y0.2638
X5.2935Y-0.8603
X5.2953Y0.2185
X5.2953Y0.1693
X5.2957Y-0.1437
X5.2972Y0.3425
X5.3005Y-0.888
X5.314Y-3.865
X5.3169Y0.124
X5.3216Y0.2955
X5.3228Y-3.9156
X5.3228Y0.0689
X5.3228Y-0.7854
X5.3268Y0.378
X5.3269Y-0.8274
X5.3279Y-1.1894
X5.3312Y-0.8557
X5.3386Y-2.7953
X5.3391Y-3.6558
X5.3406Y0.0315
X5.3425Y-1.2375
X5.3425Y-2.2441
X5.3472Y-0.2004
X5.3499Y-1.2077
X5.3521Y0.3011
X5.3524Y-1.4409
X5.3612Y0.0978
X5.3723Y-3.929
X5.374Y-0.002
X5.3772Y-0.1311
X5.3835Y-1.1532
X5.3863Y-1.2258
X5.3876Y0.1242
X5.3898Y0.2303
X5.3898Y0.1909
X5.3935Y-1.1264
X5.3957Y0.7835
X5.3984Y-0.7501
X5.4047Y0.325
X5.4075Y-0.0335
X5.4114Y0.2697
X5.4114Y-1.5689
X5.4138Y-0.5007
X5.4138Y-0.3275
X5.4138Y-0.4141
X5.414Y0.1507
X5.4158Y-1.1598
X5.4201Y-0.5307
X5.4201Y-0.3575
X5.4201Y-0.4441
X5.422Y-2.6177
X5.4282Y-1.3017
X5.4284Y-0.7439
X5.4294Y-1.6844
X5.4356Y-1.7144
X5.4363Y0.017
X5.4402Y-1.1752
X5.4409Y0.187
X5.4409Y-0.061
X5.4409Y-3.752
X5.4438Y-1.1265
X5.4489Y-1.2763
X5.452Y-2.6114
X5.4528Y-3.2126
X5.4547Y-1.0479
X5.4567Y-3.4685
X5.4646Y0.6299
X5.4683Y0.049
X5.472Y0.5219
X5.4744Y0.1654
X5.4745Y-1.1357
X5.4764Y-0.0846
X5.4768Y-3.3118
X5.4774Y-1.2735
X5.4833Y-1.3139
X5.484Y-1.0072
X5.485Y-0.7501
X5.4882Y-0.8484
X5.4902Y-0.2815
X5.4948Y0.0755
X5.502Y0.1398
X5.5026Y0.2715
X5.503Y-1.3962
X5.5063Y-1.2569
X5.5086Y-2.6177
X5.5119Y-1.0368
X5.5126Y-1.0082
X5.5146Y-1.1064
X5.5148Y-1.3214
X5.515Y-0.7439
X5.5165Y0.4639
X5.5171Y-0.0581
X5.5197Y-2.0591
X5.5219Y-0.9695
X5.5253Y-1.4176
X5.5269Y-0.9286
X5.5276Y-0.1024
X5.5315Y-1.4456
X5.5315Y0.2681
X5.5335Y0.1122
X5.5341Y-0.9009
X5.535Y-1.2495
X5.5386Y-2.6114
X5.5405Y-1.037
X5.5413Y-2.7677
X5.5433Y-1.5709
X5.5435Y-0.0317
X5.5441Y-0.9514
X5.5461Y-3.3418
X5.5472Y-0.4665
X5.5472Y-1.8484
X5.5491Y-1.0856
X5.5496Y-1.3861
X5.5542Y-1.3175
X5.5591Y0.28
X5.5601Y-1.4452
X5.5617Y-0.9887
X5.563Y0.0787
X5.564Y-0.2254
X5.564Y-0.3337
X5.564Y-0.3711
X5.564Y-0.4085
X5.5654Y-1.241
X5.5699Y-0.0052
X5.5701Y-1.366
X5.5709Y-0.1319
X5.5716Y-0.7501
X5.5777Y-1.0845
X5.5866Y0.0492
X5.5866Y-0.878
X5.5925Y-1.8583
X5.5952Y-2.6177
X5.5953Y-1.0409
X5.6014Y-1.3253
X5.6016Y-0.7439
X5.6025Y-1.2428
X5.6028Y-1.3657
X5.6059Y-1.0795
X5.6083Y0.0217
X5.6142Y-1.1198
X5.6181Y-3.0157
X5.622Y-3.5843
X5.622Y-0.1348
X5.624Y-1.346
X5.6252Y-2.6114
X5.6309Y-1.2393
X5.6319Y0.5177
X5.6339Y-0.9055
X5.6358Y0.1201
X5.6358Y-2.7244
X5.6412Y-1.6844
X5.6422Y-1.1132
X5.6437Y-1.5728
X5.6475Y-1.7144
X5.6547Y-1.139
X5.6582Y-0.7501
X5.6594Y-0.0531
X5.6594Y-0.1339
X5.6617Y-0.9176
X5.6672Y-1.245
X5.6715Y-3.5977
X5.6732Y-0.6201
X5.6742Y-0.3297
X5.6742Y-0.4124
X5.6803Y-3.6483
X5.6819Y-2.6177
X5.6882Y-0.7439
X5.6909Y-2.185
X5.6949Y-0.0531
X5.6949Y-0.1339
X5.6955Y-1.241
X5.6959Y-1.1364
X5.7119Y-2.6114
X5.7151Y-0.7191
X5.7224Y-1.2508
X5.7224Y-0.8484
X5.7264Y-1.5177
X5.7283Y-2.5039
X5.7323Y-0.9508
X5.7323Y-1.4783
X5.7402Y-2.4646
X5.7461Y-0.5925
X5.7527Y0.1272
X5.7539Y-2.1909
X5.7598Y-0.9173
X5.7638Y-1.498
X5.7638Y-2.25
X5.7678Y-2.0703
X5.7685Y-2.6177
X5.7765Y-1.4391
X5.7776Y-1.4075
X5.7827Y0.1334
X5.7835Y-0.8957
X5.7844Y-0.188
X5.7844Y-0.2628
X5.7844Y-0.3337
X5.7844Y-0.4085
X5.7864Y-0.1348
X5.7985Y-2.6114
X5.7992Y-0.0472
X5.7992Y0.3169
X5.801Y-2.0558
X5.8064Y-1.5046
X5.8071Y-0.872
X5.8117Y-1.4068
X5.813Y0.4941
X5.8248Y-0.1348
X5.8307Y-0.6713
X5.8338Y-1.8703
X5.8343Y0.1043
X5.8361Y-1.3278
X5.8425Y-0.0472
X5.8425Y-2.2146
X5.8472Y-0.5697
X5.8511Y-0.2437
X5.8543Y-1.0827
X5.8551Y-2.6177
X5.8563Y-1.1752
X5.8575Y-2.0515
X5.8583Y-0.4075
X5.8583Y-1.2953
X5.8661Y-1.0354
X5.8681Y-0.9508
X5.872Y-1.7972
X5.874Y-1.4173
X5.8772Y-0.5634
X5.8811Y-0.2374
X5.8823Y0.148
X5.8851Y-2.6114
X5.8858Y-2.7382
X5.8897Y-3.3403
X5.8898Y-0.0472
X5.8976Y-1.5276
X5.8985Y-3.3909
X5.9016Y-0.7028
X5.9032Y-2.0451
X5.9075Y-1.4429
X5.9104Y-0.1358
X5.9126Y-1.8703
X5.9134Y-0.4764
X5.9173Y-1.5039
X5.9338Y0.1311
X5.935Y-0.9803
X5.937Y-0.0472
X5.9378Y-0.2437
X5.9401Y-2.0042
X5.9409Y-0.7047
X5.9469Y-1.3366
X5.9469Y-1.4803
X5.9481Y-3.4044
X5.9547Y-1.2874
X5.9606Y-1.0453
X5.9606Y-1.6142
X5.9626Y-0.4075
X5.9638Y0.2004
X5.9678Y-0.2374
X5.9685Y-1.1516
X5.9705Y-1.7441
X5.9783Y-2.4685
X5.9803Y-2.2067
X5.9834Y-2.0403
X5.9843Y-0.0472
X5.9913Y-1.8703
X5.9921Y-0.565
X5.9921Y-0.6024
X5.9921Y-0.6398
X5.9951Y-0.1348
X5.998Y-0.3976
X6.0Y-1.0433
X6.0118Y-1.5945
X6.0149Y-2.0042
X6.0157Y-2.689
X6.0217Y-0.372
X6.0244Y-0.2437
X6.0274Y-1.2927
X6.0276Y-1.6535
X6.0315Y0.122
X6.0335Y-0.0472
X6.0354Y-0.4646
X6.0412Y-1.5691
X6.0492Y-3.2421
X6.0531Y-2.4685
X6.0544Y-0.2374
X6.0571Y-1.5433
X6.0574Y-1.2864
X6.0614Y-1.5083
X6.065Y-0.8661
X6.0661Y-2.0203
X6.0669Y-0.752
X6.0701Y-1.8703
X6.0736Y-1.4653
X6.0768Y-2.1969
X6.0807Y-0.0551
X6.1024Y-0.561
X6.1024Y-0.5984
X6.1024Y-0.6437
X6.1102Y-0.0846
X6.111Y-0.2437
X6.1195Y-2.001
X6.122Y-3.0197
X6.128Y-0.122
X6.141Y-0.2374
X6.1417Y-1.7677
X6.1488Y-1.8703
X6.1508Y0.4008
X6.1535Y-0.8228
X6.157Y0.3708
X6.1724Y-2.0042
X6.1732Y-1.7618
X6.1752Y0.5335
X6.1815Y-0.363
X6.1878Y-0.393
X6.1897Y-2.5704
X6.1929Y-3.2323
X6.196Y-1.8703
X6.1976Y-0.2437
X6.1976Y-1.239
X6.1978Y-3.0597
X6.1988Y-2.7283
X6.2008Y-0.9035
X6.2015Y-1.613
X6.2096Y-1.0463
X6.2126Y-0.565
X6.2126Y-0.6024
X6.2126Y-0.6398
X6.2151Y-1.7663
X6.2197Y-2.0303
X6.2197Y-2.5012
X6.2244Y-0.0472
X6.2276Y-0.2374
X6.2276Y-1.2327
X6.2315Y-1.6067
X6.2473Y-3.0731
X6.2512Y-2.0042
X6.252Y0.1594
X6.252Y0.0846
X6.252Y-0.4921
X6.2561Y-3.1237
X6.2638Y-1.3346
X6.2677Y-1.1378
X6.2748Y-1.8703
X6.2776Y-0.815
X6.2803Y-2.5704
X6.2842Y-0.2437
X6.2951Y-1.2913
X6.2951Y-1.626
X6.3023Y-2.0436
X6.3031Y-2.3071
X6.3103Y-2.5012
X6.311Y0.1358
X6.3142Y-0.2374
X6.315Y-1.8643
X6.3187Y-1.3622
X6.3187Y-1.6969
X6.3228Y-1.4961
X6.343Y-2.0409
X6.3437Y-0.5311
X6.3451Y-1.2913
X6.3451Y-1.626
X6.3622Y-0.0787
X6.3684Y-1.8072
X6.3687Y-1.3622
X6.3687Y-1.6969
X6.3708Y-0.2437
X6.3737Y-0.5248
X6.374Y-0.8602
X6.378Y-0.75
X6.378Y-0.9705
X6.3797Y-1.8334
X6.385Y-2.0514
X6.3917Y-1.8602
X6.3951Y-1.2913
X6.3951Y-1.626
X6.3976Y-1.5039
X6.3981Y-1.0756
X6.4008Y-0.2374
X6.4016Y-0.3898
X6.4043Y-1.1056
X6.4099Y-0.6504
X6.4154Y-0.75
X6.4161Y-0.6804
X6.4165Y-2.0593
X6.4187Y-1.3622
X6.4187Y-1.6969
X6.4299Y-0.5311
X6.4425Y-1.8829
X6.4449Y-1.5079
X6.4451Y-1.2913
X6.4451Y-1.626
X6.4528Y-0.75
X6.4528Y-0.9705
X6.4559Y-2.0672
X6.4567Y-0.3465
X6.4567Y-0.8602
X6.4599Y-0.5248
X6.4655Y-2.8157
X6.4687Y-1.3622
X6.4687Y-1.6969
X6.4743Y-2.8663
X6.4764Y-2.128
X6.4779Y0.0648
X6.4783Y-2.3307
X6.4902Y-1.5768
X6.5Y-1.6398
X6.5079Y-1.7618
X6.5079Y-2.7559
X6.5118Y-1.8583
X6.5238Y-2.8797
X6.5253Y0.0451
X6.5408Y-0.2919
X6.5453Y-1.0827
X6.5502Y-1.9154
X6.5502Y-1.6447
X6.563Y0.1654
X6.5632Y0.0798
X6.5669Y-0.4134
X6.5748Y-0.8504
X6.5787Y-0.2573
X6.5846Y-0.3642
X6.5876Y-1.6949
X6.5876Y-1.4242
X6.6031Y-2.4673
X6.6063Y-0.6555
X6.6122Y-0.6969
X6.625Y-1.9154
X6.625Y-1.6447
X6.626Y-1.5295
X6.6261Y-0.2769
X6.6331Y-2.4611
X6.6596Y-0.7165
X6.6751Y-1.0536
X6.6975Y-0.6819
X6.7008Y-0.6043
X6.7028Y-2.3307
X6.7067Y-2.5157
X6.7126Y-1.185
X6.713Y-1.019
X6.7465Y-1.4586
X6.7604Y-1.0386
X6.794Y-1.4782
X6.7992Y-2.2677
X6.7992Y-2.5551
X6.8094Y-1.8153
X6.8228Y-1.374
X6.8318Y-1.4435
X6.8473Y-1.7806
X6.8947Y-1.8002
T2
X-0.31Y0.17
X-0.31Y0.03
X-0.31Y-0.58
X-0.31Y-0.72
X-0.31Y-1.33
X-0.31Y-1.47
X-0.31Y-2.08
X-0.31Y-2.22
X-0.275Y0.27
X-0.275Y-0.48
X-0.275Y-1.23
X-0.275Y-1.98
X-0.255Y0.03
X-0.255Y-0.72
X-0.255Y-1.47
X-0.255Y-2.22
X-0.22Y0.27
X-0.22Y-0.48
X-0.22Y-1.23
X-0.22Y-1.98
X-0.189Y0.2362
X-0.189Y-0.5138
X-0.189Y-1.2638
X-0.189Y-2.0138
X0.189Y0.2362
X0.189Y-0.5138
X0.189Y-1.2638
X0.189Y-2.0138
X0.22Y0.27
X0.22Y-0.48
X0.22Y-1.23
X0.22Y-1.98
X0.255Y0.03
X0.255Y-0.72
X0.255Y-1.47
X0.255Y-2.22
X0.275Y0.27
X0.275Y-0.48
X0.275Y-1.23
X0.275Y-1.98
X0.31Y0.17
X0.31Y0.03
X0.31Y-0.58
X0.31Y-0.72
X0.31Y-1.33
X0.31Y-1.47
X0.31Y-2.08
X0.31Y-2.22
X0.44Y0.3575
X0.44Y0.2175
X0.44Y-0.3925
X0.44Y-0.5325
X0.44Y-1.1425
X0.44Y-1.2825
X0.44Y-1.8925
X0.44Y-2.0325
X0.475Y0.4575
X0.475Y-0.2925
X0.475Y-1.0425
X0.475Y-1.7925
X0.495Y0.2175
X0.495Y-0.5325
X0.495Y-1.2825
X0.495Y-2.0325
X0.53Y0.4575
X0.53Y-0.2925
X0.53Y-1.0425
X0.53Y-1.7925
X0.561Y0.4237
X0.561Y-0.3263
X0.561Y-1.0763
X0.561Y-1.8263
X0.939Y0.4237
X0.939Y-0.3263
X0.939Y-1.0763
X0.939Y-1.8263
X0.97Y0.4575
X0.97Y-0.2925
X0.97Y-1.0425
X0.97Y-1.7925
X1.005Y0.2175
X1.005Y-0.5325
X1.005Y-1.2825
X1.005Y-2.0325
X1.025Y0.4575
X1.025Y-0.2925
X1.025Y-1.0425
X1.025Y-1.7925
X1.06Y0.3575
X1.06Y0.2175
X1.06Y-0.3925
X1.06Y-0.5325
X1.06Y-1.1425
X1.06Y-1.2825
X1.06Y-1.8925
X1.06Y-2.0325
X1.19Y0.545
X1.19Y0.405
X1.19Y-0.205
X1.19Y-0.345
X1.19Y-0.955
X1.19Y-1.095
X1.19Y-1.705
X1.19Y-1.845
X1.225Y0.645
X1.225Y-0.105
X1.225Y-0.855
X1.225Y-1.605
X1.245Y0.405
X1.245Y-0.345
X1.245Y-1.095
X1.245Y-1.845
X1.28Y0.645
X1.28Y-0.105
X1.28Y-0.855
X1.28Y-1.605
X1.311Y0.6112
X1.311Y-0.1388
X1.311Y-0.8888
X1.311Y-1.6388
X1.689Y0.6112
X1.689Y-0.1388
X1.689Y-0.8888
X1.689Y-1.6388
X1.72Y0.645
X1.72Y-0.105
X1.72Y-0.855
X1.72Y-1.605
X1.755Y0.405
X1.755Y-0.345
X1.755Y-1.095
X1.755Y-1.845
X1.775Y0.645
X1.775Y-0.105
X1.775Y-0.855
X1.775Y-1.605
X1.7825Y-2.6388
X1.81Y0.545
X1.81Y0.405
X1.81Y-0.205
X1.81Y-0.345
X1.81Y-0.955
X1.81Y-1.095
X1.81Y-1.705
X1.81Y-1.845
X1.8268Y-0.0236
X1.8583Y-1.5551
X1.8583Y-0.815
X1.8583Y-1.9567
X1.9252Y-2.748
X1.94Y0.8263
X1.94Y0.6863
X1.94Y0.0763
X1.94Y-0.0637
X1.94Y-0.6737
X1.94Y-0.8137
X1.94Y-1.4237
X1.94Y-1.5637
X1.975Y0.9263
X1.975Y0.1763
X1.975Y-0.5737
X1.975Y-1.3237
X1.995Y0.6863
X1.995Y-0.0637
X1.995Y-0.8137
X1.995Y-1.5637
X2.03Y0.9263
X2.03Y0.1763
X2.03Y-0.5737
X2.03Y-1.3237
X2.061Y0.8925
X2.061Y0.1425
X2.061Y-0.6075
X2.061Y-1.3575
X2.2213Y-2.9237
X2.2213Y-3.0637
X2.2563Y-2.8237
X2.2763Y-3.0637
X2.3113Y-2.8237
X2.3423Y-2.8575
X2.439Y0.8925
X2.439Y0.1425
X2.439Y-0.6075
X2.439Y-1.3575
X2.47Y0.9263
X2.47Y0.1763
X2.47Y-0.5737
X2.47Y-1.3237
X2.505Y0.6863
X2.505Y-0.0637
X2.505Y-0.8137
X2.505Y-1.5637
X2.525Y0.9263
X2.525Y0.1763
X2.525Y-0.5737
X2.525Y-1.3237
X2.56Y0.8263
X2.56Y0.6863
X2.56Y0.0763
X2.56Y-0.0637
X2.56Y-0.6737
X2.56Y-0.8137
X2.56Y-1.4237
X2.56Y-1.5637
X2.69Y0.7325
X2.69Y0.5925
X2.69Y-0.0175
X2.69Y-0.1575
X2.69Y-0.7675
X2.69Y-0.9075
X2.69Y-1.5175
X2.69Y-1.6575
X2.7202Y-2.8575
X2.725Y0.8325
X2.725Y0.0825
X2.725Y-0.6675
X2.725Y-1.4175
X2.745Y0.5925
X2.745Y-0.1575
X2.745Y-0.9075
X2.745Y-1.6575
X2.7513Y-2.8237
X2.78Y0.8325
X2.78Y0.0825
X2.78Y-0.6675
X2.78Y-1.4175
X2.7863Y-3.0637
X2.8063Y-2.8237
X2.811Y0.7987
X2.811Y0.0487
X2.811Y-0.7013
X2.811Y-1.4513
X2.8413Y-2.9237
X2.8413Y-3.0637
X2.9055Y-3.3858
X2.9528Y-2.7835
X2.9713Y-2.9237
X2.9713Y-3.0637
X3.0063Y-2.8237
X3.0263Y-3.0637
X3.0613Y-2.8237
X3.0923Y-2.8575
X3.189Y0.7987
X3.189Y0.0487
X3.189Y-0.7013
X3.189Y-1.4513
X3.22Y0.8325
X3.22Y0.0825
X3.22Y-0.6675
X3.22Y-1.4175
X3.255Y0.5925
X3.255Y-0.1575
X3.255Y-0.9075
X3.255Y-1.6575
X3.275Y0.8325
X3.275Y0.0825
X3.275Y-0.6675
X3.275Y-1.4175
X3.31Y0.7325
X3.31Y0.5925
X3.31Y-0.0175
X3.31Y-0.1575
X3.31Y-0.7675
X3.31Y-0.9075
X3.31Y-1.5175
X3.31Y-1.6575
X3.44Y0.4513
X3.44Y0.3113
X3.44Y-0.2987
X3.44Y-0.4387
X3.44Y-1.0487
X3.44Y-1.1887
X3.44Y-1.7987
X3.44Y-1.9387
X3.4702Y-2.8575
X3.475Y0.5513
X3.475Y-0.1987
X3.475Y-0.9487
X3.475Y-1.6987
X3.495Y0.3113
X3.495Y-0.4387
X3.495Y-1.1887
X3.495Y-1.9387
X3.5013Y-2.8237
X3.5217Y0.8012
X3.53Y0.5513
X3.53Y-0.1987
X3.53Y-0.9487
X3.53Y-1.6987
X3.5363Y-3.0637
X3.5563Y-2.8237
X3.561Y0.5175
X3.561Y-0.2325
X3.561Y-0.9825
X3.561Y-1.7325
X3.5913Y-2.9237
X3.5913Y-3.0637
X3.7213Y-3.0175
X3.7213Y-3.1575
X3.7563Y-2.9175
X3.7763Y-3.1575
X3.8113Y-2.9175
X3.8423Y-2.9513
X3.939Y0.5175
X3.939Y-0.2325
X3.939Y-0.9825
X3.939Y-1.7325
X3.97Y0.5513
X3.97Y-0.1987
X3.97Y-0.9487
X3.97Y-1.6987
X4.005Y0.3113
X4.005Y-0.4387
X4.005Y-1.1887
X4.005Y-1.9387
X4.025Y0.5513
X4.025Y-0.1987
X4.025Y-0.9487
X4.025Y-1.6987
X4.06Y0.4513
X4.06Y0.3113
X4.06Y-0.2987
X4.06Y-0.4387
X4.06Y-1.0487
X4.06Y-1.1887
X4.06Y-1.7987
X4.06Y-1.9387
X4.1026Y-0.4429
X4.19Y0.0763
X4.19Y-0.0637
X4.19Y-0.6737
X4.19Y-0.8137
X4.19Y-1.4237
X4.19Y-1.5637
X4.19Y-2.1737
X4.19Y-2.3137
X4.2202Y-2.9513
X4.225Y0.1763
X4.225Y-0.5737
X4.225Y-1.3237
X4.225Y-2.0737
X4.245Y-0.0637
X4.245Y-0.8137
X4.245Y-1.5637
X4.245Y-2.3137
X4.2513Y-2.9175
X4.28Y0.1763
X4.28Y-0.5737
X4.28Y-1.3237
X4.28Y-2.0737
X4.2863Y-3.1575
X4.3063Y-2.9175
X4.311Y0.1425
X4.311Y-0.6075
X4.311Y-1.3575
X4.311Y-2.1075
X4.3413Y-3.0175
X4.3413Y-3.1575
X4.4713Y-3.2987
X4.4713Y-3.4387
X4.5063Y-3.1987
X4.5263Y-3.4387
X4.5613Y-3.1987
X4.5923Y-3.2325
X4.689Y0.1425
X4.689Y-0.6075
X4.689Y-1.3575
X4.689Y-2.1075
X4.72Y0.1763
X4.72Y-0.5737
X4.72Y-1.3237
X4.72Y-2.0737
X4.755Y-0.0637
X4.755Y-0.8137
X4.755Y-1.5637
X4.755Y-2.3137
X4.775Y0.1763
X4.775Y-0.5737
X4.775Y-1.3237
X4.775Y-2.0737
X4.81Y0.0763
X4.81Y-0.0637
X4.81Y-0.6737
X4.81Y-0.8137
X4.81Y-1.4237
X4.81Y-1.5637
X4.81Y-2.1737
X4.81Y-2.3137
X4.8858Y-3.0413
X4.9702Y-3.2325
X5.0013Y-3.1987
X5.0363Y-3.4387
X5.0563Y-3.1987
X5.0913Y-3.2987
X5.0913Y-3.4387
X5.2446Y-1.2446
X5.3346Y-3.3346
X5.4814Y-1.4932
X5.5551Y-1.9409
X5.5955Y-1.4931
X5.7441Y-0.563
X5.8307Y-2.3917
X5.8352Y-1.2407
X5.8366Y-3.1496
X6.0024Y-1.7167
X6.0984Y-2.7224
X6.0984Y-2.8228
X6.3622Y-1.5
X6.4331Y-1.8268
X6.5787Y-2.2835
T3
X-0.3757Y0.5625
X-0.3757Y-2.8125
X-0.3481Y0.6293
X-0.3481Y0.4957
X-0.3481Y-2.7457
X-0.3481Y-2.8793
X-0.2813Y0.657
X-0.2813Y0.468
X-0.2813Y-2.718
X-0.2813Y-2.907
X-0.2144Y0.6293
X-0.2144Y0.4957
X-0.2144Y-2.7457
X-0.2144Y-2.8793
X-0.1868Y0.5625
X-0.1868Y-2.8125
X1.593Y1.0313
X1.6207Y1.0981
X1.6207Y0.9644
X1.6875Y1.1257
X1.6875Y0.9368
X1.7543Y1.0981
X1.7543Y0.9644
X1.782Y1.0313
X1.8743Y-3.5625
X1.9019Y-3.4957
X1.9019Y-3.6293
X1.9687Y-3.468
X1.9687Y-3.657
X2.0356Y-3.4957
X2.0356Y-3.6293
X2.0632Y-3.5625
X3.3743Y-4.5
X3.4019Y-4.4332
X3.4019Y-4.5668
X3.4687Y-4.4055
X3.4687Y-4.5945
X3.5356Y-4.4332
X3.5356Y-4.5668
X3.5632Y-4.5
X4.2796Y0.6761
X4.3072Y0.7429
X4.3072Y0.6092
X4.3741Y0.7706
X4.3741Y0.5816
X4.4409Y0.7429
X4.4409Y0.6092
X4.4685Y0.6761
X4.4993Y-4.5
X4.5269Y-4.4332
X4.5269Y-4.5668
X4.5937Y-4.4055
X4.5937Y-4.5945
X4.6606Y-4.4332
X4.6606Y-4.5668
X4.6882Y-4.5
X4.9997Y0.803
X5.0149Y-1.9687
X5.0274Y0.8698
X5.0274Y0.7362
X5.0426Y-1.9019
X5.0426Y-2.0356
X5.0942Y0.8975
X5.0942Y0.7085
X5.1094Y-1.8743
X5.1094Y-2.0632
X5.161Y0.8698
X5.161Y0.7362
X5.1762Y-1.9019
X5.1762Y-2.0356
X5.1887Y0.803
X5.2039Y-1.9687
X6.265Y0.6454
X6.2927Y0.7122
X6.2927Y0.5786
X6.3595Y0.7399
X6.3595Y0.5509
X6.4263Y0.7122
X6.4263Y0.5786
X6.454Y0.6454
X6.8023Y-2.4014
X6.83Y-2.3346
X6.83Y-2.4682
X6.8968Y-2.3069
X6.8968Y-2.4959
X6.9636Y-2.3346
X6.9636Y-2.4682
X6.9913Y-2.4014
T4
X-0.2283Y-1.8169
X-0.2264Y-2.561
X-0.2264Y-0.2933
X-0.2264Y-1.0472
X-0.1358Y0.3484
X0.6949Y0.5413
X0.8996Y-2.5492
X1.0295Y0.6024
X1.3622Y0.7362
X1.8655Y-2.315
X1.8661Y-2.6122
X2.1181Y1.0177
X2.3091Y-3.4213
X2.6457Y-2.6122
X2.6463Y-2.315
X2.8701Y0.9232
X3.0453Y-2.498
X3.1004Y-3.6043
X3.2165Y-2.6398
X3.248Y-2.7461
X3.2795Y-2.3268
X3.2795Y-2.3976
X3.2795Y-2.4665
X3.2795Y-2.5335
X3.6161Y0.6535
X3.8327Y-3.5846
X3.8583Y-2.752
X3.9311Y-2.752
X4.378Y0.2579
X4.5217Y0.3406
X4.5433Y0.2362
X4.644Y0.7109
X4.8223Y0.7424
X4.8386Y-0.189
X4.8406Y-0.2598
X5.065Y-3.7539
X5.126Y-0.1358
X5.248Y-2.4488
X5.2835Y-0.6388
X5.3484Y-2.4488
X5.4272Y0.5558
X5.5755Y0.4519
X5.6437Y-1.9252
X5.6437Y-1.9941
X5.6437Y-2.063
X5.6437Y-2.1319
X5.7519Y-0.5177
X5.9154Y-0.3858
X5.9331Y-1.8268
X5.9429Y-1.6713
X5.9646Y-0.4921
X6.0571Y-1.7736
X6.0728Y0.248
X6.0846Y-0.4508
X6.1142Y-0.9134
X6.1339Y-1.5807
X6.1594Y-1.4843
X6.1969Y-1.1063
X6.2569Y-0.9577
X6.2756Y-0.6654
X6.3484Y0.0492
X6.5266Y-1.1594
X6.5266Y-1.2264
X6.5266Y-1.2933
X6.5266Y-1.3681
X6.5709Y-2.0236
X6.6299Y-2.0886
T5
X3.8285Y-4.1427
X4.0135Y-3.9222
X4.0135Y-4.3278
X4.234Y-4.1427
X5.4422Y-2.9016
X5.4422Y-3.0
X5.4422Y-3.0984
X5.7906Y-2.3185
X5.8891Y-2.3011
X5.9875Y-2.2838
X6.0131Y-2.9016
X6.0131Y-3.0984
X6.086Y-2.2664
X6.1845Y-2.249
X6.283Y-2.2317
X6.3815Y-2.2143
X6.4097Y-2.4328
X6.4097Y-2.6297
X6.4799Y-2.1969
X6.5278Y-2.4328
X6.5278Y-2.6297
X6.5784Y-2.1796
T6
X3.8285Y-3.997
X3.8285Y-4.253
X3.9033Y-3.9222
X3.9033Y-4.3278
X4.1592Y-3.9222
X4.1592Y-4.3278
X4.234Y-3.997
X4.234Y-4.253
T8
X-0.2813Y0.5625
X-0.2813Y-2.8125
X1.6875Y1.0313
X1.9687Y-3.5625
X3.4687Y-4.5
X4.3741Y0.6761
X4.5937Y-4.5
X5.0942Y0.803
X5.1094Y-1.9687
X6.3595Y0.6454
X6.8968Y-2.4014
T4
G00X4.55Y0.791
M15
G01X4.5459Y0.8143
M16
G05
G00X4.5803Y0.6193
M15
G01X4.5728Y0.6619
M16
G05
G00X4.885Y0.8501
M15
G01X4.8809Y0.8734
M16
G05
G00X4.9153Y0.6783
M15
G01X4.9077Y0.721
M16
G05
G00X5.3167Y0.535
M15
G01X5.3416Y0.5705
M16
G05
G00X5.4168Y0.6779
M15
G01X5.4303Y0.6973
M16
G05
G00X5.5954Y0.3399
M15
G01X5.6202Y0.3754
M16
G05
G00X5.6954Y0.4828
M15
G01X5.709Y0.5022
M16
G05
T7
G00X5.7119Y-2.7795
M15
G01X5.7631Y-2.7795
M16
G05
G00X5.7119Y-3.2205
M15
G01X5.7631Y-3.2205
M16
G05
T0
M30
