M48
; DRILL file {KiCad (5.1.9)-1} date 04/11/21 13:56:52
; FORMAT={-:-/ absolute / inch / decimal}
; #@! TF.CreationDate,2021-04-11T13:56:52+10:00
; #@! TF.GenerationSoftware,Kicad,Pcbnew,(5.1.9)-1
; #@! TF.FileFunction,NonPlated,1,2,NPTH
FMAT,2
INCH
T1C0.0256
T2C0.0689
T3C0.1299
T4C0.1570
%
G90
G05
T1
X4.6283Y0.6709
X4.8524Y0.7104
X5.3872Y0.5376
X5.5737Y0.4071
T2
X-0.2Y0.0
X-0.2Y-0.75
X-0.2Y-1.5
X-0.2Y-2.25
X0.2Y0.0
X0.2Y-0.75
X0.2Y-1.5
X0.2Y-2.25
X0.55Y0.1875
X0.55Y-0.5625
X0.55Y-1.3125
X0.55Y-2.0625
X0.95Y0.1875
X0.95Y-0.5625
X0.95Y-1.3125
X0.95Y-2.0625
X1.3Y0.375
X1.3Y-0.375
X1.3Y-1.125
X1.3Y-1.875
X1.7Y0.375
X1.7Y-0.375
X1.7Y-1.125
X1.7Y-1.875
X2.05Y0.6563
X2.05Y-0.0937
X2.05Y-0.8437
X2.05Y-1.5937
X2.3313Y-3.0937
X2.45Y0.6563
X2.45Y-0.0937
X2.45Y-0.8437
X2.45Y-1.5937
X2.7313Y-3.0937
X2.8Y0.5625
X2.8Y-0.1875
X2.8Y-0.9375
X2.8Y-1.6875
X3.0813Y-3.0937
X3.2Y0.5625
X3.2Y-0.1875
X3.2Y-0.9375
X3.2Y-1.6875
X3.4813Y-3.0937
X3.55Y0.2813
X3.55Y-0.4687
X3.55Y-1.2187
X3.55Y-1.9687
X3.8313Y-3.1875
X3.95Y0.2813
X3.95Y-0.4687
X3.95Y-1.2187
X3.95Y-1.9687
X4.2313Y-3.1875
X4.3Y-0.0937
X4.3Y-0.8437
X4.3Y-1.5937
X4.3Y-2.3437
X4.5813Y-3.4687
X4.7Y-0.0937
X4.7Y-0.8437
X4.7Y-1.5937
X4.7Y-2.3437
X4.9813Y-3.4687
T3
X5.0948Y0.0654
X5.5132Y-2.3074
X6.4169Y0.2985
X6.8353Y-2.0743
T4
X0.0Y0.0
X0.0Y-0.75
X0.0Y-1.5
X0.0Y-2.25
X0.75Y0.1875
X0.75Y-0.5625
X0.75Y-1.3125
X0.75Y-2.0625
X1.5Y0.375
X1.5Y-0.375
X1.5Y-1.125
X1.5Y-1.875
X2.25Y0.6563
X2.25Y-0.0937
X2.25Y-0.8437
X2.25Y-1.5937
X2.5313Y-3.0937
X3.0Y0.5625
X3.0Y-0.1875
X3.0Y-0.9375
X3.0Y-1.6875
X3.2813Y-3.0937
X3.75Y0.2813
X3.75Y-0.4687
X3.75Y-1.2187
X3.75Y-1.9687
X4.0313Y-3.1875
X4.5Y-0.0937
X4.5Y-0.8437
X4.5Y-1.5937
X4.5Y-2.3437
X4.7813Y-3.4687
T0
M30
