M48
; DRILL file {KiCad (5.1.7)-1} date 10/07/20 08:34:44
; FORMAT={-:-/ absolute / inch / decimal}
; #@! TF.CreationDate,2020-10-07T08:34:44+11:00
; #@! TF.GenerationSoftware,Kicad,Pcbnew,(5.1.7)-1
; #@! TF.FileFunction,Plated,1,2,PTH
FMAT,2
INCH
T1C0.0118
T2C0.0157
T3C0.0236
T4C0.0315
T5C0.0394
T6C0.0472
T7C0.0591
T8C0.1299
%
G90
G05
T1
X-0.6496Y-2.378
X-0.6417Y-2.2874
X-0.5157Y-2.315
X-0.5118Y-2.2323
X-0.5Y-2.5472
X-0.4803Y-1.8701
X-0.4055Y-1.5157
X-0.3937Y-2.6299
X-0.3858Y-0.8954
X-0.3622Y-2.0906
X-0.311Y-1.9213
X-0.2992Y-0.7756
X-0.2638Y-2.2913
X-0.2087Y-2.3819
X-0.2047Y-2.5039
X-0.2047Y-0.3701
X-0.189Y-1.1496
X-0.1535Y-1.5512
X-0.1417Y-0.0354
X-0.1142Y-2.3189
X-0.0984Y-2.811
X-0.0197Y-0.4213
X-0.0157Y-0.811
X0.0024Y-1.1198
X0.0057Y-1.6681
X0.0079Y-2.9646
X0.0175Y-2.6896
X0.0236Y-2.1811
X0.0236Y-2.8858
X0.0509Y-1.752
X0.0512Y0.3346
X0.063Y-2.4331
X0.0906Y-0.1457
X0.1142Y-0.0787
X0.1368Y-1.0156
X0.248Y-2.1811
X0.2621Y-0.6899
X0.2641Y-1.5177
X0.2717Y-2.5
X0.315Y-2.6811
X0.3383Y-0.9152
X0.3858Y-1.4488
X0.4055Y-0.1417
X0.4213Y-1.8504
X0.4213Y-2.9528
X0.4724Y-3.0591
X0.4882Y-2.2362
X0.5118Y-2.9449
X0.5118Y-0.7165
X0.5669Y-1.1063
X0.5945Y-3.063
X0.6064Y-2.7734
X0.6105Y-1.5708
X0.6417Y-1.5039
X0.6457Y-2.3425
X0.6535Y0.0157
X0.6772Y-2.2638
X0.7008Y-2.4528
X0.7047Y-0.3583
X0.7559Y-0.7559
X0.772Y-1.6073
X0.8071Y-2.3622
X0.8346Y0.3976
X0.8898Y-0.0236
X0.911Y-0.8642
X0.9724Y-2.752
X0.9724Y-3.0
X0.9845Y-1.5808
X1.0236Y-2.1457
X1.0945Y-3.0394
X1.0987Y-0.8654
X1.1181Y-2.9331
X1.1535Y-1.4055
X1.189Y-0.0866
X1.2087Y-1.7953
X1.2165Y-2.3976
X1.2598Y-2.1811
X1.2717Y-3.2638
X1.2739Y-2.8871
X1.2756Y-0.6535
X1.3071Y-2.4567
X1.315Y-3.1535
X1.3346Y-1.0433
X1.3701Y-2.811
X1.3761Y-3.237
X1.3898Y-1.437
X1.3898Y-3.0787
X1.3937Y0.0709
X1.4272Y-2.7662
X1.4319Y-2.4672
X1.4882Y-0.2913
X1.4961Y-2.3189
X1.5079Y-3.7638
X1.5276Y-0.685
X1.5866Y-2.2047
X1.5945Y0.4488
X1.6693Y0.0236
X1.6866Y-3.6075
X1.7677Y-2.3071
X1.775Y-1.4284
X1.7992Y-1.9843
X1.8177Y-0.4604
X1.8268Y-3.4724
X1.8307Y-4.0866
X1.8871Y-0.7245
X1.9016Y-3.7677
X1.9401Y0.1656
X1.9408Y-0.0344
X1.9409Y-1.2441
X1.9921Y-3.3071
X1.9961Y-1.6339
X2.0276Y0.0433
X2.0551Y-2.0236
X2.0591Y-0.5197
X2.0827Y-3.5118
X2.122Y-0.8937
X2.1457Y-3.9528
X2.1575Y-3.0472
X2.1614Y-2.3543
X2.1772Y-2.2047
X2.178Y-2.9066
X2.1811Y-3.7441
X2.185Y-1.2913
X2.189Y0.2087
X2.2126Y-4.185
X2.2205Y-3.878
X2.2362Y-3.6339
X2.2443Y-3.0063
X2.2498Y-1.4561
X2.252Y-0.1654
X2.2704Y-3.1534
X2.2858Y-2.7937
X2.3031Y-1.5945
X2.315Y-2.185
X2.3189Y-0.5551
X2.3376Y-1.4796
X2.3583Y-1.3189
X2.3622Y-3.752
X2.3661Y-3.9094
X2.378Y0.5945
X2.3858Y-2.9567
X2.4099Y-2.8156
X2.4173Y-0.9094
X2.4409Y0.1654
X2.4488Y-0.7283
X2.4685Y-4.2402
X2.4882Y-1.6461
X2.4882Y-0.5748
X2.5016Y-2.9757
X2.5262Y-2.8361
X2.5276Y-3.8386
X2.5315Y-2.1969
X2.5551Y-4.3976
X2.5748Y-3.6063
X2.5906Y-0.1024
X2.6142Y0.0157
X2.6142Y-3.1535
X2.6402Y-0.8973
X2.6575Y-1.4646
X2.6693Y-1.8622
X2.6772Y-4.5315
X2.7126Y-2.6063
X2.7244Y-3.4331
X2.727Y-0.269
X2.7331Y-3.0005
X2.7515Y-2.8958
X2.7598Y-3.9724
X2.7677Y-4.4488
X2.7756Y-2.2362
X2.7835Y-0.7402
X2.7992Y-3.6535
X2.8106Y-3.0142
X2.8291Y-2.9095
X2.8386Y-1.1142
X2.8661Y-1.5888
X2.8692Y-3.2489
X2.8733Y-4.3365
X2.9055Y-0.0118
X2.9094Y-1.5079
X2.9291Y-3.7874
X2.9606Y-4.748
X2.9882Y-0.378
X2.9921Y-4.622
X3.0354Y-0.7677
X3.0401Y-1.7354
X3.0834Y-1.5351
X3.0866Y-4.0354
X3.0984Y-2.1299
X3.0984Y-3.2126
X3.1024Y0.3504
X3.1095Y-1.7956
X3.1386Y-1.1771
X3.1682Y-0.9864
X3.1732Y-0.0591
X3.1811Y-4.4882
X3.1828Y-3.0798
X3.2006Y-3.3848
X3.2013Y-2.9751
X3.2165Y-2.5984
X3.2323Y-4.3898
X3.2367Y-3.3931
X3.2432Y-1.0596
X3.2705Y-3.3991
X3.2795Y-3.874
X3.2847Y-4.1572
X3.2864Y-3.0592
X3.2914Y-3.031
X3.3054Y-3.4052
X3.32Y-0.5334
X3.3503Y-0.203
X3.353Y-1.2309
X3.3543Y-1.8661
X3.3822Y-2.947
X3.3898Y-4.3465
X3.4213Y-2.2835
X3.4449Y-3.0221
X3.4528Y-3.4055
X3.4646Y-2.6496
X3.4687Y-0.5517
X3.4724Y-1.1457
X3.5118Y-3.9252
X3.5281Y-2.8448
X3.5354Y-1.5236
X3.5726Y-2.9326
X3.5754Y-3.5061
X3.5906Y-4.4331
X3.5984Y-1.9213
X3.6102Y-0.4173
X3.6227Y-2.7616
X3.6276Y-2.8475
X3.6332Y-2.8154
X3.6378Y-4.2795
X3.6391Y-2.6685
X3.6399Y0.1908
X3.6457Y-0.7953
X3.6693Y-3.4331
X3.6778Y-2.8123
X3.6818Y-2.8799
X3.6827Y-2.7842
X3.689Y-4.8386
X3.689Y-4.6181
X3.7244Y-4.1024
X3.7283Y-1.1654
X3.7525Y-2.7285
X3.7561Y-2.1415
X3.7874Y-0.0433
X3.8189Y0.0748
X3.852Y-1.5747
X3.8573Y-1.9754
X3.8622Y-0.4488
X3.8737Y-1.9989
X3.8806Y-2.5232
X3.8858Y-3.1102
X3.8898Y-3.7244
X3.9134Y0.1024
X3.9263Y-1.3799
X3.9528Y-3.5079
X3.9843Y-4.2402
X3.9943Y-1.7877
X4.0092Y-1.1984
X4.0116Y-1.1682
X4.0118Y-0.6732
X4.0166Y-1.14
X4.0315Y-0.0787
X4.0315Y-2.378
X4.0335Y-1.2207
X4.0512Y-0.4921
X4.0748Y-3.8701
X4.0815Y-0.0241
X4.0945Y-2.7598
X4.0984Y-4.0748
X4.1142Y-4.6535
X4.1317Y-0.0779
X4.1339Y-1.9961
X4.1339Y-4.8031
X4.1417Y-1.0512
X4.1417Y-3.1693
X4.1457Y-2.2244
X4.1575Y-1.6339
X4.1772Y-0.9724
X4.2047Y-3.8937
X4.2169Y-3.609
X4.248Y-4.2795
X4.2835Y-0.8898
X4.2835Y-2.437
X4.2913Y-3.5197
X4.2953Y-0.248
X4.2992Y0.0827
X4.311Y-1.4724
X4.3346Y-1.315
X4.3465Y-3.2559
X4.3622Y-3.811
X4.3622Y-4.4449
X4.3661Y-2.0394
X4.4094Y-1.6693
X4.4135Y-3.1289
X4.4213Y-2.7047
X4.4282Y-3.6352
X4.4488Y-0.5472
X4.4516Y-3.6188
X4.4528Y-0.2598
X4.4653Y-3.5935
X4.4677Y-4.4537
X4.4799Y-3.5683
X4.4803Y-4.5945
X4.4907Y-3.7342
X4.4939Y-4.2824
X4.4947Y-3.5419
X4.4966Y-3.9951
X4.5093Y-3.5167
X4.524Y-3.4906
X4.5276Y-0.4016
X4.5276Y-0.9488
X4.5331Y-2.4504
X4.5354Y-3.0709
X4.5394Y0.0354
X4.5394Y-1.9685
X4.5424Y-2.2162
X4.5586Y-3.5982
X4.5612Y-2.1945
X4.5673Y-2.1666
X4.5799Y-4.0897
X4.619Y-3.2331
X4.6417Y-2.622
X4.6521Y-1.7757
X4.6535Y-0.3307
X4.6535Y-3.9291
X4.6537Y-3.8504
X4.6693Y-1.2677
X4.6697Y-1.3834
X4.6751Y-1.3542
X4.6781Y-3.4874
X4.685Y-2.1811
X4.6874Y-1.3262
X4.689Y-0.0197
X4.7047Y-1.9724
X4.7066Y-3.6203
X4.7165Y-4.3661
X4.7205Y-0.4134
X4.7323Y-1.6142
X4.7402Y-0.0945
X4.748Y-0.5787
X4.7504Y-1.3293
X4.7594Y-1.167
X4.7693Y-0.1638
X4.7717Y-4.6811
X4.7815Y-0.2935
X4.7835Y-1.878
X4.7835Y-2.1811
X4.8027Y-2.7578
X4.8031Y-0.5236
X4.8071Y-3.1181
X4.8071Y-1.7953
X4.8106Y-0.152
X4.811Y-0.1181
X4.811Y-2.5039
X4.811Y-2.7126
X4.8309Y-0.3071
X4.8346Y-2.752
X4.8425Y-2.5039
X4.8453Y-0.5921
X4.8549Y-3.8903
X4.8661Y-1.3465
X4.874Y-0.5276
X4.874Y-2.0139
X4.874Y-2.0425
X4.8819Y-2.2835
X4.8851Y-2.314
X4.8858Y-2.1496
X4.8898Y-1.8898
X4.8986Y-1.8024
X4.9051Y-2.3344
X4.9055Y-0.3307
X4.9193Y-2.9582
X4.9331Y-1.7992
X4.9528Y-2.437
X4.9606Y-2.7953
X4.9685Y-0.2953
X4.9685Y-0.4173
X4.9764Y-1.8465
X4.9921Y-4.4016
X4.9989Y-1.6988
X4.9989Y-1.8071
X5.0085Y-2.0647
X5.0236Y-1.9606
X5.0276Y-1.6988
X5.0276Y-1.8071
X5.0354Y-2.6299
X5.0425Y-1.8456
X5.0467Y-1.9809
X5.0472Y-4.1654
X5.063Y-2.7677
X5.0669Y-1.9606
X5.0866Y-4.6575
X5.0873Y-1.8718
X5.0906Y-0.3976
X5.0945Y-3.4528
X5.0984Y-2.5591
X5.1024Y-2.7126
X5.1063Y-2.0748
X5.1145Y-2.1635
X5.122Y-0.4606
X5.122Y-2.5394
X5.1245Y-1.9674
X5.1339Y-1.2835
X5.1339Y-2.0118
X5.1601Y-1.8721
X5.1654Y-2.0098
X5.1732Y-1.374
X5.1772Y-2.3071
X5.1772Y-2.9724
X5.1865Y-1.7849
X5.1878Y-1.8621
X5.1909Y-1.9484
X5.2085Y-2.1888
X5.2138Y-1.7934
X5.2157Y-1.8521
X5.2283Y-1.0591
X5.2323Y-2.2047
X5.2343Y-1.9216
X5.2402Y-2.6378
X5.2442Y-1.8421
X5.2477Y-1.2362
X5.248Y-0.3189
X5.2487Y-2.0647
X5.252Y-3.4567
X5.252Y-0.8389
X5.2598Y-2.8583
X5.2623Y-1.0809
X5.2677Y-0.815
X5.2677Y-1.5276
X5.2721Y-1.8321
X5.2841Y-1.6881
X5.2872Y-1.9142
X5.2882Y-3.453
X5.2959Y-1.8128
X5.3089Y-0.8027
X5.3124Y-1.9007
X5.315Y-2.4961
X5.3189Y-3.4409
X5.3216Y-2.0508
X5.3326Y-2.3051
X5.3346Y-1.2795
X5.3362Y-2.0989
X5.3404Y-1.6318
X5.3436Y-2.0691
X5.3471Y-1.7813
X5.3558Y-1.6903
X5.3583Y-2.4646
X5.364Y-0.7476
X5.367Y-3.1527
X5.3701Y-1.6378
X5.3772Y-2.0147
X5.38Y-2.0873
X5.3858Y-2.4094
X5.3872Y-1.9879
X5.4003Y-3.1382
X5.4095Y-2.0213
X5.4219Y-2.1631
X5.4219Y-2.4427
X5.4291Y-3.374
X5.431Y-1.7541
X5.4331Y-1.437
X5.4331Y-2.9528
X5.4339Y-2.0366
X5.4375Y-1.988
X5.4426Y-2.1377
X5.4484Y-1.9093
X5.4567Y-3.1339
X5.4606Y-0.3661
X5.4613Y-2.3639
X5.4682Y-1.9971
X5.4711Y-2.135
X5.4724Y-2.9138
X5.477Y-2.1753
X5.477Y-1.7222
X5.4777Y-1.8686
X5.4967Y-2.2576
X5.5Y-2.1183
X5.5024Y-3.1275
X5.5056Y-1.8982
X5.5063Y-1.8696
X5.5083Y-1.9679
X5.5085Y-2.1828
X5.5118Y-2.9528
X5.5118Y-3.6457
X5.5156Y-1.831
X5.519Y-2.279
X5.5206Y-1.79
X5.5252Y-2.307
X5.5278Y-1.7623
X5.5287Y-2.1109
X5.5321Y-2.5765
X5.5321Y-2.3482
X5.5342Y-1.8984
X5.5378Y-1.8128
X5.5394Y-3.0866
X5.5428Y-1.947
X5.5434Y-2.2475
X5.5479Y-2.1789
X5.5538Y-2.3066
X5.5554Y-1.8502
X5.5591Y-2.1024
X5.5638Y-2.2274
X5.5676Y-1.163
X5.5714Y-1.9459
X5.5748Y-1.4724
X5.5827Y-3.1227
X5.589Y-1.9023
X5.5906Y-2.9528
X5.5951Y-2.1868
X5.5951Y-2.2301
X5.5962Y-2.1042
X5.5996Y-1.9409
X5.603Y-2.3639
X5.6031Y-2.8776
X5.6047Y-2.7689
X5.6079Y-1.9812
X5.6102Y-1.5118
X5.6111Y-1.2078
X5.6142Y-1.1654
X5.6142Y-3.0866
X5.6173Y-2.2079
X5.6246Y-2.1007
X5.6333Y-1.7533
X5.6346Y-2.837
X5.6359Y-1.9747
X5.6424Y-2.4427
X5.6484Y-2.0004
X5.6535Y-1.2087
X5.6609Y-2.1064
X5.6654Y-1.2874
X5.6654Y-3.1027
X5.6693Y-1.4724
X5.6693Y-2.9528
X5.6719Y-4.1772
X5.6883Y-2.8559
X5.6892Y-2.1024
X5.6896Y-1.9978
X5.6909Y-1.3484
X5.7087Y-2.7559
X5.7126Y-2.878
X5.7161Y-2.1122
X5.7188Y-3.0834
X5.7205Y-2.374
X5.7283Y-4.2795
X5.7323Y-1.748
X5.7402Y-3.9252
X5.748Y-2.9528
X5.7717Y-3.0866
X5.7756Y-1.689
X5.7931Y-2.8732
X5.7953Y-2.7559
X5.7953Y-2.9528
X5.8031Y-1.5354
X5.8071Y-1.7087
X5.811Y-1.4528
X5.811Y-1.8622
X5.811Y-2.8976
X5.811Y-3.7047
X5.8156Y-2.0647
X5.8179Y-2.8195
X5.8181Y-2.8539
X5.8189Y-3.1127
X5.8369Y-1.7736
X5.8386Y-1.7323
X5.8465Y-2.6457
X5.8504Y-2.4213
X5.8504Y-3.0866
X5.8543Y-2.374
X5.8661Y-3.3661
X5.869Y-1.506
X5.874Y-2.9528
X5.8937Y-1.5866
X5.9016Y-1.1181
X5.9016Y-1.8189
X5.9016Y-3.126
X5.9173Y-1.3937
X5.9331Y-1.9646
X5.9331Y-2.1654
X5.9422Y-3.1233
X5.9606Y-2.9528
X5.9646Y-2.5669
X5.9649Y-1.6768
X5.9843Y-3.1339
X6.0079Y-1.6024
X6.0157Y-3.1417
X6.0197Y-1.4882
X6.0472Y-2.374
X6.0551Y-3.1496
X6.0591Y-3.9094
X6.0591Y-3.7874
X6.0709Y-2.9528
X6.0787Y-1.7717
X6.1063Y-2.3189
X6.185Y-0.6811
X6.185Y-3.4213
X6.2047Y-1.8543
X6.2047Y-2.9528
X6.2323Y-1.2047
X6.2362Y-1.3543
X6.248Y-1.9843
X6.2717Y-2.5276
X6.2835Y-1.5118
X6.2913Y-2.878
X6.2913Y-3.4094
X6.2992Y-3.7283
X6.311Y-2.9961
X6.3248Y-1.1575
X6.3661Y-2.5079
X6.4016Y-1.7323
X6.4134Y-1.4291
X6.4882Y-1.7362
X6.5039Y-2.4803
X6.5433Y-3.0079
X2.7825Y-3.9099
X2.7975Y-3.8821
X6.1328Y-1.2252
X6.1428Y-1.2552
X0.1599Y-2.3696
X0.1749Y-2.2843
X0.1945Y-2.3317
X0.4969Y-2.385
X0.5166Y-2.4325
X0.5316Y-2.3472
X5.0171Y-2.1603
X5.0471Y-2.1503
X3.1959Y-4.0473
X3.211Y-3.962
X3.2306Y-4.0094
X3.533Y-4.0627
X3.5526Y-4.1102
X3.5677Y-4.0249
X0.2901Y-1.631
X0.3051Y-1.5457
X0.3248Y-1.5931
X0.6272Y-1.6464
X0.6468Y-1.6939
X0.6618Y-1.6086
X2.8029Y-4.2298
X2.8445Y-4.1668
X5.5565Y-1.6367
X5.5865Y-1.6267
X3.8275Y-2.4232
X3.8691Y-2.3602
X2.8315Y-0.1752
X2.8466Y-0.0899
X2.8662Y-0.1373
X3.1686Y-0.1906
X3.1882Y-0.238
X3.2033Y-0.1528
X2.6323Y-4.1997
X2.6739Y-4.1368
X5.9714Y-3.422
X5.9814Y-3.452
X3.154Y-1.9237
X3.1956Y-1.8607
X-0.4202Y-2.8706
X-0.4052Y-2.7853
X-0.3856Y-2.8327
X-0.0832Y-2.886
X-0.0635Y-2.9335
X-0.0485Y-2.8482
X3.578Y0.0543
X3.698Y0.0543
X2.7258Y-0.9659
X2.7305Y-0.9972
X4.235Y-2.6904
X4.2501Y-2.6626
X0.4449Y-0.9445
X0.4495Y-0.9758
X6.3541Y-2.1295
X6.3841Y-2.1195
X4.9488Y-1.5648
X4.9803Y-1.6006
X5.6604Y-3.5637
X5.6704Y-3.5937
X2.0024Y0.1833
X2.044Y0.2463
X6.1328Y-1.1464
X6.1428Y-1.1764
X1.2149Y0.0366
X1.2565Y0.0996
X4.7316Y-3.9933
X4.7416Y-4.0233
X0.931Y-2.3152
X0.9461Y-2.2299
X0.9657Y-2.2773
X1.2681Y-2.3306
X1.2877Y-2.3781
X1.3028Y-2.2928
X5.3115Y-3.548
X5.3807Y-3.578
X6.1328Y-1.3039
X6.1428Y-1.3339
X-0.3508Y-0.9468
X-0.3358Y-0.8615
X-0.3162Y-0.9089
X-0.0138Y-0.9622
X0.0059Y-1.0097
X0.0209Y-0.9244
X5.072Y-0.359
X5.1413Y-0.389
X6.0915Y-2.6474
X6.1335Y-2.6474
X6.1975Y-2.6414
X-0.7181Y-2.2881
X-0.6765Y-2.2251
X2.7013Y-0.9138
X2.7163Y-0.8285
X2.7359Y-0.8759
X3.0384Y-0.9292
X3.058Y-0.9767
X3.073Y-0.8914
X2.7176Y-4.2148
X2.7592Y-4.1518
X3.6973Y-3.1618
X3.7388Y-3.0988
X0.9556Y-2.3673
X0.9602Y-2.3986
X-0.1803Y-1.8167
X-0.1653Y-1.7889
X1.216Y-0.8901
X1.2207Y-0.9214
X3.8041Y-3.2977
X3.8191Y-3.2124
X3.8387Y-3.2599
X4.1411Y-3.3132
X4.1608Y-3.3606
X4.1758Y-3.2753
X5.6342Y-1.6238
X5.6699Y-1.5923
X4.9246Y-1.1318
X4.9561Y-1.1675
X6.1328Y-1.4614
X6.1428Y-1.4914
X3.1551Y-2.8504
X3.1598Y-2.8816
X4.4256Y-0.3567
X4.4556Y-0.3467
X5.357Y-1.4026
X5.387Y-1.3926
X-0.4576Y-0.8109
X-0.4161Y-0.7479
X6.2497Y-1.5699
X6.2557Y-1.6339
X6.2557Y-1.6759
X3.9343Y-2.5591
X3.9493Y-2.4738
X3.969Y-2.5213
X4.2714Y-2.5746
X4.291Y-2.622
X4.306Y-2.5367
X4.8225Y-0.8852
X4.8285Y-0.9492
X4.8285Y-0.9912
X3.8938Y-4.4083
X3.9089Y-4.323
X3.9285Y-4.3705
X4.2309Y-4.4238
X4.2505Y-4.4712
X4.2656Y-4.3859
X2.9735Y-4.2599
X3.0151Y-4.1969
X5.5049Y-1.0687
X5.5469Y-1.0687
X5.6109Y-1.0627
X1.6117Y-2.0325
X1.6532Y-1.9695
X0.5506Y-0.1537
X0.5656Y-0.0684
X0.5852Y-0.1159
X0.8876Y-0.1692
X0.9073Y-0.2166
X0.9223Y-0.1313
X5.0846Y-0.2634
X5.1283Y-0.3114
X5.247Y-2.7593
X5.277Y-2.7493
X0.0531Y-2.2337
X0.0946Y-2.1707
X3.391Y-1.321
X3.4061Y-1.2357
X3.4257Y-1.2831
X3.7281Y-1.3364
X3.7477Y-1.3839
X3.7628Y-1.2986
X2.3749Y-3.6426
X2.4165Y-3.5796
X2.5945Y-0.7778
X2.636Y-0.7149
X6.4255Y-1.7877
X6.4255Y-2.1499
X6.4688Y-1.8152
X6.4688Y-2.1223
X6.5121Y-1.7877
X6.5121Y-2.1499
X2.2213Y-4.3289
X2.2696Y-4.3117
X2.2746Y-4.2606
X2.5067Y-4.5519
X2.5116Y-4.5008
X2.56Y-4.4836
X3.4156Y-1.3731
X3.4202Y-1.4044
X0.5908Y-1.7623
X0.6059Y-1.7345
X1.362Y-1.7079
X1.3771Y-1.6801
X3.1323Y-0.3065
X3.1473Y-0.2787
X1.7431Y-3.6483
X1.7582Y-3.563
X1.7778Y-3.6104
X2.0802Y-3.6638
X2.0998Y-3.7112
X2.1149Y-3.6259
X6.0211Y-2.1563
X6.0511Y-2.1463
X5.6604Y-3.6425
X5.6704Y-3.6725
X2.7247Y-0.0392
X2.7663Y0.0238
X5.4208Y-2.5458
X5.4308Y-2.5758
X5.5756Y-1.2924
X5.6056Y-1.2824
X1.0847Y-0.702
X1.1263Y-0.639
X2.4408Y-2.391
X2.4558Y-2.3057
X2.4755Y-2.3531
X2.7779Y-2.4064
X2.7975Y-2.4539
X2.8125Y-2.3686
X0.7063Y-2.9056
X0.711Y-2.9369
X4.3454Y-4.672
X4.3633Y-4.6981
X-0.4811Y-1.6854
X-0.466Y-1.6001
X-0.4464Y-1.6475
X-0.144Y-1.7008
X-0.1244Y-1.7483
X-0.1093Y-1.663
X2.334Y-2.2551
X2.3756Y-2.1921
X3.5213Y-0.5824
X3.5363Y-0.4971
X3.5559Y-0.5445
X3.8584Y-0.5978
X3.878Y-0.6453
X3.893Y-0.56
X4.9331Y-0.5866
X4.9547Y-0.5472
X4.9547Y-0.626
X4.9921Y-0.5984
X5.1811Y-0.5984
X5.2185Y-0.5472
X5.2185Y-0.626
X5.2402Y-0.5866
X3.0238Y-2.6623
X3.0653Y-2.5993
X4.1948Y-1.0819
X4.2098Y-0.9966
X4.2294Y-1.044
X4.5319Y-1.0974
X4.5515Y-1.1448
X4.5665Y-1.0595
X5.8511Y-3.5665
X5.8811Y-3.4972
X3.0891Y-3.9114
X3.1307Y-3.8484
X0.1833Y-1.4951
X0.2249Y-1.4321
X0.6579Y-3.0581
X0.6729Y-2.9728
X0.6925Y-3.0202
X0.995Y-3.0736
X1.0146Y-3.121
X1.0296Y-3.0357
X5.0984Y-1.0994
X5.0984Y-1.2194
X5.1772Y-1.0994
X5.1772Y-1.2194
X6.4255Y-2.5845
X6.4255Y-2.9467
X6.4688Y-2.6121
X6.4688Y-2.9192
X6.5121Y-2.5845
X6.5121Y-2.9467
X0.1844Y-2.4217
X0.189Y-2.453
X-0.5868Y-2.4761
X-0.5821Y-2.5074
X5.6928Y-4.1145
X5.7418Y-4.13
X5.7485Y-4.1809
X5.9703Y-3.8817
X5.977Y-3.9326
X6.026Y-3.948
X0.8513Y-0.2851
X0.8664Y-0.2573
X3.0914Y-4.7188
X3.0961Y-4.75
X0.0801Y-0.3395
X0.0952Y-0.3117
X5.4724Y-0.9213
X5.5039Y-0.957
X-0.3274Y-0.0722
X-0.2858Y-0.0093
X4.7316Y-3.6783
X4.7416Y-3.7083
X1.6225Y-0.2307
X1.6375Y-0.2028
X0.3135Y-0.7564
X0.3551Y-0.6935
X4.7316Y-3.757
X4.7416Y-3.787
X4.3318Y-0.3567
X4.3618Y-0.3467
X1.8722Y-0.5553
X1.9137Y-0.4923
X4.7316Y-3.8358
X4.7416Y-3.8658
X-0.3763Y-2.7166
X-0.3717Y-2.7479
X1.7185Y-2.1684
X1.7335Y-2.0831
X1.7531Y-2.1306
X2.0556Y-2.1839
X2.0752Y-2.2313
X2.0902Y-2.146
X1.9789Y-0.6912
X1.994Y-0.6059
X2.0136Y-0.6533
X2.316Y-0.7067
X2.3356Y-0.7541
X2.3507Y-0.6688
X5.9567Y-1.1909
X5.9567Y-1.4547
X5.9843Y-1.4173
X5.9961Y-1.4764
X6.0354Y-1.1909
X6.0354Y-1.4547
X5.399Y-1.6367
X5.429Y-1.6267
X3.2843Y-1.1851
X3.3258Y-1.1221
X2.571Y-1.6524
X2.5861Y-1.5671
X2.6057Y-1.6145
X2.9081Y-1.6678
X2.9277Y-1.7153
X2.9428Y-1.63
X2.8882Y-4.2449
X2.9298Y-4.1819
X3.9577Y-1.6846
X3.9993Y-1.6216
X0.4203Y-0.8924
X0.4354Y-0.8071
X0.455Y-0.8545
X0.7574Y-0.9078
X0.777Y-0.9553
X0.7921Y-0.87
X5.7488Y-0.9563
X5.7788Y-0.887
X3.787Y-4.2724
X3.8286Y-4.2094
X0.9545Y-1.4406
X0.996Y-1.3776
X3.1891Y-4.8393
X3.2042Y-4.754
X3.2238Y-4.8015
X3.5262Y-4.8548
X3.5458Y-4.9022
X3.5609Y-4.8169
X3.5616Y-2.1909
X3.5766Y-2.1631
X2.1495Y-1.5611
X2.1645Y-1.5333
X4.3609Y-4.7424
X4.3846Y-4.8257
X4.3992Y-4.7765
X4.6946Y-4.6923
X4.7092Y-4.6431
X4.7329Y-4.7264
X5.6414Y-3.4009
X5.6474Y-3.4649
X5.6474Y-3.5069
X4.4955Y-1.2132
X4.5106Y-1.1854
X6.3541Y-1.3342
X6.3841Y-1.3242
X5.1208Y-1.5195
X5.1508Y-1.5095
X2.3385Y-4.2337
X2.3491Y-4.2039
X4.088Y-0.946
X4.1295Y-0.883
X6.0923Y-1.5699
X6.0983Y-1.6339
X6.0983Y-1.6759
X4.7316Y-3.9145
X4.7416Y-3.9445
X-0.3263Y-0.9989
X-0.3217Y-1.0302
X3.8286Y-3.3499
X3.8332Y-3.3812
X6.1328Y-1.0677
X6.1428Y-1.0977
X3.4145Y-0.4465
X3.4561Y-0.3835
X5.6334Y-2.5458
X5.6434Y-2.5758
X3.2608Y-2.0596
X3.2758Y-1.9743
X3.2955Y-2.0217
X3.5979Y-2.075
X3.6175Y-2.1225
X3.6326Y-2.0372
X5.6604Y-3.7212
X5.6704Y-3.7512
X5.6584Y-4.023
X5.6854Y-4.0395
X4.0645Y-1.8205
X4.0796Y-1.7352
X4.0992Y-1.7827
X4.4016Y-1.836
X4.4212Y-1.8834
X4.4363Y-1.7981
X5.6453Y-0.9433
X5.6933Y-0.8996
X4.9067Y-1.048
X4.9759Y-1.078
X2.4642Y-1.5165
X2.5058Y-1.4535
X1.3217Y-0.0993
X1.3368Y-0.014
X1.3564Y-0.0615
X1.6588Y-0.1148
X1.6784Y-0.1622
X1.6935Y-0.0769
X5.7645Y-3.5665
X5.7945Y-3.4972
X-0.5879Y-1.5495
X-0.5463Y-1.4865
X1.0613Y-1.5765
X1.0763Y-1.4913
X1.0959Y-1.5387
X1.3983Y-1.592
X1.418Y-1.6394
X1.433Y-1.5541
X6.4255Y-0.9908
X6.4255Y-1.353
X6.4688Y-1.0183
X6.4688Y-1.3254
X6.5121Y-0.9908
X6.5121Y-1.353
X1.7419Y-1.2939
X1.7835Y-1.2309
X5.2776Y-1.0994
X5.2776Y-1.2194
X5.3563Y-1.0994
X5.3563Y-1.2194
X4.0891Y-1.8727
X4.0937Y-1.904
X2.8718Y-1.7837
X2.8868Y-1.7559
X5.1996Y-1.5195
X5.2296Y-1.5095
X2.4817Y-3.7785
X2.4968Y-3.6932
X2.5164Y-3.7407
X2.8188Y-3.794
X2.8384Y-3.8414
X2.8535Y-3.7561
X5.6929Y-1.0531
X5.6929Y-1.3169
X5.7205Y-1.0906
X5.7205Y-1.2795
X5.7323Y-1.0315
X5.7323Y-1.3386
X5.7717Y-1.0531
X5.7717Y-1.3169
X3.4967Y-4.1786
X3.5117Y-4.1508
X6.0923Y-2.8168
X6.1343Y-2.8168
X6.1983Y-2.8108
X5.4968Y-1.2924
X5.5268Y-1.2824
X2.4099Y-0.0839
X2.425Y-0.0561
X2.0439Y-3.7796
X2.0589Y-3.7518
X5.4778Y-1.6367
X5.5078Y-1.6267
X6.3541Y-2.9291
X6.3841Y-2.9191
X4.1946Y-4.5396
X4.2096Y-4.5118
X1.7291Y-3.7649
X1.7397Y-3.7351
X-0.6113Y-2.424
X-0.5963Y-2.3387
X-0.5767Y-2.3861
X-0.2742Y-2.4395
X-0.2546Y-2.4869
X-0.2396Y-2.4016
X5.9714Y-3.5007
X5.9814Y-3.5307
X3.1306Y-2.7982
X3.1456Y-2.7129
X3.1652Y-2.7603
X3.4677Y-2.8137
X3.4873Y-2.8611
X3.5023Y-2.7758
X1.8487Y-1.4298
X1.8638Y-1.3445
X1.8834Y-1.3919
X2.1858Y-1.4453
X2.2054Y-1.4927
X2.2205Y-1.4074
X4.9226Y-1.2361
X4.9226Y-1.4999
X4.962Y-1.2144
X4.9738Y-1.2735
X5.0014Y-1.2361
X5.0014Y-1.4999
X4.8196Y-1.2609
X4.8496Y-1.2509
X0.8242Y-2.1792
X0.8658Y-2.1163
X2.1092Y0.0474
X2.1242Y0.1327
X2.1438Y0.0853
X2.4463Y0.0319
X2.4659Y-0.0155
X2.4809Y0.0698
X-0.2206Y-0.2082
X-0.2056Y-0.1229
X-0.1859Y-0.1703
X0.1165Y-0.2236
X0.1361Y-0.2711
X0.1511Y-0.1858
X4.8196Y-1.4459
X4.8496Y-1.4359
X1.6363Y-3.5124
X1.6779Y-3.4494
X1.1915Y-0.8379
X1.2065Y-0.7526
X1.2262Y-0.8001
X1.5286Y-0.8534
X1.5482Y-0.9008
X1.5632Y-0.8155
X1.6119Y-3.8601
X1.6603Y-3.843
X1.6652Y-3.7919
X1.8973Y-4.0831
X1.9023Y-4.032
X1.9506Y-4.0149
X2.0035Y-0.7434
X2.0081Y-0.7746
X1.743Y-2.2206
X1.7477Y-2.2519
X2.4653Y-2.4431
X2.47Y-2.4744
X3.822Y-0.7137
X3.8371Y-0.6859
X6.1328Y-1.3826
X6.1428Y-1.4126
X0.4438Y-0.0178
X0.4853Y0.0452
X5.2783Y-1.4026
X5.3083Y-1.3926
X5.4116Y-2.7423
X5.4116Y-2.7923
X5.4116Y-2.8423
X5.4116Y-2.8923
X5.4824Y-2.7187
X5.4824Y-2.7687
X5.4824Y-2.8187
X5.4824Y-2.8687
X4.7316Y-4.072
X4.7416Y-4.102
T2
X2.2384Y-2.3232
X2.2605Y-4.0213
X2.2906Y-3.8489
X2.3536Y-1.6771
X2.4998Y-0.8461
X2.6157Y-0.1974
X4.6987Y-1.0804
X5.7362Y-1.626
X6.189Y-1.5748
X2.0297Y0.3389
X2.054Y0.4768
X2.0839Y0.3294
X2.1058Y0.5692
X2.16Y0.5597
X2.1847Y0.521
X2.5569Y0.4554
X2.5861Y0.2408
X2.5933Y0.4833
X2.6403Y0.2313
X2.6475Y0.4737
X2.6646Y0.3692
X2.752Y0.1164
X2.7763Y0.2543
X2.8062Y0.1068
X2.8282Y0.3467
X2.8823Y0.3371
X2.907Y0.2985
X3.2792Y0.2328
X3.3084Y0.0183
X3.3157Y0.2607
X3.3626Y0.0087
X3.3698Y0.2512
X3.3869Y0.1466
X0.8515Y-2.0236
X0.8759Y-1.8857
X0.9057Y-2.0332
X0.9277Y-1.7933
X0.9819Y-1.8029
X1.0065Y-1.8415
X1.3788Y-1.9072
X1.408Y-2.1217
X1.4152Y-1.8793
X1.4621Y-2.1313
X1.4693Y-1.8889
X1.4864Y-1.9934
X3.8548Y-2.2676
X3.8791Y-2.1297
X3.909Y-2.2771
X3.931Y-2.0373
X3.9851Y-2.0469
X4.0098Y-2.0855
X4.382Y-2.1511
X4.4112Y-2.3657
X4.4184Y-2.1233
X4.4654Y-2.3753
X4.4726Y-2.1328
X4.4897Y-2.2374
X1.639Y-1.8769
X1.6633Y-1.739
X1.6932Y-1.8864
X1.7151Y-1.6466
X1.7693Y-1.6562
X1.794Y-1.6948
X2.1662Y-1.7604
X2.1954Y-1.975
X2.2026Y-1.7326
X2.2496Y-1.9845
X2.2568Y-1.7421
X2.2739Y-1.8467
X2.6218Y-0.6222
X2.6461Y-0.4844
X2.676Y-0.6318
X2.6979Y-0.3919
X2.7521Y-0.4015
X2.7768Y-0.4402
X3.149Y-0.5058
X3.1782Y-0.7203
X3.1854Y-0.4779
X3.2324Y-0.7299
X3.2396Y-0.4875
X3.2567Y-0.592
X-0.3001Y0.0834
X-0.2758Y0.2212
X-0.2459Y0.0738
X-0.2239Y0.3137
X-0.1698Y0.3041
X-0.1451Y0.2654
X0.2271Y0.1998
X0.2563Y-0.0147
X0.2635Y0.2277
X0.3105Y-0.0243
X0.3177Y0.2181
X0.3348Y0.1136
X0.9818Y-1.285
X1.0061Y-1.1471
X1.0359Y-1.2946
X1.0579Y-1.0547
X1.1121Y-1.0643
X1.1368Y-1.1029
X1.509Y-1.1686
X1.5382Y-1.3831
X1.5454Y-1.1407
X1.5924Y-1.3927
X1.5996Y-1.1502
X1.6167Y-1.2548
X-0.4303Y-0.6552
X-0.406Y-0.5174
X-0.3762Y-0.6648
X-0.3542Y-0.425
X-0.3Y-0.4345
X-0.2753Y-0.4732
X0.0969Y-0.5388
X0.1261Y-0.7533
X0.1333Y-0.5109
X0.1803Y-0.7629
X0.1875Y-0.5205
X0.2046Y-0.625
X3.7246Y-3.0062
X3.7489Y-2.8683
X3.7787Y-3.0157
X3.8007Y-2.7759
X3.8549Y-2.7855
X3.8796Y-2.8241
X4.2518Y-2.8898
X4.281Y-3.1043
X4.2882Y-2.8619
X4.3352Y-3.1139
X4.3424Y-2.8714
X4.3595Y-2.976
X2.4022Y-3.487
X2.4266Y-3.3491
X2.4564Y-3.4966
X2.4784Y-3.2567
X2.5326Y-3.2663
X2.5572Y-3.3049
X2.9295Y-3.3706
X2.9587Y-3.5851
X2.9659Y-3.3427
X3.0128Y-3.5947
X3.02Y-3.3522
X3.0371Y-3.4568
X3.3116Y-1.0294
X3.3359Y-0.8916
X3.3657Y-1.039
X3.3877Y-0.7992
X3.4419Y-0.8087
X3.4666Y-0.8474
X3.8388Y-0.913
X3.868Y-1.1276
X3.8752Y-0.8851
X3.9221Y-1.1371
X3.9294Y-0.8947
X3.9465Y-0.9992
X0.2106Y-1.3394
X0.2349Y-1.2016
X0.2648Y-1.349
X0.2868Y-1.1092
X0.3409Y-1.1187
X0.3656Y-1.1574
X0.7378Y-1.223
X0.767Y-1.4375
X0.7742Y-1.1951
X0.8212Y-1.4471
X0.8284Y-1.2047
X0.8455Y-1.3092
X4.1153Y-0.7904
X4.1396Y-0.6525
X4.1695Y-0.7999
X4.1914Y-0.5601
X4.2456Y-0.5696
X4.2703Y-0.6083
X4.6425Y-0.6739
X4.6717Y-0.8885
X4.6789Y-0.6461
X4.7259Y-0.898
X4.7331Y-0.6556
X4.7502Y-0.7602
X3.8143Y-4.1168
X3.8387Y-3.9789
X3.8685Y-4.1263
X3.8905Y-3.8865
X3.9447Y-3.8961
X3.9693Y-3.9347
X4.3416Y-4.0003
X4.3708Y-4.2149
X4.378Y-3.9725
X4.4249Y-4.2244
X4.4321Y-3.982
X4.4492Y-4.0866
X3.1164Y-3.7557
X3.1407Y-3.6179
X3.1706Y-3.7653
X3.1926Y-3.5255
X3.2467Y-3.535
X3.2714Y-3.5737
X3.6436Y-3.6393
X3.6729Y-3.8538
X3.6801Y-3.6114
X3.727Y-3.8634
X3.7342Y-3.621
X3.7513Y-3.7255
X1.8995Y-0.3997
X1.9238Y-0.2618
X1.9536Y-0.4092
X1.9756Y-0.1694
X2.0298Y-0.1789
X2.0545Y-0.2176
X2.4267Y-0.2832
X2.4559Y-0.4978
X2.4631Y-0.2553
X2.51Y-0.5073
X2.5173Y-0.2649
X2.5344Y-0.3694
X0.4711Y0.1378
X0.4954Y0.2757
X0.5253Y0.1282
X0.5472Y0.3681
X0.6014Y0.3585
X0.6261Y0.3199
X0.9983Y0.2542
X1.0275Y0.0397
X1.0347Y0.2821
X1.0817Y0.0301
X1.0889Y0.2726
X1.106Y0.168
X1.2423Y0.1922
X1.2666Y0.3301
X1.2964Y0.1827
X1.3184Y0.4225
X1.3726Y0.4129
X1.3973Y0.3743
X1.7695Y0.3086
X1.7987Y0.0941
X1.8059Y0.3365
X1.8528Y0.0845
X1.86Y0.327
X1.8771Y0.2224
X-0.5606Y-1.3938
X-0.5362Y-1.256
X-0.5064Y-1.4034
X-0.4844Y-1.1636
X-0.4302Y-1.1731
X-0.4056Y-1.2118
X-0.0333Y-1.2774
X-0.0041Y-1.492
X0.0031Y-1.2495
X0.05Y-1.5015
X0.0572Y-1.2591
X0.0743Y-1.3636
X3.0511Y-2.5067
X3.0754Y-2.3688
X3.1053Y-2.5162
X3.1272Y-2.2764
X3.1814Y-2.2859
X3.2061Y-2.3246
X3.5783Y-2.3902
X3.6075Y-2.6048
X3.6147Y-2.3623
X3.6617Y-2.6143
X3.6689Y-2.3719
X3.686Y-2.4764
X0.3409Y-0.6008
X0.3652Y-0.4629
X0.395Y-0.6104
X0.417Y-0.3705
X0.4712Y-0.3801
X0.4958Y-0.4187
X0.8681Y-0.4844
X0.8973Y-0.6989
X0.9045Y-0.4565
X0.9514Y-0.7085
X0.9586Y-0.466
X0.9757Y-0.5706
X1.112Y-0.5464
X1.1363Y-0.4085
X1.1662Y-0.556
X1.1882Y-0.3161
X1.2423Y-0.3257
X1.267Y-0.3643
X1.6392Y-0.43
X1.6684Y-0.6445
X1.6756Y-0.4021
X1.7226Y-0.6541
X1.7298Y-0.4116
X1.7469Y-0.5162
X2.4916Y-1.3608
X2.5159Y-1.223
X2.5457Y-1.3704
X2.5677Y-1.1306
X2.6219Y-1.1401
X2.6466Y-1.1788
X3.0188Y-1.2444
X3.048Y-1.4589
X3.0552Y-1.2165
X3.1021Y-1.4685
X3.1093Y-1.2261
X3.1265Y-1.3306
X2.3613Y-2.0994
X2.3856Y-1.9616
X2.4155Y-2.109
X2.4375Y-1.8692
X2.4916Y-1.8787
X2.5163Y-1.9174
X2.8885Y-1.983
X2.9177Y-2.1976
X2.9249Y-1.9551
X2.9719Y-2.2071
X2.9791Y-1.9647
X2.9962Y-2.0692
X3.4418Y-0.2908
X3.4661Y-0.153
X3.496Y-0.3004
X3.5179Y-0.0606
X3.5721Y-0.0701
X3.5968Y-0.1088
X3.969Y-0.1744
X3.9982Y-0.3889
X4.0054Y-0.1465
X4.0524Y-0.3985
X4.0596Y-0.1561
X4.0767Y-0.2606
X3.9851Y-1.529
X4.0094Y-1.3911
X4.0392Y-1.5385
X4.0612Y-1.2987
X4.1154Y-1.3083
X4.1401Y-1.3469
X4.5123Y-1.4125
X4.5415Y-1.6271
X4.5487Y-1.3847
X4.5956Y-1.6366
X4.6028Y-1.3942
X4.6199Y-1.4988
X0.0804Y-2.078
X0.1047Y-1.9402
X0.1345Y-2.0876
X0.1565Y-1.8478
X0.2107Y-1.8573
X0.2354Y-1.896
X0.6076Y-1.9616
X0.6368Y-2.1761
X0.644Y-1.9337
X0.691Y-2.1857
X0.6982Y-1.9433
X0.7153Y-2.0478
X1.7692Y-1.1383
X1.7935Y-1.0004
X1.8234Y-1.1478
X1.8454Y-0.908
X1.8995Y-0.9175
X1.9242Y-0.9562
X2.2964Y-1.0218
X2.3256Y-1.2364
X2.3329Y-0.9939
X2.3798Y-1.2459
X2.387Y-1.0035
X2.4041Y-1.1081
X-0.6908Y-2.1325
X-0.6665Y-1.9946
X-0.6366Y-2.142
X-0.6146Y-1.9022
X-0.5605Y-1.9117
X-0.5358Y-1.9504
X-0.1636Y-2.016
X-0.1344Y-2.2306
X-0.1272Y-1.9881
X-0.0802Y-2.2401
X-0.073Y-1.9977
X-0.0559Y-2.1022
X3.1813Y-1.768
X3.2056Y-1.6302
X3.2355Y-1.7776
X3.2575Y-1.5378
X3.3116Y-1.5473
X3.3363Y-1.586
X3.7085Y-1.6516
X3.7377Y-1.8662
X3.745Y-1.6237
X3.7919Y-1.8757
X3.7991Y-1.6333
X3.8162Y-1.7378
X1.6636Y-3.3568
X1.6879Y-3.2189
X1.7178Y-3.3663
X1.7398Y-3.1265
X1.7939Y-3.136
X1.8186Y-3.1747
X2.1908Y-3.2403
X2.2201Y-3.4549
X2.2273Y-3.2125
X2.2742Y-3.4644
X2.2814Y-3.222
X2.2985Y-3.3266
T3
X4.7795Y-0.0157
X5.065Y-1.065
X5.2835Y-1.0
X5.5197Y-1.3937
X5.5408Y-1.4252
X5.9159Y-1.4567
X5.1969Y-0.4843
X6.1339Y-3.0984
X5.0315Y-3.4134
X0.9666Y0.3531
X1.6079Y-3.7136
X1.4226Y-2.6094
X2.1915Y-2.745
X4.7047Y-0.9921
X5.063Y-2.8465
X5.8543Y-1.374
X5.1654Y-3.5039
X3.0256Y-4.4366
X3.2476Y0.3317
X4.7441Y-1.5
X6.4291Y-1.5433
X5.9016Y-2.7362
X2.2633Y-2.9099
X-0.3314Y-0.2595
X4.7756Y-0.4409
X5.8661Y-2.5945
X5.9094Y-2.9094
X5.1614Y-3.3858
X5.2087Y-1.6142
X-0.4616Y-0.9981
X0.1955Y0.2987
X6.2992Y-1.752
X5.1969Y-0.689
X4.622Y-0.4016
X1.374Y-2.8976
X6.0469Y-0.9844
X3.9373Y-0.0755
X-0.5918Y-1.7367
X2.5252Y0.5543
X5.2913Y-2.9528
X6.0866Y-2.5039
X4.5827Y-3.7165
X5.0709Y-3.0
X5.9685Y-1.1063
X4.6108Y-0.575
X-0.7221Y-2.4753
X5.2913Y-3.0551
X5.2913Y-3.1575
X6.2992Y-1.878
X4.5827Y-3.8189
X6.0039Y-1.7244
X4.6535Y-1.2047
X1.7378Y0.4076
T5
X3.1079Y-4.4215
X3.258Y-4.6358
X3.3285Y-4.2365
X3.5073Y-4.4919
X5.9485Y-3.5972
X5.9485Y-3.7153
X6.1453Y-3.5972
X6.1453Y-3.7153
X5.3188Y-3.2794
X5.4188Y-3.2794
X5.5188Y-3.2794
X5.6188Y-3.2794
X5.7188Y-3.2794
X5.8188Y-3.2794
X5.9188Y-3.2794
X6.0188Y-3.2794
X6.1188Y-3.2794
X4.9547Y-3.8391
X4.9547Y-3.9375
X4.9547Y-4.0359
X5.5256Y-3.8391
X5.5256Y-4.0359
T6
X3.0888Y-4.53
X3.1332Y-4.278
X3.1495Y-4.6167
X3.2199Y-4.2173
X3.4015Y-4.6611
X3.4719Y-4.2618
X3.4882Y-4.6004
X3.5326Y-4.3484
T8
X-0.7192Y-2.7291
X-0.1331Y0.5947
X1.3691Y-3.5733
X1.8491Y0.7687
X2.7921Y-4.681
X3.3838Y-3.2146
X3.9163Y-4.8778
X4.4063Y-0.0938
X4.6736Y-2.8837
X5.1563Y-0.0938
X5.2323Y-4.5
X6.4239Y-0.4688
X6.4239Y-3.5625
T3
G00X4.6112Y-0.0204
M15
G01X4.6112Y0.0032
M16
G05
G00X4.6112Y-0.1948
M15
G01X4.6112Y-0.1515
M16
G05
G00X4.9513Y-0.0204
M15
G01X4.9513Y0.0032
M16
G05
G00X4.9513Y-0.1948
M15
G01X4.9513Y-0.1515
M16
G05
T4
G00X5.4442Y-0.5764
M15
G01X5.4303Y-0.5903
M16
G05
G00X5.5416Y-0.4789
M15
G01X5.5277Y-0.4928
M16
G05
G00X5.6307Y-0.3898
M15
G01X5.6168Y-0.4038
M16
G05
G00X5.6335Y-0.7657
M15
G01X5.6196Y-0.7796
M16
G05
G00X5.7309Y-0.6682
M15
G01X5.717Y-0.6821
M16
G05
G00X5.82Y-0.5791
M15
G01X5.8061Y-0.5931
M16
G05
T7
G00X5.2244Y-3.717
M15
G01X5.2756Y-3.717
M16
G05
G00X5.2244Y-4.158
M15
G01X5.2756Y-4.158
M16
G05
T0
M30
