M48
; DRILL file {KiCad (5.1.7)-1} date 10/07/20 08:34:44
; FORMAT={-:-/ absolute / inch / decimal}
; #@! TF.CreationDate,2020-10-07T08:34:44+11:00
; #@! TF.GenerationSoftware,Kicad,Pcbnew,(5.1.7)-1
; #@! TF.FileFunction,NonPlated,1,2,NPTH
FMAT,2
INCH
T1C0.0256
T2C0.0630
T3C0.0689
T4C0.1299
T5C0.1570
%
G90
G05
T1
X4.6675Y-0.1523
X4.895Y-0.1523
T2
X5.5319Y-0.678
X5.6989Y-0.5109
T3
X3.5449Y-0.3395
X3.9388Y-0.4089
X4.0882Y-1.5776
X4.4821Y-1.6471
X0.1835Y-2.1267
X0.5774Y-2.1961
X1.8723Y-1.1869
X2.2663Y-1.2564
X-0.5877Y-2.1811
X-0.1937Y-2.2506
X3.2844Y-1.8167
X3.6784Y-1.8862
X1.7668Y-3.4054
X2.1607Y-3.4749
X2.1328Y0.2903
X2.5267Y0.2208
X2.8552Y0.0677
X3.2491Y-0.0017
X0.9547Y-2.0723
X1.3486Y-2.1417
X3.9579Y-2.3162
X4.3519Y-2.3857
X1.7421Y-1.9255
X2.136Y-1.995
X2.7249Y-0.6709
X3.1188Y-0.7403
X-0.197Y0.0347
X0.197Y-0.0347
X1.0849Y-1.3337
X1.4788Y-1.4031
X-0.3272Y-0.7039
X0.0667Y-0.7733
X3.8277Y-3.0548
X4.2216Y-3.1243
X2.5054Y-3.5357
X2.8993Y-3.6051
X3.4147Y-1.0781
X3.8086Y-1.1475
X0.3137Y-1.3881
X0.7077Y-1.4575
X4.2184Y-0.839
X4.6123Y-0.9085
X3.9175Y-4.1654
X4.3114Y-4.2349
X3.2196Y-3.8044
X3.6135Y-3.8738
X2.0026Y-0.4483
X2.3965Y-0.5178
X0.5742Y0.0891
X0.9681Y0.0197
X1.3454Y0.1436
X1.7393Y0.0741
X-0.4574Y-1.4425
X-0.0635Y-1.5119
X3.1542Y-2.5553
X3.5481Y-2.6248
X0.444Y-0.6495
X0.8379Y-0.7189
X1.2151Y-0.595
X1.6091Y-0.6645
X2.5947Y-1.4095
X2.9886Y-1.4789
X2.4644Y-2.1481
X2.8584Y-2.2175
T4
X5.0475Y-0.8109
X5.0475Y-3.2204
X6.39Y-0.8109
X6.39Y-3.2204
T5
X1.4121Y-0.6298
X2.7916Y-1.4442
X2.6614Y-2.1828
X3.7419Y-0.3742
X4.2851Y-1.6124
X0.3805Y-2.1614
X2.0693Y-1.2216
X-0.3907Y-2.2158
X3.4814Y-1.8514
X1.9637Y-3.4401
X2.3298Y0.2556
X3.0521Y0.033
X1.1516Y-2.107
X4.1549Y-2.351
X1.9391Y-1.9603
X2.9219Y-0.7056
X0.0Y0.0
X1.2819Y-1.3684
X-0.1302Y-0.7386
X4.0247Y-3.0896
X2.7023Y-3.5704
X3.6116Y-1.1128
X0.5107Y-1.4228
X4.4154Y-0.8737
X4.1144Y-4.2002
X3.4165Y-3.8391
X2.1995Y-0.483
X0.7712Y0.0544
X1.5423Y0.1088
X-0.2605Y-1.4772
X3.3512Y-2.59
X0.6409Y-0.6842
T0
M30
