  0
SECTION
  2
HEADER
  9
$ACADVER
  1
AC1027
  9
$ACADMAINTVER
 70
105
  9
$DWGCODEPAGE
  3
ANSI_1252
  9
$LASTSAVEDBY
  1
ezdxf
  9
$REQUIREDVERSIONS
160
0
  9
$INSBASE
 10
0.0
 20
0.0
 30
0.0
  9
$EXTMIN
 10
-100
 20
-100
 30
-100
  9
$EXTMAX
 10
100
 20
100
 30
100
  9
$LIMMIN
 10
0.0
 20
0.0
  9
$LIMMAX
 10
420.0
 20
297.0
  9
$ORTHOMODE
 70
0
  9
$REGENMODE
 70
1
  9
$FILLMODE
 70
1
  9
$QTEXTMODE
 70
0
  9
$MIRRTEXT
 70
1
  9
$LTSCALE
 40
1.0
  9
$ATTMODE
 70
1
  9
$TEXTSIZE
 40
2.5
  9
$TRACEWID
 40
1.0
  9
$TEXTSTYLE
  7
Standard
  9
$CLAYER
  8
0
  9
$CELTYPE
  6
ByLayer
  9
$CECOLOR
 62
256
  9
$CELTSCALE
 40
1.0
  9
$DISPSILH
 70
0
  9
$DIMSCALE
 40
1.0
  9
$DIMASZ
 40
2.5
  9
$DIMEXO
 40
0.625
  9
$DIMDLI
 40
3.75
  9
$DIMRND
 40
0.0
  9
$DIMDLE
 40
0.0
  9
$DIMEXE
 40
1.25
  9
$DIMTP
 40
0.0
  9
$DIMTM
 40
0.0
  9
$DIMTXT
 40
2.5
  9
$DIMCEN
 40
2.5
  9
$DIMTSZ
 40
0.0
  9
$DIMTOL
 70
0
  9
$DIMLIM
 70
0
  9
$DIMTIH
 70
0
  9
$DIMTOH
 70
0
  9
$DIMSE1
 70
0
  9
$DIMSE2
 70
0
  9
$DIMTAD
 70
1
  9
$DIMZIN
 70
8
  9
$DIMBLK
  1

  9
$DIMASO
 70
1
  9
$DIMSHO
 70
1
  9
$DIMPOST
  1

  9
$DIMAPOST
  1

  9
$DIMALT
 70
0
  9
$DIMALTD
 70
3
  9
$DIMALTF
 40
0.03937007874
  9
$DIMLFAC
 40
1.0
  9
$DIMTOFL
 70
1
  9
$DIMTVP
 40
0.0
  9
$DIMTIX
 70
0
  9
$DIMSOXD
 70
0
  9
$DIMSAH
 70
0
  9
$DIMBLK1
  1

  9
$DIMBLK2
  1

  9
$DIMSTYLE
  2
ISO-25
  9
$DIMCLRD
 70
0
  9
$DIMCLRE
 70
0
  9
$DIMCLRT
 70
0
  9
$DIMTFAC
 40
1.0
  9
$DIMGAP
 40
0.625
  9
$DIMJUST
 70
0
  9
$DIMSD1
 70
0
  9
$DIMSD2
 70
0
  9
$DIMTOLJ
 70
0
  9
$DIMTZIN
 70
8
  9
$DIMALTZ
 70
0
  9
$DIMALTTZ
 70
0
  9
$DIMUPT
 70
0
  9
$DIMDEC
 70
2
  9
$DIMTDEC
 70
2
  9
$DIMALTU
 70
2
  9
$DIMALTTD
 70
3
  9
$DIMTXSTY
  7
Standard
  9
$DIMAUNIT
 70
0
  9
$DIMADEC
 70
0
  9
$DIMALTRND
 40
0.0
  9
$DIMAZIN
 70
0
  9
$DIMDSEP
 70
44
  9
$DIMATFIT
 70
3
  9
$DIMFRAC
 70
0
  9
$DIMLDRBLK
  1

  9
$DIMLUNIT
 70
2
  9
$DIMLWD
 70
-2
  9
$DIMLWE
 70
-2
  9
$DIMTMOVE
 70
0
  9
$DIMFXL
 40
1.0
  9
$DIMFXLON
 70
0
  9
$DIMJOGANG
 40
0.785398163397
  9
$DIMTFILL
 70
0
  9
$DIMTFILLCLR
 70
0
  9
$DIMARCSYM
 70
0
  9
$DIMLTYPE
  6

  9
$DIMLTEX1
  6

  9
$DIMLTEX2
  6

  9
$DIMTXTDIRECTION
 70
0
  9
$LUNITS
 70
2
  9
$LUPREC
 70
4
  9
$SKETCHINC
 40
1.0
  9
$FILLETRAD
 40
10.0
  9
$AUNITS
 70
0
  9
$AUPREC
 70
2
  9
$MENU
  1
.
  9
$ELEVATION
 40
0.0
  9
$PELEVATION
 40
0.0
  9
$THICKNESS
 40
0.0
  9
$LIMCHECK
 70
0
  9
$CHAMFERA
 40
0.0
  9
$CHAMFERB
 40
0.0
  9
$CHAMFERC
 40
0.0
  9
$CHAMFERD
 40
0.0
  9
$SKPOLY
 70
0
  9
$TDCREATE
 40
2459316.6233449075
  9
$TDUCREATE
 40
2458532.153996898
  9
$TDUPDATE
 40
2459316.6233449075
  9
$TDUUPDATE
 40
2458532.1544311
  9
$TDINDWG
 40
0.0
  9
$TDUSRTIMER
 40
0.0
  9
$USRTIMER
 70
1
  9
$ANGBASE
 50
0.0
  9
$ANGDIR
 70
0
  9
$PDMODE
 70
0
  9
$PDSIZE
 40
0.0
  9
$PLINEWID
 40
0.0
  9
$SPLFRAME
 70
0
  9
$SPLINETYPE
 70
6
  9
$SPLINESEGS
 70
8
  9
$HANDSEED
  5
12E
  9
$SURFTAB1
 70
6
  9
$SURFTAB2
 70
6
  9
$SURFTYPE
 70
6
  9
$SURFU
 70
6
  9
$SURFV
 70
6
  9
$UCSBASE
  2

  9
$UCSNAME
  2

  9
$UCSORG
 10
0.0
 20
0.0
 30
0.0
  9
$UCSXDIR
 10
1.0
 20
0.0
 30
0.0
  9
$UCSYDIR
 10
0.0
 20
1.0
 30
0.0
  9
$UCSORTHOREF
  2

  9
$UCSORTHOVIEW
 70
0
  9
$UCSORGTOP
 10
0.0
 20
0.0
 30
0.0
  9
$UCSORGBOTTOM
 10
0.0
 20
0.0
 30
0.0
  9
$UCSORGLEFT
 10
0.0
 20
0.0
 30
0.0
  9
$UCSORGRIGHT
 10
0.0
 20
0.0
 30
0.0
  9
$UCSORGFRONT
 10
0.0
 20
0.0
 30
0.0
  9
$UCSORGBACK
 10
0.0
 20
0.0
 30
0.0
  9
$PUCSBASE
  2

  9
$PUCSNAME
  2

  9
$PUCSORG
 10
0.0
 20
0.0
 30
0.0
  9
$PUCSXDIR
 10
1.0
 20
0.0
 30
0.0
  9
$PUCSYDIR
 10
0.0
 20
1.0
 30
0.0
  9
$PUCSORTHOREF
  2

  9
$PUCSORTHOVIEW
 70
0
  9
$PUCSORGTOP
 10
0.0
 20
0.0
 30
0.0
  9
$PUCSORGBOTTOM
 10
0.0
 20
0.0
 30
0.0
  9
$PUCSORGLEFT
 10
0.0
 20
0.0
 30
0.0
  9
$PUCSORGRIGHT
 10
0.0
 20
0.0
 30
0.0
  9
$PUCSORGFRONT
 10
0.0
 20
0.0
 30
0.0
  9
$PUCSORGBACK
 10
0.0
 20
0.0
 30
0.0
  9
$USERI1
 70
0
  9
$USERI2
 70
0
  9
$USERI3
 70
0
  9
$USERI4
 70
0
  9
$USERI5
 70
0
  9
$USERR1
 40
0.0
  9
$USERR2
 40
0.0
  9
$USERR3
 40
0.0
  9
$USERR4
 40
0.0
  9
$USERR5
 40
0.0
  9
$WORLDVIEW
 70
1
  9
$SHADEDGE
 70
3
  9
$SHADEDIF
 70
70
  9
$TILEMODE
 70
1
  9
$MAXACTVP
 70
64
  9
$PINSBASE
 10
0.0
 20
0.0
 30
0.0
  9
$PLIMCHECK
 70
0
  9
$PEXTMIN
 10
1e+20
 20
1e+20
 30
1e+20
  9
$PEXTMAX
 10
-1e+20
 20
-1e+20
 30
-1e+20
  9
$PLIMMIN
 10
0.0
 20
0.0
  9
$PLIMMAX
 10
420.0
 20
297.0
  9
$UNITMODE
 70
0
  9
$VISRETAIN
 70
1
  9
$PLINEGEN
 70
0
  9
$PSLTSCALE
 70
1
  9
$TREEDEPTH
 70
3020
  9
$CMLSTYLE
  2
Standard
  9
$CMLJUST
 70
0
  9
$CMLSCALE
 40
20.0
  9
$PROXYGRAPHICS
 70
1
  9
$MEASUREMENT
 70
1
  9
$CELWEIGHT
370
-1
  9
$ENDCAPS
280
0
  9
$JOINSTYLE
280
0
  9
$LWDISPLAY
290
0
  9
$INSUNITS
 70
6
  9
$HYPERLINKBASE
  1

  9
$STYLESHEET
  1

  9
$XEDIT
290
1
  9
$CEPSNTYPE
380
0
  9
$PSTYLEMODE
290
1
  9
$FINGERPRINTGUID
  2
6F87C2CF-9A82-11EB-A5B0-40B0765E6A6C
  9
$VERSIONGUID
  2
6F8CCBD0-9A82-11EB-AA24-40B0765E6A6C
  9
$EXTNAMES
290
1
  9
$PSVPSCALE
 40
0.0
  9
$OLESTARTUP
290
0
  9
$SORTENTS
280
127
  9
$INDEXCTL
280
0
  9
$HIDETEXT
280
1
  9
$XCLIPFRAME
280
2
  9
$HALOGAP
280
0
  9
$OBSCOLOR
 70
257
  9
$OBSLTYPE
280
0
  9
$INTERSECTIONDISPLAY
280
0
  9
$INTERSECTIONCOLOR
 70
257
  9
$DIMASSOC
280
2
  9
$PROJECTNAME
  1

  9
$CAMERADISPLAY
290
0
  9
$LENSLENGTH
 40
50.0
  9
$CAMERAHEIGHT
 40
0.0
  9
$STEPSPERSEC
 40
24.0
  9
$STEPSIZE
 40
100.0
  9
$3DDWFPREC
 40
2.0
  9
$PSOLWIDTH
 40
0.005
  9
$PSOLHEIGHT
 40
0.08
  9
$LOFTANG1
 40
1.570796326795
  9
$LOFTANG2
 40
1.570796326795
  9
$LOFTMAG1
 40
0.0
  9
$LOFTMAG2
 40
0.0
  9
$LOFTPARAM
 70
7
  9
$LOFTNORMALS
280
1
  9
$LATITUDE
 40
37.795
  9
$LONGITUDE
 40
-122.394
  9
$NORTHDIRECTION
 40
0.0
  9
$TIMEZONE
 70
-8000
  9
$LIGHTGLYPHDISPLAY
280
1
  9
$TILEMODELIGHTSYNCH
280
1
  9
$CMATERIAL
347
20
  9
$SOLIDHIST
280
0
  9
$SHOWHIST
280
1
  9
$DWFFRAME
280
2
  9
$DGNFRAME
280
2
  9
$REALWORLDSCALE
290
1
  9
$INTERFERECOLOR
 62
256
  9
$CSHADOW
280
0
  9
$SHADOWPLANELOCATION
 40
0.0
  0
ENDSEC
  0
SECTION
  2
CLASSES
  0
CLASS
  1
ACDBDICTIONARYWDFLT
  2
AcDbDictionaryWithDefault
  3
ObjectDBX Classes
 90
0
 91
0
280
0
281
0
  0
CLASS
  1
SUN
  2
AcDbSun
  3
SCENEOE
 90
1153
 91
0
280
0
281
0
  0
CLASS
  1
VISUALSTYLE
  2
AcDbVisualStyle
  3
ObjectDBX Classes
 90
4095
 91
0
280
0
281
0
  0
CLASS
  1
MATERIAL
  2
AcDbMaterial
  3
ObjectDBX Classes
 90
1153
 91
0
280
0
281
0
  0
CLASS
  1
SCALE
  2
AcDbScale
  3
ObjectDBX Classes
 90
1153
 91
0
280
0
281
0
  0
CLASS
  1
TABLESTYLE
  2
AcDbTableStyle
  3
ObjectDBX Classes
 90
4095
 91
0
280
0
281
0
  0
CLASS
  1
MLEADERSTYLE
  2
AcDbMLeaderStyle
  3
ACDB_MLEADERSTYLE_CLASS
 90
4095
 91
0
280
0
281
0
  0
CLASS
  1
DICTIONARYVAR
  2
AcDbDictionaryVar
  3
ObjectDBX Classes
 90
0
 91
0
280
0
281
0
  0
CLASS
  1
CELLSTYLEMAP
  2
AcDbCellStyleMap
  3
ObjectDBX Classes
 90
1152
 91
0
280
0
281
0
  0
CLASS
  1
MENTALRAYRENDERSETTINGS
  2
AcDbMentalRayRenderSettings
  3
SCENEOE
 90
1024
 91
0
280
0
281
0
  0
CLASS
  1
ACDBDETAILVIEWSTYLE
  2
AcDbDetailViewStyle
  3
ObjectDBX Classes
 90
1025
 91
0
280
0
281
0
  0
CLASS
  1
ACDBSECTIONVIEWSTYLE
  2
AcDbSectionViewStyle
  3
ObjectDBX Classes
 90
1025
 91
0
280
0
281
0
  0
CLASS
  1
RASTERVARIABLES
  2
AcDbRasterVariables
  3
ISM
 90
0
 91
0
280
0
281
0
  0
CLASS
  1
ACDBPLACEHOLDER
  2
AcDbPlaceHolder
  3
ObjectDBX Classes
 90
0
 91
0
280
0
281
0
  0
CLASS
  1
LAYOUT
  2
AcDbLayout
  3
ObjectDBX Classes
 90
0
 91
0
280
0
281
0
  0
ENDSEC
  0
SECTION
  2
TABLES
  0
TABLE
  2
VPORT
  5
8
330
0
100
AcDbSymbolTable
 70
1
  0
VPORT
  5
23
330
8
100
AcDbSymbolTableRecord
100
AcDbViewportTableRecord
  2
*Active
 70
0
 10
0.0
 20
0.0
 11
1.0
 21
1.0
 12
70.0
 22
50.0
 13
0.0
 23
0.0
 14
0.5
 24
0.5
 15
0.5
 25
0.5
 16
0.0
 26
0.0
 36
1.0
 17
0.0
 27
0.0
 37
0.0
 40
1.0
 41
1.34
 42
50.0
 43
0.0
 44
0.0
 50
0.0
 51
0.0
 71
0
 72
1000
 73
1
 74
3
 75
0
 76
0
 77
0
 78
0
281
0
 65
0
146
0.0
  0
ENDTAB
  0
TABLE
  2
LTYPE
  5
2
330
0
100
AcDbSymbolTable
 70
3
  0
LTYPE
  5
24
330
2
100
AcDbSymbolTableRecord
100
AcDbLinetypeTableRecord
  2
ByBlock
 70
0
  3

 72
65
 73
0
 40
0.0
  0
LTYPE
  5
25
330
2
100
AcDbSymbolTableRecord
100
AcDbLinetypeTableRecord
  2
ByLayer
 70
0
  3

 72
65
 73
0
 40
0.0
  0
LTYPE
  5
26
330
2
100
AcDbSymbolTableRecord
100
AcDbLinetypeTableRecord
  2
Continuous
 70
0
  3

 72
65
 73
0
 40
0.0
  0
ENDTAB
  0
TABLE
  2
LAYER
  5
1
330
0
100
AcDbSymbolTable
 70
2
  0
LAYER
  5
27
330
1
100
AcDbSymbolTableRecord
100
AcDbLayerTableRecord
  2
0
 70
0
 62
7
  6
Continuous
370
-3
390
13
347
21
  0
LAYER
  5
28
330
1
100
AcDbSymbolTableRecord
100
AcDbLayerTableRecord
  2
Defpoints
 70
0
 62
7
  6
Continuous
290
0
370
-3
390
13
347
21
  0
ENDTAB
  0
TABLE
  2
STYLE
  5
5
330
0
100
AcDbSymbolTable
 70
1
  0
STYLE
  5
29
330
5
100
AcDbSymbolTableRecord
100
AcDbTextStyleTableRecord
  2
Standard
 70
0
 40
0.0
 41
1.0
 50
0.0
 71
0
 42
2.5
  3
txt
  4

  0
ENDTAB
  0
TABLE
  2
VIEW
  5
7
330
0
100
AcDbSymbolTable
 70
0
  0
ENDTAB
  0
TABLE
  2
UCS
  5
6
330
0
100
AcDbSymbolTable
 70
0
  0
ENDTAB
  0
TABLE
  2
APPID
  5
3
330
0
100
AcDbSymbolTable
 70
2
  0
APPID
  5
2A
330
3
100
AcDbSymbolTableRecord
100
AcDbRegAppTableRecord
  2
ACAD
 70
0
  0
APPID
  5
12D
330
3
100
AcDbSymbolTableRecord
100
AcDbRegAppTableRecord
  2
HATCHBACKGROUNDCOLOR
 70
0
  0
ENDTAB
  0
TABLE
  2
DIMSTYLE
  5
4
330
0
100
AcDbSymbolTable
 70
1
100
AcDbDimStyleTable
  0
DIMSTYLE
105
2B
330
4
100
AcDbSymbolTableRecord
100
AcDbDimStyleTableRecord
  2
Standard
 70
0
 40
1.0
 41
2.5
 42
0.625
 43
3.75
 44
1.25
 45
0.0
 46
0.0
 47
0.0
 48
0.0
 49
2.5
140
2.5
141
2.5
142
0.0
143
0.03937007874
144
1.0
145
0.0
146
1.0
147
0.625
148
0.0
 69
0
 70
0
 71
0
 72
0
 73
0
 74
0
 75
0
 76
0
 77
1
 78
8
 79
0
170
0
171
3
172
1
173
0
174
0
175
0
176
0
177
0
178
0
179
0
271
0
272
2
273
2
274
3
275
0
276
0
277
2
278
44
279
0
280
0
281
0
282
0
283
0
284
8
285
0
286
0
288
0
289
3
290
0
371
-2
372
-2
  0
ENDTAB
  0
TABLE
  2
BLOCK_RECORD
  5
9
330
0
100
AcDbSymbolTable
 70
2
  0
BLOCK_RECORD
  5
17
330
9
100
AcDbSymbolTableRecord
100
AcDbBlockTableRecord
  2
*Model_Space
340
1A
 70
0
280
1
281
0
  0
BLOCK_RECORD
  5
1B
330
9
100
AcDbSymbolTableRecord
100
AcDbBlockTableRecord
  2
*Paper_Space
340
1E
 70
0
280
1
281
0
  0
ENDTAB
  0
ENDSEC
  0
SECTION
  2
BLOCKS
  0
BLOCK
  5
18
330
17
100
AcDbEntity
  8
0
100
AcDbBlockBegin
  2
*Model_Space
 70
0
 10
0.0
 20
0.0
 30
0.0
  3
*Model_Space
  1

  0
ENDBLK
  5
19
330
17
100
AcDbEntity
  8
0
100
AcDbBlockEnd
  0
BLOCK
  5
1C
330
1B
100
AcDbEntity
  8
0
100
AcDbBlockBegin
  2
*Paper_Space
 70
0
 10
0.0
 20
0.0
 30
0.0
  3
*Paper_Space
  1

  0
ENDBLK
  5
1D
330
1B
100
AcDbEntity
  8
0
100
AcDbBlockEnd
  0
ENDSEC
  0
SECTION
  2
ENTITIES
  0
ARC
  5
2D
330
17
100
AcDbEntity
  8
0
100
AcDbCircle
 10
-0.006500000000000001
 20
0.006500000000000001
 30
0.0
 40
0.0004999999999999996
100
AcDbArc
 50
89.9999999999999
 51
180.00000000000009
  0
LINE
  5
2E
330
17
100
AcDbEntity
  8
0
100
AcDbLine
 10
-0.007
 20
-0.0065
 30
0.0
 11
-0.007
 21
0.0065
 31
0.0
  0
ARC
  5
2F
330
17
100
AcDbEntity
  8
0
100
AcDbCircle
 10
-0.006500000000000001
 20
-0.006500000000000001
 30
0.0
 40
0.0004999999999999996
100
AcDbArc
 50
179.9999999999999
 51
270.0000000000001
  0
LINE
  5
30
330
17
100
AcDbEntity
  8
0
100
AcDbLine
 10
0.0065
 20
-0.007
 30
0.0
 11
-0.0065
 21
-0.007
 31
0.0
  0
ARC
  5
31
330
17
100
AcDbEntity
  8
0
100
AcDbCircle
 10
0.006500000000000001
 20
-0.006500000000000001
 30
0.0
 40
0.0004999999999999996
100
AcDbArc
 50
-90.00000000000011
 51
1.1368683772161603e-13
  0
LINE
  5
32
330
17
100
AcDbEntity
  8
0
100
AcDbLine
 10
0.007
 20
0.0065
 30
0.0
 11
0.007
 21
-0.0065
 31
0.0
  0
ARC
  5
33
330
17
100
AcDbEntity
  8
0
100
AcDbCircle
 10
0.006500000000000001
 20
0.006500000000000001
 30
0.0
 40
0.0004999999999999996
100
AcDbArc
 50
-1.1368683772161603e-13
 51
90.0000000000001
  0
LINE
  5
34
330
17
100
AcDbEntity
  8
0
100
AcDbLine
 10
-0.0065
 20
0.007
 30
0.0
 11
0.0065
 21
0.007
 31
0.0
  0
ARC
  5
35
330
17
100
AcDbEntity
  8
0
100
AcDbCircle
 10
-0.006500000000000001
 20
-0.012550000000000002
 30
0.0
 40
0.0005
100
AcDbArc
 50
89.9999999999999
 51
180.0
  0
LINE
  5
36
330
17
100
AcDbEntity
  8
0
100
AcDbLine
 10
-0.007
 20
-0.02555
 30
0.0
 11
-0.007000000000000001
 21
-0.012550000000000002
 31
0.0
  0
ARC
  5
37
330
17
100
AcDbEntity
  8
0
100
AcDbCircle
 10
-0.006500000000000003
 20
-0.025550000000000003
 30
0.0
 40
0.000499999999999997
100
AcDbArc
 50
179.9999999999996
 51
270.0000000000004
  0
LINE
  5
38
330
17
100
AcDbEntity
  8
0
100
AcDbLine
 10
0.0065
 20
-0.02605
 30
0.0
 11
-0.0065
 21
-0.02605
 31
0.0
  0
ARC
  5
39
330
17
100
AcDbEntity
  8
0
100
AcDbCircle
 10
0.006500000000000003
 20
-0.025550000000000003
 30
0.0
 40
0.000499999999999997
100
AcDbArc
 50
-90.0000000000004
 51
3.979039320256561e-13
  0
LINE
  5
3A
330
17
100
AcDbEntity
  8
0
100
AcDbLine
 10
0.007000000000000001
 20
-0.012550000000000002
 30
0.0
 11
0.007
 21
-0.02555
 31
0.0
  0
ARC
  5
3B
330
17
100
AcDbEntity
  8
0
100
AcDbCircle
 10
0.006500000000000001
 20
-0.012550000000000002
 30
0.0
 40
0.0005
100
AcDbArc
 50
0.0
 51
90.0000000000001
  0
LINE
  5
3C
330
17
100
AcDbEntity
  8
0
100
AcDbLine
 10
-0.0065
 20
-0.012050000000000002
 30
0.0
 11
0.0065
 21
-0.012050000000000002
 31
0.0
  0
ARC
  5
3D
330
17
100
AcDbEntity
  8
0
100
AcDbCircle
 10
-0.006499999999999997
 20
-0.0316
 30
0.0
 40
0.0005000000000000016
100
AcDbArc
 50
90.0000000000003
 51
180.0
  0
LINE
  5
3E
330
17
100
AcDbEntity
  8
0
100
AcDbLine
 10
-0.006999999999999998
 20
-0.0446
 30
0.0
 11
-0.006999999999999998
 21
-0.0316
 31
0.0
  0
ARC
  5
3F
330
17
100
AcDbEntity
  8
0
100
AcDbCircle
 10
-0.006499999999999997
 20
-0.0446
 30
0.0
 40
0.0005000000000000016
100
AcDbArc
 50
180.0
 51
269.9999999999997
  0
LINE
  5
40
330
17
100
AcDbEntity
  8
0
100
AcDbLine
 10
0.0065
 20
-0.0451
 30
0.0
 11
-0.0065
 21
-0.0451
 31
0.0
  0
ARC
  5
41
330
17
100
AcDbEntity
  8
0
100
AcDbCircle
 10
0.006499999999999997
 20
-0.0446
 30
0.0
 40
0.0005000000000000016
100
AcDbArc
 50
270.0000000000003
 51
360.0
  0
LINE
  5
42
330
17
100
AcDbEntity
  8
0
100
AcDbLine
 10
0.006999999999999998
 20
-0.0316
 30
0.0
 11
0.007
 21
-0.0446
 31
0.0
  0
ARC
  5
43
330
17
100
AcDbEntity
  8
0
100
AcDbCircle
 10
0.006499999999999997
 20
-0.0316
 30
0.0
 40
0.0005000000000000016
100
AcDbArc
 50
0.0
 51
89.9999999999997
  0
LINE
  5
44
330
17
100
AcDbEntity
  8
0
100
AcDbLine
 10
-0.0065
 20
-0.031100000000000003
 30
0.0
 11
0.0065
 21
-0.031100000000000003
 31
0.0
  0
ARC
  5
45
330
17
100
AcDbEntity
  8
0
100
AcDbCircle
 10
-0.006499999999999997
 20
-0.05065000000000001
 30
0.0
 40
0.0005000000000000016
100
AcDbArc
 50
90.0000000000003
 51
180.0
  0
LINE
  5
46
330
17
100
AcDbEntity
  8
0
100
AcDbLine
 10
-0.006999999999999992
 20
-0.06365000000000001
 30
0.0
 11
-0.006999999999999998
 21
-0.05065000000000001
 31
0.0
  0
ARC
  5
47
330
17
100
AcDbEntity
  8
0
100
AcDbCircle
 10
-0.006500000000000001
 20
-0.06365000000000003
 30
0.0
 40
0.0004999999999999921
100
AcDbArc
 50
179.9999999999984
 51
270.0000000000001
  0
LINE
  5
48
330
17
100
AcDbEntity
  8
0
100
AcDbLine
 10
0.0065
 20
-0.06415000000000001
 30
0.0
 11
-0.0065
 21
-0.06415000000000001
 31
0.0
  0
ARC
  5
49
330
17
100
AcDbEntity
  8
0
100
AcDbCircle
 10
0.006499999999999992
 20
-0.06365000000000001
 30
0.0
 40
0.0005000000000000039
100
AcDbArc
 50
270.0000000000009
 51
360.0
  0
LINE
  5
4A
330
17
100
AcDbEntity
  8
0
100
AcDbLine
 10
0.006999999999999998
 20
-0.05065000000000001
 30
0.0
 11
0.007
 21
-0.06365000000000001
 31
0.0
  0
ARC
  5
4B
330
17
100
AcDbEntity
  8
0
100
AcDbCircle
 10
0.006499999999999997
 20
-0.05065000000000001
 30
0.0
 40
0.0005000000000000016
100
AcDbArc
 50
0.0
 51
89.9999999999997
  0
LINE
  5
4C
330
17
100
AcDbEntity
  8
0
100
AcDbLine
 10
-0.0065
 20
-0.05015000000000001
 30
0.0
 11
0.0065
 21
-0.05015000000000001
 31
0.0
  0
ARC
  5
4D
330
17
100
AcDbEntity
  8
0
100
AcDbCircle
 10
0.012550000000000002
 20
0.011262500000000002
 30
0.0
 40
0.0004999999999999996
100
AcDbArc
 50
90.0
 51
180.0000000000002
  0
LINE
  5
4E
330
17
100
AcDbEntity
  8
0
100
AcDbLine
 10
0.012050000000000002
 20
-0.0017374999999999995
 30
0.0
 11
0.012050000000000002
 21
0.0112625
 31
0.0
  0
ARC
  5
4F
330
17
100
AcDbEntity
  8
0
100
AcDbCircle
 10
0.012550000000000002
 20
-0.0017375
 30
0.0
 40
0.0005000000000000003
100
AcDbArc
 50
179.99999999999994
 51
270.0
  0
LINE
  5
50
330
17
100
AcDbEntity
  8
0
100
AcDbLine
 10
0.02555
 20
-0.0022375
 30
0.0
 11
0.012550000000000002
 21
-0.0022375
 31
0.0
  0
ARC
  5
51
330
17
100
AcDbEntity
  8
0
100
AcDbCircle
 10
0.025550000000000003
 20
-0.001737500000000003
 30
0.0
 40
0.000499999999999997
100
AcDbArc
 50
-90.0000000000004
 51
3.979039320256561e-13
  0
LINE
  5
52
330
17
100
AcDbEntity
  8
0
100
AcDbLine
 10
0.02605
 20
0.0112625
 30
0.0
 11
0.02605
 21
-0.0017374999999999995
 31
0.0
  0
ARC
  5
53
330
17
100
AcDbEntity
  8
0
100
AcDbCircle
 10
0.025550000000000003
 20
0.011262500000000005
 30
0.0
 40
0.000499999999999996
100
AcDbArc
 50
-5.968558980384842e-13
 51
90.0000000000004
  0
LINE
  5
54
330
17
100
AcDbEntity
  8
0
100
AcDbLine
 10
0.012550000000000002
 20
0.011762500000000002
 30
0.0
 11
0.02555
 21
0.0117625
 31
0.0
  0
ARC
  5
55
330
17
100
AcDbEntity
  8
0
100
AcDbCircle
 10
0.012550000000000002
 20
-0.007787500000000001
 30
0.0
 40
0.0005
100
AcDbArc
 50
90.0
 51
180.00000000000009
  0
LINE
  5
56
330
17
100
AcDbEntity
  8
0
100
AcDbLine
 10
0.012050000000000002
 20
-0.0207875
 30
0.0
 11
0.012050000000000002
 21
-0.007787500000000003
 31
0.0
  0
ARC
  5
57
330
17
100
AcDbEntity
  8
0
100
AcDbCircle
 10
0.012550000000000006
 20
-0.020787499999999997
 30
0.0
 40
0.000500000000000004
100
AcDbArc
 50
180.0000000000004
 51
269.9999999999996
  0
LINE
  5
58
330
17
100
AcDbEntity
  8
0
100
AcDbLine
 10
0.02555
 20
-0.021287499999999997
 30
0.0
 11
0.012550000000000002
 21
-0.0212875
 31
0.0
  0
ARC
  5
59
330
17
100
AcDbEntity
  8
0
100
AcDbCircle
 10
0.025550000000000003
 20
-0.0207875
 30
0.0
 40
0.0004999999999999986
100
AcDbArc
 50
269.9999999999996
 51
360.0
  0
LINE
  5
5A
330
17
100
AcDbEntity
  8
0
100
AcDbLine
 10
0.02605
 20
-0.007787500000000002
 30
0.0
 11
0.02605
 21
-0.0207875
 31
0.0
  0
ARC
  5
5B
330
17
100
AcDbEntity
  8
0
100
AcDbCircle
 10
0.025550000000000003
 20
-0.007787499999999998
 30
0.0
 40
0.000499999999999997
100
AcDbArc
 50
-3.979039320256561e-13
 51
90.0000000000004
  0
LINE
  5
5C
330
17
100
AcDbEntity
  8
0
100
AcDbLine
 10
0.012550000000000002
 20
-0.007287500000000001
 30
0.0
 11
0.02555
 21
-0.0072875000000000014
 31
0.0
  0
ARC
  5
5D
330
17
100
AcDbEntity
  8
0
100
AcDbCircle
 10
0.012550000000000006
 20
-0.026837500000000004
 30
0.0
 40
0.000500000000000004
100
AcDbArc
 50
90.0000000000004
 51
179.9999999999996
  0
LINE
  5
5E
330
17
100
AcDbEntity
  8
0
100
AcDbLine
 10
0.012050000000000003
 20
-0.0398375
 30
0.0
 11
0.012050000000000002
 21
-0.0268375
 31
0.0
  0
ARC
  5
5F
330
17
100
AcDbEntity
  8
0
100
AcDbCircle
 10
0.012550000000000006
 20
-0.0398375
 30
0.0
 40
0.0005000000000000021
100
AcDbArc
 50
180.0
 51
269.9999999999996
  0
LINE
  5
60
330
17
100
AcDbEntity
  8
0
100
AcDbLine
 10
0.02555
 20
-0.0403375
 30
0.0
 11
0.012550000000000002
 21
-0.0403375
 31
0.0
  0
ARC
  5
61
330
17
100
AcDbEntity
  8
0
100
AcDbCircle
 10
0.025550000000000003
 20
-0.0398375
 30
0.0
 40
0.0004999999999999986
100
AcDbArc
 50
269.9999999999996
 51
360.0
  0
LINE
  5
62
330
17
100
AcDbEntity
  8
0
100
AcDbLine
 10
0.02605
 20
-0.0268375
 30
0.0
 11
0.02605
 21
-0.0398375
 31
0.0
  0
ARC
  5
63
330
17
100
AcDbEntity
  8
0
100
AcDbCircle
 10
0.025550000000000003
 20
-0.0268375
 30
0.0
 40
0.0004999999999999986
100
AcDbArc
 50
0.0
 51
90.0000000000004
  0
LINE
  5
64
330
17
100
AcDbEntity
  8
0
100
AcDbLine
 10
0.012550000000000002
 20
-0.0263375
 30
0.0
 11
0.02555
 21
-0.0263375
 31
0.0
  0
ARC
  5
65
330
17
100
AcDbEntity
  8
0
100
AcDbCircle
 10
0.012550000000000006
 20
-0.045887500000000005
 30
0.0
 40
0.0005000000000000021
100
AcDbArc
 50
90.0000000000004
 51
180.0
  0
LINE
  5
66
330
17
100
AcDbEntity
  8
0
100
AcDbLine
 10
0.012050000000000003
 20
-0.0588875
 30
0.0
 11
0.012050000000000003
 21
-0.045887500000000005
 31
0.0
  0
ARC
  5
67
330
17
100
AcDbEntity
  8
0
100
AcDbCircle
 10
0.012550000000000006
 20
-0.0588875
 30
0.0
 40
0.0005000000000000021
100
AcDbArc
 50
180.0
 51
269.9999999999996
  0
LINE
  5
68
330
17
100
AcDbEntity
  8
0
100
AcDbLine
 10
0.02555
 20
-0.0593875
 30
0.0
 11
0.012550000000000002
 21
-0.0593875
 31
0.0
  0
ARC
  5
69
330
17
100
AcDbEntity
  8
0
100
AcDbCircle
 10
0.025550000000000003
 20
-0.0588875
 30
0.0
 40
0.0004999999999999986
100
AcDbArc
 50
269.9999999999996
 51
360.0
  0
LINE
  5
6A
330
17
100
AcDbEntity
  8
0
100
AcDbLine
 10
0.02605
 20
-0.045887500000000005
 30
0.0
 11
0.02605
 21
-0.0588875
 31
0.0
  0
ARC
  5
6B
330
17
100
AcDbEntity
  8
0
100
AcDbCircle
 10
0.025550000000000003
 20
-0.045887500000000005
 30
0.0
 40
0.0004999999999999986
100
AcDbArc
 50
0.0
 51
90.0000000000004
  0
LINE
  5
6C
330
17
100
AcDbEntity
  8
0
100
AcDbLine
 10
0.012550000000000002
 20
-0.045387500000000004
 30
0.0
 11
0.02555
 21
-0.045387500000000004
 31
0.0
  0
ARC
  5
6D
330
17
100
AcDbEntity
  8
0
100
AcDbCircle
 10
0.03160000000000001
 20
0.016024999999999994
 30
0.0
 40
0.0005000000000000076
100
AcDbArc
 50
90.0000000000008
 51
179.9999999999992
  0
LINE
  5
6E
330
17
100
AcDbEntity
  8
0
100
AcDbLine
 10
0.031100000000000003
 20
0.0030250000000000008
 30
0.0
 11
0.031100000000000003
 21
0.016025
 31
0.0
  0
ARC
  5
6F
330
17
100
AcDbEntity
  8
0
100
AcDbCircle
 10
0.0316
 20
0.0030250000000000034
 30
0.0
 40
0.0005000000000000016
100
AcDbArc
 50
180.00000000000028
 51
270.0
  0
LINE
  5
70
330
17
100
AcDbEntity
  8
0
100
AcDbLine
 10
0.0446
 20
0.0025250000000000016
 30
0.0
 11
0.0316
 21
0.0025250000000000003
 31
0.0
  0
ARC
  5
71
330
17
100
AcDbEntity
  8
0
100
AcDbCircle
 10
0.0446
 20
0.0030250000000000034
 30
0.0
 40
0.0005000000000000016
100
AcDbArc
 50
270.0
 51
359.9999999999996
  0
LINE
  5
72
330
17
100
AcDbEntity
  8
0
100
AcDbLine
 10
0.0451
 20
0.016025
 30
0.0
 11
0.0451
 21
0.003025
 31
0.0
  0
ARC
  5
73
330
17
100
AcDbEntity
  8
0
100
AcDbCircle
 10
0.0446
 20
0.016025000000000005
 30
0.0
 40
0.0004999999999999986
100
AcDbArc
 50
-3.979039320256561e-13
 51
90.0
  0
LINE
  5
74
330
17
100
AcDbEntity
  8
0
100
AcDbLine
 10
0.0316
 20
0.016525
 30
0.0
 11
0.0446
 21
0.016525
 31
0.0
  0
ARC
  5
75
330
17
100
AcDbEntity
  8
0
100
AcDbCircle
 10
0.0316
 20
-0.0030250000000000034
 30
0.0
 40
0.0005000000000000016
100
AcDbArc
 50
90.0
 51
179.99999999999972
  0
LINE
  5
76
330
17
100
AcDbEntity
  8
0
100
AcDbLine
 10
0.031100000000000006
 20
-0.016025
 30
0.0
 11
0.031100000000000003
 21
-0.003025
 31
0.0
  0
ARC
  5
77
330
17
100
AcDbEntity
  8
0
100
AcDbCircle
 10
0.0316
 20
-0.016025000000000005
 30
0.0
 40
0.0004999999999999986
100
AcDbArc
 50
179.9999999999996
 51
270.0
  0
LINE
  5
78
330
17
100
AcDbEntity
  8
0
100
AcDbLine
 10
0.0446
 20
-0.016525
 30
0.0
 11
0.0316
 21
-0.016525
 31
0.0
  0
ARC
  5
79
330
17
100
AcDbEntity
  8
0
100
AcDbCircle
 10
0.044599999999999994
 20
-0.016024999999999994
 30
0.0
 40
0.0005000000000000076
100
AcDbArc
 50
270.0000000000008
 51
359.9999999999992
  0
LINE
  5
7A
330
17
100
AcDbEntity
  8
0
100
AcDbLine
 10
0.0451
 20
-0.0030250000000000008
 30
0.0
 11
0.0451
 21
-0.016025
 31
0.0
  0
ARC
  5
7B
330
17
100
AcDbEntity
  8
0
100
AcDbCircle
 10
0.0446
 20
-0.0030250000000000034
 30
0.0
 40
0.0005000000000000016
100
AcDbArc
 50
3.126388037344441e-13
 51
90.0
  0
LINE
  5
7C
330
17
100
AcDbEntity
  8
0
100
AcDbLine
 10
0.0316
 20
-0.0025250000000000016
 30
0.0
 11
0.0446
 21
-0.0025250000000000003
 31
0.0
  0
ARC
  5
7D
330
17
100
AcDbEntity
  8
0
100
AcDbCircle
 10
0.03160000000000001
 20
-0.02207500000000001
 30
0.0
 40
0.0005000000000000076
100
AcDbArc
 50
90.0000000000008
 51
179.9999999999992
  0
LINE
  5
7E
330
17
100
AcDbEntity
  8
0
100
AcDbLine
 10
0.031100000000000003
 20
-0.035075
 30
0.0
 11
0.031100000000000003
 21
-0.022075000000000004
 31
0.0
  0
ARC
  5
7F
330
17
100
AcDbEntity
  8
0
100
AcDbCircle
 10
0.03160000000000001
 20
-0.035074999999999995
 30
0.0
 40
0.0005000000000000076
100
AcDbArc
 50
180.0000000000008
 51
269.9999999999992
  0
LINE
  5
80
330
17
100
AcDbEntity
  8
0
100
AcDbLine
 10
0.0446
 20
-0.035575
 30
0.0
 11
0.0316
 21
-0.035575
 31
0.0
  0
ARC
  5
81
330
17
100
AcDbEntity
  8
0
100
AcDbCircle
 10
0.044599999999999994
 20
-0.035074999999999995
 30
0.0
 40
0.0005000000000000076
100
AcDbArc
 50
270.0000000000008
 51
359.9999999999992
  0
LINE
  5
82
330
17
100
AcDbEntity
  8
0
100
AcDbLine
 10
0.0451
 20
-0.022075000000000004
 30
0.0
 11
0.0451
 21
-0.035075
 31
0.0
  0
ARC
  5
83
330
17
100
AcDbEntity
  8
0
100
AcDbCircle
 10
0.044599999999999994
 20
-0.02207500000000001
 30
0.0
 40
0.0005000000000000076
100
AcDbArc
 50
7.958078640513122e-13
 51
89.9999999999992
  0
LINE
  5
84
330
17
100
AcDbEntity
  8
0
100
AcDbLine
 10
0.0316
 20
-0.021575000000000004
 30
0.0
 11
0.0446
 21
-0.021575000000000004
 31
0.0
  0
ARC
  5
85
330
17
100
AcDbEntity
  8
0
100
AcDbCircle
 10
0.03160000000000001
 20
-0.04112500000000001
 30
0.0
 40
0.0005000000000000076
100
AcDbArc
 50
90.0000000000008
 51
179.9999999999992
  0
LINE
  5
86
330
17
100
AcDbEntity
  8
0
100
AcDbLine
 10
0.031100000000000003
 20
-0.054125
 30
0.0
 11
0.031100000000000003
 21
-0.041125
 31
0.0
  0
ARC
  5
87
330
17
100
AcDbEntity
  8
0
100
AcDbCircle
 10
0.03160000000000001
 20
-0.05412499999999999
 30
0.0
 40
0.0005000000000000076
100
AcDbArc
 50
180.0000000000008
 51
269.9999999999992
  0
LINE
  5
88
330
17
100
AcDbEntity
  8
0
100
AcDbLine
 10
0.0446
 20
-0.054625
 30
0.0
 11
0.0316
 21
-0.054625
 31
0.0
  0
ARC
  5
89
330
17
100
AcDbEntity
  8
0
100
AcDbCircle
 10
0.044599999999999994
 20
-0.05412499999999999
 30
0.0
 40
0.0005000000000000076
100
AcDbArc
 50
270.0000000000008
 51
359.9999999999992
  0
LINE
  5
8A
330
17
100
AcDbEntity
  8
0
100
AcDbLine
 10
0.0451
 20
-0.041125
 30
0.0
 11
0.0451
 21
-0.054125
 31
0.0
  0
ARC
  5
8B
330
17
100
AcDbEntity
  8
0
100
AcDbCircle
 10
0.044599999999999994
 20
-0.04112500000000001
 30
0.0
 40
0.0005000000000000076
100
AcDbArc
 50
7.958078640513122e-13
 51
89.9999999999992
  0
LINE
  5
8C
330
17
100
AcDbEntity
  8
0
100
AcDbLine
 10
0.0316
 20
-0.040625
 30
0.0
 11
0.0446
 21
-0.040625
 31
0.0
  0
ARC
  5
8D
330
17
100
AcDbEntity
  8
0
100
AcDbCircle
 10
0.05065000000000001
 20
0.023168750000000002
 30
0.0
 40
0.0004999999999999986
100
AcDbArc
 50
89.99999999999999
 51
180.0000000000004
  0
LINE
  5
8E
330
17
100
AcDbEntity
  8
0
100
AcDbLine
 10
0.05015000000000001
 20
0.01016875
 30
0.0
 11
0.05015000000000001
 21
0.02316875
 31
0.0
  0
ARC
  5
8F
330
17
100
AcDbEntity
  8
0
100
AcDbCircle
 10
0.05065000000000001
 20
0.010168750000000004
 30
0.0
 40
0.0005000000000000021
100
AcDbArc
 50
180.0000000000004
 51
270.0
  0
LINE
  5
90
330
17
100
AcDbEntity
  8
0
100
AcDbLine
 10
0.06365000000000001
 20
0.009668750000000007
 30
0.0
 11
0.05065000000000001
 21
0.00966875
 31
0.0
  0
ARC
  5
91
330
17
100
AcDbEntity
  8
0
100
AcDbCircle
 10
0.06365000000000003
 20
0.01016875
 30
0.0
 40
0.0004999999999999926
100
AcDbArc
 50
269.9999999999984
 51
360.0
  0
LINE
  5
92
330
17
100
AcDbEntity
  8
0
100
AcDbLine
 10
0.06415000000000001
 20
0.02316875
 30
0.0
 11
0.06415000000000001
 21
0.01016875
 31
0.0
  0
ARC
  5
93
330
17
100
AcDbEntity
  8
0
100
AcDbCircle
 10
0.06365000000000001
 20
0.02316874999999999
 30
0.0
 40
0.0005000000000000036
100
AcDbArc
 50
7.958078640513122e-13
 51
90.0
  0
LINE
  5
94
330
17
100
AcDbEntity
  8
0
100
AcDbLine
 10
0.05065000000000001
 20
0.02366875
 30
0.0
 11
0.06365000000000001
 21
0.02366875
 31
0.0
  0
ARC
  5
95
330
17
100
AcDbEntity
  8
0
100
AcDbCircle
 10
0.05065000000000001
 20
0.0041187499999999965
 30
0.0
 40
0.0005000000000000016
100
AcDbArc
 50
90.0
 51
179.99999999999972
  0
LINE
  5
96
330
17
100
AcDbEntity
  8
0
100
AcDbLine
 10
0.05015000000000001
 20
-0.00888125
 30
0.0
 11
0.05015000000000001
 21
0.004118749999999999
 31
0.0
  0
ARC
  5
97
330
17
100
AcDbEntity
  8
0
100
AcDbCircle
 10
0.05065000000000001
 20
-0.008881249999999997
 30
0.0
 40
0.0005000000000000021
100
AcDbArc
 50
180.0000000000004
 51
270.0
  0
LINE
  5
98
330
17
100
AcDbEntity
  8
0
100
AcDbLine
 10
0.06365000000000001
 20
-0.009381249999999994
 30
0.0
 11
0.05065000000000001
 21
-0.00938125
 31
0.0
  0
ARC
  5
99
330
17
100
AcDbEntity
  8
0
100
AcDbCircle
 10
0.06365000000000003
 20
-0.00888125
 30
0.0
 40
0.0004999999999999926
100
AcDbArc
 50
269.9999999999984
 51
360.0
  0
LINE
  5
9A
330
17
100
AcDbEntity
  8
0
100
AcDbLine
 10
0.06415000000000001
 20
0.004118749999999999
 30
0.0
 11
0.06415000000000001
 21
-0.00888125
 31
0.0
  0
ARC
  5
9B
330
17
100
AcDbEntity
  8
0
100
AcDbCircle
 10
0.06365000000000001
 20
0.0041187499999999905
 30
0.0
 40
0.0005000000000000042
100
AcDbArc
 50
9.947598300641403e-13
 51
90.0
  0
LINE
  5
9C
330
17
100
AcDbEntity
  8
0
100
AcDbLine
 10
0.05065000000000001
 20
0.004618749999999998
 30
0.0
 11
0.06365000000000001
 21
0.00461875
 31
0.0
  0
ARC
  5
9D
330
17
100
AcDbEntity
  8
0
100
AcDbCircle
 10
0.05065000000000001
 20
-0.014931250000000007
 30
0.0
 40
0.0005000000000000021
100
AcDbArc
 50
90.0
 51
179.9999999999996
  0
LINE
  5
9E
330
17
100
AcDbEntity
  8
0
100
AcDbLine
 10
0.05015000000000001
 20
-0.02793125
 30
0.0
 11
0.05015000000000001
 21
-0.014931250000000004
 31
0.0
  0
ARC
  5
9F
330
17
100
AcDbEntity
  8
0
100
AcDbCircle
 10
0.05065000000000001
 20
-0.027931250000000005
 30
0.0
 40
0.0004999999999999986
100
AcDbArc
 50
179.9999999999996
 51
270.0
  0
LINE
  5
A0
330
17
100
AcDbEntity
  8
0
100
AcDbLine
 10
0.06365000000000001
 20
-0.028431249999999995
 30
0.0
 11
0.05065000000000001
 21
-0.02843125
 31
0.0
  0
ARC
  5
A1
330
17
100
AcDbEntity
  8
0
100
AcDbCircle
 10
0.06365000000000003
 20
-0.027931250000000005
 30
0.0
 40
0.0004999999999999906
100
AcDbArc
 50
-90.00000000000159
 51
3.979039320256561e-13
  0
LINE
  5
A2
330
17
100
AcDbEntity
  8
0
100
AcDbLine
 10
0.06415000000000001
 20
-0.014931250000000004
 30
0.0
 11
0.06415000000000001
 21
-0.02793125
 31
0.0
  0
ARC
  5
A3
330
17
100
AcDbEntity
  8
0
100
AcDbCircle
 10
0.06365000000000001
 20
-0.014931250000000009
 30
0.0
 40
0.0005000000000000027
100
AcDbArc
 50
6.252776074688882e-13
 51
90.0
  0
LINE
  5
A4
330
17
100
AcDbEntity
  8
0
100
AcDbLine
 10
0.05065000000000001
 20
-0.014431250000000005
 30
0.0
 11
0.06365000000000001
 21
-0.014431250000000003
 31
0.0
  0
ARC
  5
A5
330
17
100
AcDbEntity
  8
0
100
AcDbCircle
 10
0.050650000000000014
 20
-0.03398125000000001
 30
0.0
 40
0.0005000000000000076
100
AcDbArc
 50
90.0000000000008
 51
179.9999999999992
  0
LINE
  5
A6
330
17
100
AcDbEntity
  8
0
100
AcDbLine
 10
0.05015000000000001
 20
-0.04698125
 30
0.0
 11
0.05015000000000001
 21
-0.033981250000000005
 31
0.0
  0
ARC
  5
A7
330
17
100
AcDbEntity
  8
0
100
AcDbCircle
 10
0.050650000000000014
 20
-0.046981249999999995
 30
0.0
 40
0.0005000000000000076
100
AcDbArc
 50
180.0000000000008
 51
269.9999999999992
  0
LINE
  5
A8
330
17
100
AcDbEntity
  8
0
100
AcDbLine
 10
0.06365000000000001
 20
-0.047481249999999996
 30
0.0
 11
0.05065000000000001
 21
-0.04748125
 31
0.0
  0
ARC
  5
A9
330
17
100
AcDbEntity
  8
0
100
AcDbCircle
 10
0.06365000000000003
 20
-0.04698125000000001
 30
0.0
 40
0.0004999999999999895
100
AcDbArc
 50
-90.00000000000165
 51
7.958078640513122e-13
  0
LINE
  5
AA
330
17
100
AcDbEntity
  8
0
100
AcDbLine
 10
0.06415000000000001
 20
-0.033981250000000005
 30
0.0
 11
0.06415000000000001
 21
-0.04698125
 31
0.0
  0
ARC
  5
AB
330
17
100
AcDbEntity
  8
0
100
AcDbCircle
 10
0.06365000000000001
 20
-0.03398125000000001
 30
0.0
 40
0.0005000000000000036
100
AcDbArc
 50
7.958078640513122e-13
 51
90.0
  0
LINE
  5
AC
330
17
100
AcDbEntity
  8
0
100
AcDbLine
 10
0.05065000000000001
 20
-0.033481250000000004
 30
0.0
 11
0.06365000000000001
 21
-0.033481250000000004
 31
0.0
  0
ARC
  5
AD
330
17
100
AcDbEntity
  8
0
100
AcDbCircle
 10
0.0697
 20
0.0207875
 30
0.0
 40
0.0005000000000000006
100
AcDbArc
 50
90.0
 51
180.0
  0
LINE
  5
AE
330
17
100
AcDbEntity
  8
0
100
AcDbLine
 10
0.0692
 20
0.007787500000000002
 30
0.0
 11
0.0692
 21
0.0207875
 31
0.0
  0
ARC
  5
AF
330
17
100
AcDbEntity
  8
0
100
AcDbCircle
 10
0.06970000000000001
 20
0.00778750000000001
 30
0.0
 40
0.0005000000000000118
100
AcDbArc
 50
180.00000000000088
 51
269.9999999999984
  0
LINE
  5
B0
330
17
100
AcDbEntity
  8
0
100
AcDbLine
 10
0.08270000000000001
 20
0.0072875000000000014
 30
0.0
 11
0.0697
 21
0.0072875000000000014
 31
0.0
  0
ARC
  5
B1
330
17
100
AcDbEntity
  8
0
100
AcDbCircle
 10
0.08270000000000001
 20
0.007787500000000002
 30
0.0
 40
0.0005000000000000006
100
AcDbArc
 50
-90.0
 51
1.1368683772161603e-13
  0
LINE
  5
B2
330
17
100
AcDbEntity
  8
0
100
AcDbLine
 10
0.08320000000000001
 20
0.0207875
 30
0.0
 11
0.08320000000000001
 21
0.007787500000000003
 31
0.0
  0
ARC
  5
B3
330
17
100
AcDbEntity
  8
0
100
AcDbCircle
 10
0.0827
 20
0.020787499999999993
 30
0.0
 40
0.0005000000000000116
100
AcDbArc
 50
7.958078640513122e-13
 51
89.99999999999841
  0
LINE
  5
B4
330
17
100
AcDbEntity
  8
0
100
AcDbLine
 10
0.0697
 20
0.0212875
 30
0.0
 11
0.08270000000000001
 21
0.0212875
 31
0.0
  0
ARC
  5
B5
330
17
100
AcDbEntity
  8
0
100
AcDbCircle
 10
0.0697
 20
0.0017375
 30
0.0
 40
0.0005000000000000003
100
AcDbArc
 50
90.0
 51
180.00000000000006
  0
LINE
  5
B6
330
17
100
AcDbEntity
  8
0
100
AcDbLine
 10
0.0692
 20
-0.0112625
 30
0.0
 11
0.0692
 21
0.0017374999999999995
 31
0.0
  0
ARC
  5
B7
330
17
100
AcDbEntity
  8
0
100
AcDbCircle
 10
0.06970000000000001
 20
-0.011262499999999991
 30
0.0
 40
0.0005000000000000122
100
AcDbArc
 50
180.000000000001
 51
269.9999999999984
  0
LINE
  5
B8
330
17
100
AcDbEntity
  8
0
100
AcDbLine
 10
0.08270000000000001
 20
-0.0117625
 30
0.0
 11
0.0697
 21
-0.0117625
 31
0.0
  0
ARC
  5
B9
330
17
100
AcDbEntity
  8
0
100
AcDbCircle
 10
0.08270000000000001
 20
-0.0112625
 30
0.0
 40
0.0005000000000000006
100
AcDbArc
 50
270.0
 51
360.0
  0
LINE
  5
BA
330
17
100
AcDbEntity
  8
0
100
AcDbLine
 10
0.08320000000000001
 20
0.0017374999999999995
 30
0.0
 11
0.08320000000000001
 21
-0.0112625
 31
0.0
  0
ARC
  5
BB
330
17
100
AcDbEntity
  8
0
100
AcDbCircle
 10
0.0827
 20
0.0017374999999999925
 30
0.0
 40
0.0005000000000000114
100
AcDbArc
 50
7.958078640513122e-13
 51
89.99999999999841
  0
LINE
  5
BC
330
17
100
AcDbEntity
  8
0
100
AcDbLine
 10
0.0697
 20
0.0022375000000000003
 30
0.0
 11
0.08270000000000001
 21
0.0022375
 31
0.0
  0
ARC
  5
BD
330
17
100
AcDbEntity
  8
0
100
AcDbCircle
 10
0.0697
 20
-0.0173125
 30
0.0
 40
0.0005000000000000006
100
AcDbArc
 50
90.0
 51
180.0
  0
LINE
  5
BE
330
17
100
AcDbEntity
  8
0
100
AcDbLine
 10
0.0692
 20
-0.0303125
 30
0.0
 11
0.0692
 21
-0.0173125
 31
0.0
  0
ARC
  5
BF
330
17
100
AcDbEntity
  8
0
100
AcDbCircle
 10
0.06970000000000001
 20
-0.030312499999999992
 30
0.0
 40
0.0005000000000000116
100
AcDbArc
 50
180.0000000000008
 51
269.9999999999984
  0
LINE
  5
C0
330
17
100
AcDbEntity
  8
0
100
AcDbLine
 10
0.08270000000000001
 20
-0.0308125
 30
0.0
 11
0.0697
 21
-0.0308125
 31
0.0
  0
ARC
  5
C1
330
17
100
AcDbEntity
  8
0
100
AcDbCircle
 10
0.08270000000000001
 20
-0.0303125
 30
0.0
 40
0.0005000000000000006
100
AcDbArc
 50
270.0
 51
360.0
  0
LINE
  5
C2
330
17
100
AcDbEntity
  8
0
100
AcDbLine
 10
0.08320000000000001
 20
-0.0173125
 30
0.0
 11
0.08320000000000001
 21
-0.0303125
 31
0.0
  0
ARC
  5
C3
330
17
100
AcDbEntity
  8
0
100
AcDbCircle
 10
0.0827
 20
-0.01731250000000001
 30
0.0
 40
0.0005000000000000116
100
AcDbArc
 50
7.958078640513122e-13
 51
89.99999999999841
  0
LINE
  5
C4
330
17
100
AcDbEntity
  8
0
100
AcDbLine
 10
0.0697
 20
-0.0168125
 30
0.0
 11
0.08270000000000001
 21
-0.0168125
 31
0.0
  0
ARC
  5
C5
330
17
100
AcDbEntity
  8
0
100
AcDbCircle
 10
0.0697
 20
-0.0363625
 30
0.0
 40
0.0004999999999999974
100
AcDbArc
 50
89.99999999999999
 51
180.0000000000008
  0
LINE
  5
C6
330
17
100
AcDbEntity
  8
0
100
AcDbLine
 10
0.0692
 20
-0.049362500000000004
 30
0.0
 11
0.0692
 21
-0.036362500000000006
 31
0.0
  0
ARC
  5
C7
330
17
100
AcDbEntity
  8
0
100
AcDbCircle
 10
0.06970000000000001
 20
-0.0493625
 30
0.0
 40
0.0005000000000000116
100
AcDbArc
 50
180.0000000000008
 51
269.9999999999984
  0
LINE
  5
C8
330
17
100
AcDbEntity
  8
0
100
AcDbLine
 10
0.08270000000000001
 20
-0.04986250000000001
 30
0.0
 11
0.0697
 21
-0.049862500000000004
 31
0.0
  0
ARC
  5
C9
330
17
100
AcDbEntity
  8
0
100
AcDbCircle
 10
0.08270000000000001
 20
-0.04936250000000001
 30
0.0
 40
0.0004999999999999974
100
AcDbArc
 50
-90.0
 51
7.958078640513122e-13
  0
LINE
  5
CA
330
17
100
AcDbEntity
  8
0
100
AcDbLine
 10
0.08320000000000001
 20
-0.036362500000000006
 30
0.0
 11
0.08320000000000001
 21
-0.049362500000000004
 31
0.0
  0
ARC
  5
CB
330
17
100
AcDbEntity
  8
0
100
AcDbCircle
 10
0.0827
 20
-0.03636250000000001
 30
0.0
 40
0.0005000000000000116
100
AcDbArc
 50
7.958078640513122e-13
 51
89.99999999999841
  0
LINE
  5
CC
330
17
100
AcDbEntity
  8
0
100
AcDbLine
 10
0.0697
 20
-0.0358625
 30
0.0
 11
0.08270000000000001
 21
-0.035862500000000005
 31
0.0
  0
ARC
  5
CD
330
17
100
AcDbEntity
  8
0
100
AcDbCircle
 10
0.08874999999999998
 20
0.01364375
 30
0.0
 40
0.0004999999999999926
100
AcDbArc
 50
89.99999999999841
 51
180.0
  0
LINE
  5
CE
330
17
100
AcDbEntity
  8
0
100
AcDbLine
 10
0.08825
 20
0.0006437500000000011
 30
0.0
 11
0.08825
 21
0.01364375
 31
0.0
  0
ARC
  5
CF
330
17
100
AcDbEntity
  8
0
100
AcDbCircle
 10
0.08875
 20
0.000643750000000008
 30
0.0
 40
0.0005000000000000035
100
AcDbArc
 50
180.0000000000008
 51
270.0
  0
LINE
  5
D0
330
17
100
AcDbEntity
  8
0
100
AcDbLine
 10
0.10175000000000001
 20
0.00014375000000000824
 30
0.0
 11
0.08875
 21
0.00014375000000000065
 31
0.0
  0
ARC
  5
D1
330
17
100
AcDbEntity
  8
0
100
AcDbCircle
 10
0.10175000000000002
 20
0.0006437500000000006
 30
0.0
 40
0.0004999999999999923
100
AcDbArc
 50
-90.00000000000165
 51
1.4210854715202004e-13
  0
LINE
  5
D2
330
17
100
AcDbEntity
  8
0
100
AcDbLine
 10
0.10225000000000001
 20
0.01364375
 30
0.0
 11
0.10225000000000001
 21
0.000643750000000002
 31
0.0
  0
ARC
  5
D3
330
17
100
AcDbEntity
  8
0
100
AcDbCircle
 10
0.10175000000000001
 20
0.013643749999999994
 30
0.0
 40
0.0005000000000000027
100
AcDbArc
 50
6.252776074688882e-13
 51
90.0
  0
LINE
  5
D4
330
17
100
AcDbEntity
  8
0
100
AcDbLine
 10
0.08875
 20
0.014143749999999993
 30
0.0
 11
0.10175000000000001
 21
0.01414375
 31
0.0
  0
ARC
  5
D5
330
17
100
AcDbEntity
  8
0
100
AcDbCircle
 10
0.08874999999999998
 20
-0.00540625
 30
0.0
 40
0.0004999999999999921
100
AcDbArc
 50
89.99999999999841
 51
180.00000000000009
  0
LINE
  5
D6
330
17
100
AcDbEntity
  8
0
100
AcDbLine
 10
0.08825
 20
-0.01840625
 30
0.0
 11
0.08825
 21
-0.005406250000000001
 31
0.0
  0
ARC
  5
D7
330
17
100
AcDbEntity
  8
0
100
AcDbCircle
 10
0.08875
 20
-0.018406249999999992
 30
0.0
 40
0.0005000000000000036
100
AcDbArc
 50
180.0000000000008
 51
270.0
  0
LINE
  5
D8
330
17
100
AcDbEntity
  8
0
100
AcDbLine
 10
0.10175000000000001
 20
-0.018906249999999993
 30
0.0
 11
0.08875
 21
-0.01890625
 31
0.0
  0
ARC
  5
D9
330
17
100
AcDbEntity
  8
0
100
AcDbCircle
 10
0.10175000000000002
 20
-0.01840625
 30
0.0
 40
0.0004999999999999926
100
AcDbArc
 50
269.9999999999984
 51
360.0
  0
LINE
  5
DA
330
17
100
AcDbEntity
  8
0
100
AcDbLine
 10
0.10225000000000001
 20
-0.0054062500000000005
 30
0.0
 11
0.10225000000000001
 21
-0.01840625
 31
0.0
  0
ARC
  5
DB
330
17
100
AcDbEntity
  8
0
100
AcDbCircle
 10
0.10175000000000001
 20
-0.005406250000000008
 30
0.0
 40
0.0005000000000000039
100
AcDbArc
 50
8.810729923425242e-13
 51
90.0
  0
LINE
  5
DC
330
17
100
AcDbEntity
  8
0
100
AcDbLine
 10
0.08875
 20
-0.004906250000000008
 30
0.0
 11
0.10175000000000001
 21
-0.00490625
 31
0.0
  0
ARC
  5
DD
330
17
100
AcDbEntity
  8
0
100
AcDbCircle
 10
0.08874999999999998
 20
-0.02445625
 30
0.0
 40
0.0004999999999999906
100
AcDbArc
 50
89.9999999999984
 51
180.0000000000004
  0
LINE
  5
DE
330
17
100
AcDbEntity
  8
0
100
AcDbLine
 10
0.08825
 20
-0.03745625
 30
0.0
 11
0.08825
 21
-0.024456250000000002
 31
0.0
  0
ARC
  5
DF
330
17
100
AcDbEntity
  8
0
100
AcDbCircle
 10
0.08875
 20
-0.037456249999999996
 30
0.0
 40
0.0005000000000000036
100
AcDbArc
 50
180.0000000000008
 51
270.0
  0
LINE
  5
E0
330
17
100
AcDbEntity
  8
0
100
AcDbLine
 10
0.10175000000000001
 20
-0.03795625
 30
0.0
 11
0.08875
 21
-0.037956250000000004
 31
0.0
  0
ARC
  5
E1
330
17
100
AcDbEntity
  8
0
100
AcDbCircle
 10
0.10175000000000001
 20
-0.037456249999999996
 30
0.0
 40
0.0005000000000000036
100
AcDbArc
 50
270.0
 51
359.9999999999992
  0
LINE
  5
E2
330
17
100
AcDbEntity
  8
0
100
AcDbLine
 10
0.10225000000000001
 20
-0.024456250000000002
 30
0.0
 11
0.10225000000000001
 21
-0.03745625
 31
0.0
  0
ARC
  5
E3
330
17
100
AcDbEntity
  8
0
100
AcDbCircle
 10
0.10175000000000001
 20
-0.02445625000000001
 30
0.0
 40
0.0005000000000000036
100
AcDbArc
 50
7.958078640513122e-13
 51
90.0
  0
LINE
  5
E4
330
17
100
AcDbEntity
  8
0
100
AcDbLine
 10
0.08875
 20
-0.02395625000000001
 30
0.0
 11
0.10175000000000001
 21
-0.023956250000000002
 31
0.0
  0
ARC
  5
E5
330
17
100
AcDbEntity
  8
0
100
AcDbCircle
 10
0.08874999999999998
 20
-0.04350625
 30
0.0
 40
0.0004999999999999934
100
AcDbArc
 50
89.99999999999841
 51
180.0
  0
LINE
  5
E6
330
17
100
AcDbEntity
  8
0
100
AcDbLine
 10
0.08825
 20
-0.05650625
 30
0.0
 11
0.08825
 21
-0.04350625
 31
0.0
  0
ARC
  5
E7
330
17
100
AcDbEntity
  8
0
100
AcDbCircle
 10
0.08875
 20
-0.056506249999999994
 30
0.0
 40
0.0005000000000000036
100
AcDbArc
 50
180.0000000000008
 51
270.0
  0
LINE
  5
E8
330
17
100
AcDbEntity
  8
0
100
AcDbLine
 10
0.10175000000000001
 20
-0.057006249999999994
 30
0.0
 11
0.08875
 21
-0.05700625
 31
0.0
  0
ARC
  5
E9
330
17
100
AcDbEntity
  8
0
100
AcDbCircle
 10
0.10175000000000002
 20
-0.05650625
 30
0.0
 40
0.0004999999999999934
100
AcDbArc
 50
269.9999999999984
 51
360.0
  0
LINE
  5
EA
330
17
100
AcDbEntity
  8
0
100
AcDbLine
 10
0.10225000000000001
 20
-0.04350625
 30
0.0
 11
0.10225000000000001
 21
-0.05650625
 31
0.0
  0
ARC
  5
EB
330
17
100
AcDbEntity
  8
0
100
AcDbCircle
 10
0.10175000000000001
 20
-0.04350625000000001
 30
0.0
 40
0.0005000000000000036
100
AcDbArc
 50
7.958078640513122e-13
 51
90.0
  0
LINE
  5
EC
330
17
100
AcDbEntity
  8
0
100
AcDbLine
 10
0.08875
 20
-0.04300625000000001
 30
0.0
 11
0.10175000000000001
 21
-0.04300625
 31
0.0
  0
ARC
  5
ED
330
17
100
AcDbEntity
  8
0
100
AcDbCircle
 10
0.10779999999999999
 20
0.00411875
 30
0.0
 40
0.0004999999999999921
100
AcDbArc
 50
89.99999999999841
 51
180.00000000000009
  0
LINE
  5
EE
330
17
100
AcDbEntity
  8
0
100
AcDbLine
 10
0.1073
 20
-0.00888125
 30
0.0
 11
0.1073
 21
0.004118749999999999
 31
0.0
  0
ARC
  5
EF
330
17
100
AcDbEntity
  8
0
100
AcDbCircle
 10
0.1078
 20
-0.008881249999999995
 30
0.0
 40
0.0005000000000000027
100
AcDbArc
 50
180.0000000000006
 51
270.0
  0
LINE
  5
F0
330
17
100
AcDbEntity
  8
0
100
AcDbLine
 10
0.12080000000000002
 20
-0.009381249999999994
 30
0.0
 11
0.1078
 21
-0.00938125
 31
0.0
  0
ARC
  5
F1
330
17
100
AcDbEntity
  8
0
100
AcDbCircle
 10
0.12080000000000003
 20
-0.00888125
 30
0.0
 40
0.0004999999999999926
100
AcDbArc
 50
269.9999999999984
 51
360.0
  0
LINE
  5
F2
330
17
100
AcDbEntity
  8
0
100
AcDbLine
 10
0.12130000000000002
 20
0.004118749999999999
 30
0.0
 11
0.12130000000000002
 21
-0.00888125
 31
0.0
  0
ARC
  5
F3
330
17
100
AcDbEntity
  8
0
100
AcDbCircle
 10
0.12080000000000002
 20
0.0041187499999999905
 30
0.0
 40
0.0005000000000000042
100
AcDbArc
 50
9.947598300641403e-13
 51
90.0
  0
LINE
  5
F4
330
17
100
AcDbEntity
  8
0
100
AcDbLine
 10
0.1078
 20
0.004618749999999992
 30
0.0
 11
0.12080000000000002
 21
0.00461875
 31
0.0
  0
ARC
  5
F5
330
17
100
AcDbEntity
  8
0
100
AcDbCircle
 10
0.10779999999999999
 20
-0.014931250000000004
 30
0.0
 40
0.0004999999999999926
100
AcDbArc
 50
89.99999999999841
 51
180.0
  0
LINE
  5
F6
330
17
100
AcDbEntity
  8
0
100
AcDbLine
 10
0.1073
 20
-0.02793125
 30
0.0
 11
0.1073
 21
-0.014931250000000004
 31
0.0
  0
ARC
  5
F7
330
17
100
AcDbEntity
  8
0
100
AcDbCircle
 10
0.1078
 20
-0.027931249999999994
 30
0.0
 40
0.0005000000000000036
100
AcDbArc
 50
180.0000000000008
 51
270.0
  0
LINE
  5
F8
330
17
100
AcDbEntity
  8
0
100
AcDbLine
 10
0.12080000000000002
 20
-0.028431249999999995
 30
0.0
 11
0.1078
 21
-0.02843125
 31
0.0
  0
ARC
  5
F9
330
17
100
AcDbEntity
  8
0
100
AcDbCircle
 10
0.12080000000000003
 20
-0.027931250000000005
 30
0.0
 40
0.0004999999999999906
100
AcDbArc
 50
-90.00000000000159
 51
3.979039320256561e-13
  0
LINE
  5
FA
330
17
100
AcDbEntity
  8
0
100
AcDbLine
 10
0.12130000000000002
 20
-0.014931250000000004
 30
0.0
 11
0.12130000000000002
 21
-0.02793125
 31
0.0
  0
ARC
  5
FB
330
17
100
AcDbEntity
  8
0
100
AcDbCircle
 10
0.12080000000000002
 20
-0.014931250000000009
 30
0.0
 40
0.0005000000000000027
100
AcDbArc
 50
6.252776074688882e-13
 51
90.0
  0
LINE
  5
FC
330
17
100
AcDbEntity
  8
0
100
AcDbLine
 10
0.1078
 20
-0.01443125000000001
 30
0.0
 11
0.12080000000000002
 21
-0.014431250000000003
 31
0.0
  0
ARC
  5
FD
330
17
100
AcDbEntity
  8
0
100
AcDbCircle
 10
0.10779999999999999
 20
-0.03398125
 30
0.0
 40
0.0004999999999999895
100
AcDbArc
 50
89.99999999999841
 51
180.0000000000008
  0
LINE
  5
FE
330
17
100
AcDbEntity
  8
0
100
AcDbLine
 10
0.1073
 20
-0.04698125
 30
0.0
 11
0.1073
 21
-0.033981250000000005
 31
0.0
  0
ARC
  5
FF
330
17
100
AcDbEntity
  8
0
100
AcDbCircle
 10
0.1078
 20
-0.046981249999999995
 30
0.0
 40
0.0005000000000000036
100
AcDbArc
 50
180.0000000000008
 51
270.0
  0
LINE
  5
100
330
17
100
AcDbEntity
  8
0
100
AcDbLine
 10
0.12080000000000002
 20
-0.047481249999999996
 30
0.0
 11
0.1078
 21
-0.04748125
 31
0.0
  0
ARC
  5
101
330
17
100
AcDbEntity
  8
0
100
AcDbCircle
 10
0.12080000000000003
 20
-0.04698125000000001
 30
0.0
 40
0.0004999999999999895
100
AcDbArc
 50
-90.00000000000165
 51
7.958078640513122e-13
  0
LINE
  5
102
330
17
100
AcDbEntity
  8
0
100
AcDbLine
 10
0.12130000000000002
 20
-0.033981250000000005
 30
0.0
 11
0.12130000000000002
 21
-0.04698125
 31
0.0
  0
ARC
  5
103
330
17
100
AcDbEntity
  8
0
100
AcDbCircle
 10
0.12080000000000002
 20
-0.03398125000000001
 30
0.0
 40
0.0005000000000000036
100
AcDbArc
 50
7.958078640513122e-13
 51
90.0
  0
LINE
  5
104
330
17
100
AcDbEntity
  8
0
100
AcDbLine
 10
0.1078
 20
-0.03348125000000001
 30
0.0
 11
0.12080000000000002
 21
-0.033481250000000004
 31
0.0
  0
ARC
  5
105
330
17
100
AcDbEntity
  8
0
100
AcDbCircle
 10
0.10779999999999999
 20
-0.053031249999999995
 30
0.0
 40
0.0004999999999999895
100
AcDbArc
 50
89.99999999999841
 51
180.0000000000008
  0
LINE
  5
106
330
17
100
AcDbEntity
  8
0
100
AcDbLine
 10
0.10729999999999999
 20
-0.06603125
 30
0.0
 11
0.1073
 21
-0.05303125
 31
0.0
  0
ARC
  5
107
330
17
100
AcDbEntity
  8
0
100
AcDbCircle
 10
0.1078
 20
-0.06603124999999999
 30
0.0
 40
0.0005000000000000076
100
AcDbArc
 50
180.0000000000016
 51
270.0
  0
LINE
  5
108
330
17
100
AcDbEntity
  8
0
100
AcDbLine
 10
0.12080000000000002
 20
-0.06653125
 30
0.0
 11
0.1078
 21
-0.06653125
 31
0.0
  0
ARC
  5
109
330
17
100
AcDbEntity
  8
0
100
AcDbCircle
 10
0.12080000000000002
 20
-0.06603124999999999
 30
0.0
 40
0.0005000000000000076
100
AcDbArc
 50
270.0
 51
359.9999999999984
  0
LINE
  5
10A
330
17
100
AcDbEntity
  8
0
100
AcDbLine
 10
0.12130000000000002
 20
-0.05303125
 30
0.0
 11
0.12130000000000002
 21
-0.06603125
 31
0.0
  0
ARC
  5
10B
330
17
100
AcDbEntity
  8
0
100
AcDbCircle
 10
0.12080000000000002
 20
-0.05303125000000001
 30
0.0
 40
0.0005000000000000036
100
AcDbArc
 50
7.958078640513122e-13
 51
90.0
  0
LINE
  5
10C
330
17
100
AcDbEntity
  8
0
100
AcDbLine
 10
0.1078
 20
-0.05253125000000001
 30
0.0
 11
0.12080000000000002
 21
-0.05253125
 31
0.0
  0
ARC
  5
10D
330
17
100
AcDbEntity
  8
0
100
AcDbCircle
 10
0.057793750000000005
 20
-0.07208124999999999
 30
0.0
 40
0.0005000000000000036
100
AcDbArc
 50
90.0000000000008
 51
180.0
  0
LINE
  5
10E
330
17
100
AcDbEntity
  8
0
100
AcDbLine
 10
0.057293750000000004
 20
-0.08508125
 30
0.0
 11
0.057293750000000004
 21
-0.07208124999999999
 31
0.0
  0
ARC
  5
10F
330
17
100
AcDbEntity
  8
0
100
AcDbCircle
 10
0.05779375
 20
-0.08508125000000001
 30
0.0
 40
0.0004999999999999934
100
AcDbArc
 50
179.9999999999984
 51
270.0
  0
LINE
  5
110
330
17
100
AcDbEntity
  8
0
100
AcDbLine
 10
0.07079375
 20
-0.08558125000000001
 30
0.0
 11
0.05779375
 21
-0.08558125
 31
0.0
  0
ARC
  5
111
330
17
100
AcDbEntity
  8
0
100
AcDbCircle
 10
0.07079374999999999
 20
-0.08508125
 30
0.0
 40
0.0005000000000000076
100
AcDbArc
 50
270.0000000000016
 51
360.0
  0
LINE
  5
112
330
17
100
AcDbEntity
  8
0
100
AcDbLine
 10
0.07129375
 20
-0.07208124999999999
 30
0.0
 11
0.07129375
 21
-0.08508125
 31
0.0
  0
ARC
  5
113
330
17
100
AcDbEntity
  8
0
100
AcDbCircle
 10
0.07079374999999999
 20
-0.07208124999999999
 30
0.0
 40
0.0005000000000000076
100
AcDbArc
 50
0.0
 51
89.99999999999841
  0
LINE
  5
114
330
17
100
AcDbEntity
  8
0
100
AcDbLine
 10
0.05779375
 20
-0.07158124999999999
 30
0.0
 11
0.07079375
 21
-0.07158124999999999
 31
0.0
  0
ARC
  5
115
330
17
100
AcDbEntity
  8
0
100
AcDbCircle
 10
0.07684374999999999
 20
-0.07208124999999999
 30
0.0
 40
0.0004999999999999997
100
AcDbArc
 50
90.0
 51
180.0
  0
LINE
  5
116
330
17
100
AcDbEntity
  8
0
100
AcDbLine
 10
0.07634374999999999
 20
-0.08508125
 30
0.0
 11
0.07634374999999999
 21
-0.07208124999999999
 31
0.0
  0
ARC
  5
117
330
17
100
AcDbEntity
  8
0
100
AcDbCircle
 10
0.07684374999999999
 20
-0.08508125
 30
0.0
 40
0.0004999999999999997
100
AcDbArc
 50
180.0
 51
270.0
  0
LINE
  5
118
330
17
100
AcDbEntity
  8
0
100
AcDbLine
 10
0.08984375
 20
-0.08558125
 30
0.0
 11
0.07684374999999999
 21
-0.08558125
 31
0.0
  0
ARC
  5
119
330
17
100
AcDbEntity
  8
0
100
AcDbCircle
 10
0.08984375
 20
-0.08508125
 30
0.0
 40
0.0004999999999999997
100
AcDbArc
 50
270.0
 51
360.0
  0
LINE
  5
11A
330
17
100
AcDbEntity
  8
0
100
AcDbLine
 10
0.09034375
 20
-0.07208124999999999
 30
0.0
 11
0.09034375
 21
-0.08508125
 31
0.0
  0
ARC
  5
11B
330
17
100
AcDbEntity
  8
0
100
AcDbCircle
 10
0.08984375
 20
-0.07208124999999999
 30
0.0
 40
0.0004999999999999997
100
AcDbArc
 50
0.0
 51
90.0
  0
LINE
  5
11C
330
17
100
AcDbEntity
  8
0
100
AcDbLine
 10
0.07684374999999999
 20
-0.07158124999999999
 30
0.0
 11
0.08984375
 21
-0.07158124999999999
 31
0.0
  0
ARC
  5
11D
330
17
100
AcDbEntity
  8
0
100
AcDbCircle
 10
0.09589375
 20
-0.07446250000000001
 30
0.0
 40
0.0005000000000000155
100
AcDbArc
 50
90.00000000000159
 51
179.9999999999984
  0
LINE
  5
11E
330
17
100
AcDbEntity
  8
0
100
AcDbLine
 10
0.09539374999999999
 20
-0.08746250000000001
 30
0.0
 11
0.09539374999999999
 21
-0.0744625
 31
0.0
  0
ARC
  5
11F
330
17
100
AcDbEntity
  8
0
100
AcDbCircle
 10
0.09589375
 20
-0.0874625
 30
0.0
 40
0.0005000000000000155
100
AcDbArc
 50
180.0000000000016
 51
269.9999999999984
  0
LINE
  5
120
330
17
100
AcDbEntity
  8
0
100
AcDbLine
 10
0.10889375
 20
-0.08796250000000001
 30
0.0
 11
0.09589374999999999
 21
-0.08796250000000001
 31
0.0
  0
ARC
  5
121
330
17
100
AcDbEntity
  8
0
100
AcDbCircle
 10
0.10889374999999998
 20
-0.0874625
 30
0.0
 40
0.0005000000000000155
100
AcDbArc
 50
270.0000000000016
 51
359.9999999999984
  0
LINE
  5
122
330
17
100
AcDbEntity
  8
0
100
AcDbLine
 10
0.10939375
 20
-0.0744625
 30
0.0
 11
0.10939375
 21
-0.08746250000000001
 31
0.0
  0
ARC
  5
123
330
17
100
AcDbEntity
  8
0
100
AcDbCircle
 10
0.10889374999999998
 20
-0.07446250000000001
 30
0.0
 40
0.0005000000000000155
100
AcDbArc
 50
1.5916157281026244e-12
 51
89.99999999999841
  0
LINE
  5
124
330
17
100
AcDbEntity
  8
0
100
AcDbLine
 10
0.09589374999999999
 20
-0.0739625
 30
0.0
 11
0.10889375
 21
-0.0739625
 31
0.0
  0
ARC
  5
125
330
17
100
AcDbEntity
  8
0
100
AcDbCircle
 10
0.11494375000000001
 20
-0.08160624999999999
 30
0.0
 40
0.0005000000000000076
100
AcDbArc
 50
90.00000000000159
 51
180.0
  0
LINE
  5
126
330
17
100
AcDbEntity
  8
0
100
AcDbLine
 10
0.11444375
 20
-0.09460625
 30
0.0
 11
0.11444375
 21
-0.08160624999999999
 31
0.0
  0
ARC
  5
127
330
17
100
AcDbEntity
  8
0
100
AcDbCircle
 10
0.11494375000000001
 20
-0.09460625
 30
0.0
 40
0.0005000000000000076
100
AcDbArc
 50
180.0
 51
269.9999999999984
  0
LINE
  5
128
330
17
100
AcDbEntity
  8
0
100
AcDbLine
 10
0.12794375
 20
-0.09510625
 30
0.0
 11
0.11494375
 21
-0.09510625
 31
0.0
  0
ARC
  5
129
330
17
100
AcDbEntity
  8
0
100
AcDbCircle
 10
0.12794375000000002
 20
-0.09460625000000003
 30
0.0
 40
0.0004999999999999714
100
AcDbArc
 50
-90.00000000000313
 51
3.183231456205249e-12
  0
LINE
  5
12A
330
17
100
AcDbEntity
  8
0
100
AcDbLine
 10
0.12844375
 20
-0.08160624999999999
 30
0.0
 11
0.12844375
 21
-0.09460625
 31
0.0
  0
ARC
  5
12B
330
17
100
AcDbEntity
  8
0
100
AcDbCircle
 10
0.12794375000000002
 20
-0.08160624999999996
 30
0.0
 40
0.0004999999999999714
100
AcDbArc
 50
-3.183231456205249e-12
 51
90.00000000000318
  0
LINE
  5
12C
330
17
100
AcDbEntity
  8
0
100
AcDbLine
 10
0.11494375
 20
-0.08110624999999998
 30
0.0
 11
0.12794375
 21
-0.08110624999999999
 31
0.0
  0
ENDSEC
  0
SECTION
  2
OBJECTS
  0
DICTIONARY
  5
A
330
0
100
AcDbDictionary
281
1
  3
ACAD_COLOR
350
B
  3
ACAD_GROUP
350
C
  3
ACAD_LAYOUT
350
D
  3
ACAD_MATERIAL
350
E
  3
ACAD_MLEADERSTYLE
350
F
  3
ACAD_MLINESTYLE
350
10
  3
ACAD_PLOTSETTINGS
350
11
  3
ACAD_PLOTSTYLENAME
350
12
  3
ACAD_SCALELIST
350
14
  3
ACAD_TABLESTYLE
350
15
  3
ACAD_VISUALSTYLE
350
16
  0
DICTIONARY
  5
B
330
A
100
AcDbDictionary
281
1
  0
DICTIONARY
  5
C
330
A
100
AcDbDictionary
281
1
  0
DICTIONARY
  5
D
330
A
100
AcDbDictionary
281
1
  3
Model
350
1A
  3
Layout1
350
1E
  0
DICTIONARY
  5
E
330
A
100
AcDbDictionary
281
1
  3
ByBlock
350
1F
  3
ByLayer
350
20
  3
Global
350
21
  0
DICTIONARY
  5
F
330
A
100
AcDbDictionary
281
1
  3
Standard
350
2C
  0
DICTIONARY
  5
10
330
A
100
AcDbDictionary
281
1
  3
Standard
350
22
  0
DICTIONARY
  5
11
330
A
100
AcDbDictionary
281
1
  0
ACDBDICTIONARYWDFLT
  5
12
330
A
100
AcDbDictionary
281
1
  3
Normal
350
13
100
AcDbDictionaryWithDefault
340
13
  0
ACDBPLACEHOLDER
  5
13
330
12
  0
DICTIONARY
  5
14
330
A
100
AcDbDictionary
281
1
  0
DICTIONARY
  5
15
330
A
100
AcDbDictionary
281
1
  0
DICTIONARY
  5
16
330
A
100
AcDbDictionary
281
1
  0
LAYOUT
  5
1A
330
D
100
AcDbPlotSettings
  1

  2
Adobe PDF
  4
A4
  6

 40
3.175
 41
3.175
 42
3.175
 43
3.175
 44
209.91
 45
297.03
 46
0.0
 47
0.0
 48
0.0
 49
0.0
140
0.0
141
0.0
142
1.0
143
1.0
 70
1024
 72
0
 73
1
 74
5
  7

 75
16
 76
0
 77
2
 78
300
147
1.0
148
0.0
149
0.0
100
AcDbLayout
  1
Model
 70
1
 71
0
 10
-3.175
 20
-3.175
 11
293.857
 21
206.735
 12
0.0
 22
0.0
 32
0.0
 14
29.068
 24
20.356
 34
0.0
 15
261.614
 25
183.204
 35
0.0
146
0.0
 13
0.0
 23
0.0
 33
0.0
 16
1.0
 26
0.0
 36
0.0
 17
0.0
 27
1.0
 37
0.0
 76
1
330
17
  0
LAYOUT
  5
1E
330
D
100
AcDbPlotSettings
  1

  2
Adobe PDF
  4
A4
  6

 40
3.175
 41
3.175
 42
3.175
 43
3.175
 44
209.91
 45
297.03
 46
0.0
 47
0.0
 48
0.0
 49
0.0
140
0.0
141
0.0
142
1.0
143
1.0
 70
0
 72
0
 73
1
 74
5
  7

 75
16
 76
0
 77
2
 78
300
147
1.0
148
0.0
149
0.0
100
AcDbLayout
  1
Layout1
 70
1
 71
1
 10
-3.175
 20
-3.175
 11
293.857
 21
206.735
 12
0.0
 22
0.0
 32
0.0
 14
29.068
 24
20.356
 34
0.0
 15
261.614
 25
183.204
 35
0.0
146
0.0
 13
0.0
 23
0.0
 33
0.0
 16
1.0
 26
0.0
 36
0.0
 17
0.0
 27
1.0
 37
0.0
 76
1
330
1B
  0
MATERIAL
  5
1F
102
{ACAD_REACTORS
330
E
102
}
330
E
100
AcDbMaterial
  1
ByBlock
  2

 70
0
 40
1.0
 71
1
 41
1.0
 91
-1023410177
 42
1.0
 72
1
  3

 73
1
 74
1
 75
1
 44
0.5
 73
0
 45
1.0
 46
1.0
 77
1
  4

 78
1
 79
1
170
1
 48
1.0
171
1
  6

172
1
173
1
174
1
140
1.0
141
1.0
175
1
  7

176
1
177
1
178
1
143
1.0
179
1
  8

270
1
271
1
272
1
145
1.0
146
1.0
273
1
  9

274
1
275
1
276
1
 42
1.0
 72
1
  3

 73
1
 74
1
 75
1
 94
63
  0
MATERIAL
  5
20
102
{ACAD_REACTORS
330
E
102
}
330
E
100
AcDbMaterial
  1
ByLayer
  2

 70
0
 40
1.0
 71
1
 41
1.0
 91
-1023410177
 42
1.0
 72
1
  3

 73
1
 74
1
 75
1
 44
0.5
 73
0
 45
1.0
 46
1.0
 77
1
  4

 78
1
 79
1
170
1
 48
1.0
171
1
  6

172
1
173
1
174
1
140
1.0
141
1.0
175
1
  7

176
1
177
1
178
1
143
1.0
179
1
  8

270
1
271
1
272
1
145
1.0
146
1.0
273
1
  9

274
1
275
1
276
1
 42
1.0
 72
1
  3

 73
1
 74
1
 75
1
 94
63
  0
MATERIAL
  5
21
102
{ACAD_REACTORS
330
E
102
}
330
E
100
AcDbMaterial
  1
Global
  2

 70
0
 40
1.0
 71
1
 41
1.0
 91
-1023410177
 42
1.0
 72
1
  3

 73
1
 74
1
 75
1
 44
0.5
 73
0
 45
1.0
 46
1.0
 77
1
  4

 78
1
 79
1
170
1
 48
1.0
171
1
  6

172
1
173
1
174
1
140
1.0
141
1.0
175
1
  7

176
1
177
1
178
1
143
1.0
179
1
  8

270
1
271
1
272
1
145
1.0
146
1.0
273
1
  9

274
1
275
1
276
1
 42
1.0
 72
1
  3

 73
1
 74
1
 75
1
 94
63
  0
MLINESTYLE
  5
22
102
{ACAD_REACTORS
330
10
102
}
330
10
100
AcDbMlineStyle
  2
Standard
 70
0
  3

 62
256
 51
90.0
 52
90.0
 71
2
 49
0.5
 62
256
  6
BYLAYER
 49
-0.5
 62
256
  6
BYLAYER
  0
MLEADERSTYLE
  5
2C
102
{ACAD_REACTORS
330
F
102
}
330
F
100
AcDbMLeaderStyle
179
2
170
2
171
1
172
0
 90
2
 40
0.0
 41
0.0
173
1
 91
-1056964608
 92
-2
290
1
 42
2.0
291
1
 43
8.0
  3
Standard
 44
4.0
300

342
29
174
1
175
1
176
0
178
1
 93
-1056964608
 45
4.0
292
0
297
0
 46
4.0
 94
-1056964608
 47
1.0
 49
1.0
140
1.0
294
1
141
0.0
177
0
142
1.0
295
0
296
0
143
3.75
271
0
272
9
273
9
  0
ENDSEC
  0
EOF
