  0
SECTION
  2
HEADER
  9
$ACADVER
  1
AC1027
  9
$ACADMAINTVER
 70
105
  9
$DWGCODEPAGE
  3
ANSI_1252
  9
$LASTSAVEDBY
  1
ezdxf
  9
$REQUIREDVERSIONS
160
0
  9
$INSBASE
 10
0.0
 20
0.0
 30
0.0
  9
$EXTMIN
 10
-100
 20
-100
 30
-100
  9
$EXTMAX
 10
100
 20
100
 30
100
  9
$LIMMIN
 10
0.0
 20
0.0
  9
$LIMMAX
 10
420.0
 20
297.0
  9
$ORTHOMODE
 70
0
  9
$REGENMODE
 70
1
  9
$FILLMODE
 70
1
  9
$QTEXTMODE
 70
0
  9
$MIRRTEXT
 70
1
  9
$LTSCALE
 40
1.0
  9
$ATTMODE
 70
1
  9
$TEXTSIZE
 40
2.5
  9
$TRACEWID
 40
1.0
  9
$TEXTSTYLE
  7
Standard
  9
$CLAYER
  8
0
  9
$CELTYPE
  6
ByLayer
  9
$CECOLOR
 62
256
  9
$CELTSCALE
 40
1.0
  9
$DISPSILH
 70
0
  9
$DIMSCALE
 40
1.0
  9
$DIMASZ
 40
2.5
  9
$DIMEXO
 40
0.625
  9
$DIMDLI
 40
3.75
  9
$DIMRND
 40
0.0
  9
$DIMDLE
 40
0.0
  9
$DIMEXE
 40
1.25
  9
$DIMTP
 40
0.0
  9
$DIMTM
 40
0.0
  9
$DIMTXT
 40
2.5
  9
$DIMCEN
 40
2.5
  9
$DIMTSZ
 40
0.0
  9
$DIMTOL
 70
0
  9
$DIMLIM
 70
0
  9
$DIMTIH
 70
0
  9
$DIMTOH
 70
0
  9
$DIMSE1
 70
0
  9
$DIMSE2
 70
0
  9
$DIMTAD
 70
1
  9
$DIMZIN
 70
8
  9
$DIMBLK
  1

  9
$DIMASO
 70
1
  9
$DIMSHO
 70
1
  9
$DIMPOST
  1

  9
$DIMAPOST
  1

  9
$DIMALT
 70
0
  9
$DIMALTD
 70
3
  9
$DIMALTF
 40
0.03937007874
  9
$DIMLFAC
 40
1.0
  9
$DIMTOFL
 70
1
  9
$DIMTVP
 40
0.0
  9
$DIMTIX
 70
0
  9
$DIMSOXD
 70
0
  9
$DIMSAH
 70
0
  9
$DIMBLK1
  1

  9
$DIMBLK2
  1

  9
$DIMSTYLE
  2
ISO-25
  9
$DIMCLRD
 70
0
  9
$DIMCLRE
 70
0
  9
$DIMCLRT
 70
0
  9
$DIMTFAC
 40
1.0
  9
$DIMGAP
 40
0.625
  9
$DIMJUST
 70
0
  9
$DIMSD1
 70
0
  9
$DIMSD2
 70
0
  9
$DIMTOLJ
 70
0
  9
$DIMTZIN
 70
8
  9
$DIMALTZ
 70
0
  9
$DIMALTTZ
 70
0
  9
$DIMUPT
 70
0
  9
$DIMDEC
 70
2
  9
$DIMTDEC
 70
2
  9
$DIMALTU
 70
2
  9
$DIMALTTD
 70
3
  9
$DIMTXSTY
  7
Standard
  9
$DIMAUNIT
 70
0
  9
$DIMADEC
 70
0
  9
$DIMALTRND
 40
0.0
  9
$DIMAZIN
 70
0
  9
$DIMDSEP
 70
44
  9
$DIMATFIT
 70
3
  9
$DIMFRAC
 70
0
  9
$DIMLDRBLK
  1

  9
$DIMLUNIT
 70
2
  9
$DIMLWD
 70
-2
  9
$DIMLWE
 70
-2
  9
$DIMTMOVE
 70
0
  9
$DIMFXL
 40
1.0
  9
$DIMFXLON
 70
0
  9
$DIMJOGANG
 40
0.785398163397
  9
$DIMTFILL
 70
0
  9
$DIMTFILLCLR
 70
0
  9
$DIMARCSYM
 70
0
  9
$DIMLTYPE
  6

  9
$DIMLTEX1
  6

  9
$DIMLTEX2
  6

  9
$DIMTXTDIRECTION
 70
0
  9
$LUNITS
 70
2
  9
$LUPREC
 70
4
  9
$SKETCHINC
 40
1.0
  9
$FILLETRAD
 40
10.0
  9
$AUNITS
 70
0
  9
$AUPREC
 70
2
  9
$MENU
  1
.
  9
$ELEVATION
 40
0.0
  9
$PELEVATION
 40
0.0
  9
$THICKNESS
 40
0.0
  9
$LIMCHECK
 70
0
  9
$CHAMFERA
 40
0.0
  9
$CHAMFERB
 40
0.0
  9
$CHAMFERC
 40
0.0
  9
$CHAMFERD
 40
0.0
  9
$SKPOLY
 70
0
  9
$TDCREATE
 40
2459317.405671296
  9
$TDUCREATE
 40
2458532.153996898
  9
$TDUPDATE
 40
2459317.405671296
  9
$TDUUPDATE
 40
2458532.1544311
  9
$TDINDWG
 40
0.0
  9
$TDUSRTIMER
 40
0.0
  9
$USRTIMER
 70
1
  9
$ANGBASE
 50
0.0
  9
$ANGDIR
 70
0
  9
$PDMODE
 70
0
  9
$PDSIZE
 40
0.0
  9
$PLINEWID
 40
0.0
  9
$SPLFRAME
 70
0
  9
$SPLINETYPE
 70
6
  9
$SPLINESEGS
 70
8
  9
$HANDSEED
  5
11F
  9
$SURFTAB1
 70
6
  9
$SURFTAB2
 70
6
  9
$SURFTYPE
 70
6
  9
$SURFU
 70
6
  9
$SURFV
 70
6
  9
$UCSBASE
  2

  9
$UCSNAME
  2

  9
$UCSORG
 10
0.0
 20
0.0
 30
0.0
  9
$UCSXDIR
 10
1.0
 20
0.0
 30
0.0
  9
$UCSYDIR
 10
0.0
 20
1.0
 30
0.0
  9
$UCSORTHOREF
  2

  9
$UCSORTHOVIEW
 70
0
  9
$UCSORGTOP
 10
0.0
 20
0.0
 30
0.0
  9
$UCSORGBOTTOM
 10
0.0
 20
0.0
 30
0.0
  9
$UCSORGLEFT
 10
0.0
 20
0.0
 30
0.0
  9
$UCSORGRIGHT
 10
0.0
 20
0.0
 30
0.0
  9
$UCSORGFRONT
 10
0.0
 20
0.0
 30
0.0
  9
$UCSORGBACK
 10
0.0
 20
0.0
 30
0.0
  9
$PUCSBASE
  2

  9
$PUCSNAME
  2

  9
$PUCSORG
 10
0.0
 20
0.0
 30
0.0
  9
$PUCSXDIR
 10
1.0
 20
0.0
 30
0.0
  9
$PUCSYDIR
 10
0.0
 20
1.0
 30
0.0
  9
$PUCSORTHOREF
  2

  9
$PUCSORTHOVIEW
 70
0
  9
$PUCSORGTOP
 10
0.0
 20
0.0
 30
0.0
  9
$PUCSORGBOTTOM
 10
0.0
 20
0.0
 30
0.0
  9
$PUCSORGLEFT
 10
0.0
 20
0.0
 30
0.0
  9
$PUCSORGRIGHT
 10
0.0
 20
0.0
 30
0.0
  9
$PUCSORGFRONT
 10
0.0
 20
0.0
 30
0.0
  9
$PUCSORGBACK
 10
0.0
 20
0.0
 30
0.0
  9
$USERI1
 70
0
  9
$USERI2
 70
0
  9
$USERI3
 70
0
  9
$USERI4
 70
0
  9
$USERI5
 70
0
  9
$USERR1
 40
0.0
  9
$USERR2
 40
0.0
  9
$USERR3
 40
0.0
  9
$USERR4
 40
0.0
  9
$USERR5
 40
0.0
  9
$WORLDVIEW
 70
1
  9
$SHADEDGE
 70
3
  9
$SHADEDIF
 70
70
  9
$TILEMODE
 70
1
  9
$MAXACTVP
 70
64
  9
$PINSBASE
 10
0.0
 20
0.0
 30
0.0
  9
$PLIMCHECK
 70
0
  9
$PEXTMIN
 10
1e+20
 20
1e+20
 30
1e+20
  9
$PEXTMAX
 10
-1e+20
 20
-1e+20
 30
-1e+20
  9
$PLIMMIN
 10
0.0
 20
0.0
  9
$PLIMMAX
 10
420.0
 20
297.0
  9
$UNITMODE
 70
0
  9
$VISRETAIN
 70
1
  9
$PLINEGEN
 70
0
  9
$PSLTSCALE
 70
1
  9
$TREEDEPTH
 70
3020
  9
$CMLSTYLE
  2
Standard
  9
$CMLJUST
 70
0
  9
$CMLSCALE
 40
20.0
  9
$PROXYGRAPHICS
 70
1
  9
$MEASUREMENT
 70
1
  9
$CELWEIGHT
370
-1
  9
$ENDCAPS
280
0
  9
$JOINSTYLE
280
0
  9
$LWDISPLAY
290
0
  9
$INSUNITS
 70
6
  9
$HYPERLINKBASE
  1

  9
$STYLESHEET
  1

  9
$XEDIT
290
1
  9
$CEPSNTYPE
380
0
  9
$PSTYLEMODE
290
1
  9
$FINGERPRINTGUID
  2
D03BB99D-9B1F-11EB-A080-40B0765E6A6C
  9
$VERSIONGUID
  2
D0402657-9B1F-11EB-835B-40B0765E6A6C
  9
$EXTNAMES
290
1
  9
$PSVPSCALE
 40
0.0
  9
$OLESTARTUP
290
0
  9
$SORTENTS
280
127
  9
$INDEXCTL
280
0
  9
$HIDETEXT
280
1
  9
$XCLIPFRAME
280
2
  9
$HALOGAP
280
0
  9
$OBSCOLOR
 70
257
  9
$OBSLTYPE
280
0
  9
$INTERSECTIONDISPLAY
280
0
  9
$INTERSECTIONCOLOR
 70
257
  9
$DIMASSOC
280
2
  9
$PROJECTNAME
  1

  9
$CAMERADISPLAY
290
0
  9
$LENSLENGTH
 40
50.0
  9
$CAMERAHEIGHT
 40
0.0
  9
$STEPSPERSEC
 40
24.0
  9
$STEPSIZE
 40
100.0
  9
$3DDWFPREC
 40
2.0
  9
$PSOLWIDTH
 40
0.005
  9
$PSOLHEIGHT
 40
0.08
  9
$LOFTANG1
 40
1.570796326795
  9
$LOFTANG2
 40
1.570796326795
  9
$LOFTMAG1
 40
0.0
  9
$LOFTMAG2
 40
0.0
  9
$LOFTPARAM
 70
7
  9
$LOFTNORMALS
280
1
  9
$LATITUDE
 40
37.795
  9
$LONGITUDE
 40
-122.394
  9
$NORTHDIRECTION
 40
0.0
  9
$TIMEZONE
 70
-8000
  9
$LIGHTGLYPHDISPLAY
280
1
  9
$TILEMODELIGHTSYNCH
280
1
  9
$CMATERIAL
347
20
  9
$SOLIDHIST
280
0
  9
$SHOWHIST
280
1
  9
$DWFFRAME
280
2
  9
$DGNFRAME
280
2
  9
$REALWORLDSCALE
290
1
  9
$INTERFERECOLOR
 62
256
  9
$CSHADOW
280
0
  9
$SHADOWPLANELOCATION
 40
0.0
  0
ENDSEC
  0
SECTION
  2
CLASSES
  0
CLASS
  1
ACDBDICTIONARYWDFLT
  2
AcDbDictionaryWithDefault
  3
ObjectDBX Classes
 90
0
 91
0
280
0
281
0
  0
CLASS
  1
SUN
  2
AcDbSun
  3
SCENEOE
 90
1153
 91
0
280
0
281
0
  0
CLASS
  1
VISUALSTYLE
  2
AcDbVisualStyle
  3
ObjectDBX Classes
 90
4095
 91
0
280
0
281
0
  0
CLASS
  1
MATERIAL
  2
AcDbMaterial
  3
ObjectDBX Classes
 90
1153
 91
0
280
0
281
0
  0
CLASS
  1
SCALE
  2
AcDbScale
  3
ObjectDBX Classes
 90
1153
 91
0
280
0
281
0
  0
CLASS
  1
TABLESTYLE
  2
AcDbTableStyle
  3
ObjectDBX Classes
 90
4095
 91
0
280
0
281
0
  0
CLASS
  1
MLEADERSTYLE
  2
AcDbMLeaderStyle
  3
ACDB_MLEADERSTYLE_CLASS
 90
4095
 91
0
280
0
281
0
  0
CLASS
  1
DICTIONARYVAR
  2
AcDbDictionaryVar
  3
ObjectDBX Classes
 90
0
 91
0
280
0
281
0
  0
CLASS
  1
CELLSTYLEMAP
  2
AcDbCellStyleMap
  3
ObjectDBX Classes
 90
1152
 91
0
280
0
281
0
  0
CLASS
  1
MENTALRAYRENDERSETTINGS
  2
AcDbMentalRayRenderSettings
  3
SCENEOE
 90
1024
 91
0
280
0
281
0
  0
CLASS
  1
ACDBDETAILVIEWSTYLE
  2
AcDbDetailViewStyle
  3
ObjectDBX Classes
 90
1025
 91
0
280
0
281
0
  0
CLASS
  1
ACDBSECTIONVIEWSTYLE
  2
AcDbSectionViewStyle
  3
ObjectDBX Classes
 90
1025
 91
0
280
0
281
0
  0
CLASS
  1
RASTERVARIABLES
  2
AcDbRasterVariables
  3
ISM
 90
0
 91
0
280
0
281
0
  0
CLASS
  1
ACDBPLACEHOLDER
  2
AcDbPlaceHolder
  3
ObjectDBX Classes
 90
0
 91
0
280
0
281
0
  0
CLASS
  1
LAYOUT
  2
AcDbLayout
  3
ObjectDBX Classes
 90
0
 91
0
280
0
281
0
  0
ENDSEC
  0
SECTION
  2
TABLES
  0
TABLE
  2
VPORT
  5
8
330
0
100
AcDbSymbolTable
 70
1
  0
VPORT
  5
23
330
8
100
AcDbSymbolTableRecord
100
AcDbViewportTableRecord
  2
*Active
 70
0
 10
0.0
 20
0.0
 11
1.0
 21
1.0
 12
70.0
 22
50.0
 13
0.0
 23
0.0
 14
0.5
 24
0.5
 15
0.5
 25
0.5
 16
0.0
 26
0.0
 36
1.0
 17
0.0
 27
0.0
 37
0.0
 40
1.0
 41
1.34
 42
50.0
 43
0.0
 44
0.0
 50
0.0
 51
0.0
 71
0
 72
1000
 73
1
 74
3
 75
0
 76
0
 77
0
 78
0
281
0
 65
0
146
0.0
  0
ENDTAB
  0
TABLE
  2
LTYPE
  5
2
330
0
100
AcDbSymbolTable
 70
3
  0
LTYPE
  5
24
330
2
100
AcDbSymbolTableRecord
100
AcDbLinetypeTableRecord
  2
ByBlock
 70
0
  3

 72
65
 73
0
 40
0.0
  0
LTYPE
  5
25
330
2
100
AcDbSymbolTableRecord
100
AcDbLinetypeTableRecord
  2
ByLayer
 70
0
  3

 72
65
 73
0
 40
0.0
  0
LTYPE
  5
26
330
2
100
AcDbSymbolTableRecord
100
AcDbLinetypeTableRecord
  2
Continuous
 70
0
  3

 72
65
 73
0
 40
0.0
  0
ENDTAB
  0
TABLE
  2
LAYER
  5
1
330
0
100
AcDbSymbolTable
 70
2
  0
LAYER
  5
27
330
1
100
AcDbSymbolTableRecord
100
AcDbLayerTableRecord
  2
0
 70
0
 62
7
  6
Continuous
370
-3
390
13
347
21
  0
LAYER
  5
28
330
1
100
AcDbSymbolTableRecord
100
AcDbLayerTableRecord
  2
Defpoints
 70
0
 62
7
  6
Continuous
290
0
370
-3
390
13
347
21
  0
ENDTAB
  0
TABLE
  2
STYLE
  5
5
330
0
100
AcDbSymbolTable
 70
1
  0
STYLE
  5
29
330
5
100
AcDbSymbolTableRecord
100
AcDbTextStyleTableRecord
  2
Standard
 70
0
 40
0.0
 41
1.0
 50
0.0
 71
0
 42
2.5
  3
txt
  4

  0
ENDTAB
  0
TABLE
  2
VIEW
  5
7
330
0
100
AcDbSymbolTable
 70
0
  0
ENDTAB
  0
TABLE
  2
UCS
  5
6
330
0
100
AcDbSymbolTable
 70
0
  0
ENDTAB
  0
TABLE
  2
APPID
  5
3
330
0
100
AcDbSymbolTable
 70
2
  0
APPID
  5
2A
330
3
100
AcDbSymbolTableRecord
100
AcDbRegAppTableRecord
  2
ACAD
 70
0
  0
APPID
  5
11E
330
3
100
AcDbSymbolTableRecord
100
AcDbRegAppTableRecord
  2
HATCHBACKGROUNDCOLOR
 70
0
  0
ENDTAB
  0
TABLE
  2
DIMSTYLE
  5
4
330
0
100
AcDbSymbolTable
 70
1
100
AcDbDimStyleTable
  0
DIMSTYLE
105
2B
330
4
100
AcDbSymbolTableRecord
100
AcDbDimStyleTableRecord
  2
Standard
 70
0
 40
1.0
 41
2.5
 42
0.625
 43
3.75
 44
1.25
 45
0.0
 46
0.0
 47
0.0
 48
0.0
 49
2.5
140
2.5
141
2.5
142
0.0
143
0.03937007874
144
1.0
145
0.0
146
1.0
147
0.625
148
0.0
 69
0
 70
0
 71
0
 72
0
 73
0
 74
0
 75
0
 76
0
 77
1
 78
8
 79
0
170
0
171
3
172
1
173
0
174
0
175
0
176
0
177
0
178
0
179
0
271
0
272
2
273
2
274
3
275
0
276
0
277
2
278
44
279
0
280
0
281
0
282
0
283
0
284
8
285
0
286
0
288
0
289
3
290
0
371
-2
372
-2
  0
ENDTAB
  0
TABLE
  2
BLOCK_RECORD
  5
9
330
0
100
AcDbSymbolTable
 70
2
  0
BLOCK_RECORD
  5
17
330
9
100
AcDbSymbolTableRecord
100
AcDbBlockTableRecord
  2
*Model_Space
340
1A
 70
0
280
1
281
0
  0
BLOCK_RECORD
  5
1B
330
9
100
AcDbSymbolTableRecord
100
AcDbBlockTableRecord
  2
*Paper_Space
340
1E
 70
0
280
1
281
0
  0
ENDTAB
  0
ENDSEC
  0
SECTION
  2
BLOCKS
  0
BLOCK
  5
18
330
17
100
AcDbEntity
  8
0
100
AcDbBlockBegin
  2
*Model_Space
 70
0
 10
0.0
 20
0.0
 30
0.0
  3
*Model_Space
  1

  0
ENDBLK
  5
19
330
17
100
AcDbEntity
  8
0
100
AcDbBlockEnd
  0
BLOCK
  5
1C
330
1B
100
AcDbEntity
  8
0
100
AcDbBlockBegin
  2
*Paper_Space
 70
0
 10
0.0
 20
0.0
 30
0.0
  3
*Paper_Space
  1

  0
ENDBLK
  5
1D
330
1B
100
AcDbEntity
  8
0
100
AcDbBlockEnd
  0
ENDSEC
  0
SECTION
  2
ENTITIES
  0
CIRCLE
  5
2D
330
17
100
AcDbEntity
  8
0
100
AcDbCircle
 10
0.042862500000000005
 20
0.026193750000000002
 30
0.0
 40
0.00225
  0
CIRCLE
  5
2E
330
17
100
AcDbEntity
  8
0
100
AcDbCircle
 10
-0.007143750000000001
 20
0.014287500000000002
 30
0.0
 40
0.00225
  0
CIRCLE
  5
2F
330
17
100
AcDbEntity
  8
0
100
AcDbCircle
 10
-0.007143750000000001
 20
-0.0714375
 30
0.0
 40
0.00225
  0
CIRCLE
  5
30
330
17
100
AcDbEntity
  8
0
100
AcDbCircle
 10
0.05000625
 20
-0.0904875
 30
0.0
 40
0.00225
  0
CIRCLE
  5
31
330
17
100
AcDbEntity
  8
0
100
AcDbCircle
 10
0.08810625
 20
-0.11430000000000001
 30
0.0
 40
0.00225
  0
CIRCLE
  5
32
330
17
100
AcDbEntity
  8
0
100
AcDbCircle
 10
0.11668125
 20
-0.11430000000000001
 30
0.0
 40
0.00225
  0
CIRCLE
  5
33
330
17
100
AcDbEntity
  8
0
100
AcDbCircle
 10
0.17517798488313815
 20
-0.060994810381974476
 30
0.0
 40
0.00225
  0
CIRCLE
  5
34
330
17
100
AcDbEntity
  8
0
100
AcDbCircle
 10
0.1615324940218487
 20
0.016392613859416094
 30
0.0
 40
0.00225
  0
CIRCLE
  5
35
330
17
100
AcDbEntity
  8
0
100
AcDbCircle
 10
0.129392540125387
 20
0.020397411306955462
 30
0.0
 40
0.00225
  0
CIRCLE
  5
36
330
17
100
AcDbEntity
  8
0
100
AcDbCircle
 10
0.11110096712287651
 20
0.017172113467014315
 30
0.0
 40
0.00225
  0
CIRCLE
  5
37
330
17
100
AcDbEntity
  8
0
100
AcDbCircle
 10
0.12977812500000002
 20
-0.05000625
 30
0.0
 40
0.00225
  0
LINE
  5
38
330
17
100
AcDbEntity
  8
0
100
AcDbLine
 10
0.11022766423319853
 20
0.022331078410233744
 30
0.0
 11
0.04351783502368041
 21
0.03115061755993519
 31
0.0
  0
ARC
  5
39
330
17
100
AcDbEntity
  8
0
100
AcDbCircle
 10
0.11088299925687889
 20
0.027287945970169043
 30
0.0
 40
0.005000000000000107
100
AcDbArc
 50
262.46874522213074
 51
280.00000000000006
  0
LINE
  5
3A
330
17
100
AcDbEntity
  8
0
100
AcDbLine
 10
0.11346079827190748
 20
0.022665348427933454
 30
0.0
 11
0.11175124014521357
 21
0.022363907205107898
 31
0.0
  0
LINE
  5
3B
330
17
100
AcDbEntity
  8
0
100
AcDbLine
 10
0.1146425675755221
 20
0.02287372624113377
 30
0.0
 11
0.11346079827190748
 21
0.022665348427933454
 31
0.0
  0
LINE
  5
3C
330
17
100
AcDbEntity
  8
0
100
AcDbLine
 10
0.11464257046252427
 20
0.022873709868130906
 30
0.0
 11
0.12399824411614024
 21
0.024523367555966742
 31
0.0
  0
LINE
  5
3D
330
17
100
AcDbEntity
  8
0
100
AcDbLine
 10
0.12518001053275274
 20
0.024731761742169924
 30
0.0
 11
0.12399824122913808
 21
0.024523383928969605
 31
0.0
  0
LINE
  5
3E
330
17
100
AcDbEntity
  8
0
100
AcDbLine
 10
0.12852429923705236
 20
0.0253214500720165
 30
0.0
 11
0.12518001053275274
 21
0.024731761742169924
 31
0.0
  0
ARC
  5
3F
330
17
100
AcDbEntity
  8
0
100
AcDbCircle
 10
0.129392540125387
 20
0.02039741130695548
 30
0.0
 40
0.004999999999999978
100
AcDbArc
 50
55.0000000000001
 51
99.99999999999999
  0
LINE
  5
40
330
17
100
AcDbEntity
  8
0
100
AcDbLine
 10
0.13791654900853734
 20
0.020532708975014354
 30
0.0
 11
0.13226042230714222
 21
0.024493171528400425
 31
0.0
  0
LINE
  5
41
330
17
100
AcDbEntity
  8
0
100
AcDbLine
 10
0.14751677393615475
 20
0.01381055911218789
 30
0.0
 11
0.13791654900853734
 21
0.020532708975014354
 31
0.0
  0
ARC
  5
42
330
17
100
AcDbEntity
  8
0
100
AcDbCircle
 10
0.15038465611791002
 20
0.017906319333632785
 30
0.0
 40
0.004999999999999966
100
AcDbArc
 50
234.99999999999926
 51
237.06641185263766
  0
ARC
  5
43
330
17
100
AcDbEntity
  8
0
100
AcDbCircle
 10
0.15038465611791002
 20
0.017906319333632785
 30
0.0
 40
0.004999999999999966
100
AcDbArc
 50
237.06641185263766
 51
324.9999999999999
  0
LINE
  5
44
330
17
100
AcDbEntity
  8
0
100
AcDbLine
 10
0.15743673380040377
 20
0.01926049604117136
 30
0.0
 11
0.15448041633935494
 21
0.015038437151877573
 31
0.0
  0
ARC
  5
45
330
17
100
AcDbEntity
  8
0
100
AcDbCircle
 10
0.1615324940218487
 20
0.0163926138594161
 30
0.0
 40
0.004999999999999989
100
AcDbArc
 50
9.99999999999995
 51
144.99999999999952
  0
LINE
  5
46
330
17
100
AcDbEntity
  8
0
100
AcDbLine
 10
0.1801020236481992
 20
-0.06012656949363981
 30
0.0
 11
0.16645653278690972
 21
0.01726085474775075
 31
0.0
  0
ARC
  5
47
330
17
100
AcDbEntity
  8
0
100
AcDbCircle
 10
0.17517798488313804
 20
-0.06099481038197443
 30
0.0
 40
0.0050000000000001
100
AcDbArc
 50
-47.658631483246616
 51
9.999999999999435
  0
LINE
  5
48
330
17
100
AcDbEntity
  8
0
100
AcDbLine
 10
0.12004898182067007
 20
-0.11799572487937704
 30
0.0
 11
0.1785457167038082
 21
-0.0646905352613515
 31
0.0
  0
ARC
  5
49
330
17
100
AcDbEntity
  8
0
100
AcDbCircle
 10
0.11668125
 20
-0.11429999999999998
 30
0.0
 40
0.005000000000000031
100
AcDbArc
 50
-90.0
 51
-47.65863148324715
  0
LINE
  5
4A
330
17
100
AcDbEntity
  8
0
100
AcDbLine
 10
0.08810625
 20
-0.11930000000000002
 30
0.0
 11
0.11668125
 21
-0.11930000000000002
 31
0.0
  0
ARC
  5
4B
330
17
100
AcDbEntity
  8
0
100
AcDbCircle
 10
0.08810625
 20
-0.11430000000000004
 30
0.0
 40
0.004999999999999977
100
AcDbArc
 50
-159.44395478041645
 51
-90.0
  0
LINE
  5
4C
330
17
100
AcDbEntity
  8
0
100
AcDbLine
 10
0.078336675543434
 20
-0.10248780769135318
 30
0.0
 11
0.0834246041121548
 21
-0.116055617207942
 31
0.0
  0
ARC
  5
4D
330
17
100
AcDbEntity
  8
0
100
AcDbCircle
 10
0.07365502965558876
 20
-0.10424342489929514
 30
0.0
 40
0.005000000000000015
100
AcDbArc
 50
20.556045219583353
 51
81.25383773744474
  0
LINE
  5
4E
330
17
100
AcDbEntity
  8
0
100
AcDbLine
 10
0.049245964078730296
 20
-0.09542935848825308
 30
0.0
 11
0.07441531557685847
 21
-0.09930156641104204
 31
0.0
  0
ARC
  5
4F
330
17
100
AcDbEntity
  8
0
100
AcDbCircle
 10
0.05000625000000002
 20
-0.09048749999999998
 30
0.0
 40
0.005000000000000017
100
AcDbArc
 50
-180.0
 51
-98.74616226255542
  0
LINE
  5
50
330
17
100
AcDbEntity
  8
0
100
AcDbLine
 10
0.04500625
 20
-0.0814375
 30
0.0
 11
0.045006250000000005
 21
-0.09048749999999998
 31
0.0
  0
ARC
  5
51
330
17
100
AcDbEntity
  8
0
100
AcDbCircle
 10
0.04000625000000001
 20
-0.0814375
 30
0.0
 40
0.004999999999999994
100
AcDbArc
 50
0.0
 51
90.0
  0
LINE
  5
52
330
17
100
AcDbEntity
  8
0
100
AcDbLine
 10
-0.00714375
 20
-0.0764375
 30
0.0
 11
0.04000625000000001
 21
-0.0764375
 31
0.0
  0
ARC
  5
53
330
17
100
AcDbEntity
  8
0
100
AcDbCircle
 10
-0.007143749999999994
 20
-0.0714375
 30
0.0
 40
0.005000000000000005
100
AcDbArc
 50
-180.0
 51
-90.00000000000006
  0
LINE
  5
54
330
17
100
AcDbEntity
  8
0
100
AcDbLine
 10
-0.01214375
 20
0.0142875
 30
0.0
 11
-0.01214375
 21
-0.0714375
 31
0.0
  0
ARC
  5
55
330
17
100
AcDbEntity
  8
0
100
AcDbCircle
 10
-0.007143750000000004
 20
0.014287500000000003
 30
0.0
 40
0.004999999999999996
100
AcDbArc
 50
103.39249775375112
 51
180.00000000000006
  0
LINE
  5
56
330
17
100
AcDbEntity
  8
0
100
AcDbLine
 10
0.041704397363469814
 20
0.03105778107342684
 30
0.0
 11
-0.008301852636530202
 21
0.019151531073426833
 31
0.0
  0
ARC
  5
57
330
17
100
AcDbEntity
  8
0
100
AcDbCircle
 10
0.04286250000000002
 20
0.026193749999999846
 30
0.0
 40
0.005000000000000155
100
AcDbArc
 50
82.46874522213042
 51
103.39249775375076
  0
LINE
  5
58
330
17
100
AcDbEntity
  8
0
100
AcDbLine
 10
0.1058635799788896
 20
0.021182430164327692
 30
0.0
 11
0.04813689932556748
 21
0.028804395666001206
 31
0.0
  0
ARC
  5
59
330
17
100
AcDbEntity
  8
0
100
AcDbCircle
 10
0.10573268065332209
 20
0.02019103449832649
 30
0.0
 40
0.0009999999999999935
100
AcDbArc
 50
9.999999999999972
 51
82.47843602099383
  0
LINE
  5
5A
330
17
100
AcDbEntity
  8
0
100
AcDbLine
 10
0.10861963054449784
 20
0.009577098549497691
 30
0.0
 11
0.10671748840633428
 21
0.02036468267599342
 31
0.0
  0
ARC
  5
5B
330
17
100
AcDbEntity
  8
0
100
AcDbCircle
 10
0.10960443829751004
 20
0.00975074672716462
 30
0.0
 40
0.0009999999999999966
100
AcDbArc
 50
189.9999999999999
 51
280.0000000000003
  0
LINE
  5
5C
330
17
100
AcDbEntity
  8
0
100
AcDbLine
 10
0.1269442704179328
 20
0.01179280035906468
 30
0.0
 11
0.10977808647517698
 21
0.008765938974152409
 31
0.0
  0
ARC
  5
5D
330
17
100
AcDbEntity
  8
0
100
AcDbCircle
 10
0.1271179185955997
 20
0.010807992606052417
 30
0.0
 40
0.0010000000000000492
100
AcDbArc
 50
54.999999999999325
 51
99.99999999999821
  0
LINE
  5
5E
330
17
100
AcDbEntity
  8
0
100
AcDbLine
 10
0.14135746782080488
 20
0.0020581274866170035
 30
0.0
 11
0.1276914950319508
 21
0.011627144650341446
 31
0.0
  0
ARC
  5
5F
330
17
100
AcDbEntity
  8
0
100
AcDbCircle
 10
0.14193104425715594
 20
0.0028772795309061493
 30
0.0
 40
0.001000000000000134
100
AcDbArc
 50
235.00000000000443
 51
279.9999999999989
  0
LINE
  5
60
330
17
100
AcDbEntity
  8
0
100
AcDbLine
 10
0.14234906829379976
 20
0.00193556183526523
 30
0.0
 11
0.14210469243482288
 21
0.0018924717778938047
 31
0.0
  0
ARC
  5
61
330
17
100
AcDbEntity
  8
0
100
AcDbCircle
 10
0.1421754201161329
 20
0.002920369588277366
 30
0.0
 40
0.0009999999999999155
100
AcDbArc
 50
279.9999999999963
 51
324.9999999999998
  0
LINE
  5
62
330
17
100
AcDbEntity
  8
0
100
AcDbLine
 10
0.14792781235104802
 20
0.009392190296949227
 30
0.0
 11
0.14299457216042183
 21
0.0023467931519263636
 31
0.0
  0
ARC
  5
63
330
17
100
AcDbEntity
  8
0
100
AcDbCircle
 10
0.14874696439533697
 20
0.008818613860598325
 30
0.0
 40
0.0009999999999998847
100
AcDbArc
 50
99.99999999999984
 51
145.00000000000549
  0
LINE
  5
64
330
17
100
AcDbEntity
  8
0
100
AcDbLine
 10
0.1575783983112137
 20
0.011391260550196833
 30
0.0
 11
0.14857331621767006
 21
0.00980342161361042
 31
0.0
  0
ARC
  5
65
330
17
100
AcDbEntity
  8
0
100
AcDbCircle
 10
0.15775204648888067
 20
0.010406452797184648
 30
0.0
 40
0.0009999999999999829
100
AcDbArc
 50
10.000000000000117
 51
100.00000000000202
  0
LINE
  5
66
330
17
100
AcDbEntity
  8
0
100
AcDbLine
 10
0.15958539871671734
 20
0.005767766121642376
 30
0.0
 11
0.15873685424189285
 21
0.010580100974851576
 31
0.0
  0
ARC
  5
67
330
17
100
AcDbEntity
  8
0
100
AcDbCircle
 10
0.16057020646972966
 20
0.005941414299309476
 30
0.0
 40
0.0010000000000001444
100
AcDbArc
 50
190.0000000000084
 51
235.00000000000108
  0
LINE
  5
68
330
17
100
AcDbEntity
  8
0
100
AcDbLine
 10
0.16152488080854202
 20
0.004052169541976093
 30
0.0
 11
0.15999663003337855
 21
0.0051222622550203545
 31
0.0
  0
ARC
  5
69
330
17
100
AcDbEntity
  8
0
100
AcDbCircle
 10
0.16095130437219082
 20
0.0032330174976870625
 30
0.0
 40
0.001000000000000118
100
AcDbArc
 50
9.999999999999943
 51
54.9999999999942
  0
LINE
  5
6A
330
17
100
AcDbEntity
  8
0
100
AcDbLine
 10
0.1709669460770384
 20
-0.047809738731675724
 30
0.0
 11
0.16193611212520315
 21
0.003406665675354012
 31
0.0
  0
ARC
  5
6B
330
17
100
AcDbEntity
  8
0
100
AcDbCircle
 10
0.1699821383240255
 20
-0.047983386909342195
 30
0.0
 40
0.0010000000000006087
100
AcDbArc
 50
-32.878903603338834
 51
9.999999999967107
  0
LINE
  5
6C
330
17
100
AcDbEntity
  8
0
100
AcDbLine
 10
0.16884620141883633
 20
-0.05158277416239328
 30
0.0
 11
0.17082195812933307
 21
-0.04852625217311801
 31
0.0
  0
ARC
  5
6D
330
17
100
AcDbEntity
  8
0
100
AcDbCircle
 10
0.16800638161352954
 20
-0.05103990889861858
 30
0.0
 40
0.0009999999999993538
100
AcDbArc
 50
-79.99999999999967
 51
-32.87890360330926
  0
LINE
  5
6E
330
17
100
AcDbEntity
  8
0
100
AcDbLine
 10
0.14397887166479745
 20
-0.05629203379370621
 30
0.0
 11
0.16818002979119637
 21
-0.05202471665163015
 31
0.0
  0
ARC
  5
6F
330
17
100
AcDbEntity
  8
0
100
AcDbCircle
 10
0.1438052234871307
 20
-0.055307226040693776
 30
0.0
 40
0.0010000000000001926
100
AcDbArc
 50
-129.9271099476495
 51
-80.00000000001286
  0
LINE
  5
70
330
17
100
AcDbEntity
  8
0
100
AcDbLine
 10
0.13185026032998648
 20
-0.046605726649990215
 30
0.0
 11
0.14316341093716714
 21
-0.056074087599718395
 31
0.0
  0
ARC
  5
71
330
17
100
AcDbEntity
  8
0
100
AcDbCircle
 10
0.13120844778002305
 20
-0.04737258820901486
 30
0.0
 40
0.001000000000000137
100
AcDbArc
 50
50.07289005235765
 51
100.00000000000051
  0
LINE
  5
72
330
17
100
AcDbEntity
  8
0
100
AcDbLine
 10
0.12641710201031137
 20
-0.047202005130232524
 30
0.0
 11
0.1310347996023561
 21
-0.04638778045600252
 31
0.0
  0
ARC
  5
73
330
17
100
AcDbEntity
  8
0
100
AcDbCircle
 10
0.12659075018797838
 20
-0.048186812883244674
 30
0.0
 40
0.0009999999999999603
100
AcDbArc
 50
100.00000000000541
 51
190.0000000000004
  0
LINE
  5
74
330
17
100
AcDbEntity
  8
0
100
AcDbLine
 10
0.1261704308196308
 20
-0.05156183377424511
 30
0.0
 11
0.12560594243496623
 21
-0.0483604610609116
 31
0.0
  0
ARC
  5
75
330
17
100
AcDbEntity
  8
0
100
AcDbCircle
 10
0.12715523857264222
 20
-0.051388185596578886
 30
0.0
 40
0.000999999999999092
100
AcDbArc
 50
189.9999999999679
 51
226.25383773744488
  0
LINE
  5
76
330
17
100
AcDbEntity
  8
0
100
AcDbLine
 10
0.1380657455680718
 20
-0.06321557837348087
 30
0.0
 11
0.12646377390318372
 21
-0.05211059587536017
 31
0.0
  0
ARC
  5
77
330
17
100
AcDbEntity
  8
0
100
AcDbCircle
 10
0.13875721023753093
 20
-0.06249316809469865
 30
0.0
 40
0.0010000000000002143
100
AcDbArc
 50
226.25383773745534
 51
279.50747528359386
  0
LINE
  5
78
330
17
100
AcDbEntity
  8
0
100
AcDbLine
 10
0.15985482371652746
 20
-0.05997373594033941
 30
0.0
 11
0.1389223865210034
 21
-0.06347943215435949
 31
0.0
  0
ARC
  5
79
330
17
100
AcDbEntity
  8
0
100
AcDbCircle
 10
0.16001999999999986
 20
-0.060959999999998314
 30
0.0
 40
0.0009999999999983078
100
AcDbArc
 50
90.00000000000001
 51
99.507475283609
  0
LINE
  5
7A
330
17
100
AcDbEntity
  8
0
100
AcDbLine
 10
0.1682115000000001
 20
-0.05996000000000002
 30
0.0
 11
0.16001999999999986
 21
-0.059960000000000006
 31
0.0
  0
ARC
  5
7B
330
17
100
AcDbEntity
  8
0
100
AcDbCircle
 10
0.1682115
 20
-0.060960000000000035
 30
0.0
 40
0.0010000000000000148
100
AcDbArc
 50
0.0
 51
89.99999999999523
  0
LINE
  5
7C
330
17
100
AcDbEntity
  8
0
100
AcDbLine
 10
0.16921150000000001
 20
-0.06762750000000012
 30
0.0
 11
0.16921150000000001
 21
-0.060960000000000035
 31
0.0
  0
ARC
  5
7D
330
17
100
AcDbEntity
  8
0
100
AcDbCircle
 10
0.16821150000000012
 20
-0.0676275000000001
 30
0.0
 40
0.0009999999999998899
100
AcDbArc
 50
-90.0
 51
-7.887775610029521e-13
  0
LINE
  5
7E
330
17
100
AcDbEntity
  8
0
100
AcDbLine
 10
0.16385889495992847
 20
-0.0686275
 30
0.0
 11
0.16821150000000012
 21
-0.0686275
 31
0.0
  0
ARC
  5
7F
330
17
100
AcDbEntity
  8
0
100
AcDbCircle
 10
0.16385889495992784
 20
-0.06962749999999913
 30
0.0
 40
0.0009999999999991372
100
AcDbArc
 50
89.9999999999634
 51
133.15238973400506
  0
LINE
  5
80
330
17
100
AcDbEntity
  8
0
100
AcDbLine
 10
0.1552400588711186
 20
-0.07633692682079266
 30
0.0
 11
0.1631749538310471
 21
-0.06889796279585968
 31
0.0
  0
ARC
  5
81
330
17
100
AcDbEntity
  8
0
100
AcDbCircle
 10
0.15592400000000023
 20
-0.07706646402493277
 30
0.0
 40
0.0010000000000002201
100
AcDbArc
 50
133.1523897340166
 51
180.0
  0
LINE
  5
82
330
17
100
AcDbEntity
  8
0
100
AcDbLine
 10
0.154924
 20
-0.08248650000000013
 30
0.0
 11
0.154924
 21
-0.07706646402493277
 31
0.0
  0
ARC
  5
83
330
17
100
AcDbEntity
  8
0
100
AcDbCircle
 10
0.15392399999999995
 20
-0.08248649999999996
 30
0.0
 40
0.0010000000000000495
100
AcDbArc
 50
-90.0
 51
-9.54166404439055e-12
  0
LINE
  5
84
330
17
100
AcDbEntity
  8
0
100
AcDbLine
 10
0.1480341309571303
 20
-0.0834865
 30
0.0
 11
0.15392399999999995
 21
-0.0834865
 31
0.0
  0
ARC
  5
85
330
17
100
AcDbEntity
  8
0
100
AcDbCircle
 10
0.1480341309571304
 20
-0.08448650000000006
 30
0.0
 40
0.0010000000000000631
100
AcDbArc
 50
90.00000000000476
 51
132.4937037180121
  0
LINE
  5
86
330
17
100
AcDbEntity
  8
0
100
AcDbLine
 10
0.11840450918350201
 20
-0.11027485157354172
 30
0.0
 11
0.14735862177362793
 21
-0.08374914842645866
 31
0.0
  0
ARC
  5
87
330
17
100
AcDbEntity
  8
0
100
AcDbCircle
 10
0.11772899999999961
 20
-0.10953749999999904
 30
0.0
 40
0.0010000000000009732
100
AcDbArc
 50
-90.0
 51
-47.506296282039656
  0
LINE
  5
88
330
17
100
AcDbEntity
  8
0
100
AcDbLine
 10
0.11512842712474526
 20
-0.11053750000000001
 30
0.0
 11
0.11772899999999961
 21
-0.11053750000000001
 31
0.0
  0
ARC
  5
89
330
17
100
AcDbEntity
  8
0
100
AcDbCircle
 10
0.11512842712474716
 20
-0.11153750000000232
 30
0.0
 40
0.0010000000000023085
100
AcDbArc
 50
90.00000000010893
 51
135.0
  0
LINE
  5
8A
330
17
100
AcDbEntity
  8
0
100
AcDbLine
 10
0.11310210678118658
 20
-0.11214960678118652
 30
0.0
 11
0.11442132034355898
 21
-0.11083039321881413
 31
0.0
  0
ARC
  5
8B
330
17
100
AcDbEntity
  8
0
100
AcDbCircle
 10
0.11239500000000008
 20
-0.11144250000000017
 30
0.0
 40
0.000999999999999832
100
AcDbArc
 50
-90.0
 51
-44.99999999999381
  0
LINE
  5
8C
330
17
100
AcDbEntity
  8
0
100
AcDbLine
 10
0.09296399999999942
 20
-0.1124425
 30
0.0
 11
0.11239500000000008
 21
-0.1124425
 31
0.0
  0
ARC
  5
8D
330
17
100
AcDbEntity
  8
0
100
AcDbCircle
 10
0.09296400000000038
 20
-0.11144249999999906
 30
0.0
 40
0.0010000000000009463
100
AcDbArc
 50
-135.00000000000057
 51
-90.00000000005487
  0
LINE
  5
8E
330
17
100
AcDbEntity
  8
0
100
AcDbLine
 10
0.0909376796564403
 20
-0.1108303932188134
 30
0.0
 11
0.09225689321881315
 21
-0.11214960678118627
 31
0.0
  0
ARC
  5
8F
330
17
100
AcDbEntity
  8
0
100
AcDbCircle
 10
0.09023057287525375
 20
-0.11153750000000016
 30
0.0
 40
0.0010000000000001535
100
AcDbArc
 50
45.00000000000901
 51
90.0
  0
LINE
  5
90
330
17
100
AcDbEntity
  8
0
100
AcDbLine
 10
0.08953500000000027
 20
-0.11053750000000001
 30
0.0
 11
0.09023057287525375
 21
-0.11053750000000001
 31
0.0
  0
ARC
  5
91
330
17
100
AcDbEntity
  8
0
100
AcDbCircle
 10
0.0895349999999993
 20
-0.10953750000000104
 30
0.0
 40
0.0009999999999989768
100
AcDbArc
 50
-160.14478563067888
 51
-89.99999999994434
  0
LINE
  5
92
330
17
100
AcDbEntity
  8
0
100
AcDbLine
 10
0.08280824622289241
 20
-0.09385382172631819
 30
0.0
 11
0.08859444610030856
 21
-0.10987714446377825
 31
0.0
  0
ARC
  5
93
330
17
100
AcDbEntity
  8
0
100
AcDbCircle
 10
0.08186769232320068
 20
-0.09419346619009582
 30
0.0
 40
0.00100000000000006
100
AcDbArc
 50
19.85521436932413
 51
81.46923439005151
  0
LINE
  5
94
330
17
100
AcDbEntity
  8
0
100
AcDbLine
 10
0.054620409547069794
 20
-0.0890951863528683
 30
0.0
 11
0.08201603277613094
 21
-0.09320452983722746
 31
0.0
  0
ARC
  5
95
330
17
100
AcDbEntity
  8
0
100
AcDbCircle
 10
0.05476874999999996
 20
-0.08810625000000005
 30
0.0
 40
0.0009999999999999354
100
AcDbArc
 50
-152.87869659584152
 51
-98.53076560994431
  0
LINE
  5
96
330
17
100
AcDbEntity
  8
0
100
AcDbLine
 10
0.044434852085584314
 20
-0.07012412413019432
 30
0.0
 11
0.053878706635141355
 21
-0.08856212586980568
 31
0.0
  0
ARC
  5
97
330
17
100
AcDbEntity
  8
0
100
AcDbCircle
 10
0.04354480872072564
 20
-0.07058000000000003
 30
0.0
 40
0.0010000000000000284
100
AcDbArc
 50
27.12130340416104
 51
90.0
  0
LINE
  5
98
330
17
100
AcDbEntity
  8
0
100
AcDbLine
 10
-0.0023812500000000014
 20
-0.06958
 30
0.0
 11
0.04354480872072564
 21
-0.06958
 31
0.0
  0
ARC
  5
99
330
17
100
AcDbEntity
  8
0
100
AcDbCircle
 10
-0.0023812500000000023
 20
-0.06858
 30
0.0
 40
0.0010000000000000009
100
AcDbArc
 50
-128.65980825409017
 51
-89.99999999999994
  0
LINE
  5
9A
330
17
100
AcDbEntity
  8
0
100
AcDbLine
 10
-0.004839367071161998
 20
-0.06789413119055697
 30
0.0
 11
-0.0030059450475544277
 21
-0.06936086880944303
 31
0.0
  0
ARC
  5
9B
330
17
100
AcDbEntity
  8
0
100
AcDbCircle
 10
-0.005464062118716417
 20
-0.06867499999999999
 30
0.0
 40
0.0009999999999999866
100
AcDbArc
 50
51.34019174590961
 51
90.0
  0
LINE
  5
9C
330
17
100
AcDbEntity
  8
0
100
AcDbLine
 10
-0.00904875
 20
-0.067675
 30
0.0
 11
-0.005464062118716417
 21
-0.067675
 31
0.0
  0
ARC
  5
9D
330
17
100
AcDbEntity
  8
0
100
AcDbCircle
 10
-0.00904875
 20
-0.066675
 30
0.0
 40
0.0010000000000000009
100
AcDbArc
 50
-180.0
 51
-90.0
  0
LINE
  5
9E
330
17
100
AcDbEntity
  8
0
100
AcDbLine
 10
-0.01004875
 20
0.009525
 30
0.0
 11
-0.01004875
 21
-0.066675
 31
0.0
  0
ARC
  5
9F
330
17
100
AcDbEntity
  8
0
100
AcDbCircle
 10
-0.00904875
 20
0.009524999999999999
 30
0.0
 40
0.0010000000000000009
100
AcDbArc
 50
90.0
 51
179.9999999999999
  0
LINE
  5
A0
330
17
100
AcDbEntity
  8
0
100
AcDbLine
 10
-0.00438125
 20
0.010525
 30
0.0
 11
-0.00904875
 21
0.010525
 31
0.0
  0
ARC
  5
A1
330
17
100
AcDbEntity
  8
0
100
AcDbCircle
 10
-0.0043812500000000015
 20
0.011525
 30
0.0
 40
0.001000000000000001
100
AcDbArc
 50
-89.99999999999989
 51
0.0
  0
LINE
  5
A2
330
17
100
AcDbEntity
  8
0
100
AcDbLine
 10
-0.0033812500000000006
 20
0.0142875
 30
0.0
 11
-0.00338125
 21
0.011525
 31
0.0
  0
ARC
  5
A3
330
17
100
AcDbEntity
  8
0
100
AcDbCircle
 10
-0.0023812500000000157
 20
0.014287500000000015
 30
0.0
 40
0.0009999999999999848
100
AcDbArc
 50
98.06943982572396
 51
180.00000000000088
  0
LINE
  5
A4
330
17
100
AcDbEntity
  8
0
100
AcDbLine
 10
0.04614637315739721
 20
0.022177598147697857
 30
0.0
 11
-0.002521623157397228
 21
0.015277598670175018
 31
0.0
  0
ARC
  5
A5
330
17
100
AcDbEntity
  8
0
100
AcDbCircle
 10
0.046006
 20
0.023167696817872875
 30
0.0
 40
0.0010000000000000009
100
AcDbArc
 50
278.06943982572386
 51
360.0
  0
LINE
  5
A6
330
17
100
AcDbEntity
  8
0
100
AcDbLine
 10
0.047006
 20
0.027813000000000004
 30
0.0
 11
0.047006
 21
0.023167696817872875
 31
0.0
  0
ARC
  5
A7
330
17
100
AcDbEntity
  8
0
100
AcDbCircle
 10
0.048005999999999986
 20
0.02781300000000001
 30
0.0
 40
0.0009999999999999874
100
AcDbArc
 50
82.47843602099455
 51
180.0000000000004
  0
CIRCLE
  5
A8
330
17
100
AcDbEntity
  8
0
100
AcDbCircle
 10
0.1629893984516561
 20
0.007583015057829989
 30
0.0
 40
0.00225
  0
CIRCLE
  5
A9
330
17
100
AcDbEntity
  8
0
100
AcDbCircle
 10
0.14003472254715593
 20
-0.05860862228495947
 30
0.0
 40
0.00225
  0
CIRCLE
  5
AA
330
17
100
AcDbEntity
  8
0
100
AcDbCircle
 10
0.17361666692487224
 20
-0.05268721942651715
 30
0.0
 40
0.00225
  0
ARC
  5
AB
330
17
100
AcDbEntity
  8
0
100
AcDbCircle
 10
0.14510001471194878
 20
-0.058829407758640095
 30
0.0
 40
0.0009999999999999994
100
AcDbArc
 50
99.9999999999999
 51
190.0
  0
LINE
  5
AC
330
17
100
AcDbEntity
  8
0
100
AcDbLine
 10
0.1442714903188368
 20
-0.059889382914018005
 30
0.0
 11
0.14411520695893656
 21
-0.059003055936307024
 31
0.0
  0
ARC
  5
AD
330
17
100
AcDbEntity
  8
0
100
AcDbCircle
 10
0.145256298071849
 20
-0.05971573473635107
 30
0.0
 40
0.0010000000000000015
100
AcDbArc
 50
190.0
 51
279.99999999999983
  0
LINE
  5
AE
330
17
100
AcDbEntity
  8
0
100
AcDbLine
 10
0.16926229387241137
 20
-0.056498256589823576
 30
0.0
 11
0.14542994624951594
 21
-0.06070054248936329
 31
0.0
  0
ARC
  5
AF
330
17
100
AcDbEntity
  8
0
100
AcDbCircle
 10
0.16908864569474444
 20
-0.05551344883681136
 30
0.0
 40
0.0010000000000000015
100
AcDbArc
 50
-79.99999999999983
 51
10.0
  0
LINE
  5
B0
330
17
100
AcDbEntity
  8
0
100
AcDbLine
 10
0.16991717008785642
 20
-0.054453473681433454
 30
0.0
 11
0.17007345344775665
 21
-0.05533980065914444
 31
0.0
  0
ARC
  5
B1
330
17
100
AcDbEntity
  8
0
100
AcDbCircle
 10
0.1689323623348442
 20
-0.05462712185910038
 30
0.0
 40
0.0009999999999999994
100
AcDbArc
 50
10.0
 51
100.00000000000009
  0
LINE
  5
B2
330
17
100
AcDbEntity
  8
0
100
AcDbLine
 10
0.14492636653428184
 20
-0.05784460000562788
 30
0.0
 11
0.16875871415717728
 21
-0.05364231410608817
 31
0.0
  0
LINE
  5
B3
330
17
100
AcDbEntity
  8
0
100
AcDbLine
 10
0.11603175588385972
 20
0.014995247844033242
 30
0.0
 11
0.11464257046252428
 21
0.022873709868130906
 31
0.0
  0
LINE
  5
B4
330
17
100
AcDbEntity
  8
0
100
AcDbLine
 10
0.1253874295374757
 20
0.016644905531869085
 30
0.0
 11
0.11603175588385972
 21
0.014995247844033248
 31
0.0
  0
LINE
  5
B5
330
17
100
AcDbEntity
  8
0
100
AcDbLine
 10
0.12399824411614024
 20
0.024523367555966742
 30
0.0
 11
0.1253874295374757
 21
0.016644905531869078
 31
0.0
  0
LINE
  5
B6
330
17
100
AcDbEntity
  8
0
100
AcDbLine
 10
0.113044045532509
 20
0.02502887066215989
 30
0.0
 11
0.12476325779335427
 21
0.02709528397639636
 31
0.0
  0
LINE
  5
B7
330
17
100
AcDbEntity
  8
0
100
AcDbLine
 10
0.11346079827190748
 20
0.022665348427933454
 30
0.0
 11
0.113044045532509
 21
0.02502887066215989
 31
0.0
  0
LINE
  5
B8
330
17
100
AcDbEntity
  8
0
100
AcDbLine
 10
0.11526674220664572
 20
0.012423331423603627
 30
0.0
 11
0.11346079827190748
 21
0.022665348427933454
 31
0.0
  0
LINE
  5
B9
330
17
100
AcDbEntity
  8
0
100
AcDbLine
 10
0.126985954467491
 20
0.0144897447378401
 30
0.0
 11
0.11526674220664573
 21
0.01242333142360363
 31
0.0
  0
LINE
  5
BA
330
17
100
AcDbEntity
  8
0
100
AcDbLine
 10
0.12518001053275274
 20
0.024731761742169924
 30
0.0
 11
0.12698595446749097
 21
0.014489744737840093
 31
0.0
  0
LINE
  5
BB
330
17
100
AcDbEntity
  8
0
100
AcDbLine
 10
0.12476325779335427
 20
0.027095283976396357
 30
0.0
 11
0.12518001053275274
 21
0.024731761742169924
 31
0.0
  0
LINE
  5
BC
330
17
100
AcDbEntity
  8
0
100
AcDbLine
 10
0.13889708353503144
 20
0.019840921249823437
 30
0.0
 11
0.14667902795577686
 21
0.014391945104488494
 31
0.0
  0
LINE
  5
BD
330
17
100
AcDbEntity
  8
0
100
AcDbLine
 10
0.13430847204422308
 20
0.013287704895511496
 30
0.0
 11
0.13889708353503144
 21
0.01984092124982343
 31
0.0
  0
LINE
  5
BE
330
17
100
AcDbEntity
  8
0
100
AcDbLine
 10
0.1420904164649685
 20
0.007838728750176563
 30
0.0
 11
0.13430847204422308
 21
0.013287704895511506
 31
0.0
  0
LINE
  5
BF
330
17
100
AcDbEntity
  8
0
100
AcDbLine
 10
0.1466790279557769
 20
0.014391945104488504
 30
0.0
 11
0.14209041646496853
 21
0.00783872875017657
 31
0.0
  0
LINE
  5
C0
330
17
100
AcDbEntity
  8
0
100
AcDbLine
 10
0.13929068452912718
 20
0.02249517787973828
 30
0.0
 11
0.1490385938561662
 21
0.015669618287160833
 31
0.0
  0
LINE
  5
C1
330
17
100
AcDbEntity
  8
0
100
AcDbLine
 10
0.13791654900853734
 20
0.020532708975014365
 30
0.0
 11
0.13929068452912718
 21
0.02249517787973828
 31
0.0
  0
LINE
  5
C2
330
17
100
AcDbEntity
  8
0
100
AcDbLine
 10
0.13194890614383378
 20
0.012010031712839181
 30
0.0
 11
0.13791654900853734
 21
0.020532708975014365
 31
0.0
  0
LINE
  5
C3
330
17
100
AcDbEntity
  8
0
100
AcDbLine
 10
0.14169681547087276
 20
0.005184472120261727
 30
0.0
 11
0.13194890614383376
 21
0.012010031712839172
 31
0.0
  0
LINE
  5
C4
330
17
100
AcDbEntity
  8
0
100
AcDbLine
 10
0.14766632330938917
 20
0.01370981284107034
 30
0.0
 11
0.14169681547087276
 21
0.0051844721202617215
 31
0.0
  0
LINE
  5
C5
330
17
100
AcDbEntity
  8
0
100
AcDbLine
 10
0.14903859385616616
 20
0.01566961828716082
 30
0.0
 11
0.14766632330938917
 21
0.01370981284107034
 31
0.0
  0
ARC
  5
C6
330
17
100
AcDbEntity
  8
0
100
AcDbCircle
 10
0.014406249999999994
 20
-0.0734375
 30
0.0
 40
0.0015000000000000042
100
AcDbArc
 50
270.00000000000034
 51
360.0
  0
LINE
  5
C7
330
17
100
AcDbEntity
  8
0
100
AcDbLine
 10
0.015906249999999997
 20
-0.0724375
 30
0.0
 11
0.015906249999999997
 21
-0.0734375
 31
0.0
  0
ARC
  5
C8
330
17
100
AcDbEntity
  8
0
100
AcDbCircle
 10
0.014406249999999995
 20
-0.0724375
 30
0.0
 40
0.0015000000000000037
100
AcDbArc
 50
0.0
 51
89.99999999999972
  0
LINE
  5
C9
330
17
100
AcDbEntity
  8
0
100
AcDbLine
 10
0.009406250000000001
 20
-0.0709375
 30
0.0
 11
0.014406250000000002
 21
-0.0709375
 31
0.0
  0
ARC
  5
CA
330
17
100
AcDbEntity
  8
0
100
AcDbCircle
 10
0.00940625000000001
 20
-0.0724375
 30
0.0
 40
0.0015000000000000042
100
AcDbArc
 50
90.00000000000031
 51
180.0
  0
LINE
  5
CB
330
17
100
AcDbEntity
  8
0
100
AcDbLine
 10
0.007906250000000007
 20
-0.0734375
 30
0.0
 11
0.007906250000000004
 21
-0.0724375
 31
0.0
  0
ARC
  5
CC
330
17
100
AcDbEntity
  8
0
100
AcDbCircle
 10
0.009406250000000008
 20
-0.0734375
 30
0.0
 40
0.0015000000000000037
100
AcDbArc
 50
180.0
 51
269.9999999999997
  0
LINE
  5
CD
330
17
100
AcDbEntity
  8
0
100
AcDbLine
 10
0.014406250000000002
 20
-0.0749375
 30
0.0
 11
0.009406250000000001
 21
-0.0749375
 31
0.0
  0
ARC
  5
CE
330
17
100
AcDbEntity
  8
0
100
AcDbCircle
 10
0.03345625
 20
-0.0734375
 30
0.0
 40
0.0015000000000000029
100
AcDbArc
 50
270.0000000000001
 51
360.0
  0
LINE
  5
CF
330
17
100
AcDbEntity
  8
0
100
AcDbLine
 10
0.03495625
 20
-0.0724375
 30
0.0
 11
0.03495625
 21
-0.0734375
 31
0.0
  0
ARC
  5
D0
330
17
100
AcDbEntity
  8
0
100
AcDbCircle
 10
0.03345625
 20
-0.0724375
 30
0.0
 40
0.0015000000000000029
100
AcDbArc
 50
0.0
 51
89.99999999999986
  0
LINE
  5
D1
330
17
100
AcDbEntity
  8
0
100
AcDbLine
 10
0.028456250000000002
 20
-0.0709375
 30
0.0
 11
0.03345625
 21
-0.0709375
 31
0.0
  0
ARC
  5
D2
330
17
100
AcDbEntity
  8
0
100
AcDbCircle
 10
0.02845625000000001
 20
-0.0724375
 30
0.0
 40
0.0015000000000000048
100
AcDbArc
 50
90.00000000000026
 51
180.0
  0
LINE
  5
D3
330
17
100
AcDbEntity
  8
0
100
AcDbLine
 10
0.026956250000000008
 20
-0.0734375
 30
0.0
 11
0.02695625
 21
-0.0724375
 31
0.0
  0
ARC
  5
D4
330
17
100
AcDbEntity
  8
0
100
AcDbCircle
 10
0.02845625000000001
 20
-0.0734375
 30
0.0
 40
0.0015000000000000048
100
AcDbArc
 50
180.0
 51
269.9999999999997
  0
LINE
  5
D5
330
17
100
AcDbEntity
  8
0
100
AcDbLine
 10
0.03345625000000001
 20
-0.0749375
 30
0.0
 11
0.02845625000000001
 21
-0.0749375
 31
0.0
  0
ARC
  5
D6
330
17
100
AcDbEntity
  8
0
100
AcDbCircle
 10
0.06765118987561866
 20
-0.0952256363559361
 30
0.0
 40
0.001500000000000009
100
AcDbArc
 50
261.25383773744477
 51
351.25383773744426
  0
LINE
  5
D7
330
17
100
AcDbEntity
  8
0
100
AcDbLine
 10
0.06928580460634853
 20
-0.0944653504346664
 30
0.0
 11
0.06913374742209459
 21
-0.09545372213231702
 31
0.0
  0
ARC
  5
D8
330
17
100
AcDbEntity
  8
0
100
AcDbCircle
 10
0.06780324705987258
 20
-0.09423726465828552
 30
0.0
 40
0.0015000000000000228
100
AcDbArc
 50
-8.746162262554122
 51
81.25383773744427
  0
LINE
  5
D9
330
17
100
AcDbEntity
  8
0
100
AcDbLine
 10
0.06308947434800041
 20
-0.09199442119053985
 30
0.0
 11
0.0680313328362535
 21
-0.09275470711180957
 31
0.0
  0
ARC
  5
DA
330
17
100
AcDbEntity
  8
0
100
AcDbCircle
 10
0.06286138857161952
 20
-0.09347697873701583
 30
0.0
 40
0.0015000000000000308
100
AcDbArc
 50
81.25383773744585
 51
171.25383773744375
  0
LINE
  5
DB
330
17
100
AcDbEntity
  8
0
100
AcDbLine
 10
0.061226773840889634
 20
-0.0942372646582855
 30
0.0
 11
0.061378831025143576
 21
-0.09324889296063488
 31
0.0
  0
ARC
  5
DC
330
17
100
AcDbEntity
  8
0
100
AcDbCircle
 10
0.06270933138736559
 20
-0.09446535043466639
 30
0.0
 40
0.0015000000000000308
100
AcDbArc
 50
171.25383773744585
 51
261.25383773744375
  0
LINE
  5
DD
330
17
100
AcDbEntity
  8
0
100
AcDbLine
 10
0.06742310409923774
 20
-0.09670819390241205
 30
0.0
 11
0.06248124561098465
 21
-0.09594790798114233
 31
0.0
  0
ARC
  5
DE
330
17
100
AcDbEntity
  8
0
100
AcDbCircle
 10
0.0835395252488329
 20
-0.1078180698270994
 30
0.0
 40
0.001500000000000015
100
AcDbArc
 50
200.55604521958398
 51
290.5560452195829
  0
LINE
  5
DF
330
17
100
AcDbEntity
  8
0
100
AcDbLine
 10
0.08500253958878452
 20
-0.10887144015186459
 30
0.0
 11
0.08406621041121548
 21
-0.10922256359345298
 31
0.0
  0
ARC
  5
E0
330
17
100
AcDbEntity
  8
0
100
AcDbCircle
 10
0.08447585442640192
 20
-0.10746694638551102
 30
0.0
 40
0.001500000000000015
100
AcDbArc
 50
-69.44395478041602
 51
20.5560452195829
  0
LINE
  5
E1
330
17
100
AcDbEntity
  8
0
100
AcDbLine
 10
0.08412473098481356
 20
-0.10225861533528322
 30
0.0
 11
0.08588034819275552
 21
-0.10694026122312844
 31
0.0
  0
ARC
  5
E2
330
17
100
AcDbEntity
  8
0
100
AcDbCircle
 10
0.08272023721845997
 20
-0.10278530049766582
 30
0.0
 40
0.001500000000000015
100
AcDbArc
 50
20.55604521958398
 51
110.5560452195829
  0
LINE
  5
E3
330
17
100
AcDbEntity
  8
0
100
AcDbLine
 10
0.08125722287850835
 20
-0.10173193017290064
 30
0.0
 11
0.0821935520560774
 21
-0.10138080673131225
 31
0.0
  0
ARC
  5
E4
330
17
100
AcDbEntity
  8
0
100
AcDbCircle
 10
0.08178390804089096
 20
-0.1031364239392542
 30
0.0
 40
0.001500000000000015
100
AcDbArc
 50
110.55604521958398
 51
200.55604521958293
  0
LINE
  5
E5
330
17
100
AcDbEntity
  8
0
100
AcDbLine
 10
0.08213503148247932
 20
-0.10834475498948201
 30
0.0
 11
0.08037941427453736
 21
-0.10366310910163679
 31
0.0
  0
ARC
  5
E6
330
17
100
AcDbEntity
  8
0
100
AcDbCircle
 10
0.10489375
 20
-0.11629999999999997
 30
0.0
 40
0.0015000000000000308
100
AcDbArc
 50
270.000000000001
 51
359.9999999999989
  0
LINE
  5
E7
330
17
100
AcDbEntity
  8
0
100
AcDbLine
 10
0.10639375000000002
 20
-0.1153
 30
0.0
 11
0.10639375000000002
 21
-0.1163
 31
0.0
  0
ARC
  5
E8
330
17
100
AcDbEntity
  8
0
100
AcDbCircle
 10
0.10489375
 20
-0.11530000000000003
 30
0.0
 40
0.0015000000000000308
100
AcDbArc
 50
1.0516032489249483e-12
 51
89.99999999999893
  0
LINE
  5
E9
330
17
100
AcDbEntity
  8
0
100
AcDbLine
 10
0.09989375000000002
 20
-0.1138
 30
0.0
 11
0.10489375000000002
 21
-0.1138
 31
0.0
  0
ARC
  5
EA
330
17
100
AcDbEntity
  8
0
100
AcDbCircle
 10
0.09989375000000005
 20
-0.11530000000000003
 30
0.0
 40
0.0015000000000000308
100
AcDbArc
 50
90.00000000000104
 51
179.99999999999892
  0
LINE
  5
EB
330
17
100
AcDbEntity
  8
0
100
AcDbLine
 10
0.09839375000000002
 20
-0.1163
 30
0.0
 11
0.09839375000000002
 21
-0.1153
 31
0.0
  0
ARC
  5
EC
330
17
100
AcDbEntity
  8
0
100
AcDbCircle
 10
0.09989375000000005
 20
-0.11629999999999997
 30
0.0
 40
0.0015000000000000308
100
AcDbArc
 50
180.00000000000105
 51
269.9999999999989
  0
LINE
  5
ED
330
17
100
AcDbEntity
  8
0
100
AcDbLine
 10
0.10489375000000002
 20
-0.1178
 30
0.0
 11
0.09989375000000002
 21
-0.1178
 31
0.0
  0
ARC
  5
EE
330
17
100
AcDbEntity
  8
0
100
AcDbCircle
 10
0.13450038888874105
 20
-0.10076812663690939
 30
0.0
 40
0.0015000000000000102
100
AcDbArc
 50
-47.658631483246694
 51
42.341368516752794
  0
LINE
  5
EF
330
17
100
AcDbEntity
  8
0
100
AcDbLine
 10
0.13493555998842016
 20
-0.09901866211483297
 30
0.0
 11
0.1356091063525542
 21
-0.09975780709070838
 31
0.0
  0
ARC
  5
F0
330
17
100
AcDbEntity
  8
0
100
AcDbCircle
 10
0.13382684252460708
 20
-0.100028981661034
 30
0.0
 40
0.0015000000000000102
100
AcDbArc
 50
42.34136851675382
 51
132.3413685167533
  0
LINE
  5
F1
330
17
100
AcDbEntity
  8
0
100
AcDbLine
 10
0.12912079809902904
 20
-0.10228799601789097
 30
0.0
 11
0.13281652297840604
 21
-0.09892026419722089
 31
0.0
  0
ARC
  5
F2
330
17
100
AcDbEntity
  8
0
100
AcDbCircle
 10
0.13013111764523005
 20
-0.10339671348170408
 30
0.0
 40
0.0015000000000000102
100
AcDbArc
 50
132.3413685167533
 51
222.3413685167528
  0
LINE
  5
F3
330
17
100
AcDbEntity
  8
0
100
AcDbLine
 10
0.12969594654555094
 20
-0.1051461780037805
 30
0.0
 11
0.12902240018141692
 21
-0.10440703302790509
 31
0.0
  0
ARC
  5
F4
330
17
100
AcDbEntity
  8
0
100
AcDbCircle
 10
0.13080466400936405
 20
-0.10413585845757947
 30
0.0
 40
0.0015000000000000102
100
AcDbArc
 50
222.34136851675385
 51
312.34136851675333
  0
LINE
  5
F5
330
17
100
AcDbEntity
  8
0
100
AcDbLine
 10
0.13551070843494212
 20
-0.1018768441007225
 30
0.0
 11
0.13181498355556512
 21
-0.10524457592139258
 31
0.0
  0
ARC
  5
F6
330
17
100
AcDbEntity
  8
0
100
AcDbCircle
 10
0.1491245726095256
 20
-0.087441829232403
 30
0.0
 40
0.0015000000000000102
100
AcDbArc
 50
-47.658631483246694
 51
42.341368516752794
  0
LINE
  5
F7
330
17
100
AcDbEntity
  8
0
100
AcDbLine
 10
0.14955974370920472
 20
-0.08569236471032657
 30
0.0
 11
0.15023329007333874
 21
-0.08643150968620197
 31
0.0
  0
ARC
  5
F8
330
17
100
AcDbEntity
  8
0
100
AcDbCircle
 10
0.1484510262453916
 20
-0.08670268425652762
 30
0.0
 40
0.0015000000000000102
100
AcDbArc
 50
42.34136851675382
 51
132.3413685167533
  0
LINE
  5
F9
330
17
100
AcDbEntity
  8
0
100
AcDbLine
 10
0.14374498181981357
 20
-0.08896169861338457
 30
0.0
 11
0.14744070669919057
 21
-0.08559396679271448
 31
0.0
  0
ARC
  5
FA
330
17
100
AcDbEntity
  8
0
100
AcDbCircle
 10
0.1447553013660146
 20
-0.09007041607719769
 30
0.0
 40
0.0015000000000000102
100
AcDbArc
 50
132.3413685167533
 51
222.3413685167528
  0
LINE
  5
FB
330
17
100
AcDbEntity
  8
0
100
AcDbLine
 10
0.1443201302663355
 20
-0.09181988059927412
 30
0.0
 11
0.14364658390220147
 21
-0.09108073562339872
 31
0.0
  0
ARC
  5
FC
330
17
100
AcDbEntity
  8
0
100
AcDbCircle
 10
0.1454288477301486
 20
-0.09080956105307307
 30
0.0
 40
0.0015000000000000102
100
AcDbArc
 50
222.34136851675385
 51
312.34136851675333
  0
LINE
  5
FD
330
17
100
AcDbEntity
  8
0
100
AcDbLine
 10
0.15013489215572665
 20
-0.0885505466962161
 30
0.0
 11
0.14643916727634965
 21
-0.09191827851688619
 31
0.0
  0
ARC
  5
FE
330
17
100
AcDbEntity
  8
0
100
AcDbCircle
 10
0.16374875633031016
 20
-0.0741155318278966
 30
0.0
 40
0.0014999999999999788
100
AcDbArc
 50
-47.65863148324772
 51
42.341368516753846
  0
LINE
  5
FF
330
17
100
AcDbEntity
  8
0
100
AcDbLine
 10
0.16418392742998922
 20
-0.0723660673058202
 30
0.0
 11
0.16485747379412324
 21
-0.0731052122816956
 31
0.0
  0
ARC
  5
100
330
17
100
AcDbEntity
  8
0
100
AcDbCircle
 10
0.16307520996617614
 20
-0.07337638685202119
 30
0.0
 40
0.0014999999999999788
100
AcDbArc
 50
42.341368516752794
 51
132.34136851675436
  0
LINE
  5
101
330
17
100
AcDbEntity
  8
0
100
AcDbLine
 10
0.15836916554059807
 20
-0.07563540120887821
 30
0.0
 11
0.16206489041997507
 21
-0.07226766938820811
 31
0.0
  0
ARC
  5
102
330
17
100
AcDbEntity
  8
0
100
AcDbCircle
 10
0.15937948508679906
 20
-0.07674411867269132
 30
0.0
 40
0.0014999999999999788
100
AcDbArc
 50
132.34136851675225
 51
222.34136851675385
  0
LINE
  5
103
330
17
100
AcDbEntity
  8
0
100
AcDbLine
 10
0.15894431398712003
 20
-0.07849358319476774
 30
0.0
 11
0.158270767622986
 21
-0.07775443821889233
 31
0.0
  0
ARC
  5
104
330
17
100
AcDbEntity
  8
0
100
AcDbCircle
 10
0.1600530314509331
 20
-0.07748326364856672
 30
0.0
 40
0.0014999999999999788
100
AcDbArc
 50
222.34136851675277
 51
312.34136851675436
  0
LINE
  5
105
330
17
100
AcDbEntity
  8
0
100
AcDbLine
 10
0.16475907587651115
 20
-0.0752242492917097
 30
0.0
 11
0.16106335099713415
 21
-0.0785919811123798
 31
0.0
  0
ARC
  5
106
330
17
100
AcDbEntity
  8
0
100
AcDbCircle
 10
0.1733021072296729
 20
-0.038838638583762436
 30
0.0
 40
0.0014999999999999725
100
AcDbArc
 50
9.99999999999892
 51
100.00000000000104
  0
LINE
  5
107
330
17
100
AcDbEntity
  8
0
100
AcDbLine
 10
0.1720568272101603
 20
-0.037535075131911094
 30
0.0
 11
0.1730416349631725
 21
-0.037361426954244166
 31
0.0
  0
ARC
  5
108
330
17
100
AcDbEntity
  8
0
100
AcDbCircle
 10
0.17231729947666063
 20
-0.03901228676142937
 30
0.0
 40
0.0014999999999999725
100
AcDbArc
 50
99.99999999999892
 51
190.00000000000105
  0
LINE
  5
109
330
17
100
AcDbEntity
  8
0
100
AcDbLine
 10
0.17170832873547703
 20
-0.04419679779299082
 30
0.0
 11
0.17084008784714239
 21
-0.039272759027929774
 31
0.0
  0
ARC
  5
10A
330
17
100
AcDbEntity
  8
0
100
AcDbCircle
 10
0.1731855403649953
 20
-0.04393632552649046
 30
0.0
 40
0.0014999999999999725
100
AcDbArc
 50
189.99999999999892
 51
280.000000000001
  0
LINE
  5
10B
330
17
100
AcDbEntity
  8
0
100
AcDbLine
 10
0.17443082038450794
 20
-0.04523988897834183
 30
0.0
 11
0.17344601263149573
 21
-0.04541353715600876
 31
0.0
  0
ARC
  5
10C
330
17
100
AcDbEntity
  8
0
100
AcDbCircle
 10
0.17417034811800758
 20
-0.043762677348823525
 30
0.0
 40
0.0014999999999999725
100
AcDbArc
 50
-80.00000000000108
 51
10.000000000001023
  0
LINE
  5
10D
330
17
100
AcDbEntity
  8
0
100
AcDbLine
 10
0.1747793188591912
 20
-0.038578166317262075
 30
0.0
 11
0.17564755974752586
 21
-0.04350220508232312
 31
0.0
  0
ARC
  5
10E
330
17
100
AcDbEntity
  8
0
100
AcDbCircle
 10
0.16989073451435052
 20
-0.019491782523414797
 30
0.0
 40
0.0015000000000000002
100
AcDbArc
 50
10.0
 51
100.00000000000011
  0
LINE
  5
10F
330
17
100
AcDbEntity
  8
0
100
AcDbLine
 10
0.16864545449483792
 20
-0.018188219071563427
 30
0.0
 11
0.16963026224785013
 21
-0.018014570893896496
 31
0.0
  0
ARC
  5
110
330
17
100
AcDbEntity
  8
0
100
AcDbCircle
 10
0.1689059267613383
 20
-0.019665430701081732
 30
0.0
 40
0.001500000000000003
100
AcDbArc
 50
100.0000000000001
 51
189.99999999999997
  0
LINE
  5
111
330
17
100
AcDbEntity
  8
0
100
AcDbLine
 10
0.16829695602015465
 20
-0.024849941732643183
 30
0.0
 11
0.16742871513182
 21
-0.019925902967582135
 31
0.0
  0
ARC
  5
112
330
17
100
AcDbEntity
  8
0
100
AcDbCircle
 10
0.16977416764967296
 20
-0.024589469466142794
 30
0.0
 40
0.0015000000000000002
100
AcDbArc
 50
189.99999999999997
 51
280.0000000000001
  0
LINE
  5
113
330
17
100
AcDbEntity
  8
0
100
AcDbLine
 10
0.17101944766918556
 20
-0.025893032917994163
 30
0.0
 11
0.17003463991617335
 21
-0.026066681095661095
 31
0.0
  0
ARC
  5
114
330
17
100
AcDbEntity
  8
0
100
AcDbCircle
 10
0.17075897540268517
 20
-0.02441582128847586
 30
0.0
 40
0.001500000000000003
100
AcDbArc
 50
-79.99999999999989
 51
10.0
  0
LINE
  5
115
330
17
100
AcDbEntity
  8
0
100
AcDbLine
 10
0.17136794614386885
 20
-0.019231310256914408
 30
0.0
 11
0.1722361870322035
 21
-0.024155349021975456
 31
0.0
  0
ARC
  5
116
330
17
100
AcDbEntity
  8
0
100
AcDbCircle
 10
0.16647936179902814
 20
-0.00014492646306712986
 30
0.0
 40
0.0014999999999999699
100
AcDbArc
 50
9.99999999999892
 51
100.00000000000115
  0
LINE
  5
117
330
17
100
AcDbEntity
  8
0
100
AcDbLine
 10
0.1652340817795155
 20
0.0011586369887842396
 30
0.0
 11
0.16621888953252772
 21
0.0013322851664511696
 31
0.0
  0
ARC
  5
118
330
17
100
AcDbEntity
  8
0
100
AcDbCircle
 10
0.16549455404601587
 20
-0.00031857464073406505
 30
0.0
 40
0.0014999999999999712
100
AcDbArc
 50
99.99999999999893
 51
190.00000000000105
  0
LINE
  5
119
330
17
100
AcDbEntity
  8
0
100
AcDbLine
 10
0.16488558330483225
 20
-0.005503085672295516
 30
0.0
 11
0.1640173424164976
 21
-0.0005790469072344704
 31
0.0
  0
ARC
  5
11A
330
17
100
AcDbEntity
  8
0
100
AcDbCircle
 10
0.16636279493435052
 20
-0.0052426134057951546
 30
0.0
 40
0.0014999999999999699
100
AcDbArc
 50
189.99999999999892
 51
280.00000000000114
  0
LINE
  5
11B
330
17
100
AcDbEntity
  8
0
100
AcDbLine
 10
0.16760807495386315
 20
-0.006546176857646524
 30
0.0
 11
0.16662326720085094
 21
-0.006719825035313454
 31
0.0
  0
ARC
  5
11C
330
17
100
AcDbEntity
  8
0
100
AcDbCircle
 10
0.1673476026873628
 20
-0.005068965228128219
 30
0.0
 40
0.0014999999999999712
100
AcDbArc
 50
-80.00000000000108
 51
10.000000000001023
  0
LINE
  5
11D
330
17
100
AcDbEntity
  8
0
100
AcDbLine
 10
0.16795657342854642
 20
0.00011554580343323129
 30
0.0
 11
0.16882481431688107
 21
-0.004808492961627814
 31
0.0
  0
ENDSEC
  0
SECTION
  2
OBJECTS
  0
DICTIONARY
  5
A
330
0
100
AcDbDictionary
281
1
  3
ACAD_COLOR
350
B
  3
ACAD_GROUP
350
C
  3
ACAD_LAYOUT
350
D
  3
ACAD_MATERIAL
350
E
  3
ACAD_MLEADERSTYLE
350
F
  3
ACAD_MLINESTYLE
350
10
  3
ACAD_PLOTSETTINGS
350
11
  3
ACAD_PLOTSTYLENAME
350
12
  3
ACAD_SCALELIST
350
14
  3
ACAD_TABLESTYLE
350
15
  3
ACAD_VISUALSTYLE
350
16
  0
DICTIONARY
  5
B
330
A
100
AcDbDictionary
281
1
  0
DICTIONARY
  5
C
330
A
100
AcDbDictionary
281
1
  0
DICTIONARY
  5
D
330
A
100
AcDbDictionary
281
1
  3
Model
350
1A
  3
Layout1
350
1E
  0
DICTIONARY
  5
E
330
A
100
AcDbDictionary
281
1
  3
ByBlock
350
1F
  3
ByLayer
350
20
  3
Global
350
21
  0
DICTIONARY
  5
F
330
A
100
AcDbDictionary
281
1
  3
Standard
350
2C
  0
DICTIONARY
  5
10
330
A
100
AcDbDictionary
281
1
  3
Standard
350
22
  0
DICTIONARY
  5
11
330
A
100
AcDbDictionary
281
1
  0
ACDBDICTIONARYWDFLT
  5
12
330
A
100
AcDbDictionary
281
1
  3
Normal
350
13
100
AcDbDictionaryWithDefault
340
13
  0
ACDBPLACEHOLDER
  5
13
330
12
  0
DICTIONARY
  5
14
330
A
100
AcDbDictionary
281
1
  0
DICTIONARY
  5
15
330
A
100
AcDbDictionary
281
1
  0
DICTIONARY
  5
16
330
A
100
AcDbDictionary
281
1
  0
LAYOUT
  5
1A
330
D
100
AcDbPlotSettings
  1

  2
Adobe PDF
  4
A4
  6

 40
3.175
 41
3.175
 42
3.175
 43
3.175
 44
209.91
 45
297.03
 46
0.0
 47
0.0
 48
0.0
 49
0.0
140
0.0
141
0.0
142
1.0
143
1.0
 70
1024
 72
0
 73
1
 74
5
  7

 75
16
 76
0
 77
2
 78
300
147
1.0
148
0.0
149
0.0
100
AcDbLayout
  1
Model
 70
1
 71
0
 10
-3.175
 20
-3.175
 11
293.857
 21
206.735
 12
0.0
 22
0.0
 32
0.0
 14
29.068
 24
20.356
 34
0.0
 15
261.614
 25
183.204
 35
0.0
146
0.0
 13
0.0
 23
0.0
 33
0.0
 16
1.0
 26
0.0
 36
0.0
 17
0.0
 27
1.0
 37
0.0
 76
1
330
17
  0
LAYOUT
  5
1E
330
D
100
AcDbPlotSettings
  1

  2
Adobe PDF
  4
A4
  6

 40
3.175
 41
3.175
 42
3.175
 43
3.175
 44
209.91
 45
297.03
 46
0.0
 47
0.0
 48
0.0
 49
0.0
140
0.0
141
0.0
142
1.0
143
1.0
 70
0
 72
0
 73
1
 74
5
  7

 75
16
 76
0
 77
2
 78
300
147
1.0
148
0.0
149
0.0
100
AcDbLayout
  1
Layout1
 70
1
 71
1
 10
-3.175
 20
-3.175
 11
293.857
 21
206.735
 12
0.0
 22
0.0
 32
0.0
 14
29.068
 24
20.356
 34
0.0
 15
261.614
 25
183.204
 35
0.0
146
0.0
 13
0.0
 23
0.0
 33
0.0
 16
1.0
 26
0.0
 36
0.0
 17
0.0
 27
1.0
 37
0.0
 76
1
330
1B
  0
MATERIAL
  5
1F
102
{ACAD_REACTORS
330
E
102
}
330
E
100
AcDbMaterial
  1
ByBlock
  2

 70
0
 40
1.0
 71
1
 41
1.0
 91
-1023410177
 42
1.0
 72
1
  3

 73
1
 74
1
 75
1
 44
0.5
 73
0
 45
1.0
 46
1.0
 77
1
  4

 78
1
 79
1
170
1
 48
1.0
171
1
  6

172
1
173
1
174
1
140
1.0
141
1.0
175
1
  7

176
1
177
1
178
1
143
1.0
179
1
  8

270
1
271
1
272
1
145
1.0
146
1.0
273
1
  9

274
1
275
1
276
1
 42
1.0
 72
1
  3

 73
1
 74
1
 75
1
 94
63
  0
MATERIAL
  5
20
102
{ACAD_REACTORS
330
E
102
}
330
E
100
AcDbMaterial
  1
ByLayer
  2

 70
0
 40
1.0
 71
1
 41
1.0
 91
-1023410177
 42
1.0
 72
1
  3

 73
1
 74
1
 75
1
 44
0.5
 73
0
 45
1.0
 46
1.0
 77
1
  4

 78
1
 79
1
170
1
 48
1.0
171
1
  6

172
1
173
1
174
1
140
1.0
141
1.0
175
1
  7

176
1
177
1
178
1
143
1.0
179
1
  8

270
1
271
1
272
1
145
1.0
146
1.0
273
1
  9

274
1
275
1
276
1
 42
1.0
 72
1
  3

 73
1
 74
1
 75
1
 94
63
  0
MATERIAL
  5
21
102
{ACAD_REACTORS
330
E
102
}
330
E
100
AcDbMaterial
  1
Global
  2

 70
0
 40
1.0
 71
1
 41
1.0
 91
-1023410177
 42
1.0
 72
1
  3

 73
1
 74
1
 75
1
 44
0.5
 73
0
 45
1.0
 46
1.0
 77
1
  4

 78
1
 79
1
170
1
 48
1.0
171
1
  6

172
1
173
1
174
1
140
1.0
141
1.0
175
1
  7

176
1
177
1
178
1
143
1.0
179
1
  8

270
1
271
1
272
1
145
1.0
146
1.0
273
1
  9

274
1
275
1
276
1
 42
1.0
 72
1
  3

 73
1
 74
1
 75
1
 94
63
  0
MLINESTYLE
  5
22
102
{ACAD_REACTORS
330
10
102
}
330
10
100
AcDbMlineStyle
  2
Standard
 70
0
  3

 62
256
 51
90.0
 52
90.0
 71
2
 49
0.5
 62
256
  6
BYLAYER
 49
-0.5
 62
256
  6
BYLAYER
  0
MLEADERSTYLE
  5
2C
102
{ACAD_REACTORS
330
F
102
}
330
F
100
AcDbMLeaderStyle
179
2
170
2
171
1
172
0
 90
2
 40
0.0
 41
0.0
173
1
 91
-1056964608
 92
-2
290
1
 42
2.0
291
1
 43
8.0
  3
Standard
 44
4.0
300

342
29
174
1
175
1
176
0
178
1
 93
-1056964608
 45
4.0
292
0
297
0
 46
4.0
 94
-1056964608
 47
1.0
 49
1.0
140
1.0
294
1
141
0.0
177
0
142
1.0
295
0
296
0
143
3.75
271
0
272
9
273
9
  0
ENDSEC
  0
EOF
