M48
; DRILL file {KiCad (5.1.9)-1} date 04/11/21 13:59:12
; FORMAT={-:-/ absolute / inch / decimal}
; #@! TF.CreationDate,2021-04-11T13:59:12+10:00
; #@! TF.GenerationSoftware,Kicad,Pcbnew,(5.1.9)-1
; #@! TF.FileFunction,NonPlated,1,2,NPTH
FMAT,2
INCH
T1C0.0394
T2C0.1142
T3C0.1772
%
G90
G05
T1
X1.9921Y-2.3228
X2.0236Y-2.2683
X2.0236Y-2.3774
X2.0551Y-2.2137
X2.0551Y-2.3228
X2.0551Y-2.4319
X2.0866Y-2.1592
X2.0866Y-2.2683
X2.0866Y-2.3774
X2.0866Y-2.4865
X2.1181Y-2.1046
X2.1181Y-2.2137
X2.1181Y-2.3228
X2.1181Y-2.4319
X2.1181Y-2.541
X2.1496Y-2.1592
X2.1496Y-2.2683
X2.1496Y-2.3774
X2.1496Y-2.4865
X2.1811Y-2.1046
X2.1811Y-2.2137
X2.1811Y-2.3228
X2.1811Y-2.4319
X2.1811Y-2.541
X2.2126Y-2.1592
X2.2126Y-2.2683
X2.2126Y-2.3774
X2.2126Y-2.4865
X2.2441Y-2.1046
X2.2441Y-2.2137
X2.2441Y-2.3228
X2.2441Y-2.4319
X2.2441Y-2.541
X2.2756Y-2.1592
X2.2756Y-2.2683
X2.2756Y-2.3774
X2.2756Y-2.4865
X2.3071Y-2.1046
X2.3071Y-2.2137
X2.3071Y-2.3228
X2.3071Y-2.4319
X2.3071Y-2.541
X2.3386Y-2.1592
X2.3386Y-2.2683
X2.3386Y-2.3774
X2.3386Y-2.4865
X2.3701Y-2.1046
X2.3701Y-2.2137
X2.3701Y-2.3228
X2.3701Y-2.4319
X2.3701Y-2.541
X2.4016Y-2.1592
X2.4016Y-2.2683
X2.4016Y-2.3774
X2.4016Y-2.4865
X2.4331Y-2.2137
X2.4331Y-2.3228
X2.4331Y-2.4319
X2.4646Y-2.2683
X2.4646Y-2.3774
X2.4961Y-2.3228
T3
X5.0948Y0.0654
X5.5132Y-2.3074
X6.4169Y0.2985
X6.8353Y-2.0743
T2
G00X5.7331Y-2.3305
M15
G01X6.6365Y-2.1712
M16
G05
T0
M30
