G04 #@! TF.GenerationSoftware,KiCad,Pcbnew,(5.1.9)-1*
G04 #@! TF.CreationDate,2021-04-11T13:56:49+10:00*
G04 #@! TF.ProjectId,Djinn,446a696e-6e2e-46b6-9963-61645f706362,rev?*
G04 #@! TF.SameCoordinates,Original*
G04 #@! TF.FileFunction,Profile,NP*
%FSLAX46Y46*%
G04 Gerber Fmt 4.6, Leading zero omitted, Abs format (unit mm)*
G04 Created by KiCad (PCBNEW (5.1.9)-1) date 2021-04-11 13:56:49*
%MOMM*%
%LPD*%
G01*
G04 APERTURE LIST*
G04 #@! TA.AperFunction,Profile*
%ADD10C,0.100000*%
G04 #@! TD*
G04 APERTURE END LIST*
D10*
X111751240Y22363907D02*
G75*
G02*
X110227664Y22331078I-868241J4924038D01*
G01*
X128524299Y25321450D02*
X111751240Y22363907D01*
X128524299Y25321450D02*
G75*
G02*
X132260422Y24493171I868241J-4924039D01*
G01*
X147516773Y13810559D02*
X132260422Y24493171D01*
X154480416Y15038436D02*
G75*
G02*
X147516773Y13810559I-4095760J2867883D01*
G01*
X157436733Y19260496D02*
X154480416Y15038437D01*
X157436734Y19260494D02*
G75*
G02*
X166456532Y17260854I4095760J-2867881D01*
G01*
X180102023Y-60126569D02*
X166456532Y17260854D01*
X180102023Y-60126569D02*
G75*
G02*
X178545716Y-64690535I-4924039J-868241D01*
G01*
X120048981Y-117995724D02*
X178545716Y-64690535D01*
X120048982Y-117995725D02*
G75*
G02*
X116681250Y-119300000I-3367732J3695726D01*
G01*
X88106250Y-119300000D02*
X116681250Y-119300000D01*
X88106250Y-119300000D02*
G75*
G02*
X83424604Y-116055617I0J5000000D01*
G01*
X78336675Y-102487807D02*
X83424604Y-116055617D01*
X74415315Y-99301566D02*
G75*
G02*
X78336675Y-102487807I-760286J-4941858D01*
G01*
X49245964Y-95429358D02*
X74415315Y-99301566D01*
X49245964Y-95429357D02*
G75*
G02*
X45006250Y-90487499I760286J4941858D01*
G01*
X45006249Y-81437500D02*
X45006250Y-90487499D01*
X40006250Y-76437501D02*
G75*
G02*
X45006249Y-81437500I0J-4999999D01*
G01*
X-7143750Y-76437500D02*
X40006250Y-76437500D01*
X-7143749Y-76437500D02*
G75*
G02*
X-12143749Y-71437500I0J5000000D01*
G01*
X-12143750Y14287500D02*
X-12143750Y-71437500D01*
X-12143750Y14287501D02*
G75*
G02*
X-8301852Y19151531I5000000J-1D01*
G01*
X41704397Y31057781D02*
X-8301852Y19151531D01*
X41704397Y31057780D02*
G75*
G02*
X43517835Y31150617I1158103J-4864031D01*
G01*
X110227664Y22331078D02*
X43517835Y31150617D01*
X10206000Y-74438000D02*
X10206000Y-71438000D01*
X13606000Y-71438000D02*
X13606000Y-74438000D01*
X12556000Y-74388000D02*
X11256000Y-74388000D01*
X12556000Y-71488000D02*
X11256000Y-71488000D01*
X11206000Y-71438000D02*
G75*
G03*
X11256000Y-71488000I50000J0D01*
G01*
X12556000Y-71488000D02*
G75*
G03*
X12606000Y-71438000I0J50000D01*
G01*
X11256000Y-74388000D02*
G75*
G03*
X11206000Y-74438000I0J-50000D01*
G01*
X12606000Y-74438000D02*
G75*
G03*
X12556000Y-74388000I-50000J0D01*
G01*
X13606000Y-71438000D02*
G75*
G03*
X12606000Y-71438000I-500000J0D01*
G01*
X11206000Y-71438000D02*
G75*
G03*
X10206000Y-71438000I-500000J0D01*
G01*
X10206000Y-74438000D02*
G75*
G03*
X11206000Y-74438000I500000J0D01*
G01*
X12606000Y-74438000D02*
G75*
G03*
X13606000Y-74438000I500000J0D01*
G01*
X29256000Y-74438000D02*
X29256000Y-71438000D01*
X32656000Y-71438000D02*
X32656000Y-74438000D01*
X31606000Y-74388000D02*
X30306000Y-74388000D01*
X31606000Y-71488000D02*
X30306000Y-71488000D01*
X30256000Y-71438000D02*
G75*
G03*
X30306000Y-71488000I50000J0D01*
G01*
X31606000Y-71488000D02*
G75*
G03*
X31656000Y-71438000I0J50000D01*
G01*
X30306000Y-74388000D02*
G75*
G03*
X30256000Y-74438000I0J-50000D01*
G01*
X31656000Y-74438000D02*
G75*
G03*
X31606000Y-74388000I-50000J0D01*
G01*
X32656000Y-71438000D02*
G75*
G03*
X31656000Y-71438000I-500000J0D01*
G01*
X30256000Y-71438000D02*
G75*
G03*
X29256000Y-71438000I-500000J0D01*
G01*
X29256000Y-74438000D02*
G75*
G03*
X30256000Y-74438000I500000J0D01*
G01*
X31656000Y-74438000D02*
G75*
G03*
X32656000Y-74438000I500000J0D01*
G01*
X63347686Y-95575066D02*
X63803849Y-92609949D01*
X67164314Y-93126934D02*
X66708151Y-96092051D01*
X65677963Y-95882975D02*
X64393079Y-95685304D01*
X66118921Y-93016696D02*
X64834037Y-92819025D01*
X64792221Y-92762003D02*
G75*
G03*
X64834037Y-92819025I49419J-7603D01*
G01*
X66118920Y-93016696D02*
G75*
G03*
X66175942Y-92974880I7603J49419D01*
G01*
X64393080Y-95685304D02*
G75*
G03*
X64336058Y-95727120I-7603J-49419D01*
G01*
X65719779Y-95939997D02*
G75*
G03*
X65677963Y-95882975I-49419J7603D01*
G01*
X67164314Y-93126934D02*
G75*
G03*
X66175942Y-92974880I-494186J76027D01*
G01*
X64792221Y-92762005D02*
G75*
G03*
X63803849Y-92609949I-494186J76028D01*
G01*
X63347686Y-95575066D02*
G75*
G03*
X64336058Y-95727120I494186J-76027D01*
G01*
X65719779Y-95939995D02*
G75*
G03*
X66708151Y-96092051I494186J-76028D01*
G01*
X81128597Y-104236924D02*
X83937586Y-103183556D01*
X85131403Y-106367076D02*
X82322414Y-107420444D01*
X82000552Y-106419742D02*
X81544093Y-105202514D01*
X84715907Y-105401486D02*
X84259448Y-104184258D01*
X84288708Y-104119886D02*
G75*
G03*
X84259448Y-104184258I17556J-46816D01*
G01*
X84715907Y-105401486D02*
G75*
G03*
X84780280Y-105430747I46817J17556D01*
G01*
X81544093Y-105202514D02*
G75*
G03*
X81479720Y-105173253I-46817J-17556D01*
G01*
X81971292Y-106484114D02*
G75*
G03*
X82000552Y-106419742I-17556J46816D01*
G01*
X85131402Y-106367075D02*
G75*
G03*
X84780280Y-105430747I-175561J468164D01*
G01*
X84288708Y-104119886D02*
G75*
G03*
X83937586Y-103183556I-175561J468165D01*
G01*
X81128598Y-104236925D02*
G75*
G03*
X81479720Y-105173253I175561J-468164D01*
G01*
X81971292Y-106484114D02*
G75*
G03*
X82322414Y-107420444I175561J-468165D01*
G01*
X100694000Y-117300000D02*
X100694000Y-114300000D01*
X104094000Y-114300000D02*
X104094000Y-117300000D01*
X103044000Y-117250000D02*
X101744000Y-117250000D01*
X103044000Y-114350000D02*
X101744000Y-114350000D01*
X101694000Y-114300000D02*
G75*
G03*
X101744000Y-114350000I50000J0D01*
G01*
X103044000Y-114350000D02*
G75*
G03*
X103094000Y-114300000I0J50000D01*
G01*
X101744000Y-117250000D02*
G75*
G03*
X101694000Y-117300000I0J-50000D01*
G01*
X103094000Y-117300000D02*
G75*
G03*
X103044000Y-117250000I-50000J0D01*
G01*
X104094000Y-114300000D02*
G75*
G03*
X103094000Y-114300000I-500000J0D01*
G01*
X101694000Y-114300000D02*
G75*
G03*
X100694000Y-114300000I-500000J0D01*
G01*
X100694000Y-117300000D02*
G75*
G03*
X101694000Y-117300000I500000J0D01*
G01*
X103094000Y-117300000D02*
G75*
G03*
X104094000Y-117300000I500000J0D01*
G01*
X132069759Y-104335745D02*
X130049134Y-102118297D01*
X132562241Y-99828255D02*
X134582866Y-102045703D01*
X133773082Y-102715964D02*
X132812188Y-103591569D01*
X131819812Y-100572431D02*
X130858918Y-101448036D01*
X130788283Y-101444755D02*
G75*
G03*
X130858918Y-101448036I36958J33677D01*
G01*
X131819812Y-100572431D02*
G75*
G03*
X131823092Y-100501797I-33677J36957D01*
G01*
X132812188Y-103591569D02*
G75*
G03*
X132808908Y-103662203I33677J-36957D01*
G01*
X133843717Y-102719245D02*
G75*
G03*
X133773082Y-102715964I-36958J-33677D01*
G01*
X132562242Y-99828255D02*
G75*
G03*
X131823092Y-100501797I-369575J-336771D01*
G01*
X130788282Y-101444755D02*
G75*
G03*
X130049134Y-102118297I-369574J-336771D01*
G01*
X132069758Y-104335745D02*
G75*
G03*
X132808908Y-103662203I369575J336771D01*
G01*
X133843718Y-102719245D02*
G75*
G03*
X134582866Y-102045703I369574J336771D01*
G01*
X146693759Y-91009745D02*
X144673134Y-88792297D01*
X147186241Y-86502255D02*
X149206866Y-88719703D01*
X148397082Y-89389964D02*
X147436188Y-90265569D01*
X146443812Y-87246431D02*
X145482918Y-88122036D01*
X145412283Y-88118755D02*
G75*
G03*
X145482918Y-88122036I36958J33677D01*
G01*
X146443812Y-87246431D02*
G75*
G03*
X146447092Y-87175797I-33677J36957D01*
G01*
X147436188Y-90265569D02*
G75*
G03*
X147432908Y-90336203I33677J-36957D01*
G01*
X148467717Y-89393245D02*
G75*
G03*
X148397082Y-89389964I-36958J-33677D01*
G01*
X147186242Y-86502255D02*
G75*
G03*
X146447092Y-87175797I-369575J-336771D01*
G01*
X145412282Y-88118755D02*
G75*
G03*
X144673134Y-88792297I-369574J-336771D01*
G01*
X146693758Y-91009745D02*
G75*
G03*
X147432908Y-90336203I369575J336771D01*
G01*
X148467718Y-89393245D02*
G75*
G03*
X149206866Y-88719703I369574J336771D01*
G01*
X161317759Y-77683745D02*
X159297134Y-75466297D01*
X161810241Y-73176255D02*
X163830866Y-75393703D01*
X163021082Y-76063964D02*
X162060188Y-76939569D01*
X161067812Y-73920431D02*
X160106918Y-74796036D01*
X160036283Y-74792755D02*
G75*
G03*
X160106918Y-74796036I36958J33677D01*
G01*
X161067812Y-73920431D02*
G75*
G03*
X161071092Y-73849797I-33677J36957D01*
G01*
X162060188Y-76939569D02*
G75*
G03*
X162056908Y-77010203I33677J-36957D01*
G01*
X163091717Y-76067245D02*
G75*
G03*
X163021082Y-76063964I-36958J-33677D01*
G01*
X161810242Y-73176255D02*
G75*
G03*
X161071092Y-73849797I-369575J-336771D01*
G01*
X160036282Y-74792755D02*
G75*
G03*
X159297134Y-75466297I-369574J-336771D01*
G01*
X161317758Y-77683745D02*
G75*
G03*
X162056908Y-77010203I369575J336771D01*
G01*
X163091718Y-76067245D02*
G75*
G03*
X163830866Y-75393703I369574J336771D01*
G01*
X175016414Y-42800701D02*
X172061990Y-43321645D01*
X171471586Y-39973299D02*
X174426010Y-39452355D01*
X174559100Y-40495085D02*
X174784843Y-41775335D01*
X171703157Y-40998665D02*
X171928900Y-42278915D01*
X171888342Y-42336837D02*
G75*
G03*
X171928900Y-42278915I-8682J49240D01*
G01*
X171703157Y-40998665D02*
G75*
G03*
X171645235Y-40958107I-49240J-8682D01*
G01*
X174784843Y-41775335D02*
G75*
G03*
X174842765Y-41815893I49240J8682D01*
G01*
X174599658Y-40437163D02*
G75*
G03*
X174559100Y-40495085I8682J-49240D01*
G01*
X171471587Y-39973299D02*
G75*
G03*
X171645235Y-40958107I86824J-492404D01*
G01*
X171888342Y-42336839D02*
G75*
G03*
X172061990Y-43321645I86824J-492403D01*
G01*
X175016413Y-42800701D02*
G75*
G03*
X174842765Y-41815893I-86824J492404D01*
G01*
X174599658Y-40437161D02*
G75*
G03*
X174426010Y-39452355I-86824J492403D01*
G01*
X171604414Y-23454701D02*
X168649990Y-23975645D01*
X168059586Y-20627299D02*
X171014010Y-20106355D01*
X171147100Y-21149085D02*
X171372843Y-22429335D01*
X168291157Y-21652665D02*
X168516900Y-22932915D01*
X168476342Y-22990837D02*
G75*
G03*
X168516900Y-22932915I-8682J49240D01*
G01*
X168291157Y-21652665D02*
G75*
G03*
X168233235Y-21612107I-49240J-8682D01*
G01*
X171372843Y-22429335D02*
G75*
G03*
X171430765Y-22469893I49240J8682D01*
G01*
X171187658Y-21091163D02*
G75*
G03*
X171147100Y-21149085I8682J-49240D01*
G01*
X168059587Y-20627299D02*
G75*
G03*
X168233235Y-21612107I86824J-492404D01*
G01*
X168476342Y-22990839D02*
G75*
G03*
X168649990Y-23975645I86824J-492403D01*
G01*
X171604413Y-23454701D02*
G75*
G03*
X171430765Y-22469893I-86824J492404D01*
G01*
X171187658Y-21091161D02*
G75*
G03*
X171014010Y-20106355I-86824J492403D01*
G01*
X168193414Y-4107701D02*
X165238990Y-4628645D01*
X164648586Y-1280299D02*
X167603010Y-759355D01*
X167736100Y-1802085D02*
X167961843Y-3082335D01*
X164880157Y-2305665D02*
X165105900Y-3585915D01*
X165065342Y-3643837D02*
G75*
G03*
X165105900Y-3585915I-8682J49240D01*
G01*
X164880157Y-2305665D02*
G75*
G03*
X164822235Y-2265107I-49240J-8682D01*
G01*
X167961843Y-3082335D02*
G75*
G03*
X168019765Y-3122893I49240J8682D01*
G01*
X167776658Y-1744163D02*
G75*
G03*
X167736100Y-1802085I8682J-49240D01*
G01*
X164648587Y-1280299D02*
G75*
G03*
X164822235Y-2265107I86824J-492404D01*
G01*
X165065342Y-3643839D02*
G75*
G03*
X165238990Y-4628645I86824J-492403D01*
G01*
X168193413Y-4107701D02*
G75*
G03*
X168019765Y-3122893I-86824J492404D01*
G01*
X167776658Y-1744161D02*
G75*
G03*
X167603010Y-759355I-86824J492403D01*
G01*
X123144000Y-94686000D02*
X123144000Y-91686000D01*
X119744000Y-91686000D02*
X119744000Y-94686000D01*
X120794000Y-94636000D02*
X122094000Y-94636000D01*
X120794000Y-91736000D02*
X122094000Y-91736000D01*
X122144000Y-91686000D02*
G75*
G02*
X122094000Y-91736000I-50000J0D01*
G01*
X120794000Y-91736000D02*
G75*
G02*
X120744000Y-91686000I0J50000D01*
G01*
X122094000Y-94636000D02*
G75*
G02*
X122144000Y-94686000I0J-50000D01*
G01*
X120744000Y-94686000D02*
G75*
G02*
X120794000Y-94636000I50000J0D01*
G01*
X119744000Y-91686000D02*
G75*
G02*
X120744000Y-91686000I500000J0D01*
G01*
X122144000Y-91686000D02*
G75*
G02*
X123144000Y-91686000I500000J0D01*
G01*
X123144000Y-94686000D02*
G75*
G02*
X122144000Y-94686000I-500000J0D01*
G01*
X120744000Y-94686000D02*
G75*
G02*
X119744000Y-94686000I-500000J0D01*
G01*
X104094000Y-87543000D02*
X104094000Y-84543000D01*
X100694000Y-84543000D02*
X100694000Y-87543000D01*
X101744000Y-87493000D02*
X103044000Y-87493000D01*
X101744000Y-84593000D02*
X103044000Y-84593000D01*
X103094000Y-84543000D02*
G75*
G02*
X103044000Y-84593000I-50000J0D01*
G01*
X101744000Y-84593000D02*
G75*
G02*
X101694000Y-84543000I0J50000D01*
G01*
X103044000Y-87493000D02*
G75*
G02*
X103094000Y-87543000I0J-50000D01*
G01*
X101694000Y-87543000D02*
G75*
G02*
X101744000Y-87493000I50000J0D01*
G01*
X100694000Y-84543000D02*
G75*
G02*
X101694000Y-84543000I500000J0D01*
G01*
X103094000Y-84543000D02*
G75*
G02*
X104094000Y-84543000I500000J0D01*
G01*
X104094000Y-87543000D02*
G75*
G02*
X103094000Y-87543000I-500000J0D01*
G01*
X101694000Y-87543000D02*
G75*
G02*
X100694000Y-87543000I-500000J0D01*
G01*
X85044000Y-85161000D02*
X85044000Y-82161000D01*
X81644000Y-82161000D02*
X81644000Y-85161000D01*
X82694000Y-85111000D02*
X83994000Y-85111000D01*
X82694000Y-82211000D02*
X83994000Y-82211000D01*
X84044000Y-82161000D02*
G75*
G02*
X83994000Y-82211000I-50000J0D01*
G01*
X82694000Y-82211000D02*
G75*
G02*
X82644000Y-82161000I0J50000D01*
G01*
X83994000Y-85111000D02*
G75*
G02*
X84044000Y-85161000I0J-50000D01*
G01*
X82644000Y-85161000D02*
G75*
G02*
X82694000Y-85111000I50000J0D01*
G01*
X81644000Y-82161000D02*
G75*
G02*
X82644000Y-82161000I500000J0D01*
G01*
X84044000Y-82161000D02*
G75*
G02*
X85044000Y-82161000I500000J0D01*
G01*
X85044000Y-85161000D02*
G75*
G02*
X84044000Y-85161000I-500000J0D01*
G01*
X82644000Y-85161000D02*
G75*
G02*
X81644000Y-85161000I-500000J0D01*
G01*
X65994000Y-85161000D02*
X65994000Y-82161000D01*
X62594000Y-82161000D02*
X62594000Y-85161000D01*
X63644000Y-85111000D02*
X64944000Y-85111000D01*
X63644000Y-82211000D02*
X64944000Y-82211000D01*
X64994000Y-82161000D02*
G75*
G02*
X64944000Y-82211000I-50000J0D01*
G01*
X63644000Y-82211000D02*
G75*
G02*
X63594000Y-82161000I0J50000D01*
G01*
X64944000Y-85111000D02*
G75*
G02*
X64994000Y-85161000I0J-50000D01*
G01*
X63594000Y-85161000D02*
G75*
G02*
X63644000Y-85111000I50000J0D01*
G01*
X62594000Y-82161000D02*
G75*
G02*
X63594000Y-82161000I500000J0D01*
G01*
X64994000Y-82161000D02*
G75*
G02*
X65994000Y-82161000I500000J0D01*
G01*
X65994000Y-85161000D02*
G75*
G02*
X64994000Y-85161000I-500000J0D01*
G01*
X63594000Y-85161000D02*
G75*
G02*
X62594000Y-85161000I-500000J0D01*
G01*
X112600000Y-66111000D02*
X112600000Y-63111000D01*
X116000000Y-63111000D02*
X116000000Y-66111000D01*
X114950000Y-66061000D02*
X113650000Y-66061000D01*
X114950000Y-63161000D02*
X113650000Y-63161000D01*
X113600000Y-63111000D02*
G75*
G03*
X113650000Y-63161000I50000J0D01*
G01*
X114950000Y-63161000D02*
G75*
G03*
X115000000Y-63111000I0J50000D01*
G01*
X113650000Y-66061000D02*
G75*
G03*
X113600000Y-66111000I0J-50000D01*
G01*
X115000000Y-66111000D02*
G75*
G03*
X114950000Y-66061000I-50000J0D01*
G01*
X116000000Y-63111000D02*
G75*
G03*
X115000000Y-63111000I-500000J0D01*
G01*
X113600000Y-63111000D02*
G75*
G03*
X112600000Y-63111000I-500000J0D01*
G01*
X112600000Y-66111000D02*
G75*
G03*
X113600000Y-66111000I500000J0D01*
G01*
X115000000Y-66111000D02*
G75*
G03*
X116000000Y-66111000I500000J0D01*
G01*
X93550000Y-56586000D02*
X93550000Y-53586000D01*
X96950000Y-53586000D02*
X96950000Y-56586000D01*
X95900000Y-56536000D02*
X94600000Y-56536000D01*
X95900000Y-53636000D02*
X94600000Y-53636000D01*
X94550000Y-53586000D02*
G75*
G03*
X94600000Y-53636000I50000J0D01*
G01*
X95900000Y-53636000D02*
G75*
G03*
X95950000Y-53586000I0J50000D01*
G01*
X94600000Y-56536000D02*
G75*
G03*
X94550000Y-56586000I0J-50000D01*
G01*
X95950000Y-56586000D02*
G75*
G03*
X95900000Y-56536000I-50000J0D01*
G01*
X96950000Y-53586000D02*
G75*
G03*
X95950000Y-53586000I-500000J0D01*
G01*
X94550000Y-53586000D02*
G75*
G03*
X93550000Y-53586000I-500000J0D01*
G01*
X93550000Y-56586000D02*
G75*
G03*
X94550000Y-56586000I500000J0D01*
G01*
X95950000Y-56586000D02*
G75*
G03*
X96950000Y-56586000I500000J0D01*
G01*
X74500000Y-49443000D02*
X74500000Y-46443000D01*
X77900000Y-46443000D02*
X77900000Y-49443000D01*
X76850000Y-49393000D02*
X75550000Y-49393000D01*
X76850000Y-46493000D02*
X75550000Y-46493000D01*
X75500000Y-46443000D02*
G75*
G03*
X75550000Y-46493000I50000J0D01*
G01*
X76850000Y-46493000D02*
G75*
G03*
X76900000Y-46443000I0J50000D01*
G01*
X75550000Y-49393000D02*
G75*
G03*
X75500000Y-49443000I0J-50000D01*
G01*
X76900000Y-49443000D02*
G75*
G03*
X76850000Y-49393000I-50000J0D01*
G01*
X77900000Y-46443000D02*
G75*
G03*
X76900000Y-46443000I-500000J0D01*
G01*
X75500000Y-46443000D02*
G75*
G03*
X74500000Y-46443000I-500000J0D01*
G01*
X74500000Y-49443000D02*
G75*
G03*
X75500000Y-49443000I500000J0D01*
G01*
X76900000Y-49443000D02*
G75*
G03*
X77900000Y-49443000I500000J0D01*
G01*
X55450000Y-47061000D02*
X55450000Y-44061000D01*
X58850000Y-44061000D02*
X58850000Y-47061000D01*
X57800000Y-47011000D02*
X56500000Y-47011000D01*
X57800000Y-44111000D02*
X56500000Y-44111000D01*
X56450000Y-44061000D02*
G75*
G03*
X56500000Y-44111000I50000J0D01*
G01*
X57800000Y-44111000D02*
G75*
G03*
X57850000Y-44061000I0J50000D01*
G01*
X56500000Y-47011000D02*
G75*
G03*
X56450000Y-47061000I0J-50000D01*
G01*
X57850000Y-47061000D02*
G75*
G03*
X57800000Y-47011000I-50000J0D01*
G01*
X58850000Y-44061000D02*
G75*
G03*
X57850000Y-44061000I-500000J0D01*
G01*
X56450000Y-44061000D02*
G75*
G03*
X55450000Y-44061000I-500000J0D01*
G01*
X55450000Y-47061000D02*
G75*
G03*
X56450000Y-47061000I500000J0D01*
G01*
X57850000Y-47061000D02*
G75*
G03*
X58850000Y-47061000I500000J0D01*
G01*
X36400000Y-54205000D02*
X36400000Y-51205000D01*
X39800000Y-51205000D02*
X39800000Y-54205000D01*
X38750000Y-54155000D02*
X37450000Y-54155000D01*
X38750000Y-51255000D02*
X37450000Y-51255000D01*
X37400000Y-51205000D02*
G75*
G03*
X37450000Y-51255000I50000J0D01*
G01*
X38750000Y-51255000D02*
G75*
G03*
X38800000Y-51205000I0J50000D01*
G01*
X37450000Y-54155000D02*
G75*
G03*
X37400000Y-54205000I0J-50000D01*
G01*
X38800000Y-54205000D02*
G75*
G03*
X38750000Y-54155000I-50000J0D01*
G01*
X39800000Y-51205000D02*
G75*
G03*
X38800000Y-51205000I-500000J0D01*
G01*
X37400000Y-51205000D02*
G75*
G03*
X36400000Y-51205000I-500000J0D01*
G01*
X36400000Y-54205000D02*
G75*
G03*
X37400000Y-54205000I500000J0D01*
G01*
X38800000Y-54205000D02*
G75*
G03*
X39800000Y-54205000I500000J0D01*
G01*
X17350000Y-58968000D02*
X17350000Y-55968000D01*
X20750000Y-55968000D02*
X20750000Y-58968000D01*
X19700000Y-58918000D02*
X18400000Y-58918000D01*
X19700000Y-56018000D02*
X18400000Y-56018000D01*
X18350000Y-55968000D02*
G75*
G03*
X18400000Y-56018000I50000J0D01*
G01*
X19700000Y-56018000D02*
G75*
G03*
X19750000Y-55968000I0J50000D01*
G01*
X18400000Y-58918000D02*
G75*
G03*
X18350000Y-58968000I0J-50000D01*
G01*
X19750000Y-58968000D02*
G75*
G03*
X19700000Y-58918000I-50000J0D01*
G01*
X20750000Y-55968000D02*
G75*
G03*
X19750000Y-55968000I-500000J0D01*
G01*
X18350000Y-55968000D02*
G75*
G03*
X17350000Y-55968000I-500000J0D01*
G01*
X17350000Y-58968000D02*
G75*
G03*
X18350000Y-58968000I500000J0D01*
G01*
X19750000Y-58968000D02*
G75*
G03*
X20750000Y-58968000I500000J0D01*
G01*
X-1700000Y-63730000D02*
X-1700000Y-60730000D01*
X1700000Y-60730000D02*
X1700000Y-63730000D01*
X650000Y-63680000D02*
X-650000Y-63680000D01*
X650000Y-60780000D02*
X-650000Y-60780000D01*
X-700000Y-60730000D02*
G75*
G03*
X-650000Y-60780000I50000J0D01*
G01*
X650000Y-60780000D02*
G75*
G03*
X700000Y-60730000I0J50000D01*
G01*
X-650000Y-63680000D02*
G75*
G03*
X-700000Y-63730000I0J-50000D01*
G01*
X700000Y-63730000D02*
G75*
G03*
X650000Y-63680000I-50000J0D01*
G01*
X1700000Y-60730000D02*
G75*
G03*
X700000Y-60730000I-500000J0D01*
G01*
X-700000Y-60730000D02*
G75*
G03*
X-1700000Y-60730000I-500000J0D01*
G01*
X-1700000Y-63730000D02*
G75*
G03*
X-700000Y-63730000I500000J0D01*
G01*
X700000Y-63730000D02*
G75*
G03*
X1700000Y-63730000I500000J0D01*
G01*
X116000000Y-47061000D02*
X116000000Y-44061000D01*
X112600000Y-44061000D02*
X112600000Y-47061000D01*
X113650000Y-47011000D02*
X114950000Y-47011000D01*
X113650000Y-44111000D02*
X114950000Y-44111000D01*
X115000000Y-44061000D02*
G75*
G02*
X114950000Y-44111000I-50000J0D01*
G01*
X113650000Y-44111000D02*
G75*
G02*
X113600000Y-44061000I0J50000D01*
G01*
X114950000Y-47011000D02*
G75*
G02*
X115000000Y-47061000I0J-50000D01*
G01*
X113600000Y-47061000D02*
G75*
G02*
X113650000Y-47011000I50000J0D01*
G01*
X112600000Y-44061000D02*
G75*
G02*
X113600000Y-44061000I500000J0D01*
G01*
X115000000Y-44061000D02*
G75*
G02*
X116000000Y-44061000I500000J0D01*
G01*
X116000000Y-47061000D02*
G75*
G02*
X115000000Y-47061000I-500000J0D01*
G01*
X113600000Y-47061000D02*
G75*
G02*
X112600000Y-47061000I-500000J0D01*
G01*
X96950000Y-37536000D02*
X96950000Y-34536000D01*
X93550000Y-34536000D02*
X93550000Y-37536000D01*
X94600000Y-37486000D02*
X95900000Y-37486000D01*
X94600000Y-34586000D02*
X95900000Y-34586000D01*
X95950000Y-34536000D02*
G75*
G02*
X95900000Y-34586000I-50000J0D01*
G01*
X94600000Y-34586000D02*
G75*
G02*
X94550000Y-34536000I0J50000D01*
G01*
X95900000Y-37486000D02*
G75*
G02*
X95950000Y-37536000I0J-50000D01*
G01*
X94550000Y-37536000D02*
G75*
G02*
X94600000Y-37486000I50000J0D01*
G01*
X93550000Y-34536000D02*
G75*
G02*
X94550000Y-34536000I500000J0D01*
G01*
X95950000Y-34536000D02*
G75*
G02*
X96950000Y-34536000I500000J0D01*
G01*
X96950000Y-37536000D02*
G75*
G02*
X95950000Y-37536000I-500000J0D01*
G01*
X94550000Y-37536000D02*
G75*
G02*
X93550000Y-37536000I-500000J0D01*
G01*
X77900000Y-30392000D02*
X77900000Y-27392000D01*
X74500000Y-27392000D02*
X74500000Y-30392000D01*
X75550000Y-30342000D02*
X76850000Y-30342000D01*
X75550000Y-27442000D02*
X76850000Y-27442000D01*
X76900000Y-27392000D02*
G75*
G02*
X76850000Y-27442000I-50000J0D01*
G01*
X75550000Y-27442000D02*
G75*
G02*
X75500000Y-27392000I0J50000D01*
G01*
X76850000Y-30342000D02*
G75*
G02*
X76900000Y-30392000I0J-50000D01*
G01*
X75500000Y-30392000D02*
G75*
G02*
X75550000Y-30342000I50000J0D01*
G01*
X74500000Y-27392000D02*
G75*
G02*
X75500000Y-27392000I500000J0D01*
G01*
X76900000Y-27392000D02*
G75*
G02*
X77900000Y-27392000I500000J0D01*
G01*
X77900000Y-30392000D02*
G75*
G02*
X76900000Y-30392000I-500000J0D01*
G01*
X75500000Y-30392000D02*
G75*
G02*
X74500000Y-30392000I-500000J0D01*
G01*
X58850000Y-28011000D02*
X58850000Y-25011000D01*
X55450000Y-25011000D02*
X55450000Y-28011000D01*
X56500000Y-27961000D02*
X57800000Y-27961000D01*
X56500000Y-25061000D02*
X57800000Y-25061000D01*
X57850000Y-25011000D02*
G75*
G02*
X57800000Y-25061000I-50000J0D01*
G01*
X56500000Y-25061000D02*
G75*
G02*
X56450000Y-25011000I0J50000D01*
G01*
X57800000Y-27961000D02*
G75*
G02*
X57850000Y-28011000I0J-50000D01*
G01*
X56450000Y-28011000D02*
G75*
G02*
X56500000Y-27961000I50000J0D01*
G01*
X55450000Y-25011000D02*
G75*
G02*
X56450000Y-25011000I500000J0D01*
G01*
X57850000Y-25011000D02*
G75*
G02*
X58850000Y-25011000I500000J0D01*
G01*
X58850000Y-28011000D02*
G75*
G02*
X57850000Y-28011000I-500000J0D01*
G01*
X56450000Y-28011000D02*
G75*
G02*
X55450000Y-28011000I-500000J0D01*
G01*
X39800000Y-35155000D02*
X39800000Y-32155000D01*
X36400000Y-32155000D02*
X36400000Y-35155000D01*
X37450000Y-35105000D02*
X38750000Y-35105000D01*
X37450000Y-32205000D02*
X38750000Y-32205000D01*
X38800000Y-32155000D02*
G75*
G02*
X38750000Y-32205000I-50000J0D01*
G01*
X37450000Y-32205000D02*
G75*
G02*
X37400000Y-32155000I0J50000D01*
G01*
X38750000Y-35105000D02*
G75*
G02*
X38800000Y-35155000I0J-50000D01*
G01*
X37400000Y-35155000D02*
G75*
G02*
X37450000Y-35105000I50000J0D01*
G01*
X36400000Y-32155000D02*
G75*
G02*
X37400000Y-32155000I500000J0D01*
G01*
X38800000Y-32155000D02*
G75*
G02*
X39800000Y-32155000I500000J0D01*
G01*
X39800000Y-35155000D02*
G75*
G02*
X38800000Y-35155000I-500000J0D01*
G01*
X37400000Y-35155000D02*
G75*
G02*
X36400000Y-35155000I-500000J0D01*
G01*
X20750000Y-39917000D02*
X20750000Y-36917000D01*
X17350000Y-36917000D02*
X17350000Y-39917000D01*
X18400000Y-39867000D02*
X19700000Y-39867000D01*
X18400000Y-36967000D02*
X19700000Y-36967000D01*
X19750000Y-36917000D02*
G75*
G02*
X19700000Y-36967000I-50000J0D01*
G01*
X18400000Y-36967000D02*
G75*
G02*
X18350000Y-36917000I0J50000D01*
G01*
X19700000Y-39867000D02*
G75*
G02*
X19750000Y-39917000I0J-50000D01*
G01*
X18350000Y-39917000D02*
G75*
G02*
X18400000Y-39867000I50000J0D01*
G01*
X17350000Y-36917000D02*
G75*
G02*
X18350000Y-36917000I500000J0D01*
G01*
X19750000Y-36917000D02*
G75*
G02*
X20750000Y-36917000I500000J0D01*
G01*
X20750000Y-39917000D02*
G75*
G02*
X19750000Y-39917000I-500000J0D01*
G01*
X18350000Y-39917000D02*
G75*
G02*
X17350000Y-39917000I-500000J0D01*
G01*
X1700000Y-44680000D02*
X1700000Y-41680000D01*
X-1700000Y-41680000D02*
X-1700000Y-44680000D01*
X-650000Y-44630000D02*
X650000Y-44630000D01*
X-650000Y-41730000D02*
X650000Y-41730000D01*
X700000Y-41680000D02*
G75*
G02*
X650000Y-41730000I-50000J0D01*
G01*
X-650000Y-41730000D02*
G75*
G02*
X-700000Y-41680000I0J50000D01*
G01*
X650000Y-44630000D02*
G75*
G02*
X700000Y-44680000I0J-50000D01*
G01*
X-700000Y-44680000D02*
G75*
G02*
X-650000Y-44630000I50000J0D01*
G01*
X-1700000Y-41680000D02*
G75*
G02*
X-700000Y-41680000I500000J0D01*
G01*
X700000Y-41680000D02*
G75*
G02*
X1700000Y-41680000I500000J0D01*
G01*
X1700000Y-44680000D02*
G75*
G02*
X700000Y-44680000I-500000J0D01*
G01*
X-700000Y-44680000D02*
G75*
G02*
X-1700000Y-44680000I-500000J0D01*
G01*
X112600000Y-28011000D02*
X112600000Y-25011000D01*
X116000000Y-25011000D02*
X116000000Y-28011000D01*
X114950000Y-27961000D02*
X113650000Y-27961000D01*
X114950000Y-25061000D02*
X113650000Y-25061000D01*
X113600000Y-25011000D02*
G75*
G03*
X113650000Y-25061000I50000J0D01*
G01*
X114950000Y-25061000D02*
G75*
G03*
X115000000Y-25011000I0J50000D01*
G01*
X113650000Y-27961000D02*
G75*
G03*
X113600000Y-28011000I0J-50000D01*
G01*
X115000000Y-28011000D02*
G75*
G03*
X114950000Y-27961000I-50000J0D01*
G01*
X116000000Y-25011000D02*
G75*
G03*
X115000000Y-25011000I-500000J0D01*
G01*
X113600000Y-25011000D02*
G75*
G03*
X112600000Y-25011000I-500000J0D01*
G01*
X112600000Y-28011000D02*
G75*
G03*
X113600000Y-28011000I500000J0D01*
G01*
X115000000Y-28011000D02*
G75*
G03*
X116000000Y-28011000I500000J0D01*
G01*
X93550000Y-18486000D02*
X93550000Y-15486000D01*
X96950000Y-15486000D02*
X96950000Y-18486000D01*
X95900000Y-18436000D02*
X94600000Y-18436000D01*
X95900000Y-15536000D02*
X94600000Y-15536000D01*
X94550000Y-15486000D02*
G75*
G03*
X94600000Y-15536000I50000J0D01*
G01*
X95900000Y-15536000D02*
G75*
G03*
X95950000Y-15486000I0J50000D01*
G01*
X94600000Y-18436000D02*
G75*
G03*
X94550000Y-18486000I0J-50000D01*
G01*
X95950000Y-18486000D02*
G75*
G03*
X95900000Y-18436000I-50000J0D01*
G01*
X96950000Y-15486000D02*
G75*
G03*
X95950000Y-15486000I-500000J0D01*
G01*
X94550000Y-15486000D02*
G75*
G03*
X93550000Y-15486000I-500000J0D01*
G01*
X93550000Y-18486000D02*
G75*
G03*
X94550000Y-18486000I500000J0D01*
G01*
X95950000Y-18486000D02*
G75*
G03*
X96950000Y-18486000I500000J0D01*
G01*
X74500000Y-11343000D02*
X74500000Y-8343000D01*
X77900000Y-8343000D02*
X77900000Y-11343000D01*
X76850000Y-11293000D02*
X75550000Y-11293000D01*
X76850000Y-8393000D02*
X75550000Y-8393000D01*
X75500000Y-8343000D02*
G75*
G03*
X75550000Y-8393000I50000J0D01*
G01*
X76850000Y-8393000D02*
G75*
G03*
X76900000Y-8343000I0J50000D01*
G01*
X75550000Y-11293000D02*
G75*
G03*
X75500000Y-11343000I0J-50000D01*
G01*
X76900000Y-11343000D02*
G75*
G03*
X76850000Y-11293000I-50000J0D01*
G01*
X77900000Y-8343000D02*
G75*
G03*
X76900000Y-8343000I-500000J0D01*
G01*
X75500000Y-8343000D02*
G75*
G03*
X74500000Y-8343000I-500000J0D01*
G01*
X74500000Y-11343000D02*
G75*
G03*
X75500000Y-11343000I500000J0D01*
G01*
X76900000Y-11343000D02*
G75*
G03*
X77900000Y-11343000I500000J0D01*
G01*
X55450000Y-8961000D02*
X55450000Y-5961000D01*
X58850000Y-5961000D02*
X58850000Y-8961000D01*
X57800000Y-8911000D02*
X56500000Y-8911000D01*
X57800000Y-6011000D02*
X56500000Y-6011000D01*
X56450000Y-5961000D02*
G75*
G03*
X56500000Y-6011000I50000J0D01*
G01*
X57800000Y-6011000D02*
G75*
G03*
X57850000Y-5961000I0J50000D01*
G01*
X56500000Y-8911000D02*
G75*
G03*
X56450000Y-8961000I0J-50000D01*
G01*
X57850000Y-8961000D02*
G75*
G03*
X57800000Y-8911000I-50000J0D01*
G01*
X58850000Y-5961000D02*
G75*
G03*
X57850000Y-5961000I-500000J0D01*
G01*
X56450000Y-5961000D02*
G75*
G03*
X55450000Y-5961000I-500000J0D01*
G01*
X55450000Y-8961000D02*
G75*
G03*
X56450000Y-8961000I500000J0D01*
G01*
X57850000Y-8961000D02*
G75*
G03*
X58850000Y-8961000I500000J0D01*
G01*
X36400000Y-16105000D02*
X36400000Y-13105000D01*
X39800000Y-13105000D02*
X39800000Y-16105000D01*
X38750000Y-16055000D02*
X37450000Y-16055000D01*
X38750000Y-13155000D02*
X37450000Y-13155000D01*
X37400000Y-13105000D02*
G75*
G03*
X37450000Y-13155000I50000J0D01*
G01*
X38750000Y-13155000D02*
G75*
G03*
X38800000Y-13105000I0J50000D01*
G01*
X37450000Y-16055000D02*
G75*
G03*
X37400000Y-16105000I0J-50000D01*
G01*
X38800000Y-16105000D02*
G75*
G03*
X38750000Y-16055000I-50000J0D01*
G01*
X39800000Y-13105000D02*
G75*
G03*
X38800000Y-13105000I-500000J0D01*
G01*
X37400000Y-13105000D02*
G75*
G03*
X36400000Y-13105000I-500000J0D01*
G01*
X36400000Y-16105000D02*
G75*
G03*
X37400000Y-16105000I500000J0D01*
G01*
X38800000Y-16105000D02*
G75*
G03*
X39800000Y-16105000I500000J0D01*
G01*
X17350000Y-20867000D02*
X17350000Y-17867000D01*
X20750000Y-17867000D02*
X20750000Y-20867000D01*
X19700000Y-20817000D02*
X18400000Y-20817000D01*
X19700000Y-17917000D02*
X18400000Y-17917000D01*
X18350000Y-17867000D02*
G75*
G03*
X18400000Y-17917000I50000J0D01*
G01*
X19700000Y-17917000D02*
G75*
G03*
X19750000Y-17867000I0J50000D01*
G01*
X18400000Y-20817000D02*
G75*
G03*
X18350000Y-20867000I0J-50000D01*
G01*
X19750000Y-20867000D02*
G75*
G03*
X19700000Y-20817000I-50000J0D01*
G01*
X20750000Y-17867000D02*
G75*
G03*
X19750000Y-17867000I-500000J0D01*
G01*
X18350000Y-17867000D02*
G75*
G03*
X17350000Y-17867000I-500000J0D01*
G01*
X17350000Y-20867000D02*
G75*
G03*
X18350000Y-20867000I500000J0D01*
G01*
X19750000Y-20867000D02*
G75*
G03*
X20750000Y-20867000I500000J0D01*
G01*
X-1700000Y-25630000D02*
X-1700000Y-22630000D01*
X1700000Y-22630000D02*
X1700000Y-25630000D01*
X650000Y-25580000D02*
X-650000Y-25580000D01*
X650000Y-22680000D02*
X-650000Y-22680000D01*
X-700000Y-22630000D02*
G75*
G03*
X-650000Y-22680000I50000J0D01*
G01*
X650000Y-22680000D02*
G75*
G03*
X700000Y-22630000I0J50000D01*
G01*
X-650000Y-25580000D02*
G75*
G03*
X-700000Y-25630000I0J-50000D01*
G01*
X700000Y-25630000D02*
G75*
G03*
X650000Y-25580000I-50000J0D01*
G01*
X1700000Y-22630000D02*
G75*
G03*
X700000Y-22630000I-500000J0D01*
G01*
X-700000Y-22630000D02*
G75*
G03*
X-1700000Y-22630000I-500000J0D01*
G01*
X-1700000Y-25630000D02*
G75*
G03*
X-700000Y-25630000I500000J0D01*
G01*
X700000Y-25630000D02*
G75*
G03*
X1700000Y-25630000I500000J0D01*
G01*
X116000000Y-8961000D02*
X116000000Y-5961000D01*
X112600000Y-5961000D02*
X112600000Y-8961000D01*
X113650000Y-8911000D02*
X114950000Y-8911000D01*
X113650000Y-6011000D02*
X114950000Y-6011000D01*
X115000000Y-5961000D02*
G75*
G02*
X114950000Y-6011000I-50000J0D01*
G01*
X113650000Y-6011000D02*
G75*
G02*
X113600000Y-5961000I0J50000D01*
G01*
X114950000Y-8911000D02*
G75*
G02*
X115000000Y-8961000I0J-50000D01*
G01*
X113600000Y-8961000D02*
G75*
G02*
X113650000Y-8911000I50000J0D01*
G01*
X112600000Y-5961000D02*
G75*
G02*
X113600000Y-5961000I500000J0D01*
G01*
X115000000Y-5961000D02*
G75*
G02*
X116000000Y-5961000I500000J0D01*
G01*
X116000000Y-8961000D02*
G75*
G02*
X115000000Y-8961000I-500000J0D01*
G01*
X113600000Y-8961000D02*
G75*
G02*
X112600000Y-8961000I-500000J0D01*
G01*
X96950000Y564000D02*
X96950000Y3564000D01*
X93550000Y3564000D02*
X93550000Y564000D01*
X94600000Y614000D02*
X95900000Y614000D01*
X94600000Y3514000D02*
X95900000Y3514000D01*
X95950000Y3564000D02*
G75*
G02*
X95900000Y3514000I-50000J0D01*
G01*
X94600000Y3514000D02*
G75*
G02*
X94550000Y3564000I0J50000D01*
G01*
X95900000Y614000D02*
G75*
G02*
X95950000Y564000I0J-50000D01*
G01*
X94550000Y564000D02*
G75*
G02*
X94600000Y614000I50000J0D01*
G01*
X93550000Y3564000D02*
G75*
G02*
X94550000Y3564000I500000J0D01*
G01*
X95950000Y3564000D02*
G75*
G02*
X96950000Y3564000I500000J0D01*
G01*
X96950000Y564000D02*
G75*
G02*
X95950000Y564000I-500000J0D01*
G01*
X94550000Y564000D02*
G75*
G02*
X93550000Y564000I-500000J0D01*
G01*
X77900000Y7708000D02*
X77900000Y10708000D01*
X74500000Y10708000D02*
X74500000Y7708000D01*
X75550000Y7758000D02*
X76850000Y7758000D01*
X75550000Y10658000D02*
X76850000Y10658000D01*
X76900000Y10708000D02*
G75*
G02*
X76850000Y10658000I-50000J0D01*
G01*
X75550000Y10658000D02*
G75*
G02*
X75500000Y10708000I0J50000D01*
G01*
X76850000Y7758000D02*
G75*
G02*
X76900000Y7708000I0J-50000D01*
G01*
X75500000Y7708000D02*
G75*
G02*
X75550000Y7758000I50000J0D01*
G01*
X74500000Y10708000D02*
G75*
G02*
X75500000Y10708000I500000J0D01*
G01*
X76900000Y10708000D02*
G75*
G02*
X77900000Y10708000I500000J0D01*
G01*
X77900000Y7708000D02*
G75*
G02*
X76900000Y7708000I-500000J0D01*
G01*
X75500000Y7708000D02*
G75*
G02*
X74500000Y7708000I-500000J0D01*
G01*
X58850000Y10089000D02*
X58850000Y13089000D01*
X55450000Y13089000D02*
X55450000Y10089000D01*
X56500000Y10139000D02*
X57800000Y10139000D01*
X56500000Y13039000D02*
X57800000Y13039000D01*
X57850000Y13089000D02*
G75*
G02*
X57800000Y13039000I-50000J0D01*
G01*
X56500000Y13039000D02*
G75*
G02*
X56450000Y13089000I0J50000D01*
G01*
X57800000Y10139000D02*
G75*
G02*
X57850000Y10089000I0J-50000D01*
G01*
X56450000Y10089000D02*
G75*
G02*
X56500000Y10139000I50000J0D01*
G01*
X55450000Y13089000D02*
G75*
G02*
X56450000Y13089000I500000J0D01*
G01*
X57850000Y13089000D02*
G75*
G02*
X58850000Y13089000I500000J0D01*
G01*
X58850000Y10089000D02*
G75*
G02*
X57850000Y10089000I-500000J0D01*
G01*
X56450000Y10089000D02*
G75*
G02*
X55450000Y10089000I-500000J0D01*
G01*
X39800000Y2945000D02*
X39800000Y5945000D01*
X36400000Y5945000D02*
X36400000Y2945000D01*
X37450000Y2995000D02*
X38750000Y2995000D01*
X37450000Y5895000D02*
X38750000Y5895000D01*
X38800000Y5945000D02*
G75*
G02*
X38750000Y5895000I-50000J0D01*
G01*
X37450000Y5895000D02*
G75*
G02*
X37400000Y5945000I0J50000D01*
G01*
X38750000Y2995000D02*
G75*
G02*
X38800000Y2945000I0J-50000D01*
G01*
X37400000Y2945000D02*
G75*
G02*
X37450000Y2995000I50000J0D01*
G01*
X36400000Y5945000D02*
G75*
G02*
X37400000Y5945000I500000J0D01*
G01*
X38800000Y5945000D02*
G75*
G02*
X39800000Y5945000I500000J0D01*
G01*
X39800000Y2945000D02*
G75*
G02*
X38800000Y2945000I-500000J0D01*
G01*
X37400000Y2945000D02*
G75*
G02*
X36400000Y2945000I-500000J0D01*
G01*
X20750000Y-1817000D02*
X20750000Y1183000D01*
X17350000Y1183000D02*
X17350000Y-1817000D01*
X18400000Y-1767000D02*
X19700000Y-1767000D01*
X18400000Y1133000D02*
X19700000Y1133000D01*
X19750000Y1183000D02*
G75*
G02*
X19700000Y1133000I-50000J0D01*
G01*
X18400000Y1133000D02*
G75*
G02*
X18350000Y1183000I0J50000D01*
G01*
X19700000Y-1767000D02*
G75*
G02*
X19750000Y-1817000I0J-50000D01*
G01*
X18350000Y-1817000D02*
G75*
G02*
X18400000Y-1767000I50000J0D01*
G01*
X17350000Y1183000D02*
G75*
G02*
X18350000Y1183000I500000J0D01*
G01*
X19750000Y1183000D02*
G75*
G02*
X20750000Y1183000I500000J0D01*
G01*
X20750000Y-1817000D02*
G75*
G02*
X19750000Y-1817000I-500000J0D01*
G01*
X18350000Y-1817000D02*
G75*
G02*
X17350000Y-1817000I-500000J0D01*
G01*
X1700000Y-6580000D02*
X1700000Y-3580000D01*
X-1700000Y-3580000D02*
X-1700000Y-6580000D01*
X-650000Y-6530000D02*
X650000Y-6530000D01*
X-650000Y-3630000D02*
X650000Y-3630000D01*
X700000Y-3580000D02*
G75*
G02*
X650000Y-3630000I-50000J0D01*
G01*
X-650000Y-3630000D02*
G75*
G02*
X-700000Y-3580000I0J50000D01*
G01*
X650000Y-6530000D02*
G75*
G02*
X700000Y-6580000I0J-50000D01*
G01*
X-700000Y-6580000D02*
G75*
G02*
X-650000Y-6530000I50000J0D01*
G01*
X-1700000Y-3580000D02*
G75*
G02*
X-700000Y-3580000I500000J0D01*
G01*
X700000Y-3580000D02*
G75*
G02*
X1700000Y-3580000I500000J0D01*
G01*
X1700000Y-6580000D02*
G75*
G02*
X700000Y-6580000I-500000J0D01*
G01*
X-700000Y-6580000D02*
G75*
G02*
X-1700000Y-6580000I-500000J0D01*
G01*
X125721581Y-84140866D02*
G75*
G02*
X123833000Y-85086000I-467581J-1425134D01*
G01*
X125405080Y-83505759D02*
G75*
G03*
X125721581Y-84140865I473920J-160241D01*
G01*
X123514858Y-84450622D02*
G75*
G02*
X123833000Y-85086000I-155858J-475378D01*
G01*
X123514859Y-84450621D02*
G75*
G02*
X125405080Y-83505759I469141J1424621D01*
G01*
X117166419Y-84140866D02*
G75*
G03*
X119055000Y-85086000I467581J-1425134D01*
G01*
X119373142Y-84450622D02*
G75*
G03*
X119055000Y-85086000I155858J-475378D01*
G01*
X117482920Y-83505759D02*
G75*
G02*
X117166419Y-84140865I-473920J-160241D01*
G01*
X119373141Y-84450621D02*
G75*
G03*
X117482920Y-83505759I-469141J1424621D01*
G01*
X106671581Y-76997866D02*
G75*
G02*
X104783000Y-77943000I-467581J-1425134D01*
G01*
X106355080Y-76362759D02*
G75*
G03*
X106671581Y-76997865I473920J-160241D01*
G01*
X104464858Y-77307622D02*
G75*
G02*
X104783000Y-77943000I-155858J-475378D01*
G01*
X104464859Y-77307621D02*
G75*
G02*
X106355080Y-76362759I469141J1424621D01*
G01*
X98116419Y-76997866D02*
G75*
G03*
X100005000Y-77943000I467581J-1425134D01*
G01*
X100323142Y-77307622D02*
G75*
G03*
X100005000Y-77943000I155858J-475378D01*
G01*
X98432920Y-76362759D02*
G75*
G02*
X98116419Y-76997865I-473920J-160241D01*
G01*
X100323141Y-77307621D02*
G75*
G03*
X98432920Y-76362759I-469141J1424621D01*
G01*
X87621581Y-74615866D02*
G75*
G02*
X85733000Y-75561000I-467581J-1425134D01*
G01*
X87305080Y-73980759D02*
G75*
G03*
X87621581Y-74615865I473920J-160241D01*
G01*
X85414858Y-74925622D02*
G75*
G02*
X85733000Y-75561000I-155858J-475378D01*
G01*
X85414859Y-74925621D02*
G75*
G02*
X87305080Y-73980759I469141J1424621D01*
G01*
X79066419Y-74615866D02*
G75*
G03*
X80955000Y-75561000I467581J-1425134D01*
G01*
X81273142Y-74925622D02*
G75*
G03*
X80955000Y-75561000I155858J-475378D01*
G01*
X79382920Y-73980759D02*
G75*
G02*
X79066419Y-74615865I-473920J-160241D01*
G01*
X81273141Y-74925621D02*
G75*
G03*
X79382920Y-73980759I-469141J1424621D01*
G01*
X68571581Y-74615866D02*
G75*
G02*
X66683000Y-75561000I-467581J-1425134D01*
G01*
X68255080Y-73980759D02*
G75*
G03*
X68571581Y-74615865I473920J-160241D01*
G01*
X66364858Y-74925622D02*
G75*
G02*
X66683000Y-75561000I-155858J-475378D01*
G01*
X66364859Y-74925621D02*
G75*
G02*
X68255080Y-73980759I469141J1424621D01*
G01*
X60016419Y-74615866D02*
G75*
G03*
X61905000Y-75561000I467581J-1425134D01*
G01*
X62223142Y-74925622D02*
G75*
G03*
X61905000Y-75561000I155858J-475378D01*
G01*
X60332920Y-73980759D02*
G75*
G02*
X60016419Y-74615865I-473920J-160241D01*
G01*
X62223141Y-74925621D02*
G75*
G03*
X60332920Y-73980759I-469141J1424621D01*
G01*
X118577581Y-55565866D02*
G75*
G02*
X116689000Y-56511000I-467581J-1425134D01*
G01*
X118261080Y-54930759D02*
G75*
G03*
X118577581Y-55565865I473920J-160241D01*
G01*
X116370858Y-55875622D02*
G75*
G02*
X116689000Y-56511000I-155858J-475378D01*
G01*
X116370859Y-55875621D02*
G75*
G02*
X118261080Y-54930759I469141J1424621D01*
G01*
X110022419Y-55565866D02*
G75*
G03*
X111911000Y-56511000I467581J-1425134D01*
G01*
X112229142Y-55875622D02*
G75*
G03*
X111911000Y-56511000I155858J-475378D01*
G01*
X110338920Y-54930759D02*
G75*
G02*
X110022419Y-55565865I-473920J-160241D01*
G01*
X112229141Y-55875621D02*
G75*
G03*
X110338920Y-54930759I-469141J1424621D01*
G01*
X99527581Y-46040866D02*
G75*
G02*
X97639000Y-46986000I-467581J-1425134D01*
G01*
X99211080Y-45405759D02*
G75*
G03*
X99527581Y-46040865I473920J-160241D01*
G01*
X97320858Y-46350622D02*
G75*
G02*
X97639000Y-46986000I-155858J-475378D01*
G01*
X97320859Y-46350621D02*
G75*
G02*
X99211080Y-45405759I469141J1424621D01*
G01*
X90972419Y-46040866D02*
G75*
G03*
X92861000Y-46986000I467581J-1425134D01*
G01*
X93179142Y-46350622D02*
G75*
G03*
X92861000Y-46986000I155858J-475378D01*
G01*
X91288920Y-45405759D02*
G75*
G02*
X90972419Y-46040865I-473920J-160241D01*
G01*
X93179141Y-46350621D02*
G75*
G03*
X91288920Y-45405759I-469141J1424621D01*
G01*
X80477581Y-38897866D02*
G75*
G02*
X78589000Y-39843000I-467581J-1425134D01*
G01*
X80161080Y-38262759D02*
G75*
G03*
X80477581Y-38897865I473920J-160241D01*
G01*
X78270858Y-39207622D02*
G75*
G02*
X78589000Y-39843000I-155858J-475378D01*
G01*
X78270859Y-39207621D02*
G75*
G02*
X80161080Y-38262759I469141J1424621D01*
G01*
X71922419Y-38897866D02*
G75*
G03*
X73811000Y-39843000I467581J-1425134D01*
G01*
X74129142Y-39207622D02*
G75*
G03*
X73811000Y-39843000I155858J-475378D01*
G01*
X72238920Y-38262759D02*
G75*
G02*
X71922419Y-38897865I-473920J-160241D01*
G01*
X74129141Y-39207621D02*
G75*
G03*
X72238920Y-38262759I-469141J1424621D01*
G01*
X61427581Y-36515866D02*
G75*
G02*
X59539000Y-37461000I-467581J-1425134D01*
G01*
X61111080Y-35880759D02*
G75*
G03*
X61427581Y-36515865I473920J-160241D01*
G01*
X59220858Y-36825622D02*
G75*
G02*
X59539000Y-37461000I-155858J-475378D01*
G01*
X59220859Y-36825621D02*
G75*
G02*
X61111080Y-35880759I469141J1424621D01*
G01*
X52872419Y-36515866D02*
G75*
G03*
X54761000Y-37461000I467581J-1425134D01*
G01*
X55079142Y-36825622D02*
G75*
G03*
X54761000Y-37461000I155858J-475378D01*
G01*
X53188920Y-35880759D02*
G75*
G02*
X52872419Y-36515865I-473920J-160241D01*
G01*
X55079141Y-36825621D02*
G75*
G03*
X53188920Y-35880759I-469141J1424621D01*
G01*
X42377581Y-43659866D02*
G75*
G02*
X40489000Y-44605000I-467581J-1425134D01*
G01*
X42061080Y-43024759D02*
G75*
G03*
X42377581Y-43659865I473920J-160241D01*
G01*
X40170858Y-43969622D02*
G75*
G02*
X40489000Y-44605000I-155858J-475378D01*
G01*
X40170859Y-43969621D02*
G75*
G02*
X42061080Y-43024759I469141J1424621D01*
G01*
X33822419Y-43659866D02*
G75*
G03*
X35711000Y-44605000I467581J-1425134D01*
G01*
X36029142Y-43969622D02*
G75*
G03*
X35711000Y-44605000I155858J-475378D01*
G01*
X34138920Y-43024759D02*
G75*
G02*
X33822419Y-43659865I-473920J-160241D01*
G01*
X36029141Y-43969621D02*
G75*
G03*
X34138920Y-43024759I-469141J1424621D01*
G01*
X23327581Y-48422866D02*
G75*
G02*
X21439000Y-49368000I-467581J-1425134D01*
G01*
X23011080Y-47787759D02*
G75*
G03*
X23327581Y-48422865I473920J-160241D01*
G01*
X21120858Y-48732622D02*
G75*
G02*
X21439000Y-49368000I-155858J-475378D01*
G01*
X21120859Y-48732621D02*
G75*
G02*
X23011080Y-47787759I469141J1424621D01*
G01*
X14772419Y-48422866D02*
G75*
G03*
X16661000Y-49368000I467581J-1425134D01*
G01*
X16979142Y-48732622D02*
G75*
G03*
X16661000Y-49368000I155858J-475378D01*
G01*
X15088920Y-47787759D02*
G75*
G02*
X14772419Y-48422865I-473920J-160241D01*
G01*
X16979141Y-48732621D02*
G75*
G03*
X15088920Y-47787759I-469141J1424621D01*
G01*
X4277581Y-53184866D02*
G75*
G02*
X2389000Y-54130000I-467581J-1425134D01*
G01*
X3961080Y-52549759D02*
G75*
G03*
X4277581Y-53184865I473920J-160241D01*
G01*
X2070858Y-53494622D02*
G75*
G02*
X2389000Y-54130000I-155858J-475378D01*
G01*
X2070859Y-53494621D02*
G75*
G02*
X3961080Y-52549759I469141J1424621D01*
G01*
X-4277581Y-53184866D02*
G75*
G03*
X-2389000Y-54130000I467581J-1425134D01*
G01*
X-2070858Y-53494622D02*
G75*
G03*
X-2389000Y-54130000I155858J-475378D01*
G01*
X-3961080Y-52549759D02*
G75*
G02*
X-4277581Y-53184865I-473920J-160241D01*
G01*
X-2070859Y-53494621D02*
G75*
G03*
X-3961080Y-52549759I-469141J1424621D01*
G01*
X118577581Y-36515866D02*
G75*
G02*
X116689000Y-37461000I-467581J-1425134D01*
G01*
X118261080Y-35880759D02*
G75*
G03*
X118577581Y-36515865I473920J-160241D01*
G01*
X116370858Y-36825622D02*
G75*
G02*
X116689000Y-37461000I-155858J-475378D01*
G01*
X116370859Y-36825621D02*
G75*
G02*
X118261080Y-35880759I469141J1424621D01*
G01*
X110022419Y-36515866D02*
G75*
G03*
X111911000Y-37461000I467581J-1425134D01*
G01*
X112229142Y-36825622D02*
G75*
G03*
X111911000Y-37461000I155858J-475378D01*
G01*
X110338920Y-35880759D02*
G75*
G02*
X110022419Y-36515865I-473920J-160241D01*
G01*
X112229141Y-36825621D02*
G75*
G03*
X110338920Y-35880759I-469141J1424621D01*
G01*
X99527581Y-26990866D02*
G75*
G02*
X97639000Y-27936000I-467581J-1425134D01*
G01*
X99211080Y-26355759D02*
G75*
G03*
X99527581Y-26990865I473920J-160241D01*
G01*
X97320858Y-27300622D02*
G75*
G02*
X97639000Y-27936000I-155858J-475378D01*
G01*
X97320859Y-27300621D02*
G75*
G02*
X99211080Y-26355759I469141J1424621D01*
G01*
X90972419Y-26990866D02*
G75*
G03*
X92861000Y-27936000I467581J-1425134D01*
G01*
X93179142Y-27300622D02*
G75*
G03*
X92861000Y-27936000I155858J-475378D01*
G01*
X91288920Y-26355759D02*
G75*
G02*
X90972419Y-26990865I-473920J-160241D01*
G01*
X93179141Y-27300621D02*
G75*
G03*
X91288920Y-26355759I-469141J1424621D01*
G01*
X80477581Y-19846866D02*
G75*
G02*
X78589000Y-20792000I-467581J-1425134D01*
G01*
X80161080Y-19211759D02*
G75*
G03*
X80477581Y-19846865I473920J-160241D01*
G01*
X78270858Y-20156622D02*
G75*
G02*
X78589000Y-20792000I-155858J-475378D01*
G01*
X78270859Y-20156621D02*
G75*
G02*
X80161080Y-19211759I469141J1424621D01*
G01*
X71922419Y-19846866D02*
G75*
G03*
X73811000Y-20792000I467581J-1425134D01*
G01*
X74129142Y-20156622D02*
G75*
G03*
X73811000Y-20792000I155858J-475378D01*
G01*
X72238920Y-19211759D02*
G75*
G02*
X71922419Y-19846865I-473920J-160241D01*
G01*
X74129141Y-20156621D02*
G75*
G03*
X72238920Y-19211759I-469141J1424621D01*
G01*
X61427581Y-17465866D02*
G75*
G02*
X59539000Y-18411000I-467581J-1425134D01*
G01*
X61111080Y-16830759D02*
G75*
G03*
X61427581Y-17465865I473920J-160241D01*
G01*
X59220858Y-17775622D02*
G75*
G02*
X59539000Y-18411000I-155858J-475378D01*
G01*
X59220859Y-17775621D02*
G75*
G02*
X61111080Y-16830759I469141J1424621D01*
G01*
X52872419Y-17465866D02*
G75*
G03*
X54761000Y-18411000I467581J-1425134D01*
G01*
X55079142Y-17775622D02*
G75*
G03*
X54761000Y-18411000I155858J-475378D01*
G01*
X53188920Y-16830759D02*
G75*
G02*
X52872419Y-17465865I-473920J-160241D01*
G01*
X55079141Y-17775621D02*
G75*
G03*
X53188920Y-16830759I-469141J1424621D01*
G01*
X42377581Y-24609866D02*
G75*
G02*
X40489000Y-25555000I-467581J-1425134D01*
G01*
X42061080Y-23974759D02*
G75*
G03*
X42377581Y-24609865I473920J-160241D01*
G01*
X40170858Y-24919622D02*
G75*
G02*
X40489000Y-25555000I-155858J-475378D01*
G01*
X40170859Y-24919621D02*
G75*
G02*
X42061080Y-23974759I469141J1424621D01*
G01*
X33822419Y-24609866D02*
G75*
G03*
X35711000Y-25555000I467581J-1425134D01*
G01*
X36029142Y-24919622D02*
G75*
G03*
X35711000Y-25555000I155858J-475378D01*
G01*
X34138920Y-23974759D02*
G75*
G02*
X33822419Y-24609865I-473920J-160241D01*
G01*
X36029141Y-24919621D02*
G75*
G03*
X34138920Y-23974759I-469141J1424621D01*
G01*
X23327581Y-29371866D02*
G75*
G02*
X21439000Y-30317000I-467581J-1425134D01*
G01*
X23011080Y-28736759D02*
G75*
G03*
X23327581Y-29371865I473920J-160241D01*
G01*
X21120858Y-29681622D02*
G75*
G02*
X21439000Y-30317000I-155858J-475378D01*
G01*
X21120859Y-29681621D02*
G75*
G02*
X23011080Y-28736759I469141J1424621D01*
G01*
X14772419Y-29371866D02*
G75*
G03*
X16661000Y-30317000I467581J-1425134D01*
G01*
X16979142Y-29681622D02*
G75*
G03*
X16661000Y-30317000I155858J-475378D01*
G01*
X15088920Y-28736759D02*
G75*
G02*
X14772419Y-29371865I-473920J-160241D01*
G01*
X16979141Y-29681621D02*
G75*
G03*
X15088920Y-28736759I-469141J1424621D01*
G01*
X4277581Y-34134866D02*
G75*
G02*
X2389000Y-35080000I-467581J-1425134D01*
G01*
X3961080Y-33499759D02*
G75*
G03*
X4277581Y-34134865I473920J-160241D01*
G01*
X2070858Y-34444622D02*
G75*
G02*
X2389000Y-35080000I-155858J-475378D01*
G01*
X2070859Y-34444621D02*
G75*
G02*
X3961080Y-33499759I469141J1424621D01*
G01*
X-4277581Y-34134866D02*
G75*
G03*
X-2389000Y-35080000I467581J-1425134D01*
G01*
X-2070858Y-34444622D02*
G75*
G03*
X-2389000Y-35080000I155858J-475378D01*
G01*
X-3961080Y-33499759D02*
G75*
G02*
X-4277581Y-34134865I-473920J-160241D01*
G01*
X-2070859Y-34444621D02*
G75*
G03*
X-3961080Y-33499759I-469141J1424621D01*
G01*
X118577581Y-17465866D02*
G75*
G02*
X116689000Y-18411000I-467581J-1425134D01*
G01*
X118261080Y-16830759D02*
G75*
G03*
X118577581Y-17465865I473920J-160241D01*
G01*
X116370858Y-17775622D02*
G75*
G02*
X116689000Y-18411000I-155858J-475378D01*
G01*
X116370859Y-17775621D02*
G75*
G02*
X118261080Y-16830759I469141J1424621D01*
G01*
X110022419Y-17465866D02*
G75*
G03*
X111911000Y-18411000I467581J-1425134D01*
G01*
X112229142Y-17775622D02*
G75*
G03*
X111911000Y-18411000I155858J-475378D01*
G01*
X110338920Y-16830759D02*
G75*
G02*
X110022419Y-17465865I-473920J-160241D01*
G01*
X112229141Y-17775621D02*
G75*
G03*
X110338920Y-16830759I-469141J1424621D01*
G01*
X99527581Y-7940866D02*
G75*
G02*
X97639000Y-8886000I-467581J-1425134D01*
G01*
X99211080Y-7305759D02*
G75*
G03*
X99527581Y-7940865I473920J-160241D01*
G01*
X97320858Y-8250622D02*
G75*
G02*
X97639000Y-8886000I-155858J-475378D01*
G01*
X97320859Y-8250621D02*
G75*
G02*
X99211080Y-7305759I469141J1424621D01*
G01*
X90972419Y-7940866D02*
G75*
G03*
X92861000Y-8886000I467581J-1425134D01*
G01*
X93179142Y-8250622D02*
G75*
G03*
X92861000Y-8886000I155858J-475378D01*
G01*
X91288920Y-7305759D02*
G75*
G02*
X90972419Y-7940865I-473920J-160241D01*
G01*
X93179141Y-8250621D02*
G75*
G03*
X91288920Y-7305759I-469141J1424621D01*
G01*
X80477581Y-797866D02*
G75*
G02*
X78589000Y-1743000I-467581J-1425134D01*
G01*
X80161080Y-162759D02*
G75*
G03*
X80477581Y-797865I473920J-160241D01*
G01*
X78270858Y-1107622D02*
G75*
G02*
X78589000Y-1743000I-155858J-475378D01*
G01*
X78270859Y-1107621D02*
G75*
G02*
X80161080Y-162759I469141J1424621D01*
G01*
X71922419Y-797866D02*
G75*
G03*
X73811000Y-1743000I467581J-1425134D01*
G01*
X74129142Y-1107622D02*
G75*
G03*
X73811000Y-1743000I155858J-475378D01*
G01*
X72238920Y-162759D02*
G75*
G02*
X71922419Y-797865I-473920J-160241D01*
G01*
X74129141Y-1107621D02*
G75*
G03*
X72238920Y-162759I-469141J1424621D01*
G01*
X61427581Y1584134D02*
G75*
G02*
X59539000Y639000I-467581J-1425134D01*
G01*
X61111080Y2219241D02*
G75*
G03*
X61427581Y1584135I473920J-160241D01*
G01*
X59220858Y1274378D02*
G75*
G02*
X59539000Y639000I-155858J-475378D01*
G01*
X59220859Y1274379D02*
G75*
G02*
X61111080Y2219241I469141J1424621D01*
G01*
X52872419Y1584134D02*
G75*
G03*
X54761000Y639000I467581J-1425134D01*
G01*
X55079142Y1274378D02*
G75*
G03*
X54761000Y639000I155858J-475378D01*
G01*
X53188920Y2219241D02*
G75*
G02*
X52872419Y1584135I-473920J-160241D01*
G01*
X55079141Y1274379D02*
G75*
G03*
X53188920Y2219241I-469141J1424621D01*
G01*
X42377581Y-5559866D02*
G75*
G02*
X40489000Y-6505000I-467581J-1425134D01*
G01*
X42061080Y-4924759D02*
G75*
G03*
X42377581Y-5559865I473920J-160241D01*
G01*
X40170858Y-5869622D02*
G75*
G02*
X40489000Y-6505000I-155858J-475378D01*
G01*
X40170859Y-5869621D02*
G75*
G02*
X42061080Y-4924759I469141J1424621D01*
G01*
X33822419Y-5559866D02*
G75*
G03*
X35711000Y-6505000I467581J-1425134D01*
G01*
X36029142Y-5869622D02*
G75*
G03*
X35711000Y-6505000I155858J-475378D01*
G01*
X34138920Y-4924759D02*
G75*
G02*
X33822419Y-5559865I-473920J-160241D01*
G01*
X36029141Y-5869621D02*
G75*
G03*
X34138920Y-4924759I-469141J1424621D01*
G01*
X23327581Y-10322866D02*
G75*
G02*
X21439000Y-11268000I-467581J-1425134D01*
G01*
X23011080Y-9687759D02*
G75*
G03*
X23327581Y-10322865I473920J-160241D01*
G01*
X21120858Y-10632622D02*
G75*
G02*
X21439000Y-11268000I-155858J-475378D01*
G01*
X21120859Y-10632621D02*
G75*
G02*
X23011080Y-9687759I469141J1424621D01*
G01*
X14772419Y-10322866D02*
G75*
G03*
X16661000Y-11268000I467581J-1425134D01*
G01*
X16979142Y-10632622D02*
G75*
G03*
X16661000Y-11268000I155858J-475378D01*
G01*
X15088920Y-9687759D02*
G75*
G02*
X14772419Y-10322865I-473920J-160241D01*
G01*
X16979141Y-10632621D02*
G75*
G03*
X15088920Y-9687759I-469141J1424621D01*
G01*
X4277581Y-15084866D02*
G75*
G02*
X2389000Y-16030000I-467581J-1425134D01*
G01*
X3961080Y-14449759D02*
G75*
G03*
X4277581Y-15084865I473920J-160241D01*
G01*
X2070858Y-15394622D02*
G75*
G02*
X2389000Y-16030000I-155858J-475378D01*
G01*
X2070859Y-15394621D02*
G75*
G02*
X3961080Y-14449759I469141J1424621D01*
G01*
X-4277581Y-15084866D02*
G75*
G03*
X-2389000Y-16030000I467581J-1425134D01*
G01*
X-2070858Y-15394622D02*
G75*
G03*
X-2389000Y-16030000I155858J-475378D01*
G01*
X-3961080Y-14449759D02*
G75*
G02*
X-4277581Y-15084865I-473920J-160241D01*
G01*
X-2070859Y-15394621D02*
G75*
G03*
X-3961080Y-14449759I-469141J1424621D01*
G01*
X118577581Y1584134D02*
G75*
G02*
X116689000Y639000I-467581J-1425134D01*
G01*
X118261080Y2219241D02*
G75*
G03*
X118577581Y1584135I473920J-160241D01*
G01*
X116370858Y1274378D02*
G75*
G02*
X116689000Y639000I-155858J-475378D01*
G01*
X116370859Y1274379D02*
G75*
G02*
X118261080Y2219241I469141J1424621D01*
G01*
X110022419Y1584134D02*
G75*
G03*
X111911000Y639000I467581J-1425134D01*
G01*
X112229142Y1274378D02*
G75*
G03*
X111911000Y639000I155858J-475378D01*
G01*
X110338920Y2219241D02*
G75*
G02*
X110022419Y1584135I-473920J-160241D01*
G01*
X112229141Y1274379D02*
G75*
G03*
X110338920Y2219241I-469141J1424621D01*
G01*
X99527581Y11109134D02*
G75*
G02*
X97639000Y10164000I-467581J-1425134D01*
G01*
X99211080Y11744241D02*
G75*
G03*
X99527581Y11109135I473920J-160241D01*
G01*
X97320858Y10799378D02*
G75*
G02*
X97639000Y10164000I-155858J-475378D01*
G01*
X97320859Y10799379D02*
G75*
G02*
X99211080Y11744241I469141J1424621D01*
G01*
X90972419Y11109134D02*
G75*
G03*
X92861000Y10164000I467581J-1425134D01*
G01*
X93179142Y10799378D02*
G75*
G03*
X92861000Y10164000I155858J-475378D01*
G01*
X91288920Y11744241D02*
G75*
G02*
X90972419Y11109135I-473920J-160241D01*
G01*
X93179141Y10799379D02*
G75*
G03*
X91288920Y11744241I-469141J1424621D01*
G01*
X80477581Y18253134D02*
G75*
G02*
X78589000Y17308000I-467581J-1425134D01*
G01*
X80161080Y18888241D02*
G75*
G03*
X80477581Y18253135I473920J-160241D01*
G01*
X78270858Y17943378D02*
G75*
G02*
X78589000Y17308000I-155858J-475378D01*
G01*
X78270859Y17943379D02*
G75*
G02*
X80161080Y18888241I469141J1424621D01*
G01*
X71922419Y18253134D02*
G75*
G03*
X73811000Y17308000I467581J-1425134D01*
G01*
X74129142Y17943378D02*
G75*
G03*
X73811000Y17308000I155858J-475378D01*
G01*
X72238920Y18888241D02*
G75*
G02*
X71922419Y18253135I-473920J-160241D01*
G01*
X74129141Y17943379D02*
G75*
G03*
X72238920Y18888241I-469141J1424621D01*
G01*
X61427581Y20634134D02*
G75*
G02*
X59539000Y19689000I-467581J-1425134D01*
G01*
X61111080Y21269241D02*
G75*
G03*
X61427581Y20634135I473920J-160241D01*
G01*
X59220858Y20324378D02*
G75*
G02*
X59539000Y19689000I-155858J-475378D01*
G01*
X59220859Y20324379D02*
G75*
G02*
X61111080Y21269241I469141J1424621D01*
G01*
X52872419Y20634134D02*
G75*
G03*
X54761000Y19689000I467581J-1425134D01*
G01*
X55079142Y20324378D02*
G75*
G03*
X54761000Y19689000I155858J-475378D01*
G01*
X53188920Y21269241D02*
G75*
G02*
X52872419Y20634135I-473920J-160241D01*
G01*
X55079141Y20324379D02*
G75*
G03*
X53188920Y21269241I-469141J1424621D01*
G01*
X42377581Y13490134D02*
G75*
G02*
X40489000Y12545000I-467581J-1425134D01*
G01*
X42061080Y14125241D02*
G75*
G03*
X42377581Y13490135I473920J-160241D01*
G01*
X40170858Y13180378D02*
G75*
G02*
X40489000Y12545000I-155858J-475378D01*
G01*
X40170859Y13180379D02*
G75*
G02*
X42061080Y14125241I469141J1424621D01*
G01*
X33822419Y13490134D02*
G75*
G03*
X35711000Y12545000I467581J-1425134D01*
G01*
X36029142Y13180378D02*
G75*
G03*
X35711000Y12545000I155858J-475378D01*
G01*
X34138920Y14125241D02*
G75*
G02*
X33822419Y13490135I-473920J-160241D01*
G01*
X36029141Y13180379D02*
G75*
G03*
X34138920Y14125241I-469141J1424621D01*
G01*
X23327581Y8728134D02*
G75*
G02*
X21439000Y7783000I-467581J-1425134D01*
G01*
X23011080Y9363241D02*
G75*
G03*
X23327581Y8728135I473920J-160241D01*
G01*
X21120858Y8418378D02*
G75*
G02*
X21439000Y7783000I-155858J-475378D01*
G01*
X21120859Y8418379D02*
G75*
G02*
X23011080Y9363241I469141J1424621D01*
G01*
X14772419Y8728134D02*
G75*
G03*
X16661000Y7783000I467581J-1425134D01*
G01*
X16979142Y8418378D02*
G75*
G03*
X16661000Y7783000I155858J-475378D01*
G01*
X15088920Y9363241D02*
G75*
G02*
X14772419Y8728135I-473920J-160241D01*
G01*
X16979141Y8418379D02*
G75*
G03*
X15088920Y9363241I-469141J1424621D01*
G01*
X4277581Y3965134D02*
G75*
G02*
X2389000Y3020000I-467581J-1425134D01*
G01*
X3961080Y4600241D02*
G75*
G03*
X4277581Y3965135I473920J-160241D01*
G01*
X2070858Y3655378D02*
G75*
G02*
X2389000Y3020000I-155858J-475378D01*
G01*
X2070859Y3655379D02*
G75*
G02*
X3961080Y4600241I469141J1424621D01*
G01*
X-4277581Y3965134D02*
G75*
G03*
X-2389000Y3020000I467581J-1425134D01*
G01*
X-2070858Y3655378D02*
G75*
G03*
X-2389000Y3020000I155858J-475378D01*
G01*
X-3961080Y4600241D02*
G75*
G02*
X-4277581Y3965135I-473920J-160241D01*
G01*
X-2070859Y3655379D02*
G75*
G03*
X-3961080Y4600241I-469141J1424621D01*
G01*
X65500000Y-66000001D02*
X65500000Y-51600001D01*
X50100000Y-67000001D02*
X64500000Y-67000001D01*
X49100000Y-51600001D02*
X49100000Y-66000001D01*
X64500000Y-50600001D02*
X50100000Y-50600001D01*
X64500000Y-67000001D02*
G75*
G03*
X65500000Y-66000001I500000J500000D01*
G01*
X49100000Y-66000001D02*
G75*
G03*
X50100000Y-67000001I500000J-500000D01*
G01*
X50100000Y-50600001D02*
G75*
G03*
X49100000Y-51600001I-500000J-500000D01*
G01*
X65500000Y-51600001D02*
G75*
G03*
X64500000Y-50600001I-500000J500000D01*
G01*
M02*
