G04 #@! TF.GenerationSoftware,KiCad,Pcbnew,(5.1.9)-1*
G04 #@! TF.CreationDate,2021-04-11T13:59:09+10:00*
G04 #@! TF.ProjectId,ExtraBoard-Plate,45787472-6142-46f6-9172-642d506c6174,rev?*
G04 #@! TF.SameCoordinates,Original*
G04 #@! TF.FileFunction,Soldermask,Top*
G04 #@! TF.FilePolarity,Negative*
%FSLAX46Y46*%
G04 Gerber Fmt 4.6, Leading zero omitted, Abs format (unit mm)*
G04 Created by KiCad (PCBNEW (5.1.9)-1) date 2021-04-11 13:59:09*
%MOMM*%
%LPD*%
G01*
G04 APERTURE LIST*
%ADD10C,1.000000*%
%ADD11C,4.500000*%
%ADD12C,6.400000*%
%ADD13C,0.800000*%
G04 APERTURE END LIST*
D10*
X60200000Y-53457438D03*
X61800000Y-56228719D03*
X62600000Y-57614359D03*
X61000000Y-54843078D03*
X63400000Y-59000000D03*
X51400000Y-60385640D03*
X53000000Y-63156921D03*
X52200000Y-61771281D03*
X57000000Y-64542561D03*
X53800000Y-59000000D03*
X54600000Y-57614359D03*
X53000000Y-54843078D03*
X56200000Y-63156921D03*
X57800000Y-63156921D03*
X54600000Y-60385640D03*
X55400000Y-59000000D03*
X52200000Y-56228719D03*
X58600000Y-64542561D03*
X56200000Y-60385640D03*
X55400000Y-61771281D03*
X53800000Y-56228719D03*
X53000000Y-57614359D03*
X57000000Y-61771281D03*
X52200000Y-59000000D03*
X53800000Y-64542561D03*
X55400000Y-64542561D03*
X51400000Y-57614359D03*
X53800000Y-61771281D03*
X53000000Y-60385640D03*
X54600000Y-63156921D03*
X50600000Y-59000000D03*
X61000000Y-60385640D03*
X57000000Y-53457438D03*
X61800000Y-61771281D03*
X61800000Y-59000000D03*
X58600000Y-56228719D03*
X58600000Y-53457438D03*
X59400000Y-54843078D03*
X61000000Y-57614359D03*
X59400000Y-57614359D03*
X60200000Y-56228719D03*
X57800000Y-54843078D03*
X62600000Y-60385640D03*
X60200000Y-59000000D03*
X59400000Y-60385640D03*
X55400000Y-53457438D03*
X61000000Y-63156921D03*
X60200000Y-61771281D03*
X57000000Y-56228719D03*
X57800000Y-57614359D03*
X56200000Y-54843078D03*
X58600000Y-59000000D03*
X60200000Y-64542561D03*
X54600000Y-54843078D03*
X56200000Y-57614359D03*
X55400000Y-56228719D03*
X53800000Y-53457438D03*
X59400000Y-63156921D03*
X58600000Y-61771281D03*
X57800000Y-60385640D03*
X57000000Y-59000000D03*
G36*
G01*
X144193289Y-59446416D02*
X144193289Y-59446416D01*
G75*
G02*
X145369470Y-57766655I1427971J251790D01*
G01*
X168315490Y-53720653D01*
G75*
G02*
X169995251Y-54896834I251790J-1427971D01*
G01*
X169995251Y-54896834D01*
G75*
G02*
X168819070Y-56576595I-1427971J-251790D01*
G01*
X145873050Y-60622597D01*
G75*
G02*
X144193289Y-59446416I-251790J1427971D01*
G01*
G37*
D11*
X173616606Y-52687416D03*
X129407394Y1661416D03*
X140034662Y-58608819D03*
X162989338Y7582819D03*
D12*
X-7144000Y14288000D03*
D13*
X-4744000Y14288000D03*
X-5446944Y12590944D03*
X-7144000Y11888000D03*
X-8841056Y12590944D03*
X-9544000Y14288000D03*
X-8841056Y15985056D03*
X-7144000Y16688000D03*
X-5446944Y15985056D03*
D12*
X-7144000Y-71438000D03*
D13*
X-4744000Y-71438000D03*
X-5446944Y-73135056D03*
X-7144000Y-73838000D03*
X-8841056Y-73135056D03*
X-9544000Y-71438000D03*
X-8841056Y-69740944D03*
X-7144000Y-69038000D03*
X-5446944Y-69740944D03*
D12*
X175178000Y-60995000D03*
D13*
X177578000Y-60995000D03*
X176875056Y-62692056D03*
X175178000Y-63395000D03*
X173480944Y-62692056D03*
X172778000Y-60995000D03*
X173480944Y-59297944D03*
X175178000Y-58595000D03*
X176875056Y-59297944D03*
D12*
X50006000Y-90487000D03*
D13*
X52406000Y-90487000D03*
X51703056Y-92184056D03*
X50006000Y-92887000D03*
X48308944Y-92184056D03*
X47606000Y-90487000D03*
X48308944Y-88789944D03*
X50006000Y-88087000D03*
X51703056Y-88789944D03*
D12*
X42863000Y26194000D03*
D13*
X45263000Y26194000D03*
X44560056Y24496944D03*
X42863000Y23794000D03*
X41165944Y24496944D03*
X40463000Y26194000D03*
X41165944Y27891056D03*
X42863000Y28594000D03*
X44560056Y27891056D03*
D12*
X88106000Y-114300000D03*
D13*
X90506000Y-114300000D03*
X89803056Y-115997056D03*
X88106000Y-116700000D03*
X86408944Y-115997056D03*
X85706000Y-114300000D03*
X86408944Y-112602944D03*
X88106000Y-111900000D03*
X89803056Y-112602944D03*
D12*
X129777999Y-50006000D03*
D13*
X132177999Y-50006000D03*
X131475055Y-51703056D03*
X129777999Y-52406000D03*
X128080943Y-51703056D03*
X127377999Y-50006000D03*
X128080943Y-48308944D03*
X129777999Y-47606000D03*
X131475055Y-48308944D03*
D12*
X111101000Y17172000D03*
D13*
X113501000Y17172000D03*
X112798056Y15474944D03*
X111101000Y14772000D03*
X109403944Y15474944D03*
X108701000Y17172000D03*
X109403944Y18869056D03*
X111101000Y19572000D03*
X112798056Y18869056D03*
D12*
X161532000Y16393000D03*
D13*
X163932000Y16393000D03*
X163229056Y14695944D03*
X161532000Y13993000D03*
X159834944Y14695944D03*
X159132000Y16393000D03*
X159834944Y18090056D03*
X161532000Y18793000D03*
X163229056Y18090056D03*
D12*
X129393000Y20397000D03*
D13*
X131793000Y20397000D03*
X131090056Y18699944D03*
X129393000Y17997000D03*
X127695944Y18699944D03*
X126993000Y20397000D03*
X127695944Y22094056D03*
X129393000Y22797000D03*
X131090056Y22094056D03*
D12*
X116681000Y-114300000D03*
D13*
X119081000Y-114300000D03*
X118378056Y-115997056D03*
X116681000Y-116700000D03*
X114983944Y-115997056D03*
X114281000Y-114300000D03*
X114983944Y-112602944D03*
X116681000Y-111900000D03*
X118378056Y-112602944D03*
M02*
